<?xml version="1.0" encoding="UTF-8"?>
<!DOCTYPE svg PUBLIC "-//W3C//DTD SVG 1.1//EN" "http://www.w3.org/Graphics/SVG/1.1/DTD/svg11.dtd">
<svg xmlns="http://www.w3.org/2000/svg" version="1.1" width="60px" height="60px" style="shape-rendering:geometricPrecision; text-rendering:geometricPrecision; image-rendering:optimizeQuality; fill-rule:evenodd; clip-rule:evenodd" xmlns:xlink="http://www.w3.org/1999/xlink">
<g><path style="opacity:0.848" fill="#fefdfd" d="M 21.5,-0.5 C 26.8333,-0.5 32.1667,-0.5 37.5,-0.5C 48.5,3.16667 55.8333,10.5 59.5,21.5C 59.5,26.8333 59.5,32.1667 59.5,37.5C 55.8333,48.5 48.5,55.8333 37.5,59.5C 32.1667,59.5 26.8333,59.5 21.5,59.5C 10.5,55.8333 3.16667,48.5 -0.5,37.5C -0.5,32.1667 -0.5,26.8333 -0.5,21.5C 3.16667,10.5 10.5,3.16667 21.5,-0.5 Z"/></g>
<g><path style="opacity:1" fill="#fbddf9" d="M 45.5,51.5 C 44.015,48.9173 41.6817,47.584 38.5,47.5C 38.0269,46.0937 37.0269,45.427 35.5,45.5C 36.2407,42.366 37.2407,39.366 38.5,36.5C 41.3067,35.0201 42.9734,32.6868 43.5,29.5C 42.9728,25.669 42.3061,22.0024 41.5,18.5C 41.2624,16.5956 40.2624,15.2623 38.5,14.5C 37.0578,12.3635 35.8911,10.0302 35,7.5C 33.4157,6.13865 31.5824,5.47199 29.5,5.5C 27.3453,5.37201 25.3453,5.87201 23.5,7C 22.2916,10.1537 20.6249,12.987 18.5,15.5C 16.9827,17.4621 16.3161,19.7954 16.5,22.5C 16.3817,25.4857 17.0483,28.1524 18.5,30.5C 18.2053,32.7354 18.5386,34.7354 19.5,36.5C 20.8056,38.8162 22.1389,41.1495 23.5,43.5C 23.1373,44.1835 22.8039,44.8501 22.5,45.5C 21.8333,45.5 21.5,45.8333 21.5,46.5C 18.5544,47.3061 15.8877,48.6395 13.5,50.5C 3.64558,42.8149 0.478909,32.8149 4,20.5C 11.4508,4.45546 23.6174,-0.71121 40.5,5C 52.5936,11.1165 57.7603,20.9498 56,34.5C 54.4899,41.5443 50.9899,47.2109 45.5,51.5 Z"/></g>
<g><path style="opacity:1" fill="#733c48" d="M 29.5,5.5 C 31.5824,5.47199 33.4157,6.13865 35,7.5C 35.8911,10.0302 37.0578,12.3635 38.5,14.5C 37.0047,14.4148 36.0047,15.0815 35.5,16.5C 36.2472,16.7365 37.0805,17.0698 38,17.5C 39.6923,20.7761 40.859,24.1095 41.5,27.5C 41.0133,28.4734 40.5133,29.4734 40,30.5C 39.9751,26.0468 38.8084,22.0468 36.5,18.5C 35.1667,18.1667 33.8333,17.8333 32.5,17.5C 30.9254,15.8863 30.2587,13.8863 30.5,11.5C 31.552,11.6495 32.552,11.4828 33.5,11C 31.1811,9.8526 29.8477,8.01927 29.5,5.5 Z"/></g>
<g><path style="opacity:1" fill="#a56771" d="M 29.5,5.5 C 29.8477,8.01927 31.1811,9.8526 33.5,11C 32.552,11.4828 31.552,11.6495 30.5,11.5C 30.2587,13.8863 30.9254,15.8863 32.5,17.5C 31.1667,17.5 29.8333,17.5 28.5,17.5C 25.509,17.1663 23.1757,18.1663 21.5,20.5C 20.7321,21.2625 20.2321,22.2625 20,23.5C 19.5017,26.8168 19.335,30.1501 19.5,33.5C 19.5,34.5 19.5,35.5 19.5,36.5C 18.5386,34.7354 18.2053,32.7354 18.5,30.5C 18.5,25.5 18.5,20.5 18.5,15.5C 20.6249,12.987 22.2916,10.1537 23.5,7C 25.3453,5.87201 27.3453,5.37201 29.5,5.5 Z"/></g>
<g><path style="opacity:1" fill="#c39aa5" d="M 18.5,15.5 C 18.5,20.5 18.5,25.5 18.5,30.5C 17.0483,28.1524 16.3817,25.4857 16.5,22.5C 16.3161,19.7954 16.9827,17.4621 18.5,15.5 Z"/></g>
<g><path style="opacity:1" fill="#543037" d="M 38.5,14.5 C 40.2624,15.2623 41.2624,16.5956 41.5,18.5C 41.5,21.5 41.5,24.5 41.5,27.5C 40.859,24.1095 39.6923,20.7761 38,17.5C 37.0805,17.0698 36.2472,16.7365 35.5,16.5C 36.0047,15.0815 37.0047,14.4148 38.5,14.5 Z"/></g>
<g><path style="opacity:1" fill="#e7bcb5" d="M 28.5,17.5 C 28.9417,21.3843 27.275,23.3843 23.5,23.5C 21.9519,23.1788 21.2852,22.1788 21.5,20.5C 23.1757,18.1663 25.509,17.1663 28.5,17.5 Z"/></g>
<g><path style="opacity:1" fill="#d69d94" d="M 28.5,17.5 C 29.8333,17.5 31.1667,17.5 32.5,17.5C 33.8333,17.8333 35.1667,18.1667 36.5,18.5C 36.5,19.8333 36.5,21.1667 36.5,22.5C 35.0413,22.4326 33.7079,22.7659 32.5,23.5C 31.1667,24.1667 30.1667,25.1667 29.5,26.5C 28.8333,26.5 28.1667,26.5 27.5,26.5C 27.5,25.5 27.5,24.5 27.5,23.5C 26.1667,23.5 24.8333,23.5 23.5,23.5C 27.275,23.3843 28.9417,21.3843 28.5,17.5 Z"/></g>
<g><path style="opacity:1" fill="#ae7977" d="M 21.5,20.5 C 21.2852,22.1788 21.9519,23.1788 23.5,23.5C 24.8333,23.5 26.1667,23.5 27.5,23.5C 27.5,24.5 27.5,25.5 27.5,26.5C 27.0401,27.9992 25.7067,28.9992 23.5,29.5C 23.762,28.0222 23.4287,26.6888 22.5,25.5C 21.52,28.0865 21.1866,30.7531 21.5,33.5C 20.8333,33.5 20.1667,33.5 19.5,33.5C 19.335,30.1501 19.5017,26.8168 20,23.5C 20.2321,22.2625 20.7321,21.2625 21.5,20.5 Z"/></g>
<g><path style="opacity:1" fill="#8f5755" d="M 36.5,18.5 C 38.8084,22.0468 39.9751,26.0468 40,30.5C 40.5133,29.4734 41.0133,28.4734 41.5,27.5C 41.5,24.5 41.5,21.5 41.5,18.5C 42.3061,22.0024 42.9728,25.669 43.5,29.5C 42.9734,32.6868 41.3067,35.0201 38.5,36.5C 38.5,34.5 38.5,32.5 38.5,30.5C 38.5,28.8333 38.5,27.1667 38.5,25.5C 35.9179,25.9746 33.9179,25.3079 32.5,23.5C 33.7079,22.7659 35.0413,22.4326 36.5,22.5C 36.5,21.1667 36.5,19.8333 36.5,18.5 Z"/></g>
<g><path style="opacity:1" fill="#b4726a" d="M 32.5,23.5 C 33.9179,25.3079 35.9179,25.9746 38.5,25.5C 38.5,27.1667 38.5,28.8333 38.5,30.5C 37.4535,33.3746 35.4535,35.3746 32.5,36.5C 30.5168,36.8432 29.1834,36.1765 28.5,34.5C 29.4731,32.0521 29.8064,29.3854 29.5,26.5C 30.1667,25.1667 31.1667,24.1667 32.5,23.5 Z"/></g>
<g><path style="opacity:1" fill="#e6bbb5" d="M 27.5,26.5 C 28.1667,26.5 28.8333,26.5 29.5,26.5C 29.8064,29.3854 29.4731,32.0521 28.5,34.5C 26.2362,33.7814 23.9029,33.448 21.5,33.5C 21.1866,30.7531 21.52,28.0865 22.5,25.5C 23.4287,26.6888 23.762,28.0222 23.5,29.5C 25.7067,28.9992 27.0401,27.9992 27.5,26.5 Z"/></g>
<g><path style="opacity:1" fill="#d8a29b" d="M 19.5,33.5 C 20.1667,33.5 20.8333,33.5 21.5,33.5C 23.9029,33.448 26.2362,33.7814 28.5,34.5C 29.1834,36.1765 30.5168,36.8432 32.5,36.5C 30.1667,37.1667 27.8333,37.8333 25.5,38.5C 25.5394,39.5832 25.8728,40.5832 26.5,41.5C 23.8367,43.516 24.17,44.8493 27.5,45.5C 29.7593,46.344 30.7593,48.0107 30.5,50.5C 26.8206,50.333 24.154,48.6663 22.5,45.5C 22.8039,44.8501 23.1373,44.1835 23.5,43.5C 22.1389,41.1495 20.8056,38.8162 19.5,36.5C 19.5,35.5 19.5,34.5 19.5,33.5 Z"/></g>
<g><path style="opacity:1" fill="#a1564e" d="M 38.5,30.5 C 38.5,32.5 38.5,34.5 38.5,36.5C 37.2407,39.366 36.2407,42.366 35.5,45.5C 35.5,46.1667 35.5,46.8333 35.5,47.5C 33.9991,48.7515 32.3325,49.7515 30.5,50.5C 30.7593,48.0107 29.7593,46.344 27.5,45.5C 29.8093,43.9723 31.8093,41.9723 33.5,39.5C 31.0051,39.7373 28.3384,39.404 25.5,38.5C 27.8333,37.8333 30.1667,37.1667 32.5,36.5C 35.4535,35.3746 37.4535,33.3746 38.5,30.5 Z"/></g>
<g><path style="opacity:1" fill="#c9837a" d="M 25.5,38.5 C 28.3384,39.404 31.0051,39.7373 33.5,39.5C 31.8093,41.9723 29.8093,43.9723 27.5,45.5C 24.17,44.8493 23.8367,43.516 26.5,41.5C 25.8728,40.5832 25.5394,39.5832 25.5,38.5 Z"/></g>
<g><path style="opacity:1" fill="#6d565b" d="M 38.5,47.5 C 41.6817,47.584 44.015,48.9173 45.5,51.5C 44.8333,51.8333 44.1667,52.1667 43.5,52.5C 42.0484,51.6981 40.3817,51.1981 38.5,51C 37.8288,50.0138 37.8288,48.8471 38.5,47.5 Z"/></g>
<g><path style="opacity:1" fill="#a28389" d="M 21.5,46.5 C 21.1024,49.4243 19.769,51.7576 17.5,53.5C 15.7697,52.9744 14.4363,51.9744 13.5,50.5C 15.8877,48.6395 18.5544,47.3061 21.5,46.5 Z"/></g>
<g><path style="opacity:1" fill="#623b43" d="M 35.5,45.5 C 37.0269,45.427 38.0269,46.0937 38.5,47.5C 37.8288,48.8471 37.8288,50.0138 38.5,51C 40.3817,51.1981 42.0484,51.6981 43.5,52.5C 41.9505,53.4408 40.2838,54.1075 38.5,54.5C 36.1489,52.9304 33.4823,52.0971 30.5,52C 33.1146,51.3881 34.7813,49.8881 35.5,47.5C 35.5,46.8333 35.5,46.1667 35.5,45.5 Z"/></g>
<g><path style="opacity:1" fill="#845b63" d="M 22.5,45.5 C 24.154,48.6663 26.8206,50.333 30.5,50.5C 32.3325,49.7515 33.9991,48.7515 35.5,47.5C 34.7813,49.8881 33.1146,51.3881 30.5,52C 33.4823,52.0971 36.1489,52.9304 38.5,54.5C 31.469,57.2595 24.469,56.9262 17.5,53.5C 19.769,51.7576 21.1024,49.4243 21.5,46.5C 21.5,45.8333 21.8333,45.5 22.5,45.5 Z"/></g>
</svg>
