<?xml version="1.0" encoding="UTF-8"?>
<!DOCTYPE svg PUBLIC "-//W3C//DTD SVG 1.1//EN" "http://www.w3.org/Graphics/SVG/1.1/DTD/svg11.dtd">
<svg xmlns="http://www.w3.org/2000/svg" version="1.1" width="60px" height="60px" style="shape-rendering:geometricPrecision; text-rendering:geometricPrecision; image-rendering:optimizeQuality; fill-rule:evenodd; clip-rule:evenodd" xmlns:xlink="http://www.w3.org/1999/xlink">
<g><path style="opacity:0.874" fill="#faf9f9" d="M 21.5,-0.5 C 26.8333,-0.5 32.1667,-0.5 37.5,-0.5C 48.5,3.16667 55.8333,10.5 59.5,21.5C 59.5,26.8333 59.5,32.1667 59.5,37.5C 55.8333,48.5 48.5,55.8333 37.5,59.5C 32.1667,59.5 26.8333,59.5 21.5,59.5C 10.5,55.8333 3.16667,48.5 -0.5,37.5C -0.5,32.1667 -0.5,26.8333 -0.5,21.5C 3.16667,10.5 10.5,3.16667 21.5,-0.5 Z"/></g>
<g><path style="opacity:1" fill="#2e1f21" d="M 25.5,5.5 C 26.8333,6.16667 27.8333,7.16667 28.5,8.5C 28.8656,9.69459 29.699,10.3613 31,10.5C 33.1986,9.35464 35.3652,9.35464 37.5,10.5C 38.0891,13.2762 39.4224,15.6096 41.5,17.5C 41.2907,18.086 40.9574,18.586 40.5,19C 41.8721,20.2419 42.8721,21.7419 43.5,23.5C 42.2556,26.8106 42.2556,30.1439 43.5,33.5C 42.1448,37.392 41.3114,37.0587 41,32.5C 40.7216,33.4158 40.2216,34.0825 39.5,34.5C 39.7753,27.6951 38.942,21.0284 37,14.5C 36.6174,13.944 36.1174,13.6107 35.5,13.5C 30.0835,12.1074 24.7502,12.4408 19.5,14.5C 19.5,16.5 19.5,18.5 19.5,20.5C 15.8548,28.6737 17.1881,36.007 23.5,42.5C 23.1373,43.1835 22.8039,43.8501 22.5,44.5C 20.9826,44.5106 19.8159,45.1772 19,46.5C 17.9568,42.7741 17.4568,43.1074 17.5,47.5C 16.1667,47.5 14.8333,47.5 13.5,47.5C 13.4358,43.7802 12.9358,40.1135 12,36.5C 11.6667,38.8333 11.3333,41.1667 11,43.5C 10.7392,39.294 10.2392,35.1274 9.5,31C 11.2003,26.8985 12.7003,22.7318 14,18.5C 14.7845,16.714 15.9512,15.214 17.5,14C 16.8333,13.3333 16.1667,13.3333 15.5,14C 14.2125,15.4095 13.0458,16.9095 12,18.5C 12.329,10.0062 16.829,5.67284 25.5,5.5 Z"/></g>
<g><path style="opacity:1" fill="#49393c" d="M 42.5,6.5 C 42.0618,6.43456 41.7284,6.60123 41.5,7C 43.2807,9.23651 45.2807,11.2365 47.5,13C 46.3759,13.8388 45.7092,15.0055 45.5,16.5C 47.0432,16.7747 48.0432,18.7747 48.5,22.5C 47.7542,23.7362 47.4208,25.0695 47.5,26.5C 46.7677,25.1917 45.9344,23.8584 45,22.5C 44.7601,28.514 44.7601,34.514 45,40.5C 44.0978,42.4308 42.9312,44.0975 41.5,45.5C 41.6716,44.5084 41.3382,43.8417 40.5,43.5C 40.6107,42.8826 40.944,42.3826 41.5,42C 40.4178,40.6703 39.7512,39.1703 39.5,37.5C 39.5,36.5 39.5,35.5 39.5,34.5C 40.2216,34.0825 40.7216,33.4158 41,32.5C 41.3114,37.0587 42.1448,37.392 43.5,33.5C 42.2556,30.1439 42.2556,26.8106 43.5,23.5C 42.8721,21.7419 41.8721,20.2419 40.5,19C 40.9574,18.586 41.2907,18.086 41.5,17.5C 39.4224,15.6096 38.0891,13.2762 37.5,10.5C 35.3652,9.35464 33.1986,9.35464 31,10.5C 29.699,10.3613 28.8656,9.69459 28.5,8.5C 30.5441,7.96882 32.2107,6.80216 33.5,5C 36.8632,4.07261 39.8632,4.57261 42.5,6.5 Z"/></g>
<g><path style="opacity:1" fill="#302527" d="M 42.5,6.5 C 50.6803,10.7713 55.3469,17.6046 56.5,27C 54.5585,30.9286 52.5585,35.4286 50.5,40.5C 50.6633,38.1432 50.4966,35.8098 50,33.5C 47.8266,36.277 47.3266,36.1103 48.5,33C 47.6919,32.6924 47.0253,32.1924 46.5,31.5C 47.3094,29.9291 47.6427,28.2624 47.5,26.5C 47.4208,25.0695 47.7542,23.7362 48.5,22.5C 48.0432,18.7747 47.0432,16.7747 45.5,16.5C 45.7092,15.0055 46.3759,13.8388 47.5,13C 45.2807,11.2365 43.2807,9.23651 41.5,7C 41.7284,6.60123 42.0618,6.43456 42.5,6.5 Z"/></g>
<g><path style="opacity:1" fill="#7e504c" d="M 35.5,13.5 C 35.5,15.8333 35.5,18.1667 35.5,20.5C 34.5,20.5 33.5,20.5 32.5,20.5C 32.9926,22.8056 33.3259,25.139 33.5,27.5C 35.451,27.7733 36.951,27.1066 38,25.5C 38.7118,29.8759 37.2118,33.2093 33.5,35.5C 30.6247,36.3063 27.958,36.6397 25.5,36.5C 26.3039,38.7285 27.6373,39.0619 29.5,37.5C 33.0944,38.1243 33.4277,39.6243 30.5,42C 29.1667,42.6667 27.8333,43.3333 26.5,44C 28.9676,44.9793 30.9676,46.4793 32.5,48.5C 30.3718,49.6291 28.0385,49.7958 25.5,49C 23.5614,48.0922 22.5614,46.5922 22.5,44.5C 22.8039,43.8501 23.1373,43.1835 23.5,42.5C 17.1881,36.007 15.8548,28.6737 19.5,20.5C 19.5,18.5 19.5,16.5 19.5,14.5C 24.7502,12.4408 30.0835,12.1074 35.5,13.5 Z"/></g>
<g><path style="opacity:1" fill="#574649" d="M 25.5,5.5 C 16.829,5.67284 12.329,10.0062 12,18.5C 13.0458,16.9095 14.2125,15.4095 15.5,14C 16.1667,13.3333 16.8333,13.3333 17.5,14C 15.9512,15.214 14.7845,16.714 14,18.5C 12.7003,22.7318 11.2003,26.8985 9.5,31C 10.2392,35.1274 10.7392,39.294 11,43.5C 11.3333,41.1667 11.6667,38.8333 12,36.5C 12.9358,40.1135 13.4358,43.7802 13.5,47.5C 13.1667,47.5 12.8333,47.5 12.5,47.5C 8.22348,43.1937 5.72348,37.8603 5,31.5C 4.66667,31.8333 4.33333,32.1667 4,32.5C 2.27897,26.0974 3.27897,20.0974 7,14.5C 10.2012,10.9636 13.7012,7.79693 17.5,5C 20.367,4.19927 23.0336,4.36594 25.5,5.5 Z"/></g>
<g><path style="opacity:1" fill="#a8827e" d="M 19.5,20.5 C 20.5382,18.4281 22.0382,16.7615 24,15.5C 25.4782,16.9782 26.9782,18.4782 28.5,20C 25.5488,20.096 22.8822,20.9293 20.5,22.5C 22.756,23.4209 23.756,25.0876 23.5,27.5C 25.9732,27.264 27.6399,25.9307 28.5,23.5C 29.4841,26.4281 29.8174,29.4281 29.5,32.5C 26.4824,32.7038 23.4824,33.0371 20.5,33.5C 19.8005,29.2022 19.4672,24.8689 19.5,20.5 Z"/></g>
<g><path style="opacity:1" fill="#4b2623" d="M 35.5,13.5 C 36.1174,13.6107 36.6174,13.944 37,14.5C 38.942,21.0284 39.7753,27.6951 39.5,34.5C 39.5,35.5 39.5,36.5 39.5,37.5C 38.5714,38.9361 37.4048,40.2695 36,41.5C 35.2599,42.7494 35.4265,43.7494 36.5,44.5C 36.5,45.1667 36.5,45.8333 36.5,46.5C 35.4863,47.6737 34.153,48.3404 32.5,48.5C 30.9676,46.4793 28.9676,44.9793 26.5,44C 27.8333,43.3333 29.1667,42.6667 30.5,42C 33.4277,39.6243 33.0944,38.1243 29.5,37.5C 27.6373,39.0619 26.3039,38.7285 25.5,36.5C 27.958,36.6397 30.6247,36.3063 33.5,35.5C 37.2118,33.2093 38.7118,29.8759 38,25.5C 36.951,27.1066 35.451,27.7733 33.5,27.5C 33.3259,25.139 32.9926,22.8056 32.5,20.5C 33.5,20.5 34.5,20.5 35.5,20.5C 35.5,18.1667 35.5,15.8333 35.5,13.5 Z"/></g>
<g><path style="opacity:1" fill="#1f1718" d="M 47.5,26.5 C 47.6427,28.2624 47.3094,29.9291 46.5,31.5C 47.0253,32.1924 47.6919,32.6924 48.5,33C 47.3266,36.1103 47.8266,36.277 50,33.5C 50.4966,35.8098 50.6633,38.1432 50.5,40.5C 50.2838,43.2562 49.2838,45.5895 47.5,47.5C 44.9179,47.9746 42.9179,47.3079 41.5,45.5C 42.9312,44.0975 44.0978,42.4308 45,40.5C 44.7601,34.514 44.7601,28.514 45,22.5C 45.9344,23.8584 46.7677,25.1917 47.5,26.5 Z"/></g>
<g><path style="opacity:1" fill="#191011" d="M 39.5,37.5 C 39.7512,39.1703 40.4178,40.6703 41.5,42C 40.944,42.3826 40.6107,42.8826 40.5,43.5C 40.6495,44.552 40.4828,45.552 40,46.5C 39.1841,45.1772 38.0174,44.5106 36.5,44.5C 35.4265,43.7494 35.2599,42.7494 36,41.5C 37.4048,40.2695 38.5714,38.9361 39.5,37.5 Z"/></g>
<g><path style="opacity:1" fill="#bb7e75" d="M 40.5,43.5 C 41.3382,43.8417 41.6716,44.5084 41.5,45.5C 42.9179,47.3079 44.9179,47.9746 47.5,47.5C 46.4356,50.8927 44.1023,52.8927 40.5,53.5C 39.5732,51.4238 37.9065,50.2572 35.5,50C 37.3115,48.9593 37.6448,47.7927 36.5,46.5C 36.5,45.8333 36.5,45.1667 36.5,44.5C 38.0174,44.5106 39.1841,45.1772 40,46.5C 40.4828,45.552 40.6495,44.552 40.5,43.5 Z"/></g>
<g><path style="opacity:1" fill="#deaca4" d="M 22.5,44.5 C 22.5614,46.5922 23.5614,48.0922 25.5,49C 28.0385,49.7958 30.3718,49.6291 32.5,48.5C 34.153,48.3404 35.4863,47.6737 36.5,46.5C 37.6448,47.7927 37.3115,48.9593 35.5,50C 37.9065,50.2572 39.5732,51.4238 40.5,53.5C 30.5457,58.2261 21.2123,57.0595 12.5,50C 13.5981,49.2303 13.5981,48.397 12.5,47.5C 12.8333,47.5 13.1667,47.5 13.5,47.5C 14.8333,47.5 16.1667,47.5 17.5,47.5C 17.4568,43.1074 17.9568,42.7741 19,46.5C 19.8159,45.1772 20.9826,44.5106 22.5,44.5 Z"/></g>
</svg>
