<?xml version="1.0" encoding="UTF-8"?>
<!DOCTYPE svg PUBLIC "-//W3C//DTD SVG 1.1//EN" "http://www.w3.org/Graphics/SVG/1.1/DTD/svg11.dtd">
<svg xmlns="http://www.w3.org/2000/svg" version="1.1" width="374px" height="808px" style="shape-rendering:geometricPrecision; text-rendering:geometricPrecision; image-rendering:optimizeQuality; fill-rule:evenodd; clip-rule:evenodd" xmlns:xlink="http://www.w3.org/1999/xlink">
<g><path style="opacity:0.998" fill="#128642" d="M 2.5,-0.5 C 126.167,-0.5 249.833,-0.5 373.5,-0.5C 373.5,268.833 373.5,538.167 373.5,807.5C 249.833,807.5 126.167,807.5 2.5,807.5C 2.5,538.167 2.5,268.833 2.5,-0.5 Z"/></g>
<g><path style="opacity:1" fill="#d2f0e4" d="M 233.5,41.5 C 236.5,41.1667 237.833,42.5 237.5,45.5C 236.167,45.5 234.833,45.5 233.5,45.5C 233.5,44.1667 233.5,42.8333 233.5,41.5 Z"/></g>
<g><path style="opacity:1" fill="#c3ecd5" d="M 123.5,42.5 C 123.5,49.5 123.5,56.5 123.5,63.5C 122.167,63.5 120.833,63.5 119.5,63.5C 119.5,56.1667 119.5,48.8333 119.5,41.5C 121.099,41.2322 122.432,41.5655 123.5,42.5 Z"/></g>
<g><path style="opacity:1" fill="#f7fef9" d="M 120.5,42.5 C 121.82,45.428 122.486,48.7614 122.5,52.5C 122.167,55.8333 121.833,59.1667 121.5,62.5C 120.503,55.8665 120.17,49.1998 120.5,42.5 Z"/></g>
<g><path style="opacity:1" fill="#85c0a0" d="M 245.5,59.5 C 244.523,56.7131 244.19,53.7131 244.5,50.5C 248.5,49.8333 248.5,49.1667 244.5,48.5C 244.5,47.5 244.5,46.5 244.5,45.5C 242.801,45.5271 241.467,46.1938 240.5,47.5C 240.5,46.5 240.5,45.5 240.5,44.5C 242.167,44.5 243.833,44.5 245.5,44.5C 245.5,45.5 245.5,46.5 245.5,47.5C 246.5,47.5 247.5,47.5 248.5,47.5C 248.5,48.8333 248.5,50.1667 248.5,51.5C 247.5,51.5 246.5,51.5 245.5,51.5C 245.5,54.1667 245.5,56.8333 245.5,59.5 Z"/></g>
<g><path style="opacity:1" fill="#e8f7ef" d="M 245.5,59.5 C 246.209,60.404 247.209,60.7373 248.5,60.5C 248.5,61.5 248.5,62.5 248.5,63.5C 245.635,63.9452 243.135,63.2785 241,61.5C 240.868,57.3381 240.034,53.3381 238.5,49.5C 238.747,48.2867 239.414,47.62 240.5,47.5C 241.467,46.1938 242.801,45.5271 244.5,45.5C 244.5,46.5 244.5,47.5 244.5,48.5C 248.5,49.1667 248.5,49.8333 244.5,50.5C 244.19,53.7131 244.523,56.7131 245.5,59.5 Z"/></g>
<g><path style="opacity:1" fill="#dff5e8" d="M 178.5,47.5 C 180.833,47.5 183.167,47.5 185.5,47.5C 186.806,48.4674 187.473,49.8007 187.5,51.5C 185.194,51.0074 182.861,50.6741 180.5,50.5C 180.33,51.8221 180.663,52.9887 181.5,54C 186.134,53.946 188.467,56.1126 188.5,60.5C 185.408,63.3549 181.741,64.1882 177.5,63C 176.269,61.8173 176.269,60.6507 177.5,59.5C 179.747,60.3742 182.08,60.7076 184.5,60.5C 184.5,59.5 184.5,58.5 184.5,57.5C 176.882,57.2522 174.882,53.9189 178.5,47.5 Z"/></g>
<g><path style="opacity:1" fill="#e3f6eb" d="M 138.5,47.5 C 139.122,48.6266 139.955,49.6266 141,50.5C 141.499,54.4862 141.666,58.4862 141.5,62.5C 140.5,62.5 139.5,62.5 138.5,62.5C 138.813,58.9581 138.479,55.6248 137.5,52.5C 135.777,51.193 133.943,51.193 132,52.5C 131.501,56.1516 131.335,59.8183 131.5,63.5C 130.167,63.5 128.833,63.5 127.5,63.5C 127.5,58.5 127.5,53.5 127.5,48.5C 128.833,48.5 130.167,48.5 131.5,48.5C 131.435,48.9382 131.601,49.2716 132,49.5C 133.789,47.771 135.956,47.1043 138.5,47.5 Z"/></g>
<g><path style="opacity:1" fill="#e3f5e9" d="M 250.5,41.5 C 251.833,41.5 253.167,41.5 254.5,41.5C 254.336,44.1873 254.503,46.854 255,49.5C 258.294,46.6888 261.294,47.0221 264,50.5C 264.499,54.8206 264.666,59.1539 264.5,63.5C 263.167,63.5 261.833,63.5 260.5,63.5C 260.5,59.5 260.5,55.5 260.5,51.5C 258.533,51.2606 256.699,51.5939 255,52.5C 254.501,56.1516 254.335,59.8183 254.5,63.5C 253.167,63.5 251.833,63.5 250.5,63.5C 250.5,56.1667 250.5,48.8333 250.5,41.5 Z"/></g>
<g><path style="opacity:1" fill="#f2fef7" d="M 233.5,48.5 C 234.5,48.5 235.5,48.5 236.5,48.5C 236.5,53.5 236.5,58.5 236.5,63.5C 235.5,63.5 234.5,63.5 233.5,63.5C 233.5,58.5 233.5,53.5 233.5,48.5 Z"/></g>
<g><path style="opacity:1" fill="#ddf1e5" d="M 216.5,47.5 C 217.978,47.238 219.311,47.5713 220.5,48.5C 221.67,51.2087 222.837,53.8754 224,56.5C 225.145,53.5682 225.978,50.5682 226.5,47.5C 227.833,47.5 229.167,47.5 230.5,47.5C 229.366,52.8991 228.032,58.2325 226.5,63.5C 224.712,63.7852 223.045,63.4519 221.5,62.5C 219.108,51.9236 216.941,51.9236 215,62.5C 213.506,63.7472 212.006,63.7472 210.5,62.5C 208.959,57.8789 207.626,53.2122 206.5,48.5C 207.833,48.5 209.167,48.5 210.5,48.5C 210.618,51.6883 211.451,54.6883 213,57.5C 214.077,54.1007 215.244,50.7674 216.5,47.5 Z"/></g>
<g><path style="opacity:1" fill="#e3f5ea" d="M 147.5,48.5 C 148.606,51.4016 149.772,54.4016 151,57.5C 152.627,54.6428 153.793,51.6428 154.5,48.5C 155.978,48.238 157.311,48.5713 158.5,49.5C 157.21,54.3762 155.543,59.0428 153.5,63.5C 151.833,63.5 150.167,63.5 148.5,63.5C 148.737,62.209 148.404,61.209 147.5,60.5C 146.508,57.1771 145.508,53.8437 144.5,50.5C 144.821,48.9519 145.821,48.2852 147.5,48.5 Z"/></g>
<g><path style="opacity:1" fill="#409463" d="M 191.5,44.5 C 191.5,45.8333 191.5,47.1667 191.5,48.5C 187.7,48.8194 187.534,49.8194 191,51.5C 191.24,55.2519 191.74,58.9186 192.5,62.5C 191.167,61.8333 189.833,61.1667 188.5,60.5C 188.467,56.1126 186.134,53.946 181.5,54C 180.663,52.9887 180.33,51.8221 180.5,50.5C 182.861,50.6741 185.194,51.0074 187.5,51.5C 187.473,49.8007 186.806,48.4674 185.5,47.5C 187.167,47.5 188.833,47.5 190.5,47.5C 190.263,46.209 190.596,45.209 191.5,44.5 Z"/></g>
<g><path style="opacity:1" fill="#eafcf2" d="M 191.5,44.5 C 192.5,44.5 193.5,44.5 194.5,44.5C 194.325,47.3289 195.658,48.9955 198.5,49.5C 197.311,50.4287 195.978,50.762 194.5,50.5C 194.335,53.5184 194.502,56.5184 195,59.5C 196.011,60.3366 197.178,60.67 198.5,60.5C 198.5,61.5 198.5,62.5 198.5,63.5C 196.265,63.7947 194.265,63.4614 192.5,62.5C 191.74,58.9186 191.24,55.2519 191,51.5C 187.534,49.8194 187.7,48.8194 191.5,48.5C 191.5,47.1667 191.5,45.8333 191.5,44.5 Z"/></g>
<g><path style="opacity:1" fill="#79bb96" d="M 138.5,47.5 C 140.017,47.5106 141.184,48.1772 142,49.5C 143.62,47.368 145.454,47.0347 147.5,48.5C 145.821,48.2852 144.821,48.9519 144.5,50.5C 142.57,54.3727 141.903,58.706 142.5,63.5C 140.833,63.5 139.167,63.5 137.5,63.5C 137.5,59.8333 137.5,56.1667 137.5,52.5C 138.479,55.6248 138.813,58.9581 138.5,62.5C 139.5,62.5 140.5,62.5 141.5,62.5C 141.666,58.4862 141.499,54.4862 141,50.5C 139.955,49.6266 139.122,48.6266 138.5,47.5 Z"/></g>
<g><path style="opacity:1" fill="#3b9561" d="M 123.5,42.5 C 124.167,49.3447 124.833,56.3447 125.5,63.5C 126.495,58.2079 126.828,52.8746 126.5,47.5C 128.415,47.2155 130.081,47.5489 131.5,48.5C 130.167,48.5 128.833,48.5 127.5,48.5C 127.5,53.5 127.5,58.5 127.5,63.5C 128.833,63.5 130.167,63.5 131.5,63.5C 128.517,64.3875 125.35,65.0542 122,65.5C 120.624,65.3158 119.791,64.6491 119.5,63.5C 120.833,63.5 122.167,63.5 123.5,63.5C 123.5,56.5 123.5,49.5 123.5,42.5 Z"/></g>
<g><path style="opacity:1" fill="#2e8b53" d="M 154.5,48.5 C 155.919,47.5489 157.585,47.2155 159.5,47.5C 159.263,48.791 159.596,49.791 160.5,50.5C 157.436,61.271 161.436,65.4377 172.5,63C 173.731,61.8173 173.731,60.6507 172.5,59.5C 170.232,60.5443 167.899,60.711 165.5,60C 164.244,59.5831 163.577,58.7498 163.5,57.5C 167.167,57.5 170.833,57.5 174.5,57.5C 174.795,55.2646 174.461,53.2646 173.5,51.5C 172.473,49.8058 171.139,48.4725 169.5,47.5C 172.5,47.5 175.5,47.5 178.5,47.5C 174.882,53.9189 176.882,57.2522 184.5,57.5C 184.5,58.5 184.5,59.5 184.5,60.5C 182.08,60.7076 179.747,60.3742 177.5,59.5C 176.269,60.6507 176.269,61.8173 177.5,63C 181.741,64.1882 185.408,63.3549 188.5,60.5C 188.297,62.0443 187.63,63.3777 186.5,64.5C 182.623,65.197 178.79,65.8637 175,66.5C 169.593,65.5268 164.093,65.1934 158.5,65.5C 157.833,56.1667 157.167,56.1667 156.5,65.5C 153.5,65.5 150.5,65.5 147.5,65.5C 147.5,63.8333 147.5,62.1667 147.5,60.5C 148.404,61.209 148.737,62.209 148.5,63.5C 150.167,63.5 151.833,63.5 153.5,63.5C 155.543,59.0428 157.21,54.3762 158.5,49.5C 157.311,48.5713 155.978,48.238 154.5,48.5 Z"/></g>
<g><path style="opacity:1" fill="#7bbf99" d="M 173.5,51.5 C 174.461,53.2646 174.795,55.2646 174.5,57.5C 170.833,57.5 167.167,57.5 163.5,57.5C 166.625,56.5206 169.958,56.1872 173.5,56.5C 173.5,54.8333 173.5,53.1667 173.5,51.5 Z"/></g>
<g><path style="opacity:1" fill="#e6f8ed" d="M 169.5,47.5 C 171.139,48.4725 172.473,49.8058 173.5,51.5C 173.5,53.1667 173.5,54.8333 173.5,56.5C 169.958,56.1872 166.625,56.5206 163.5,57.5C 163.577,58.7498 164.244,59.5831 165.5,60C 167.899,60.711 170.232,60.5443 172.5,59.5C 173.731,60.6507 173.731,61.8173 172.5,63C 161.436,65.4377 157.436,61.271 160.5,50.5C 160.953,49.5416 161.619,48.7083 162.5,48C 164.81,47.5034 167.143,47.3367 169.5,47.5 Z"/></g>
<g><path style="opacity:1" fill="#3f8f66" d="M 164.5,50.5 C 167.969,49.8872 169.969,51.2206 170.5,54.5C 168.167,54.5 165.833,54.5 163.5,54.5C 163.433,53.0413 163.766,51.7079 164.5,50.5 Z"/></g>
<g><path style="opacity:1" fill="#e5f6ed" d="M 270.5,99.5 C 269.167,99.5 267.833,99.5 266.5,99.5C 266.828,94.1254 266.495,88.7921 265.5,83.5C 264.893,83.6236 264.56,83.9569 264.5,84.5C 263.292,85.2341 261.959,85.5674 260.5,85.5C 260.229,83.6203 260.896,82.287 262.5,81.5C 264.545,79.0156 267.212,78.0156 270.5,78.5C 270.5,85.5 270.5,92.5 270.5,99.5 Z"/></g>
<g><path style="opacity:1" fill="#ecfbf2" d="M 151.5,78.5 C 151.075,85.6652 151.742,92.6652 153.5,99.5C 152.167,99.5 150.833,99.5 149.5,99.5C 148.883,99.3893 148.383,99.056 148,98.5C 147.5,91.8417 147.334,85.175 147.5,78.5C 148.833,78.5 150.167,78.5 151.5,78.5 Z"/></g>
<g><path style="opacity:1" fill="#ceefdc" d="M 251.5,77.5 C 253.484,77.3832 255.15,78.0499 256.5,79.5C 255.113,79.8072 253.446,79.8072 251.5,79.5C 251.5,80.5 251.5,81.5 251.5,82.5C 255.605,82.4962 257.105,84.4962 256,88.5C 253.911,90.9592 251.745,90.9592 249.5,88.5C 255.906,87.3312 256.073,85.6645 250,83.5C 249.252,81.1599 249.752,79.1599 251.5,77.5 Z"/></g>
<g><path style="opacity:1" fill="#c3e3d0" d="M 121.5,85.5 C 119.972,86.8021 118.972,88.4687 118.5,90.5C 118.5,89.5 118.5,88.5 118.5,87.5C 116.08,87.2924 113.747,87.6258 111.5,88.5C 110.246,86.7408 110.579,85.2408 112.5,84C 115.863,83.0726 118.863,83.5726 121.5,85.5 Z"/></g>
<g><path style="opacity:1" fill="#dcf6e8" d="M 155.5,84.5 C 156.5,84.5 157.5,84.5 158.5,84.5C 158.5,89.5 158.5,94.5 158.5,99.5C 157.167,99.5 155.833,99.5 154.5,99.5C 154.179,94.3054 154.513,89.3054 155.5,84.5 Z"/></g>
<g><path style="opacity:1" fill="#effcf5" d="M 182.5,78.5 C 183.5,78.5 184.5,78.5 185.5,78.5C 185.177,84.69 185.51,90.69 186.5,96.5C 187.404,97.209 187.737,98.209 187.5,99.5C 185.856,99.7135 184.356,99.3802 183,98.5C 182.5,91.8417 182.334,85.175 182.5,78.5 Z"/></g>
<g><path style="opacity:1" fill="#9fd2b5" d="M 182.5,78.5 C 183.568,77.5655 184.901,77.2322 186.5,77.5C 186.5,83.5 186.5,89.5 186.5,95.5C 186.5,95.8333 186.5,96.1667 186.5,96.5C 185.51,90.69 185.177,84.69 185.5,78.5C 184.5,78.5 183.5,78.5 182.5,78.5 Z"/></g>
<g><path style="opacity:1" fill="#6fb08a" d="M 155.5,84.5 C 157.607,83.5318 159.941,83.1984 162.5,83.5C 161.194,84.4674 160.527,85.8007 160.5,87.5C 159.833,91.5 159.167,95.5 158.5,99.5C 158.5,94.5 158.5,89.5 158.5,84.5C 157.5,84.5 156.5,84.5 155.5,84.5 Z"/></g>
<g><path style="opacity:1" fill="#e4f5ea" d="M 166.5,80.5 C 166.5,81.8333 166.5,83.1667 166.5,84.5C 168.5,84.5 170.5,84.5 172.5,84.5C 172.5,83.1667 172.5,81.8333 172.5,80.5C 173.833,80.5 175.167,80.5 176.5,80.5C 176.5,81.8333 176.5,83.1667 176.5,84.5C 177.833,84.5 179.167,84.5 180.5,84.5C 180.5,85.5 180.5,86.5 180.5,87.5C 179.167,87.5 177.833,87.5 176.5,87.5C 176.5,90.5 176.5,93.5 176.5,96.5C 177.833,96.5 179.167,96.5 180.5,96.5C 180.5,97.5 180.5,98.5 180.5,99.5C 177.635,99.9452 175.135,99.2785 173,97.5C 172.502,94.1832 172.335,90.8499 172.5,87.5C 170.5,87.5 168.5,87.5 166.5,87.5C 166.335,90.5184 166.502,93.5184 167,96.5C 167.925,97.0465 168.758,97.7132 169.5,98.5C 167.955,99.4519 166.288,99.7852 164.5,99.5C 163.31,95.3157 161.977,91.3157 160.5,87.5C 160.527,85.8007 161.194,84.4674 162.5,83.5C 162.5,82.5 162.5,81.5 162.5,80.5C 163.833,80.5 165.167,80.5 166.5,80.5 Z"/></g>
<g><path style="opacity:1" fill="#e6f7ed" d="M 203.5,88.5 C 203.5,89.8333 203.5,91.1667 203.5,92.5C 199.774,92.1774 196.107,92.5108 192.5,93.5C 192.624,94.1067 192.957,94.44 193.5,94.5C 194.492,96.0265 195.992,96.6932 198,96.5C 199.561,96.3968 201.061,96.0634 202.5,95.5C 203.386,96.325 203.719,97.325 203.5,98.5C 193.399,102.376 188.732,99.0422 189.5,88.5C 192.832,82.943 197.165,82.1097 202.5,86C 203.252,86.6708 203.586,87.5041 203.5,88.5 Z"/></g>
<g><path style="opacity:1" fill="#388955" d="M 194.5,87.5 C 196.977,87.0508 198.977,87.7175 200.5,89.5C 198.167,90.8333 195.833,90.8333 193.5,89.5C 193.863,88.8165 194.196,88.1499 194.5,87.5 Z"/></g>
<g><path style="opacity:1" fill="#e7f6ec" d="M 226.5,87.5 C 226.5,91.5 226.5,95.5 226.5,99.5C 224.602,98.9035 222.935,98.9035 221.5,99.5C 221.167,99.5 220.833,99.5 220.5,99.5C 215.77,99.6972 214.103,97.6972 215.5,93.5C 216.176,94.6016 216.842,95.6016 217.5,96.5C 219.415,96.7845 221.081,96.4511 222.5,95.5C 223.404,94.791 223.737,93.791 223.5,92.5C 221.473,92.6621 219.473,92.4955 217.5,92C 218.416,91.7216 219.082,91.2216 219.5,90.5C 220.5,90.5 221.5,90.5 222.5,90.5C 222.5,89.5 222.5,88.5 222.5,87.5C 219.833,87.5 217.167,87.5 214.5,87.5C 214.375,84.1075 216.042,82.7741 219.5,83.5C 222.818,83.159 225.152,84.4924 226.5,87.5 Z"/></g>
<g><path style="opacity:1" fill="#398c5e" d="M 270.5,99.5 C 270.5,92.5 270.5,85.5 270.5,78.5C 267.212,78.0156 264.545,79.0156 262.5,81.5C 262.5,80.1667 262.5,78.8333 262.5,77.5C 265.5,77.5 268.5,77.5 271.5,77.5C 271.825,85.0191 271.492,92.3524 270.5,99.5 Z"/></g>
<g><path style="opacity:1" fill="#e0f2e7" d="M 136.5,98.5 C 133.236,99.3242 129.902,99.6576 126.5,99.5C 126.5,98.5 126.5,97.5 126.5,96.5C 128.833,96.5 131.167,96.5 133.5,96.5C 133.5,95.5 133.5,94.5 133.5,93.5C 128.661,94.3234 126.327,92.3234 126.5,87.5C 126.511,85.9826 127.177,84.8159 128.5,84C 131.23,83.2716 133.897,83.4383 136.5,84.5C 137.833,85.8333 137.833,87.1667 136.5,88.5C 134.484,87.2941 132.484,87.2941 130.5,88.5C 132.427,90.1019 134.594,91.4353 137,92.5C 137.678,94.5976 137.511,96.5976 136.5,98.5 Z"/></g>
<g><path style="opacity:1" fill="#a9d4bb" d="M 203.5,88.5 C 204.451,89.9187 204.784,91.5853 204.5,93.5C 200.629,93.185 196.962,93.5184 193.5,94.5C 192.957,94.44 192.624,94.1067 192.5,93.5C 196.107,92.5108 199.774,92.1774 203.5,92.5C 203.5,91.1667 203.5,89.8333 203.5,88.5 Z"/></g>
<g><path style="opacity:1" fill="#def4e7" d="M 232.5,83.5 C 234.527,83.3379 236.527,83.5045 238.5,84C 239.973,84.7096 240.64,85.8762 240.5,87.5C 238.076,87.1924 235.743,87.5258 233.5,88.5C 235.678,89.9787 238.012,91.312 240.5,92.5C 242.218,95.4728 241.551,97.6395 238.5,99C 235.518,99.498 232.518,99.6646 229.5,99.5C 229.343,98.1266 229.51,96.7932 230,95.5C 232.466,96.7766 234.966,96.7766 237.5,95.5C 234.841,94.1881 232.341,92.5215 230,90.5C 229.333,89.1667 229.333,87.8333 230,86.5C 231.045,85.6266 231.878,84.6266 232.5,83.5 Z"/></g>
<g><path style="opacity:1" fill="#dff3e6" d="M 121.5,85.5 C 122.167,85.8333 122.833,86.1667 123.5,86.5C 123.5,90.8333 123.5,95.1667 123.5,99.5C 119.873,98.4612 116.206,98.4612 112.5,99.5C 108.423,96.3437 108.756,93.5104 113.5,91C 115.134,90.5065 116.801,90.3398 118.5,90.5C 118.972,88.4687 119.972,86.8021 121.5,85.5 Z"/></g>
<g><path style="opacity:1" fill="#3a905c" d="M 182.5,78.5 C 182.334,85.175 182.5,91.8417 183,98.5C 184.356,99.3802 185.856,99.7135 187.5,99.5C 187.737,98.209 187.404,97.209 186.5,96.5C 186.5,96.1667 186.5,95.8333 186.5,95.5C 188.083,93.4922 189.083,91.1589 189.5,88.5C 188.732,99.0422 193.399,102.376 203.5,98.5C 201.952,99.7943 199.952,100.461 197.5,100.5C 186.385,100.595 175.385,100.262 164.5,99.5C 166.288,99.7852 167.955,99.4519 169.5,98.5C 168.758,97.7132 167.925,97.0465 167,96.5C 166.502,93.5184 166.335,90.5184 166.5,87.5C 168.5,87.5 170.5,87.5 172.5,87.5C 172.335,90.8499 172.502,94.1832 173,97.5C 175.135,99.2785 177.635,99.9452 180.5,99.5C 180.5,98.5 180.5,97.5 180.5,96.5C 179.167,96.5 177.833,96.5 176.5,96.5C 176.5,93.5 176.5,90.5 176.5,87.5C 177.833,87.5 179.167,87.5 180.5,87.5C 180.5,86.5 180.5,85.5 180.5,84.5C 179.167,84.5 177.833,84.5 176.5,84.5C 176.5,83.1667 176.5,81.8333 176.5,80.5C 177.404,81.209 177.737,82.209 177.5,83.5C 178.5,83.5 179.5,83.5 180.5,83.5C 180.077,81.2188 180.744,79.5521 182.5,78.5 Z"/></g>
<g><path style="opacity:1" fill="#2a844c" d="M 222.5,95.5 C 221.081,96.4511 219.415,96.7845 217.5,96.5C 217.5,95.5 217.5,94.5 217.5,93.5C 219.781,93.0773 221.448,93.744 222.5,95.5 Z"/></g>
<g><path style="opacity:1" fill="#2b854c" d="M 113.5,93.5 C 115.604,93.2011 117.604,93.5344 119.5,94.5C 117.977,96.2825 115.977,96.9492 113.5,96.5C 113.5,95.5 113.5,94.5 113.5,93.5 Z"/></g>
<g><path style="opacity:1" fill="#bce0c5" d="M 219.5,90.5 C 219.082,91.2216 218.416,91.7216 217.5,92C 219.473,92.4955 221.473,92.6621 223.5,92.5C 223.737,93.791 223.404,94.791 222.5,95.5C 221.448,93.744 219.781,93.0773 217.5,93.5C 217.5,94.5 217.5,95.5 217.5,96.5C 216.842,95.6016 216.176,94.6016 215.5,93.5C 214.103,97.6972 215.77,99.6972 220.5,99.5C 216.402,101.452 213.736,100.119 212.5,95.5C 213.547,92.1347 215.881,90.4681 219.5,90.5 Z"/></g>
<g><path style="opacity:1" fill="#69ac85" d="M 264.5,84.5 C 264.56,83.9569 264.893,83.6236 265.5,83.5C 266.495,88.7921 266.828,94.1254 266.5,99.5C 265.833,94.5 265.167,89.5 264.5,84.5 Z"/></g>
<g><path style="opacity:1" fill="#24874d" d="M 155.5,78.5 C 159.455,77.1046 163.122,77.7712 166.5,80.5C 165.167,80.5 163.833,80.5 162.5,80.5C 162.5,81.5 162.5,82.5 162.5,83.5C 159.941,83.1984 157.607,83.5318 155.5,84.5C 154.513,89.3054 154.179,94.3054 154.5,99.5C 155.833,99.5 157.167,99.5 158.5,99.5C 159.167,95.5 159.833,91.5 160.5,87.5C 161.977,91.3157 163.31,95.3157 164.5,99.5C 163.844,100.278 163.011,100.944 162,101.5C 157.684,100.92 153.517,100.253 149.5,99.5C 150.833,99.5 152.167,99.5 153.5,99.5C 151.742,92.6652 151.075,85.6652 151.5,78.5C 152.391,79.1098 153.391,79.4431 154.5,79.5C 154.999,82.3892 156.499,83.0558 159,81.5C 159.483,80.552 159.649,79.552 159.5,78.5C 158.167,78.5 156.833,78.5 155.5,78.5 Z"/></g>
<g><path style="opacity:1" fill="#c1ead5" d="M 155.5,78.5 C 156.833,78.5 158.167,78.5 159.5,78.5C 159.649,79.552 159.483,80.552 159,81.5C 156.499,83.0558 154.999,82.3892 154.5,79.5C 154.5,78.8333 154.833,78.5 155.5,78.5 Z"/></g>
<g><path style="opacity:1" fill="#6cb28e" d="M 226.5,87.5 C 227.485,91.6344 227.818,95.9677 227.5,100.5C 225.379,100.675 223.379,100.341 221.5,99.5C 222.935,98.9035 224.602,98.9035 226.5,99.5C 226.5,95.5 226.5,91.5 226.5,87.5 Z"/></g>
<g><path style="opacity:1" fill="#3b9360" d="M 123.5,86.5 C 124.314,88.631 124.814,90.9644 125,93.5C 125.191,91.2922 125.691,89.2922 126.5,87.5C 126.327,92.3234 128.661,94.3234 133.5,93.5C 133.5,94.5 133.5,95.5 133.5,96.5C 131.167,96.5 128.833,96.5 126.5,96.5C 126.5,97.5 126.5,98.5 126.5,99.5C 129.902,99.6576 133.236,99.3242 136.5,98.5C 132.893,99.824 128.893,100.491 124.5,100.5C 120.319,100.499 116.319,100.166 112.5,99.5C 116.206,98.4612 119.873,98.4612 123.5,99.5C 123.5,95.1667 123.5,90.8333 123.5,86.5 Z"/></g>
<g><path style="opacity:1" fill="#26894d" d="M 267.5,124.5 C 266.286,127.129 266.286,129.796 267.5,132.5C 265.602,131.266 263.935,131.599 262.5,133.5C 262.336,130.813 262.503,128.146 263,125.5C 263.75,124.874 264.584,124.374 265.5,124C 263.866,123.506 262.199,123.34 260.5,123.5C 260.5,126.833 260.5,130.167 260.5,133.5C 258.703,133.065 256.703,133.065 254.5,133.5C 254.5,133.167 254.5,132.833 254.5,132.5C 255.5,132.5 256.5,132.5 257.5,132.5C 257.664,129.813 257.497,127.146 257,124.5C 254.936,123.409 252.769,123.242 250.5,124C 252.134,124.494 253.801,124.66 255.5,124.5C 255.5,125.5 255.5,126.5 255.5,127.5C 251.149,126.533 248.815,128.2 248.5,132.5C 247.833,132.5 247.167,132.5 246.5,132.5C 246.664,129.813 246.497,127.146 246,124.5C 244.267,122.398 242.267,122.065 240,123.5C 239.798,121.744 239.298,120.078 238.5,118.5C 237.338,123.467 237.171,128.467 238,133.5C 238.182,130.774 238.682,128.107 239.5,125.5C 241.071,124.691 242.738,124.357 244.5,124.5C 244.5,127.167 244.5,129.833 244.5,132.5C 243.596,131.791 243.263,130.791 243.5,129.5C 242.167,129.5 240.833,129.5 239.5,129.5C 239.949,131.977 239.283,133.977 237.5,135.5C 233.555,134.732 229.555,134.232 225.5,134C 224.436,132.489 223.103,132.323 221.5,133.5C 220.656,129.901 220.323,126.234 220.5,122.5C 221.093,125.5 221.926,128.5 223,131.5C 225.147,129.521 226.647,127.187 227.5,124.5C 227.351,125.552 227.517,126.552 228,127.5C 229.78,128.594 231.614,129.594 233.5,130.5C 233.113,131.72 232.28,132.387 231,132.5C 229.838,131.813 228.672,131.647 227.5,132C 230.481,134.137 233.148,133.804 235.5,131C 235.333,130.5 235.167,130 235,129.5C 233.054,128.253 231.22,126.92 229.5,125.5C 231.078,124.702 232.744,124.202 234.5,124C 233.944,123.617 233.611,123.117 233.5,122.5C 234.96,120.665 236.293,118.665 237.5,116.5C 239.773,117.375 240.773,119.042 240.5,121.5C 242.5,121.5 244.5,121.5 246.5,121.5C 246.5,119.833 246.5,118.167 246.5,116.5C 251.833,116.5 257.167,116.5 262.5,116.5C 262.5,118.167 262.5,119.833 262.5,121.5C 263.833,121.5 265.167,121.5 266.5,121.5C 266.263,122.791 266.596,123.791 267.5,124.5 Z"/></g>
<g><path style="opacity:1" fill="#349058" d="M 115.5,120.5 C 115.64,122.124 114.973,123.29 113.5,124C 115.321,126.456 115.988,129.289 115.5,132.5C 114.391,132.557 113.391,132.89 112.5,133.5C 111.833,120.167 111.167,120.167 110.5,133.5C 109.768,132.192 108.934,130.858 108,129.5C 107.617,130.056 107.117,130.389 106.5,130.5C 109.003,121.997 108.336,121.664 104.5,129.5C 103.678,127.861 103.011,126.195 102.5,124.5C 104.346,122.545 106.679,121.545 109.5,121.5C 109.5,120.5 109.5,119.5 109.5,118.5C 111.858,118.253 113.858,118.919 115.5,120.5 Z"/></g>
<g><path style="opacity:1" fill="#c3eace" d="M 121.5,118.5 C 123.256,119.552 123.923,121.219 123.5,123.5C 125.792,123.244 127.959,123.577 130,124.5C 130.667,127.167 130.667,129.833 130,132.5C 129.667,130.167 129.333,127.833 129,125.5C 127.333,124.167 125.667,124.167 124,125.5C 123.818,128.226 123.318,130.893 122.5,133.5C 121.506,128.544 121.173,123.544 121.5,118.5 Z"/></g>
<g><path style="opacity:1" fill="#7bba91" d="M 176.5,123.5 C 172.5,123.5 168.5,123.5 164.5,123.5C 167.343,122.871 170.176,121.871 173,120.5C 174.364,121.371 175.53,122.371 176.5,123.5 Z"/></g>
<g><path style="opacity:1" fill="#ccf0dc" d="M 140.5,117.5 C 141.675,117.281 142.675,117.614 143.5,118.5C 140.921,120.438 140.921,122.271 143.5,124C 142.552,124.483 141.552,124.649 140.5,124.5C 140.665,127.518 140.498,130.518 140,133.5C 140.021,129.991 139.188,126.825 137.5,124C 139.165,122.174 140.165,120.007 140.5,117.5 Z"/></g>
<g><path style="opacity:1" fill="#c1ecd2" d="M 164.5,123.5 C 168.5,123.5 172.5,123.5 176.5,123.5C 173.914,126.672 173.914,129.839 176.5,133C 175.216,133.684 174.049,133.517 173,132.5C 172.503,129.854 172.336,127.187 172.5,124.5C 169.552,124.223 166.719,124.556 164,125.5C 162.754,130.77 164.92,132.937 170.5,132C 167.612,133.964 164.779,133.797 162,131.5C 160.834,128.073 161.668,125.407 164.5,123.5 Z"/></g>
<g><path style="opacity:1" fill="#b8e7d0" d="M 262.5,133.5 C 261.833,133.5 261.167,133.5 260.5,133.5C 260.5,130.167 260.5,126.833 260.5,123.5C 262.199,123.34 263.866,123.506 265.5,124C 264.584,124.374 263.75,124.874 263,125.5C 262.503,128.146 262.336,130.813 262.5,133.5 Z"/></g>
<g><path style="opacity:1" fill="#b2e7ce" d="M 144.5,123.5 C 146.199,123.34 147.866,123.506 149.5,124C 148.584,124.374 147.75,124.874 147,125.5C 146.818,128.226 146.318,130.893 145.5,133.5C 144.513,130.232 144.18,126.898 144.5,123.5 Z"/></g>
<g><path style="opacity:1" fill="#bdebcd" d="M 151.5,123.5 C 154.119,123.232 156.619,123.565 159,124.5C 159.498,127.482 159.665,130.482 159.5,133.5C 156.552,133.777 153.719,133.444 151,132.5C 150.828,128.194 152.994,126.527 157.5,127.5C 157.5,126.5 157.5,125.5 157.5,124.5C 155.533,124.261 153.699,124.594 152,125.5C 151.536,124.906 151.369,124.239 151.5,123.5 Z"/></g>
<g><path style="opacity:1" fill="#ade2c3" d="M 198.5,122.5 C 201.044,122.104 203.211,122.771 205,124.5C 205.821,127.554 205.655,130.554 204.5,133.5C 203.682,130.893 203.182,128.226 203,125.5C 201.333,124.167 199.667,124.167 198,125.5C 197.818,128.226 197.318,130.893 196.5,133.5C 195.513,130.232 195.18,126.898 195.5,123.5C 196.791,123.737 197.791,123.404 198.5,122.5 Z"/></g>
<g><path style="opacity:1" fill="#c6efd3" d="M 220.5,122.5 C 220.323,126.234 220.656,129.901 221.5,133.5C 220.504,133.586 219.671,133.252 219,132.5C 218.172,127.798 218.338,123.131 219.5,118.5C 220.429,119.689 220.762,121.022 220.5,122.5 Z"/></g>
<g><path style="opacity:1" fill="#bdebd2" d="M 254.5,132.5 C 254.5,132.833 254.5,133.167 254.5,133.5C 252.379,133.675 250.379,133.341 248.5,132.5C 248.815,128.2 251.149,126.533 255.5,127.5C 255.5,126.5 255.5,125.5 255.5,124.5C 253.801,124.66 252.134,124.494 250.5,124C 252.769,123.242 254.936,123.409 257,124.5C 257.497,127.146 257.664,129.813 257.5,132.5C 256.5,132.5 255.5,132.5 254.5,132.5 Z"/></g>
<g><path style="opacity:1" fill="#b3e3c8" d="M 112.5,133.5 C 111.833,133.5 111.167,133.5 110.5,133.5C 111.167,120.167 111.833,120.167 112.5,133.5 Z"/></g>
<g><path style="opacity:1" fill="#bae7c9" d="M 208.5,122.5 C 211.044,122.104 213.211,122.771 215,124.5C 215.498,127.482 215.665,130.482 215.5,133.5C 212.833,133.5 210.167,133.5 207.5,133.5C 206.5,128.5 208.5,126.5 213.5,127.5C 213.5,126.5 213.5,125.5 213.5,124.5C 211.219,124.923 209.552,124.256 208.5,122.5 Z"/></g>
<g><path style="opacity:1" fill="#c4eed8" d="M 246.5,132.5 C 245.833,133.833 245.167,133.833 244.5,132.5C 244.5,129.833 244.5,127.167 244.5,124.5C 242.738,124.357 241.071,124.691 239.5,125.5C 238.682,128.107 238.182,130.774 238,133.5C 237.171,128.467 237.338,123.467 238.5,118.5C 239.298,120.078 239.798,121.744 240,123.5C 242.267,122.065 244.267,122.398 246,124.5C 246.497,127.146 246.664,129.813 246.5,132.5 Z"/></g>
<g><path style="opacity:1" fill="#afdfc5" d="M 178.5,123.5 C 179.777,124.694 180.444,126.36 180.5,128.5C 180.167,130.167 179.833,131.833 179.5,133.5C 178.513,130.232 178.18,126.898 178.5,123.5 Z"/></g>
<g><path style="opacity:1" fill="#b3e2c8" d="M 185.5,122.5 C 193.241,122.738 195.241,126.238 191.5,133C 182.412,133.426 180.412,129.926 185.5,122.5 Z"/></g>
<g><path style="opacity:1" fill="#25884a" d="M 186.5,124.5 C 190.976,124.8 192.31,126.967 190.5,131C 184.339,131.878 183.006,129.711 186.5,124.5 Z"/></g>
<g><path style="opacity:1" fill="#378455" d="M 254.5,132.5 C 252.654,132.778 251.32,132.111 250.5,130.5C 251.85,129.05 253.516,128.383 255.5,128.5C 255.567,129.959 255.234,131.292 254.5,132.5 Z"/></g>
<g><path style="opacity:1" fill="#bbe9cd" d="M 269.5,123.5 C 273.851,122.533 276.185,124.2 276.5,128.5C 266.235,128.447 265.902,129.78 275.5,132.5C 273.604,133.466 271.604,133.799 269.5,133.5C 269.158,132.662 268.492,132.328 267.5,132.5C 266.286,129.796 266.286,127.129 267.5,124.5C 268.167,124.167 268.833,123.833 269.5,123.5 Z"/></g>
<g><path style="opacity:1" fill="#459665" d="M 269.5,124.5 C 271.665,124.116 273.332,124.783 274.5,126.5C 272.5,127.833 270.5,127.833 268.5,126.5C 268.863,125.817 269.196,125.15 269.5,124.5 Z"/></g>
<g><path style="opacity:1" fill="#b6e6cb" d="M 102.5,124.5 C 103.011,126.195 103.678,127.861 104.5,129.5C 108.336,121.664 109.003,121.997 106.5,130.5C 106.092,131.643 105.425,132.643 104.5,133.5C 103.052,131.333 101.885,129 101,126.5C 99.4766,128.569 98.6432,130.903 98.5,133.5C 97.5,133.5 96.5,133.5 95.5,133.5C 95.3535,130.557 94.6868,127.724 93.5,125C 93.8333,124.5 94.1667,124 94.5,123.5C 95.6236,125.369 96.4569,127.369 97,129.5C 98.0569,127.781 98.8903,125.947 99.5,124C 100.749,123.26 101.749,123.427 102.5,124.5 Z"/></g>
<g><path style="opacity:1" fill="#2c8656" d="M 154.5,128.5 C 155.5,128.5 156.5,128.5 157.5,128.5C 157.55,130.59 156.55,131.923 154.5,132.5C 151.875,131.135 151.875,129.802 154.5,128.5 Z"/></g>
<g><path style="opacity:1" fill="#348a54" d="M 210.5,128.5 C 211.5,128.5 212.5,128.5 213.5,128.5C 213.833,131.5 212.5,132.833 209.5,132.5C 209.433,131.041 209.766,129.708 210.5,128.5 Z"/></g>
<g><path style="opacity:1" fill="#2f8a50" d="M 269.5,123.5 C 272.962,122.518 276.629,122.185 280.5,122.5C 278.86,123.79 278.36,125.457 279,127.5C 280.586,128.376 282.086,129.376 283.5,130.5C 281.833,131.167 280.167,131.833 278.5,132.5C 284.937,134.737 286.604,133.071 283.5,127.5C 284.5,127.5 285.5,127.5 286.5,127.5C 286.5,128.833 286.5,130.167 286.5,131.5C 287.833,131.5 289.167,131.5 290.5,131.5C 290.5,132.5 290.5,133.5 290.5,134.5C 285.566,134.72 280.733,135.387 276,136.5C 273.37,136.141 271.203,135.141 269.5,133.5C 271.604,133.799 273.604,133.466 275.5,132.5C 265.902,129.78 266.235,128.447 276.5,128.5C 276.185,124.2 273.851,122.533 269.5,123.5 Z"/></g>
<g><path style="opacity:1" fill="#bbe9ce" d="M 115.5,120.5 C 116.931,121.446 118.264,122.612 119.5,124C 118.316,125.18 117.649,126.68 117.5,128.5C 117.649,130.32 118.316,131.82 119.5,133C 118.072,133.579 116.738,133.412 115.5,132.5C 115.988,129.289 115.321,126.456 113.5,124C 114.973,123.29 115.64,122.124 115.5,120.5 Z"/></g>
<g><path style="opacity:1" fill="#b2e3c2" d="M 280.5,122.5 C 285.833,123.167 285.833,123.833 280.5,124.5C 280.5,125.5 280.5,126.5 280.5,127.5C 281.5,127.5 282.5,127.5 283.5,127.5C 286.604,133.071 284.937,134.737 278.5,132.5C 280.167,131.833 281.833,131.167 283.5,130.5C 282.086,129.376 280.586,128.376 279,127.5C 278.36,125.457 278.86,123.79 280.5,122.5 Z"/></g>
<g><path style="opacity:1" fill="#b7e9cb" d="M 233.5,122.5 C 233.611,123.117 233.944,123.617 234.5,124C 232.744,124.202 231.078,124.702 229.5,125.5C 231.22,126.92 233.054,128.253 235,129.5C 235.167,130 235.333,130.5 235.5,131C 233.148,133.804 230.481,134.137 227.5,132C 228.672,131.647 229.838,131.813 231,132.5C 232.28,132.387 233.113,131.72 233.5,130.5C 231.614,129.594 229.78,128.594 228,127.5C 227.517,126.552 227.351,125.552 227.5,124.5C 229.142,122.919 231.142,122.253 233.5,122.5 Z"/></g>
<g><path style="opacity:1" fill="#267d45" d="M 294.5,169.5 C 225.833,169.5 157.167,169.5 88.5,169.5C 90.9686,168.683 93.6353,168.183 96.5,168C 129.5,167.833 162.5,167.667 195.5,167.5C 228.84,167.5 261.84,168.167 294.5,169.5 Z"/></g>
<g><path style="opacity:1" fill="#6b8b6c" d="M 88.5,169.5 C 157.167,169.5 225.833,169.5 294.5,169.5C 297.059,169.198 299.393,169.532 301.5,170.5C 303.5,171.167 305.5,171.833 307.5,172.5C 306.167,172.5 304.833,172.5 303.5,172.5C 300.784,172.322 298.117,171.822 295.5,171C 225.999,170.168 156.665,170.335 87.5,171.5C 85.8333,171.5 84.1667,171.5 82.5,171.5C 84.3024,170.542 86.3024,169.875 88.5,169.5 Z"/></g>
<g><path style="opacity:1" fill="#bcbdaf" d="M 87.5,171.5 C 156.665,170.335 225.999,170.168 295.5,171C 298.117,171.822 300.784,172.322 303.5,172.5C 304.263,173.268 305.263,173.768 306.5,174C 307.738,174.69 307.738,175.19 306.5,175.5C 303.193,174.949 299.86,174.616 296.5,174.5C 295.791,173.596 294.791,173.263 293.5,173.5C 287.021,172.509 280.354,172.176 273.5,172.5C 211.669,171.501 149.669,171.168 87.5,171.5 Z"/></g>
<g><path style="opacity:1" fill="#2b7d46" d="M 301.5,170.5 C 305.939,170.932 310.272,171.099 314.5,171C 315.227,172.399 315.727,173.899 316,175.5C 318.071,176.525 320.238,177.358 322.5,178C 324.085,180.069 325.419,182.236 326.5,184.5C 324.754,182.748 322.754,181.415 320.5,180.5C 317.744,179.783 315.744,178.116 314.5,175.5C 311.783,175.026 309.45,174.026 307.5,172.5C 305.5,171.833 303.5,171.167 301.5,170.5 Z"/></g>
<g><path style="opacity:1" fill="#d9d5d0" d="M 82.5,171.5 C 84.1667,171.5 85.8333,171.5 87.5,171.5C 149.669,171.168 211.669,171.501 273.5,172.5C 212.166,172.333 150.832,172.5 89.5,173C 87.9419,173.21 86.6085,173.71 85.5,174.5C 81.0223,174.882 76.6889,175.882 72.5,177.5C 72.0618,177.565 71.7284,177.399 71.5,177C 73.7274,176.059 75.7274,174.892 77.5,173.5C 79.2838,173.107 80.9505,172.441 82.5,171.5 Z"/></g>
<g><path style="opacity:1" fill="#625c5c" d="M 273.5,172.5 C 280.354,172.176 287.021,172.509 293.5,173.5C 226.665,173.168 159.998,173.501 93.5,174.5C 90.8333,174.5 88.1667,174.5 85.5,174.5C 86.6085,173.71 87.9419,173.21 89.5,173C 150.832,172.5 212.166,172.333 273.5,172.5 Z"/></g>
<g><path style="opacity:1" fill="#252123" d="M 93.5,174.5 C 159.998,173.501 226.665,173.168 293.5,173.5C 294.791,173.263 295.791,173.596 296.5,174.5C 228.833,175.753 161.166,175.753 93.5,174.5 Z"/></g>
<g><path style="opacity:1" fill="#0f0e0f" d="M 85.5,174.5 C 88.1667,174.5 90.8333,174.5 93.5,174.5C 161.166,175.753 228.833,175.753 296.5,174.5C 299.86,174.616 303.193,174.949 306.5,175.5C 313.254,177.915 318.921,181.915 323.5,187.5C 325.818,191.85 328.318,196.184 331,200.5C 331.535,204.038 332.368,207.372 333.5,210.5C 333.667,387.834 333.5,565.167 333,742.5C 332.234,749.369 330.734,756.036 328.5,762.5C 322.467,772.184 313.8,777.851 302.5,779.5C 233.847,780.476 165.18,780.81 96.5,780.5C 87.2392,780.013 78.2392,778.346 69.5,775.5C 66.4669,773.984 63.8003,771.984 61.5,769.5C 56.3405,760.14 52.8405,750.14 51,739.5C 50.3333,566.5 50.3333,393.5 51,220.5C 52.1342,212.021 53.8009,203.687 56,195.5C 58.7937,193.581 60.2937,190.914 60.5,187.5C 63.7614,183.213 67.7614,179.88 72.5,177.5C 76.6889,175.882 81.0223,174.882 85.5,174.5 Z"/></g>
<g><path style="opacity:1" fill="#8b8a80" d="M 77.5,173.5 C 75.7274,174.892 73.7274,176.059 71.5,177C 71.7284,177.399 72.0618,177.565 72.5,177.5C 67.7614,179.88 63.7614,183.213 60.5,187.5C 57.027,189.637 54.6936,192.637 53.5,196.5C 51.5537,200.058 49.8871,203.725 48.5,207.5C 48.5,206.833 48.1667,206.5 47.5,206.5C 48.8892,202.056 50.5558,197.723 52.5,193.5C 52.8844,190.231 54.2177,187.397 56.5,185C 61.306,182.093 65.9727,178.926 70.5,175.5C 72.7294,174.423 75.0628,173.756 77.5,173.5 Z"/></g>
<g><path style="opacity:1" fill="#7e7e7e" d="M 319.5,193.5 C 319.631,194.376 319.298,195.043 318.5,195.5C 315.869,194.276 313.035,193.609 310,193.5C 303.26,191.702 300.593,194.035 302,200.5C 307.114,201.804 312.281,201.804 317.5,200.5C 318.409,198.625 319.743,197.292 321.5,196.5C 326.836,203.859 329.169,212.193 328.5,221.5C 327.395,220.4 326.062,219.733 324.5,219.5C 236.001,218.334 147.334,218.168 58.5,219C 57.944,219.383 57.6107,219.883 57.5,220.5C 56.8333,220.5 56.5,220.833 56.5,221.5C 56.1667,221.5 55.8333,221.5 55.5,221.5C 55.9219,198.247 67.5886,184.747 90.5,181C 157.833,180.333 225.167,180.333 292.5,181C 303.104,182.02 312.104,186.186 319.5,193.5 Z"/></g>
<g><path style="opacity:1" fill="#8f8e86" d="M 303.5,172.5 C 304.833,172.5 306.167,172.5 307.5,172.5C 309.45,174.026 311.783,175.026 314.5,175.5C 315.744,178.116 317.744,179.783 320.5,180.5C 322.795,183.297 325.295,185.964 328,188.5C 329.009,190.025 329.509,191.692 329.5,193.5C 327.861,191.194 325.861,189.194 323.5,187.5C 318.921,181.915 313.254,177.915 306.5,175.5C 307.738,175.19 307.738,174.69 306.5,174C 305.263,173.768 304.263,173.268 303.5,172.5 Z"/></g>
<g><path style="opacity:1" fill="#060606" d="M 157.5,188.5 C 180.169,188.333 202.836,188.5 225.5,189C 233.959,191.415 237.126,196.915 235,205.5C 233.291,210.541 229.791,213.375 224.5,214C 202.833,214.667 181.167,214.667 159.5,214C 148.097,210.015 145.597,202.848 152,192.5C 154.015,191.303 155.849,189.97 157.5,188.5 Z"/></g>
<g><path style="opacity:1" fill="#6a7664" d="M 320.5,180.5 C 322.754,181.415 324.754,182.748 326.5,184.5C 327.932,186.327 329.599,187.994 331.5,189.5C 334.161,194.15 335.828,199.15 336.5,204.5C 335.379,202.259 334.213,199.925 333,197.5C 332.31,196.262 331.81,196.262 331.5,197.5C 330.655,196.329 329.989,194.995 329.5,193.5C 329.509,191.692 329.009,190.025 328,188.5C 325.295,185.964 322.795,183.297 320.5,180.5 Z"/></g>
<g><path style="opacity:1" fill="#1d1d1d" d="M 284.5,200.5 C 282.692,199.082 282.025,197.082 282.5,194.5C 282.56,193.957 282.893,193.624 283.5,193.5C 284.474,195.743 284.808,198.076 284.5,200.5 Z"/></g>
<g><path style="opacity:1" fill="#2e2e2e" d="M 87.5,193.5 C 89.12,194.841 90.12,196.674 90.5,199C 90,199.5 89.5,200 89,200.5C 87.4905,199.91 85.9905,199.244 84.5,198.5C 85.2599,196.64 86.2599,194.973 87.5,193.5 Z"/></g>
<g><path style="opacity:1" fill="#1c1c1c" d="M 92.5,193.5 C 93.7251,194.152 94.3917,195.319 94.5,197C 94.3333,198.167 94.1667,199.333 94,200.5C 93.879,198.273 93.0456,196.44 91.5,195C 92.056,194.617 92.3893,194.117 92.5,193.5 Z"/></g>
<g><path style="opacity:1" fill="#353636" d="M 75.5,193.5 C 80.0685,193.083 81.5685,195.083 80,199.5C 78.7592,201.421 77.2592,201.754 75.5,200.5C 76.376,199.749 77.376,199.249 78.5,199C 74.7496,198.558 73.7496,196.724 75.5,193.5 Z"/></g>
<g><path style="opacity:1" fill="#444444" d="M 282.5,194.5 C 282.025,197.082 282.692,199.082 284.5,200.5C 281.859,201.274 279.192,201.607 276.5,201.5C 275.571,200.311 275.238,198.978 275.5,197.5C 277.895,196.684 280.229,195.684 282.5,194.5 Z"/></g>
<g><path style="opacity:1" fill="#3c3c3c" d="M 290.5,193.5 C 299.77,193.402 300.603,195.735 293,200.5C 290.968,199.302 289.468,197.635 288.5,195.5C 289.243,194.818 289.909,194.151 290.5,193.5 Z"/></g>
<g><path style="opacity:1" fill="#5e5e5e" d="M 319.5,193.5 C 320.401,194.29 321.068,195.29 321.5,196.5C 319.743,197.292 318.409,198.625 317.5,200.5C 312.281,201.804 307.114,201.804 302,200.5C 300.593,194.035 303.26,191.702 310,193.5C 313.035,193.609 315.869,194.276 318.5,195.5C 319.298,195.043 319.631,194.376 319.5,193.5 Z"/></g>
<g><path style="opacity:1" fill="#111111" d="M 303.5,195.5 C 307.833,195.5 312.167,195.5 316.5,195.5C 316.744,199.949 314.578,201.615 310,200.5C 305.422,201.615 303.256,199.949 303.5,195.5 Z"/></g>
<g><path style="opacity:1" fill="#576f59" d="M 52.5,193.5 C 50.5558,197.723 48.8892,202.056 47.5,206.5C 46.9518,208.626 46.2852,210.626 45.5,212.5C 44.2341,204.722 46.5674,198.388 52.5,193.5 Z"/></g>
<g><path style="opacity:1" fill="#e4e4e4" d="M 324.5,219.5 C 235.459,219.172 146.459,219.505 57.5,220.5C 57.6107,219.883 57.944,219.383 58.5,219C 147.334,218.168 236.001,218.334 324.5,219.5 Z"/></g>
<g><path style="opacity:1" fill="#b6b5aa" d="M 336.5,204.5 C 336.892,208.582 337.558,212.582 338.5,216.5C 338.666,222.509 338.499,228.509 338,234.5C 337.826,229.649 337.326,224.982 336.5,220.5C 336.564,212.427 334.898,204.761 331.5,197.5C 331.81,196.262 332.31,196.262 333,197.5C 334.213,199.925 335.379,202.259 336.5,204.5 Z"/></g>
<g><path style="opacity:1" fill="#fdfdfd" d="M 324.5,219.5 C 326.062,219.733 327.395,220.4 328.5,221.5C 329.665,393.097 329.832,564.764 329,736.5C 327.748,757.412 316.915,769.912 296.5,774C 226.5,774.667 156.5,774.667 86.5,774C 70.8113,771.144 61.1446,761.977 57.5,746.5C 56.5064,571.517 56.1731,396.517 56.5,221.5C 56.5,220.833 56.8333,220.5 57.5,220.5C 146.459,219.505 235.459,219.172 324.5,219.5 Z"/></g>
<g><path style="opacity:1" fill="#ededed" d="M 244.5,229.5 C 267.502,229.333 290.502,229.5 313.5,230C 318.153,232.942 319.653,237.109 318,242.5C 316.363,244.81 314.196,246.31 311.5,247C 289.833,247.667 268.167,247.667 246.5,247C 237.923,242.041 237.256,236.208 244.5,229.5 Z"/></g>
<g><path style="opacity:1" fill="#5d5d5d" d="M 268.5,235.5 C 270.153,236.605 271.82,236.771 273.5,236C 270.833,237.667 270.833,239.333 273.5,241C 272.065,240.689 270.732,240.855 269.5,241.5C 268.534,239.604 268.201,237.604 268.5,235.5 Z"/></g>
<g><path style="opacity:1" fill="#3a3a3a" d="M 274.5,235.5 C 277.518,235.335 280.518,235.502 283.5,236C 281.954,237.44 281.121,239.273 281,241.5C 280.506,239.866 280.34,238.199 280.5,236.5C 278.833,236.5 277.167,236.5 275.5,236.5C 275.5,237.833 275.5,239.167 275.5,240.5C 279.172,241.045 278.838,241.378 274.5,241.5C 274.5,239.5 274.5,237.5 274.5,235.5 Z"/></g>
<g><path style="opacity:1" fill="#b6b6b6" d="M 173.5,235.5 C 174.708,236.234 176.041,236.567 177.5,236.5C 177.232,238.099 177.566,239.432 178.5,240.5C 178.44,241.043 178.107,241.376 177.5,241.5C 176.224,236.318 175.557,236.318 175.5,241.5C 174.833,241.5 174.167,241.5 173.5,241.5C 173.5,239.5 173.5,237.5 173.5,235.5 Z"/></g>
<g><path style="opacity:1" fill="#2a2a2a" d="M 192.5,237.5 C 192.5,238.833 192.5,240.167 192.5,241.5C 194.099,241.232 195.432,241.566 196.5,242.5C 194.833,242.5 193.167,242.5 191.5,242.5C 191.5,239.833 191.5,237.167 191.5,234.5C 193.199,234.34 194.866,234.506 196.5,235C 194.68,235.2 193.347,236.034 192.5,237.5 Z"/></g>
<g><path style="opacity:1" fill="#3c3c3c" d="M 251.5,238.5 C 250.732,239.263 250.232,240.263 250,241.5C 249.192,239.421 249.359,237.421 250.5,235.5C 251.386,236.325 251.719,237.325 251.5,238.5 Z"/></g>
<g><path style="opacity:1" fill="#505050" d="M 197.5,242.5 C 198.167,241.833 198.833,241.167 199.5,240.5C 199.201,238.396 199.534,236.396 200.5,234.5C 201.647,236.765 201.814,239.098 201,241.5C 199.989,242.337 198.822,242.67 197.5,242.5 Z"/></g>
<g><path style="opacity:1" fill="#444444" d="M 263.5,235.5 C 264.833,235.5 266.167,235.5 267.5,235.5C 267.662,237.527 267.495,239.527 267,241.5C 265.691,239.109 264.691,239.109 264,241.5C 263.505,239.527 263.338,237.527 263.5,235.5 Z"/></g>
<g><path style="opacity:1" fill="#252525" d="M 303.5,239.5 C 304.601,238.402 305.934,238.235 307.5,239C 306.318,240.768 304.985,240.935 303.5,239.5 Z"/></g>
<g><path style="opacity:1" fill="#3f3f3f" d="M 75.5,231.5 C 76.3764,231.369 77.0431,231.702 77.5,232.5C 75.6278,234.535 73.9611,236.702 72.5,239C 73.7763,241.281 75.4429,243.281 77.5,245C 74.2148,243.91 71.5481,241.743 69.5,238.5C 71.5227,236.147 73.5227,233.814 75.5,231.5 Z"/></g>
<g><path style="opacity:1" fill="#515151" d="M 251.5,238.5 C 252.167,238.5 252.833,238.5 253.5,238.5C 252.833,242.5 252.167,242.5 251.5,238.5 Z"/></g>
<g><path style="opacity:1" fill="#0f0f12" d="M 333.5,210.5 C 334.829,390.021 334.829,569.687 333.5,749.5C 333.193,754.43 331.527,758.763 328.5,762.5C 330.734,756.036 332.234,749.369 333,742.5C 333.5,565.167 333.667,387.834 333.5,210.5 Z"/></g>
<g><path style="opacity:1" fill="#919191" d="M 192.5,237.5 C 196.971,237.672 197.304,238.506 193.5,240C 195.473,240.495 197.473,240.662 199.5,240.5C 198.833,241.167 198.167,241.833 197.5,242.5C 197.167,242.5 196.833,242.5 196.5,242.5C 195.432,241.566 194.099,241.232 192.5,241.5C 192.5,240.167 192.5,238.833 192.5,237.5 Z"/></g>
<g><path style="opacity:1" fill="#6b6b6b" d="M 253.5,238.5 C 253.5,237.5 253.5,236.5 253.5,235.5C 254.5,235.5 255.5,235.5 256.5,235.5C 256.343,236.873 256.51,238.207 257,239.5C 259.528,234.172 261.028,234.506 261.5,240.5C 259.194,240.993 256.861,241.326 254.5,241.5C 254.737,240.209 254.404,239.209 253.5,238.5 Z"/></g>
<g><path style="opacity:1" fill="#313131" d="M 173.5,235.5 C 173.5,237.5 173.5,239.5 173.5,241.5C 172.081,242.451 170.415,242.784 168.5,242.5C 168.5,239.833 168.5,237.167 168.5,234.5C 170.292,234.366 171.958,234.699 173.5,235.5 Z"/></g>
<g><path style="opacity:1" fill="#868686" d="M 169.5,235.5 C 170.756,235.461 171.756,235.961 172.5,237C 171.289,238.113 171.289,239.28 172.5,240.5C 171.675,241.386 170.675,241.719 169.5,241.5C 169.5,239.5 169.5,237.5 169.5,235.5 Z"/></g>
<g><path style="opacity:1" fill="#373737" d="M 178.5,240.5 C 179.268,239.737 179.768,238.737 180,237.5C 180.494,239.134 180.66,240.801 180.5,242.5C 178.833,242.5 177.167,242.5 175.5,242.5C 175.5,242.167 175.5,241.833 175.5,241.5C 175.557,236.318 176.224,236.318 177.5,241.5C 178.107,241.376 178.44,241.043 178.5,240.5 Z"/></g>
<g><path style="opacity:1" fill="#d1d1d1" d="M 183.5,237.5 C 182.761,237.369 182.094,237.536 181.5,238C 183.656,240.288 183.99,242.788 182.5,245.5C 180.307,244.105 177.974,243.105 175.5,242.5C 177.167,242.5 178.833,242.5 180.5,242.5C 180.66,240.801 180.494,239.134 180,237.5C 179.768,238.737 179.268,239.737 178.5,240.5C 178.5,239.167 178.5,237.833 178.5,236.5C 180.415,236.216 182.081,236.549 183.5,237.5 Z"/></g>
<g><path style="opacity:1" fill="#404040" d="M 203.5,234.5 C 208.041,234.331 208.374,234.998 204.5,236.5C 206.053,237.439 207.387,238.606 208.5,240C 208.355,240.772 208.022,241.439 207.5,242C 205.741,242.798 204.074,242.631 202.5,241.5C 203.833,241.167 205.167,240.833 206.5,240.5C 203.479,239.227 202.479,237.227 203.5,234.5 Z"/></g>
<g><path style="opacity:1" fill="#363636" d="M 183.5,237.5 C 183.775,239.842 184.608,239.842 186,237.5C 186.204,240.76 185.037,243.427 182.5,245.5C 183.99,242.788 183.656,240.288 181.5,238C 182.094,237.536 182.761,237.369 183.5,237.5 Z"/></g>
<g><path style="opacity:1" fill="#597356" d="M 336.5,204.5 C 337.315,205.429 338.148,206.429 339,207.5C 339.923,211.79 340.423,216.123 340.5,220.5C 340.5,269.833 340.5,319.167 340.5,368.5C 340.5,368.833 340.5,369.167 340.5,369.5C 340.167,369.5 339.833,369.5 339.5,369.5C 339.5,325.833 339.5,282.167 339.5,238.5C 339.825,230.981 339.492,223.648 338.5,216.5C 337.558,212.582 336.892,208.582 336.5,204.5 Z"/></g>
<g><path style="opacity:1" fill="#cfcdc4" d="M 47.5,206.5 C 48.1667,206.5 48.5,206.833 48.5,207.5C 48.5,209.167 48.5,210.833 48.5,212.5C 47.5386,214.265 47.2053,216.265 47.5,218.5C 46.8333,384.833 46.1667,551.167 45.5,717.5C 45.5,689.5 45.5,661.5 45.5,633.5C 45.5,493.5 45.5,353.5 45.5,213.5C 45.5,213.167 45.5,212.833 45.5,212.5C 46.2852,210.626 46.9518,208.626 47.5,206.5 Z"/></g>
<g><path style="opacity:1" fill="#71826a" d="M 44.5,213.5 C 45.1626,269.843 44.4959,325.843 42.5,381.5C 41.1917,366.372 41.1917,351.372 42.5,336.5C 43.0822,296.682 43.4155,256.682 43.5,216.5C 43.2627,215.209 43.596,214.209 44.5,213.5 Z"/></g>
<g><path style="opacity:1" fill="#060606" d="M 206.5,310.5 C 206.5,320.833 206.5,331.167 206.5,341.5C 204.833,341.5 203.167,341.5 201.5,341.5C 201.831,333.472 201.498,325.472 200.5,317.5C 199.893,317.624 199.56,317.957 199.5,318.5C 198.027,319.74 196.36,320.74 194.5,321.5C 192.667,320.032 192.334,318.365 193.5,316.5C 196.196,315.149 198.53,313.316 200.5,311C 202.473,310.505 204.473,310.338 206.5,310.5 Z"/></g>
<g><path style="opacity:1" fill="#31874f" d="M 43.5,216.5 C 43.4155,256.682 43.0822,296.682 42.5,336.5C 42.183,325.486 41.5164,314.486 40.5,303.5C 41.9138,274.354 42.9138,245.354 43.5,216.5 Z"/></g>
<g><path style="opacity:1" fill="#202020" d="M 175.5,308.5 C 183.755,313.053 183.422,314.72 174.5,313.5C 174.33,314.822 174.663,315.989 175.5,317C 183.172,319.909 183.505,323.742 176.5,328.5C 174.87,327.102 173.036,326.102 171,325.5C 170.251,324.365 170.417,323.365 171.5,322.5C 173.523,324.173 175.856,324.84 178.5,324.5C 178.785,320.962 177.118,319.129 173.5,319C 172.01,318.255 171.01,317.088 170.5,315.5C 171.48,312.558 173.147,310.224 175.5,308.5 Z"/></g>
<g><path style="opacity:1" fill="#696969" d="M 206.5,310.5 C 207.494,320.987 207.828,331.654 207.5,342.5C 205.167,342.5 202.833,342.5 200.5,342.5C 200.826,334.316 200.492,326.316 199.5,318.5C 199.56,317.957 199.893,317.624 200.5,317.5C 201.498,325.472 201.831,333.472 201.5,341.5C 203.167,341.5 204.833,341.5 206.5,341.5C 206.5,331.167 206.5,320.833 206.5,310.5 Z"/></g>
<g><path style="opacity:1" fill="#8f8d7e" d="M 44.5,213.5 C 44.8333,213.5 45.1667,213.5 45.5,213.5C 45.5,353.5 45.5,493.5 45.5,633.5C 45.1667,633.5 44.8333,633.5 44.5,633.5C 44.8327,549.665 44.4993,465.998 43.5,382.5C 42.8333,382.5 42.5,382.167 42.5,381.5C 44.4959,325.843 45.1626,269.843 44.5,213.5 Z"/></g>
<g><path style="opacity:1" fill="#86ae83" d="M 170.5,371.5 C 169.5,372.833 168.5,372.833 167.5,371.5C 167.461,370.244 167.961,369.244 169,368.5C 170.509,369.09 172.009,369.756 173.5,370.5C 172.675,371.386 171.675,371.719 170.5,371.5 Z"/></g>
<g><path style="opacity:1" fill="#63965a" d="M 182.5,369.5 C 189.536,368.603 191.203,371.103 187.5,377C 185.866,377.494 184.199,377.66 182.5,377.5C 182.5,374.833 182.5,372.167 182.5,369.5 Z"/></g>
<g><path style="opacity:1" fill="#dbf2d6" d="M 184.5,370.5 C 185.5,370.5 186.5,370.5 187.5,370.5C 187.5,372.167 187.5,373.833 187.5,375.5C 186.5,375.5 185.5,375.5 184.5,375.5C 184.5,373.833 184.5,372.167 184.5,370.5 Z"/></g>
<g><path style="opacity:1" fill="#d3e6d1" d="M 167.5,371.5 C 168.5,372.833 169.5,372.833 170.5,371.5C 170.47,372.497 170.97,373.164 172,373.5C 173.789,372.591 175.623,372.424 177.5,373C 176.944,373.383 176.611,373.883 176.5,374.5C 174.658,373.925 172.658,374.091 170.5,375C 172.518,375.505 174.518,376.005 176.5,376.5C 176.53,377.497 176.03,378.164 175,378.5C 173.349,377.258 171.515,376.424 169.5,376C 168.418,374.67 167.751,373.17 167.5,371.5 Z"/></g>
<g><path style="opacity:1" fill="#66995e" d="M 176.5,374.5 C 176.5,375.167 176.5,375.833 176.5,376.5C 174.518,376.005 172.518,375.505 170.5,375C 172.658,374.091 174.658,373.925 176.5,374.5 Z"/></g>
<g><path style="opacity:1" fill="#94be8c" d="M 197.5,369.5 C 199.5,369.5 201.5,369.5 203.5,369.5C 203.664,375.167 203.997,375.5 204.5,370.5C 208.803,370.735 210.47,373.069 209.5,377.5C 203.727,377.287 198.06,377.12 192.5,377C 191.424,375.274 191.257,373.441 192,371.5C 193.948,370.891 195.782,370.224 197.5,369.5 Z"/></g>
<g><path style="opacity:1" fill="#75a66f" d="M 210.5,371.5 C 211.552,371.351 212.552,371.517 213.5,372C 211.771,379.363 210.771,379.196 210.5,371.5 Z"/></g>
<g><path style="opacity:1" fill="#7cab76" d="M 215.5,371.5 C 218.598,371.413 218.932,371.913 216.5,373C 220.501,376.495 219.835,377.661 214.5,376.5C 214.579,374.872 214.912,373.205 215.5,371.5 Z"/></g>
<g><path style="opacity:1" fill="#e1e1e1" d="M 55.5,221.5 C 55.8333,221.5 56.1667,221.5 56.5,221.5C 56.1731,396.517 56.5064,571.517 57.5,746.5C 56.71,745.391 56.21,744.058 56,742.5C 55.5,568.834 55.3333,395.167 55.5,221.5 Z"/></g>
<g><path style="opacity:1" fill="#1f8245" d="M 340.5,220.5 C 341.167,269.002 341.833,317.668 342.5,366.5C 343.65,369.747 344.483,373.08 345,376.5C 345.667,397.5 345.667,418.5 345,439.5C 344.764,441.119 343.931,442.119 342.5,442.5C 342.5,441.167 342.5,439.833 342.5,438.5C 343.157,414.809 342.49,391.476 340.5,368.5C 340.5,319.167 340.5,269.833 340.5,220.5 Z"/></g>
<g><path style="opacity:1" fill="#9dc1a4" d="M 340.5,369.5 C 340.5,369.167 340.5,368.833 340.5,368.5C 342.49,391.476 343.157,414.809 342.5,438.5C 342.167,438.5 341.833,438.5 341.5,438.5C 341.831,415.327 341.498,392.327 340.5,369.5 Z"/></g>
<g><path style="opacity:1" fill="#62725a" d="M 43.5,382.5 C 44.4993,465.998 44.8327,549.665 44.5,633.5C 44.5,668.833 44.5,704.167 44.5,739.5C 43.8244,639.313 43.1577,538.98 42.5,438.5C 42.1844,424.088 42.5178,409.755 43.5,395.5C 43.5,391.167 43.5,386.833 43.5,382.5 Z"/></g>
<g><path style="opacity:1" fill="#75b089" d="M 43.5,395.5 C 42.5178,409.755 42.1844,424.088 42.5,438.5C 41.8337,431.508 41.5003,424.341 41.5,417C 41.5028,409.467 42.1694,402.301 43.5,395.5 Z"/></g>
<g><path style="opacity:1" fill="#2d2d2f" d="M 323.5,187.5 C 325.861,189.194 327.861,191.194 329.5,193.5C 329.989,194.995 330.655,196.329 331.5,197.5C 334.898,204.761 336.564,212.427 336.5,220.5C 336.667,394.5 336.5,568.5 336,742.5C 335.844,745.191 335.011,747.524 333.5,749.5C 334.829,569.687 334.829,390.021 333.5,210.5C 332.368,207.372 331.535,204.038 331,200.5C 328.318,196.184 325.818,191.85 323.5,187.5 Z"/></g>
<g><path style="opacity:1" fill="#727061" d="M 339.5,369.5 C 339.833,369.5 340.167,369.5 340.5,369.5C 341.498,392.327 341.831,415.327 341.5,438.5C 341.5,439.833 340.833,440.5 339.5,440.5C 339.5,416.833 339.5,393.167 339.5,369.5 Z"/></g>
<g><path style="opacity:1" fill="#828282" d="M 66.5,447.5 C 68.1992,447.34 69.8659,447.506 71.5,448C 67.5,449 67.5,450 71.5,451C 67.5,452 67.5,453 71.5,454C 69.8659,454.494 68.1992,454.66 66.5,454.5C 66.5,452.167 66.5,449.833 66.5,447.5 Z"/></g>
<g><path style="opacity:1" fill="#909090" d="M 118.5,447.5 C 120.1,448.252 121.6,449.252 123,450.5C 122.981,455.834 122.314,455.834 121,450.5C 120.781,451.938 120.281,453.271 119.5,454.5C 118.526,452.257 118.192,449.924 118.5,447.5 Z"/></g>
<g><path style="opacity:1" fill="#6e6e6e" d="M 310.5,447.5 C 310.5,449.5 310.5,451.5 310.5,453.5C 309.167,453.5 307.833,453.5 306.5,453.5C 306.5,452.5 306.5,451.5 306.5,450.5C 308.03,449.789 309.363,448.789 310.5,447.5 Z"/></g>
<g><path style="opacity:1" fill="#8f8f8f" d="M 311.5,447.5 C 312.5,448.833 313.5,448.833 314.5,447.5C 315.167,448.167 315.833,448.833 316.5,449.5C 314.517,449.157 313.183,449.824 312.5,451.5C 311.566,450.432 311.232,449.099 311.5,447.5 Z"/></g>
<g><path style="opacity:1" fill="#393939" d="M 306.5,450.5 C 306.5,451.5 306.5,452.5 306.5,453.5C 305.432,454.434 304.099,454.768 302.5,454.5C 302.338,452.473 302.505,450.473 303,448.5C 304.011,447.663 305.178,447.33 306.5,447.5C 306.5,448.5 306.5,449.5 306.5,450.5 Z"/></g>
<g><path style="opacity:1" fill="#262626" d="M 310.5,447.5 C 310.833,447.5 311.167,447.5 311.5,447.5C 311.232,449.099 311.566,450.432 312.5,451.5C 312.631,452.239 312.464,452.906 312,453.5C 311.31,454.738 310.81,454.738 310.5,453.5C 310.5,451.5 310.5,449.5 310.5,447.5 Z"/></g>
<g><path style="opacity:1" fill="#767676" d="M 106.5,453.5 C 105.427,452.749 105.26,451.749 106,450.5C 107.676,449.939 109.009,448.939 110,447.5C 110.497,449.81 110.663,452.143 110.5,454.5C 108.901,454.768 107.568,454.434 106.5,453.5 Z"/></g>
<g><path style="opacity:1" fill="#bbbbbb" d="M 303.5,449.5 C 304.586,449.62 305.253,450.287 305.5,451.5C 305.167,452.167 304.833,452.833 304.5,453.5C 303.571,452.311 303.238,450.978 303.5,449.5 Z"/></g>
<g><path style="opacity:1" fill="#8d8d8d" d="M 82.5,449.5 C 85.1667,449.5 87.8333,449.5 90.5,449.5C 90.2912,455.261 89.4578,455.594 88,450.5C 87,455.833 86,455.833 85,450.5C 83.5422,455.594 82.7088,455.261 82.5,449.5 Z"/></g>
<g><path style="opacity:1" fill="#dadada" d="M 106.5,453.5 C 107.754,449.69 108.754,449.69 109.5,453.5C 108.5,453.5 107.5,453.5 106.5,453.5 Z"/></g>
<g><path style="opacity:1" fill="#404040" d="M 314.5,447.5 C 315.5,447.5 316.5,447.5 317.5,447.5C 317.822,449.722 317.155,451.556 315.5,453C 316.167,453.333 316.833,453.667 317.5,454C 316.056,454.781 314.723,454.614 313.5,453.5C 314.524,452.148 315.524,450.815 316.5,449.5C 315.833,448.833 315.167,448.167 314.5,447.5 Z"/></g>
<g><path style="opacity:1" fill="#939393" d="M 96.5,449.5 C 98.4771,450.149 100.31,450.149 102,449.5C 105.49,451.016 105.323,452.182 101.5,453C 102.5,453.333 103.5,453.667 104.5,454C 101.729,453.653 99.0621,453.82 96.5,454.5C 96.5,452.833 96.5,451.167 96.5,449.5 Z"/></g>
<g><path style="opacity:1" fill="#a8a8a8" d="M 114.5,449.5 C 117.598,449.413 117.932,449.913 115.5,451C 118.194,453.552 117.527,454.719 113.5,454.5C 113.366,452.708 113.699,451.042 114.5,449.5 Z"/></g>
<g><path style="opacity:1" fill="#7c7c7c" d="M 124.5,450.5 C 125.568,449.566 126.901,449.232 128.5,449.5C 128.5,451.167 128.5,452.833 128.5,454.5C 123.611,454.41 123.277,453.244 127.5,451C 126.552,450.517 125.552,450.351 124.5,450.5 Z"/></g>
<g><path style="opacity:1" fill="#8f8f8f" d="M 129.5,449.5 C 130.552,449.351 131.552,449.517 132.5,450C 130.772,456.048 129.772,455.882 129.5,449.5 Z"/></g>
<g><path style="opacity:1" fill="#7f7f7f" d="M 72.5,449.5 C 75.5983,449.413 75.9316,449.913 73.5,451C 74.9733,451.71 75.6399,452.876 75.5,454.5C 72.4017,454.587 72.0684,454.087 74.5,453C 73.0267,452.29 72.3601,451.124 72.5,449.5 Z"/></g>
<g><path style="opacity:1" fill="#5f5f5f" d="M 94.5,450.5 C 95.4345,451.568 95.7678,452.901 95.5,454.5C 94.0222,454.762 92.6888,454.429 91.5,453.5C 91.9377,452.494 92.6043,452.494 93.5,453.5C 94.3857,452.675 94.719,451.675 94.5,450.5 Z"/></g>
<g><path style="opacity:1" fill="#848484" d="M 133.5,449.5 C 134.833,449.5 136.167,449.5 137.5,449.5C 137.5,450.5 137.5,451.5 137.5,452.5C 133.551,452.693 133.551,453.193 137.5,454C 133.083,455.087 131.75,453.587 133.5,449.5 Z"/></g>
<g><path style="opacity:1" fill="#828282" d="M 139.5,449.5 C 141.379,449.393 141.712,449.893 140.5,451C 143.165,453.711 142.498,454.711 138.5,454C 140.891,453.309 140.891,452.309 138.5,451C 139.056,450.617 139.389,450.117 139.5,449.5 Z"/></g>
<g><path style="opacity:1" fill="#5d5d5d" d="M 294.5,447.5 C 298.473,448.075 299.473,450.242 297.5,454C 296.216,454.684 295.049,454.517 294,453.5C 293.322,451.402 293.489,449.402 294.5,447.5 Z"/></g>
<g><path style="opacity:1" fill="#969696" d="M 77.5,448.5 C 78.1635,450.042 78.8302,451.709 79.5,453.5C 80.2508,452.624 80.7508,451.624 81,450.5C 81.4935,452.134 81.6602,453.801 81.5,455.5C 80.1667,455.5 78.8333,455.5 77.5,455.5C 77.5,453.167 77.5,450.833 77.5,448.5 Z"/></g>
<g><path style="opacity:1" fill="#464646" d="M 297.5,474.5 C 296.432,475.434 295.099,475.768 293.5,475.5C 294.476,474.185 295.476,472.852 296.5,471.5C 292.919,470.644 292.753,469.644 296,468.5C 298.984,469.833 299.151,471.667 296.5,474C 296.728,474.399 297.062,474.565 297.5,474.5 Z"/></g>
<g><path style="opacity:1" fill="#5d5d5d" d="M 308.5,468.5 C 310.39,468.297 311.89,468.963 313,470.5C 314.667,467.833 316.333,467.833 318,470.5C 318.977,473.259 318.144,475.259 315.5,476.5C 314.201,475.91 313.368,474.91 313,473.5C 311.867,475.211 310.367,475.711 308.5,475C 307.232,472.837 307.232,470.67 308.5,468.5 Z"/></g>
<g><path style="opacity:1" fill="#8a8a8a" d="M 93.5,468.5 C 95.1003,469.252 96.6003,470.252 98,471.5C 98.7805,472.944 98.6139,474.277 97.5,475.5C 97.7948,474.174 97.2948,472.841 96,471.5C 95.7811,472.938 95.2811,474.271 94.5,475.5C 93.5258,473.257 93.1924,470.924 93.5,468.5 Z"/></g>
<g><path style="opacity:1" fill="#929292" d="M 99.5,468.5 C 100.725,469.152 101.392,470.319 101.5,472C 101.167,473.167 100.833,474.333 100.5,475.5C 99.5258,473.257 99.1924,470.924 99.5,468.5 Z"/></g>
<g><path style="opacity:1" fill="#373737" d="M 290.5,475.5 C 290.675,473.379 290.341,471.379 289.5,469.5C 289.56,468.957 289.893,468.624 290.5,468.5C 291.797,470.973 291.797,473.307 290.5,475.5 Z"/></g>
<g><path style="opacity:1" fill="#d4d4d4" d="M 78.5,470.5 C 79.2778,471.156 79.9444,471.989 80.5,473C 79.4909,473.355 78.8243,474.188 78.5,475.5C 77.8333,475.5 77.1667,475.5 76.5,475.5C 77.2916,474.033 77.2916,472.7 76.5,471.5C 75.4593,473.991 74.6259,473.991 74,471.5C 73.4209,472.928 73.5876,474.262 74.5,475.5C 73.3478,476.625 72.3478,476.625 71.5,475.5C 72.3543,474.368 72.3543,473.035 71.5,471.5C 73.717,470.631 76.0504,470.298 78.5,470.5 Z"/></g>
<g><path style="opacity:1" fill="#bababa" d="M 286.5,468.5 C 287.391,469.11 288.391,469.443 289.5,469.5C 290.341,471.379 290.675,473.379 290.5,475.5C 289.839,474.282 289.172,472.949 288.5,471.5C 287.893,471.624 287.56,471.957 287.5,472.5C 284.186,471.59 283.852,470.257 286.5,468.5 Z"/></g>
<g><path style="opacity:1" fill="#414141" d="M 303.5,472.5 C 303.5,473.5 303.5,474.5 303.5,475.5C 302.167,475.5 300.833,475.5 299.5,475.5C 300.398,474.842 301.398,474.176 302.5,473.5C 301.757,472.818 301.091,472.151 300.5,471.5C 300.938,471.565 301.272,471.399 301.5,471C 299.355,470.257 299.189,469.424 301,468.5C 303.02,469.032 303.853,470.365 303.5,472.5 Z"/></g>
<g><path style="opacity:1" fill="#929292" d="M 140.5,470.5 C 145.03,471.02 145.363,472.186 141.5,474C 142.624,474.249 143.624,474.749 144.5,475.5C 140.151,476.505 138.818,474.839 140.5,470.5 Z"/></g>
<g><path style="opacity:1" fill="#cdcdcd" d="M 314.5,470.5 C 315.586,470.62 316.253,471.287 316.5,472.5C 316.167,473.167 315.833,473.833 315.5,474.5C 314.571,473.311 314.238,471.978 314.5,470.5 Z"/></g>
<g><path style="opacity:1" fill="#bcbcbc" d="M 300.5,471.5 C 301.091,472.151 301.757,472.818 302.5,473.5C 301.398,474.176 300.398,474.842 299.5,475.5C 297.389,476.742 295.389,476.742 293.5,475.5C 295.099,475.768 296.432,475.434 297.5,474.5C 298.728,473.694 299.728,472.694 300.5,471.5 Z"/></g>
<g><path style="opacity:1" fill="#7f7f7f" d="M 71.5,471.5 C 72.3543,473.035 72.3543,474.368 71.5,475.5C 70.1155,474.199 68.6155,474.199 67,475.5C 66.6652,472.82 67.4986,470.487 69.5,468.5C 70.4252,469.357 71.0919,470.357 71.5,471.5 Z"/></g>
<g><path style="opacity:1" fill="#7e7e7e" d="M 76.5,475.5 C 75.8333,475.5 75.1667,475.5 74.5,475.5C 73.5876,474.262 73.4209,472.928 74,471.5C 74.6259,473.991 75.4593,473.991 76.5,471.5C 77.2916,472.7 77.2916,474.033 76.5,475.5 Z"/></g>
<g><path style="opacity:1" fill="#888888" d="M 78.5,470.5 C 82.0681,470.759 83.4015,472.759 82.5,476.5C 80.901,476.768 79.5676,476.434 78.5,475.5C 78.8243,474.188 79.4909,473.355 80.5,473C 79.9444,471.989 79.2778,471.156 78.5,470.5 Z"/></g>
<g><path style="opacity:1" fill="#999999" d="M 137.5,468.5 C 138.473,470.948 138.806,473.615 138.5,476.5C 135.167,475.167 131.833,475.167 128.5,476.5C 128.137,474.089 129.137,472.589 131.5,472C 128.162,470.794 126.329,471.96 126,475.5C 125.506,473.866 125.34,472.199 125.5,470.5C 128.249,470.274 130.916,470.607 133.5,471.5C 135.483,471.185 136.816,470.185 137.5,468.5 Z"/></g>
<g><path style="opacity:1" fill="#b7b7b7" d="M 303.5,472.5 C 305.532,473.048 306.532,474.381 306.5,476.5C 303.941,476.802 301.607,476.468 299.5,475.5C 300.833,475.5 302.167,475.5 303.5,475.5C 303.5,474.5 303.5,473.5 303.5,472.5 Z"/></g>
<g><path style="opacity:1" fill="#919191" d="M 102.5,470.5 C 103.833,470.5 105.167,470.5 106.5,470.5C 106.5,471.5 106.5,472.5 106.5,473.5C 102.689,473.596 102.689,474.262 106.5,475.5C 105.635,476.583 104.635,476.749 103.5,476C 102.594,474.301 102.261,472.467 102.5,470.5 Z"/></g>
<g><path style="opacity:1" fill="#a0a0a0" d="M 110.5,470.5 C 112.857,470.337 115.19,470.503 117.5,471C 118.554,472.388 118.72,473.888 118,475.5C 115.749,476.038 113.582,476.205 111.5,476C 110.594,474.301 110.261,472.467 110.5,470.5 Z"/></g>
<g><path style="opacity:1" fill="#4f4f4f" d="M 286.5,468.5 C 283.852,470.257 284.186,471.59 287.5,472.5C 287.023,476.073 285.356,476.906 282.5,475C 286.251,474.239 286.417,473.072 283,471.5C 282.667,469.066 283.834,468.066 286.5,468.5 Z"/></g>
<g><path style="opacity:1" fill="#adadad" d="M 83.5,469.5 C 84.5676,468.566 85.901,468.232 87.5,468.5C 87.3398,470.199 87.5065,471.866 88,473.5C 88.4828,472.552 88.6495,471.552 88.5,470.5C 92.0681,470.759 93.4015,472.759 92.5,476.5C 89.5,476.5 86.5,476.5 83.5,476.5C 83.2289,474.179 83.8955,472.179 85.5,470.5C 85.0431,469.702 84.3764,469.369 83.5,469.5 Z"/></g>
<g><path style="opacity:1" fill="#121011" d="M 60.5,187.5 C 60.2937,190.914 58.7937,193.581 56,195.5C 53.8009,203.687 52.1342,212.021 51,220.5C 50.3333,393.5 50.3333,566.5 51,739.5C 52.8405,750.14 56.3405,760.14 61.5,769.5C 57.3375,765.999 54.3375,761.665 52.5,756.5C 50.2357,748.689 49.2357,740.689 49.5,732.5C 49.3333,558.5 49.5,384.5 50,210.5C 51.0776,205.775 52.2443,201.109 53.5,196.5C 54.6936,192.637 57.027,189.637 60.5,187.5 Z"/></g>
<g><path style="opacity:1" fill="#403b3a" d="M 48.5,212.5 C 48.167,386.001 48.5003,559.334 49.5,732.5C 49.2357,740.689 50.2357,748.689 52.5,756.5C 50.7367,752.04 49.2367,747.373 48,742.5C 47.5,567.834 47.3333,393.167 47.5,218.5C 47.2053,216.265 47.5386,214.265 48.5,212.5 Z"/></g>
<g><path style="opacity:1" fill="#aaac9e" d="M 339.5,238.5 C 339.5,282.167 339.5,325.833 339.5,369.5C 339.5,393.167 339.5,416.833 339.5,440.5C 339.5,492.167 339.5,543.833 339.5,595.5C 338.667,640.998 338.167,686.665 338,732.5C 337.833,650.167 337.667,567.833 337.5,485.5C 337.5,402.831 338.167,320.497 339.5,238.5 Z"/></g>
<g><path style="opacity:1" fill="#ebfbe8" d="M 260.5,496.5 C 279.659,495.503 298.993,495.17 318.5,495.5C 318.5,496.833 318.5,498.167 318.5,499.5C 317.167,498.833 315.833,498.167 314.5,497.5C 296.674,496.503 278.674,496.17 260.5,496.5 Z"/></g>
<g><path style="opacity:1" fill="#7ea877" d="M 260.5,496.5 C 278.674,496.17 296.674,496.503 314.5,497.5C 296.164,497.333 277.83,497.5 259.5,498C 258.756,499.039 257.756,499.539 256.5,499.5C 257.262,497.738 258.596,496.738 260.5,496.5 Z"/></g>
<g><path style="opacity:1" fill="#3a882c" d="M 314.5,497.5 C 315.833,498.167 317.167,498.833 318.5,499.5C 318.666,505.842 318.5,512.175 318,518.5C 317.241,520.063 316.074,521.063 314.5,521.5C 296.164,521.667 277.83,521.5 259.5,521C 258.756,519.961 257.756,519.461 256.5,519.5C 255.191,512.734 255.191,506.068 256.5,499.5C 257.756,499.539 258.756,499.039 259.5,498C 277.83,497.5 296.164,497.333 314.5,497.5 Z"/></g>
<g><path style="opacity:1" fill="#3e3e3e" d="M 113.5,499.5 C 118.041,499.331 118.374,499.998 114.5,501.5C 116.053,502.439 117.387,503.606 118.5,505C 117.591,507.319 115.925,507.986 113.5,507C 114.624,506.751 115.624,506.251 116.5,505.5C 114.947,504.561 113.613,503.394 112.5,502C 112.743,501.098 113.077,500.265 113.5,499.5 Z"/></g>
<g><path style="opacity:1" fill="#67a6c8" d="M 74.5,496.5 C 88.0589,496.212 93.2256,502.545 90,515.5C 85.8722,522.489 80.0389,524.322 72.5,521C 63.9684,511.968 64.6351,503.801 74.5,496.5 Z"/></g>
<g><path style="opacity:1" fill="#3a3a3a" d="M 102.5,505.5 C 103.5,506.167 104.5,506.833 105.5,507.5C 103.833,507.5 102.167,507.5 100.5,507.5C 100.5,504.833 100.5,502.167 100.5,499.5C 102.199,499.34 103.866,499.506 105.5,500C 101.5,501 101.5,502 105.5,503C 103.881,503.236 102.881,504.069 102.5,505.5 Z"/></g>
<g><path style="opacity:1" fill="#3d3d3d" d="M 107.5,507.5 C 108.167,506.833 108.833,506.167 109.5,505.5C 109.201,503.396 109.534,501.396 110.5,499.5C 111.647,501.765 111.814,504.098 111,506.5C 109.989,507.337 108.822,507.67 107.5,507.5 Z"/></g>
<g><path style="opacity:1" fill="#969696" d="M 102.5,505.5 C 104.833,505.5 107.167,505.5 109.5,505.5C 108.833,506.167 108.167,506.833 107.5,507.5C 106.833,507.5 106.167,507.5 105.5,507.5C 104.5,506.833 103.5,506.167 102.5,505.5 Z"/></g>
<g><path style="opacity:1" fill="#bcddb3" d="M 275.5,512.5 C 274.5,512.833 273.833,513.5 273.5,514.5C 269.665,513.996 269.665,512.996 273.5,511.5C 270.478,510.996 269.311,509.329 270,506.5C 271.814,505.24 273.647,505.24 275.5,506.5C 270.26,507.587 270.26,508.587 275.5,509.5C 275.5,510.5 275.5,511.5 275.5,512.5 Z"/></g>
<g><path style="opacity:1" fill="#c3e3b7" d="M 280.5,510.5 C 277.868,511.867 278.202,512.701 281.5,513C 279.613,513.78 277.946,513.613 276.5,512.5C 277.476,511.185 278.476,509.852 279.5,508.5C 275.59,506.43 275.923,505.596 280.5,506C 281.728,507.49 281.728,508.99 280.5,510.5 Z"/></g>
<g><path style="opacity:1" fill="#afd8a6" d="M 293.5,514.5 C 292.699,512.958 292.366,511.292 292.5,509.5C 295.349,504.268 297.016,504.935 297.5,511.5C 297.281,513.915 295.948,514.915 293.5,514.5 Z"/></g>
<g><path style="opacity:1" fill="#bae3b5" d="M 287.5,510.5 C 287.5,511.5 287.5,512.5 287.5,513.5C 281.676,513.653 281.343,512.987 286.5,511.5C 286.043,510.702 285.376,510.369 284.5,510.5C 285.725,508.551 285.058,507.218 282.5,506.5C 286.434,504.758 288.101,506.091 287.5,510.5 Z"/></g>
<g><path style="opacity:1" fill="#b2d7aa" d="M 298.5,505.5 C 300.604,505.201 302.604,505.534 304.5,506.5C 303.42,508.996 302.086,511.33 300.5,513.5C 299.777,511.836 300.11,510.169 301.5,508.5C 300.007,507.859 299.007,506.859 298.5,505.5 Z"/></g>
<g><path style="opacity:1" fill="#b6dae9" d="M 75.5,505.5 C 77.5273,505.338 79.5273,505.505 81.5,506C 76.2702,506.909 76.2702,508.075 81.5,509.5C 80.5,510.167 79.5,510.833 78.5,511.5C 79.8333,512.167 81.1667,512.833 82.5,513.5C 80.2573,514.474 77.924,514.808 75.5,514.5C 75.5,511.5 75.5,508.5 75.5,505.5 Z"/></g>
<g><path style="opacity:1" fill="#c4c4c4" d="M 149.5,512.5 C 151.5,512.5 153.5,512.5 155.5,512.5C 156.667,514.79 157.5,517.124 158,519.5C 155.42,518.432 152.587,518.265 149.5,519C 153.456,517.886 153.456,517.053 149.5,516.5C 149.5,515.167 149.5,513.833 149.5,512.5 Z"/></g>
<g><path style="opacity:1" fill="#5b974e" d="M 292.5,509.5 C 292.366,511.292 292.699,512.958 293.5,514.5C 286.912,515.184 280.246,515.184 273.5,514.5C 273.833,513.5 274.5,512.833 275.5,512.5C 275.833,512.5 276.167,512.5 276.5,512.5C 277.946,513.613 279.613,513.78 281.5,513C 278.202,512.701 277.868,511.867 280.5,510.5C 281.833,511.833 283.167,511.833 284.5,510.5C 285.376,510.369 286.043,510.702 286.5,511.5C 281.343,512.987 281.676,513.653 287.5,513.5C 287.5,512.5 287.5,511.5 287.5,510.5C 289.159,512.587 290.826,512.254 292.5,509.5 Z"/></g>
<g><path style="opacity:1" fill="#b2b2b2" d="M 112.5,513.5 C 113.289,513.783 113.956,514.283 114.5,515C 113.783,516.652 113.45,518.152 113.5,519.5C 112.719,518.271 112.219,516.938 112,515.5C 111.091,520.73 109.925,520.73 108.5,515.5C 107.013,520.657 106.347,520.324 106.5,514.5C 108.735,514.795 110.735,514.461 112.5,513.5 Z"/></g>
<g><path style="opacity:1" fill="#85aa7d" d="M 231.5,504.5 C 234.32,504.248 236.986,504.748 239.5,506C 233.907,507.619 228.24,509.119 222.5,510.5C 220.902,509.515 219.235,509.349 217.5,510C 215.142,512.276 212.976,514.776 211,517.5C 209.806,515.475 208.306,515.141 206.5,516.5C 205.614,515.675 205.281,514.675 205.5,513.5C 204.325,513.719 203.325,513.386 202.5,512.5C 203.167,512.167 203.833,511.833 204.5,511.5C 209.393,513.421 213.393,512.254 216.5,508C 219.713,507.297 222.879,507.464 226,508.5C 228.654,508.178 230.488,506.845 231.5,504.5 Z"/></g>
<g><path style="opacity:1" fill="#afafaf" d="M 136.5,514.5 C 139.598,514.413 139.932,514.913 137.5,516C 138.416,516.374 139.25,516.874 140,517.5C 140.928,514.965 142.762,513.965 145.5,514.5C 145.5,515.5 145.5,516.5 145.5,517.5C 141.551,517.693 141.551,518.193 145.5,519C 142.922,518.879 140.422,519.046 138,519.5C 136.238,519.056 136.405,518.556 138.5,518C 137.027,517.29 136.36,516.124 136.5,514.5 Z"/></g>
<g><path style="opacity:1" fill="#c5c5c5" d="M 116.5,514.5 C 118.857,514.337 121.19,514.503 123.5,515C 122.62,516.356 122.286,517.856 122.5,519.5C 120.167,519.5 117.833,519.5 115.5,519.5C 115.366,517.708 115.699,516.042 116.5,514.5 Z"/></g>
<g><path style="opacity:1" fill="#a2a2a2" d="M 124.5,514.5 C 128.838,514.622 129.172,514.955 125.5,515.5C 125.5,516.5 125.5,517.5 125.5,518.5C 126.552,518.351 127.552,518.517 128.5,519C 126.939,519.318 125.772,520.151 125,521.5C 124.503,519.19 124.337,516.857 124.5,514.5 Z"/></g>
<g><path style="opacity:1" fill="#aeaeae" d="M 100.5,512.5 C 102.199,512.34 103.866,512.506 105.5,513C 102.332,513.582 101.999,514.582 104.5,516C 101.999,517.418 102.332,518.418 105.5,519C 103.866,519.494 102.199,519.66 100.5,519.5C 100.5,517.167 100.5,514.833 100.5,512.5 Z"/></g>
<g><path style="opacity:1" fill="#b2b2b2" d="M 159.5,514.5 C 160.688,515.684 161.855,515.684 163,514.5C 161.754,523.581 160.588,523.581 159.5,514.5 Z"/></g>
<g><path style="opacity:1" fill="#77a76f" d="M 256.5,519.5 C 257.756,519.461 258.756,519.961 259.5,521C 277.83,521.5 296.164,521.667 314.5,521.5C 296.005,522.662 277.338,522.829 258.5,522C 257.619,521.292 256.953,520.458 256.5,519.5 Z"/></g>
<g><path style="opacity:1" fill="#272727" d="M 100.5,565.5 C 100.5,562.5 100.5,559.5 100.5,556.5C 98.8212,556.715 97.8212,556.048 97.5,554.5C 98.8195,553.058 100.486,552.392 102.5,552.5C 103.097,557.294 102.43,561.627 100.5,565.5 Z"/></g>
<g><path style="opacity:1" fill="#b5b5b5" d="M 97.5,554.5 C 97.8212,556.048 98.8212,556.715 100.5,556.5C 100.5,559.5 100.5,562.5 100.5,565.5C 99.6829,563.031 99.1829,560.365 99,557.5C 97.6575,558.902 96.8242,558.569 96.5,556.5C 96.5427,555.584 96.8761,554.917 97.5,554.5 Z"/></g>
<g><path style="opacity:1" fill="#262626" d="M 187.5,552.5 C 193.113,551.079 195.28,553.079 194,558.5C 192.5,560 191,561.5 189.5,563C 191.256,563.202 192.922,563.702 194.5,564.5C 191.914,565.48 189.247,565.813 186.5,565.5C 186.351,564.448 186.517,563.448 187,562.5C 189.018,560.65 190.851,558.65 192.5,556.5C 191.252,554.31 189.586,553.977 187.5,555.5C 186.438,554.575 186.438,553.575 187.5,552.5 Z"/></g>
<g><path style="opacity:1" fill="#2a2a2a" d="M 276.5,552.5 C 278.924,552.192 281.257,552.526 283.5,553.5C 283.931,554.293 284.265,555.127 284.5,556C 284.163,558.747 283.996,561.58 284,564.5C 281.619,565.435 279.119,565.768 276.5,565.5C 276.281,564.325 276.614,563.325 277.5,562.5C 280.372,564.171 281.872,563.505 282,560.5C 280.795,559.929 279.628,559.262 278.5,558.5C 279.325,557.614 280.325,557.281 281.5,557.5C 281.5,556.5 281.5,555.5 281.5,554.5C 280.07,554.421 278.736,554.754 277.5,555.5C 276.614,554.675 276.281,553.675 276.5,552.5 Z"/></g>
<g><path style="opacity:1" fill="#267a43" d="M 341.5,442.5 C 341.667,543.167 341.5,643.834 341,744.5C 339.683,749.1 338.683,753.766 338,758.5C 336.276,760.396 334.443,762.062 332.5,763.5C 333.38,760.616 334.713,757.95 336.5,755.5C 337.474,753.257 337.808,750.924 337.5,748.5C 338.913,745.781 339.58,742.781 339.5,739.5C 340.167,640.5 340.833,541.5 341.5,442.5 Z"/></g>
<g><path style="opacity:1" fill="#938f89" d="M 47.5,218.5 C 47.3333,393.167 47.5,567.834 48,742.5C 49.2367,747.373 50.7367,752.04 52.5,756.5C 54.3375,761.665 57.3375,765.999 61.5,769.5C 63.8003,771.984 66.4669,773.984 69.5,775.5C 77.666,780.46 86.666,782.793 96.5,782.5C 99.6414,783.321 102.975,783.821 106.5,784C 102.179,784.499 97.8461,784.666 93.5,784.5C 76.0454,784.008 62.3788,776.675 52.5,762.5C 51.5792,758.701 49.9125,755.368 47.5,752.5C 45.8967,740.897 45.23,729.23 45.5,717.5C 46.1667,551.167 46.8333,384.833 47.5,218.5 Z"/></g>
<g><path style="opacity:1" fill="#1f1f1f" d="M 103.5,596.5 C 103.342,599.902 103.676,603.236 104.5,606.5C 103.849,607.091 103.182,607.757 102.5,608.5C 100.477,606.827 98.1441,606.16 95.5,606.5C 95.8406,603.484 97.0073,600.818 99,598.5C 100.11,596.963 101.61,596.297 103.5,596.5 Z"/></g>
<g><path style="opacity:1" fill="#9e9e9e" d="M 103.5,596.5 C 104.298,599.171 104.965,602.004 105.5,605C 105.43,605.765 105.097,606.265 104.5,606.5C 103.676,603.236 103.342,599.902 103.5,596.5 Z"/></g>
<g><path style="opacity:1" fill="#2d2d2d" d="M 186.5,596.5 C 189.247,596.187 191.914,596.52 194.5,597.5C 192.833,598.167 191.167,598.833 189.5,599.5C 193.799,600.625 195.299,603.292 194,607.5C 191.415,610.128 188.915,610.128 186.5,607.5C 188.396,606.534 190.396,606.201 192.5,606.5C 192.241,602.932 190.241,601.599 186.5,602.5C 186.5,600.5 186.5,598.5 186.5,596.5 Z"/></g>
<g><path style="opacity:1" fill="#b1b1b1" d="M 100.5,599.5 C 101.451,600.919 101.784,602.585 101.5,604.5C 100.325,604.719 99.325,604.386 98.5,603.5C 99.1799,602.14 99.8466,600.807 100.5,599.5 Z"/></g>
<g><path style="opacity:1" fill="#1f1f1f" d="M 280.5,596.5 C 282.758,596.775 283.092,597.775 281.5,599.5C 287.095,603.412 286.762,606.412 280.5,608.5C 277.745,608.91 276.412,607.744 276.5,605C 277.174,601.82 278.508,598.986 280.5,596.5 Z"/></g>
<g><path style="opacity:1" fill="#cecece" d="M 279.5,602.5 C 282.956,603.536 283.29,605.203 280.5,607.5C 278.296,606.218 277.962,604.551 279.5,602.5 Z"/></g>
<g><path style="opacity:1" fill="#232021" d="M 53.5,196.5 C 52.2443,201.109 51.0776,205.775 50,210.5C 49.5,384.5 49.3333,558.5 49.5,732.5C 48.5003,559.334 48.167,386.001 48.5,212.5C 48.5,210.833 48.5,209.167 48.5,207.5C 49.8871,203.725 51.5537,200.058 53.5,196.5 Z"/></g>
<g><path style="opacity:1" fill="#50684d" d="M 341.5,438.5 C 341.833,438.5 342.167,438.5 342.5,438.5C 342.5,439.833 342.5,441.167 342.5,442.5C 342.167,442.5 341.833,442.5 341.5,442.5C 340.833,541.5 340.167,640.5 339.5,739.5C 339.5,691.5 339.5,643.5 339.5,595.5C 339.5,543.833 339.5,492.167 339.5,440.5C 340.833,440.5 341.5,439.833 341.5,438.5 Z"/></g>
<g><path style="opacity:1" fill="#84857e" d="M 338.5,216.5 C 339.492,223.648 339.825,230.981 339.5,238.5C 338.167,320.497 337.5,402.831 337.5,485.5C 337.667,567.833 337.833,650.167 338,732.5C 338.167,686.665 338.667,640.998 339.5,595.5C 339.5,643.5 339.5,691.5 339.5,739.5C 339.58,742.781 338.913,745.781 337.5,748.5C 334.844,755.474 331.344,762.14 327,768.5C 322.974,771.698 319.141,775.032 315.5,778.5C 315.167,778.5 314.833,778.5 314.5,778.5C 312.022,779.883 309.355,780.883 306.5,781.5C 304.048,781.014 301.382,781.014 298.5,781.5C 299.833,780.833 301.167,780.167 302.5,779.5C 313.8,777.851 322.467,772.184 328.5,762.5C 331.527,758.763 333.193,754.43 333.5,749.5C 335.011,747.524 335.844,745.191 336,742.5C 336.5,568.5 336.667,394.5 336.5,220.5C 337.326,224.982 337.826,229.649 338,234.5C 338.499,228.509 338.666,222.509 338.5,216.5 Z"/></g>
<g><path style="opacity:1" fill="#272727" d="M 278.5,639.5 C 282.002,639.167 284.336,640.667 285.5,644C 284.533,647.443 282.7,650.276 280,652.5C 278.274,651.352 278.441,650.185 280.5,649C 276.06,646.632 275.393,643.466 278.5,639.5 Z"/></g>
<g><path style="opacity:1" fill="#d0d0d0" d="M 279.5,641.5 C 280.5,641.5 281.5,641.5 282.5,641.5C 282.884,643.665 282.217,645.332 280.5,646.5C 278.296,645.218 277.962,643.551 279.5,641.5 Z"/></g>
<g><path style="opacity:1" fill="#282828" d="M 96.5,640.5 C 99.1667,640.5 101.833,640.5 104.5,640.5C 103.386,644.727 101.72,648.727 99.5,652.5C 98.5767,649.282 99.2434,646.282 101.5,643.5C 99.3449,642.999 97.6782,641.999 96.5,640.5 Z"/></g>
<g><path style="opacity:1" fill="#1e1e1e" d="M 188.5,639.5 C 190.722,639.178 192.556,639.845 194,641.5C 194.218,644.976 194.051,648.476 193.5,652C 191.231,652.758 189.064,652.591 187,651.5C 187.298,648.623 187.132,645.79 186.5,643C 186.978,641.697 187.645,640.531 188.5,639.5 Z"/></g>
<g><path style="opacity:1" fill="#c3c3c3" d="M 188.5,647.5 C 189.833,647.5 191.167,647.5 192.5,647.5C 192.778,649.346 192.111,650.68 190.5,651.5C 188.889,650.68 188.222,649.346 188.5,647.5 Z"/></g>
<g><path style="opacity:1" fill="#bbbbbb" d="M 189.5,641.5 C 192.861,642.203 193.194,643.537 190.5,645.5C 188.358,644.563 188.024,643.23 189.5,641.5 Z"/></g>
<g><path style="opacity:1" fill="#7b7b6b" d="M 44.5,633.5 C 44.8333,633.5 45.1667,633.5 45.5,633.5C 45.5,661.5 45.5,689.5 45.5,717.5C 45.23,729.23 45.8967,740.897 47.5,752.5C 45.1236,748.595 44.1236,744.261 44.5,739.5C 44.5,704.167 44.5,668.833 44.5,633.5 Z"/></g>
<g><path style="opacity:1" fill="#1b1b1b" d="M 188.5,683.5 C 190.722,683.178 192.556,683.845 194,685.5C 194.667,688.5 194.667,691.5 194,694.5C 190.555,697.556 188.222,696.89 187,692.5C 186.068,689.177 186.568,686.177 188.5,683.5 Z"/></g>
<g><path style="opacity:1" fill="#c7c7c7" d="M 189.5,685.5 C 191.95,685.874 192.95,687.374 192.5,690C 191.014,696.062 189.68,695.895 188.5,689.5C 188.623,688.075 188.957,686.742 189.5,685.5 Z"/></g>
<g><path style="opacity:1" fill="#5a5a5a" d="M 279.5,683.5 C 283.437,683.207 287.27,683.54 291,684.5C 291.793,688.423 291.626,692.256 290.5,696C 283.91,697.852 278.41,696.352 274,691.5C 273.251,690.365 273.417,689.365 274.5,688.5C 276.521,687.145 278.188,685.479 279.5,683.5 Z"/></g>
<g><path style="opacity:1" fill="#ededed" d="M 280.5,684.5 C 290.16,682.341 293.16,685.841 289.5,695C 284.243,696.426 279.743,695.259 276,691.5C 275.333,690.833 275.333,690.167 276,689.5C 277.707,687.963 279.207,686.296 280.5,684.5 Z"/></g>
<g><path style="opacity:1" fill="#706f70" d="M 281.5,688.5 C 283.357,688.505 285.357,688.338 287.5,688C 284.833,689.333 284.833,690.667 287.5,692C 285.5,691.333 283.5,691.333 281.5,692C 284.07,690.651 284.07,689.484 281.5,688.5 Z"/></g>
<g><path style="opacity:1" fill="#282828" d="M 99.5,693.5 C 101.465,693.948 101.798,694.948 100.5,696.5C 99.6143,695.675 99.281,694.675 99.5,693.5 Z"/></g>
<g><path style="opacity:1" fill="#bad7b4" d="M 314.5,720.5 C 232.096,720.17 149.763,720.503 67.5,721.5C 108.328,720.167 149.495,719.5 191,719.5C 232.335,719.5 273.501,719.833 314.5,720.5 Z"/></g>
<g><path style="opacity:1" fill="#368728" d="M 314.5,720.5 C 315.5,721.167 316.5,721.833 317.5,722.5C 317.729,732.532 317.396,742.532 316.5,752.5C 233.874,753.661 151.207,753.828 68.5,753C 68,752.5 67.5,752 67,751.5C 66.1934,741.423 66.36,731.423 67.5,721.5C 149.763,720.503 232.096,720.17 314.5,720.5 Z"/></g>
<g><path style="opacity:1" fill="#a8cfa2" d="M 173.5,733.5 C 175.467,733.261 177.301,733.594 179,734.5C 178.698,736.974 178.532,739.308 178.5,741.5C 177.667,740.5 176.833,739.5 176,738.5C 175.751,739.624 175.251,740.624 174.5,741.5C 173.52,738.914 173.187,736.247 173.5,733.5 Z"/></g>
<g><path style="opacity:1" fill="#9ac391" d="M 185.5,741.5 C 184.737,740.732 183.737,740.232 182.5,740C 185.285,739.274 185.952,737.774 184.5,735.5C 186.492,735.328 188.158,735.995 189.5,737.5C 191.149,736.294 192.649,734.961 194,733.5C 194.827,736.416 196.494,737.083 199,735.5C 200.261,735.759 201.261,736.426 202,737.5C 203,734.833 204,734.833 205,737.5C 206.154,735.043 207.488,735.043 209,737.5C 209.308,736.692 209.808,736.025 210.5,735.5C 210.92,737.326 210.92,739.326 210.5,741.5C 209.5,741.5 208.5,741.5 207.5,741.5C 207.649,740.448 207.483,739.448 207,738.5C 205.509,740.004 203.676,740.837 201.5,741C 198.356,740.905 195.356,741.072 192.5,741.5C 192.657,740.127 192.49,738.793 192,737.5C 191.193,741.397 189.526,742.063 187,739.5C 186.722,740.416 186.222,741.082 185.5,741.5 Z"/></g>
<g><path style="opacity:1" fill="#e2f2db" d="M 318.5,724.5 C 319.657,732.99 319.824,741.657 319,750.5C 318.617,751.056 318.117,751.389 317.5,751.5C 318.444,742.553 318.778,733.553 318.5,724.5 Z"/></g>
<g><path style="opacity:1" fill="#b9dcae" d="M 184.5,735.5 C 185.952,737.774 185.285,739.274 182.5,740C 183.737,740.232 184.737,740.732 185.5,741.5C 180.841,741.985 179.508,740.152 181.5,736C 182.448,735.517 183.448,735.351 184.5,735.5 Z"/></g>
<g><path style="opacity:1" fill="#6b9c5c" d="M 317.5,722.5 C 318.338,722.842 318.672,723.508 318.5,724.5C 318.778,733.553 318.444,742.553 317.5,751.5C 317.5,752.167 317.167,752.5 316.5,752.5C 317.396,742.532 317.729,732.532 317.5,722.5 Z"/></g>
<g><path style="opacity:1" fill="#455541" d="M 47.5,752.5 C 49.9125,755.368 51.5792,758.701 52.5,762.5C 49.2586,760.017 47.5919,756.684 47.5,752.5 Z"/></g>
<g><path style="opacity:1" fill="#475540" d="M 337.5,748.5 C 337.808,750.924 337.474,753.257 336.5,755.5C 334.713,757.95 333.38,760.616 332.5,763.5C 328.123,769.872 322.457,774.872 315.5,778.5C 319.141,775.032 322.974,771.698 327,768.5C 331.344,762.14 334.844,755.474 337.5,748.5 Z"/></g>
<g><path style="opacity:1" fill="#2d2b27" d="M 69.5,775.5 C 78.2392,778.346 87.2392,780.013 96.5,780.5C 162.665,781.499 228.998,781.832 295.5,781.5C 293.393,782.468 291.059,782.802 288.5,782.5C 224.5,782.5 160.5,782.5 96.5,782.5C 86.666,782.793 77.666,780.46 69.5,775.5 Z"/></g>
<g><path style="opacity:1" fill="#495e45" d="M 52.5,762.5 C 62.3788,776.675 76.0454,784.008 93.5,784.5C 158.833,785.833 224.167,785.833 289.5,784.5C 295.274,784.008 300.94,783.008 306.5,781.5C 309.355,780.883 312.022,779.883 314.5,778.5C 314.586,779.496 314.252,780.329 313.5,781C 310.904,782.136 308.237,782.969 305.5,783.5C 301.828,784.021 298.162,784.687 294.5,785.5C 228.17,786.5 161.837,786.833 95.5,786.5C 79.8875,786.297 66.7209,780.63 56,769.5C 54.1207,767.473 52.954,765.14 52.5,762.5 Z"/></g>
<g><path style="opacity:1" fill="#7d7b6e" d="M 96.5,782.5 C 160.5,782.5 224.5,782.5 288.5,782.5C 229.335,783.333 170.001,783.833 110.5,784C 170.166,784.5 229.832,784.667 289.5,784.5C 224.167,785.833 158.833,785.833 93.5,784.5C 97.8461,784.666 102.179,784.499 106.5,784C 102.975,783.821 99.6414,783.321 96.5,782.5 Z"/></g>
<g><path style="opacity:1" fill="#adab9d" d="M 306.5,781.5 C 300.94,783.008 295.274,784.008 289.5,784.5C 229.832,784.667 170.166,784.5 110.5,784C 170.001,783.833 229.335,783.333 288.5,782.5C 291.059,782.802 293.393,782.468 295.5,781.5C 296.5,781.5 297.5,781.5 298.5,781.5C 301.382,781.014 304.048,781.014 306.5,781.5 Z"/></g>
<g><path style="opacity:1" fill="#171717" d="M 302.5,779.5 C 301.167,780.167 299.833,780.833 298.5,781.5C 297.5,781.5 296.5,781.5 295.5,781.5C 228.998,781.832 162.665,781.499 96.5,780.5C 165.18,780.81 233.847,780.476 302.5,779.5 Z"/></g>
<g><path style="opacity:1" fill="#257645" d="M 305.5,783.5 C 302.471,785.075 299.138,786.241 295.5,787C 228.665,787.832 161.999,787.665 95.5,786.5C 161.837,786.833 228.17,786.5 294.5,785.5C 298.162,784.687 301.828,784.021 305.5,783.5 Z"/></g>
</svg>
