<?xml version="1.0" encoding="UTF-8"?>
<!DOCTYPE svg PUBLIC "-//W3C//DTD SVG 1.1//EN" "http://www.w3.org/Graphics/SVG/1.1/DTD/svg11.dtd">
<svg xmlns="http://www.w3.org/2000/svg" version="1.1" width="1033px" height="491px" style="shape-rendering:geometricPrecision; text-rendering:geometricPrecision; image-rendering:optimizeQuality; fill-rule:evenodd; clip-rule:evenodd" xmlns:xlink="http://www.w3.org/1999/xlink">
<g><path style="opacity:0.998" fill="#212121" d="M -0.5,-0.5 C 343.833,-0.5 688.167,-0.5 1032.5,-0.5C 1032.5,163.167 1032.5,326.833 1032.5,490.5C 688.167,490.5 343.833,490.5 -0.5,490.5C -0.5,326.833 -0.5,163.167 -0.5,-0.5 Z"/></g>
<g><path style="opacity:1" fill="#a8a8a8" d="M 94.5,91.5 C 101.221,90.7513 107.554,91.9179 113.5,95C 116.962,97.5694 116.962,99.7361 113.5,101.5C 108.364,96.8268 102.364,95.3268 95.5,97C 91.0745,99.5488 90.4079,102.882 93.5,107C 99.3807,109.305 105.381,111.305 111.5,113C 119.47,119.915 119.137,126.582 110.5,133C 102.874,135.42 95.5402,134.753 88.5,131C 86.5864,129.587 85.2531,127.753 84.5,125.5C 85.1667,124.167 86.1667,123.167 87.5,122.5C 89.6499,124.149 91.6499,125.982 93.5,128C 97.7411,129.457 102.074,129.791 106.5,129C 112.244,125.868 112.911,121.868 108.5,117C 101.19,115.637 94.3563,113.137 88,109.5C 83.6527,101.188 85.8194,95.1882 94.5,91.5 Z"/></g>
<g><path style="opacity:1" fill="#595959" d="M 255.5,92.5 C 255.666,98.1764 255.499,103.843 255,109.5C 254.283,108.956 253.783,108.289 253.5,107.5C 254.167,102.5 254.833,97.5 255.5,92.5 Z"/></g>
<g><path style="opacity:1" fill="#aaaaaa" d="M 255.5,92.5 C 256.833,92.5 258.167,92.5 259.5,92.5C 259.5,106.167 259.5,119.833 259.5,133.5C 258.167,133.5 256.833,133.5 255.5,133.5C 255.66,131.801 255.494,130.134 255,128.5C 247.002,136.781 239.335,136.448 232,127.5C 227.081,116.842 229.914,109.009 240.5,104C 245.411,103.252 249.745,104.418 253.5,107.5C 253.783,108.289 254.283,108.956 255,109.5C 255.499,103.843 255.666,98.1764 255.5,92.5 Z"/></g>
<g><path style="opacity:1" fill="#9f9f9f" d="M 281.5,92.5 C 287.175,92.8597 287.842,94.8597 283.5,98.5C 280.61,97.1627 279.943,95.1627 281.5,92.5 Z"/></g>
<g><path style="opacity:1" fill="#a7a7a7" d="M 318.5,91.5 C 320.167,91.5 321.833,91.5 323.5,91.5C 323.5,105.5 323.5,119.5 323.5,133.5C 321.833,133.5 320.167,133.5 318.5,133.5C 318.657,132.127 318.49,130.793 318,129.5C 308.075,137.34 300.075,135.673 294,124.5C 291.524,110.993 297.024,104.16 310.5,104C 313.548,104.606 316.048,106.106 318,108.5C 318.499,102.843 318.666,97.1764 318.5,91.5 Z"/></g>
<g><path style="opacity:1" fill="#9f9f9f" d="M 424.5,92.5 C 430.175,92.8597 430.842,94.8597 426.5,98.5C 423.61,97.1627 422.943,95.1627 424.5,92.5 Z"/></g>
<g><path style="opacity:1" fill="#b1b1b1" d="M 517.5,92.5 C 522.167,92.5 526.833,92.5 531.5,92.5C 531.5,106.167 531.5,119.833 531.5,133.5C 530.167,133.5 528.833,133.5 527.5,133.5C 527.5,121.167 527.5,108.833 527.5,96.5C 524.167,96.5 520.833,96.5 517.5,96.5C 517.5,95.1667 517.5,93.8333 517.5,92.5 Z"/></g>
<g><path style="opacity:1" fill="#727272" d="M 517.5,92.5 C 517.5,93.8333 517.5,95.1667 517.5,96.5C 520.833,96.5 524.167,96.5 527.5,96.5C 527.5,108.833 527.5,121.167 527.5,133.5C 528.833,133.5 530.167,133.5 531.5,133.5C 531.5,119.833 531.5,106.167 531.5,92.5C 526.833,92.5 522.167,92.5 517.5,92.5 Z"/></g>
<g><path style="opacity:1" fill="#aaaaaa" d="M 552.5,91.5 C 563.271,90.4417 570.104,95.1084 573,105.5C 574.45,113.676 573.117,121.343 569,128.5C 560.74,136.423 552.407,136.423 544,128.5C 539.391,120.257 538.391,111.591 541,102.5C 543.437,97.2262 547.271,93.5595 552.5,91.5 Z"/></g>
<g><path style="opacity:1" fill="#a7a7a7" d="M 600.5,98.5 C 599.539,100.265 599.205,102.265 599.5,104.5C 602.167,104.5 604.833,104.5 607.5,104.5C 607.5,105.833 607.5,107.167 607.5,108.5C 605.167,108.5 602.833,108.5 600.5,108.5C 600.5,116.833 600.5,125.167 600.5,133.5C 598.833,133.5 597.167,133.5 595.5,133.5C 595.5,124.833 595.5,116.167 595.5,107.5C 594.167,107.5 592.833,107.5 591.5,107.5C 591.5,106.5 591.5,105.5 591.5,104.5C 592.833,104.5 594.167,104.5 595.5,104.5C 594.005,94.3305 598.339,90.3305 608.5,92.5C 608.5,93.5 608.5,94.5 608.5,95.5C 605.058,94.8283 602.391,95.8283 600.5,98.5 Z"/></g>
<g><path style="opacity:1" fill="#b1b1b1" d="M 679.5,92.5 C 684.167,92.5 688.833,92.5 693.5,92.5C 693.5,106.167 693.5,119.833 693.5,133.5C 692.167,133.5 690.833,133.5 689.5,133.5C 689.5,121.167 689.5,108.833 689.5,96.5C 686.167,96.5 682.833,96.5 679.5,96.5C 679.5,95.1667 679.5,93.8333 679.5,92.5 Z"/></g>
<g><path style="opacity:1" fill="#727272" d="M 679.5,92.5 C 679.5,93.8333 679.5,95.1667 679.5,96.5C 682.833,96.5 686.167,96.5 689.5,96.5C 689.5,108.833 689.5,121.167 689.5,133.5C 690.833,133.5 692.167,133.5 693.5,133.5C 693.5,119.833 693.5,106.167 693.5,92.5C 688.833,92.5 684.167,92.5 679.5,92.5 Z"/></g>
<g><path style="opacity:1" fill="#aaaaaa" d="M 713.5,91.5 C 724.693,90.0118 731.86,94.6784 735,105.5C 737.215,115.227 735.048,123.727 728.5,131C 715.448,137.229 706.615,133.396 702,119.5C 699.575,107.376 703.409,98.0424 713.5,91.5 Z"/></g>
<g><path style="opacity:1" fill="#a7a7a7" d="M 412.5,129.5 C 413.568,130.434 414.901,130.768 416.5,130.5C 416.5,131.5 416.5,132.5 416.5,133.5C 413.813,133.664 411.146,133.497 408.5,133C 407.299,132.097 406.465,130.931 406,129.5C 405.5,122.508 405.334,115.508 405.5,108.5C 404.167,108.5 402.833,108.5 401.5,108.5C 401.5,107.167 401.5,105.833 401.5,104.5C 402.833,104.5 404.167,104.5 405.5,104.5C 405.5,101.5 405.5,98.5 405.5,95.5C 407.167,95.5 408.833,95.5 410.5,95.5C 410.5,98.5 410.5,101.5 410.5,104.5C 412.833,104.5 415.167,104.5 417.5,104.5C 417.5,105.833 417.5,107.167 417.5,108.5C 415.167,108.5 412.833,108.5 410.5,108.5C 410.334,115.175 410.5,121.842 411,128.5C 411.383,129.056 411.883,129.389 412.5,129.5 Z"/></g>
<g><path style="opacity:1" fill="#232323" d="M 552.5,96.5 C 559.034,95.5023 563.868,97.8356 567,103.5C 569.501,111.153 568.834,118.486 565,125.5C 555.833,132.26 549.166,130.26 545,119.5C 542.456,109.968 544.956,102.301 552.5,96.5 Z"/></g>
<g><path style="opacity:1" fill="#232323" d="M 714.5,96.5 C 722.706,95.2174 727.873,98.5508 730,106.5C 730.772,111.904 730.439,117.238 729,122.5C 724.733,129.876 718.899,131.376 711.5,127C 706.357,119.824 705.19,111.991 708,103.5C 709.694,100.642 711.861,98.309 714.5,96.5 Z"/></g>
<g><path style="opacity:1" fill="#525252" d="M 600.5,98.5 C 600.5,100.167 600.5,101.833 600.5,103.5C 603.059,103.198 605.393,103.532 607.5,104.5C 604.833,104.5 602.167,104.5 599.5,104.5C 599.205,102.265 599.539,100.265 600.5,98.5 Z"/></g>
<g><path style="opacity:1" fill="#a7a7a7" d="M 135.5,103.5 C 151.106,104.349 156.606,112.349 152,127.5C 144.925,135.928 137.259,136.595 129,129.5C 128.501,134.823 128.334,140.156 128.5,145.5C 126.833,145.5 125.167,145.5 123.5,145.5C 123.5,131.833 123.5,118.167 123.5,104.5C 125.167,104.5 126.833,104.5 128.5,104.5C 128.343,105.873 128.51,107.207 129,108.5C 131.326,106.934 133.492,105.268 135.5,103.5 Z"/></g>
<g><path style="opacity:1" fill="#aaaaaa" d="M 170.5,103.5 C 182.369,103.037 188.369,108.704 188.5,120.5C 180.493,120.334 172.493,120.5 164.5,121C 168.504,131.341 175.004,133.174 184,126.5C 185.28,126.613 186.113,127.28 186.5,128.5C 180.853,135.002 174.187,136.169 166.5,132C 160.83,126.72 158.996,120.22 161,112.5C 163.406,108.592 166.572,105.592 170.5,103.5 Z"/></g>
<g><path style="opacity:1" fill="#a8a8a8" d="M 205.5,103.5 C 217.369,103.037 223.369,108.704 223.5,120.5C 215.472,120.169 207.472,120.502 199.5,121.5C 203.844,131.385 210.344,133.052 219,126.5C 220.28,126.613 221.113,127.28 221.5,128.5C 216.317,134.448 209.984,135.948 202.5,133C 194.493,126.983 192.659,119.483 197,110.5C 199.416,107.577 202.25,105.243 205.5,103.5 Z"/></g>
<g><path style="opacity:1" fill="#545454" d="M 281.5,104.5 C 281.5,114.167 281.5,123.833 281.5,133.5C 282.833,133.5 284.167,133.5 285.5,133.5C 284.081,134.451 282.415,134.784 280.5,134.5C 280.173,124.319 280.506,114.319 281.5,104.5 Z"/></g>
<g><path style="opacity:1" fill="#b1b2b1" d="M 281.5,104.5 C 282.833,104.5 284.167,104.5 285.5,104.5C 285.5,114.167 285.5,123.833 285.5,133.5C 284.167,133.5 282.833,133.5 281.5,133.5C 281.5,123.833 281.5,114.167 281.5,104.5 Z"/></g>
<g><path style="opacity:1" fill="#a8a8a8" d="M 340.5,103.5 C 352.844,102.513 359.177,108.179 359.5,120.5C 351.5,120.5 343.5,120.5 335.5,120.5C 335.345,125.023 337.345,128.189 341.5,130C 346.572,131.048 351.072,129.881 355,126.5C 356.28,126.613 357.113,127.28 357.5,128.5C 351.434,134.803 344.434,135.969 336.5,132C 330.166,125.337 328.999,117.837 333,109.5C 335.114,106.879 337.614,104.879 340.5,103.5 Z"/></g>
<g><path style="opacity:1" fill="#a7a7a7" d="M 376.5,103.5 C 381.801,103.099 386.301,104.766 390,108.5C 390.49,107.207 390.657,105.873 390.5,104.5C 392.167,104.5 393.833,104.5 395.5,104.5C 395.5,114.167 395.5,123.833 395.5,133.5C 393.833,133.5 392.167,133.5 390.5,133.5C 390.657,132.127 390.49,130.793 390,129.5C 380.075,137.34 372.075,135.673 366,124.5C 363.714,114.404 367.214,107.404 376.5,103.5 Z"/></g>
<g><path style="opacity:1" fill="#545454" d="M 424.5,104.5 C 424.5,114.167 424.5,123.833 424.5,133.5C 425.833,133.5 427.167,133.5 428.5,133.5C 427.081,134.451 425.415,134.784 423.5,134.5C 423.173,124.319 423.506,114.319 424.5,104.5 Z"/></g>
<g><path style="opacity:1" fill="#b1b2b1" d="M 424.5,104.5 C 425.833,104.5 427.167,104.5 428.5,104.5C 428.5,114.167 428.5,123.833 428.5,133.5C 427.167,133.5 425.833,133.5 424.5,133.5C 424.5,123.833 424.5,114.167 424.5,104.5 Z"/></g>
<g><path style="opacity:1" fill="#a6a6a6" d="M 447.5,103.5 C 460.861,102.914 467.028,109.247 466,122.5C 462.855,131.828 456.355,135.661 446.5,134C 437.823,129.81 434.657,122.976 437,113.5C 439.106,108.557 442.606,105.224 447.5,103.5 Z"/></g>
<g><path style="opacity:1" fill="#a6a6a6" d="M 473.5,104.5 C 474.833,104.5 476.167,104.5 477.5,104.5C 477.281,105.675 477.614,106.675 478.5,107.5C 479.107,107.376 479.44,107.043 479.5,106.5C 486.51,101.918 492.677,102.918 498,109.5C 499.435,117.389 499.935,125.389 499.5,133.5C 497.833,133.5 496.167,133.5 494.5,133.5C 494.666,126.492 494.5,119.492 494,112.5C 489.402,107.554 484.402,107.221 479,111.5C 478.5,118.826 478.334,126.159 478.5,133.5C 476.833,133.5 475.167,133.5 473.5,133.5C 473.5,123.833 473.5,114.167 473.5,104.5 Z"/></g>
<g><path style="opacity:1" fill="#585858" d="M 473.5,104.5 C 474.919,103.549 476.585,103.216 478.5,103.5C 478.263,104.791 478.596,105.791 479.5,106.5C 479.44,107.043 479.107,107.376 478.5,107.5C 477.614,106.675 477.281,105.675 477.5,104.5C 476.167,104.5 474.833,104.5 473.5,104.5 Z"/></g>
<g><path style="opacity:1" fill="#a8a8a8" d="M 622.5,103.5 C 638.527,104.35 644.027,112.35 639,127.5C 633.099,134.862 625.932,136.362 617.5,132C 611.885,127.032 610.052,120.865 612,113.5C 614.106,108.557 617.606,105.224 622.5,103.5 Z"/></g>
<g><path style="opacity:1" fill="#adadad" d="M 648.5,104.5 C 649.833,104.5 651.167,104.5 652.5,104.5C 652.34,106.199 652.506,107.866 653,109.5C 653.717,108.956 654.217,108.289 654.5,107.5C 656.835,104.835 659.835,103.502 663.5,103.5C 663.5,105.167 663.5,106.833 663.5,108.5C 659.65,108.178 656.483,109.511 654,112.5C 652.616,119.411 652.116,126.411 652.5,133.5C 651.167,133.5 649.833,133.5 648.5,133.5C 648.5,123.833 648.5,114.167 648.5,104.5 Z"/></g>
<g><path style="opacity:1" fill="#535353" d="M 648.5,104.5 C 649.919,103.549 651.585,103.216 653.5,103.5C 653.232,105.099 653.566,106.432 654.5,107.5C 654.217,108.289 653.717,108.956 653,109.5C 652.506,107.866 652.34,106.199 652.5,104.5C 651.167,104.5 649.833,104.5 648.5,104.5 Z"/></g>
<g><path style="opacity:1" fill="#232323" d="M 134.5,108.5 C 143.115,107.122 148.115,110.622 149.5,119C 148.379,127.948 143.379,131.282 134.5,129C 129.751,125.767 127.918,121.267 129,115.5C 129.967,112.379 131.8,110.046 134.5,108.5 Z"/></g>
<g><path style="opacity:1" fill="#232323" d="M 183.5,114.5 C 180.913,115.816 177.913,116.483 174.5,116.5C 171.087,116.483 168.087,115.816 165.5,114.5C 168.271,107.951 172.937,106.117 179.5,109C 181.464,110.451 182.797,112.284 183.5,114.5 Z"/></g>
<g><path style="opacity:1" fill="#232323" d="M 218.5,114.5 C 215.913,115.816 212.913,116.483 209.5,116.5C 206.087,116.483 203.087,115.816 200.5,114.5C 203.23,107.974 207.897,106.14 214.5,109C 216.439,110.432 217.772,112.265 218.5,114.5 Z"/></g>
<g><path style="opacity:1" fill="#232323" d="M 240.5,108.5 C 252.18,108.002 256.68,113.335 254,124.5C 248.292,130.715 242.292,131.048 236,125.5C 232.906,118.429 234.406,112.762 240.5,108.5 Z"/></g>
<g><path style="opacity:1" fill="#222222" d="M 303.5,108.5 C 315.011,107.176 319.845,112.176 318,123.5C 314.723,129.109 309.89,130.942 303.5,129C 296.855,122.095 296.855,115.262 303.5,108.5 Z"/></g>
<g><path style="opacity:1" fill="#282828" d="M 341.5,107.5 C 349.156,106.802 353.489,110.135 354.5,117.5C 348.167,117.5 341.833,117.5 335.5,117.5C 335.469,112.887 337.469,109.553 341.5,107.5 Z"/></g>
<g><path style="opacity:1" fill="#242424" d="M 375.5,108.5 C 386.512,107.013 391.345,111.68 390,122.5C 387.315,129.057 382.481,131.223 375.5,129C 367.547,122.169 367.547,115.335 375.5,108.5 Z"/></g>
<g><path style="opacity:1" fill="#232323" d="M 446.5,108.5 C 458.011,107.176 462.845,112.176 461,123.5C 458.081,129.025 453.581,130.858 447.5,129C 441.891,125.723 440.058,120.89 442,114.5C 443.332,112.34 444.832,110.34 446.5,108.5 Z"/></g>
<g><path style="opacity:1" fill="#494949" d="M 591.5,107.5 C 592.833,107.5 594.167,107.5 595.5,107.5C 595.5,116.167 595.5,124.833 595.5,133.5C 594.507,125.35 594.174,117.017 594.5,108.5C 593.209,108.737 592.209,108.404 591.5,107.5 Z"/></g>
<g><path style="opacity:1" fill="#232323" d="M 621.5,108.5 C 630.072,107.106 635.072,110.606 636.5,119C 635.425,128.046 630.425,131.379 621.5,129C 613.559,122.181 613.559,115.347 621.5,108.5 Z"/></g>
<g><path style="opacity:1" fill="#484848" d="M 165.5,114.5 C 168.087,115.816 171.087,116.483 174.5,116.5C 177.913,116.483 180.913,115.816 183.5,114.5C 184.404,115.209 184.737,116.209 184.5,117.5C 177.833,117.5 171.167,117.5 164.5,117.5C 164.263,116.209 164.596,115.209 165.5,114.5 Z"/></g>
<g><path style="opacity:1" fill="#484848" d="M 200.5,114.5 C 203.087,115.816 206.087,116.483 209.5,116.5C 212.913,116.483 215.913,115.816 218.5,114.5C 219.404,115.209 219.737,116.209 219.5,117.5C 212.833,117.5 206.167,117.5 199.5,117.5C 199.263,116.209 199.596,115.209 200.5,114.5 Z"/></g>
<g><path style="opacity:1" fill="#5a5a5a" d="M 412.5,129.5 C 414.167,129.5 415.833,129.5 417.5,129.5C 417.768,131.099 417.434,132.432 416.5,133.5C 416.5,132.5 416.5,131.5 416.5,130.5C 414.901,130.768 413.568,130.434 412.5,129.5 Z"/></g>
<g><path style="opacity:1" fill="#446a51" d="M 232.5,182.5 C 270.33,181.501 308.33,181.168 346.5,181.5C 346.5,219.5 346.5,257.5 346.5,295.5C 308.33,295.832 270.33,295.499 232.5,294.5C 233.167,294.5 233.833,294.5 234.5,294.5C 271.167,294.5 307.833,294.5 344.5,294.5C 345.498,257.337 345.832,220.004 345.5,182.5C 307.833,182.5 270.167,182.5 232.5,182.5 Z"/></g>
<g><path style="opacity:1" fill="#466f54" d="M 487.5,181.5 C 525.5,181.5 563.5,181.5 601.5,181.5C 601.5,219.5 601.5,257.5 601.5,295.5C 563.5,295.5 525.5,295.5 487.5,295.5C 487.5,257.5 487.5,219.5 487.5,181.5 Z"/></g>
<g><path style="opacity:1" fill="#40654d" d="M 473.5,182.5 C 435.833,182.5 398.167,182.5 360.5,182.5C 360.5,219.833 360.5,257.167 360.5,294.5C 360.167,294.5 359.833,294.5 359.5,294.5C 359.5,256.833 359.5,219.167 359.5,181.5C 397.67,181.168 435.67,181.501 473.5,182.5 Z"/></g>
<g><path style="opacity:1" fill="#456f54" d="M 218.5,182.5 C 180.833,182.5 143.167,182.5 105.5,182.5C 105.5,219.833 105.5,257.167 105.5,294.5C 105.167,294.5 104.833,294.5 104.5,294.5C 104.5,256.833 104.5,219.167 104.5,181.5C 142.67,181.168 180.67,181.501 218.5,182.5 Z"/></g>
<g><path style="opacity:1" fill="#528863" d="M 218.5,182.5 C 218.5,220.167 218.5,257.833 218.5,295.5C 180.663,295.832 142.996,295.498 105.5,294.5C 105.5,257.167 105.5,219.833 105.5,182.5C 143.167,182.5 180.833,182.5 218.5,182.5 Z"/></g>
<g><path style="opacity:1" fill="#5c9b70" d="M 106.5,183.5 C 143.5,183.5 180.5,183.5 217.5,183.5C 217.5,220.5 217.5,257.5 217.5,294.5C 180.5,294.5 143.5,294.5 106.5,294.5C 106.5,257.5 106.5,220.5 106.5,183.5 Z"/></g>
<g><path style="opacity:1" fill="#58936a" d="M 232.5,182.5 C 270.167,182.5 307.833,182.5 345.5,182.5C 345.832,220.004 345.498,257.337 344.5,294.5C 344.5,257.5 344.5,220.5 344.5,183.5C 307.833,183.5 271.167,183.5 234.5,183.5C 234.5,220.5 234.5,257.5 234.5,294.5C 233.833,294.5 233.167,294.5 232.5,294.5C 232.5,257.167 232.5,219.833 232.5,182.5 Z"/></g>
<g><path style="opacity:1" fill="#5c9b70" d="M 344.5,294.5 C 307.833,294.5 271.167,294.5 234.5,294.5C 234.5,257.5 234.5,220.5 234.5,183.5C 271.167,183.5 307.833,183.5 344.5,183.5C 344.5,220.5 344.5,257.5 344.5,294.5 Z"/></g>
<g><path style="opacity:1" fill="#5c9c70" d="M 473.5,182.5 C 473.5,219.833 473.5,257.167 473.5,294.5C 435.833,294.5 398.167,294.5 360.5,294.5C 360.5,257.167 360.5,219.833 360.5,182.5C 398.167,182.5 435.833,182.5 473.5,182.5 Z"/></g>
<g><path style="opacity:1" fill="#5c9c70" d="M 488.5,182.5 C 525.833,182.5 563.167,182.5 600.5,182.5C 600.5,219.833 600.5,257.167 600.5,294.5C 563.167,294.5 525.833,294.5 488.5,294.5C 488.5,257.167 488.5,219.833 488.5,182.5 Z"/></g>
<g><path style="opacity:1" fill="#5b9b6f" d="M 615.5,182.5 C 652.833,182.5 690.167,182.5 727.5,182.5C 727.5,219.833 727.5,257.167 727.5,294.5C 690.167,294.5 652.833,294.5 615.5,294.5C 615.5,257.167 615.5,219.833 615.5,182.5 Z"/></g>
<g><path style="opacity:1" fill="#477355" d="M 615.5,182.5 C 652.996,181.502 690.663,181.168 728.5,181.5C 728.5,219.5 728.5,257.5 728.5,295.5C 690.833,295.5 653.167,295.5 615.5,295.5C 615.5,295.167 615.5,294.833 615.5,294.5C 652.833,294.5 690.167,294.5 727.5,294.5C 727.5,257.167 727.5,219.833 727.5,182.5C 690.167,182.5 652.833,182.5 615.5,182.5 Z"/></g>
<g><path style="opacity:1" fill="#2f3e34" d="M 743.5,181.5 C 743.5,181.833 743.5,182.167 743.5,182.5C 742.502,219.663 742.168,256.996 742.5,294.5C 741.833,275.836 741.5,257.003 741.5,238C 741.5,218.821 742.167,199.988 743.5,181.5 Z"/></g>
<g><path style="opacity:1" fill="#5b9a6f" d="M 743.5,182.5 C 780.833,182.5 818.167,182.5 855.5,182.5C 855.5,219.833 855.5,257.167 855.5,294.5C 817.833,294.5 780.167,294.5 742.5,294.5C 742.168,256.996 742.502,219.663 743.5,182.5 Z"/></g>
<g><path style="opacity:1" fill="#446951" d="M 743.5,182.5 C 743.5,182.167 743.5,181.833 743.5,181.5C 781.167,181.5 818.833,181.5 856.5,181.5C 856.5,219.167 856.5,256.833 856.5,294.5C 856.167,294.5 855.833,294.5 855.5,294.5C 855.5,257.167 855.5,219.833 855.5,182.5C 818.167,182.5 780.833,182.5 743.5,182.5 Z"/></g>
<g><path style="opacity:1" fill="#487657" d="M 115.5,193.5 C 119.747,194.249 123.913,194.249 128,193.5C 130.951,195.076 134.117,195.743 137.5,195.5C 137.5,197.167 137.5,198.833 137.5,200.5C 132.833,200.5 128.167,200.5 123.5,200.5C 123.649,199.448 123.483,198.448 123,197.5C 120.544,199.321 117.711,199.988 114.5,199.5C 114.325,197.379 114.659,195.379 115.5,193.5 Z"/></g>
<g><path style="opacity:1" fill="#436c51" d="M 665.5,194.5 C 674.325,195.094 683.325,195.427 692.5,195.5C 692.5,196.833 692.5,198.167 692.5,199.5C 683.5,199.5 674.5,199.5 665.5,199.5C 665.5,197.833 665.5,196.167 665.5,194.5 Z"/></g>
<g><path style="opacity:1" fill="#3e624a" d="M 752.5,194.5 C 753.434,195.568 753.768,196.901 753.5,198.5C 754.5,198.5 755.5,198.5 756.5,198.5C 756.35,194.839 757.85,193.839 761,195.5C 761.49,196.793 761.657,198.127 761.5,199.5C 758.5,199.5 755.5,199.5 752.5,199.5C 752.5,197.833 752.5,196.167 752.5,194.5 Z"/></g>
<g><path style="opacity:1" fill="#487558" d="M 506.5,195.5 C 505.167,195.5 503.833,195.5 502.5,195.5C 502.119,197.942 502.786,198.609 504.5,197.5C 504.833,198.167 505.167,198.833 505.5,199.5C 507.059,198.926 508.559,198.26 510,197.5C 510.667,200.167 511.333,200.167 512,197.5C 512.71,198.973 513.876,199.64 515.5,199.5C 509.66,200.527 503.66,200.527 497.5,199.5C 497.5,197.833 497.5,196.167 497.5,194.5C 500.713,194.19 503.713,194.523 506.5,195.5 Z"/></g>
<g><path style="opacity:1" fill="#446e52" d="M 769.5,194.5 C 775.065,194.362 780.731,195.029 786.5,196.5C 786.167,197.167 785.833,197.833 785.5,198.5C 779.863,199.663 774.196,199.83 768.5,199C 768.167,198.667 767.833,198.333 767.5,198C 768.305,196.887 768.972,195.721 769.5,194.5 Z"/></g>
<g><path style="opacity:1" fill="#436d51" d="M 803.5,193.5 C 806.112,194.371 808.779,195.037 811.5,195.5C 811.5,196.833 811.5,198.167 811.5,199.5C 804.245,199.187 797.079,199.52 790,200.5C 789.506,198.866 789.34,197.199 789.5,195.5C 792.32,195.039 794.987,195.039 797.5,195.5C 799.717,195.122 801.717,194.455 803.5,193.5 Z"/></g>
<g><path style="opacity:1" fill="#457054" d="M 195.5,195.5 C 197.5,195.5 199.5,195.5 201.5,195.5C 201.351,196.552 201.517,197.552 202,198.5C 205.766,193.912 207.266,194.579 206.5,200.5C 202.821,200.276 199.154,199.942 195.5,199.5C 195.5,198.167 195.5,196.833 195.5,195.5 Z"/></g>
<g><path style="opacity:1" fill="#41694f" d="M 271.5,195.5 C 277.12,195.261 277.787,196.594 273.5,199.5C 271.833,199.5 270.167,199.5 268.5,199.5C 268.351,198.448 268.517,197.448 269,196.5C 270.159,197.566 270.992,197.233 271.5,195.5 Z"/></g>
<g><path style="opacity:1" fill="#457053" d="M 283.5,194.5 C 286.167,194.5 288.833,194.5 291.5,194.5C 291.5,196.167 291.5,197.833 291.5,199.5C 286.985,199.272 282.652,199.938 278.5,201.5C 278.5,199.5 278.5,197.5 278.5,195.5C 280.415,195.784 282.081,195.451 283.5,194.5 Z"/></g>
<g><path style="opacity:1" fill="#3b5c47" d="M 515.5,199.5 C 513.876,199.64 512.71,198.973 512,197.5C 511.333,200.167 510.667,200.167 510,197.5C 508.559,198.26 507.059,198.926 505.5,199.5C 505.167,198.833 504.833,198.167 504.5,197.5C 502.786,198.609 502.119,197.942 502.5,195.5C 503.833,195.5 505.167,195.5 506.5,195.5C 514.609,194.886 522.442,195.553 530,197.5C 530.483,196.552 530.649,195.552 530.5,194.5C 533.127,195.092 535.794,195.425 538.5,195.5C 538.435,197.696 537.768,199.696 536.5,201.5C 535.719,200.271 535.219,198.938 535,197.5C 534.161,198.624 532.994,199.291 531.5,199.5C 528.48,198.897 525.314,198.897 522,199.5C 519.698,199.4 517.698,198.733 516,197.5C 515.536,198.094 515.369,198.761 515.5,199.5 Z"/></g>
<g><path style="opacity:1" fill="#426c50" d="M 694.5,194.5 C 697.522,194.981 700.522,195.647 703.5,196.5C 702.754,197.736 702.421,199.07 702.5,200.5C 700.876,200.64 699.71,199.973 699,198.5C 697.644,199.38 696.144,199.714 694.5,199.5C 694.5,197.833 694.5,196.167 694.5,194.5 Z"/></g>
<g><path style="opacity:1" fill="#457053" d="M 826.5,195.5 C 831.544,195.173 836.544,195.506 841.5,196.5C 842.879,197.863 842.713,198.863 841,199.5C 839.57,197.33 838.07,197.164 836.5,199C 833.5,199.667 830.5,199.667 827.5,199C 826.663,197.989 826.33,196.822 826.5,195.5 Z"/></g>
<g><path style="opacity:1" fill="#436d51" d="M 176.5,193.5 C 177.708,194.234 179.041,194.567 180.5,194.5C 180.785,196.288 180.452,197.955 179.5,199.5C 176.081,199.671 172.581,199.337 169,198.5C 165.789,200.789 162.789,200.456 160,197.5C 156.851,199.362 153.351,200.029 149.5,199.5C 149.275,195.944 150.108,195.61 152,198.5C 152.349,197.527 153.182,196.694 154.5,196C 160.833,195.667 167.167,195.333 173.5,195C 174.737,194.768 175.737,194.268 176.5,193.5 Z"/></g>
<g><path style="opacity:1" fill="#477556" d="M 181.5,195.5 C 184.833,195.5 188.167,195.5 191.5,195.5C 191.48,197.143 192.147,198.476 193.5,199.5C 192.667,199.833 191.833,200.167 191,200.5C 187.875,199.744 184.709,199.411 181.5,199.5C 181.5,198.167 181.5,196.833 181.5,195.5 Z"/></g>
<g><path style="opacity:1" fill="#528964" d="M 246.5,196.5 C 246.5,197.5 246.5,198.5 246.5,199.5C 249.346,198.905 252.346,198.905 255.5,199.5C 255.5,198.167 255.5,196.833 255.5,195.5C 256.5,195.5 257.5,195.5 258.5,195.5C 258.5,196.833 258.5,198.167 258.5,199.5C 261.247,199.813 263.914,199.48 266.5,198.5C 267.246,197.264 267.579,195.93 267.5,194.5C 268.708,195.234 270.041,195.567 271.5,195.5C 270.992,197.233 270.159,197.566 269,196.5C 268.517,197.448 268.351,198.448 268.5,199.5C 270.167,199.5 271.833,199.5 273.5,199.5C 263.347,200.494 253.014,200.828 242.5,200.5C 242.201,198.396 242.534,196.396 243.5,194.5C 244.281,195.729 244.781,197.062 245,198.5C 245.278,197.584 245.778,196.918 246.5,196.5 Z"/></g>
<g><path style="opacity:1" fill="#457154" d="M 267.5,194.5 C 267.579,195.93 267.246,197.264 266.5,198.5C 263.914,199.48 261.247,199.813 258.5,199.5C 258.5,198.167 258.5,196.833 258.5,195.5C 260.379,194.659 262.379,194.325 264.5,194.5C 264.343,195.873 264.51,197.207 265,198.5C 265.122,196.563 265.955,195.23 267.5,194.5 Z"/></g>
<g><path style="opacity:1" fill="#457053" d="M 292.5,193.5 C 295.346,193.809 296.846,195.475 297,198.5C 297.483,197.552 297.649,196.552 297.5,195.5C 302.214,195.173 306.88,195.507 311.5,196.5C 312.491,197.665 313.491,198.832 314.5,200C 314.333,200.5 314.167,201 314,201.5C 307.115,199.559 299.948,198.892 292.5,199.5C 292.5,197.5 292.5,195.5 292.5,193.5 Z"/></g>
<g><path style="opacity:1" fill="#436d51" d="M 316.5,195.5 C 320.167,195.5 323.833,195.5 327.5,195.5C 327.5,196.833 327.5,198.167 327.5,199.5C 323.833,199.5 320.167,199.5 316.5,199.5C 316.5,198.167 316.5,196.833 316.5,195.5 Z"/></g>
<g><path style="opacity:1" fill="#446e52" d="M 328.5,195.5 C 329.833,195.5 331.167,195.5 332.5,195.5C 332.5,196.833 332.5,198.167 332.5,199.5C 331.167,199.5 329.833,199.5 328.5,199.5C 328.5,198.167 328.5,196.833 328.5,195.5 Z"/></g>
<g><path style="opacity:1" fill="#3b5c47" d="M 369.5,194.5 C 370.434,195.568 370.768,196.901 370.5,198.5C 371.5,198.5 372.5,198.5 373.5,198.5C 373.5,197.5 373.5,196.5 373.5,195.5C 379.149,194.426 384.816,194.426 390.5,195.5C 390.5,196.833 390.5,198.167 390.5,199.5C 383.5,199.5 376.5,199.5 369.5,199.5C 369.5,197.833 369.5,196.167 369.5,194.5 Z"/></g>
<g><path style="opacity:1" fill="#3b5d47" d="M 569.5,193.5 C 573.235,195.006 577.235,196.006 581.5,196.5C 580.098,197.842 580.431,198.676 582.5,199C 580.521,199.684 578.854,199.184 577.5,197.5C 573.5,200.167 569.5,200.167 565.5,197.5C 564.304,197.846 564.304,198.346 565.5,199C 562.303,199.987 559.47,199.487 557,197.5C 555.475,198.72 553.641,199.387 551.5,199.5C 549.285,199.33 547.285,198.663 545.5,197.5C 544.476,198.853 543.143,199.52 541.5,199.5C 541.34,197.801 541.506,196.134 542,194.5C 547.371,194.641 552.871,194.974 558.5,195.5C 562.469,195.706 566.135,195.039 569.5,193.5 Z"/></g>
<g><path style="opacity:1" fill="#40674d" d="M 658.5,195.5 C 659.833,195.5 661.167,195.5 662.5,195.5C 662.5,196.833 662.5,198.167 662.5,199.5C 661.167,199.5 659.833,199.5 658.5,199.5C 658.5,198.167 658.5,196.833 658.5,195.5 Z"/></g>
<g><path style="opacity:1" fill="#3f654c" d="M 140.5,194.5 C 141.29,195.609 141.79,196.942 142,198.5C 143,195.833 144,195.833 145,198.5C 146.087,196.068 146.587,196.402 146.5,199.5C 144.5,199.5 142.5,199.5 140.5,199.5C 140.5,197.833 140.5,196.167 140.5,194.5 Z"/></g>
<g><path style="opacity:1" fill="#40674d" d="M 255.5,195.5 C 255.5,196.833 255.5,198.167 255.5,199.5C 252.346,198.905 249.346,198.905 246.5,199.5C 246.5,198.5 246.5,197.5 246.5,196.5C 246.47,195.503 246.97,194.836 248,194.5C 250.434,195.322 252.934,195.656 255.5,195.5 Z"/></g>
<g><path style="opacity:1" fill="#3c5e49" d="M 407.5,193.5 C 411.384,194.793 415.384,195.459 419.5,195.5C 419.5,197.5 419.5,199.5 419.5,201.5C 418.167,201.5 416.833,201.5 415.5,201.5C 415.649,200.448 415.483,199.448 415,198.5C 407.594,199.503 400.427,199.503 393.5,198.5C 393.67,197.178 393.337,196.011 392.5,195C 395.979,195.115 399.313,195.282 402.5,195.5C 404.422,195.199 406.088,194.533 407.5,193.5 Z"/></g>
<g><path style="opacity:1" fill="#40664d" d="M 629.5,195.5 C 631.167,195.5 632.833,195.5 634.5,195.5C 634.5,196.833 634.5,198.167 634.5,199.5C 631.473,198.621 628.473,198.287 625.5,198.5C 626.624,197.141 627.958,196.141 629.5,195.5 Z"/></g>
<g><path style="opacity:1" fill="#436e52" d="M 646.5,193.5 C 649.168,194.099 651.002,195.766 652,198.5C 652.483,197.552 652.649,196.552 652.5,195.5C 653.833,195.5 655.167,195.5 656.5,195.5C 656.5,196.833 656.5,198.167 656.5,199.5C 652.543,199.992 648.877,199.325 645.5,197.5C 643.132,199.223 640.466,199.89 637.5,199.5C 637.5,198.167 637.5,196.833 637.5,195.5C 640.689,195.142 643.689,194.475 646.5,193.5 Z"/></g>
<g><path style="opacity:1" fill="#477456" d="M 812.5,195.5 C 816.167,195.5 819.833,195.5 823.5,195.5C 823.421,196.93 823.754,198.264 824.5,199.5C 821.884,200.561 819.384,200.228 817,198.5C 816.667,198.833 816.333,199.167 816,199.5C 815,196.833 814,196.833 813,199.5C 812.51,198.207 812.343,196.873 812.5,195.5 Z"/></g>
<g><path style="opacity:1" fill="#4d805e" d="M 816.5,211.5 C 816.5,210.167 816.5,208.833 816.5,207.5C 813.116,207.66 809.783,207.327 806.5,206.5C 803.971,206.929 801.638,207.596 799.5,208.5C 799.167,208.5 798.833,208.5 798.5,208.5C 794.652,205.133 792.986,206.133 793.5,211.5C 789.862,212.263 788.362,210.93 789,207.5C 791.041,206.248 793.375,205.581 796,205.5C 803.399,205.633 810.899,205.633 818.5,205.5C 821.741,205.448 824.741,206.115 827.5,207.5C 827.709,209.714 826.876,211.381 825,212.5C 822.23,211.652 819.397,211.319 816.5,211.5 Z"/></g>
<g><path style="opacity:1" fill="#467355" d="M 252.5,204.5 C 259.129,204.736 265.629,205.736 272,207.5C 275.306,206.313 276.806,207.646 276.5,211.5C 264.833,211.5 253.167,211.5 241.5,211.5C 241,205.67 243.5,204.003 249,206.5C 250.459,206.192 251.626,205.525 252.5,204.5 Z"/></g>
<g><path style="opacity:1" fill="#436c51" d="M 816.5,211.5 C 810.833,211.5 805.167,211.5 799.5,211.5C 799.5,210.5 799.5,209.5 799.5,208.5C 801.638,207.596 803.971,206.929 806.5,206.5C 809.783,207.327 813.116,207.66 816.5,207.5C 816.5,208.833 816.5,210.167 816.5,211.5 Z"/></g>
<g><path style="opacity:1" fill="#40674d" d="M 150.5,205.5 C 153.959,206.308 157.459,206.975 161,207.5C 162.894,207.42 164.727,207.087 166.5,206.5C 168.217,207.668 168.884,209.335 168.5,211.5C 166.549,211.773 165.049,211.107 164,209.5C 163.667,210.167 163.333,210.833 163,211.5C 162,210.167 161,210.167 160,211.5C 159.549,209.071 158.715,208.904 157.5,211C 153.848,211.499 150.182,211.665 146.5,211.5C 146.5,210.167 146.5,208.833 146.5,207.5C 148.483,207.843 149.817,207.176 150.5,205.5 Z"/></g>
<g><path style="opacity:1" fill="#436d52" d="M 309.5,205.5 C 312.33,205.694 314.996,206.361 317.5,207.5C 317.773,209.958 316.773,211.625 314.5,212.5C 308.561,211.543 302.561,211.21 296.5,211.5C 296.167,207.5 295.833,207.5 295.5,211.5C 289.833,210.167 284.167,210.167 278.5,211.5C 278.116,209.335 278.783,207.668 280.5,206.5C 285.839,206.898 291.339,206.898 297,206.5C 299.305,206.484 300.972,207.484 302,209.5C 302.483,208.552 302.649,207.552 302.5,206.5C 305.059,206.802 307.393,206.468 309.5,205.5 Z"/></g>
<g><path style="opacity:1" fill="#436c51" d="M 124.5,205.5 C 127.079,205.083 129.246,205.75 131,207.5C 134.778,206.618 138.445,206.285 142,206.5C 144.277,207.704 144.777,209.37 143.5,211.5C 141.674,211.08 139.674,211.08 137.5,211.5C 137.167,207.5 136.833,207.5 136.5,211.5C 129.442,211.203 122.442,211.536 115.5,212.5C 114.534,210.604 114.201,208.604 114.5,206.5C 117.681,206.976 120.847,207.309 124,207.5C 124.464,206.906 124.631,206.239 124.5,205.5 Z"/></g>
<g><path style="opacity:1" fill="#436e51" d="M 191.5,206.5 C 193.862,207.357 196.196,207.691 198.5,207.5C 199.583,208.365 199.749,209.365 199,210.5C 196.936,211.591 194.769,211.758 192.5,211C 191.62,209.644 191.286,208.144 191.5,206.5 Z"/></g>
<g><path style="opacity:1" fill="#436d51" d="M 659.5,206.5 C 666.568,207.697 673.734,207.697 681,206.5C 682.653,206.82 683.653,207.82 684,209.5C 685.204,208.529 685.704,207.529 685.5,206.5C 686.308,206.808 686.975,207.308 687.5,208C 686.663,209.011 686.33,210.178 686.5,211.5C 681.464,211.938 676.631,211.272 672,209.5C 667.822,211.399 663.322,212.065 658.5,211.5C 658.366,209.708 658.699,208.042 659.5,206.5 Z"/></g>
<g><path style="opacity:1" fill="#41694f" d="M 689.5,206.5 C 694.725,207.275 700.058,207.275 705.5,206.5C 705.762,207.978 705.429,209.311 704.5,210.5C 702.995,207.869 702.329,208.203 702.5,211.5C 697.676,211.095 693.01,211.095 688.5,211.5C 688.366,209.708 688.699,208.042 689.5,206.5 Z"/></g>
<g><path style="opacity:1" fill="#3d6049" d="M 798.5,208.5 C 798.5,209.5 798.5,210.5 798.5,211.5C 796.833,211.5 795.167,211.5 793.5,211.5C 792.986,206.133 794.652,205.133 798.5,208.5 Z"/></g>
<g><path style="opacity:1" fill="#436c51" d="M 176.5,206.5 C 177.222,206.918 177.722,207.584 178,208.5C 178.689,207.643 179.522,206.977 180.5,206.5C 182.256,207.407 184.089,207.407 186,206.5C 188.633,207.089 189.8,208.756 189.5,211.5C 188.5,211.5 187.5,211.5 186.5,211.5C 186.167,207.5 185.833,207.5 185.5,211.5C 180.5,211.5 175.5,211.5 170.5,211.5C 170.238,210.022 170.571,208.689 171.5,207.5C 172.192,208.025 172.692,208.692 173,209.5C 173.985,208.186 175.152,207.186 176.5,206.5 Z"/></g>
<g><path style="opacity:1" fill="#3d6049" d="M 405.5,205.5 C 409.534,205.672 413.534,206.172 417.5,207C 418.747,208.494 418.747,209.994 417.5,211.5C 416.914,211.291 416.414,210.957 416,210.5C 415.481,211.516 414.647,212.182 413.5,212.5C 403.379,211.414 393.379,210.914 383.5,211C 382.354,210.355 381.354,209.522 380.5,208.5C 379.614,209.325 379.281,210.325 379.5,211.5C 376.404,212.093 374.071,211.093 372.5,208.5C 369.605,211.101 368.939,210.434 370.5,206.5C 379.838,206.386 389.004,206.719 398,207.5C 400.929,207.475 403.429,206.809 405.5,205.5 Z"/></g>
<g><path style="opacity:1" fill="#467355" d="M 638.5,205.5 C 640.03,206.067 641.53,206.733 643,207.5C 647.755,206.726 652.589,206.393 657.5,206.5C 657.5,208.5 657.5,210.5 657.5,212.5C 655.549,212.773 654.049,212.107 653,210.5C 646.531,211.185 640.031,211.851 633.5,212.5C 630.891,211.77 628.224,211.27 625.5,211C 624.167,209.667 624.167,208.333 625.5,207C 630.019,206.825 634.353,206.325 638.5,205.5 Z"/></g>
<g><path style="opacity:1" fill="#446e52" d="M 763.5,204.5 C 767.694,204.54 771.527,205.54 775,207.5C 778.378,207.132 781.878,207.132 785.5,207.5C 785.5,208.833 785.5,210.167 785.5,211.5C 774.648,211.197 763.648,211.197 752.5,211.5C 752.201,209.396 752.534,207.396 753.5,205.5C 757.407,208.496 760.741,208.163 763.5,204.5 Z"/></g>
<g><path style="opacity:1" fill="#436d52" d="M 291.5,217.5 C 295.97,218.486 300.637,218.819 305.5,218.5C 305.5,219.5 305.5,220.5 305.5,221.5C 297.937,222.764 290.603,222.764 283.5,221.5C 284.234,220.292 284.567,218.959 284.5,217.5C 287.005,216.583 289.338,216.583 291.5,217.5 Z"/></g>
<g><path style="opacity:1" fill="#457154" d="M 133.5,216.5 C 141.269,217.718 148.935,218.051 156.5,217.5C 156.5,219.167 156.5,220.833 156.5,222.5C 154.408,222.439 152.908,221.439 152,219.5C 151.517,220.448 151.351,221.448 151.5,222.5C 145.654,222.141 139.654,222.141 133.5,222.5C 133.5,220.5 133.5,218.5 133.5,216.5 Z"/></g>
<g><path style="opacity:1" fill="#467255" d="M 159.5,216.5 C 161.482,216.995 163.482,217.495 165.5,218C 166.925,219.714 166.592,221.047 164.5,222C 162.866,222.494 161.199,222.66 159.5,222.5C 159.5,220.5 159.5,218.5 159.5,216.5 Z"/></g>
<g><path style="opacity:1" fill="#436c51" d="M 629.5,217.5 C 630.833,217.5 632.167,217.5 633.5,217.5C 633.773,219.958 632.773,221.625 630.5,222.5C 629.548,220.955 629.215,219.288 629.5,217.5 Z"/></g>
<g><path style="opacity:1" fill="#457054" d="M 702.5,216.5 C 706.099,217.344 709.766,217.677 713.5,217.5C 713.662,219.527 713.495,221.527 713,223.5C 709.554,224.761 707.554,223.428 707,219.5C 705.688,221.658 704.022,221.991 702,220.5C 701.161,221.624 699.994,222.291 698.5,222.5C 696.51,221.837 694.677,221.837 693,222.5C 691.527,222.097 690.194,221.43 689,220.5C 687.413,221.727 686.079,221.394 685,219.5C 685.077,220.738 684.911,221.738 684.5,222.5C 683.548,220.955 683.215,219.288 683.5,217.5C 688.43,217.197 693.263,217.531 698,218.5C 699.622,217.901 701.122,217.234 702.5,216.5 Z"/></g>
<g><path style="opacity:1" fill="#487657" d="M 825.5,217.5 C 831.833,217.5 838.167,217.5 844.5,217.5C 844.57,222.89 843.07,223.556 840,219.5C 839.517,220.448 839.351,221.448 839.5,222.5C 834.908,221.759 830.242,221.759 825.5,222.5C 825.5,220.833 825.5,219.167 825.5,217.5 Z"/></g>
<g><path style="opacity:1" fill="#446f53" d="M 123.5,216.5 C 126.079,217.228 128.746,217.728 131.5,218C 133,220.167 132.5,221.667 130,222.5C 127.991,222.005 125.824,222.005 123.5,222.5C 123.587,219.402 123.087,219.068 122,221.5C 119.646,221.108 117.146,221.108 114.5,221.5C 114.5,220.167 114.5,218.833 114.5,217.5C 117.713,217.81 120.713,217.477 123.5,216.5 Z"/></g>
<g><path style="opacity:1" fill="#457154" d="M 255.5,218.5 C 256.404,219.209 256.737,220.209 256.5,221.5C 251.719,222.09 246.719,222.09 241.5,221.5C 241.215,219.712 241.548,218.045 242.5,216.5C 246.863,217.168 251.197,217.834 255.5,218.5 Z"/></g>
<g><path style="opacity:1" fill="#457154" d="M 279.5,223.5 C 278.91,222.234 278.41,220.901 278,219.5C 275.005,222.265 271.505,223.098 267.5,222C 266.62,220.644 266.286,219.144 266.5,217.5C 266.917,216.876 267.584,216.543 268.5,216.5C 272.138,217.182 275.805,217.682 279.5,218C 280.26,219.441 280.926,220.941 281.5,222.5C 281.043,223.298 280.376,223.631 279.5,223.5 Z"/></g>
<g><path style="opacity:1" fill="#446f52" d="M 672.5,216.5 C 675.167,216.833 677.833,217.167 680.5,217.5C 680.99,219.948 680.157,221.615 678,222.5C 673.921,222.202 669.754,222.202 665.5,222.5C 662.511,222.199 661.178,220.532 661.5,217.5C 665.371,217.815 669.038,217.482 672.5,216.5 Z"/></g>
<g><path style="opacity:1" fill="#457153" d="M 776.5,217.5 C 780.989,217.956 785.322,217.956 789.5,217.5C 789.793,219.689 790.293,221.689 791,223.5C 789,222.833 787,222.167 785,221.5C 782.5,221.667 780,221.833 777.5,222C 776.62,220.644 776.286,219.144 776.5,217.5 Z"/></g>
<g><path style="opacity:1" fill="#446e52" d="M 798.5,216.5 C 801.784,216.723 804.951,217.39 808,218.5C 809.785,217.76 811.618,217.093 813.5,216.5C 816.421,217.407 819.421,217.74 822.5,217.5C 822.852,220.073 822.352,222.406 821,224.5C 819.129,220.618 816.629,219.951 813.5,222.5C 807.226,222.004 800.893,222.004 794.5,222.5C 794.5,220.833 794.5,219.167 794.5,217.5C 795.822,217.33 796.989,217.663 798,218.5C 798.464,217.906 798.631,217.239 798.5,216.5 Z"/></g>
<g><path style="opacity:1" fill="#446f52" d="M 649.5,216.5 C 653.685,216.945 657.352,218.445 660.5,221C 655.623,221.772 650.623,222.939 645.5,224.5C 645.649,223.448 645.483,222.448 645,221.5C 641.545,222.791 638.045,222.791 634.5,221.5C 634.865,220.098 635.699,219.098 637,218.5C 641.316,217.92 645.483,217.253 649.5,216.5 Z"/></g>
<g><path style="opacity:1" fill="#446e52" d="M 752.5,216.5 C 759.787,217.24 767.12,217.906 774.5,218.5C 774.33,219.822 774.663,220.989 775.5,222C 772.331,222.978 769.497,222.478 767,220.5C 766.25,221.126 765.416,221.626 764.5,222C 760.514,222.499 756.514,222.666 752.5,222.5C 752.5,220.5 752.5,218.5 752.5,216.5 Z"/></g>
<g><path style="opacity:1" fill="#528964" d="M 255.5,218.5 C 258.962,217.518 262.629,217.185 266.5,217.5C 266.286,219.144 266.62,220.644 267.5,222C 271.505,223.098 275.005,222.265 278,219.5C 278.41,220.901 278.91,222.234 279.5,223.5C 272.313,223.825 265.313,223.491 258.5,222.5C 257.833,222.167 257.167,221.833 256.5,221.5C 256.737,220.209 256.404,219.209 255.5,218.5 Z"/></g>
<g><path style="opacity:1" fill="#40684e" d="M 258.5,222.5 C 258.759,218.932 260.759,217.599 264.5,218.5C 264.33,219.822 264.663,220.989 265.5,222C 263.224,221.426 260.891,221.592 258.5,222.5 Z"/></g>
<g><path style="opacity:1" fill="#4e815e" d="M 283.5,221.5 C 290.603,222.764 297.937,222.764 305.5,221.5C 305.5,220.5 305.5,219.5 305.5,218.5C 300.637,218.819 295.97,218.486 291.5,217.5C 305.437,217.197 319.437,217.197 333.5,217.5C 333.833,219.5 334.167,221.5 334.5,223.5C 326.464,223.229 318.464,223.562 310.5,224.5C 301.134,224.226 292.134,223.226 283.5,221.5 Z"/></g>
<g><path style="opacity:1" fill="#416a4f" d="M 286.5,228.5 C 288.989,228.298 291.323,228.798 293.5,230C 292.027,230.71 291.36,231.876 291.5,233.5C 287.774,233.823 284.107,233.489 280.5,232.5C 280.167,231.833 279.833,231.167 279.5,230.5C 281.969,229.832 284.302,229.165 286.5,228.5 Z"/></g>
<g><path style="opacity:1" fill="#3e644b" d="M 761.5,229.5 C 769.833,229.5 778.167,229.5 786.5,229.5C 786.5,230.5 786.5,231.5 786.5,232.5C 784.362,232.703 782.695,233.703 781.5,235.5C 781.346,234.091 781.179,232.424 781,230.5C 780.517,231.448 780.351,232.448 780.5,233.5C 777.518,233.104 774.851,233.771 772.5,235.5C 772.346,234.091 772.179,232.424 772,230.5C 771.517,231.448 771.351,232.448 771.5,233.5C 768.167,233.5 764.833,233.5 761.5,233.5C 761.5,232.167 761.5,230.833 761.5,229.5 Z"/></g>
<g><path style="opacity:1" fill="#42694f" d="M 795.5,228.5 C 798.249,228.274 800.916,228.607 803.5,229.5C 804.614,230.723 804.781,232.056 804,233.5C 803.193,229.551 802.693,229.551 802.5,233.5C 801.167,233.5 799.833,233.5 798.5,233.5C 798.167,229.5 797.833,229.5 797.5,233.5C 795.549,233.773 794.049,233.107 793,231.5C 791.989,232.337 790.822,232.67 789.5,232.5C 789.5,231.5 789.5,230.5 789.5,229.5C 791.735,229.795 793.735,229.461 795.5,228.5 Z"/></g>
<g><path style="opacity:1" fill="#3e634b" d="M 305.5,228.5 C 306.782,229.708 306.782,231.042 305.5,232.5C 303.591,233.348 301.591,233.682 299.5,233.5C 298.947,229.544 298.114,229.544 297,233.5C 296.51,232.207 296.343,230.873 296.5,229.5C 298.144,229.286 299.644,229.62 301,230.5C 302.622,229.901 304.122,229.234 305.5,228.5 Z"/></g>
<g><path style="opacity:1" fill="#41694f" d="M 114.5,229.5 C 128.412,229.773 142.412,229.773 156.5,229.5C 156.5,230.833 156.5,232.167 156.5,233.5C 151.644,232.881 146.644,232.881 141.5,233.5C 141.167,229.5 140.833,229.5 140.5,233.5C 139.5,233.5 138.5,233.5 137.5,233.5C 137.307,229.551 136.807,229.551 136,233.5C 135.751,232.376 135.251,231.376 134.5,230.5C 128.257,232.6 121.59,234.267 114.5,235.5C 114.5,233.5 114.5,231.5 114.5,229.5 Z"/></g>
<g><path style="opacity:1" fill="#467255" d="M 164.5,227.5 C 167.361,227.342 170.028,228.008 172.5,229.5C 177.218,229.346 181.885,229.346 186.5,229.5C 186.343,230.873 186.51,232.207 187,233.5C 187.654,232.304 188.154,232.304 188.5,233.5C 187.667,233.833 186.833,234.167 186,234.5C 176.941,234.154 167.775,233.821 158.5,233.5C 158.351,232.448 158.517,231.448 159,230.5C 161.209,230.011 163.042,229.011 164.5,227.5 Z"/></g>
<g><path style="opacity:1" fill="#41694e" d="M 251.5,229.5 C 260.019,229.87 268.685,229.87 277.5,229.5C 277.67,230.822 277.337,231.989 276.5,233C 274.464,233.454 272.63,234.287 271,235.5C 267.989,232.971 264.989,232.971 262,235.5C 260.018,234.279 258.518,232.612 257.5,230.5C 256.749,231.376 256.249,232.376 256,233.5C 255.15,232.576 254.15,232.576 253,233.5C 250.5,232.842 250,231.509 251.5,229.5 Z"/></g>
<g><path style="opacity:1" fill="#487657" d="M 625.5,228.5 C 630.119,229.314 634.786,229.647 639.5,229.5C 639.5,230.833 639.5,232.167 639.5,233.5C 634.669,234.598 630.003,234.765 625.5,234C 624.464,232.224 624.464,230.391 625.5,228.5 Z"/></g>
<g><path style="opacity:1" fill="#3f654c" d="M 752.5,228.5 C 754.379,229.341 756.379,229.675 758.5,229.5C 758.543,233.893 758.043,234.226 757,230.5C 755.951,232.107 754.451,232.773 752.5,232.5C 752.5,231.167 752.5,229.833 752.5,228.5 Z"/></g>
<g><path style="opacity:1" fill="#426b50" d="M 825.5,230.5 C 823.562,231.932 821.729,233.599 820,235.5C 816.044,233.721 811.877,233.054 807.5,233.5C 807.5,232.167 807.5,230.833 807.5,229.5C 810.667,229.6 813.667,228.933 816.5,227.5C 817.971,229.813 819.804,230.147 822,228.5C 823.459,228.808 824.626,229.475 825.5,230.5 Z"/></g>
<g><path style="opacity:1" fill="#487657" d="M 241.5,228.5 C 243.857,228.337 246.19,228.503 248.5,229C 249.479,233.517 247.479,235.35 242.5,234.5C 242.483,232.435 242.15,230.435 241.5,228.5 Z"/></g>
<g><path style="opacity:1" fill="#426a4f" d="M 642.5,227.5 C 647.76,228.688 652.927,230.022 658,231.5C 660.041,230.248 662.375,229.581 665,229.5C 667.167,229.667 669.333,229.833 671.5,230C 670.359,230.741 670.359,231.575 671.5,232.5C 666.747,233.135 661.747,233.468 656.5,233.5C 656.167,229.5 655.833,229.5 655.5,233.5C 651.327,234.044 647.494,233.377 644,231.5C 643.667,232.167 643.333,232.833 643,233.5C 642.505,231.527 642.338,229.527 642.5,227.5 Z"/></g>
<g><path style="opacity:1" fill="#436d51" d="M 673.5,229.5 C 681.5,229.5 689.5,229.5 697.5,229.5C 697.328,233.971 696.494,234.304 695,230.5C 694.517,231.448 694.351,232.448 694.5,233.5C 691.5,233.5 688.5,233.5 685.5,233.5C 685.167,229.5 684.833,229.5 684.5,233.5C 680.982,232.895 677.315,232.895 673.5,233.5C 673.5,232.167 673.5,230.833 673.5,229.5 Z"/></g>
<g><path style="opacity:1" fill="#416a4f" d="M 825.5,230.5 C 826.887,228.578 828.721,228.578 831,230.5C 834.394,229.544 837.894,229.211 841.5,229.5C 841.649,230.552 841.483,231.552 841,232.5C 839.89,230.963 838.39,230.297 836.5,230.5C 836.5,231.5 836.5,232.5 836.5,233.5C 832.833,233.5 829.167,233.5 825.5,233.5C 825.5,232.5 825.5,231.5 825.5,230.5 Z"/></g>
<g><path style="opacity:1" fill="#436d51" d="M 311.5,228.5 C 316.012,228.3 320.512,228.967 325,230.5C 328.175,228.838 330.675,229.505 332.5,232.5C 331.311,233.429 329.978,233.762 328.5,233.5C 328.167,229.5 327.833,229.5 327.5,233.5C 324.272,233.299 321.105,233.633 318,234.5C 315.739,234.113 314.406,232.779 314,230.5C 313.585,232.291 312.585,233.624 311,234.5C 310.801,232.598 309.967,231.098 308.5,230C 309.737,229.768 310.737,229.268 311.5,228.5 Z"/></g>
<g><path style="opacity:1" fill="#416a4f" d="M 664.5,240.5 C 666.833,240.5 669.167,240.5 671.5,240.5C 671.5,241.833 671.5,243.167 671.5,244.5C 669.167,244.5 666.833,244.5 664.5,244.5C 664.5,243.167 664.5,241.833 664.5,240.5 Z"/></g>
<g><path style="opacity:1" fill="#40674e" d="M 676.5,239.5 C 677.833,239.5 679.167,239.5 680.5,239.5C 680.5,241.167 680.5,242.833 680.5,244.5C 673.499,245.807 672.166,244.141 676.5,239.5 Z"/></g>
<g><path style="opacity:1" fill="#40674d" d="M 797.5,240.5 C 800.247,240.187 802.914,240.52 805.5,241.5C 804.359,242.425 804.359,243.259 805.5,244C 802.854,244.497 800.187,244.664 797.5,244.5C 797.5,243.167 797.5,241.833 797.5,240.5 Z"/></g>
<g><path style="opacity:1" fill="#3e634b" d="M 114.5,239.5 C 124.3,241.111 134.3,241.444 144.5,240.5C 144.65,246.316 142.65,246.982 138.5,242.5C 130.704,244.424 122.704,245.091 114.5,244.5C 114.5,242.833 114.5,241.167 114.5,239.5 Z"/></g>
<g><path style="opacity:1" fill="#3e644a" d="M 146.5,240.5 C 149.5,240.5 152.5,240.5 155.5,240.5C 155.657,241.873 155.49,243.207 155,244.5C 154.667,243.833 154.333,243.167 154,242.5C 151.894,244.291 149.394,244.958 146.5,244.5C 146.5,243.167 146.5,241.833 146.5,240.5 Z"/></g>
<g><path style="opacity:1" fill="#3f664c" d="M 252.5,239.5 C 253.5,239.5 254.5,239.5 255.5,239.5C 255.5,241.167 255.5,242.833 255.5,244.5C 251.167,244.5 246.833,244.5 242.5,244.5C 242.5,243.167 242.5,241.833 242.5,240.5C 246.042,240.813 249.375,240.479 252.5,239.5 Z"/></g>
<g><path style="opacity:1" fill="#395b44" d="M 260.5,239.5 C 263.084,240.048 264.084,241.715 263.5,244.5C 261.801,244.66 260.134,244.494 258.5,244C 260.991,243.374 260.991,242.541 258.5,241.5C 259.243,240.818 259.909,240.151 260.5,239.5 Z"/></g>
<g><path style="opacity:1" fill="#40674d" d="M 264.5,240.5 C 267.5,240.5 270.5,240.5 273.5,240.5C 273.833,244.5 274.167,244.5 274.5,240.5C 277.5,240.5 280.5,240.5 283.5,240.5C 283.5,241.833 283.5,243.167 283.5,244.5C 277.167,244.5 270.833,244.5 264.5,244.5C 264.5,243.167 264.5,241.833 264.5,240.5 Z"/></g>
<g><path style="opacity:1" fill="#40664d" d="M 763.5,239.5 C 765.256,240.552 765.923,242.219 765.5,244.5C 761.167,244.5 756.833,244.5 752.5,244.5C 752.5,243.167 752.5,241.833 752.5,240.5C 755.448,240.223 758.281,240.556 761,241.5C 761.995,240.934 762.828,240.267 763.5,239.5 Z"/></g>
<g><path style="opacity:1" fill="#3e634a" d="M 770.5,239.5 C 778.541,241.063 786.541,241.396 794.5,240.5C 794.5,241.833 794.5,243.167 794.5,244.5C 785.5,244.5 776.5,244.5 767.5,244.5C 767.5,243.167 767.5,241.833 767.5,240.5C 768.791,240.737 769.791,240.404 770.5,239.5 Z"/></g>
<g><path style="opacity:1" fill="#40674d" d="M 286.5,239.5 C 291.07,240.441 295.737,240.774 300.5,240.5C 300.5,241.833 300.5,243.167 300.5,244.5C 295.833,244.5 291.167,244.5 286.5,244.5C 286.5,242.833 286.5,241.167 286.5,239.5 Z"/></g>
<g><path style="opacity:1" fill="#3d604a" d="M 683.5,240.5 C 684.268,241.263 684.768,242.263 685,243.5C 685.483,242.552 685.649,241.552 685.5,240.5C 691.167,240.5 696.833,240.5 702.5,240.5C 704.184,246.174 702.684,246.841 698,242.5C 693.482,244.407 688.648,245.074 683.5,244.5C 683.5,243.167 683.5,241.833 683.5,240.5 Z"/></g>
<g><path style="opacity:1" fill="#395a45" d="M 811.5,239.5 C 812.451,240.919 812.784,242.585 812.5,244.5C 810.833,244.5 809.167,244.5 807.5,244.5C 807.5,243.167 807.5,241.833 807.5,240.5C 809.099,240.768 810.432,240.434 811.5,239.5 Z"/></g>
<g><path style="opacity:1" fill="#3e644b" d="M 815.5,240.5 C 822.833,240.5 830.167,240.5 837.5,240.5C 837.36,242.124 838.027,243.29 839.5,244C 831.507,244.5 823.507,244.666 815.5,244.5C 815.5,243.167 815.5,241.833 815.5,240.5 Z"/></g>
<g><path style="opacity:1" fill="#3e624a" d="M 174.5,239.5 C 176.854,239.838 179.187,240.338 181.5,241C 180.289,241.893 180.289,242.726 181.5,243.5C 182.429,242.311 182.762,240.978 182.5,239.5C 185.609,239.655 188.609,240.322 191.5,241.5C 190.217,245.942 188.717,246.275 187,242.5C 184.106,243.78 180.939,244.446 177.5,244.5C 174.061,244.446 170.894,243.78 168,242.5C 167,245.167 166,245.167 165,242.5C 163.246,244.25 161.079,244.917 158.5,244.5C 158.5,243.167 158.5,241.833 158.5,240.5C 164.026,240.821 169.36,240.488 174.5,239.5 Z"/></g>
<g><path style="opacity:1" fill="#3e624b" d="M 194.5,240.5 C 198.167,240.5 201.833,240.5 205.5,240.5C 205.5,241.833 205.5,243.167 205.5,244.5C 203.234,244.859 201.401,244.192 200,242.5C 198.246,244.25 196.079,244.917 193.5,244.5C 193.433,243.041 193.766,241.708 194.5,240.5 Z"/></g>
<g><path style="opacity:1" fill="#3b5e47" d="M 304.5,240.5 C 308.167,240.5 311.833,240.5 315.5,240.5C 315.833,244.5 316.167,244.5 316.5,240.5C 319.833,240.5 323.167,240.5 326.5,240.5C 326.36,242.124 327.027,243.29 328.5,244C 320.507,244.5 312.507,244.666 304.5,244.5C 304.5,243.167 304.5,241.833 304.5,240.5 Z"/></g>
<g><path style="opacity:1" fill="#3e634b" d="M 649.5,239.5 C 653.597,240.103 657.597,240.436 661.5,240.5C 661.5,241.833 661.5,243.167 661.5,244.5C 649.167,244.5 636.833,244.5 624.5,244.5C 624.33,243.178 624.663,242.011 625.5,241C 633.677,240.829 641.677,240.329 649.5,239.5 Z"/></g>
<g><path style="opacity:1" fill="#518662" d="M 681.5,251.5 C 687.979,250.509 694.646,250.176 701.5,250.5C 701.946,253.01 701.28,255.01 699.5,256.5C 699.66,254.801 699.494,253.134 699,251.5C 697.378,252.099 695.878,252.766 694.5,253.5C 693.596,254.209 693.263,255.209 693.5,256.5C 690.833,256.5 688.167,256.5 685.5,256.5C 685.803,253.412 684.47,251.746 681.5,251.5 Z"/></g>
<g><path style="opacity:1" fill="#467255" d="M 145.5,249.5 C 149.833,250.167 154.167,250.833 158.5,251.5C 158.421,252.93 158.754,254.264 159.5,255.5C 158.183,255.313 156.85,255.98 155.5,257.5C 150.635,256.858 145.801,256.192 141,255.5C 132.098,256.155 123.265,256.488 114.5,256.5C 114.01,254.052 114.843,252.385 117,251.5C 124.381,251.777 132.048,252.11 140,252.5C 141.859,251.325 143.692,250.325 145.5,249.5 Z"/></g>
<g><path style="opacity:1" fill="#457053" d="M 624.5,251.5 C 634.673,251.641 645.006,251.641 655.5,251.5C 655.5,253.5 655.5,255.5 655.5,257.5C 651.846,257.058 648.179,256.724 644.5,256.5C 644.167,252.5 643.833,252.5 643.5,256.5C 639.836,256.797 636.67,255.797 634,253.5C 633.374,255.991 632.541,255.991 631.5,253.5C 630.056,254.38 628.556,255.38 627,256.5C 624.843,255.615 624.01,253.948 624.5,251.5 Z"/></g>
<g><path style="opacity:1" fill="#457154" d="M 681.5,251.5 C 684.47,251.746 685.803,253.412 685.5,256.5C 676.167,256.5 666.833,256.5 657.5,256.5C 657.5,254.167 657.5,251.833 657.5,249.5C 659.277,249.786 660.944,250.453 662.5,251.5C 664.345,250.062 665.511,250.396 666,252.5C 671.384,251.573 676.55,251.24 681.5,251.5 Z"/></g>
<g><path style="opacity:1" fill="#40684d" d="M 699.5,256.5 C 697.833,256.5 696.167,256.5 694.5,256.5C 694.5,255.5 694.5,254.5 694.5,253.5C 695.878,252.766 697.378,252.099 699,251.5C 699.494,253.134 699.66,254.801 699.5,256.5 Z"/></g>
<g><path style="opacity:1" fill="#446f53" d="M 629.5,263.5 C 631.679,262.941 633.846,262.274 636,261.5C 636.772,261.645 637.439,261.978 638,262.5C 638.818,267.794 639.318,267.794 639.5,262.5C 641.734,262.62 643.901,262.287 646,261.5C 647.261,261.759 648.261,262.426 649,263.5C 652.314,260.885 653.314,261.885 652,266.5C 650.853,265.542 649.853,265.875 649,267.5C 642.667,267.5 636.333,267.5 630,267.5C 629.51,266.207 629.343,264.873 629.5,263.5 Z"/></g>
<g><path style="opacity:1" fill="#40664d" d="M 629.5,263.5 C 628.566,264.568 628.232,265.901 628.5,267.5C 627.167,267.5 625.833,267.5 624.5,267.5C 623.704,261.829 625.37,260.496 629.5,263.5 Z"/></g>
<g><path style="opacity:1" fill="#4f8460" d="M 114.5,279.5 C 118.804,280.131 123.137,280.631 127.5,281C 128.833,282 128.833,283 127.5,284C 123.179,284.499 118.846,284.666 114.5,284.5C 114.5,282.833 114.5,281.167 114.5,279.5 Z"/></g>
<g><path style="opacity:1" fill="#4e825f" d="M 245.5,280.5 C 249.881,280.372 254.215,280.705 258.5,281.5C 258.762,282.978 258.429,284.311 257.5,285.5C 253.015,284.804 248.515,284.137 244,283.5C 243.5,283.167 243,282.833 242.5,282.5C 243.602,281.824 244.602,281.158 245.5,280.5 Z"/></g>
<g><path style="opacity:1" fill="#518762" d="M 129.5,279.5 C 136.549,280.152 143.549,280.486 150.5,280.5C 150.67,281.822 150.337,282.989 149.5,284C 142.842,284.5 136.175,284.666 129.5,284.5C 129.5,282.833 129.5,281.167 129.5,279.5 Z"/></g>
<g><path style="opacity:1" fill="#508662" d="M 385.5,279.5 C 392.546,279.913 399.546,280.246 406.5,280.5C 406.5,281.833 406.5,283.167 406.5,284.5C 399.167,284.5 391.833,284.5 384.5,284.5C 384.366,282.708 384.699,281.042 385.5,279.5 Z"/></g>
<g><path style="opacity:1" fill="#518763" d="M 497.5,279.5 C 509.332,279.725 521.332,280.058 533.5,280.5C 533.5,281.833 533.5,283.167 533.5,284.5C 524.068,285.122 514.901,284.456 506,282.5C 503.544,284.321 500.711,284.988 497.5,284.5C 497.5,282.833 497.5,281.167 497.5,279.5 Z"/></g>
<g><path style="opacity:1" fill="#508662" d="M 624.5,279.5 C 628.804,280.131 633.137,280.631 637.5,281C 638.337,282.011 638.67,283.178 638.5,284.5C 633.833,284.5 629.167,284.5 624.5,284.5C 624.5,282.833 624.5,281.167 624.5,279.5 Z"/></g>
<g><path style="opacity:1" fill="#518762" d="M 260.5,280.5 C 267.863,280.169 275.197,280.503 282.5,281.5C 281.91,282.799 280.91,283.632 279.5,284C 273.175,284.5 266.842,284.666 260.5,284.5C 260.5,283.167 260.5,281.833 260.5,280.5 Z"/></g>
<g><path style="opacity:1" fill="#528964" d="M 369.5,279.5 C 374.119,280.314 378.786,280.647 383.5,280.5C 383.5,281.833 383.5,283.167 383.5,284.5C 378.833,284.5 374.167,284.5 369.5,284.5C 369.5,282.833 369.5,281.167 369.5,279.5 Z"/></g>
<g><path style="opacity:1" fill="#528964" d="M 639.5,278.5 C 642.757,278.639 645.924,279.306 649,280.5C 653.083,279.952 657.25,279.952 661.5,280.5C 661.5,281.833 661.5,283.167 661.5,284.5C 654.167,284.5 646.833,284.5 639.5,284.5C 639.5,282.5 639.5,280.5 639.5,278.5 Z"/></g>
<g><path style="opacity:1" fill="#518863" d="M 766.5,279.5 C 777.96,281.024 789.627,281.357 801.5,280.5C 801.338,282.824 800.172,284.491 798,285.5C 782.911,284.509 767.745,284.176 752.5,284.5C 752.457,280.107 752.957,279.774 754,283.5C 754.483,282.552 754.649,281.552 754.5,280.5C 758.702,280.817 762.702,280.483 766.5,279.5 Z"/></g>
<g><path style="opacity:1" fill="#27302b" d="M 104.5,294.5 C 104.833,294.5 105.167,294.5 105.5,294.5C 142.996,295.498 180.663,295.832 218.5,295.5C 199.67,296.167 180.67,296.5 161.5,296.5C 142.155,296.5 123.155,295.833 104.5,294.5 Z"/></g>
<g><path style="opacity:1" fill="#2f4034" d="M 359.5,294.5 C 359.833,294.5 360.167,294.5 360.5,294.5C 398.167,294.5 435.833,294.5 473.5,294.5C 454.845,295.833 435.845,296.5 416.5,296.5C 397.155,296.5 378.155,295.833 359.5,294.5 Z"/></g>
<g><path style="opacity:1" fill="#2c3b31" d="M 728.5,181.5 C 729.499,219.663 729.832,257.996 729.5,296.5C 691.33,296.832 653.33,296.499 615.5,295.5C 653.167,295.5 690.833,295.5 728.5,295.5C 728.5,257.5 728.5,219.5 728.5,181.5 Z"/></g>
<g><path style="opacity:1" fill="#2f4034" d="M 742.5,294.5 C 780.167,294.5 817.833,294.5 855.5,294.5C 855.833,294.5 856.167,294.5 856.5,294.5C 837.845,295.833 818.845,296.5 799.5,296.5C 780.155,296.5 761.155,295.833 742.5,294.5 Z"/></g>
<g><path style="opacity:1" fill="#2e4034" d="M 487.5,315.5 C 506.33,314.833 525.33,314.5 544.5,314.5C 563.845,314.5 582.845,315.167 601.5,316.5C 601.167,316.5 600.833,316.5 600.5,316.5C 563.004,315.502 525.337,315.168 487.5,315.5 Z"/></g>
<g><path style="opacity:1" fill="#446c51" d="M 218.5,316.5 C 218.167,316.5 217.833,316.5 217.5,316.5C 180.5,316.5 143.5,316.5 106.5,316.5C 105.502,353.663 105.168,390.996 105.5,428.5C 143.167,428.5 180.833,428.5 218.5,428.5C 180.67,429.499 142.67,429.832 104.5,429.5C 104.5,391.5 104.5,353.5 104.5,315.5C 142.67,315.168 180.67,315.501 218.5,316.5 Z"/></g>
<g><path style="opacity:1" fill="#569169" d="M 106.5,316.5 C 106.5,353.5 106.5,390.5 106.5,427.5C 143.5,427.5 180.5,427.5 217.5,427.5C 217.5,390.5 217.5,353.5 217.5,316.5C 217.833,316.5 218.167,316.5 218.5,316.5C 218.5,353.833 218.5,391.167 218.5,428.5C 180.833,428.5 143.167,428.5 105.5,428.5C 105.168,390.996 105.502,353.663 106.5,316.5 Z"/></g>
<g><path style="opacity:1" fill="#5c9c70" d="M 106.5,316.5 C 143.5,316.5 180.5,316.5 217.5,316.5C 217.5,353.5 217.5,390.5 217.5,427.5C 180.5,427.5 143.5,427.5 106.5,427.5C 106.5,390.5 106.5,353.5 106.5,316.5 Z"/></g>
<g><path style="opacity:1" fill="#558f67" d="M 232.5,316.5 C 232.833,316.5 233.167,316.5 233.5,316.5C 233.5,353.5 233.5,390.5 233.5,427.5C 270.5,427.5 307.5,427.5 344.5,427.5C 344.5,390.5 344.5,353.5 344.5,316.5C 345.498,353.663 345.832,390.996 345.5,428.5C 307.833,428.5 270.167,428.5 232.5,428.5C 232.5,391.167 232.5,353.833 232.5,316.5 Z"/></g>
<g><path style="opacity:1" fill="#5c9c70" d="M 233.5,316.5 C 270.5,316.5 307.5,316.5 344.5,316.5C 344.5,353.5 344.5,390.5 344.5,427.5C 307.5,427.5 270.5,427.5 233.5,427.5C 233.5,390.5 233.5,353.5 233.5,316.5 Z"/></g>
<g><path style="opacity:1" fill="#446c51" d="M 232.5,316.5 C 270.33,315.501 308.33,315.168 346.5,315.5C 346.5,353.5 346.5,391.5 346.5,429.5C 308.33,429.832 270.33,429.499 232.5,428.5C 270.167,428.5 307.833,428.5 345.5,428.5C 345.832,390.996 345.498,353.663 344.5,316.5C 307.5,316.5 270.5,316.5 233.5,316.5C 233.167,316.5 232.833,316.5 232.5,316.5 Z"/></g>
<g><path style="opacity:1" fill="#5c9c70" d="M 360.5,316.5 C 397.833,316.5 435.167,316.5 472.5,316.5C 472.5,353.833 472.5,391.167 472.5,428.5C 472.5,391.167 472.5,353.833 472.5,316.5C 435.167,316.5 397.833,316.5 360.5,316.5 Z"/></g>
<g><path style="opacity:1" fill="#4d7e5d" d="M 360.5,316.5 C 360.5,316.167 360.5,315.833 360.5,315.5C 398.167,315.5 435.833,315.5 473.5,315.5C 473.5,353.167 473.5,390.833 473.5,428.5C 473.167,428.5 472.833,428.5 472.5,428.5C 472.5,391.167 472.5,353.833 472.5,316.5C 435.167,316.5 397.833,316.5 360.5,316.5 Z"/></g>
<g><path style="opacity:1" fill="#4a7b5a" d="M 487.5,315.5 C 525.337,315.168 563.004,315.502 600.5,316.5C 600.167,316.5 599.833,316.5 599.5,316.5C 562.5,316.5 525.5,316.5 488.5,316.5C 488.5,353.5 488.5,390.5 488.5,427.5C 488.5,427.833 488.5,428.167 488.5,428.5C 488.167,428.5 487.833,428.5 487.5,428.5C 487.5,390.833 487.5,353.167 487.5,315.5 Z"/></g>
<g><path style="opacity:1" fill="#5c9c70" d="M 599.5,316.5 C 599.5,353.5 599.5,390.5 599.5,427.5C 562.5,427.5 525.5,427.5 488.5,427.5C 488.5,390.5 488.5,353.5 488.5,316.5C 525.5,316.5 562.5,316.5 599.5,316.5 Z"/></g>
<g><path style="opacity:1" fill="#33483a" d="M 360.5,315.5 C 360.5,315.833 360.5,316.167 360.5,316.5C 360.5,353.833 360.5,391.167 360.5,428.5C 397.833,428.5 435.167,428.5 472.5,428.5C 472.833,428.5 473.167,428.5 473.5,428.5C 435.337,429.499 397.004,429.832 358.5,429.5C 357.839,391.152 358.506,353.152 360.5,315.5 Z"/></g>
<g><path style="opacity:1" fill="#385543" d="M 116.5,327.5 C 119.227,328.577 122.06,329.577 125,330.5C 126.907,328.897 128.407,329.23 129.5,331.5C 132.5,328.833 135.5,328.833 138.5,331.5C 139.167,330.833 139.833,330.167 140.5,329.5C 145.42,329.849 150.42,329.849 155.5,329.5C 155.66,331.199 155.494,332.866 155,334.5C 151.667,333.833 148.333,333.167 145,332.5C 134.775,334.021 124.608,334.688 114.5,334.5C 114.767,332.035 115.434,329.701 116.5,327.5 Z"/></g>
<g><path style="opacity:1" fill="#3c5b48" d="M 157.5,329.5 C 158.833,329.5 160.167,329.5 161.5,329.5C 161.884,331.665 161.217,333.332 159.5,334.5C 157.783,333.332 157.116,331.665 157.5,329.5 Z"/></g>
<g><path style="opacity:1" fill="#457154" d="M 369.5,328.5 C 396.5,329.423 423.5,329.423 450.5,328.5C 452.167,328.667 453.833,328.833 455.5,329C 457.09,331.48 456.59,333.313 454,334.5C 452.523,333.556 451.523,332.223 451,330.5C 450.51,331.793 450.343,333.127 450.5,334.5C 431.328,334.313 411.828,333.979 392,333.5C 390.667,336.167 389.333,336.167 388,333.5C 387.261,334.574 386.261,335.241 385,335.5C 383.7,334.293 382.2,333.626 380.5,333.5C 380.5,332.5 380.5,331.5 380.5,330.5C 376.944,330.275 376.61,331.108 379.5,333C 379.167,333.5 378.833,334 378.5,334.5C 375.733,332.754 372.899,332.421 370,333.5C 369.506,331.866 369.34,330.199 369.5,328.5 Z"/></g>
<g><path style="opacity:1" fill="#395644" d="M 186.5,327.5 C 187.461,329.265 187.795,331.265 187.5,333.5C 183.486,333.334 179.486,333.501 175.5,334C 174.975,334.692 174.308,335.192 173.5,335.5C 170.426,332.892 167.093,332.226 163.5,333.5C 163.35,329.839 164.85,328.839 168,330.5C 169.38,327.942 170.88,327.942 172.5,330.5C 174.167,329.167 175.833,329.167 177.5,330.5C 180.961,330.232 183.961,329.232 186.5,327.5 Z"/></g>
<g><path style="opacity:1" fill="#3d5f4a" d="M 255.5,329.5 C 252.139,330.203 251.806,331.537 254.5,333.5C 256.78,332.864 258.78,331.864 260.5,330.5C 267.967,330.035 275.633,329.701 283.5,329.5C 283.5,330.833 283.5,332.167 283.5,333.5C 269.799,334.47 256.132,334.803 242.5,334.5C 242.5,332.167 242.5,329.833 242.5,327.5C 247.183,328.119 251.516,328.786 255.5,329.5 Z"/></g>
<g><path style="opacity:1" fill="#436d51" d="M 501.5,327.5 C 503.984,328.587 506.651,329.253 509.5,329.5C 515.886,329.107 522.219,328.441 528.5,327.5C 532.945,328.154 537.278,329.154 541.5,330.5C 541.5,331.833 541.5,333.167 541.5,334.5C 538.671,334.675 537.004,333.342 536.5,330.5C 535.262,334.311 534.596,334.311 534.5,330.5C 533.448,330.351 532.448,330.517 531.5,331C 532.973,331.71 533.64,332.876 533.5,334.5C 524.112,333.915 514.945,333.915 506,334.5C 504.915,333.707 503.748,333.04 502.5,332.5C 500.997,333.052 499.331,333.052 497.5,332.5C 497.11,327.578 498.277,327.244 501,331.5C 501.49,330.207 501.657,328.873 501.5,327.5 Z"/></g>
<g><path style="opacity:1" fill="#446e52" d="M 544.5,328.5 C 550.482,328.24 556.315,328.906 562,330.5C 564.661,328.106 567.495,328.106 570.5,330.5C 571.386,331.325 571.719,332.325 571.5,333.5C 570.5,333.5 569.5,333.5 568.5,333.5C 567.947,329.544 567.114,329.544 566,333.5C 565.667,332.5 565.333,331.5 565,330.5C 564.1,331.77 562.934,332.77 561.5,333.5C 557.217,334.492 552.884,334.826 548.5,334.5C 548.5,333.167 548.5,331.833 548.5,330.5C 547.448,330.351 546.448,330.517 545.5,331C 546.973,331.71 547.64,332.876 547.5,334.5C 543.556,334.116 542.556,332.116 544.5,328.5 Z"/></g>
<g><path style="opacity:1" fill="#354c3f" d="M 255.5,329.5 C 257.415,329.216 259.081,329.549 260.5,330.5C 258.78,331.864 256.78,332.864 254.5,333.5C 251.806,331.537 252.139,330.203 255.5,329.5 Z"/></g>
<g><path style="opacity:1" fill="#4b7c5c" d="M 311.5,333.5 C 315.394,333.89 319.06,333.223 322.5,331.5C 321.264,330.643 319.931,329.977 318.5,329.5C 311.915,329.733 305.249,329.733 298.5,329.5C 298.5,330.5 298.5,331.5 298.5,332.5C 300.898,332.259 302.898,332.926 304.5,334.5C 297.443,334.76 290.443,334.427 283.5,333.5C 283.5,332.167 283.5,330.833 283.5,329.5C 284.5,329.5 285.5,329.5 286.5,329.5C 301.039,328.818 315.705,328.151 330.5,327.5C 331.833,329.5 331.833,331.5 330.5,333.5C 329.483,330.972 328.316,330.972 327,333.5C 325.059,329.446 324.225,329.78 324.5,334.5C 319.968,334.818 315.634,334.485 311.5,333.5 Z"/></g>
<g><path style="opacity:1" fill="#395844" d="M 311.5,333.5 C 309.283,334.369 306.95,334.702 304.5,334.5C 302.898,332.926 300.898,332.259 298.5,332.5C 298.5,331.5 298.5,330.5 298.5,329.5C 305.249,329.733 311.915,329.733 318.5,329.5C 319.931,329.977 321.264,330.643 322.5,331.5C 319.06,333.223 315.394,333.89 311.5,333.5 Z"/></g>
<g><path style="opacity:1" fill="#3a5946" d="M 286.5,329.5 C 290.182,329.335 293.848,329.501 297.5,330C 295.009,330.626 295.009,331.459 297.5,332.5C 293.878,333.659 290.211,333.825 286.5,333C 285.316,331.855 285.316,330.688 286.5,329.5 Z"/></g>
<g><path style="opacity:1" fill="#41684e" d="M 497.5,340.5 C 506.876,340.555 516.043,340.555 525,340.5C 525.867,343.038 525.201,345.038 523,346.5C 519.663,344.363 516.163,343.696 512.5,344.5C 511.262,340.689 510.596,340.689 510.5,344.5C 506.167,344.5 501.833,344.5 497.5,344.5C 497.5,343.167 497.5,341.833 497.5,340.5 Z"/></g>
<g><path style="opacity:1" fill="#3e624a" d="M 575.5,340.5 C 577.167,340.5 578.833,340.5 580.5,340.5C 580.5,341.833 580.5,343.167 580.5,344.5C 578.833,344.5 577.167,344.5 575.5,344.5C 575.5,343.167 575.5,341.833 575.5,340.5 Z"/></g>
<g><path style="opacity:1" fill="#40674d" d="M 326.5,339.5 C 328.308,340.918 328.975,342.918 328.5,345.5C 319.608,344.55 310.608,344.55 301.5,345.5C 301.286,343.856 301.62,342.356 302.5,341C 310.677,340.829 318.677,340.329 326.5,339.5 Z"/></g>
<g><path style="opacity:1" fill="#3f644c" d="M 528.5,339.5 C 530.117,340.038 531.784,340.371 533.5,340.5C 533.833,344.5 534.167,344.5 534.5,340.5C 537.167,340.5 539.833,340.5 542.5,340.5C 542.5,341.833 542.5,343.167 542.5,344.5C 538.5,344.5 534.5,344.5 530.5,344.5C 530.307,340.551 529.807,340.551 529,344.5C 528.506,342.866 528.34,341.199 528.5,339.5 Z"/></g>
<g><path style="opacity:1" fill="#41694f" d="M 544.5,340.5 C 553.167,340.5 561.833,340.5 570.5,340.5C 570.5,341.833 570.5,343.167 570.5,344.5C 567.979,344.44 565.646,345.106 563.5,346.5C 562.051,345.72 560.551,345.054 559,344.5C 556.09,344.565 553.09,344.898 550,345.5C 548.118,344.907 547.118,343.573 547,341.5C 545.506,345.304 544.672,344.971 544.5,340.5 Z"/></g>
<g><path style="opacity:1" fill="#3f654c" d="M 262.5,339.5 C 267.371,340.085 272.204,340.752 277,341.5C 284.902,340.847 292.735,340.513 300.5,340.5C 300.5,341.833 300.5,343.167 300.5,344.5C 292.722,345.111 285.222,344.444 278,342.5C 277.804,344.286 276.971,345.619 275.5,346.5C 265.685,344.724 255.685,343.891 245.5,344C 246.337,342.989 246.67,341.822 246.5,340.5C 252.026,340.821 257.36,340.488 262.5,339.5 Z"/></g>
<g><path style="opacity:1" fill="#40684e" d="M 421.5,340.5 C 428.5,340.5 435.5,340.5 442.5,340.5C 442.5,341.833 442.5,343.167 442.5,344.5C 438.131,344.467 433.798,344.8 429.5,345.5C 429.587,342.402 429.087,342.068 428,344.5C 427.282,341.766 425.782,341.1 423.5,342.5C 424.025,343.192 424.692,343.692 425.5,344C 424.207,344.49 422.873,344.657 421.5,344.5C 421.5,343.167 421.5,341.833 421.5,340.5 Z"/></g>
<g><path style="opacity:1" fill="#40674e" d="M 369.5,340.5 C 386.248,340.531 402.915,340.531 419.5,340.5C 419.5,341.833 419.5,343.167 419.5,344.5C 414.914,343.753 410.247,343.753 405.5,344.5C 402.713,344.426 400.213,343.76 398,342.5C 396.438,347.628 395.105,347.628 394,342.5C 387.918,344.205 381.585,345.205 375,345.5C 373.234,344.767 371.401,344.433 369.5,344.5C 369.5,343.167 369.5,341.833 369.5,340.5 Z"/></g>
<g><path style="opacity:1" fill="#436e52" d="M 505.5,349.5 C 506.468,351.607 506.802,353.941 506.5,356.5C 503.455,356.492 500.455,356.159 497.5,355.5C 497.5,354.167 497.5,352.833 497.5,351.5C 500.698,352.036 503.365,351.369 505.5,349.5 Z"/></g>
<g><path style="opacity:1" fill="#477456" d="M 528.5,349.5 C 536.519,351.496 544.519,352.496 552.5,352.5C 552.5,353.833 552.5,355.167 552.5,356.5C 547.156,356.666 541.823,356.499 536.5,356C 534.798,354.417 533.464,354.917 532.5,357.5C 531.833,356.833 531.167,356.167 530.5,355.5C 523.473,357.274 516.473,357.441 509.5,356C 508.14,354.062 508.473,352.396 510.5,351C 515.869,350.566 521.035,350.732 526,351.5C 526.995,350.934 527.828,350.267 528.5,349.5 Z"/></g>
<g><path style="opacity:1" fill="#579269" d="M 599.5,316.5 C 599.833,316.5 600.167,316.5 600.5,316.5C 600.5,353.833 600.5,391.167 600.5,428.5C 563.167,428.5 525.833,428.5 488.5,428.5C 488.5,428.167 488.5,427.833 488.5,427.5C 525.5,427.5 562.5,427.5 599.5,427.5C 599.5,390.5 599.5,353.5 599.5,316.5 Z"/></g>
<g><path style="opacity:1" fill="#538a65" d="M 241.5,413.5 C 247.5,413.5 253.5,413.5 259.5,413.5C 259.5,414.833 259.5,416.167 259.5,417.5C 253.575,418.092 247.575,418.092 241.5,417.5C 241.5,416.167 241.5,414.833 241.5,413.5 Z"/></g>
<g><path style="opacity:1" fill="#518763" d="M 260.5,413.5 C 267.443,414.427 274.443,414.76 281.5,414.5C 281.5,415.5 281.5,416.5 281.5,417.5C 274.516,417.391 267.682,417.391 261,417.5C 260.51,416.207 260.343,414.873 260.5,413.5 Z"/></g>
<g><path style="opacity:1" fill="#518763" d="M 510.5,413.5 C 522.686,413.554 534.686,413.888 546.5,414.5C 546.5,415.5 546.5,416.5 546.5,417.5C 534.763,417.052 522.763,417.052 510.5,417.5C 510.5,416.167 510.5,414.833 510.5,413.5 Z"/></g>
<g><path style="opacity:1" fill="#508461" d="M 147.5,413.5 C 149.764,414.219 152.097,414.552 154.5,414.5C 154.5,415.5 154.5,416.5 154.5,417.5C 147.825,417.666 141.158,417.5 134.5,417C 133.007,415.844 133.174,415.01 135,414.5C 138.928,414.344 142.928,414.678 147,415.5C 147.464,414.906 147.631,414.239 147.5,413.5 Z"/></g>
<g><path style="opacity:1" fill="#518763" d="M 114.5,413.5 C 120.138,414.22 125.804,414.553 131.5,414.5C 131.778,416.346 131.111,417.68 129.5,418.5C 124.678,418.448 119.678,418.114 114.5,417.5C 114.5,416.167 114.5,414.833 114.5,413.5 Z"/></g>
<g><path style="opacity:1" fill="#558f68" d="M 383.5,413.5 C 395.466,414.153 407.466,414.153 419.5,413.5C 419.5,414.833 419.5,416.167 419.5,417.5C 417.857,417.48 416.524,418.147 415.5,419.5C 409.917,416.845 404.25,416.845 398.5,419.5C 393.486,418.194 388.486,418.194 383.5,419.5C 383.5,417.5 383.5,415.5 383.5,413.5 Z"/></g>
<g><path style="opacity:1" fill="#43644f" d="M 600.5,316.5 C 600.833,316.5 601.167,316.5 601.5,316.5C 601.5,354.167 601.5,391.833 601.5,429.5C 563.33,429.832 525.33,429.499 487.5,428.5C 487.833,428.5 488.167,428.5 488.5,428.5C 525.833,428.5 563.167,428.5 600.5,428.5C 600.5,391.167 600.5,353.833 600.5,316.5 Z"/></g>
</svg>
