<?xml version="1.0" encoding="UTF-8"?>
<!DOCTYPE svg PUBLIC "-//W3C//DTD SVG 1.1//EN" "http://www.w3.org/Graphics/SVG/1.1/DTD/svg11.dtd">
<svg xmlns="http://www.w3.org/2000/svg" version="1.1" width="379px" height="820px" style="shape-rendering:geometricPrecision; text-rendering:geometricPrecision; image-rendering:optimizeQuality; fill-rule:evenodd; clip-rule:evenodd" xmlns:xlink="http://www.w3.org/1999/xlink">
<g><path style="opacity:0.996" fill="#016191" d="M 0.5,-0.5 C 126.5,-0.5 252.5,-0.5 378.5,-0.5C 378.5,272.833 378.5,546.167 378.5,819.5C 367.5,819.5 356.5,819.5 345.5,819.5C 345.333,710.166 345.5,600.833 346,491.5C 348.793,487.339 349.126,483.006 347,478.5C 346.333,461.5 346.333,444.5 347,427.5C 347.422,425.645 347.922,423.811 348.5,422C 347.237,417.254 346.57,412.42 346.5,407.5C 346.504,371.488 346.838,335.488 347.5,299.5C 346.721,290.528 346.221,281.528 346,272.5C 343.11,266.885 342.277,261.219 343.5,255.5C 343.167,255.167 342.833,254.833 342.5,254.5C 341.833,255.167 341.167,255.833 340.5,256.5C 339.269,255.349 339.269,254.183 340.5,253C 338.91,251.954 337.41,250.787 336,249.5C 335.289,247.633 335.789,246.133 337.5,245C 337,244.5 336.5,244 336,243.5C 335.241,245.063 334.074,246.063 332.5,246.5C 331.448,246.649 330.448,246.483 329.5,246C 325.419,242.312 321.086,239.145 316.5,236.5C 310.5,234.127 304.166,232.794 297.5,232.5C 224.339,230.746 151.006,230.246 77.5,231C 75.9419,231.21 74.6085,231.71 73.5,232.5C 69.3104,233.999 65.3104,235.999 61.5,238.5C 59.9731,238.427 58.9731,239.094 58.5,240.5C 53.5588,242.442 49.8922,245.775 47.5,250.5C 42.7774,255.945 39.6107,262.278 38,269.5C 37.5002,278.16 37.3336,286.827 37.5,295.5C 37.5,296.833 37.5,298.167 37.5,299.5C 36.7621,472.833 36.0955,646.166 35.5,819.5C 23.8333,819.5 12.1667,819.5 0.5,819.5C 0.5,546.167 0.5,272.833 0.5,-0.5 Z"/></g>
<g><path style="opacity:1" fill="#b6daeb" d="M 267.5,87.5 C 267.5,87.8333 267.5,88.1667 267.5,88.5C 267.5,89.5 267.5,90.5 267.5,91.5C 266.5,91.5 265.5,91.5 264.5,91.5C 264.5,90.1667 264.5,88.8333 264.5,87.5C 265.5,87.5 266.5,87.5 267.5,87.5 Z"/></g>
<g><path style="opacity:1" fill="#226b92" d="M 267.5,87.5 C 266.5,87.5 265.5,87.5 264.5,87.5C 264.5,88.8333 264.5,90.1667 264.5,91.5C 265.5,91.5 266.5,91.5 267.5,91.5C 267.5,90.5 267.5,89.5 267.5,88.5C 269.048,88.8212 269.715,89.8212 269.5,91.5C 272.713,91.19 275.713,91.5233 278.5,92.5C 270.49,92.9059 268.49,96.5726 272.5,103.5C 271.417,103.461 270.417,103.127 269.5,102.5C 268.818,103.243 268.151,103.909 267.5,104.5C 267.5,100.5 267.5,96.5 267.5,92.5C 266.209,92.2627 265.209,92.596 264.5,93.5C 264.5,96.8333 264.5,100.167 264.5,103.5C 264.5,103.833 264.5,104.167 264.5,104.5C 263.5,103.167 262.5,103.167 261.5,104.5C 260.85,99.4706 260.517,94.4706 260.5,89.5C 259.5,89.5 258.5,89.5 257.5,89.5C 257.374,91.1998 256.707,92.6998 255.5,94C 257.146,96.595 257.813,99.4284 257.5,102.5C 256.691,100.708 256.191,98.7078 256,96.5C 255.667,98.1667 255.333,99.8333 255,101.5C 254.925,99.065 254.092,98.3984 252.5,99.5C 252.961,97.4496 253.628,95.4496 254.5,93.5C 253.675,92.6143 252.675,92.281 251.5,92.5C 252.919,91.5489 254.585,91.2155 256.5,91.5C 256.5,90.5 256.5,89.5 256.5,88.5C 258.199,88.6602 259.866,88.4935 261.5,88C 257.415,87.3661 256.915,86.1994 260,84.5C 262.491,85.6748 264.991,85.6748 267.5,84.5C 267.5,85.5 267.5,86.5 267.5,87.5 Z"/></g>
<g><path style="opacity:1" fill="#d1e9ef" d="M 89.5,87.5 C 93.2154,87.1961 96.7154,87.8627 100,89.5C 102.197,95.7565 100.03,98.7565 93.5,98.5C 93.5,100.5 93.5,102.5 93.5,104.5C 92.1667,104.5 90.8333,104.5 89.5,104.5C 89.5,98.8333 89.5,93.1667 89.5,87.5 Z"/></g>
<g><path style="opacity:1" fill="#23688e" d="M 93.5,90.5 C 97.1612,90.3501 98.1612,91.8501 96.5,95C 95.552,95.4828 94.552,95.6495 93.5,95.5C 93.5,93.8333 93.5,92.1667 93.5,90.5 Z"/></g>
<g><path style="opacity:1" fill="#ecf7fb" d="M 162.5,90.5 C 162.149,94.532 161.482,98.8653 160.5,103.5C 159.832,100.694 159.166,98.0277 158.5,95.5C 157.903,95.2648 157.57,94.7648 157.5,94C 158.587,91.2964 160.254,89.1297 162.5,87.5C 163.776,88.6136 163.776,89.6136 162.5,90.5 Z"/></g>
<g><path style="opacity:1" fill="#c7e3ec" d="M 179.5,87.5 C 180.5,87.5 181.5,87.5 182.5,87.5C 182.5,93.1667 182.5,98.8333 182.5,104.5C 181.5,104.5 180.5,104.5 179.5,104.5C 179.5,98.8333 179.5,93.1667 179.5,87.5 Z"/></g>
<g><path style="opacity:1" fill="#dbf0f6" d="M 105.5,92.5 C 112.468,91.7163 115.302,94.7163 114,101.5C 110.333,105.5 106.667,105.5 103,101.5C 102.052,97.9029 102.885,94.9029 105.5,92.5 Z"/></g>
<g><path style="opacity:1" fill="#d9f0f6" d="M 202.5,93.5 C 203.5,93.5 204.5,93.5 205.5,93.5C 205.5,96.8333 205.5,100.167 205.5,103.5C 204.5,103.5 203.5,103.5 202.5,103.5C 197.069,106.001 194.069,104.335 193.5,98.5C 194.366,92.9645 197.366,91.2979 202.5,93.5 Z"/></g>
<g><path style="opacity:1" fill="#d4ecf3" d="M 261.5,104.5 C 259.517,104.843 258.183,104.176 257.5,102.5C 257.813,99.4284 257.146,96.595 255.5,94C 256.707,92.6998 257.374,91.1998 257.5,89.5C 258.5,89.5 259.5,89.5 260.5,89.5C 260.517,94.4706 260.85,99.4706 261.5,104.5 Z"/></g>
<g><path style="opacity:1" fill="#d9eff5" d="M 283.5,92.5 C 286.157,92.162 288.49,92.8287 290.5,94.5C 288.784,94.9972 287.117,95.3306 285.5,95.5C 287.669,96.9086 289.335,98.7419 290.5,101C 289.246,104.203 286.913,105.203 283.5,104C 282.269,102.817 282.269,101.651 283.5,100.5C 284.891,101.645 286.224,101.645 287.5,100.5C 286.15,99.0499 284.484,98.3832 282.5,98.5C 282.325,96.3792 282.659,94.3792 283.5,92.5 Z"/></g>
<g><path style="opacity:1" fill="#d0e9f2" d="M 176.5,93.5 C 176.5,96.1667 176.5,98.8333 176.5,101.5C 173.034,105.314 169.701,105.314 166.5,101.5C 166.187,98.7531 166.52,96.0865 167.5,93.5C 168.168,95.9688 168.835,98.3021 169.5,100.5C 170.209,101.404 171.209,101.737 172.5,101.5C 172.5,98.5 172.5,95.5 172.5,92.5C 174.099,92.2322 175.432,92.5655 176.5,93.5 Z"/></g>
<g><path style="opacity:1" fill="#ddf4fa" d="M 209.5,92.5 C 211.597,93.3531 213.597,93.3531 215.5,92.5C 217.038,92.4534 218.038,93.1201 218.5,94.5C 218.817,97.5719 218.484,100.572 217.5,103.5C 216.832,100.694 216.166,98.0277 215.5,95.5C 214.5,95.5 213.5,95.5 212.5,95.5C 212.5,98.1667 212.5,100.833 212.5,103.5C 211.5,103.5 210.5,103.5 209.5,103.5C 209.5,99.8333 209.5,96.1667 209.5,92.5 Z"/></g>
<g><path style="opacity:1" fill="#effdff" d="M 264.5,93.5 C 265.777,94.6936 266.444,96.3603 266.5,98.5C 266.444,100.64 265.777,102.306 264.5,103.5C 264.5,100.167 264.5,96.8333 264.5,93.5 Z"/></g>
<g><path style="opacity:1" fill="#d7eef4" d="M 143.5,104.5 C 137.344,104.675 134.677,101.675 135.5,95.5C 138.524,91.8642 142.024,91.5309 146,94.5C 147.009,96.0249 147.509,97.6916 147.5,99.5C 144.482,99.3354 141.482,99.502 138.5,100C 141.075,101.175 143.741,101.675 146.5,101.5C 145.66,102.735 144.66,103.735 143.5,104.5 Z"/></g>
<g><path style="opacity:1" fill="#45798d" d="M 138.5,95.5 C 140.288,95.2148 141.955,95.5481 143.5,96.5C 142.667,96.8333 141.833,97.1667 141,97.5C 139.624,97.3158 138.791,96.6491 138.5,95.5 Z"/></g>
<g><path style="opacity:1" fill="#9ac2d8" d="M 162.5,90.5 C 162.891,95.0747 162.891,99.7413 162.5,104.5C 161.167,104.5 159.833,104.5 158.5,104.5C 158.5,101.5 158.5,98.5 158.5,95.5C 159.166,98.0277 159.832,100.694 160.5,103.5C 161.482,98.8653 162.149,94.532 162.5,90.5 Z"/></g>
<g><path style="opacity:1" fill="#2a6e8e" d="M 179.5,87.5 C 179.5,93.1667 179.5,98.8333 179.5,104.5C 178.5,103.5 177.5,102.5 176.5,101.5C 176.5,98.8333 176.5,96.1667 176.5,93.5C 177.117,93.6107 177.617,93.944 178,94.5C 178.186,91.9644 178.686,89.631 179.5,87.5 Z"/></g>
<g><path style="opacity:1" fill="#2a6a93" d="M 106.5,95.5 C 111.159,95.0146 112.492,96.848 110.5,101C 105.728,101.81 104.395,99.9771 106.5,95.5 Z"/></g>
<g><path style="opacity:1" fill="#6e9fb1" d="M 209.5,92.5 C 209.5,96.1667 209.5,99.8333 209.5,103.5C 210.5,103.5 211.5,103.5 212.5,103.5C 211.432,104.434 210.099,104.768 208.5,104.5C 208.183,100.298 208.517,96.2984 209.5,92.5 Z"/></g>
<g><path style="opacity:1" fill="#dceff5" d="M 225.5,92.5 C 228.654,93.0946 231.654,93.0946 234.5,92.5C 234.5,96.5 234.5,100.5 234.5,104.5C 231.068,104.41 227.568,104.076 224,103.5C 221.689,99.3741 222.189,95.7075 225.5,92.5 Z"/></g>
<g><path style="opacity:1" fill="#d9eaf1" d="M 130.5,92.5 C 131.5,92.5 132.5,92.5 133.5,92.5C 132.321,96.0492 131.321,99.7159 130.5,103.5C 129.167,103.5 127.833,103.5 126.5,103.5C 125.572,96.9081 124.572,96.9081 123.5,103.5C 122.167,103.5 120.833,103.5 119.5,103.5C 117.892,100.009 116.892,96.3424 116.5,92.5C 118.973,92.736 120.64,94.0693 121.5,96.5C 122.068,94.5654 123.235,93.2321 125,92.5C 126.748,94.1003 127.915,96.1003 128.5,98.5C 129.295,96.5049 129.961,94.5049 130.5,92.5 Z"/></g>
<g><path style="opacity:1" fill="#226496" d="M 197.5,95.5 C 202.159,95.0146 203.492,96.848 201.5,101C 196.728,101.81 195.395,99.9771 197.5,95.5 Z"/></g>
<g><path style="opacity:1" fill="#79afcc" d="M 218.5,94.5 C 219.479,97.6248 219.813,100.958 219.5,104.5C 218.167,104.5 216.833,104.5 215.5,104.5C 215.5,101.5 215.5,98.5 215.5,95.5C 216.166,98.0277 216.832,100.694 217.5,103.5C 218.484,100.572 218.817,97.5719 218.5,94.5 Z"/></g>
<g><path style="opacity:1" fill="#74a8c2" d="M 238.5,87.5 C 238.5,92.8333 238.5,98.1667 238.5,103.5C 239.5,103.5 240.5,103.5 241.5,103.5C 240.432,104.434 239.099,104.768 237.5,104.5C 237.178,98.642 237.511,92.9753 238.5,87.5 Z"/></g>
<g><path style="opacity:1" fill="#86bcce" d="M 154.5,92.5 C 153.432,93.4345 152.099,93.7678 150.5,93.5C 150.18,96.8984 150.513,100.232 151.5,103.5C 152.168,101.031 152.835,98.6979 153.5,96.5C 153.5,99.1667 153.5,101.833 153.5,104.5C 152.167,104.5 150.833,104.5 149.5,104.5C 149.5,100.5 149.5,96.5 149.5,92.5C 151.167,92.5 152.833,92.5 154.5,92.5 Z"/></g>
<g><path style="opacity:1" fill="#e3fafd" d="M 154.5,92.5 C 156.048,92.8212 156.715,93.8212 156.5,95.5C 155.209,95.2627 154.209,95.596 153.5,96.5C 152.835,98.6979 152.168,101.031 151.5,103.5C 150.513,100.232 150.18,96.8984 150.5,93.5C 152.099,93.7678 153.432,93.4345 154.5,92.5 Z"/></g>
<g><path style="opacity:1" fill="#19628b" d="M 226.5,95.5 C 231.159,95.0146 232.492,96.848 230.5,101C 225.728,101.81 224.395,99.9771 226.5,95.5 Z"/></g>
<g><path style="opacity:1" fill="#d2ebf6" d="M 238.5,87.5 C 239.5,87.5 240.5,87.5 241.5,87.5C 241.5,92.8333 241.5,98.1667 241.5,103.5C 240.5,103.5 239.5,103.5 238.5,103.5C 238.5,98.1667 238.5,92.8333 238.5,87.5 Z"/></g>
<g><path style="opacity:1" fill="#82aeca" d="M 169.5,100.5 C 168.835,98.3021 168.168,95.9688 167.5,93.5C 166.52,96.0865 166.187,98.7531 166.5,101.5C 165.523,98.7131 165.19,95.7131 165.5,92.5C 166.833,92.5 168.167,92.5 169.5,92.5C 169.5,95.1667 169.5,97.8333 169.5,100.5 Z"/></g>
<g><path style="opacity:1" fill="#dff1f7" d="M 251.5,92.5 C 252.675,92.281 253.675,92.6143 254.5,93.5C 253.628,95.4496 252.961,97.4496 252.5,99.5C 251.19,102.399 249.857,105.399 248.5,108.5C 247.675,109.386 246.675,109.719 245.5,109.5C 245.682,107.325 246.349,105.325 247.5,103.5C 246.364,100.093 245.031,96.7593 243.5,93.5C 244.689,92.5713 246.022,92.238 247.5,92.5C 248.288,100.317 249.622,100.317 251.5,92.5 Z"/></g>
<g><path style="opacity:1" fill="#b2d5e5" d="M 264.5,93.5 C 265.209,92.596 266.209,92.2627 267.5,92.5C 267.5,96.5 267.5,100.5 267.5,104.5C 266.5,104.5 265.5,104.5 264.5,104.5C 264.5,104.167 264.5,103.833 264.5,103.5C 265.777,102.306 266.444,100.64 266.5,98.5C 266.444,96.3603 265.777,94.6936 264.5,93.5 Z"/></g>
<g><path style="opacity:1" fill="#d9eef5" d="M 278.5,92.5 C 279.091,93.1515 279.757,93.8182 280.5,94.5C 278.577,95.3078 276.577,95.8078 274.5,96C 273.167,97.6667 273.167,99.3333 274.5,101C 276.256,101.202 277.922,101.702 279.5,102.5C 279.333,102.833 279.167,103.167 279,103.5C 276.726,104.811 274.56,104.811 272.5,103.5C 268.49,96.5726 270.49,92.9059 278.5,92.5 Z"/></g>
<g><path style="opacity:1" fill="#6cabc4" d="M 202.5,93.5 C 203.568,92.5655 204.901,92.2322 206.5,92.5C 206.5,96.5 206.5,100.5 206.5,104.5C 204.901,104.768 203.568,104.434 202.5,103.5C 203.5,103.5 204.5,103.5 205.5,103.5C 205.5,100.167 205.5,96.8333 205.5,93.5C 204.5,93.5 203.5,93.5 202.5,93.5 Z"/></g>
<g><path style="opacity:1" fill="#2c7096" d="M 130.5,92.5 C 131.568,91.5655 132.901,91.2322 134.5,91.5C 134.232,93.099 134.566,94.4324 135.5,95.5C 134.677,101.675 137.344,104.675 143.5,104.5C 140.518,105.165 137.352,105.498 134,105.5C 128.91,105.656 124.077,104.99 119.5,103.5C 120.833,103.5 122.167,103.5 123.5,103.5C 124.572,96.9081 125.572,96.9081 126.5,103.5C 127.833,103.5 129.167,103.5 130.5,103.5C 131.321,99.7159 132.321,96.0492 133.5,92.5C 132.5,92.5 131.5,92.5 130.5,92.5 Z"/></g>
<g><path style="opacity:1" fill="#c1e1ec" d="M 92.5,125.5 C 93.4959,125.414 94.3292,125.748 95,126.5C 96.3333,129.833 97.6667,133.167 99,136.5C 99.5503,140.668 98.717,141.168 96.5,138C 93.0368,136.965 90.2035,137.798 88,140.5C 88.1849,135.111 89.6849,130.111 92.5,125.5 Z"/></g>
<g><path style="opacity:1" fill="#83b3ca" d="M 125.5,125.5 C 126.5,125.5 127.5,125.5 128.5,125.5C 128.5,130.5 128.5,135.5 128.5,140.5C 127.5,140.5 126.5,140.5 125.5,140.5C 125.5,135.5 125.5,130.5 125.5,125.5 Z"/></g>
<g><path style="opacity:1" fill="#256d95" d="M 198.5,130.5 C 196.78,132.658 195.947,135.325 196,138.5C 194.667,139.833 193.333,139.833 192,138.5C 191.667,135.833 191.333,133.167 191,130.5C 190.013,134.475 190.513,138.141 192.5,141.5C 190,140.11 187.667,140.277 185.5,142C 186.993,143.156 186.826,143.99 185,144.5C 183.089,141.977 181.255,141.977 179.5,144.5C 177.448,141.512 176.281,138.179 176,134.5C 175.617,135.056 175.117,135.389 174.5,135.5C 175.167,133.833 175.833,132.167 176.5,130.5C 182.018,129.458 187.518,128.458 193,127.5C 193.317,129.301 193.984,129.634 195,128.5C 196.302,129.085 197.469,129.751 198.5,130.5 Z"/></g>
<g><path style="opacity:1" fill="#b0dae7" d="M 198.5,130.5 C 198.817,133.572 198.484,136.572 197.5,139.5C 196.158,141.005 194.492,141.672 192.5,141.5C 190.513,138.141 190.013,134.475 191,130.5C 191.333,133.167 191.667,135.833 192,138.5C 193.333,139.833 194.667,139.833 196,138.5C 195.947,135.325 196.78,132.658 198.5,130.5 Z"/></g>
<g><path style="opacity:1" fill="#bcecf7" d="M 201.5,130.5 C 203.199,130.34 204.866,130.506 206.5,131C 205.069,131.465 203.903,132.299 203,133.5C 202.667,135.833 202.333,138.167 202,140.5C 201.502,137.183 201.335,133.85 201.5,130.5 Z"/></g>
<g><path style="opacity:1" fill="#b2ddea" d="M 287.5,130.5 C 289.199,130.34 290.866,130.506 292.5,131C 293.451,131.718 293.617,132.551 293,133.5C 291.388,130.921 289.888,130.921 288.5,133.5C 289.85,134.95 291.516,135.617 293.5,135.5C 294.592,140.123 292.925,141.956 288.5,141C 285.99,137.51 286.49,137.01 290,139.5C 291.059,139.37 291.892,138.87 292.5,138C 290.552,137.017 288.718,135.85 287,134.5C 286.421,133.072 286.588,131.738 287.5,130.5 Z"/></g>
<g><path style="opacity:1" fill="#2a678e" d="M 92.5,129.5 C 94.6138,130.784 95.6138,132.784 95.5,135.5C 94.1667,135.5 92.8333,135.5 91.5,135.5C 91.8333,133.5 92.1667,131.5 92.5,129.5 Z"/></g>
<g><path style="opacity:1" fill="#1e6593" d="M 119.5,131.5 C 120.833,134.167 120.833,136.833 119.5,139.5C 114.593,139.467 113.26,137.134 115.5,132.5C 116.689,131.571 118.022,131.238 119.5,131.5 Z"/></g>
<g><path style="opacity:1" fill="#c3e6f1" d="M 119.5,139.5 C 120.833,136.833 120.833,134.167 119.5,131.5C 120.496,131.586 121.329,131.252 122,130.5C 122.667,133.833 122.667,137.167 122,140.5C 121.329,139.748 120.496,139.414 119.5,139.5 Z"/></g>
<g><path style="opacity:1" fill="#aad4e1" d="M 151.5,130.5 C 156.56,129.668 159.227,131.668 159.5,136.5C 156.753,136.187 154.086,136.52 151.5,137.5C 152,138.881 153,139.547 154.5,139.5C 158.22,137.825 158.886,138.325 156.5,141C 151.834,142.01 149.501,140.177 149.5,135.5C 149.724,133.545 150.391,131.879 151.5,130.5 Z"/></g>
<g><path style="opacity:1" fill="#2a6a86" d="M 152.5,131.5 C 154.681,131.284 156.347,132.117 157.5,134C 155.421,134.808 153.421,134.641 151.5,133.5C 151.863,132.817 152.196,132.15 152.5,131.5 Z"/></g>
<g><path style="opacity:1" fill="#a7d5e4" d="M 238.5,130.5 C 240.924,130.192 243.257,130.526 245.5,131.5C 243.979,131.88 242.313,132.046 240.5,132C 237.833,134.333 237.833,136.667 240.5,139C 241.899,139.595 243.232,139.428 244.5,138.5C 245.711,139.274 245.711,140.107 244.5,141C 239.842,142.187 237.175,140.353 236.5,135.5C 236.902,133.7 237.569,132.033 238.5,130.5 Z"/></g>
<g><path style="opacity:1" fill="#b1dbe8" d="M 129.5,130.5 C 130.496,130.414 131.329,130.748 132,131.5C 133.323,138.027 134.823,138.027 136.5,131.5C 137.359,130.226 138.026,130.392 138.5,132C 136.907,136.686 134.907,141.186 132.5,145.5C 131.657,143.769 131.657,141.935 132.5,140C 131.397,136.859 130.397,133.693 129.5,130.5 Z"/></g>
<g><path style="opacity:1" fill="#a6d3e2" d="M 140.5,130.5 C 142.527,130.338 144.527,130.505 146.5,131C 147.711,131.893 147.711,132.726 146.5,133.5C 144.907,131.34 143.24,131.173 141.5,133C 143.448,133.983 145.282,135.15 147,136.5C 147.339,140.487 145.506,141.987 141.5,141C 140.643,140.311 139.977,139.478 139.5,138.5C 141.366,138.902 143.366,138.902 145.5,138.5C 144.345,137.05 142.845,136.05 141,135.5C 140.506,133.866 140.34,132.199 140.5,130.5 Z"/></g>
<g><path style="opacity:1" fill="#74b3cf" d="M 282.5,127.5 C 282.5,131.5 282.5,135.5 282.5,139.5C 281.795,136.772 281.128,133.939 280.5,131C 281.085,129.698 281.751,128.531 282.5,127.5 Z"/></g>
<g><path style="opacity:1" fill="#d0ecf2" d="M 282.5,127.5 C 284.805,130.003 285.138,132.836 283.5,136C 283.675,137.658 284.342,138.991 285.5,140C 284.251,140.74 283.251,140.573 282.5,139.5C 282.5,135.5 282.5,131.5 282.5,127.5 Z"/></g>
<g><path style="opacity:1" fill="#b9dfec" d="M 108.5,140.5 C 108.664,137.813 108.497,135.146 108,132.5C 106.667,131.167 105.333,131.167 104,132.5C 103.503,135.146 103.336,137.813 103.5,140.5C 101.598,137.663 100.931,134.329 101.5,130.5C 104.119,130.232 106.619,130.565 109,131.5C 109.805,134.696 109.638,137.696 108.5,140.5 Z"/></g>
<g><path style="opacity:1" fill="#5892af" d="M 108.5,140.5 C 108.018,137.954 107.018,135.621 105.5,133.5C 104.832,135.969 104.165,138.302 103.5,140.5C 103.336,137.813 103.503,135.146 104,132.5C 105.333,131.167 106.667,131.167 108,132.5C 108.497,135.146 108.664,137.813 108.5,140.5 Z"/></g>
<g><path style="opacity:1" fill="#b3dfea" d="M 119.5,131.5 C 118.022,131.238 116.689,131.571 115.5,132.5C 113.26,137.134 114.593,139.467 119.5,139.5C 112.962,140.929 110.962,138.262 113.5,131.5C 115.643,130.246 117.643,130.246 119.5,131.5 Z"/></g>
<g><path style="opacity:1" fill="#aed9e9" d="M 270.5,130.5 C 273.119,130.232 275.619,130.565 278,131.5C 278.821,134.554 278.655,137.554 277.5,140.5C 276.52,137.914 276.187,135.247 276.5,132.5C 275.167,132.5 273.833,132.5 272.5,132.5C 272.813,135.247 272.48,137.914 271.5,140.5C 270.513,137.232 270.18,133.898 270.5,130.5 Z"/></g>
<g><path style="opacity:1" fill="#a6d3df" d="M 216.5,130.5 C 219.011,130.838 221.345,130.838 223.5,130.5C 224.487,133.768 224.82,137.102 224.5,140.5C 214.761,142.763 212.094,139.43 216.5,130.5 Z"/></g>
<g><path style="opacity:1" fill="#1b658b" d="M 217.5,131.5 C 220.352,131.352 222.019,132.686 222.5,135.5C 221.875,138.986 220.042,139.986 217,138.5C 216.297,136.071 216.463,133.738 217.5,131.5 Z"/></g>
<g><path style="opacity:1" fill="#bbe1eb" d="M 176.5,130.5 C 175.833,132.167 175.167,133.833 174.5,135.5C 173.272,138.956 171.772,142.29 170,145.5C 170.882,140.776 170.049,136.276 167.5,132C 167.833,131.5 168.167,131 168.5,130.5C 169.575,132.902 170.742,135.236 172,137.5C 172.36,135.392 173.027,133.392 174,131.5C 174.671,130.748 175.504,130.414 176.5,130.5 Z"/></g>
<g><path style="opacity:1" fill="#bfe5f0" d="M 179.5,130.5 C 187.486,129.998 189.486,133.165 185.5,140C 177.424,140.805 175.424,137.638 179.5,130.5 Z"/></g>
<g><path style="opacity:1" fill="#246893" d="M 180.5,131.5 C 182.144,131.286 183.644,131.62 185,132.5C 185.758,134.769 185.591,136.936 184.5,139C 182.888,139.72 181.388,139.554 180,138.5C 179.297,136.071 179.463,133.738 180.5,131.5 Z"/></g>
<g><path style="opacity:1" fill="#a7d1e2" d="M 228.5,130.5 C 230.924,130.192 233.257,130.526 235.5,131.5C 233.979,131.88 232.313,132.046 230.5,132C 229.167,134.333 229.167,136.667 230.5,139C 232.313,138.954 233.979,139.12 235.5,139.5C 230.715,142.85 227.715,141.517 226.5,135.5C 226.902,133.7 227.569,132.033 228.5,130.5 Z"/></g>
<g><path style="opacity:1" fill="#abd5e5" d="M 248.5,130.5 C 257.979,130.619 259.646,134.119 253.5,141C 247.687,141.171 245.52,138.338 247,132.5C 247.717,131.956 248.217,131.289 248.5,130.5 Z"/></g>
<g><path style="opacity:1" fill="#236793" d="M 250.5,131.5 C 255.668,132.339 256.668,134.839 253.5,139C 251.567,139.783 250.067,139.283 249,137.5C 248.252,135.16 248.752,133.16 250.5,131.5 Z"/></g>
<g><path style="opacity:1" fill="#afd7e5" d="M 259.5,130.5 C 260.923,133.383 262.256,136.383 263.5,139.5C 264.086,139.291 264.586,138.957 265,138.5C 265.182,135.774 265.682,133.107 266.5,130.5C 268.024,134.27 267.691,137.77 265.5,141C 263.299,141.825 261.466,141.325 260,139.5C 259.502,136.518 259.335,133.518 259.5,130.5 Z"/></g>
<g><path style="opacity:1" fill="#97d6e8" d="M 139.5,156.5 C 141.337,156.639 141.67,157.306 140.5,158.5C 139.702,158.043 139.369,157.376 139.5,156.5 Z"/></g>
<g><path style="opacity:1" fill="#94cfe2" d="M 220.5,156.5 C 222.337,156.639 222.67,157.306 221.5,158.5C 220.702,158.043 220.369,157.376 220.5,156.5 Z"/></g>
<g><path style="opacity:1" fill="#afdae7" d="M 175.5,160.5 C 178.119,160.232 180.619,160.565 183,161.5C 183.821,164.554 183.655,167.554 182.5,170.5C 180.5,158.5 178.5,158.5 176.5,170.5C 175.513,167.232 175.18,163.898 175.5,160.5 Z"/></g>
<g><path style="opacity:1" fill="#90bdd3" d="M 215.5,155.5 C 216.809,157.571 217.475,160.071 217.5,163C 217.167,165.5 216.833,168 216.5,170.5C 215.506,165.544 215.173,160.544 215.5,155.5 Z"/></g>
<g><path style="opacity:1" fill="#afdae4" d="M 235.5,155.5 C 237.22,157.658 238.053,160.325 238,163.5C 239.113,161.671 240.613,160.837 242.5,161C 238.622,163.892 238.622,166.725 242.5,169.5C 240.671,170.282 239.171,169.616 238,167.5C 237.751,168.624 237.251,169.624 236.5,170.5C 235.506,165.544 235.173,160.544 235.5,155.5 Z"/></g>
<g><path style="opacity:1" fill="#caf7fe" d="M 147.5,161.5 C 146.912,164.61 146.245,167.61 145.5,170.5C 144.945,166.988 145.612,163.988 147.5,161.5 Z"/></g>
<g><path style="opacity:1" fill="#d1f1f6" d="M 147.5,161.5 C 147.5,161.167 147.5,160.833 147.5,160.5C 149.167,160.5 150.833,160.5 152.5,160.5C 152.665,163.85 152.498,167.183 152,170.5C 151.667,167.833 151.333,165.167 151,162.5C 149.989,161.663 148.822,161.33 147.5,161.5 Z"/></g>
<g><path style="opacity:1" fill="#97c6d8" d="M 139.5,160.5 C 140.777,161.694 141.444,163.36 141.5,165.5C 141.167,167.167 140.833,168.833 140.5,170.5C 139.513,167.232 139.18,163.898 139.5,160.5 Z"/></g>
<g><path style="opacity:1" fill="#81afc3" d="M 147.5,160.5 C 147.5,160.833 147.5,161.167 147.5,161.5C 145.612,163.988 144.945,166.988 145.5,170.5C 144.521,167.375 144.187,164.042 144.5,160.5C 145.5,160.5 146.5,160.5 147.5,160.5 Z"/></g>
<g><path style="opacity:1" fill="#b2dce9" d="M 206.5,160.5 C 208.604,160.201 210.604,160.534 212.5,161.5C 211.019,161.365 209.353,161.699 207.5,162.5C 206.09,164.949 206.424,167.116 208.5,169C 210.085,169.085 211.418,169.251 212.5,169.5C 204.414,170.853 202.414,167.853 206.5,160.5 Z"/></g>
<g><path style="opacity:1" fill="#aad4e4" d="M 187.5,160.5 C 193.07,159.006 196.07,161.006 196.5,166.5C 193.753,166.187 191.086,166.52 188.5,167.5C 188.709,168.086 189.043,168.586 189.5,169C 191.313,168.954 192.979,169.12 194.5,169.5C 189.363,171.869 186.363,170.369 185.5,165C 185.519,163.167 186.185,161.667 187.5,160.5 Z"/></g>
<g><path style="opacity:1" fill="#256b8a" d="M 189.5,161.5 C 191.346,161.222 192.68,161.889 193.5,163.5C 191.833,164.833 190.167,164.833 188.5,163.5C 188.863,162.817 189.196,162.15 189.5,161.5 Z"/></g>
<g><path style="opacity:1" fill="#9cd7ec" d="M 220.5,160.5 C 221.777,161.694 222.444,163.36 222.5,165.5C 222.167,167.167 221.833,168.833 221.5,170.5C 220.513,167.232 220.18,163.898 220.5,160.5 Z"/></g>
<g><path style="opacity:1" fill="#b7dbe8" d="M 164.5,160.5 C 172.486,159.998 174.486,163.165 170.5,170C 162.424,170.805 160.424,167.638 164.5,160.5 Z"/></g>
<g><path style="opacity:1" fill="#1b678f" d="M 165.5,161.5 C 167.144,161.286 168.644,161.62 170,162.5C 170.495,164.473 170.662,166.473 170.5,168.5C 168.5,168.5 166.5,168.5 164.5,168.5C 164.298,166.05 164.631,163.717 165.5,161.5 Z"/></g>
<g><path style="opacity:1" fill="#b7dae8" d="M 227.5,159.5 C 229.827,159.247 231.827,159.914 233.5,161.5C 231.979,161.88 230.313,162.046 228.5,162C 225.833,164.333 225.833,166.667 228.5,169C 230.085,169.085 231.418,169.251 232.5,169.5C 226.033,171.535 223.533,169.202 225,162.5C 226.045,161.627 226.878,160.627 227.5,159.5 Z"/></g>
<g><path style="opacity:1" fill="#155e83" d="M 297.5,232.5 C 222.819,231.762 148.152,231.762 73.5,232.5C 74.6085,231.71 75.9419,231.21 77.5,231C 151.006,230.246 224.339,230.746 297.5,232.5 Z"/></g>
<g><path style="opacity:1" fill="#425f6e" d="M 297.5,232.5 C 304.166,232.794 310.5,234.127 316.5,236.5C 312.452,236.16 308.452,235.494 304.5,234.5C 228.836,233.333 153.169,233.167 77.5,234C 71.9297,234.941 66.5963,236.441 61.5,238.5C 65.3104,235.999 69.3104,233.999 73.5,232.5C 148.152,231.762 222.819,231.762 297.5,232.5 Z"/></g>
<g><path style="opacity:1" fill="#798c9a" d="M 58.5,240.5 C 54.8592,243.805 51.1925,247.138 47.5,250.5C 49.8922,245.775 53.5588,242.442 58.5,240.5 Z"/></g>
<g><path style="opacity:1" fill="#434343" d="M 342.5,808.5 C 342.5,812.167 342.5,815.833 342.5,819.5C 339.5,819.5 336.5,819.5 333.5,819.5C 333.5,761.833 333.5,704.167 333.5,646.5C 333.5,540.167 333.5,433.833 333.5,327.5C 333.5,327.167 333.5,326.833 333.5,326.5C 333.5,309.5 333.5,292.5 333.5,275.5C 333.59,272.848 332.924,270.515 331.5,268.5C 327.226,254.067 317.56,245.9 302.5,244C 226.5,243.333 150.5,243.333 74.5,244C 60.8323,247.834 52.499,256.667 49.5,270.5C 48.71,271.609 48.21,272.942 48,274.5C 47.5,387.833 47.3333,501.166 47.5,614.5C 47.5,618.833 47.5,623.167 47.5,627.5C 46.5009,691.331 46.1675,755.331 46.5,819.5C 44.1667,819.5 41.8333,819.5 39.5,819.5C 40.4879,713.265 40.4879,607.098 39.5,501C 41.1009,426.909 41.9342,352.743 42,278.5C 42.7486,273.511 43.4153,268.511 44,263.5C 47.0048,259.161 49.1715,254.494 50.5,249.5C 51.5,249.5 52.5,249.5 53.5,249.5C 53.281,248.325 53.6143,247.325 54.5,246.5C 56.3031,245.863 57.6364,244.697 58.5,243C 63.174,241.579 67.674,239.746 72,237.5C 77.7957,236.731 83.6291,236.231 89.5,236C 128.167,235.333 166.833,235.333 205.5,236C 192.154,236.167 178.821,236.667 165.5,237.5C 174.167,237.833 182.833,238.167 191.5,238.5C 229.351,236.542 267.351,236.042 305.5,237C 312.503,238.888 319.17,241.555 325.5,245C 334.481,254.758 339.314,266.258 340,279.5C 340.333,456.167 340.667,632.833 341,809.5C 341.383,808.944 341.883,808.611 342.5,808.5 Z"/></g>
<g><path style="opacity:1" fill="#8ea0a9" d="M 47.5,250.5 C 42.8446,258.157 40.178,266.49 39.5,275.5C 38.8333,282.167 38.1667,288.833 37.5,295.5C 37.3336,286.827 37.5002,278.16 38,269.5C 39.6107,262.278 42.7774,255.945 47.5,250.5 Z"/></g>
<g><path style="opacity:1" fill="#6c8087" d="M 338.5,257.5 C 339.79,258.058 340.623,259.058 341,260.5C 344.115,272.291 345.282,284.291 344.5,296.5C 344.574,283.288 342.574,270.288 338.5,257.5 Z"/></g>
<g><path style="opacity:1" fill="#504f4e" d="M 316.5,236.5 C 321.086,239.145 325.419,242.312 329.5,246C 330.448,246.483 331.448,246.649 332.5,246.5C 334.766,250.034 336.766,253.7 338.5,257.5C 342.574,270.288 344.574,283.288 344.5,296.5C 344.5,297.833 344.5,299.167 344.5,300.5C 342.895,469.664 342.229,638.997 342.5,808.5C 341.883,808.611 341.383,808.944 341,809.5C 340.667,632.833 340.333,456.167 340,279.5C 339.314,266.258 334.481,254.758 325.5,245C 319.17,241.555 312.503,238.888 305.5,237C 267.351,236.042 229.351,236.542 191.5,238.5C 182.833,238.167 174.167,237.833 165.5,237.5C 178.821,236.667 192.154,236.167 205.5,236C 166.833,235.333 128.167,235.333 89.5,236C 83.6291,236.231 77.7957,236.731 72,237.5C 67.674,239.746 63.174,241.579 58.5,243C 57.6364,244.697 56.3031,245.863 54.5,246.5C 53.6143,247.325 53.281,248.325 53.5,249.5C 52.5,249.5 51.5,249.5 50.5,249.5C 49.1715,254.494 47.0048,259.161 44,263.5C 43.4153,268.511 42.7486,273.511 42,278.5C 41.9342,352.743 41.1009,426.909 39.5,501C 40.4879,607.098 40.4879,713.265 39.5,819.5C 38.8333,819.5 38.1667,819.5 37.5,819.5C 37.4923,690.499 37.8256,561.499 38.5,432.5C 39.4989,380.336 39.8323,328.003 39.5,275.5C 40.178,266.49 42.8446,258.157 47.5,250.5C 51.1925,247.138 54.8592,243.805 58.5,240.5C 58.9731,239.094 59.9731,238.427 61.5,238.5C 66.5963,236.441 71.9297,234.941 77.5,234C 153.169,233.167 228.836,233.333 304.5,234.5C 308.452,235.494 312.452,236.16 316.5,236.5 Z"/></g>
<g><path style="opacity:1" fill="#b3b3b3" d="M 331.5,268.5 C 332.924,270.515 333.59,272.848 333.5,275.5C 332.076,273.485 331.41,271.152 331.5,268.5 Z"/></g>
<g><path style="opacity:1" fill="#fdfdfd" d="M 331.5,268.5 C 331.41,271.152 332.076,273.485 333.5,275.5C 333.5,292.5 333.5,309.5 333.5,326.5C 311.167,326.5 288.833,326.5 266.5,326.5C 266.667,311.163 266.5,295.83 266,280.5C 264.517,295.677 264.017,311.011 264.5,326.5C 239.134,326.805 213.801,326.472 188.5,325.5C 188.983,310.344 188.483,295.344 187,280.5C 186.5,295.496 186.333,310.496 186.5,325.5C 155.167,325.5 123.833,325.5 92.5,325.5C 92.1667,265.5 91.8333,265.5 91.5,325.5C 77.5,325.5 63.5,325.5 49.5,325.5C 49.5,307.167 49.5,288.833 49.5,270.5C 52.499,256.667 60.8323,247.834 74.5,244C 150.5,243.333 226.5,243.333 302.5,244C 317.56,245.9 327.226,254.067 331.5,268.5 Z"/></g>
<g><path style="opacity:1" fill="#737373" d="M 322.5,298.5 C 323.835,303.535 325.001,303.535 326,298.5C 326.494,300.134 326.66,301.801 326.5,303.5C 325.167,303.5 323.833,303.5 322.5,303.5C 322.5,301.833 322.5,300.167 322.5,298.5 Z"/></g>
<g><path style="opacity:1" fill="#797979" d="M 274.5,302.5 C 279.214,302.173 283.88,302.507 288.5,303.5C 286.167,303.833 283.833,304.167 281.5,304.5C 278.731,304.471 276.397,303.805 274.5,302.5 Z"/></g>
<g><path style="opacity:1" fill="#828282" d="M 310.5,297.5 C 313.5,297.167 314.833,298.5 314.5,301.5C 310.107,301.457 309.774,301.957 313.5,303C 308.289,303.546 307.289,301.713 310.5,297.5 Z"/></g>
<g><path style="opacity:1" fill="#8c8c8c" d="M 315.5,297.5 C 317.167,297.5 318.833,297.5 320.5,297.5C 320.662,299.527 320.495,301.527 320,303.5C 319.091,298.27 317.925,298.27 316.5,303.5C 315.534,301.604 315.201,299.604 315.5,297.5 Z"/></g>
<g><path style="opacity:1" fill="#858585" d="M 274.5,298.5 C 279.214,298.173 283.88,298.507 288.5,299.5C 286.167,299.833 283.833,300.167 281.5,300.5C 278.731,300.471 276.397,299.805 274.5,298.5 Z"/></g>
<g><path style="opacity:1" fill="#777777" d="M 298.5,295.5 C 300.888,296.219 302.388,297.885 303,300.5C 304.167,298.833 305.333,297.167 306.5,295.5C 307.652,298.106 307.818,300.773 307,303.5C 306.667,302.167 306.333,300.833 306,299.5C 305,300.833 304,302.167 303,303.5C 302.333,302.167 301.667,300.833 301,299.5C 300.781,300.938 300.281,302.271 299.5,303.5C 298.52,300.914 298.187,298.247 298.5,295.5 Z"/></g>
<g><path style="opacity:1" fill="#868686" d="M 274.5,294.5 C 279.214,294.173 283.88,294.507 288.5,295.5C 286.167,295.833 283.833,296.167 281.5,296.5C 278.731,296.471 276.397,295.805 274.5,294.5 Z"/></g>
<g><path style="opacity:1" fill="#424242" d="M 221.5,254.5 C 229.523,257.255 231.69,262.589 228,270.5C 226.786,272.049 225.286,273.215 223.5,274C 201.167,274.667 178.833,274.667 156.5,274C 150.457,270.206 148.957,265.04 152,258.5C 153.039,257.29 154.206,256.29 155.5,255.5C 156.496,255.414 157.329,255.748 158,256.5C 178.935,254.518 200.101,253.851 221.5,254.5 Z"/></g>
<g><path style="opacity:1" fill="#5a5a5a" d="M 221.5,254.5 C 200.101,253.851 178.935,254.518 158,256.5C 157.329,255.748 156.496,255.414 155.5,255.5C 155.918,254.778 156.584,254.278 157.5,254C 179.004,253.171 200.337,253.337 221.5,254.5 Z"/></g>
<g><path style="opacity:1" fill="#e9e9e9" d="M 49.5,270.5 C 49.5,288.833 49.5,307.167 49.5,325.5C 63.5,325.5 77.5,325.5 91.5,325.5C 91.8333,265.5 92.1667,265.5 92.5,325.5C 123.833,325.5 155.167,325.5 186.5,325.5C 186.333,310.496 186.5,295.496 187,280.5C 188.483,295.344 188.983,310.344 188.5,325.5C 213.801,326.472 239.134,326.805 264.5,326.5C 264.017,311.011 264.517,295.677 266,280.5C 266.5,295.83 266.667,311.163 266.5,326.5C 288.833,326.5 311.167,326.5 333.5,326.5C 333.5,326.833 333.5,327.167 333.5,327.5C 238.833,327.5 144.167,327.5 49.5,327.5C 48.9318,423.332 48.2652,518.998 47.5,614.5C 47.3333,501.166 47.5,387.833 48,274.5C 48.21,272.942 48.71,271.609 49.5,270.5 Z"/></g>
<g><path style="opacity:1" fill="#9e433d" d="M 106.5,285.5 C 116.167,285.5 125.833,285.5 135.5,285.5C 135.5,295.167 135.5,304.833 135.5,314.5C 134.833,314.5 134.167,314.5 133.5,314.5C 133.5,305.167 133.5,295.833 133.5,286.5C 124.833,286.5 116.167,286.5 107.5,286.5C 107.5,295.5 107.5,304.5 107.5,313.5C 116.017,313.174 124.35,313.507 132.5,314.5C 123.833,314.5 115.167,314.5 106.5,314.5C 106.5,304.833 106.5,295.167 106.5,285.5 Z"/></g>
<g><path style="opacity:1" fill="#7ea4b7" d="M 71.5,291.5 C 72.3764,291.369 73.0431,291.702 73.5,292.5C 70.312,294.854 67.6453,297.688 65.5,301C 68,303.5 70.5,306 73,308.5C 73.6877,309.332 73.521,309.998 72.5,310.5C 68.9668,307.801 65.9668,304.634 63.5,301C 65.9882,297.679 68.6549,294.512 71.5,291.5 Z"/></g>
<g><path style="opacity:1" fill="#828282" d="M 252.5,295.5 C 253.267,296.172 253.934,297.005 254.5,298C 253.167,299.667 253.167,301.333 254.5,303C 254.167,303.167 253.833,303.333 253.5,303.5C 252.702,301.922 252.202,300.256 252,298.5C 252.209,302.459 250.375,304.126 246.5,303.5C 246.363,296.374 247.03,296.041 248.5,302.5C 249.452,300.955 249.785,299.288 249.5,297.5C 251.179,297.715 252.179,297.048 252.5,295.5 Z"/></g>
<g><path style="opacity:1" fill="#7e7e7e" d="M 240.5,297.5 C 244.521,297.244 245.854,298.91 244.5,302.5C 239.733,303.899 238.4,302.232 240.5,297.5 Z"/></g>
<g><path style="opacity:1" fill="#8f8f8f" d="M 229.5,297.5 C 231.167,297.5 232.833,297.5 234.5,297.5C 234.813,300.247 234.48,302.914 233.5,305.5C 231.657,306.939 229.99,306.772 228.5,305C 233.103,305.063 233.27,304.229 229,302.5C 228.36,300.735 228.527,299.068 229.5,297.5 Z"/></g>
<g><path style="opacity:1" fill="#7f7f7f" d="M 222.5,297.5 C 227.159,297.015 228.492,298.848 226.5,303C 221.728,303.81 220.395,301.977 222.5,297.5 Z"/></g>
<g><path style="opacity:1" fill="#eeeeee" d="M 241.5,298.5 C 242.586,298.62 243.253,299.287 243.5,300.5C 242.696,302.957 241.696,302.957 240.5,300.5C 240.863,299.817 241.196,299.15 241.5,298.5 Z"/></g>
<g><path style="opacity:1" fill="#e0e0e0" d="M 230.5,298.5 C 231.586,298.62 232.253,299.287 232.5,300.5C 231.696,302.957 230.696,302.957 229.5,300.5C 229.863,299.817 230.196,299.15 230.5,298.5 Z"/></g>
<g><path style="opacity:1" fill="#e0e0e0" d="M 223.5,298.5 C 226.861,299.203 227.194,300.537 224.5,302.5C 222.358,301.563 222.024,300.23 223.5,298.5 Z"/></g>
<g><path style="opacity:1" fill="#868686" d="M 206.5,294.5 C 210.593,296.258 211.259,298.758 208.5,302C 206.095,302.281 206.095,301.615 208.5,300C 195.167,299.333 195.167,298.667 208.5,298C 207.177,297.184 206.511,296.017 206.5,294.5 Z"/></g>
<g><path style="opacity:1" fill="#9f9f9f" d="M 195.5,291.5 C 198.5,291.5 201.5,291.5 204.5,291.5C 204.657,292.873 204.49,294.207 204,295.5C 201.894,293.709 199.394,293.042 196.5,293.5C 196.5,297.5 196.5,301.5 196.5,305.5C 198.833,305.5 201.167,305.5 203.5,305.5C 204.045,301.828 204.378,302.162 204.5,306.5C 201.167,306.5 197.833,306.5 194.5,306.5C 194.221,301.405 194.555,296.405 195.5,291.5 Z"/></g>
<g><path style="opacity:1" fill="#959595" d="M 216.5,294.5 C 217.9,297.178 219.234,300.011 220.5,303C 219.207,303.49 217.873,303.657 216.5,303.5C 216.5,300.5 216.5,297.5 216.5,294.5 Z"/></g>
<g><path style="opacity:1" fill="#ddb4af" d="M 106.5,285.5 C 116.319,284.506 126.319,284.173 136.5,284.5C 136.827,294.681 136.494,304.681 135.5,314.5C 135.5,304.833 135.5,295.167 135.5,285.5C 125.833,285.5 116.167,285.5 106.5,285.5 Z"/></g>
<g><path style="opacity:1" fill="#a63b32" d="M 133.5,314.5 C 133.167,314.5 132.833,314.5 132.5,314.5C 124.35,313.507 116.017,313.174 107.5,313.5C 107.5,304.5 107.5,295.5 107.5,286.5C 116.167,286.5 124.833,286.5 133.5,286.5C 133.5,295.833 133.5,305.167 133.5,314.5 Z"/></g>
<g><path style="opacity:1" fill="#b25e57" d="M 116.5,297.5 C 116.863,301.021 117.529,304.688 118.5,308.5C 119.5,308.5 120.5,308.5 121.5,308.5C 121.5,306.833 121.5,305.167 121.5,303.5C 125.335,302.996 125.335,301.996 121.5,300.5C 122.689,299.571 124.022,299.238 125.5,299.5C 125.5,301.167 125.5,302.833 125.5,304.5C 124.5,304.5 123.5,304.5 122.5,304.5C 122.5,306.167 122.5,307.833 122.5,309.5C 120.5,309.833 118.5,310.167 116.5,310.5C 115.876,305.982 115.876,301.648 116.5,297.5 Z"/></g>
<g><path style="opacity:1" fill="#f6e4e0" d="M 125.5,299.5 C 124.022,299.238 122.689,299.571 121.5,300.5C 125.335,301.996 125.335,302.996 121.5,303.5C 121.5,305.167 121.5,306.833 121.5,308.5C 120.5,308.5 119.5,308.5 118.5,308.5C 117.529,304.688 116.863,301.021 116.5,297.5C 117.461,295.735 117.795,293.735 117.5,291.5C 120.5,291.5 123.5,291.5 126.5,291.5C 126.5,292.5 126.5,293.5 126.5,294.5C 124.833,294.5 123.167,294.5 121.5,294.5C 121.5,295.5 121.5,296.5 121.5,297.5C 123.288,297.215 124.955,297.548 126.5,298.5C 126.376,299.107 126.043,299.44 125.5,299.5 Z"/></g>
<g><path style="opacity:1" fill="#fdfdfd" d="M 333.5,327.5 C 333.5,433.833 333.5,540.167 333.5,646.5C 332.501,689.997 332.168,733.663 332.5,777.5C 282.511,776.548 232.511,776.214 182.5,776.5C 137.5,776.5 92.5,776.5 47.5,776.5C 47.5,726.833 47.5,677.167 47.5,627.5C 47.5,623.167 47.5,618.833 47.5,614.5C 48.2652,518.998 48.9318,423.332 49.5,327.5C 144.167,327.5 238.833,327.5 333.5,327.5 Z"/></g>
<g><path style="opacity:1" fill="#165f84" d="M 345.5,819.5 C 345.167,819.5 344.833,819.5 344.5,819.5C 344.5,646.5 344.5,473.5 344.5,300.5C 344.5,299.167 344.5,297.833 344.5,296.5C 345.282,284.291 344.115,272.291 341,260.5C 340.623,259.058 339.79,258.058 338.5,257.5C 336.766,253.7 334.766,250.034 332.5,246.5C 334.074,246.063 335.241,245.063 336,243.5C 336.5,244 337,244.5 337.5,245C 335.789,246.133 335.289,247.633 336,249.5C 337.41,250.787 338.91,251.954 340.5,253C 339.269,254.183 339.269,255.349 340.5,256.5C 341.167,255.833 341.833,255.167 342.5,254.5C 342.833,254.833 343.167,255.167 343.5,255.5C 342.277,261.219 343.11,266.885 346,272.5C 346.221,281.528 346.721,290.528 347.5,299.5C 346.838,335.488 346.504,371.488 346.5,407.5C 346.57,412.42 347.237,417.254 348.5,422C 347.922,423.811 347.422,425.645 347,427.5C 346.333,444.5 346.333,461.5 347,478.5C 349.126,483.006 348.793,487.339 346,491.5C 345.5,600.833 345.333,710.166 345.5,819.5 Z"/></g>
<g><path style="opacity:1" fill="#494949" d="M 132.5,356.5 C 131.508,356.672 130.842,356.338 130.5,355.5C 131.623,354.243 132.289,354.576 132.5,356.5 Z"/></g>
<g><path style="opacity:1" fill="#7d7d7d" d="M 101.5,353.5 C 102.5,353.5 103.5,353.5 104.5,353.5C 104.5,359.5 104.5,365.5 104.5,371.5C 103.5,371.5 102.5,371.5 101.5,371.5C 101.5,365.5 101.5,359.5 101.5,353.5 Z"/></g>
<g><path style="opacity:1" fill="#c0c0c0" d="M 225.5,359.5 C 224.732,358.737 224.232,357.737 224,356.5C 223.215,358.249 222.382,359.916 221.5,361.5C 220.833,361.5 220.167,361.5 219.5,361.5C 219.5,360.167 218.833,359.5 217.5,359.5C 218.919,358.549 220.585,358.216 222.5,358.5C 222.5,357.5 222.5,356.5 222.5,355.5C 223.5,355.5 224.5,355.5 225.5,355.5C 225.5,356.833 225.5,358.167 225.5,359.5 Z"/></g>
<g><path style="opacity:1" fill="#3c3c3c" d="M 97.5,359.5 C 97.6655,363.514 97.4988,367.514 97,371.5C 96.2086,370.255 95.7086,368.922 95.5,367.5C 96.4728,362.994 94.8061,360.828 90.5,361C 86.5518,363.916 86.5518,366.75 90.5,369.5C 93.2583,370.967 92.925,371.633 89.5,371.5C 84.6301,368.103 84.2968,364.269 88.5,360C 91.6634,359.896 94.6634,359.729 97.5,359.5 Z"/></g>
<g><path style="opacity:1" fill="#424242" d="M 126.5,360.5 C 126.631,361.376 126.298,362.043 125.5,362.5C 123.751,359.873 122.084,359.873 120.5,362.5C 122.153,364.121 124.153,365.288 126.5,366C 127.337,367.011 127.67,368.178 127.5,369.5C 125.205,371.385 122.538,371.885 119.5,371C 118.289,370.107 118.289,369.274 119.5,368.5C 120.85,369.95 122.516,370.617 124.5,370.5C 124.5,369.167 124.5,367.833 124.5,366.5C 120.016,366.711 118.183,364.711 119,360.5C 121.498,359.221 123.998,359.221 126.5,360.5 Z"/></g>
<g><path style="opacity:1" fill="#ededed" d="M 95.5,367.5 C 94.2209,368.968 92.5542,369.635 90.5,369.5C 86.5518,366.75 86.5518,363.916 90.5,361C 94.8061,360.828 96.4728,362.994 95.5,367.5 Z"/></g>
<g><path style="opacity:1" fill="#e4e4e4" d="M 130.5,355.5 C 130.842,356.338 131.508,356.672 132.5,356.5C 132.082,357.222 131.416,357.722 130.5,358C 131.416,358.278 132.082,358.778 132.5,359.5C 130.577,363.029 129.911,367.029 130.5,371.5C 129.778,370.449 128.778,369.782 127.5,369.5C 127.67,368.178 127.337,367.011 126.5,366C 124.153,365.288 122.153,364.121 120.5,362.5C 122.084,359.873 123.751,359.873 125.5,362.5C 126.298,362.043 126.631,361.376 126.5,360.5C 127.397,361.598 128.23,361.598 129,360.5C 129.198,358.618 129.698,356.952 130.5,355.5 Z"/></g>
<g><path style="opacity:1" fill="#414141" d="M 136.5,359.5 C 138.527,359.338 140.527,359.505 142.5,360C 143.711,360.893 143.711,361.726 142.5,362.5C 140.751,359.873 139.084,359.873 137.5,362.5C 139.22,363.92 141.054,365.253 143,366.5C 144.24,369.906 143.073,371.573 139.5,371.5C 136.524,371.87 135.524,370.87 136.5,368.5C 137.85,369.95 139.516,370.617 141.5,370.5C 141.5,369.167 141.5,367.833 141.5,366.5C 136.204,366.557 134.538,364.223 136.5,359.5 Z"/></g>
<g><path style="opacity:1" fill="#3c3c3c" d="M 76.5,360.5 C 75.8998,364.129 75.2332,367.796 74.5,371.5C 73.3401,367.541 73.1735,363.541 74,359.5C 74.6708,360.252 75.5041,360.586 76.5,360.5 Z"/></g>
<g><path style="opacity:1" fill="#494949" d="M 171.5,359.5 C 177.434,358.283 180.434,360.616 180.5,366.5C 177.102,366.18 173.768,366.513 170.5,367.5C 170.709,368.086 171.043,368.586 171.5,369C 174.332,369.212 176.998,369.379 179.5,369.5C 175.692,373.684 172.192,373.35 169,368.5C 167.927,364.9 168.76,361.9 171.5,359.5 Z"/></g>
<g><path style="opacity:1" fill="#ececec" d="M 171.5,361.5 C 173.527,361.338 175.527,361.505 177.5,362C 177.957,362.414 178.291,362.914 178.5,363.5C 175.833,364.833 173.167,364.833 170.5,363.5C 170.863,362.817 171.196,362.15 171.5,361.5 Z"/></g>
<g><path style="opacity:1" fill="#444444" d="M 225.5,359.5 C 226.833,360.167 226.833,360.833 225.5,361.5C 224.842,362.793 224.508,364.293 224.5,366C 224.569,367.986 225.235,369.486 226.5,370.5C 225.432,371.434 224.099,371.768 222.5,371.5C 222.813,367.958 222.479,364.625 221.5,361.5C 222.382,359.916 223.215,358.249 224,356.5C 224.232,357.737 224.732,358.737 225.5,359.5 Z"/></g>
<g><path style="opacity:1" fill="#414141" d="M 76.5,360.5 C 78.2232,359.193 80.0565,359.193 82,360.5C 82.8253,364.211 82.6586,367.878 81.5,371.5C 80.6764,368.215 80.1764,364.882 80,361.5C 78.9887,360.663 77.8221,360.33 76.5,360.5 Z"/></g>
<g><path style="opacity:1" fill="#404040" d="M 187.5,371.5 C 187.44,370.957 187.107,370.624 186.5,370.5C 185.692,372.423 185.192,374.423 185,376.5C 184.183,370.984 184.349,365.65 185.5,360.5C 193.959,357.79 197.125,360.79 195,369.5C 193.047,372.446 190.547,373.113 187.5,371.5 Z"/></g>
<g><path style="opacity:1" fill="#f2f2f2" d="M 187.5,361.5 C 193.067,360.753 194.9,363.087 193,368.5C 191.477,370.62 189.644,370.953 187.5,369.5C 186.271,366.801 186.271,364.135 187.5,361.5 Z"/></g>
<g><path style="opacity:1" fill="#515151" d="M 217.5,359.5 C 218.833,359.5 219.5,360.167 219.5,361.5C 217.983,361.511 216.816,362.177 216,363.5C 215.818,366.226 215.318,368.893 214.5,371.5C 213.509,367.555 213.176,363.555 213.5,359.5C 214.833,359.5 216.167,359.5 217.5,359.5 Z"/></g>
<g><path style="opacity:1" fill="#b3b3b3" d="M 225.5,361.5 C 225.264,364.609 225.597,367.609 226.5,370.5C 225.235,369.486 224.569,367.986 224.5,366C 224.508,364.293 224.842,362.793 225.5,361.5 Z"/></g>
<g><path style="opacity:1" fill="#404040" d="M 61.5,353.5 C 63.9115,353.137 65.4115,354.137 66,356.5C 67.4964,360.989 68.9964,365.489 70.5,370C 70.1667,370.5 69.8333,371 69.5,371.5C 66.764,367.663 63.0973,366.663 58.5,368.5C 58.0814,369.672 57.4147,370.672 56.5,371.5C 56.1667,371 55.8333,370.5 55.5,370C 57.5921,364.559 59.5921,359.059 61.5,353.5 Z"/></g>
<g><path style="opacity:1" fill="#e3e3e3" d="M 62.5,357.5 C 64.1903,359.504 65.5236,361.837 66.5,364.5C 64.604,365.466 62.604,365.799 60.5,365.5C 60.5597,362.659 61.2264,359.993 62.5,357.5 Z"/></g>
<g><path style="opacity:1" fill="#404040" d="M 106.5,359.5 C 107.496,359.414 108.329,359.748 109,360.5C 110.22,368.955 111.887,369.288 114,361.5C 115.065,359.604 115.898,359.437 116.5,361C 114.299,366.566 111.966,372.066 109.5,377.5C 109.167,377 108.833,376.5 108.5,376C 109.167,374.333 109.833,372.667 110.5,371C 109.013,367.199 107.68,363.365 106.5,359.5 Z"/></g>
<g><path style="opacity:1" fill="#3c3c3c" d="M 155.5,354.5 C 159.603,353.769 163.103,354.769 166,357.5C 166.536,361.169 165.036,363.836 161.5,365.5C 162.982,367.483 164.649,369.316 166.5,371C 165.5,371.667 164.5,371.667 163.5,371C 162.023,368.555 160.19,366.388 158,364.5C 157.814,366.9 157.314,369.234 156.5,371.5C 155.505,365.872 155.171,360.206 155.5,354.5 Z"/></g>
<g><path style="opacity:1" fill="#e5e5e5" d="M 157.5,355.5 C 162.906,354.735 164.906,357.069 163.5,362.5C 161.5,362.5 159.5,362.5 157.5,362.5C 157.5,360.167 157.5,357.833 157.5,355.5 Z"/></g>
<g><path style="opacity:1" fill="#5b5b5b" d="M 132.5,359.5 C 133.089,363.971 132.423,367.971 130.5,371.5C 129.911,367.029 130.577,363.029 132.5,359.5 Z"/></g>
<g><path style="opacity:1" fill="#3c3c3c" d="M 201.5,359.5 C 208.327,358.825 211.16,361.825 210,368.5C 206.645,373.31 202.979,373.644 199,369.5C 197.861,365.579 198.695,362.246 201.5,359.5 Z"/></g>
<g><path style="opacity:1" fill="#e9e9e9" d="M 201.5,361.5 C 208.486,361.331 210.153,364.164 206.5,370C 204.299,370.825 202.466,370.325 201,368.5C 200.297,366.071 200.463,363.738 201.5,361.5 Z"/></g>
<g><path style="opacity:1" fill="#8f8f8f" d="M 97.5,359.5 C 98.4849,363.634 98.8182,367.968 98.5,372.5C 96.8762,372.64 95.7096,371.973 95,370.5C 93.3221,372.553 91.4888,372.887 89.5,371.5C 92.925,371.633 93.2583,370.967 90.5,369.5C 92.5542,369.635 94.2209,368.968 95.5,367.5C 95.7086,368.922 96.2086,370.255 97,371.5C 97.4988,367.514 97.6655,363.514 97.5,359.5 Z"/></g>
<g><path style="opacity:1" fill="#6f6f6f" d="M 185.5,360.5 C 184.349,365.65 184.183,370.984 185,376.5C 185.192,374.423 185.692,372.423 186.5,370.5C 187.107,370.624 187.44,370.957 187.5,371.5C 186.539,373.265 186.205,375.265 186.5,377.5C 185.5,377.5 184.5,377.5 183.5,377.5C 183.171,371.463 183.504,365.463 184.5,359.5C 185.107,359.624 185.44,359.957 185.5,360.5 Z"/></g>
<g><path style="opacity:1" fill="#65635f" d="M 39.5,275.5 C 39.8323,328.003 39.4989,380.336 38.5,432.5C 38.8321,387.997 38.4987,343.664 37.5,299.5C 37.5,298.167 37.5,296.833 37.5,295.5C 38.1667,288.833 38.8333,282.167 39.5,275.5 Z"/></g>
<g><path style="opacity:1" fill="#f0f0f0" d="M 54.5,399.5 C 145.166,400.093 235.832,400.593 326.5,401C 281.167,401.167 235.833,401.333 190.5,401.5C 144.828,401.5 99.4951,400.833 54.5,399.5 Z"/></g>
<g><path style="opacity:1" fill="#7191a9" d="M 314.5,411.5 C 318.53,412.367 321.03,414.7 322,418.5C 320.281,416.443 318.281,414.776 316,413.5C 313.369,414.963 311.202,416.963 309.5,419.5C 308.479,418.998 308.312,418.332 309,417.5C 311.04,415.63 312.873,413.63 314.5,411.5 Z"/></g>
<g><path style="opacity:1" fill="#414141" d="M 83.5,450.5 C 83.552,448.097 83.2186,445.764 82.5,443.5C 83.2216,443.082 83.7216,442.416 84,441.5C 84.8045,444.696 84.6378,447.696 83.5,450.5 Z"/></g>
<g><path style="opacity:1" fill="#7f7f7f" d="M 131.5,444.5 C 131.5,446.5 131.5,448.5 131.5,450.5C 130.307,450.03 129.64,449.03 129.5,447.5C 129.64,445.97 130.307,444.97 131.5,444.5 Z"/></g>
<g><path style="opacity:1" fill="#656565" d="M 134.5,443.5 C 137.321,443.316 138.988,444.649 139.5,447.5C 137.106,452.808 134.773,452.808 132.5,447.5C 132.752,445.927 133.418,444.594 134.5,443.5 Z"/></g>
<g><path style="opacity:1" fill="#b0b0b0" d="M 57.5,444.5 C 57.9046,445.55 58.5712,445.55 59.5,444.5C 60.3857,445.325 60.719,446.325 60.5,447.5C 59.0413,447.567 57.7079,447.234 56.5,446.5C 56.3284,445.508 56.6618,444.842 57.5,444.5 Z"/></g>
<g><path style="opacity:1" fill="#7c7c7c" d="M 82.5,443.5 C 83.2186,445.764 83.552,448.097 83.5,450.5C 82.7321,449.737 82.2321,448.737 82,447.5C 81.5172,448.448 81.3505,449.448 81.5,450.5C 79.4086,450.682 77.4086,450.348 75.5,449.5C 73.3591,452.019 71.3591,452.019 69.5,449.5C 70.0253,448.808 70.6919,448.308 71.5,448C 68.7133,446.093 68.88,444.593 72,443.5C 73.2613,443.759 74.2613,444.426 75,445.5C 77.4222,443.621 79.9222,442.954 82.5,443.5 Z"/></g>
<g><path style="opacity:1" fill="#4d4c4d" d="M 119.5,444.5 C 119.833,444.5 120.167,444.5 120.5,444.5C 121.833,444.5 123.167,444.5 124.5,444.5C 124.5,446.5 124.5,448.5 124.5,450.5C 122.833,450.5 121.167,450.5 119.5,450.5C 118.167,448.5 118.167,446.5 119.5,444.5 Z"/></g>
<g><path style="opacity:1" fill="#bfbfbf" d="M 120.5,444.5 C 122.265,443.539 124.265,443.205 126.5,443.5C 126.279,446.279 126.612,448.946 127.5,451.5C 124.615,451.806 121.948,451.473 119.5,450.5C 121.167,450.5 122.833,450.5 124.5,450.5C 124.5,448.5 124.5,446.5 124.5,444.5C 123.167,444.5 121.833,444.5 120.5,444.5 Z"/></g>
<g><path style="opacity:1" fill="#686868" d="M 117.5,444.5 C 114.741,444.933 113.408,446.6 113.5,449.5C 115.099,449.232 116.432,449.566 117.5,450.5C 115.234,450.859 113.401,450.192 112,448.5C 108.794,452.702 106.294,452.369 104.5,447.5C 106.294,442.631 108.794,442.298 112,446.5C 113.289,443.926 115.122,443.259 117.5,444.5 Z"/></g>
<g><path style="opacity:1" fill="#f2f2f2" d="M 106.5,445.5 C 107.5,445.5 108.5,445.5 109.5,445.5C 109.5,446.833 109.5,448.167 109.5,449.5C 108.5,449.5 107.5,449.5 106.5,449.5C 106.5,448.167 106.5,446.833 106.5,445.5 Z"/></g>
<g><path style="opacity:1" fill="#e7e7e7" d="M 120.5,445.5 C 121.5,445.5 122.5,445.5 123.5,445.5C 123.5,446.833 123.5,448.167 123.5,449.5C 120.046,449.733 119.046,448.4 120.5,445.5 Z"/></g>
<g><path style="opacity:1" fill="#6e6e6e" d="M 128.5,443.5 C 128.5,446.167 128.5,448.833 128.5,451.5C 128.167,451.5 127.833,451.5 127.5,451.5C 126.612,448.946 126.279,446.279 126.5,443.5C 126.938,442.494 127.604,442.494 128.5,443.5 Z"/></g>
<g><path style="opacity:1" fill="#ebebeb" d="M 134.5,445.5 C 135.5,445.5 136.5,445.5 137.5,445.5C 137.5,446.833 137.5,448.167 137.5,449.5C 134.046,449.733 133.046,448.4 134.5,445.5 Z"/></g>
<g><path style="opacity:1" fill="#4f4f4f" d="M 140.5,444.5 C 142.167,444.5 143.833,444.5 145.5,444.5C 145.662,446.527 145.495,448.527 145,450.5C 144.506,448.866 144.34,447.199 144.5,445.5C 143.5,445.5 142.5,445.5 141.5,445.5C 141.66,447.199 141.494,448.866 141,450.5C 140.505,448.527 140.338,446.527 140.5,444.5 Z"/></g>
<g><path style="opacity:1" fill="#4d4d4d" d="M 97.5,449.5 C 97.5,450.167 97.1667,450.5 96.5,450.5C 96.2089,449.351 95.3756,448.684 94,448.5C 92.4148,449.245 90.9148,449.745 89.5,450C 90.6933,447.113 92.0266,444.28 93.5,441.5C 95.8868,443.607 97.2201,446.273 97.5,449.5 Z"/></g>
<g><path style="opacity:1" fill="#a5a4a5" d="M 93.5,444.5 C 95.6246,445.368 95.7913,446.368 94,447.5C 92.3167,446.824 92.1501,445.824 93.5,444.5 Z"/></g>
<g><path style="opacity:1" fill="#c6c6c6" d="M 117.5,444.5 C 118.167,444.5 118.833,444.5 119.5,444.5C 118.167,446.5 118.167,448.5 119.5,450.5C 118.833,450.5 118.167,450.5 117.5,450.5C 116.432,449.566 115.099,449.232 113.5,449.5C 113.408,446.6 114.741,444.933 117.5,444.5 Z"/></g>
<g><path style="opacity:1" fill="#959fa1" d="M 37.5,299.5 C 38.4987,343.664 38.8321,387.997 38.5,432.5C 37.8256,561.499 37.4923,690.499 37.5,819.5C 36.8333,819.5 36.1667,819.5 35.5,819.5C 36.0955,646.166 36.7621,472.833 37.5,299.5 Z"/></g>
<g><path style="opacity:1" fill="#5d5d5d" d="M 56.5,446.5 C 57.7079,447.234 59.0413,447.567 60.5,447.5C 60.719,446.325 60.3857,445.325 59.5,444.5C 58.5712,445.55 57.9046,445.55 57.5,444.5C 57.4148,443.005 58.0815,442.005 59.5,441.5C 61.3274,443.487 62.3274,445.821 62.5,448.5C 64.2259,448.815 65.8925,448.981 67.5,449C 65.9386,448.059 64.6053,446.892 63.5,445.5C 65.1667,442.833 66.8333,442.833 68.5,445.5C 67.9478,447.003 67.9478,448.669 68.5,450.5C 65.3056,450.73 62.3056,450.064 59.5,448.5C 57.9707,448.529 56.804,449.196 56,450.5C 55.4209,449.072 55.5876,447.738 56.5,446.5 Z"/></g>
<g><path style="opacity:1" fill="#808080" d="M 96.5,450.5 C 97.1667,450.5 97.5,450.167 97.5,449.5C 98.1657,446.972 98.8324,444.306 99.5,441.5C 100.487,444.768 100.82,448.102 100.5,451.5C 98.901,451.768 97.5676,451.434 96.5,450.5 Z"/></g>
<g><path style="opacity:1" fill="#c8c8c8" d="M 131.5,444.5 C 130.307,444.97 129.64,445.97 129.5,447.5C 129.64,449.03 130.307,450.03 131.5,450.5C 130.791,451.404 129.791,451.737 128.5,451.5C 128.5,448.833 128.5,446.167 128.5,443.5C 130.306,440.662 131.306,440.995 131.5,444.5 Z"/></g>
<g><path style="opacity:1" fill="#f4f4f4" d="M 54.5,461.5 C 144.668,460.168 235.001,460.168 325.5,461.5C 235.599,462.168 145.765,462.835 56,463.5C 55.7216,462.584 55.2216,461.918 54.5,461.5 Z"/></g>
<g><path style="opacity:1" fill="#94ae61" d="M 175.5,482.5 C 177.462,485.865 178.962,489.532 180,493.5C 181.329,499.815 182.496,506.148 183.5,512.5C 181.099,513.049 178.765,513.882 176.5,515C 174.619,516.762 172.619,518.262 170.5,519.5C 163.472,512.47 156.138,505.804 148.5,499.5C 149.592,496.937 151.258,494.77 153.5,493C 159.933,487.617 167.267,484.117 175.5,482.5 Z"/></g>
<g><path style="opacity:1" fill="#f7d85e" d="M 188.5,480.5 C 188.192,490.915 188.525,501.249 189.5,511.5C 187.435,511.517 185.435,511.85 183.5,512.5C 182.496,506.148 181.329,499.815 180,493.5C 178.962,489.532 177.462,485.865 175.5,482.5C 175.918,481.778 176.584,481.278 177.5,481C 181.152,480.501 184.818,480.335 188.5,480.5 Z"/></g>
<g><path style="opacity:1" fill="#c59655" d="M 188.5,480.5 C 189.167,480.5 189.833,480.5 190.5,480.5C 190.5,490.833 190.5,501.167 190.5,511.5C 190.167,511.5 189.833,511.5 189.5,511.5C 188.525,501.249 188.192,490.915 188.5,480.5 Z"/></g>
<g><path style="opacity:1" fill="#456d90" d="M 190.5,480.5 C 220.323,482.156 238.823,497.489 246,526.5C 248.887,562.266 233.054,584.766 198.5,594C 170.53,596.1 150.363,584.6 138,559.5C 136.51,554.872 135.343,550.206 134.5,545.5C 144.518,544.296 154.518,542.963 164.5,541.5C 169.591,558.228 180.924,565.061 198.5,562C 212.066,555.369 217.566,544.536 215,529.5C 210.359,518.691 202.192,512.691 190.5,511.5C 190.5,501.167 190.5,490.833 190.5,480.5 Z"/></g>
<g><path style="opacity:1" fill="#6ebbe3" d="M 148.5,499.5 C 156.138,505.804 163.472,512.47 170.5,519.5C 169.011,522.478 167.511,525.478 166,528.5C 164.805,532.751 164.305,537.085 164.5,541.5C 154.518,542.963 144.518,544.296 134.5,545.5C 131.892,528.931 135.726,513.931 146,500.5C 146.671,499.748 147.504,499.414 148.5,499.5 Z"/></g>
<g><path style="opacity:1" fill="#fbfdfd" d="M 189.5,511.5 C 189.833,511.5 190.167,511.5 190.5,511.5C 202.192,512.691 210.359,518.691 215,529.5C 217.566,544.536 212.066,555.369 198.5,562C 180.924,565.061 169.591,558.228 164.5,541.5C 164.305,537.085 164.805,532.751 166,528.5C 167.511,525.478 169.011,522.478 170.5,519.5C 172.619,518.262 174.619,516.762 176.5,515C 178.765,513.882 181.099,513.049 183.5,512.5C 185.435,511.85 187.435,511.517 189.5,511.5 Z"/></g>
<g><path style="opacity:1" fill="#6a6a6a" d="M 282.5,621.5 C 284.167,621.5 285.833,621.5 287.5,621.5C 287.5,623.833 287.5,626.167 287.5,628.5C 285.833,628.5 284.167,628.5 282.5,628.5C 282.5,626.167 282.5,623.833 282.5,621.5 Z"/></g>
<g><path style="opacity:1" fill="#717171" d="M 75.5,621.5 C 76.6935,621.97 77.3601,622.97 77.5,624.5C 77.2167,627.742 76.3834,628.076 75,625.5C 74.2747,627.158 73.108,627.658 71.5,627C 70.4829,625.951 70.3162,624.784 71,623.5C 72.6225,622.901 74.1225,622.234 75.5,621.5 Z"/></g>
<g><path style="opacity:1" fill="#919191" d="M 316.5,621.5 C 318.179,621.892 319.846,622.392 321.5,623C 321.253,624.813 320.92,626.647 320.5,628.5C 317.365,627.233 316.032,624.9 316.5,621.5 Z"/></g>
<g><path style="opacity:1" fill="#868686" d="M 322.5,620.5 C 325.643,623.051 326.143,626.051 324,629.5C 323.637,626.456 323.137,623.456 322.5,620.5 Z"/></g>
<g><path style="opacity:1" fill="#858585" d="M 61.5,622.5 C 64.1667,623.833 66.8333,623.833 69.5,622.5C 69.5,624.5 69.5,626.5 69.5,628.5C 66.8344,628.067 64.1677,627.567 61.5,627C 61.9662,625.701 61.9662,624.201 61.5,622.5 Z"/></g>
<g><path style="opacity:1" fill="#6c6c6c" d="M 213.5,622.5 C 214.496,622.414 215.329,622.748 216,623.5C 216.494,625.134 216.66,626.801 216.5,628.5C 212.556,628.116 211.556,626.116 213.5,622.5 Z"/></g>
<g><path style="opacity:1" fill="#7a7a7a" d="M 233.5,621.5 C 234.748,622.334 235.415,623.667 235.5,625.5C 235.564,627.389 235.064,629.056 234,630.5C 234.663,627.482 234.496,624.482 233.5,621.5 Z"/></g>
<g><path style="opacity:1" fill="#727272" d="M 305.5,621.5 C 306.75,621.577 307.583,622.244 308,623.5C 308.333,623.167 308.667,622.833 309,622.5C 308.503,624.198 308.67,625.865 309.5,627.5C 308.47,627.554 307.303,627.888 306,628.5C 304.866,623.203 304.032,623.203 303.5,628.5C 300.5,628.5 297.5,628.5 294.5,628.5C 294.443,623.318 293.776,623.318 292.5,628.5C 291.719,627.271 291.219,625.938 291,624.5C 289.542,629.594 288.709,629.261 288.5,623.5C 292.767,623.203 296.934,623.536 301,624.5C 302.31,623.103 303.81,622.103 305.5,621.5 Z"/></g>
<g><path style="opacity:1" fill="#808080" d="M 314.5,620.5 C 315.043,620.56 315.376,620.893 315.5,621.5C 314.77,624.109 314.27,626.776 314,629.5C 311.966,626.375 312.132,623.375 314.5,620.5 Z"/></g>
<g><path style="opacity:1" fill="#a3a3a3" d="M 206.5,621.5 C 206.205,623.735 206.539,625.735 207.5,627.5C 207.44,628.043 207.107,628.376 206.5,628.5C 205.203,626.027 205.203,623.693 206.5,621.5 Z"/></g>
<g><path style="opacity:1" fill="#5b5b5b" d="M 217.5,621.5 C 218.725,622.152 219.392,623.319 219.5,625C 219.333,626.167 219.167,627.333 219,628.5C 217.648,626.406 217.148,624.073 217.5,621.5 Z"/></g>
<g><path style="opacity:1" fill="#909090" d="M 226.5,621.5 C 228.308,621.491 229.975,621.991 231.5,623C 231.167,623.333 230.833,623.667 230.5,624C 232.037,625.11 232.703,626.61 232.5,628.5C 228.286,628.193 226.286,625.86 226.5,621.5 Z"/></g>
<g><path style="opacity:1" fill="#565656" d="M 56.5,621.5 C 57.4959,621.414 58.3292,621.748 59,622.5C 59.2734,624.101 59.7734,625.601 60.5,627C 58.5,626.333 56.5,626.333 54.5,627C 55.464,625.275 56.1307,623.441 56.5,621.5 Z"/></g>
<g><path style="opacity:1" fill="#575757" d="M 206.5,621.5 C 207.712,622.23 208.712,623.23 209.5,624.5C 210.251,623.624 210.751,622.624 211,621.5C 211.808,623.579 211.641,625.579 210.5,627.5C 209.522,627.023 208.689,626.357 208,625.5C 207.536,626.094 207.369,626.761 207.5,627.5C 206.539,625.735 206.205,623.735 206.5,621.5 Z"/></g>
<g><path style="opacity:1" fill="#6d6d6d" d="M 223.5,621.5 C 224.239,621.369 224.906,621.536 225.5,622C 224.502,624.812 224.336,627.646 225,630.5C 223.608,627.722 223.108,624.722 223.5,621.5 Z"/></g>
<g><path style="opacity:1" fill="#57718d" d="M 60.5,653.5 C 60.5,651.5 60.5,649.5 60.5,647.5C 58.5,647.5 56.5,647.5 54.5,647.5C 54.5,649.5 54.5,651.5 54.5,653.5C 53.5318,651.393 53.1984,649.059 53.5,646.5C 56.1667,646.5 58.8333,646.5 61.5,646.5C 61.8016,649.059 61.4682,651.393 60.5,653.5 Z"/></g>
<g><path style="opacity:1" fill="#a5a5a5" d="M 209.5,647.5 C 211.595,647.76 212.928,648.926 213.5,651C 212.464,652.901 211.298,654.735 210,656.5C 209.383,655.551 209.549,654.718 210.5,654C 206.9,652.359 206.566,650.193 209.5,647.5 Z"/></g>
<g><path style="opacity:1" fill="#234872" d="M 60.5,653.5 C 58.5,653.5 56.5,653.5 54.5,653.5C 54.5,651.5 54.5,649.5 54.5,647.5C 56.5,647.5 58.5,647.5 60.5,647.5C 60.5,649.5 60.5,651.5 60.5,653.5 Z"/></g>
<g><path style="opacity:1" fill="#949494" d="M 297.5,648.5 C 298.978,648.238 300.311,648.571 301.5,649.5C 300.384,649.402 299.384,649.902 298.5,651C 299.384,652.098 300.384,652.598 301.5,652.5C 300.917,654.002 300.084,655.335 299,656.5C 298.383,655.551 298.549,654.718 299.5,654C 296.541,652.954 295.874,651.121 297.5,648.5 Z"/></g>
<g><path style="opacity:1" fill="#a2a2a2" d="M 73.5,647.5 C 74.21,649.893 74.8767,652.393 75.5,655C 75.1667,655.167 74.8333,655.333 74.5,655.5C 73.52,652.914 73.1866,650.247 73.5,647.5 Z"/></g>
<g><path style="opacity:1" fill="#d5d5d5" d="M 89.5,646.5 C 91.0481,646.821 91.7148,647.821 91.5,649.5C 94.1136,649.932 96.7803,650.265 99.5,650.5C 98.7376,650.911 97.7376,651.077 96.5,651C 99.0387,652.099 99.7054,653.766 98.5,656C 96.6874,655.954 95.0207,656.12 93.5,656.5C 92.8333,655.5 92.1667,654.5 91.5,653.5C 90.8076,654.025 90.3076,654.692 90,655.5C 89.502,652.518 89.3354,649.518 89.5,646.5 Z"/></g>
<g><path style="opacity:1" fill="#c0c0c0" d="M 225.5,647.5 C 229.254,648.828 230.421,651.494 229,655.5C 225.21,657.426 223.377,656.26 223.5,652C 223.759,650.213 224.425,648.713 225.5,647.5 Z"/></g>
<g><path style="opacity:1" fill="#9f9f9f" d="M 303.5,648.5 C 304.873,648.343 306.207,648.51 307.5,649C 305.099,649.805 305.266,650.638 308,651.5C 308.494,653.134 308.66,654.801 308.5,656.5C 306.712,656.785 305.045,656.452 303.5,655.5C 304.557,655.094 305.891,655.094 307.5,655.5C 307.5,654.5 307.5,653.5 307.5,652.5C 306.167,652.5 304.833,652.5 303.5,652.5C 303.5,651.167 303.5,649.833 303.5,648.5 Z"/></g>
<g><path style="opacity:1" fill="#8e8e8e" d="M 314.5,648.5 C 315.748,649.334 316.415,650.667 316.5,652.5C 316.333,653.833 316.167,655.167 316,656.5C 315.605,653.793 315.105,651.127 314.5,648.5 Z"/></g>
<g><path style="opacity:1" fill="#929292" d="M 322.5,648.5 C 323.634,650.966 323.801,653.633 323,656.5C 322.1,655.23 320.934,654.23 319.5,653.5C 320.26,651.64 321.26,649.973 322.5,648.5 Z"/></g>
<g><path style="opacity:1" fill="#c4c3c3" d="M 66.5,648.5 C 67.9997,650.179 69.833,651.512 72,652.5C 72.6114,656.088 71.1114,657.254 67.5,656C 66.8333,655.333 66.1667,654.667 65.5,654C 67.2251,654.409 68.8918,654.242 70.5,653.5C 68.0693,652.64 66.736,650.973 66.5,648.5 Z"/></g>
<g><path style="opacity:1" fill="#d0d0d0" d="M 77.5,649.5 C 82.7473,649.64 83.7473,651.806 80.5,656C 76.6314,655.492 75.6314,653.325 77.5,649.5 Z"/></g>
<g><path style="opacity:1" fill="#a4a4a4" d="M 230.5,647.5 C 232.288,647.215 233.955,647.548 235.5,648.5C 234.787,651.096 234.787,653.763 235.5,656.5C 233.712,656.785 232.045,656.452 230.5,655.5C 231.826,655.795 233.159,655.295 234.5,654C 233.5,653.167 232.5,652.333 231.5,651.5C 231.709,650.914 232.043,650.414 232.5,650C 231.244,649.583 230.577,648.75 230.5,647.5 Z"/></g>
<g><path style="opacity:1" fill="#cacaca" d="M 84.5,649.5 C 86.3464,649.222 87.6798,649.889 88.5,651.5C 87.4425,651.906 86.1092,651.906 84.5,651.5C 84.5,652.5 84.5,653.5 84.5,654.5C 86.1092,654.094 87.4425,654.094 88.5,654.5C 87.3803,656.596 85.8803,656.93 84,655.5C 83.3224,653.402 83.4891,651.402 84.5,649.5 Z"/></g>
<g><path style="opacity:1" fill="#aaaaaa" d="M 216.5,648.5 C 218.515,650.707 219.515,653.374 219.5,656.5C 217.856,656.714 216.356,656.38 215,655.5C 214.865,653.078 215.365,650.745 216.5,648.5 Z"/></g>
<g><path style="opacity:1" fill="#b2b2b2" d="M 227.5,663.5 C 228.765,664.514 229.431,666.014 229.5,668C 229.167,669.5 228.833,671 228.5,672.5C 227.151,669.459 226.818,666.459 227.5,663.5 Z"/></g>
<g><path style="opacity:1" fill="#56a9d5" d="M 61.5,664.5 C 61.5,666.5 61.5,668.5 61.5,670.5C 59.1667,670.5 56.8333,670.5 54.5,670.5C 54.5,668.5 54.5,666.5 54.5,664.5C 56.8333,664.5 59.1667,664.5 61.5,664.5 Z"/></g>
<g><path style="opacity:1" fill="#c1c1c1" d="M 80.5,665.5 C 85.2411,665.161 86.5744,667.161 84.5,671.5C 83.052,664.922 81.8854,664.922 81,671.5C 80.5045,669.527 80.3379,667.527 80.5,665.5 Z"/></g>
<g><path style="opacity:1" fill="#b4b4b4" d="M 216.5,663.5 C 218.144,663.286 219.644,663.62 221,664.5C 221.769,667.099 221.602,669.599 220.5,672C 218.888,672.72 217.388,672.554 216,671.5C 215.278,668.739 215.445,666.073 216.5,663.5 Z"/></g>
<g><path style="opacity:1" fill="#959595" d="M 234.5,663.5 C 235.634,665.966 235.801,668.633 235,671.5C 234.764,669.236 234.264,667.069 233.5,665C 234.056,664.617 234.389,664.117 234.5,663.5 Z"/></g>
<g><path style="opacity:1" fill="#a6a6a6" d="M 313.5,663.5 C 314.833,663.5 316.167,663.5 317.5,663.5C 317.5,666.5 317.5,669.5 317.5,672.5C 315.856,672.714 314.356,672.38 313,671.5C 312.278,668.739 312.445,666.073 313.5,663.5 Z"/></g>
<g><path style="opacity:1" fill="#efefef" d="M 314.5,665.5 C 315.693,665.97 316.36,666.97 316.5,668.5C 316.167,669.5 315.833,670.5 315.5,671.5C 314.534,669.604 314.201,667.604 314.5,665.5 Z"/></g>
<g><path style="opacity:1" fill="#cfcfcf" d="M 66.5,663.5 C 70.1616,662.637 72.3282,663.97 73,667.5C 73.3333,667.167 73.6667,666.833 74,666.5C 74.49,667.793 74.6567,669.127 74.5,670.5C 75.5,670.5 76.5,670.5 77.5,670.5C 77.3433,669.127 77.51,667.793 78,666.5C 79.3229,672.196 77.6562,673.529 73,670.5C 71.103,672.016 68.9363,672.683 66.5,672.5C 66.5,669.5 66.5,666.5 66.5,663.5 Z"/></g>
<g><path style="opacity:1" fill="#a0ccdb" d="M 61.5,664.5 C 59.1667,664.5 56.8333,664.5 54.5,664.5C 54.5,666.5 54.5,668.5 54.5,670.5C 56.8333,670.5 59.1667,670.5 61.5,670.5C 59.0521,671.473 56.3854,671.806 53.5,671.5C 53.5,668.833 53.5,666.167 53.5,663.5C 56.3854,663.194 59.0521,663.527 61.5,664.5 Z"/></g>
<g><path style="opacity:1" fill="#cbcbcb" d="M 90.5,663.5 C 91.4767,666.287 91.81,669.287 91.5,672.5C 86.9315,672.917 85.4315,670.917 87,666.5C 88.7286,666.026 89.8953,665.026 90.5,663.5 Z"/></g>
<g><path style="opacity:1" fill="#9a9a9a" d="M 304.5,663.5 C 305.822,663.33 306.989,663.663 308,664.5C 308.667,666.833 308.667,669.167 308,671.5C 306.667,672.833 305.333,672.833 304,671.5C 303.278,668.739 303.445,666.073 304.5,663.5 Z"/></g>
<g><path style="opacity:1" fill="#e7e7e7" d="M 304.5,665.5 C 305.5,665.5 306.5,665.5 307.5,665.5C 306.5,673.5 305.5,673.5 304.5,665.5 Z"/></g>
<g><path style="opacity:1" fill="#a1a1a1" d="M 320.5,664.5 C 321.209,663.596 322.209,663.263 323.5,663.5C 324.291,666.417 324.291,669.25 323.5,672C 322.056,672.781 320.723,672.614 319.5,671.5C 321.066,672.061 322.399,671.394 323.5,669.5C 322.5,668.833 321.5,668.167 320.5,667.5C 321.653,666.313 321.653,665.313 320.5,664.5 Z"/></g>
<g><path style="opacity:1" fill="#a2a2a2" d="M 313.5,679.5 C 314.568,678.566 315.901,678.232 317.5,678.5C 316.889,681.721 315.722,684.721 314,687.5C 314.049,685.325 314.549,683.158 315.5,681C 315.164,679.97 314.497,679.47 313.5,679.5 Z"/></g>
<g><path style="opacity:1" fill="#dcdcdd" d="M 67.5,678.5 C 70.9496,679.91 74.6163,680.576 78.5,680.5C 79.0289,683.604 78.0289,685.937 75.5,687.5C 74.5224,687.023 73.6891,686.357 73,685.5C 70.7564,687.994 68.4231,687.994 66,685.5C 65.1668,682.829 65.6668,680.496 67.5,678.5 Z"/></g>
<g><path style="opacity:1" fill="#969696" d="M 304.5,678.5 C 305.822,678.33 306.989,678.663 308,679.5C 308.667,681.833 308.667,684.167 308,686.5C 306.667,687.833 305.333,687.833 304,686.5C 303.278,683.739 303.445,681.073 304.5,678.5 Z"/></g>
<g><path style="opacity:1" fill="#ececec" d="M 305.5,679.5 C 307.28,680.99 307.946,682.99 307.5,685.5C 306.5,685.5 305.5,685.5 304.5,685.5C 304.325,683.379 304.659,681.379 305.5,679.5 Z"/></g>
<g><path style="opacity:1" fill="#a0a0a0" d="M 319.5,679.5 C 321.035,678.212 322.701,678.212 324.5,679.5C 323.236,682.125 322.069,684.792 321,687.5C 320.383,684.965 320.883,682.632 322.5,680.5C 321.675,679.614 320.675,679.281 319.5,679.5 Z"/></g>
<g><path style="opacity:1" fill="#cbcacb" d="M 85.5,677.5 C 87.0481,677.821 87.7148,678.821 87.5,680.5C 90.488,680.155 91.8213,681.488 91.5,684.5C 91.1667,685.5 90.8333,686.5 90.5,687.5C 89.1667,679.5 87.8333,679.5 86.5,687.5C 85.513,684.232 85.1796,680.898 85.5,677.5 Z"/></g>
<g><path style="opacity:1" fill="#b8b8b8" d="M 224.5,678.5 C 228.619,678.199 230.619,680.199 230.5,684.5C 231.167,684.833 231.833,685.167 232.5,685.5C 232.112,683.975 232.112,682.308 232.5,680.5C 231.975,679.808 231.308,679.308 230.5,679C 231.793,678.51 233.127,678.343 234.5,678.5C 234.511,680.547 234.844,682.547 235.5,684.5C 235.566,686.266 234.732,687.266 233,687.5C 229.942,686.88 226.942,686.546 224,686.5C 223.278,683.739 223.445,681.073 224.5,678.5 Z"/></g>
<g><path style="opacity:1" fill="#b1bd91" d="M 53.5,678.5 C 56.1667,678.5 58.8333,678.5 61.5,678.5C 61.5,681.167 61.5,683.833 61.5,686.5C 58.8333,686.5 56.1667,686.5 53.5,686.5C 53.5,683.833 53.5,681.167 53.5,678.5 Z"/></g>
<g><path style="opacity:1" fill="#7b9647" d="M 54.5,679.5 C 56.5,679.5 58.5,679.5 60.5,679.5C 60.5,681.5 60.5,683.5 60.5,685.5C 58.5,685.5 56.5,685.5 54.5,685.5C 54.5,683.5 54.5,681.5 54.5,679.5 Z"/></g>
<g><path style="opacity:1" fill="#a9a9a9" d="M 215.5,678.5 C 216.833,678.5 218.167,678.5 219.5,678.5C 219.753,680.827 219.086,682.827 217.5,684.5C 220.272,686.085 220.106,687.085 217,687.5C 216.167,687.167 215.333,686.833 214.5,686.5C 215.711,684.578 217.044,682.745 218.5,681C 217.428,679.716 216.095,679.383 214.5,680C 215.056,679.617 215.389,679.117 215.5,678.5 Z"/></g>
<g><path style="opacity:1" fill="#647982" d="M 344.5,300.5 C 344.5,473.5 344.5,646.5 344.5,819.5C 343.833,819.5 343.167,819.5 342.5,819.5C 342.5,815.833 342.5,812.167 342.5,808.5C 342.229,638.997 342.895,469.664 344.5,300.5 Z"/></g>
<g><path style="opacity:1" fill="#f2df91" d="M 53.5,693.5 C 56.1667,693.5 58.8333,693.5 61.5,693.5C 61.5,696.167 61.5,698.833 61.5,701.5C 58.8333,701.5 56.1667,701.5 53.5,701.5C 53.5,698.833 53.5,696.167 53.5,693.5 Z"/></g>
<g><path style="opacity:1" fill="#a8a8a8" d="M 224.5,693.5 C 226.948,693.01 228.615,693.843 229.5,696C 228.333,698.167 227.167,700.333 226,702.5C 225.694,700.094 224.861,697.927 223.5,696C 223.743,695.098 224.077,694.265 224.5,693.5 Z"/></g>
<g><path style="opacity:1" fill="#c6c9c6" d="M 67.5,693.5 C 70.7353,694.407 73.7353,695.24 76.5,696C 75.5823,698.133 75.4156,700.3 76,702.5C 74.0548,701.308 72.0548,701.308 70,702.5C 65.0724,700.71 64.2391,697.71 67.5,693.5 Z"/></g>
<g><path style="opacity:1" fill="#f7f7f7" d="M 68.5,694.5 C 69.4959,694.414 70.3292,694.748 71,695.5C 71.4935,697.134 71.6602,698.801 71.5,700.5C 70.1667,700.5 68.8333,700.5 67.5,700.5C 67.3253,698.379 67.6586,696.379 68.5,694.5 Z"/></g>
<g><path style="opacity:1" fill="#989898" d="M 215.5,693.5 C 216.822,693.33 217.989,693.663 219,694.5C 219.667,696.833 219.667,699.167 219,701.5C 217.667,702.833 216.333,702.833 215,701.5C 214.278,698.739 214.445,696.073 215.5,693.5 Z"/></g>
<g><path style="opacity:1" fill="#e8e8e8" d="M 216.5,694.5 C 218.28,695.99 218.946,697.99 218.5,700.5C 217.5,700.5 216.5,700.5 215.5,700.5C 215.325,698.379 215.659,696.379 216.5,694.5 Z"/></g>
<g><path style="opacity:1" fill="#efd052" d="M 54.5,694.5 C 56.5,694.5 58.5,694.5 60.5,694.5C 60.5,696.5 60.5,698.5 60.5,700.5C 58.5,700.5 56.5,700.5 54.5,700.5C 54.5,698.5 54.5,696.5 54.5,694.5 Z"/></g>
<g><path style="opacity:1" fill="#979697" d="M 306.5,694.5 C 307.224,696.218 307.891,698.052 308.5,700C 308,700.5 307.5,701 307,701.5C 305.989,700.663 304.822,700.33 303.5,700.5C 303.615,698.053 304.615,696.053 306.5,694.5 Z"/></g>
<g><path style="opacity:1" fill="#cbcbcb" d="M 77.5,693.5 C 79.7396,694.658 81.9063,695.992 84,697.5C 85.3528,696.296 87.0194,695.629 89,695.5C 90.5,695.667 92,695.833 93.5,696C 91.771,697.789 91.1043,699.956 91.5,702.5C 88.6354,702.945 86.1354,702.278 84,700.5C 83.586,700.957 83.086,701.291 82.5,701.5C 81.1667,694.833 79.8333,694.833 78.5,701.5C 77.52,698.914 77.1866,696.247 77.5,693.5 Z"/></g>
<g><path style="opacity:1" fill="#adadad" d="M 313.5,693.5 C 317.044,693.239 318.878,694.905 319,698.5C 320.084,697.335 320.917,696.002 321.5,694.5C 322.002,693.479 322.668,693.312 323.5,694C 322.978,694.561 322.645,695.228 322.5,696C 325.293,698.597 325.126,700.764 322,702.5C 320.739,702.241 319.739,701.574 319,700.5C 317.534,702.325 315.701,702.825 313.5,702C 312.214,699.168 312.214,696.335 313.5,693.5 Z"/></g>
<g><path style="opacity:1" fill="#f0f0f0" d="M 314.5,695.5 C 315.649,695.791 316.316,696.624 316.5,698C 316.167,698.833 315.833,699.667 315.5,700.5C 314.548,698.955 314.215,697.288 314.5,695.5 Z"/></g>
<g><path style="opacity:1" fill="#a3a3a3" d="M 230.5,693.5 C 235.041,693.331 235.374,693.998 231.5,695.5C 235.273,696.449 236.273,698.616 234.5,702C 232.926,702.699 231.593,702.365 230.5,701C 235.652,699.806 235.652,698.64 230.5,697.5C 230.5,696.167 230.5,694.833 230.5,693.5 Z"/></g>
<g><path style="opacity:1" fill="#9d9d9d" d="M 214.5,708.5 C 216.167,708.5 217.833,708.5 219.5,708.5C 219.664,711.187 219.497,713.854 219,716.5C 217.667,717.833 216.333,717.833 215,716.5C 214.503,713.854 214.336,711.187 214.5,708.5 Z"/></g>
<g><path style="opacity:1" fill="#ce956f" d="M 54.5,715.5 C 53.5318,713.393 53.1984,711.059 53.5,708.5C 56.1667,708.5 58.8333,708.5 61.5,708.5C 61.5,711.167 61.5,713.833 61.5,716.5C 58.9407,716.802 56.6074,716.468 54.5,715.5 Z"/></g>
<g><path style="opacity:1" fill="#e0e0e0" d="M 216.5,709.5 C 218.28,710.99 218.946,712.99 218.5,715.5C 217.5,715.5 216.5,715.5 215.5,715.5C 215.325,713.379 215.659,711.379 216.5,709.5 Z"/></g>
<g><path style="opacity:1" fill="#9f9f9f" d="M 304.5,708.5 C 305.833,708.5 307.167,708.5 308.5,708.5C 308.664,711.187 308.497,713.854 308,716.5C 306.667,717.833 305.333,717.833 304,716.5C 303.278,713.739 303.445,711.073 304.5,708.5 Z"/></g>
<g><path style="opacity:1" fill="#ebebeb" d="M 305.5,709.5 C 307.28,710.99 307.946,712.99 307.5,715.5C 306.5,715.5 305.5,715.5 304.5,715.5C 304.325,713.379 304.659,711.379 305.5,709.5 Z"/></g>
<g><path style="opacity:1" fill="#989898" d="M 320.5,708.5 C 321.822,708.33 322.989,708.663 324,709.5C 324.667,711.833 324.667,714.167 324,716.5C 322.667,717.833 321.333,717.833 320,716.5C 319.278,713.739 319.445,711.073 320.5,708.5 Z"/></g>
<g><path style="opacity:1" fill="#e8e8e8" d="M 321.5,709.5 C 323.94,711.573 324.106,713.906 322,716.5C 320.193,714.294 320.026,711.961 321.5,709.5 Z"/></g>
<g><path style="opacity:1" fill="#cecece" d="M 120.5,707.5 C 121.5,707.5 122.5,707.5 123.5,707.5C 123.312,709.103 123.812,710.437 125,711.5C 126.796,710.233 128.629,710.233 130.5,711.5C 132.733,711.136 134.566,710.136 136,708.5C 136.498,711.482 136.665,714.482 136.5,717.5C 135.127,717.657 133.793,717.49 132.5,717C 131.018,715.017 129.351,713.184 127.5,711.5C 126.571,712.689 126.238,714.022 126.5,715.5C 127.675,715.281 128.675,715.614 129.5,716.5C 125.893,717.489 122.226,717.823 118.5,717.5C 118.034,713.838 118.701,710.505 120.5,707.5 Z"/></g>
<g><path style="opacity:1" fill="#c66932" d="M 54.5,715.5 C 54.5,713.5 54.5,711.5 54.5,709.5C 56.5,709.5 58.5,709.5 60.5,709.5C 60.5,711.5 60.5,713.5 60.5,715.5C 58.5,715.5 56.5,715.5 54.5,715.5 Z"/></g>
<g><path style="opacity:1" fill="#c3c3c4" d="M 65.5,708.5 C 68.091,709.254 69.9243,710.921 71,713.5C 71.2022,711.744 71.7022,710.078 72.5,708.5C 73.8333,711.167 73.8333,713.833 72.5,716.5C 70.099,713.587 68.7657,713.921 68.5,717.5C 67.5,717.5 66.5,717.5 65.5,717.5C 65.5,714.5 65.5,711.5 65.5,708.5 Z"/></g>
<g><path style="opacity:1" fill="#c5c5c5" d="M 92.5,709.5 C 93.5832,709.461 94.5832,709.127 95.5,708.5C 96.8333,711.5 96.8333,714.5 95.5,717.5C 94.0325,716.305 92.5325,716.305 91,717.5C 87.4825,715.787 86.6492,713.121 88.5,709.5C 89.9584,708.218 91.2918,708.218 92.5,709.5 Z"/></g>
<g><path style="opacity:1" fill="#f9f9f9" d="M 92.5,709.5 C 95.4721,713.229 94.4721,715.229 89.5,715.5C 89.5,713.5 89.5,711.5 89.5,709.5C 90.5,709.5 91.5,709.5 92.5,709.5 Z"/></g>
<g><path style="opacity:1" fill="#d0d0d0" d="M 115.5,708.5 C 116.748,709.334 117.415,710.667 117.5,712.5C 117.026,717.627 116.026,717.627 114.5,712.5C 113.391,711.41 112.391,711.41 111.5,712.5C 112.325,713.386 113.325,713.719 114.5,713.5C 114.5,714.833 114.5,716.167 114.5,717.5C 111.762,716.763 109.095,716.763 106.5,717.5C 105.833,717.167 105.167,716.833 104.5,716.5C 108.481,715.506 108.481,714.506 104.5,713.5C 103.209,715.097 101.709,716.43 100,717.5C 97.0346,716.278 96.8679,714.778 99.5,713C 97.1168,711.803 97.4501,710.97 100.5,710.5C 105.485,710.413 110.318,710.746 115,711.5C 115.483,710.552 115.649,709.552 115.5,708.5 Z"/></g>
<g><path style="opacity:1" fill="#bbbbbb" d="M 313.5,708.5 C 315.144,708.286 316.644,708.62 318,709.5C 318.769,712.099 318.602,714.599 317.5,717C 315.888,717.72 314.388,717.554 313,716.5C 312.278,713.739 312.445,711.073 313.5,708.5 Z"/></g>
<g><path style="opacity:1" fill="#cdcdcd" d="M 80.5,709.5 C 81.7251,710.152 82.3917,711.319 82.5,713C 82.3333,714.167 82.1667,715.333 82,716.5C 81.586,716.043 81.086,715.709 80.5,715.5C 75.2187,718.578 73.2187,716.911 74.5,710.5C 76.7354,710.795 78.7354,710.461 80.5,709.5 Z"/></g>
<g><path style="opacity:1" fill="#b2b2b2" d="M 224.5,708.5 C 228.375,707.874 230.209,709.541 230,713.5C 229.71,709.911 231.21,708.411 234.5,709C 235.602,711.401 235.769,713.901 235,716.5C 232.956,717.772 231.122,717.439 229.5,715.5C 228.131,717.124 226.464,717.624 224.5,717C 224.373,714.127 224.373,711.294 224.5,708.5 Z"/></g>
<g><path style="opacity:1" fill="#92acbb" d="M 55.5,743.5 C 57.1439,743.286 58.6439,743.62 60,744.5C 60.6667,745.167 60.6667,745.833 60,746.5C 59.0347,744.74 57.868,744.406 56.5,745.5C 62.1237,749.915 61.457,751.582 54.5,750.5C 55.8333,750.167 57.1667,749.833 58.5,749.5C 55.4787,748.227 54.4787,746.227 55.5,743.5 Z"/></g>
<g><path style="opacity:1" fill="#94b1bf" d="M 134.5,745.5 C 135.978,745.238 137.311,745.571 138.5,746.5C 137.833,746.833 137.167,747.167 136.5,747.5C 140.179,748.969 140.346,750.636 137,752.5C 133.61,751.268 133.777,750.434 137.5,750C 135.137,749.411 134.137,747.911 134.5,745.5 Z"/></g>
<g><path style="opacity:1" fill="#93b4c5" d="M 61.5,743.5 C 63.0109,744.502 64.6776,745.169 66.5,745.5C 66.6369,752.626 65.9702,752.959 64.5,746.5C 63.8333,748.167 63.1667,749.833 62.5,751.5C 61.52,748.914 61.1866,746.247 61.5,743.5 Z"/></g>
<g><path style="opacity:1" fill="#84a6ba" d="M 103.5,745.5 C 104.239,745.369 104.906,745.536 105.5,746C 103.963,747.11 103.297,748.61 103.5,750.5C 104.5,750.5 105.5,750.5 106.5,750.5C 106.34,748.801 106.506,747.134 107,745.5C 107.667,748.167 107.667,750.833 107,753.5C 105.506,754.747 104.006,754.747 102.5,753.5C 102.356,750.905 102.689,748.239 103.5,745.5 Z"/></g>
<g><path style="opacity:1" fill="#7d9db0" d="M 140.5,743.5 C 141.779,744.968 143.446,745.635 145.5,745.5C 145.662,747.527 145.495,749.527 145,751.5C 143.667,744.833 142.333,744.833 141,751.5C 140.503,748.854 140.336,746.187 140.5,743.5 Z"/></g>
<g><path style="opacity:1" fill="#7499b4" d="M 213.5,745.5 C 214.857,746.685 216.357,747.685 218,748.5C 219.626,747.711 221.126,746.711 222.5,745.5C 222.833,745.833 223.167,746.167 223.5,746.5C 219.422,753.417 216.089,753.083 213.5,745.5 Z"/></g>
<g><path style="opacity:1" fill="#a7c1cf" d="M 86.5,742.5 C 88.045,743.23 88.8784,744.563 89,746.5C 91.2672,745.065 93.2672,745.398 95,747.5C 96.4178,745.637 98.2511,745.137 100.5,746C 101.76,747.814 101.76,749.647 100.5,751.5C 99.8333,749.833 99.1667,748.167 98.5,746.5C 97.8333,748.5 97.1667,750.5 96.5,752.5C 95.8076,751.975 95.3076,751.308 95,750.5C 93,753.167 91,753.167 89,750.5C 88.586,750.957 88.086,751.291 87.5,751.5C 86.5159,748.572 86.1826,745.572 86.5,742.5 Z"/></g>
<g><path style="opacity:1" fill="#9bbacb" d="M 183.5,743.5 C 184.75,743.577 185.583,744.244 186,745.5C 186.414,745.043 186.914,744.709 187.5,744.5C 188.833,746.833 188.833,749.167 187.5,751.5C 186.702,749.922 186.202,748.256 186,746.5C 185.798,748.256 185.298,749.922 184.5,751.5C 183.52,748.914 183.187,746.247 183.5,743.5 Z"/></g>
<g><path style="opacity:1" fill="#97bbc7" d="M 74.5,745.5 C 75.9403,746.363 77.2736,746.363 78.5,745.5C 79.2508,746.376 79.7508,747.376 80,748.5C 80.2492,747.376 80.7492,746.376 81.5,745.5C 82.7801,747.724 82.4468,749.724 80.5,751.5C 79.1667,748.833 77.8333,748.833 76.5,751.5C 75.2319,749.696 74.5652,747.696 74.5,745.5 Z"/></g>
<g><path style="opacity:1" fill="#7ea0af" d="M 158.5,744.5 C 159.289,744.783 159.956,745.283 160.5,746C 159.751,747.734 159.251,749.567 159,751.5C 157.835,745.216 156.168,745.216 154,751.5C 153.505,749.527 153.338,747.527 153.5,745.5C 155.415,745.784 157.081,745.451 158.5,744.5 Z"/></g>
<g><path style="opacity:1" fill="#a8c4cf" d="M 147.5,745.5 C 151.323,745.167 152.823,746.834 152,750.5C 150.451,753.003 148.784,753.003 147,750.5C 146.36,748.735 146.527,747.068 147.5,745.5 Z"/></g>
<g><path style="opacity:1" fill="#a3c0cc" d="M 164.5,745.5 C 168.224,746.265 171.89,746.432 175.5,746C 176.576,747.726 176.743,749.559 176,751.5C 173.595,751.964 171.095,752.131 168.5,752C 166.939,752.318 165.772,753.151 165,754.5C 164.502,751.518 164.335,748.518 164.5,745.5 Z"/></g>
<g><path style="opacity:1" fill="#98b7c6" d="M 190.5,743.5 C 192.045,744.23 192.878,745.563 193,747.5C 194.396,745.473 196.062,745.14 198,746.5C 199.323,752.196 197.656,753.529 193,750.5C 192.586,750.957 192.086,751.291 191.5,751.5C 190.52,748.914 190.187,746.247 190.5,743.5 Z"/></g>
<g><path style="opacity:1" fill="#dff9fd" d="M 194.5,747.5 C 195.5,747.5 196.5,747.5 197.5,747.5C 197.5,748.5 197.5,749.5 197.5,750.5C 196.5,750.5 195.5,750.5 194.5,750.5C 194.5,749.5 194.5,748.5 194.5,747.5 Z"/></g>
<g><path style="opacity:1" fill="#99b6c2" d="M 200.5,745.5 C 205.241,745.161 206.574,747.161 204.5,751.5C 203.075,746.27 201.909,746.27 201,751.5C 200.505,749.527 200.338,747.527 200.5,745.5 Z"/></g>
<g><path style="opacity:1" fill="#8da8bd" d="M 72.5,750.5 C 71.2918,751.782 69.9584,751.782 68.5,750.5C 67.1407,746.741 68.474,745.241 72.5,746C 73.8009,747.616 73.8009,749.116 72.5,750.5 Z"/></g>
<g><path style="opacity:1" fill="#dceef3" d="M 72.5,750.5 C 71.5,750.5 70.5,750.5 69.5,750.5C 69.238,749.022 69.5713,747.689 70.5,746.5C 72.1112,747.32 72.7778,748.654 72.5,750.5 Z"/></g>
<g><path style="opacity:1" fill="#aac5d4" d="M 128.5,743.5 C 130.388,745.988 131.055,748.988 130.5,752.5C 127.794,752.425 125.127,752.092 122.5,751.5C 122.785,749.712 122.452,748.045 121.5,746.5C 119.717,748.023 119.051,750.023 119.5,752.5C 117.143,752.663 114.81,752.497 112.5,752C 111.424,750.274 111.257,748.441 112,746.5C 115.749,746.764 119.583,746.431 123.5,745.5C 125.64,745.444 127.306,744.777 128.5,743.5 Z"/></g>
<g><path style="opacity:1" fill="#e2f6f9" d="M 126.5,746.5 C 127.586,746.62 128.253,747.287 128.5,748.5C 128.167,749.167 127.833,749.833 127.5,750.5C 126.571,749.311 126.238,747.978 126.5,746.5 Z"/></g>
<g><path style="opacity:1" fill="#a6bdcc" d="M 178.5,745.5 C 179.978,745.238 181.311,745.571 182.5,746.5C 181.397,746.998 180.397,747.331 179.5,747.5C 180.325,748.386 181.325,748.719 182.5,748.5C 182.824,751.68 181.49,752.847 178.5,752C 178.264,749.882 178.264,747.716 178.5,745.5 Z"/></g>
<g><path style="opacity:1" fill="#acb0b0" d="M 47.5,627.5 C 47.5,677.167 47.5,726.833 47.5,776.5C 92.5,776.5 137.5,776.5 182.5,776.5C 182.5,776.833 182.5,777.167 182.5,777.5C 137.5,777.5 92.5,777.5 47.5,777.5C 47.5,791.5 47.5,805.5 47.5,819.5C 47.1667,819.5 46.8333,819.5 46.5,819.5C 46.1675,755.331 46.5009,691.331 47.5,627.5 Z"/></g>
<g><path style="opacity:1" fill="#c0c0c1" d="M 333.5,646.5 C 333.5,704.167 333.5,761.833 333.5,819.5C 333.167,819.5 332.833,819.5 332.5,819.5C 332.5,805.833 332.5,792.167 332.5,778.5C 284.833,778.5 237.167,778.5 189.5,778.5C 189.5,792.167 189.5,805.833 189.5,819.5C 189.167,819.5 188.833,819.5 188.5,819.5C 188.667,805.829 188.5,792.163 188,778.5C 186.301,777.594 184.467,777.261 182.5,777.5C 182.5,777.167 182.5,776.833 182.5,776.5C 232.511,776.214 282.511,776.548 332.5,777.5C 332.168,733.663 332.501,689.997 333.5,646.5 Z"/></g>
<g><path style="opacity:1" fill="#eef9fc" d="M 182.5,777.5 C 184.467,777.261 186.301,777.594 188,778.5C 188.5,792.163 188.667,805.829 188.5,819.5C 141.5,819.5 94.5,819.5 47.5,819.5C 47.5,805.5 47.5,791.5 47.5,777.5C 92.5,777.5 137.5,777.5 182.5,777.5 Z"/></g>
<g><path style="opacity:1" fill="#fdfdfd" d="M 332.5,819.5 C 315.833,819.5 299.167,819.5 282.5,819.5C 282.5,819.167 282.5,818.833 282.5,818.5C 283.682,816.439 283.015,814.939 280.5,814C 281.308,813.692 281.975,813.192 282.5,812.5C 281.192,811.374 279.858,811.374 278.5,812.5C 277.833,812.167 277.167,811.833 276.5,811.5C 276.631,810.624 276.298,809.957 275.5,809.5C 274.992,811.653 274.326,812.987 273.5,813.5C 273.038,812.12 272.038,811.453 270.5,811.5C 268.436,811.785 266.436,812.118 264.5,812.5C 263.674,811.987 263.008,810.653 262.5,808.5C 261.513,811.768 261.18,815.102 261.5,818.5C 261.5,818.833 261.5,819.167 261.5,819.5C 237.5,819.5 213.5,819.5 189.5,819.5C 189.5,805.833 189.5,792.167 189.5,778.5C 237.167,778.5 284.833,778.5 332.5,778.5C 332.5,792.167 332.5,805.833 332.5,819.5 Z"/></g>
<g><path style="opacity:1" fill="#acacac" d="M 268.5,792.5 C 267.539,794.265 267.205,796.265 267.5,798.5C 266.167,798.5 264.833,798.5 263.5,798.5C 263.167,794.5 262.833,794.5 262.5,798.5C 260.585,798.216 258.919,798.549 257.5,799.5C 256.596,798.791 256.263,797.791 256.5,796.5C 259.896,796.367 260.229,795.367 257.5,793.5C 257.833,793.167 258.167,792.833 258.5,792.5C 261.642,791.342 264.475,789.675 267,787.5C 267.507,788.996 267.007,790.163 265.5,791C 266.737,791.232 267.737,791.732 268.5,792.5 Z"/></g>
<g><path style="opacity:1" fill="#bbd0d7" d="M 113.5,787.5 C 115.144,787.286 116.644,787.62 118,788.5C 118.374,792.574 119.54,796.241 121.5,799.5C 117.833,799.5 114.167,799.5 110.5,799.5C 110.585,797.071 111.585,795.071 113.5,793.5C 112.181,791.468 112.181,789.468 113.5,787.5 Z"/></g>
<g><path style="opacity:1" fill="#777777" d="M 268.5,792.5 C 268.5,794.833 268.5,797.167 268.5,799.5C 264.833,799.5 261.167,799.5 257.5,799.5C 258.919,798.549 260.585,798.216 262.5,798.5C 262.833,794.5 263.167,794.5 263.5,798.5C 264.833,798.5 266.167,798.5 267.5,798.5C 267.205,796.265 267.539,794.265 268.5,792.5 Z"/></g>
<g><path style="opacity:1" fill="#878b8a" d="M 264.5,812.5 C 265.653,813.313 265.653,814.313 264.5,815.5C 264.977,816.478 265.643,817.311 266.5,818C 264.82,817.229 263.153,817.395 261.5,818.5C 261.18,815.102 261.513,811.768 262.5,808.5C 263.008,810.653 263.674,811.987 264.5,812.5 Z"/></g>
<g><path style="opacity:1" fill="#777777" d="M 237.5,808.5 C 239.605,809.987 241.272,811.987 242.5,814.5C 243.833,812.5 245.167,810.5 246.5,808.5C 247.833,811.833 247.833,815.167 246.5,818.5C 245.702,816.922 245.202,815.256 245,813.5C 243.808,818.098 242.141,818.431 240,814.5C 239.781,815.938 239.281,817.271 238.5,818.5C 237.513,815.232 237.18,811.898 237.5,808.5 Z"/></g>
<g><path style="opacity:1" fill="#82a1bb" d="M 89.5,808.5 C 90.675,808.281 91.675,808.614 92.5,809.5C 93.4318,811.795 94.2652,814.129 95,816.5C 95.1109,812.718 96.9443,811.218 100.5,812C 96.5,814 96.5,816 100.5,818C 98.4259,817.773 96.4259,817.939 94.5,818.5C 92.5607,816.382 90.394,816.049 88,817.5C 88.3157,814.546 88.8157,811.546 89.5,808.5 Z"/></g>
<g><path style="opacity:1" fill="#b3cfda" d="M 109.5,811.5 C 108.167,813.833 108.167,816.167 109.5,818.5C 103.338,819.844 101.338,817.678 103.5,812C 105.473,811.505 107.473,811.338 109.5,811.5 Z"/></g>
<g><path style="opacity:1" fill="#7f9eae" d="M 134.5,811.5 C 136.103,811.312 137.437,811.812 138.5,813C 137.262,812.923 136.262,813.089 135.5,813.5C 137.98,814.415 138.647,815.915 137.5,818C 135.926,818.699 134.593,818.365 133.5,817C 134.738,817.077 135.738,816.911 136.5,816.5C 133.807,815.468 133.14,813.802 134.5,811.5 Z"/></g>
<g><path style="opacity:1" fill="#7c7e7d" d="M 276.5,811.5 C 276.244,813.792 276.577,815.959 277.5,818C 276.552,818.483 275.552,818.649 274.5,818.5C 274.5,817.5 274.5,816.5 274.5,815.5C 272.473,815.338 270.473,815.505 268.5,816C 269.536,817.617 270.703,817.784 272,816.5C 272.432,817.6 271.932,818.267 270.5,818.5C 267.754,817.904 266.92,816.237 268,813.5C 269.828,814.752 271.661,814.752 273.5,813.5C 274.326,812.987 274.992,811.653 275.5,809.5C 276.298,809.957 276.631,810.624 276.5,811.5 Z"/></g>
<g><path style="opacity:1" fill="#787878" d="M 282.5,818.5 C 281.022,818.762 279.689,818.429 278.5,817.5C 279.262,817.089 280.262,816.923 281.5,817C 279.561,816.092 278.561,814.592 278.5,812.5C 279.858,811.374 281.192,811.374 282.5,812.5C 281.975,813.192 281.308,813.692 280.5,814C 283.015,814.939 283.682,816.439 282.5,818.5 Z"/></g>
<g><path style="opacity:1" fill="#7d9ab1" d="M 109.5,811.5 C 114.328,811.385 115.661,813.552 113.5,818C 112.207,818.49 110.873,818.657 109.5,818.5C 108.167,816.167 108.167,813.833 109.5,811.5 Z"/></g>
<g><path style="opacity:1" fill="#d5f0f5" d="M 110.5,812.5 C 112.912,812.694 113.912,814.027 113.5,816.5C 112.167,816.5 110.833,816.5 109.5,816.5C 109.433,815.041 109.766,813.708 110.5,812.5 Z"/></g>
<g><path style="opacity:1" fill="#4c4f4e" d="M 257.5,812.5 C 258.239,812.369 258.906,812.536 259.5,813C 258.123,820.342 257.456,820.176 257.5,812.5 Z"/></g>
<g><path style="opacity:1" fill="#839db3" d="M 116.5,811.5 C 117.451,812.919 117.784,814.585 117.5,816.5C 118.5,816.5 119.5,816.5 120.5,816.5C 120.34,814.801 120.506,813.134 121,811.5C 121.667,813.5 121.667,815.5 121,817.5C 119.667,818.833 118.333,818.833 117,817.5C 116.505,815.527 116.338,813.527 116.5,811.5 Z"/></g>
<g><path style="opacity:1" fill="#abc6d4" d="M 129.5,809.5 C 130.5,809.5 131.5,809.5 132.5,809.5C 132.5,812.5 132.5,815.5 132.5,818.5C 130.5,818.5 128.5,818.5 126.5,818.5C 126.093,811.951 125.093,811.951 123.5,818.5C 122.526,816.257 122.192,813.924 122.5,811.5C 125.388,812.01 127.721,811.344 129.5,809.5 Z"/></g>
<g><path style="opacity:1" fill="#7f807f" d="M 249.5,811.5 C 251.5,811.5 253.5,811.5 255.5,811.5C 255.5,813.833 255.5,816.167 255.5,818.5C 249.472,819.41 247.472,817.076 249.5,811.5 Z"/></g>
<g><path style="opacity:1" fill="#eeefee" d="M 250.5,813.5 C 251.5,813.5 252.5,813.5 253.5,813.5C 253.5,814.833 253.5,816.167 253.5,817.5C 252.5,817.5 251.5,817.5 250.5,817.5C 250.5,816.167 250.5,814.833 250.5,813.5 Z"/></g>
<g><path style="opacity:1" fill="#dddede" d="M 264.5,812.5 C 266.436,812.118 268.436,811.785 270.5,811.5C 272.038,811.453 273.038,812.12 273.5,813.5C 271.661,814.752 269.828,814.752 268,813.5C 266.92,816.237 267.754,817.904 270.5,818.5C 271.932,818.267 272.432,817.6 272,816.5C 270.703,817.784 269.536,817.617 268.5,816C 270.473,815.505 272.473,815.338 274.5,815.5C 274.5,816.5 274.5,817.5 274.5,818.5C 275.552,818.649 276.552,818.483 277.5,818C 276.577,815.959 276.244,813.792 276.5,811.5C 277.167,811.833 277.833,812.167 278.5,812.5C 278.561,814.592 279.561,816.092 281.5,817C 280.262,816.923 279.262,817.089 278.5,817.5C 279.689,818.429 281.022,818.762 282.5,818.5C 282.5,818.833 282.5,819.167 282.5,819.5C 275.5,819.5 268.5,819.5 261.5,819.5C 261.5,819.167 261.5,818.833 261.5,818.5C 263.153,817.395 264.82,817.229 266.5,818C 265.643,817.311 264.977,816.478 264.5,815.5C 265.653,814.313 265.653,813.313 264.5,812.5 Z"/></g>
</svg>
