<?xml version="1.0" encoding="UTF-8"?>
<!DOCTYPE svg PUBLIC "-//W3C//DTD SVG 1.1//EN" "http://www.w3.org/Graphics/SVG/1.1/DTD/svg11.dtd">
<svg xmlns="http://www.w3.org/2000/svg" version="1.1" width="1033px" height="491px" style="shape-rendering:geometricPrecision; text-rendering:geometricPrecision; image-rendering:optimizeQuality; fill-rule:evenodd; clip-rule:evenodd" xmlns:xlink="http://www.w3.org/1999/xlink">
<g><path style="opacity:0.997" fill="#212121" d="M -0.5,-0.5 C 343.833,-0.5 688.167,-0.5 1032.5,-0.5C 1032.5,163.167 1032.5,326.833 1032.5,490.5C 688.167,490.5 343.833,490.5 -0.5,490.5C -0.5,326.833 -0.5,163.167 -0.5,-0.5 Z"/></g>
<g><path style="opacity:1" fill="#a9a9a9" d="M 71.5,55.5 C 77.7316,54.9386 83.7316,55.772 89.5,58C 91.019,59.3513 92.3523,60.8513 93.5,62.5C 91.1331,66.3622 88.7998,66.1955 86.5,62C 81.9241,60.5236 77.2574,60.1902 72.5,61C 67.7673,63.9218 67.4339,67.2552 71.5,71C 77.5,73 83.5,75 89.5,77C 94.6297,81.2177 95.7964,86.3843 93,92.5C 84.7996,99.4365 75.9663,100.27 66.5,95C 64.4565,93.292 62.7899,91.292 61.5,89C 64.2401,85.5747 66.5734,85.908 68.5,90C 73.0599,93.1737 78.0599,94.1737 83.5,93C 89.416,90.8553 90.7494,87.1887 87.5,82C 82.7639,79.5654 77.7639,77.8987 72.5,77C 64.8965,74.9593 62.0632,70.126 64,62.5C 65.7424,59.2543 68.2424,56.921 71.5,55.5 Z"/></g>
<g><path style="opacity:1" fill="#a7a7a7" d="M 438.5,55.5 C 444.732,54.9386 450.732,55.772 456.5,58C 458.019,59.3513 459.352,60.8513 460.5,62.5C 459.833,63.8333 458.833,64.8333 457.5,65.5C 452.402,60.8252 446.402,59.3252 439.5,61C 434.243,64.4795 434.243,68.1462 439.5,72C 445.819,73.0788 451.819,75.0788 457.5,78C 462.299,82.6568 462.799,87.8235 459,93.5C 450.87,99.5282 442.37,100.028 433.5,95C 431.649,93.3163 429.982,91.4829 428.5,89.5C 429.167,88.1667 430.167,87.1667 431.5,86.5C 436.586,92.1911 442.919,94.3578 450.5,93C 455.364,90.6537 456.697,86.9871 454.5,82C 447.422,79.5297 440.422,76.863 433.5,74C 428.805,69.6514 428.305,64.8181 432,59.5C 434.095,57.8753 436.261,56.5419 438.5,55.5 Z"/></g>
<g><path style="opacity:1" fill="#a4a4a4" d="M 160.5,56.5 C 164.138,55.7366 165.638,57.0699 165,60.5C 160.415,62.4126 158.915,61.0793 160.5,56.5 Z"/></g>
<g><path style="opacity:1" fill="#787878" d="M 266.5,60.5 C 266.5,59.1667 266.5,57.8333 266.5,56.5C 257.833,56.5 249.167,56.5 240.5,56.5C 240.5,70.1667 240.5,83.8333 240.5,97.5C 239.504,83.6766 239.171,69.6766 239.5,55.5C 248.833,55.5 258.167,55.5 267.5,55.5C 267.784,57.4147 267.451,59.0813 266.5,60.5 Z"/></g>
<g><path style="opacity:1" fill="#b1b2b1" d="M 266.5,60.5 C 259.5,60.5 252.5,60.5 245.5,60.5C 244.513,65.3054 244.179,70.3054 244.5,75.5C 251.5,75.5 258.5,75.5 265.5,75.5C 265.5,76.8333 265.5,78.1667 265.5,79.5C 258.5,79.5 251.5,79.5 244.5,79.5C 244.5,85.5 244.5,91.5 244.5,97.5C 243.167,97.5 241.833,97.5 240.5,97.5C 240.5,83.8333 240.5,70.1667 240.5,56.5C 249.167,56.5 257.833,56.5 266.5,56.5C 266.5,57.8333 266.5,59.1667 266.5,60.5 Z"/></g>
<g><path style="opacity:1" fill="#b0b0b0" d="M 220.5,71.5 C 218.167,71.5 215.833,71.5 213.5,71.5C 213.334,78.175 213.5,84.8417 214,91.5C 215.754,93.25 217.921,93.9167 220.5,93.5C 220.5,94.8333 220.5,96.1667 220.5,97.5C 217.813,97.6641 215.146,97.4974 212.5,97C 210.859,95.871 209.859,94.371 209.5,92.5C 209.5,85.5 209.5,78.5 209.5,71.5C 208.167,71.5 206.833,71.5 205.5,71.5C 205.5,70.5 205.5,69.5 205.5,68.5C 206.791,68.7373 207.791,68.404 208.5,67.5C 209.473,65.0521 209.806,62.3854 209.5,59.5C 210.833,59.5 212.167,59.5 213.5,59.5C 213.5,62.5 213.5,65.5 213.5,68.5C 215.833,68.5 218.167,68.5 220.5,68.5C 220.5,69.5 220.5,70.5 220.5,71.5 Z"/></g>
<g><path style="opacity:1" fill="#545454" d="M 220.5,71.5 C 220.5,70.5 220.5,69.5 220.5,68.5C 218.167,68.5 215.833,68.5 213.5,68.5C 213.5,65.5 213.5,62.5 213.5,59.5C 212.167,59.5 210.833,59.5 209.5,59.5C 209.806,62.3854 209.473,65.0521 208.5,67.5C 208.5,64.5 208.5,61.5 208.5,58.5C 210.5,58.5 212.5,58.5 214.5,58.5C 214.5,61.5 214.5,64.5 214.5,67.5C 216.833,67.5 219.167,67.5 221.5,67.5C 221.768,69.099 221.434,70.4324 220.5,71.5 Z"/></g>
<g><path style="opacity:1" fill="#a8a8a8" d="M 101.5,68.5 C 102.833,68.5 104.167,68.5 105.5,68.5C 105.238,69.9778 105.571,71.3112 106.5,72.5C 107.107,72.3764 107.44,72.0431 107.5,71.5C 112.152,67.2476 117.486,66.4143 123.5,69C 131.75,74.8487 133.583,82.3487 129,91.5C 124.466,97.0578 118.632,98.8911 111.5,97C 109.714,96.2155 108.214,95.0488 107,93.5C 106.501,98.8229 106.334,104.156 106.5,109.5C 104.833,109.5 103.167,109.5 101.5,109.5C 101.5,95.8333 101.5,82.1667 101.5,68.5 Z"/></g>
<g><path style="opacity:1" fill="#a8a8a8" d="M 282.5,67.5 C 297.644,67.4611 303.477,74.7944 300,89.5C 295.242,97.1598 288.408,99.6598 279.5,97C 272.501,92.3514 270.001,85.8514 272,77.5C 274.106,72.5573 277.606,69.224 282.5,67.5 Z"/></g>
<g><path style="opacity:1" fill="#a7a7a7" d="M 380.5,67.5 C 385.412,67.0631 390.078,67.8964 394.5,70C 397.287,71.9066 397.12,73.4066 394,74.5C 390.257,71.7585 386.091,70.9252 381.5,72C 377.624,74.1276 377.624,76.4609 381.5,79C 384.73,80.308 388.064,81.308 391.5,82C 396.224,84.4353 397.724,88.2686 396,93.5C 391.854,98.0894 386.688,99.5894 380.5,98C 377.22,97.0502 374.887,95.0502 373.5,92C 374.009,90.8315 374.842,89.9981 376,89.5C 380.76,95.2284 386.093,95.895 392,91.5C 392.825,89.2992 392.325,87.4659 390.5,86C 387.167,85 383.833,84 380.5,83C 375.076,80.983 373.242,77.1497 375,71.5C 376.812,70.0229 378.645,68.6896 380.5,67.5 Z"/></g>
<g><path style="opacity:1" fill="#a8a8a8" d="M 616.5,67.5 C 621.969,66.7101 626.469,68.3768 630,72.5C 630.494,70.8659 630.66,69.1992 630.5,67.5C 632.167,67.5 633.833,67.5 635.5,67.5C 635.5,77.5 635.5,87.5 635.5,97.5C 633.833,97.5 632.167,97.5 630.5,97.5C 630.657,96.1266 630.49,94.7932 630,93.5C 623.939,98.2621 617.439,98.7621 610.5,95C 603.532,86.3562 603.865,78.0229 611.5,70C 613.315,69.2432 614.981,68.4098 616.5,67.5 Z"/></g>
<g><path style="opacity:1" fill="#666666" d="M 101.5,68.5 C 102.919,67.5489 104.585,67.2155 106.5,67.5C 106.232,69.099 106.566,70.4324 107.5,71.5C 107.44,72.0431 107.107,72.3764 106.5,72.5C 105.571,71.3112 105.238,69.9778 105.5,68.5C 104.167,68.5 102.833,68.5 101.5,68.5 Z"/></g>
<g><path style="opacity:1" fill="#a7a7a7" d="M 138.5,68.5 C 139.833,68.5 141.167,68.5 142.5,68.5C 142.34,70.1992 142.506,71.8659 143,73.5C 143.717,72.9558 144.217,72.2891 144.5,71.5C 146.835,68.8352 149.835,67.5018 153.5,67.5C 153.5,69.1667 153.5,70.8333 153.5,72.5C 149.112,71.9433 145.945,73.6099 144,77.5C 143.5,84.1583 143.334,90.825 143.5,97.5C 141.833,97.5 140.167,97.5 138.5,97.5C 138.5,87.8333 138.5,78.1667 138.5,68.5 Z"/></g>
<g><path style="opacity:1" fill="#686868" d="M 138.5,68.5 C 139.919,67.5489 141.585,67.2155 143.5,67.5C 143.232,69.099 143.566,70.4324 144.5,71.5C 144.217,72.2891 143.717,72.9558 143,73.5C 142.506,71.8659 142.34,70.1992 142.5,68.5C 141.167,68.5 139.833,68.5 138.5,68.5 Z"/></g>
<g><path style="opacity:1" fill="#676767" d="M 164.5,68.5 C 163.167,68.5 161.833,68.5 160.5,68.5C 160.5,78.1667 160.5,87.8333 160.5,97.5C 159.506,87.6806 159.173,77.6806 159.5,67.5C 161.415,67.2155 163.081,67.5489 164.5,68.5 Z"/></g>
<g><path style="opacity:1" fill="#b1b2b1" d="M 164.5,68.5 C 164.5,78.1667 164.5,87.8333 164.5,97.5C 163.167,97.5 161.833,97.5 160.5,97.5C 160.5,87.8333 160.5,78.1667 160.5,68.5C 161.833,68.5 163.167,68.5 164.5,68.5 Z"/></g>
<g><path style="opacity:1" fill="#484848" d="M 178.5,70.5 C 177.58,71.0674 177.246,70.4008 177.5,68.5C 176.167,68.5 174.833,68.5 173.5,68.5C 173.5,78.1667 173.5,87.8333 173.5,97.5C 172.506,87.6806 172.173,77.6806 172.5,67.5C 174.5,67.5 176.5,67.5 178.5,67.5C 178.5,68.5 178.5,69.5 178.5,70.5 Z"/></g>
<g><path style="opacity:1" fill="#aaaaaa" d="M 173.5,97.5 C 173.5,87.8333 173.5,78.1667 173.5,68.5C 174.833,68.5 176.167,68.5 177.5,68.5C 177.246,70.4008 177.58,71.0674 178.5,70.5C 184.305,66.5402 190.138,66.5402 196,70.5C 197.439,72.2746 198.439,74.2746 199,76.5C 199.5,83.4921 199.666,90.4921 199.5,97.5C 197.833,97.5 196.167,97.5 194.5,97.5C 194.666,90.4921 194.5,83.4921 194,76.5C 188.121,69.5096 182.787,69.843 178,77.5C 177.5,84.1583 177.334,90.825 177.5,97.5C 176.167,97.5 174.833,97.5 173.5,97.5 Z"/></g>
<g><path style="opacity:1" fill="#a7a7a7" d="M 317.5,67.5 C 323.279,66.708 328.446,68.0414 333,71.5C 332.72,76.1463 330.887,76.6463 327.5,73C 315.667,70.8333 310.833,75.6667 313,87.5C 315.633,92.7315 319.799,94.5649 325.5,93C 327.848,92.6541 329.681,91.4875 331,89.5C 332.255,90.2106 333.421,91.044 334.5,92C 329.636,97.26 323.636,98.9267 316.5,97C 307.227,91.31 305.06,83.4767 310,73.5C 312.114,70.8792 314.614,68.8792 317.5,67.5 Z"/></g>
<g><path style="opacity:1" fill="#767676" d="M 345.5,68.5 C 344.167,68.5 342.833,68.5 341.5,68.5C 341.5,75.1667 341.5,81.8333 341.5,88.5C 340.509,81.6866 340.175,74.6866 340.5,67.5C 342.415,67.2155 344.081,67.5489 345.5,68.5 Z"/></g>
<g><path style="opacity:1" fill="#aeaeae" d="M 345.5,68.5 C 345.334,75.5079 345.5,82.5079 346,89.5C 350.053,94.0076 354.72,94.6743 360,91.5C 360.791,90.255 361.291,88.9217 361.5,87.5C 362.49,81.3554 362.823,75.0221 362.5,68.5C 363.833,68.5 365.167,68.5 366.5,68.5C 366.5,78.1667 366.5,87.8333 366.5,97.5C 364.833,97.5 363.167,97.5 361.5,97.5C 361.649,96.448 361.483,95.448 361,94.5C 360.097,95.7014 358.931,96.5348 357.5,97C 351.924,98.4716 347.091,97.3049 343,93.5C 341.991,91.9751 341.491,90.3084 341.5,88.5C 341.5,81.8333 341.5,75.1667 341.5,68.5C 342.833,68.5 344.167,68.5 345.5,68.5 Z"/></g>
<g><path style="opacity:1" fill="#676767" d="M 366.5,68.5 C 365.167,68.5 363.833,68.5 362.5,68.5C 362.823,75.0221 362.49,81.3554 361.5,87.5C 361.5,80.8333 361.5,74.1667 361.5,67.5C 363.415,67.2155 365.081,67.5489 366.5,68.5 Z"/></g>
<g><path style="opacity:1" fill="#aeaeae" d="M 473.5,88.5 C 474.5,92.3234 477,93.99 481,93.5C 485.459,93.8696 487.959,91.8696 488.5,87.5C 489.49,81.3554 489.823,75.0221 489.5,68.5C 490.833,68.5 492.167,68.5 493.5,68.5C 493.5,78.1667 493.5,87.8333 493.5,97.5C 492.167,97.5 490.833,97.5 489.5,97.5C 489.026,93.8431 487.693,93.6764 485.5,97C 481.833,97.6667 478.167,97.6667 474.5,97C 470.735,95.4033 468.735,92.57 468.5,88.5C 468.5,81.8333 468.5,75.1667 468.5,68.5C 469.833,68.5 471.167,68.5 472.5,68.5C 472.176,75.3543 472.509,82.021 473.5,88.5 Z"/></g>
<g><path style="opacity:1" fill="#4c4c4c" d="M 473.5,88.5 C 472.509,82.021 472.176,75.3543 472.5,68.5C 471.167,68.5 469.833,68.5 468.5,68.5C 468.5,75.1667 468.5,81.8333 468.5,88.5C 467.509,81.6866 467.175,74.6866 467.5,67.5C 469.5,67.5 471.5,67.5 473.5,67.5C 473.5,74.5 473.5,81.5 473.5,88.5 Z"/></g>
<g><path style="opacity:1" fill="#525252" d="M 493.5,97.5 C 493.5,87.8333 493.5,78.1667 493.5,68.5C 492.167,68.5 490.833,68.5 489.5,68.5C 489.823,75.0221 489.49,81.3554 488.5,87.5C 488.5,80.8333 488.5,74.1667 488.5,67.5C 490.5,67.5 492.5,67.5 494.5,67.5C 494.827,77.6806 494.494,87.6806 493.5,97.5 Z"/></g>
<g><path style="opacity:1" fill="#676767" d="M 506.5,68.5 C 505.167,68.5 503.833,68.5 502.5,68.5C 502.5,78.1667 502.5,87.8333 502.5,97.5C 501.506,87.6806 501.173,77.6806 501.5,67.5C 503.415,67.2155 505.081,67.5489 506.5,68.5 Z"/></g>
<g><path style="opacity:1" fill="#ababab" d="M 502.5,97.5 C 502.5,87.8333 502.5,78.1667 502.5,68.5C 503.833,68.5 505.167,68.5 506.5,68.5C 506.351,69.552 506.517,70.552 507,71.5C 513.256,66.0564 519.256,66.3897 525,72.5C 529.615,67.4564 535.115,66.2897 541.5,69C 543.617,70.7309 545.117,72.8976 546,75.5C 546.5,82.8258 546.666,90.1591 546.5,97.5C 544.833,97.5 543.167,97.5 541.5,97.5C 541.666,90.4921 541.5,83.4921 541,76.5C 536.333,69.8333 531.667,69.8333 527,76.5C 526.5,83.4921 526.334,90.4921 526.5,97.5C 524.833,97.5 523.167,97.5 521.5,97.5C 521.666,90.1591 521.5,82.8258 521,75.5C 515.837,69.9377 511.171,70.271 507,76.5C 506.5,83.4921 506.334,90.4921 506.5,97.5C 505.167,97.5 503.833,97.5 502.5,97.5 Z"/></g>
<g><path style="opacity:1" fill="#555555" d="M 560.5,69.5 C 559.012,72.1864 558.345,71.8531 558.5,68.5C 557.167,68.5 555.833,68.5 554.5,68.5C 554.5,78.1667 554.5,87.8333 554.5,97.5C 553.506,87.6806 553.173,77.6806 553.5,67.5C 556.211,67.1849 558.544,67.8516 560.5,69.5 Z"/></g>
<g><path style="opacity:1" fill="#aaaaaa" d="M 554.5,97.5 C 554.5,87.8333 554.5,78.1667 554.5,68.5C 555.833,68.5 557.167,68.5 558.5,68.5C 558.345,71.8531 559.012,72.1864 560.5,69.5C 566.8,66.2799 572.3,67.2799 577,72.5C 581.653,67.453 587.153,66.2863 593.5,69C 595.378,70.5429 596.878,72.3762 598,74.5C 598.5,82.1594 598.666,89.8261 598.5,97.5C 596.833,97.5 595.167,97.5 593.5,97.5C 593.666,90.1591 593.5,82.8258 593,75.5C 587.837,69.9377 583.171,70.271 579,76.5C 578.5,83.4921 578.334,90.4921 578.5,97.5C 576.833,97.5 575.167,97.5 573.5,97.5C 573.666,90.1591 573.5,82.8258 573,75.5C 567.837,69.9377 563.171,70.271 559,76.5C 558.5,83.4921 558.334,90.4921 558.5,97.5C 557.167,97.5 555.833,97.5 554.5,97.5 Z"/></g>
<g><path style="opacity:1" fill="#a7a7a7" d="M 643.5,68.5 C 644.833,68.5 646.167,68.5 647.5,68.5C 647.34,70.1992 647.506,71.8659 648,73.5C 648.717,72.9558 649.217,72.2891 649.5,71.5C 651.835,68.8352 654.835,67.5018 658.5,67.5C 658.5,69.1667 658.5,70.8333 658.5,72.5C 654.112,71.9433 650.945,73.6099 649,77.5C 648.5,84.1583 648.334,90.825 648.5,97.5C 646.833,97.5 645.167,97.5 643.5,97.5C 643.5,87.8333 643.5,78.1667 643.5,68.5 Z"/></g>
<g><path style="opacity:1" fill="#686868" d="M 643.5,68.5 C 644.919,67.5489 646.585,67.2155 648.5,67.5C 648.232,69.099 648.566,70.4324 649.5,71.5C 649.217,72.2891 648.717,72.9558 648,73.5C 647.506,71.8659 647.34,70.1992 647.5,68.5C 646.167,68.5 644.833,68.5 643.5,68.5 Z"/></g>
<g><path style="opacity:1" fill="#a7a7a7" d="M 684.5,67.5 C 686.288,67.2148 687.955,67.5481 689.5,68.5C 684.333,81.5 679.167,94.5 674,107.5C 672.507,109.56 670.674,109.893 668.5,108.5C 669.973,104.749 671.64,101.083 673.5,97.5C 669.529,88.2826 665.863,78.9492 662.5,69.5C 664.045,68.5481 665.712,68.2148 667.5,68.5C 669.648,75.7783 672.482,82.7783 676,89.5C 679.334,82.3273 682.167,74.994 684.5,67.5 Z"/></g>
<g><path style="opacity:1" fill="#232323" d="M 111.5,72.5 C 122.935,71.1017 127.768,76.1017 126,87.5C 123.081,93.0248 118.581,94.8581 112.5,93C 110,91.8333 108.167,90 107,87.5C 105.252,81.2984 106.752,76.2984 111.5,72.5 Z"/></g>
<g><path style="opacity:1" fill="#5f5f5f" d="M 208.5,67.5 C 207.791,68.404 206.791,68.7373 205.5,68.5C 205.5,69.5 205.5,70.5 205.5,71.5C 206.833,71.5 208.167,71.5 209.5,71.5C 209.5,78.5 209.5,85.5 209.5,92.5C 208.509,86.021 208.176,79.3543 208.5,72.5C 207.167,72.5 205.833,72.5 204.5,72.5C 204.5,70.8333 204.5,69.1667 204.5,67.5C 205.833,67.5 207.167,67.5 208.5,67.5 Z"/></g>
<g><path style="opacity:1" fill="#232323" d="M 281.5,72.5 C 295.699,72.0665 299.699,78.2332 293.5,91C 280.618,95.7957 275.118,91.2957 277,77.5C 278.025,75.313 279.525,73.6464 281.5,72.5 Z"/></g>
<g><path style="opacity:1" fill="#232323" d="M 615.5,72.5 C 628.307,71.4794 632.807,77.1461 629,89.5C 625.604,93.2027 621.437,94.3694 616.5,93C 614,91.8333 612.167,90 611,87.5C 609.252,81.2984 610.752,76.2984 615.5,72.5 Z"/></g>
<g><path style="opacity:1" fill="#5f5f5f" d="M 245.5,60.5 C 245.5,65.1667 245.5,69.8333 245.5,74.5C 252.167,74.5 258.833,74.5 265.5,74.5C 265.5,74.8333 265.5,75.1667 265.5,75.5C 258.5,75.5 251.5,75.5 244.5,75.5C 244.179,70.3054 244.513,65.3054 245.5,60.5 Z"/></g>
<g><path style="opacity:1" fill="#b1b1b1" d="M 403.5,76.5 C 409.5,76.5 415.5,76.5 421.5,76.5C 421.5,77.8333 421.5,79.1667 421.5,80.5C 415.5,80.5 409.5,80.5 403.5,80.5C 403.5,79.1667 403.5,77.8333 403.5,76.5 Z"/></g>
<g><path style="opacity:1" fill="#3f3f3f" d="M 265.5,74.5 C 266.461,76.2646 266.795,78.2646 266.5,80.5C 259.5,80.5 252.5,80.5 245.5,80.5C 245.822,86.358 245.489,92.0247 244.5,97.5C 244.5,91.5 244.5,85.5 244.5,79.5C 251.5,79.5 258.5,79.5 265.5,79.5C 265.5,78.1667 265.5,76.8333 265.5,75.5C 265.5,75.1667 265.5,74.8333 265.5,74.5 Z"/></g>
<g><path style="opacity:1" fill="#5d495b" d="M 469.5,138.5 C 499.995,137.502 530.662,137.169 561.5,137.5C 561.831,168.338 561.498,199.005 560.5,229.5C 560.5,229.167 560.5,228.833 560.5,228.5C 560.5,198.5 560.5,168.5 560.5,138.5C 530.5,138.5 500.5,138.5 470.5,138.5C 470.167,138.5 469.833,138.5 469.5,138.5 Z"/></g>
<g><path style="opacity:1" fill="#b183a8" d="M 72.5,138.5 C 102.5,138.5 132.5,138.5 162.5,138.5C 162.5,168.5 162.5,198.5 162.5,228.5C 162.5,198.5 162.5,168.5 162.5,138.5C 132.5,138.5 102.5,138.5 72.5,138.5 Z"/></g>
<g><path style="opacity:1" fill="#b083a7" d="M 470.5,138.5 C 500.5,138.5 530.5,138.5 560.5,138.5C 560.5,168.5 560.5,198.5 560.5,228.5C 530.5,228.5 500.5,228.5 470.5,228.5C 470.5,198.5 470.5,168.5 470.5,138.5 Z"/></g>
<g><path style="opacity:1" fill="#604a5b" d="M 79.5,148.5 C 80.7409,150.931 81.9076,150.931 83,148.5C 83.3333,149.167 83.6667,149.833 84,150.5C 85,149.167 86,149.167 87,150.5C 87.3879,149.572 88.0546,148.905 89,148.5C 91.1508,149.732 93.3175,149.732 95.5,148.5C 97.1966,148.899 98.8632,149.399 100.5,150C 99.1667,150.667 99.1667,151.333 100.5,152C 93.5231,152.388 86.6897,152.554 80,152.5C 79.51,151.207 79.3433,149.873 79.5,148.5 Z"/></g>
<g><path style="opacity:1" fill="#6a5165" d="M 102.5,148.5 C 107.386,148.997 112.053,149.497 116.5,150C 115.167,150.667 115.167,151.333 116.5,152C 115.833,152.167 115.167,152.333 114.5,152.5C 110.661,152.242 106.661,152.242 102.5,152.5C 102.5,151.167 102.5,149.833 102.5,148.5 Z"/></g>
<g><path style="opacity:1" fill="#5f495a" d="M 477.5,148.5 C 480.702,149.7 483.869,149.7 487,148.5C 487.882,152.027 487.382,152.693 485.5,150.5C 483.88,153.058 482.38,153.058 481,150.5C 480.29,151.973 479.124,152.64 477.5,152.5C 477.5,151.167 477.5,149.833 477.5,148.5 Z"/></g>
<g><path style="opacity:1" fill="#685063" d="M 504.5,148.5 C 514.203,149.127 523.869,149.461 533.5,149.5C 532.833,150.833 532.167,152.167 531.5,153.5C 522.528,152.653 513.528,152.32 504.5,152.5C 504.5,151.167 504.5,149.833 504.5,148.5 Z"/></g>
<g><path style="opacity:1" fill="#684f63" d="M 495.5,148.5 C 496.458,148.953 497.292,149.619 498,150.5C 499.699,149.594 501.533,149.261 503.5,149.5C 503.778,151.346 503.111,152.68 501.5,153.5C 497.134,153.071 492.801,152.737 488.5,152.5C 488.413,149.402 488.913,149.068 490,151.5C 491.649,150.047 493.482,149.047 495.5,148.5 Z"/></g>
<g><path style="opacity:1" fill="#60495a" d="M 534.5,149.5 C 537.167,149.5 539.833,149.5 542.5,149.5C 542.5,150.5 542.5,151.5 542.5,152.5C 539.833,152.5 537.167,152.5 534.5,152.5C 534.5,151.5 534.5,150.5 534.5,149.5 Z"/></g>
<g><path style="opacity:1" fill="#674f63" d="M 79.5,157.5 C 91.4826,158.106 103.483,158.773 115.5,159.5C 116.025,160.192 116.692,160.692 117.5,161C 104.751,161.772 92.0841,162.272 79.5,162.5C 79.5,160.833 79.5,159.167 79.5,157.5 Z"/></g>
<g><path style="opacity:1" fill="#674f62" d="M 478.5,157.5 C 487.78,158.447 497.114,158.78 506.5,158.5C 506.5,159.5 506.5,160.5 506.5,161.5C 501.025,162.081 495.858,161.414 491,159.5C 489.934,161.099 488.434,162.099 486.5,162.5C 483.746,162.103 480.746,161.77 477.5,161.5C 477.433,160.041 477.766,158.708 478.5,157.5 Z"/></g>
<g><path style="opacity:1" fill="#886683" d="M 72.5,138.5 C 72.5,168.5 72.5,198.5 72.5,228.5C 102.5,228.5 132.5,228.5 162.5,228.5C 132.338,229.498 102.005,229.831 71.5,229.5C 71.1685,198.995 71.5019,168.662 72.5,138.5 Z"/></g>
<g><path style="opacity:1" fill="#7b5e77" d="M 170.5,138.5 C 170.5,168.5 170.5,198.5 170.5,228.5C 200.5,228.5 230.5,228.5 260.5,228.5C 260.5,198.5 260.5,168.5 260.5,138.5C 261.498,168.662 261.831,198.995 261.5,229.5C 230.833,229.5 200.167,229.5 169.5,229.5C 169.169,198.995 169.502,168.662 170.5,138.5 Z"/></g>
<g><path style="opacity:1" fill="#af82a6" d="M 170.5,138.5 C 200.5,138.5 230.5,138.5 260.5,138.5C 260.5,168.5 260.5,198.5 260.5,228.5C 230.5,228.5 200.5,228.5 170.5,228.5C 170.5,198.5 170.5,168.5 170.5,138.5 Z"/></g>
<g><path style="opacity:1" fill="#8c6886" d="M 189.5,185.5 C 189.586,186.496 189.252,187.329 188.5,188C 190.437,188.122 191.77,188.955 192.5,190.5C 187.595,189.555 182.595,189.221 177.5,189.5C 177.215,187.712 177.548,186.045 178.5,184.5C 182.188,184.693 185.855,185.027 189.5,185.5 Z"/></g>
<g><path style="opacity:1" fill="#775a73" d="M 192.5,190.5 C 191.77,188.955 190.437,188.122 188.5,188C 189.252,187.329 189.586,186.496 189.5,185.5C 195.425,185.808 201.259,185.475 207,184.5C 207.667,186.167 207.667,187.833 207,189.5C 204.333,188.167 201.667,188.167 199,189.5C 198.085,188.672 197.419,187.672 197,186.5C 196.252,188.751 194.752,190.084 192.5,190.5 Z"/></g>
<g><path style="opacity:1" fill="#7f607a" d="M 211.5,174.5 C 216.201,174.886 220.867,175.552 225.5,176.5C 229.387,176.687 233.387,176.354 237.5,175.5C 239.685,176.313 241.352,177.813 242.5,180C 242.333,180.5 242.167,181 242,181.5C 239.539,180.782 237.039,180.115 234.5,179.5C 229.797,180.486 224.963,180.819 220,180.5C 218.342,180.325 217.009,179.658 216,178.5C 214.89,180.037 213.39,180.703 211.5,180.5C 211.5,178.5 211.5,176.5 211.5,174.5 Z"/></g>
<g><path style="opacity:1" fill="#80607b" d="M 178.5,175.5 C 188.529,176.488 198.529,176.822 208.5,176.5C 208.5,177.5 208.5,178.5 208.5,179.5C 198.826,180.048 188.826,180.215 178.5,180C 177.272,178.51 177.272,177.01 178.5,175.5 Z"/></g>
<g><path style="opacity:1" fill="#81617c" d="M 236.5,166.5 C 238.213,167.635 238.88,169.302 238.5,171.5C 233.482,171.387 228.482,171.053 223.5,170.5C 223.5,169.5 223.5,168.5 223.5,167.5C 226.711,167.012 229.544,167.679 232,169.5C 232.667,166.833 233.333,166.833 234,169.5C 234.698,168.309 235.531,167.309 236.5,166.5 Z"/></g>
<g><path style="opacity:1" fill="#795b74" d="M 203.5,167.5 C 209.5,167.5 215.5,167.5 221.5,167.5C 221.5,168.5 221.5,169.5 221.5,170.5C 215.5,170.5 209.5,170.5 203.5,170.5C 203.5,169.5 203.5,168.5 203.5,167.5 Z"/></g>
<g><path style="opacity:1" fill="#866480" d="M 187.5,165.5 C 188.756,165.904 189.923,166.571 191,167.5C 193.611,166.676 196.111,166.343 198.5,166.5C 200.941,168.022 201.607,170.022 200.5,172.5C 195.874,171.615 191.207,170.949 186.5,170.5C 186.366,168.708 186.699,167.042 187.5,165.5 Z"/></g>
<g><path style="opacity:1" fill="#916c8a" d="M 214.5,158.5 C 214.5,159.5 214.5,160.5 214.5,161.5C 217.187,161.664 219.854,161.497 222.5,161C 221.748,160.329 221.414,159.496 221.5,158.5C 225.182,158.335 228.848,158.501 232.5,159C 231.167,159.667 231.167,160.333 232.5,161C 226.258,162.37 219.925,162.87 213.5,162.5C 213.232,160.901 213.566,159.568 214.5,158.5 Z"/></g>
<g><path style="opacity:1" fill="#71556c" d="M 185.5,158.5 C 189.673,157.956 193.506,158.623 197,160.5C 197.333,159.833 197.667,159.167 198,158.5C 199.961,158.975 202.127,158.975 204.5,158.5C 207.131,158.321 209.465,158.987 211.5,160.5C 210.502,163.028 209.669,163.028 209,160.5C 205.667,161.833 202.333,161.833 199,160.5C 198.196,161.804 197.029,162.471 195.5,162.5C 192.217,161.673 188.884,161.34 185.5,161.5C 185.5,160.5 185.5,159.5 185.5,158.5 Z"/></g>
<g><path style="opacity:1" fill="#85647f" d="M 177.5,157.5 C 179.435,158.15 181.435,158.483 183.5,158.5C 183.241,162.068 181.241,163.401 177.5,162.5C 177.5,160.833 177.5,159.167 177.5,157.5 Z"/></g>
<g><path style="opacity:1" fill="#7c5d76" d="M 233.5,158.5 C 237.622,158.66 241.956,158.66 246.5,158.5C 246.884,160.665 246.217,162.332 244.5,163.5C 241.523,161.297 238.356,160.963 235,162.5C 234.209,161.255 233.709,159.922 233.5,158.5 Z"/></g>
<g><path style="opacity:1" fill="#71566e" d="M 214.5,158.5 C 216.833,158.5 219.167,158.5 221.5,158.5C 221.414,159.496 221.748,160.329 222.5,161C 219.854,161.497 217.187,161.664 214.5,161.5C 214.5,160.5 214.5,159.5 214.5,158.5 Z"/></g>
<g><path style="opacity:1" fill="#5f4a5b" d="M 194.5,149.5 C 195.222,149.918 195.722,150.584 196,151.5C 198.043,149.033 200.21,149.033 202.5,151.5C 199.634,152.208 196.8,152.875 194,153.5C 193.421,152.072 193.588,150.738 194.5,149.5 Z"/></g>
<g><path style="opacity:1" fill="#634c5f" d="M 212.5,148.5 C 213.833,148.5 215.167,148.5 216.5,148.5C 216.5,150.167 216.5,151.833 216.5,153.5C 212.812,153.219 209.145,152.719 205.5,152C 206.696,151.346 206.696,150.846 205.5,150.5C 203.995,153.131 203.329,152.797 203.5,149.5C 206.713,149.81 209.713,149.477 212.5,148.5 Z"/></g>
<g><path style="opacity:1" fill="#604a5b" d="M 242.5,148.5 C 243.708,149.234 245.041,149.567 246.5,149.5C 246.5,150.5 246.5,151.5 246.5,152.5C 244.549,152.773 243.049,152.107 242,150.5C 240.333,153.167 238.667,153.167 237,150.5C 236.667,151.5 236.333,152.5 236,153.5C 233.688,153.045 231.688,152.045 230,150.5C 226.164,152.389 221.997,153.055 217.5,152.5C 217.5,151.5 217.5,150.5 217.5,149.5C 220.85,149.335 224.183,149.502 227.5,150C 226.304,150.654 226.304,151.154 227.5,151.5C 228.749,149.525 230.249,149.191 232,150.5C 235.603,149.865 239.103,149.198 242.5,148.5 Z"/></g>
<g><path style="opacity:1" fill="#654e60" d="M 177.5,148.5 C 182.149,149.065 186.816,149.565 191.5,150C 190.366,151.016 190.699,151.683 192.5,152C 187.511,152.499 182.511,152.666 177.5,152.5C 177.5,151.167 177.5,149.833 177.5,148.5 Z"/></g>
<g><path style="opacity:1" fill="#6f566b" d="M 359.5,138.5 C 360.498,168.662 360.831,198.995 360.5,229.5C 329.833,229.5 299.167,229.5 268.5,229.5C 268.5,198.833 268.5,168.167 268.5,137.5C 299.005,137.169 329.338,137.502 359.5,138.5 Z"/></g>
<g><path style="opacity:1" fill="#b183a8" d="M 359.5,138.5 C 359.5,168.5 359.5,198.5 359.5,228.5C 329.5,228.5 299.5,228.5 269.5,228.5C 269.5,198.5 269.5,168.5 269.5,138.5C 299.5,138.5 329.5,138.5 359.5,138.5 Z"/></g>
<g><path style="opacity:1" fill="#9a7292" d="M 276.5,217.5 C 286.167,217.5 295.833,217.5 305.5,217.5C 305.5,218.5 305.5,219.5 305.5,220.5C 295.833,220.5 286.167,220.5 276.5,220.5C 276.5,219.5 276.5,218.5 276.5,217.5 Z"/></g>
<g><path style="opacity:1" fill="#634c5d" d="M 276.5,157.5 C 281.041,157.331 281.374,157.998 277.5,159.5C 278.955,160.745 280.289,160.578 281.5,159C 290.827,158.5 300.161,158.334 309.5,158.5C 309.587,161.598 309.087,161.932 308,159.5C 302.594,161.208 296.928,162.208 291,162.5C 286.219,161.581 281.385,161.248 276.5,161.5C 276.5,160.167 276.5,158.833 276.5,157.5 Z"/></g>
<g><path style="opacity:1" fill="#6e546a" d="M 306.5,149.5 C 311.833,149.5 317.167,149.5 322.5,149.5C 322.5,150.5 322.5,151.5 322.5,152.5C 315.332,153.361 308.332,153.361 301.5,152.5C 303.201,152.034 304.701,152.034 306,152.5C 306.483,151.552 306.649,150.552 306.5,149.5 Z"/></g>
<g><path style="opacity:1" fill="#51414d" d="M 306.5,149.5 C 306.649,150.552 306.483,151.552 306,152.5C 304.701,152.034 303.201,152.034 301.5,152.5C 301.238,151.022 301.571,149.689 302.5,148.5C 303.192,149.025 303.692,149.692 304,150.5C 304.601,148.641 305.434,148.308 306.5,149.5 Z"/></g>
<g><path style="opacity:1" fill="#695165" d="M 276.5,148.5 C 282.494,149.781 288.494,149.781 294.5,148.5C 296.5,149 298.5,149.5 300.5,150C 299.95,151.845 298.95,153.345 297.5,154.5C 291.24,153.044 284.906,152.044 278.5,151.5C 277.914,151.709 277.414,152.043 277,152.5C 276.51,151.207 276.343,149.873 276.5,148.5 Z"/></g>
<g><path style="opacity:1" fill="#8d6886" d="M 370.5,138.5 C 370.5,168.5 370.5,198.5 370.5,228.5C 400.167,228.5 429.833,228.5 459.5,228.5C 459.5,198.5 459.5,168.5 459.5,138.5C 460.498,168.662 460.831,198.995 460.5,229.5C 430.167,229.5 399.833,229.5 369.5,229.5C 369.169,198.995 369.502,168.662 370.5,138.5 Z"/></g>
<g><path style="opacity:1" fill="#af82a6" d="M 370.5,138.5 C 400.167,138.5 429.833,138.5 459.5,138.5C 459.5,168.5 459.5,198.5 459.5,228.5C 429.833,228.5 400.167,228.5 370.5,228.5C 370.5,198.5 370.5,168.5 370.5,138.5 Z"/></g>
<g><path style="opacity:1" fill="#7d5e78" d="M 391.5,193.5 C 398.018,193.935 404.685,194.269 411.5,194.5C 411.5,195.5 411.5,196.5 411.5,197.5C 403.777,197.2 396.11,197.533 388.5,198.5C 387.571,197.311 387.238,195.978 387.5,194.5C 389.099,194.768 390.432,194.434 391.5,193.5 Z"/></g>
<g><path style="opacity:1" fill="#856480" d="M 377.5,193.5 C 378.5,193.5 379.5,193.5 380.5,193.5C 380.5,195.167 380.5,196.833 380.5,198.5C 379.5,198.5 378.5,198.5 377.5,198.5C 377.5,196.833 377.5,195.167 377.5,193.5 Z"/></g>
<g><path style="opacity:1" fill="#7f607a" d="M 447.5,184.5 C 449.912,184.694 450.912,186.027 450.5,188.5C 448.723,188.786 447.056,189.453 445.5,190.5C 440.197,189.764 434.863,189.264 429.5,189C 428.663,187.989 428.33,186.822 428.5,185.5C 435.022,185.823 441.355,185.49 447.5,184.5 Z"/></g>
<g><path style="opacity:1" fill="#81607b" d="M 384.5,185.5 C 398.5,185.5 412.5,185.5 426.5,185.5C 426.617,187.484 425.95,189.15 424.5,190.5C 421.916,189.607 419.249,189.274 416.5,189.5C 416.167,185.5 415.833,185.5 415.5,189.5C 412.769,189.059 410.269,188.726 408,188.5C 407.612,189.428 406.945,190.095 406,190.5C 401.286,189.887 396.619,189.221 392,188.5C 390.112,190.922 388.112,190.922 386,188.5C 385.667,188.833 385.333,189.167 385,189.5C 384.51,188.207 384.343,186.873 384.5,185.5 Z"/></g>
<g><path style="opacity:1" fill="#70566d" d="M 377.5,185.5 C 379.5,185.5 381.5,185.5 383.5,185.5C 383.587,188.598 383.087,188.932 382,186.5C 379.2,190.687 377.7,190.354 377.5,185.5 Z"/></g>
<g><path style="opacity:1" fill="#7c5d77" d="M 425.5,175.5 C 427.344,176.204 427.844,177.537 427,179.5C 425.644,180.38 424.144,180.714 422.5,180.5C 422.167,176.5 421.833,176.5 421.5,180.5C 419.833,180.5 418.167,180.5 416.5,180.5C 416.5,179.167 416.5,177.833 416.5,176.5C 419.713,176.81 422.713,176.477 425.5,175.5 Z"/></g>
<g><path style="opacity:1" fill="#7e5f79" d="M 391.5,175.5 C 395.846,175.334 400.179,175.501 404.5,176C 406.727,176.121 408.56,176.954 410,178.5C 410.333,177.833 410.667,177.167 411,176.5C 412.135,176.727 413.302,177.06 414.5,177.5C 411.341,179.528 407.841,180.528 404,180.5C 401.5,180.333 399,180.167 396.5,180C 395.118,175.295 394.451,175.461 394.5,180.5C 393.5,180.5 392.5,180.5 391.5,180.5C 391.5,178.833 391.5,177.167 391.5,175.5 Z"/></g>
<g><path style="opacity:1" fill="#745870" d="M 382.5,175.5 C 386.126,174.861 387.959,176.194 388,179.5C 386.913,177.068 386.413,177.402 386.5,180.5C 384.549,180.773 383.049,180.107 382,178.5C 380.644,179.38 379.144,179.714 377.5,179.5C 377.5,178.5 377.5,177.5 377.5,176.5C 379.415,176.784 381.081,176.451 382.5,175.5 Z"/></g>
<g><path style="opacity:1" fill="#83637e" d="M 377.5,167.5 C 378.222,167.918 378.722,168.584 379,169.5C 381.777,166.709 383.277,167.375 383.5,171.5C 381.5,171.5 379.5,171.5 377.5,171.5C 377.5,170.167 377.5,168.833 377.5,167.5 Z"/></g>
<g><path style="opacity:1" fill="#83627d" d="M 416.5,165.5 C 417.712,167.554 419.379,167.554 421.5,165.5C 424.212,167.26 427.212,167.927 430.5,167.5C 430.5,168.833 430.5,170.167 430.5,171.5C 424.824,171.666 419.157,171.499 413.5,171C 412.333,170.5 411.5,169.667 411,168.5C 408.978,169.786 406.811,170.786 404.5,171.5C 403.571,170.311 403.238,168.978 403.5,167.5C 407.514,167.666 411.514,167.499 415.5,167C 416.056,166.617 416.389,166.117 416.5,165.5 Z"/></g>
<g><path style="opacity:1" fill="#765a73" d="M 386.5,167.5 C 390.206,168.539 393.873,168.539 397.5,167.5C 397.5,168.5 397.5,169.5 397.5,170.5C 394.751,170.274 392.084,170.607 389.5,171.5C 388.069,171.023 386.736,170.357 385.5,169.5C 385.863,168.817 386.196,168.15 386.5,167.5 Z"/></g>
<g><path style="opacity:1" fill="#7d5e79" d="M 431.5,167.5 C 436.511,167.334 441.511,167.501 446.5,168C 447.993,169.156 447.826,169.99 446,170.5C 445.055,170.095 444.388,169.428 444,168.5C 440.164,170.389 435.997,171.055 431.5,170.5C 431.5,169.5 431.5,168.5 431.5,167.5 Z"/></g>
<g><path style="opacity:1" fill="#775a72" d="M 447.5,157.5 C 448.708,158.234 450.041,158.567 451.5,158.5C 451.5,159.833 451.5,161.167 451.5,162.5C 447.865,161.886 444.198,161.552 440.5,161.5C 440.5,160.5 440.5,159.5 440.5,158.5C 443.059,158.802 445.393,158.468 447.5,157.5 Z"/></g>
<g><path style="opacity:1" fill="#72576f" d="M 422.5,158.5 C 424.766,158.141 426.599,158.808 428,160.5C 431.149,158.638 434.649,157.971 438.5,158.5C 438.5,159.5 438.5,160.5 438.5,161.5C 433.767,161.223 429.1,161.557 424.5,162.5C 422.889,161.68 422.222,160.346 422.5,158.5 Z"/></g>
<g><path style="opacity:1" fill="#785a73" d="M 399.5,158.5 C 404.739,157.963 409.739,158.63 414.5,160.5C 416.179,158.896 418.179,158.229 420.5,158.5C 420.5,159.5 420.5,160.5 420.5,161.5C 418.876,161.64 417.71,160.973 417,159.5C 411.464,161.425 405.631,162.092 399.5,161.5C 399.5,160.5 399.5,159.5 399.5,158.5 Z"/></g>
<g><path style="opacity:1" fill="#7c5d77" d="M 377.5,156.5 C 379.984,157.587 382.651,158.253 385.5,158.5C 389.881,157.58 394.214,157.58 398.5,158.5C 398.778,160.346 398.111,161.68 396.5,162.5C 393.342,162.174 390.508,161.174 388,159.5C 387.161,160.624 385.994,161.291 384.5,161.5C 382.157,160.185 379.823,160.185 377.5,161.5C 377.5,159.833 377.5,158.167 377.5,156.5 Z"/></g>
<g><path style="opacity:1" fill="#765970" d="M 377.5,147.5 C 380.789,148.374 384.123,149.041 387.5,149.5C 387.762,150.978 387.429,152.311 386.5,153.5C 384.591,152.652 382.591,152.318 380.5,152.5C 380.404,148.689 379.738,148.689 378.5,152.5C 377.548,150.955 377.215,149.288 377.5,147.5 Z"/></g>
<g><path style="opacity:1" fill="#8c6986" d="M 429.5,147.5 C 431.564,147.687 433.564,148.187 435.5,149C 436.833,150.333 436.833,151.667 435.5,153C 432.663,153.068 429.663,153.068 426.5,153C 425.663,151.989 425.33,150.822 425.5,149.5C 427.483,149.843 428.817,149.176 429.5,147.5 Z"/></g>
<g><path style="opacity:1" fill="#7c5d77" d="M 389.5,148.5 C 394.624,149.814 399.79,149.814 405,148.5C 406.653,148.82 407.653,149.82 408,151.5C 409.939,149.764 412.272,148.764 415,148.5C 417.77,149.348 420.603,149.681 423.5,149.5C 423.587,152.598 423.087,152.932 422,150.5C 421.3,152.032 420.134,153.032 418.5,153.5C 414.033,153.3 409.366,153.3 404.5,153.5C 401.655,153.265 398.822,152.932 396,152.5C 394.342,152.325 393.009,151.658 392,150.5C 391.692,151.308 391.192,151.975 390.5,152.5C 389.571,151.311 389.238,149.978 389.5,148.5 Z"/></g>
<g><path style="opacity:1" fill="#81617b" d="M 469.5,138.5 C 469.833,138.5 470.167,138.5 470.5,138.5C 470.5,168.5 470.5,198.5 470.5,228.5C 500.5,228.5 530.5,228.5 560.5,228.5C 560.5,228.833 560.5,229.167 560.5,229.5C 530.167,229.5 499.833,229.5 469.5,229.5C 469.5,199.167 469.5,168.833 469.5,138.5 Z"/></g>
<g><path style="opacity:1" fill="#8b6784" d="M 571.5,138.5 C 571.5,168.5 571.5,198.5 571.5,228.5C 601.167,228.5 630.833,228.5 660.5,228.5C 660.5,198.5 660.5,168.5 660.5,138.5C 661.498,168.662 661.831,198.995 661.5,229.5C 631.167,229.5 600.833,229.5 570.5,229.5C 570.169,198.995 570.502,168.662 571.5,138.5 Z"/></g>
<g><path style="opacity:1" fill="#af82a6" d="M 571.5,138.5 C 601.167,138.5 630.833,138.5 660.5,138.5C 660.5,168.5 660.5,198.5 660.5,228.5C 630.833,228.5 601.167,228.5 571.5,228.5C 571.5,198.5 571.5,168.5 571.5,138.5 Z"/></g>
<g><path style="opacity:1" fill="#7b5d77" d="M 592.5,193.5 C 597.138,193.422 601.804,193.755 606.5,194.5C 606.5,195.833 606.5,197.167 606.5,198.5C 600.947,197.352 595.447,197.352 590,198.5C 589.51,197.207 589.343,195.873 589.5,194.5C 590.791,194.737 591.791,194.404 592.5,193.5 Z"/></g>
<g><path style="opacity:1" fill="#7e5f79" d="M 577.5,193.5 C 580.833,193.833 584.167,194.167 587.5,194.5C 587.5,195.5 587.5,196.5 587.5,197.5C 584.167,197.5 580.833,197.5 577.5,197.5C 577.5,196.167 577.5,194.833 577.5,193.5 Z"/></g>
<g><path style="opacity:1" fill="#795b75" d="M 606.5,185.5 C 613.863,185.169 621.197,185.503 628.5,186.5C 627.974,188.23 626.974,189.564 625.5,190.5C 620.968,189.86 616.468,189.194 612,188.5C 610.333,189.167 608.667,189.833 607,190.5C 606.506,188.866 606.34,187.199 606.5,185.5 Z"/></g>
<g><path style="opacity:1" fill="#775a72" d="M 596.5,184.5 C 599.623,184.022 602.29,184.522 604.5,186C 605.821,187.545 605.488,188.711 603.5,189.5C 601.566,189.099 600.066,188.099 599,186.5C 596.62,188.992 593.953,190.325 591,190.5C 590.667,189.833 590.333,189.167 590,188.5C 588.559,189.26 587.059,189.926 585.5,190.5C 583.035,189.078 580.369,188.078 577.5,187.5C 577.709,186.914 578.043,186.414 578.5,186C 583.087,185.201 587.587,185.368 592,186.5C 593.622,185.901 595.122,185.234 596.5,184.5 Z"/></g>
<g><path style="opacity:1" fill="#745870" d="M 630.5,184.5 C 634.981,184.669 639.147,185.669 643,187.5C 645.47,185.513 648.303,185.013 651.5,186C 649.971,187.862 648.137,189.362 646,190.5C 643.886,188.988 641.719,188.654 639.5,189.5C 638.201,188.91 637.368,187.91 637,186.5C 636,189.167 635,189.167 634,186.5C 633.333,189.167 632.667,189.167 632,186.5C 631.667,187.167 631.333,187.833 631,188.5C 630.51,187.207 630.343,185.873 630.5,184.5 Z"/></g>
<g><path style="opacity:1" fill="#7c5d77" d="M 603.5,175.5 C 607.481,176.021 611.481,176.354 615.5,176.5C 615.5,177.833 615.5,179.167 615.5,180.5C 611.129,181.538 606.795,181.538 602.5,180.5C 602.167,176.5 601.833,176.5 601.5,180.5C 598.05,181.244 596.384,179.91 596.5,176.5C 599.059,176.802 601.393,176.468 603.5,175.5 Z"/></g>
<g><path style="opacity:1" fill="#775a72" d="M 582.5,175.5 C 584.857,175.337 587.19,175.503 589.5,176C 590.517,177.049 590.684,178.216 590,179.5C 589.667,178.833 589.333,178.167 589,177.5C 585.696,179.6 582.196,179.933 578.5,178.5C 579.624,177.141 580.958,176.141 582.5,175.5 Z"/></g>
<g><path style="opacity:1" fill="#765a73" d="M 625.5,175.5 C 626.5,175.5 627.5,175.5 628.5,175.5C 628.5,177.167 628.5,178.833 628.5,180.5C 625.214,179.793 621.881,179.46 618.5,179.5C 618.5,178.5 618.5,177.5 618.5,176.5C 621.059,176.802 623.393,176.468 625.5,175.5 Z"/></g>
<g><path style="opacity:1" fill="#856480" d="M 591.5,176.5 C 592.833,176.5 594.167,176.5 595.5,176.5C 595.5,177.833 595.5,179.167 595.5,180.5C 594.167,180.5 592.833,180.5 591.5,180.5C 591.5,179.167 591.5,177.833 591.5,176.5 Z"/></g>
<g><path style="opacity:1" fill="#7d5e78" d="M 637.5,166.5 C 638.222,166.918 638.722,167.584 639,168.5C 641.719,167.556 644.552,167.223 647.5,167.5C 647.349,170.718 646.516,171.051 645,168.5C 641.164,170.389 636.997,171.055 632.5,170.5C 632.5,169.5 632.5,168.5 632.5,167.5C 634.415,167.784 636.081,167.451 637.5,166.5 Z"/></g>
<g><path style="opacity:1" fill="#80617b" d="M 620.5,166.5 C 624.099,167.344 627.766,167.677 631.5,167.5C 631.783,172.608 629.95,173.608 626,170.5C 618.644,170.881 611.477,171.214 604.5,171.5C 604.5,170.167 604.5,168.833 604.5,167.5C 610.026,167.821 615.36,167.488 620.5,166.5 Z"/></g>
<g><path style="opacity:1" fill="#8f6a88" d="M 579.5,166.5 C 586.738,166.824 594.071,166.824 601.5,166.5C 601.698,168.575 601.865,170.575 602,172.5C 600.415,171.624 599.415,170.291 599,168.5C 598.5,169.667 597.667,170.5 596.5,171C 590.5,171.667 584.5,171.667 578.5,171C 577.257,169.184 577.59,167.684 579.5,166.5 Z"/></g>
<g><path style="opacity:1" fill="#755971" d="M 634.5,157.5 C 636.117,158.038 637.784,158.371 639.5,158.5C 639.5,159.5 639.5,160.5 639.5,161.5C 634.13,161.392 628.797,161.725 623.5,162.5C 623.5,161.167 623.5,159.833 623.5,158.5C 627.371,158.815 631.038,158.482 634.5,157.5 Z"/></g>
<g><path style="opacity:1" fill="#755971" d="M 647.5,157.5 C 650.111,157.646 652.111,158.812 653.5,161C 649.514,161.499 645.514,161.666 641.5,161.5C 641.5,160.5 641.5,159.5 641.5,158.5C 643.735,158.795 645.735,158.461 647.5,157.5 Z"/></g>
<g><path style="opacity:1" fill="#765972" d="M 601.5,158.5 C 608.167,158.5 614.833,158.5 621.5,158.5C 621.5,159.5 621.5,160.5 621.5,161.5C 615.04,162.097 608.874,161.43 603,159.5C 601.913,161.932 601.413,161.598 601.5,158.5 Z"/></g>
<g><path style="opacity:1" fill="#795b75" d="M 577.5,157.5 C 583.321,158.808 589.155,158.808 595,157.5C 596.623,158.811 598.123,159.477 599.5,159.5C 599.081,160.672 598.415,161.672 597.5,162.5C 590.892,161.538 584.226,161.205 577.5,161.5C 577.5,160.167 577.5,158.833 577.5,157.5 Z"/></g>
<g><path style="opacity:1" fill="#7f607a" d="M 630.5,147.5 C 632.045,148.23 632.878,149.563 633,151.5C 634.049,149.893 635.549,149.227 637.5,149.5C 637.5,150.5 637.5,151.5 637.5,152.5C 634.254,152.77 631.254,153.103 628.5,153.5C 626.889,152.68 626.222,151.346 626.5,149.5C 628.483,149.843 629.817,149.176 630.5,147.5 Z"/></g>
<g><path style="opacity:1" fill="#785a73" d="M 605.5,148.5 C 607.411,148.574 608.578,149.574 609,151.5C 610.797,149.844 612.964,148.844 615.5,148.5C 618.443,149.244 621.443,149.744 624.5,150C 620.92,153.168 617.087,153.335 613,150.5C 612.5,150.667 612,150.833 611.5,151C 613.271,151.535 613.604,152.369 612.5,153.5C 608.704,152.751 605.037,152.751 601.5,153.5C 600.749,152.624 600.249,151.624 600,150.5C 598.913,152.932 598.413,152.598 598.5,149.5C 601.059,149.802 603.393,149.468 605.5,148.5 Z"/></g>
<g><path style="opacity:1" fill="#6f546c" d="M 578.5,149.5 C 582.083,148.582 585.75,148.916 589.5,150.5C 589,151.881 588,152.547 586.5,152.5C 584.255,150.377 581.588,149.377 578.5,149.5 Z"/></g>
<g><path style="opacity:1" fill="#80607a" d="M 590.5,148.5 C 592.833,148.5 595.167,148.5 597.5,148.5C 597.5,149.833 597.5,151.167 597.5,152.5C 595.876,152.64 594.71,151.973 594,150.5C 593.29,151.973 592.124,152.64 590.5,152.5C 590.5,151.167 590.5,149.833 590.5,148.5 Z"/></g>
<g><path style="opacity:1" fill="#876783" d="M 162.5,246.5 C 132.5,246.5 102.5,246.5 72.5,246.5C 72.5,276.5 72.5,306.5 72.5,336.5C 71.5019,306.338 71.1685,276.005 71.5,245.5C 102.005,245.169 132.338,245.502 162.5,246.5 Z"/></g>
<g><path style="opacity:1" fill="#b082a7" d="M 162.5,246.5 C 162.5,276.5 162.5,306.5 162.5,336.5C 132.5,336.5 102.5,336.5 72.5,336.5C 72.5,306.5 72.5,276.5 72.5,246.5C 102.5,246.5 132.5,246.5 162.5,246.5 Z"/></g>
<g><path style="opacity:1" fill="#b082a7" d="M 167.5,246.5 C 197.5,246.5 227.5,246.5 257.5,246.5C 257.5,276.5 257.5,306.5 257.5,336.5C 257.5,306.5 257.5,276.5 257.5,246.5C 227.5,246.5 197.5,246.5 167.5,246.5 Z"/></g>
<g><path style="opacity:1" fill="#8a6884" d="M 167.5,246.5 C 197.662,245.502 227.995,245.169 258.5,245.5C 258.831,276.005 258.498,306.338 257.5,336.5C 257.5,306.5 257.5,276.5 257.5,246.5C 227.5,246.5 197.5,246.5 167.5,246.5 Z"/></g>
<g><path style="opacity:1" fill="#72586e" d="M 359.5,336.5 C 359.5,306.5 359.5,276.5 359.5,246.5C 329.5,246.5 299.5,246.5 269.5,246.5C 269.5,276.5 269.5,306.5 269.5,336.5C 268.502,306.338 268.169,276.005 268.5,245.5C 299.167,245.5 329.833,245.5 360.5,245.5C 360.831,276.005 360.498,306.338 359.5,336.5 Z"/></g>
<g><path style="opacity:1" fill="#b082a7" d="M 359.5,336.5 C 329.5,336.5 299.5,336.5 269.5,336.5C 269.5,306.5 269.5,276.5 269.5,246.5C 299.5,246.5 329.5,246.5 359.5,246.5C 359.5,276.5 359.5,306.5 359.5,336.5 Z"/></g>
<g><path style="opacity:1" fill="#8e6986" d="M 459.5,336.5 C 459.5,306.5 459.5,276.5 459.5,246.5C 429.833,246.5 400.167,246.5 370.5,246.5C 370.5,276.5 370.5,306.5 370.5,336.5C 369.502,306.338 369.169,276.005 369.5,245.5C 399.833,245.5 430.167,245.5 460.5,245.5C 460.831,276.005 460.498,306.338 459.5,336.5 Z"/></g>
<g><path style="opacity:1" fill="#b082a7" d="M 459.5,336.5 C 429.833,336.5 400.167,336.5 370.5,336.5C 370.5,306.5 370.5,276.5 370.5,246.5C 400.167,246.5 429.833,246.5 459.5,246.5C 459.5,276.5 459.5,306.5 459.5,336.5 Z"/></g>
<g><path style="opacity:1" fill="#73596f" d="M 560.5,336.5 C 560.5,306.5 560.5,276.5 560.5,246.5C 530.5,246.5 500.5,246.5 470.5,246.5C 470.5,276.5 470.5,306.5 470.5,336.5C 469.502,306.338 469.169,276.005 469.5,245.5C 500.167,245.5 530.833,245.5 561.5,245.5C 561.831,276.005 561.498,306.338 560.5,336.5 Z"/></g>
<g><path style="opacity:1" fill="#b183a8" d="M 560.5,336.5 C 530.5,336.5 500.5,336.5 470.5,336.5C 470.5,306.5 470.5,276.5 470.5,246.5C 500.5,246.5 530.5,246.5 560.5,246.5C 560.5,276.5 560.5,306.5 560.5,336.5 Z"/></g>
<g><path style="opacity:1" fill="#896783" d="M 570.5,245.5 C 600.833,245.5 631.167,245.5 661.5,245.5C 661.5,275.833 661.5,306.167 661.5,336.5C 661.167,336.5 660.833,336.5 660.5,336.5C 660.5,306.5 660.5,276.5 660.5,246.5C 630.833,246.5 601.167,246.5 571.5,246.5C 571.5,276.5 571.5,306.5 571.5,336.5C 570.502,306.338 570.169,276.005 570.5,245.5 Z"/></g>
<g><path style="opacity:1" fill="#b082a7" d="M 660.5,336.5 C 630.833,336.5 601.167,336.5 571.5,336.5C 571.5,306.5 571.5,276.5 571.5,246.5C 601.167,246.5 630.833,246.5 660.5,246.5C 660.5,276.5 660.5,306.5 660.5,336.5 Z"/></g>
<g><path style="opacity:1" fill="#82617c" d="M 110.5,256.5 C 115.167,256.5 119.833,256.5 124.5,256.5C 126.033,262.769 125.199,263.102 122,257.5C 121.517,258.448 121.351,259.448 121.5,260.5C 117.445,260.824 113.445,260.491 109.5,259.5C 110.127,258.583 110.461,257.583 110.5,256.5 Z"/></g>
<g><path style="opacity:1" fill="#7b5d77" d="M 205.5,256.5 C 210.5,256.5 215.5,256.5 220.5,256.5C 220.762,257.978 220.429,259.311 219.5,260.5C 218.808,259.975 218.308,259.308 218,258.5C 214.083,260.847 209.916,261.514 205.5,260.5C 205.5,259.167 205.5,257.833 205.5,256.5 Z"/></g>
<g><path style="opacity:1" fill="#82617c" d="M 79.5,255.5 C 81.1238,255.36 82.2904,256.027 83,257.5C 84.9939,256.336 87.1605,255.669 89.5,255.5C 92.7992,256.21 96.1326,256.543 99.5,256.5C 99.5,258.167 99.5,259.833 99.5,261.5C 92.7057,260.484 86.039,260.151 79.5,260.5C 79.5,258.833 79.5,257.167 79.5,255.5 Z"/></g>
<g><path style="opacity:1" fill="#7e5f79" d="M 175.5,255.5 C 178.82,256.827 182.153,256.827 185.5,255.5C 187.839,255.669 190.006,256.336 192,257.5C 193.011,256.663 194.178,256.33 195.5,256.5C 195.5,258.167 195.5,259.833 195.5,261.5C 188.857,260.835 182.191,260.335 175.5,260C 176.167,259.667 176.833,259.333 177.5,259C 176.027,258.29 175.36,257.124 175.5,255.5 Z"/></g>
<g><path style="opacity:1" fill="#775a73" d="M 223.5,256.5 C 226.167,256.5 228.833,256.5 231.5,256.5C 231.5,257.833 231.5,259.167 231.5,260.5C 229.143,260.663 226.81,260.497 224.5,260C 223.663,258.989 223.33,257.822 223.5,256.5 Z"/></g>
<g><path style="opacity:1" fill="#81617c" d="M 277.5,255.5 C 280.522,255.804 283.522,256.304 286.5,257C 287.337,258.011 287.67,259.178 287.5,260.5C 284.167,260.5 280.833,260.5 277.5,260.5C 277.5,258.833 277.5,257.167 277.5,255.5 Z"/></g>
<g><path style="opacity:1" fill="#83627d" d="M 407.5,255.5 C 414.181,255.823 420.848,256.156 427.5,256.5C 427.649,257.552 427.483,258.552 427,259.5C 425.927,258.72 424.76,258.887 423.5,260C 414.95,259.593 406.283,259.759 397.5,260.5C 397.33,259.178 397.663,258.011 398.5,257C 401.695,256.819 404.695,256.319 407.5,255.5 Z"/></g>
<g><path style="opacity:1" fill="#7f607a" d="M 441.5,255.5 C 443.135,256.815 444.801,256.815 446.5,255.5C 447.452,257.045 447.785,258.712 447.5,260.5C 442.167,260.5 436.833,260.5 431.5,260.5C 431.5,259.167 431.5,257.833 431.5,256.5C 435.042,256.813 438.375,256.479 441.5,255.5 Z"/></g>
<g><path style="opacity:1" fill="#71556c" d="M 504.5,255.5 C 512.699,256.122 520.865,256.788 529,257.5C 530.57,256.642 532.237,255.975 534,255.5C 536.795,256.185 539.628,256.685 542.5,257C 543.337,258.011 543.67,259.178 543.5,260.5C 539.327,261.044 535.494,260.377 532,258.5C 523.099,260.456 513.932,261.122 504.5,260.5C 504.5,258.833 504.5,257.167 504.5,255.5 Z"/></g>
<g><path style="opacity:1" fill="#82627d" d="M 328.5,255.5 C 330.256,256.552 330.923,258.219 330.5,260.5C 323.616,260.432 322.949,258.766 328.5,255.5 Z"/></g>
<g><path style="opacity:1" fill="#73586e" d="M 332.5,256.5 C 333.5,256.5 334.5,256.5 335.5,256.5C 335.5,257.833 335.5,259.167 335.5,260.5C 334.5,260.5 333.5,260.5 332.5,260.5C 332.5,259.167 332.5,257.833 332.5,256.5 Z"/></g>
<g><path style="opacity:1" fill="#80607b" d="M 577.5,256.5 C 578.75,256.577 579.583,257.244 580,258.5C 584.858,256.586 590.025,255.919 595.5,256.5C 595.5,257.833 595.5,259.167 595.5,260.5C 589.824,260.666 584.157,260.499 578.5,260C 577.663,258.989 577.33,257.822 577.5,256.5 Z"/></g>
<g><path style="opacity:1" fill="#7b5c77" d="M 105.5,256.5 C 107.176,257.183 107.843,258.517 107.5,260.5C 100.64,260.763 99.9737,259.43 105.5,256.5 Z"/></g>
<g><path style="opacity:1" fill="#7a5c74" d="M 127.5,256.5 C 129.957,256.792 132.624,256.792 135.5,256.5C 135.5,257.833 135.5,259.167 135.5,260.5C 133.042,259.377 130.875,259.377 129,260.5C 127.812,259.437 127.312,258.103 127.5,256.5 Z"/></g>
<g><path style="opacity:1" fill="#7d5e78" d="M 197.5,256.5 C 198.268,257.263 198.768,258.263 199,259.5C 201.8,255.313 203.3,255.646 203.5,260.5C 201.5,260.5 199.5,260.5 197.5,260.5C 197.5,259.167 197.5,257.833 197.5,256.5 Z"/></g>
<g><path style="opacity:1" fill="#7c5d77" d="M 289.5,256.5 C 295.326,256.804 300.993,256.804 306.5,256.5C 306.833,260.5 307.167,260.5 307.5,256.5C 312.511,256.334 317.511,256.501 322.5,257C 323.337,258.011 323.67,259.178 323.5,260.5C 315.646,260.221 307.813,260.221 300,260.5C 299.055,260.095 298.388,259.428 298,258.5C 295.196,260.344 292.03,261.011 288.5,260.5C 288.433,259.041 288.766,257.708 289.5,256.5 Z"/></g>
<g><path style="opacity:1" fill="#7f5f7a" d="M 377.5,255.5 C 382.72,256.031 387.887,256.697 393,257.5C 393.414,257.043 393.914,256.709 394.5,256.5C 395.429,257.689 395.762,259.022 395.5,260.5C 390.122,260.398 384.955,260.398 380,260.5C 379.641,257.456 378.974,257.122 378,259.5C 377.51,258.207 377.343,256.873 377.5,255.5 Z"/></g>
<g><path style="opacity:1" fill="#71566c" d="M 486.5,255.5 C 489.467,258.148 492.467,258.148 495.5,255.5C 496.478,255.977 497.311,256.643 498,257.5C 501.466,255.65 503.299,256.65 503.5,260.5C 494.849,260.171 486.182,260.171 477.5,260.5C 477.5,259.167 477.5,257.833 477.5,256.5C 479.467,256.261 481.301,256.594 483,257.5C 484.302,256.915 485.469,256.249 486.5,255.5 Z"/></g>
<g><path style="opacity:1" fill="#80607b" d="M 616.5,255.5 C 621.482,256.053 626.482,256.387 631.5,256.5C 631.48,258.143 632.147,259.476 633.5,260.5C 631.295,261.374 629.462,260.708 628,258.5C 618.093,260.46 607.926,261.127 597.5,260.5C 597.5,259.167 597.5,257.833 597.5,256.5C 603.653,257.245 609.987,256.911 616.5,255.5 Z"/></g>
<g><path style="opacity:1" fill="#745871" d="M 635.5,256.5 C 637.582,256.624 639.082,257.624 640,259.5C 640.849,257.494 642.015,256.828 643.5,257.5C 641.291,260.566 638.457,261.232 635,259.5C 634.53,258.423 634.697,257.423 635.5,256.5 Z"/></g>
<g><path style="opacity:1" fill="#81617c" d="M 101.5,265.5 C 106.833,265.5 112.167,265.5 117.5,265.5C 117.719,269.527 116.552,270.194 114,267.5C 110.405,269.456 106.572,269.956 102.5,269C 101.663,267.989 101.33,266.822 101.5,265.5 Z"/></g>
<g><path style="opacity:1" fill="#82617c" d="M 198.5,265.5 C 203.5,265.5 208.5,265.5 213.5,265.5C 213.719,269.527 212.552,270.194 210,267.5C 206.417,269.29 202.584,269.957 198.5,269.5C 198.5,268.167 198.5,266.833 198.5,265.5 Z"/></g>
<g><path style="opacity:1" fill="#7e5f79" d="M 91.5,264.5 C 94.747,265.543 97.747,266.376 100.5,267C 97.4688,270.052 94.3022,270.218 91,267.5C 90.6758,269.569 89.8425,269.902 88.5,268.5C 85.6296,269.122 82.7963,269.789 80,270.5C 79.5065,268.866 79.3398,267.199 79.5,265.5C 83.1064,265.211 86.6064,265.544 90,266.5C 90.7172,265.956 91.2172,265.289 91.5,264.5 Z"/></g>
<g><path style="opacity:1" fill="#84637e" d="M 124.5,264.5 C 128.851,263.533 131.185,265.2 131.5,269.5C 127.563,269.207 123.73,269.54 120,270.5C 119.333,268.833 119.333,267.167 120,265.5C 120.333,265.833 120.667,266.167 121,266.5C 122.302,265.915 123.469,265.249 124.5,264.5 Z"/></g>
<g><path style="opacity:1" fill="#82617d" d="M 187.5,264.5 C 190.469,264.553 193.469,264.886 196.5,265.5C 196.5,266.833 196.5,268.167 196.5,269.5C 189.4,269.22 182.4,269.22 175.5,269.5C 175.5,268.167 175.5,266.833 175.5,265.5C 179.702,265.817 183.702,265.483 187.5,264.5 Z"/></g>
<g><path style="opacity:1" fill="#7c5d77" d="M 276.5,264.5 C 278.086,265.413 279.586,265.413 281,264.5C 281.333,265.167 281.667,265.833 282,266.5C 285.616,265.762 289.282,265.096 293,264.5C 296.2,265.235 297.7,267.235 297.5,270.5C 294.124,270.048 290.791,269.382 287.5,268.5C 284.507,269.782 282.007,269.115 280,266.5C 279.333,269.167 278.667,269.167 278,266.5C 277.667,267.167 277.333,267.833 277,268.5C 276.51,267.207 276.343,265.873 276.5,264.5 Z"/></g>
<g><path style="opacity:1" fill="#7c5d78" d="M 340.5,265.5 C 341.94,266.363 343.274,266.363 344.5,265.5C 345.833,266.833 345.833,268.167 344.5,269.5C 343.5,268.167 342.5,268.167 341.5,269.5C 339.824,268.272 339.491,266.939 340.5,265.5 Z"/></g>
<g><path style="opacity:1" fill="#85637f" d="M 346.5,264.5 C 348.117,265.038 349.784,265.371 351.5,265.5C 351.5,266.833 351.5,268.167 351.5,269.5C 349.833,269.5 348.167,269.5 346.5,269.5C 346.5,267.833 346.5,266.167 346.5,264.5 Z"/></g>
<g><path style="opacity:1" fill="#81617c" d="M 384.5,264.5 C 392.414,265.467 400.414,265.801 408.5,265.5C 408.5,267.167 408.5,268.833 408.5,270.5C 400.287,269.912 392.12,269.245 384,268.5C 381.81,269.584 380.144,268.917 379,266.5C 377.913,268.932 377.413,268.598 377.5,265.5C 380.059,265.802 382.393,265.468 384.5,264.5 Z"/></g>
<g><path style="opacity:1" fill="#7d5e78" d="M 419.5,264.5 C 421.441,264.869 423.275,265.536 425,266.5C 425.414,266.043 425.914,265.709 426.5,265.5C 426.833,266.167 427.167,266.833 427.5,267.5C 428.88,266.024 430.547,265.024 432.5,264.5C 433.747,266.006 433.747,267.506 432.5,269C 428.028,268.886 423.695,269.052 419.5,269.5C 419.5,267.833 419.5,266.167 419.5,264.5 Z"/></g>
<g><path style="opacity:1" fill="#71566c" d="M 478.5,264.5 C 488.12,265.283 497.787,265.783 507.5,266C 506.663,267.011 506.33,268.178 506.5,269.5C 501.821,269.666 497.155,269.499 492.5,269C 492,268.5 491.5,268 491,267.5C 489.934,269.099 488.434,270.099 486.5,270.5C 483.579,269.593 480.579,269.26 477.5,269.5C 477.366,267.708 477.699,266.042 478.5,264.5 Z"/></g>
<g><path style="opacity:1" fill="#84637e" d="M 220.5,264.5 C 224.931,263.53 227.265,265.197 227.5,269.5C 223.5,269.5 219.5,269.5 215.5,269.5C 215.5,268.5 215.5,267.5 215.5,266.5C 217.698,266.88 219.365,266.213 220.5,264.5 Z"/></g>
<g><path style="opacity:1" fill="#866480" d="M 318.5,264.5 C 320.256,265.552 320.923,267.219 320.5,269.5C 313.5,269.5 306.5,269.5 299.5,269.5C 299.5,268.167 299.5,266.833 299.5,265.5C 305.9,266.427 312.233,266.093 318.5,264.5 Z"/></g>
<g><path style="opacity:1" fill="#81617b" d="M 322.5,265.5 C 327.5,265.5 332.5,265.5 337.5,265.5C 337.5,266.833 337.5,268.167 337.5,269.5C 332.946,269.255 328.446,269.588 324,270.5C 321.697,269.257 321.197,267.591 322.5,265.5 Z"/></g>
<g><path style="opacity:1" fill="#82627d" d="M 434.5,265.5 C 439.5,265.5 444.5,265.5 449.5,265.5C 449.762,266.978 449.429,268.311 448.5,269.5C 447.808,268.975 447.308,268.308 447,267.5C 443.164,269.389 438.997,270.055 434.5,269.5C 434.5,268.167 434.5,266.833 434.5,265.5 Z"/></g>
<g><path style="opacity:1" fill="#876581" d="M 581.5,264.5 C 588.035,264.937 594.701,265.271 601.5,265.5C 601.5,266.833 601.5,268.167 601.5,269.5C 593.458,269.264 585.458,269.597 577.5,270.5C 577.5,268.833 577.5,267.167 577.5,265.5C 579.099,265.768 580.432,265.434 581.5,264.5 Z"/></g>
<g><path style="opacity:1" fill="#7f607a" d="M 610.5,264.5 C 614.803,265.828 619.136,265.828 623.5,264.5C 627.462,265.711 628.129,267.711 625.5,270.5C 623.217,269.679 620.884,269.012 618.5,268.5C 613.544,269.394 608.544,269.727 603.5,269.5C 603.343,268.127 603.51,266.793 604,265.5C 604.333,266.167 604.667,266.833 605,267.5C 606.649,266.047 608.482,265.047 610.5,264.5 Z"/></g>
<g><path style="opacity:1" fill="#7c5e78" d="M 284.5,274.5 C 289.5,274.5 294.5,274.5 299.5,274.5C 299.48,276.143 300.147,277.476 301.5,278.5C 300.675,279.386 299.675,279.719 298.5,279.5C 298.719,278.325 298.386,277.325 297.5,276.5C 293.426,279.013 289.093,279.679 284.5,278.5C 284.5,277.167 284.5,275.833 284.5,274.5 Z"/></g>
<g><path style="opacity:1" fill="#775a73" d="M 79.5,273.5 C 81.4412,273.869 83.2745,274.536 85,275.5C 87.3333,274.167 89.6667,274.167 92,275.5C 92.804,274.196 93.9707,273.529 95.5,273.5C 97.1347,274.046 98.8014,274.38 100.5,274.5C 100.617,276.484 99.9501,278.15 98.5,279.5C 97.4061,277.697 95.7394,277.364 93.5,278.5C 92.0055,278.291 90.8388,277.624 90,276.5C 89.6667,277.167 89.3333,277.833 89,278.5C 88.0293,277.802 86.8626,277.802 85.5,278.5C 84.3527,278.182 83.5194,277.516 83,276.5C 81.984,277.634 81.3173,277.301 81,275.5C 80.6667,275.833 80.3333,276.167 80,276.5C 79.5172,275.552 79.3505,274.552 79.5,273.5 Z"/></g>
<g><path style="opacity:1" fill="#775a72" d="M 175.5,273.5 C 180.814,274.83 186.148,274.83 191.5,273.5C 193.029,273.529 194.196,274.196 195,275.5C 195.889,274.112 196.389,274.278 196.5,276C 196.22,277.395 195.553,278.562 194.5,279.5C 188.293,277.817 181.96,277.15 175.5,277.5C 175.5,276.167 175.5,274.833 175.5,273.5 Z"/></g>
<g><path style="opacity:1" fill="#7c5d77" d="M 198.5,274.5 C 205.167,274.5 211.833,274.5 218.5,274.5C 218.5,275.5 218.5,276.5 218.5,277.5C 211.877,278.38 205.211,278.713 198.5,278.5C 198.5,277.167 198.5,275.833 198.5,274.5 Z"/></g>
<g><path style="opacity:1" fill="#7d5e78" d="M 231.5,273.5 C 233.117,274.038 234.784,274.371 236.5,274.5C 236.67,275.822 236.337,276.989 235.5,278C 231.294,278.261 227.127,278.761 223,279.5C 220.853,278.404 220.353,276.904 221.5,275C 225.025,274.821 228.359,274.321 231.5,273.5 Z"/></g>
<g><path style="opacity:1" fill="#7a5c76" d="M 385.5,273.5 C 387.256,274.552 387.923,276.219 387.5,278.5C 384.167,278.5 380.833,278.5 377.5,278.5C 377.5,277.167 377.5,275.833 377.5,274.5C 380.385,274.806 383.052,274.473 385.5,273.5 Z"/></g>
<g><path style="opacity:1" fill="#7f607a" d="M 578.5,274.5 C 587.653,274.749 596.653,274.749 605.5,274.5C 605.5,275.833 605.5,277.167 605.5,278.5C 596.167,278.5 586.833,278.5 577.5,278.5C 577.433,277.041 577.766,275.708 578.5,274.5 Z"/></g>
<g><path style="opacity:1" fill="#7f5f79" d="M 607.5,273.5 C 613.789,274.372 620.122,274.705 626.5,274.5C 626.5,275.833 626.5,277.167 626.5,278.5C 620.167,278.5 613.833,278.5 607.5,278.5C 607.5,276.833 607.5,275.167 607.5,273.5 Z"/></g>
<g><path style="opacity:1" fill="#81617b" d="M 102.5,274.5 C 109.167,274.5 115.833,274.5 122.5,274.5C 122.64,276.124 121.973,277.29 120.5,278C 114.175,278.5 107.842,278.666 101.5,278.5C 101.433,277.041 101.766,275.708 102.5,274.5 Z"/></g>
<g><path style="opacity:1" fill="#7b5d76" d="M 125.5,274.5 C 127.451,274.227 128.951,274.893 130,276.5C 131.525,275.28 133.359,274.613 135.5,274.5C 139.138,273.737 141.471,275.07 142.5,278.5C 137.286,278.248 131.952,278.582 126.5,279.5C 124.576,278.035 124.243,276.368 125.5,274.5 Z"/></g>
<g><path style="opacity:1" fill="#7e5f79" d="M 276.5,274.5 C 277.222,274.918 277.722,275.584 278,276.5C 279.401,274.808 281.234,274.141 283.5,274.5C 283.5,275.833 283.5,277.167 283.5,278.5C 281.167,278.5 278.833,278.5 276.5,278.5C 276.5,277.167 276.5,275.833 276.5,274.5 Z"/></g>
<g><path style="opacity:1" fill="#7c5e77" d="M 315.5,273.5 C 320.07,274.441 324.737,274.774 329.5,274.5C 329.5,276.167 329.5,277.833 329.5,279.5C 327.174,278.849 324.841,278.182 322.5,277.5C 316.417,277.765 310.083,278.098 303.5,278.5C 303.5,277.167 303.5,275.833 303.5,274.5C 307.702,274.817 311.702,274.483 315.5,273.5 Z"/></g>
<g><path style="opacity:1" fill="#7b5d76" d="M 333.5,274.5 C 337.678,274.956 342.011,274.956 346.5,274.5C 346.5,275.833 346.5,277.167 346.5,278.5C 344.876,278.64 343.71,277.973 343,276.5C 341.302,277.733 339.302,278.4 337,278.5C 335.167,278.167 333.333,277.833 331.5,277.5C 332.612,276.735 333.279,275.735 333.5,274.5 Z"/></g>
<g><path style="opacity:1" fill="#7e5f78" d="M 390.5,273.5 C 391.458,273.953 392.292,274.619 393,275.5C 394.086,273.153 395.419,273.153 397,275.5C 403.431,275.364 409.598,275.031 415.5,274.5C 415.649,275.552 415.483,276.552 415,277.5C 414.667,277.167 414.333,276.833 414,276.5C 412.562,277.718 410.895,278.385 409,278.5C 403.75,277.958 398.583,277.958 393.5,278.5C 390.02,278.123 389.02,276.456 390.5,273.5 Z"/></g>
<g><path style="opacity:1" fill="#7e5f78" d="M 416.5,273.5 C 421.457,273.214 426.457,273.548 431.5,274.5C 431.5,275.833 431.5,277.167 431.5,278.5C 426.349,278.022 421.349,278.022 416.5,278.5C 416.5,276.833 416.5,275.167 416.5,273.5 Z"/></g>
<g><path style="opacity:1" fill="#7c5d77" d="M 84.5,282.5 C 86.3405,283.673 88.1739,283.673 90,282.5C 92.8558,284.097 95.6891,284.431 98.5,283.5C 98.5,285.167 98.5,286.833 98.5,288.5C 96.0072,288.671 94.1739,287.671 93,285.5C 88.8222,287.399 84.3222,288.065 79.5,287.5C 79.5,286.167 79.5,284.833 79.5,283.5C 81.4147,283.784 83.0813,283.451 84.5,282.5 Z"/></g>
<g><path style="opacity:1" fill="#886682" d="M 131.5,282.5 C 139.255,283.748 146.922,284.081 154.5,283.5C 154.5,284.833 154.5,286.167 154.5,287.5C 146.833,287.5 139.167,287.5 131.5,287.5C 131.5,285.833 131.5,284.167 131.5,282.5 Z"/></g>
<g><path style="opacity:1" fill="#72576e" d="M 290.5,284.5 C 291.5,284.5 292.5,284.5 293.5,284.5C 293.5,285.5 293.5,286.5 293.5,287.5C 292.5,287.5 291.5,287.5 290.5,287.5C 290.5,286.5 290.5,285.5 290.5,284.5 Z"/></g>
<g><path style="opacity:1" fill="#7e5f79" d="M 414.5,282.5 C 418.482,284.233 422.482,284.567 426.5,283.5C 426.5,284.833 426.5,286.167 426.5,287.5C 423.881,287.232 421.381,287.565 419,288.5C 416.688,288.045 414.688,287.045 413,285.5C 411.599,287.192 409.766,287.859 407.5,287.5C 407.5,286.5 407.5,285.5 407.5,284.5C 410.152,284.59 412.485,283.924 414.5,282.5 Z"/></g>
<g><path style="opacity:1" fill="#7c5d76" d="M 184.5,282.5 C 187.786,283.207 191.119,283.54 194.5,283.5C 194.5,285.167 194.5,286.833 194.5,288.5C 188.211,287.628 181.878,287.295 175.5,287.5C 175.5,286.167 175.5,284.833 175.5,283.5C 178.713,283.81 181.713,283.477 184.5,282.5 Z"/></g>
<g><path style="opacity:1" fill="#6d536a" d="M 196.5,284.5 C 197.5,284.5 198.5,284.5 199.5,284.5C 199.5,285.5 199.5,286.5 199.5,287.5C 198.5,287.5 197.5,287.5 196.5,287.5C 196.5,286.5 196.5,285.5 196.5,284.5 Z"/></g>
<g><path style="opacity:1" fill="#775b74" d="M 224.5,283.5 C 225.434,284.568 225.768,285.901 225.5,287.5C 223.179,287.771 221.179,287.104 219.5,285.5C 216.256,288.043 213.089,288.043 210,285.5C 207.435,287.179 204.602,287.846 201.5,287.5C 201.413,284.402 201.913,284.068 203,286.5C 210.073,284.874 217.239,283.874 224.5,283.5 Z"/></g>
<g><path style="opacity:1" fill="#83627e" d="M 245.5,283.5 C 249.241,282.599 251.241,283.932 251.5,287.5C 249.5,287.5 247.5,287.5 245.5,287.5C 245.5,286.167 245.5,284.833 245.5,283.5 Z"/></g>
<g><path style="opacity:1" fill="#7d5e78" d="M 302.5,282.5 C 305.007,282.835 307.174,283.835 309,285.5C 310.814,284.24 312.647,284.24 314.5,285.5C 313.711,287.488 312.545,287.821 311,286.5C 309.559,287.26 308.059,287.926 306.5,288.5C 302.906,287.574 299.24,287.241 295.5,287.5C 295.5,286.167 295.5,284.833 295.5,283.5C 298.059,283.802 300.393,283.468 302.5,282.5 Z"/></g>
<g><path style="opacity:1" fill="#81617c" d="M 316.5,283.5 C 319.833,283.5 323.167,283.5 326.5,283.5C 326.5,284.833 326.5,286.167 326.5,287.5C 322.833,287.5 319.167,287.5 315.5,287.5C 315.433,286.041 315.766,284.708 316.5,283.5 Z"/></g>
<g><path style="opacity:1" fill="#82627d" d="M 577.5,283.5 C 586.654,283.629 595.654,283.629 604.5,283.5C 608.248,283.557 609.582,285.224 608.5,288.5C 604.292,286.981 600.125,286.648 596,287.5C 594.019,287.371 592.353,286.704 591,285.5C 586.822,287.399 582.322,288.065 577.5,287.5C 577.5,286.167 577.5,284.833 577.5,283.5 Z"/></g>
<g><path style="opacity:1" fill="#7f5f7a" d="M 105.5,283.5 C 113.66,283.692 121.66,283.692 129.5,283.5C 129.5,284.833 129.5,286.167 129.5,287.5C 126.921,287.917 124.754,287.25 123,285.5C 117.41,287.184 111.576,288.184 105.5,288.5C 104.334,286.833 104.334,285.166 105.5,283.5 Z"/></g>
<g><path style="opacity:1" fill="#745870" d="M 227.5,283.5 C 232.141,285.488 236.641,285.488 241,283.5C 242.28,283.613 243.113,284.28 243.5,285.5C 241.556,286.851 239.389,287.518 237,287.5C 233.969,286.846 230.802,286.846 227.5,287.5C 227.5,286.167 227.5,284.833 227.5,283.5 Z"/></g>
<g><path style="opacity:1" fill="#82617c" d="M 276.5,283.5 C 280.182,283.335 283.848,283.501 287.5,284C 288.337,285.011 288.67,286.178 288.5,287.5C 284.5,287.5 280.5,287.5 276.5,287.5C 276.5,286.167 276.5,284.833 276.5,283.5 Z"/></g>
<g><path style="opacity:1" fill="#7a5c76" d="M 382.5,283.5 C 390.142,284.263 397.809,284.597 405.5,284.5C 405.5,285.5 405.5,286.5 405.5,287.5C 401.588,285.888 397.921,286.221 394.5,288.5C 392.866,288.032 391.7,287.032 391,285.5C 388.506,287.901 386.173,287.901 384,285.5C 383.667,286.167 383.333,286.833 383,287.5C 382.51,286.207 382.343,284.873 382.5,283.5 Z"/></g>
<g><path style="opacity:1" fill="#7e5f79" d="M 611.5,283.5 C 616.833,283.5 622.167,283.5 627.5,283.5C 627.5,284.833 627.5,286.167 627.5,287.5C 622.167,287.5 616.833,287.5 611.5,287.5C 611.5,286.167 611.5,284.833 611.5,283.5 Z"/></g>
<g><path style="opacity:1" fill="#83627e" d="M 215.5,291.5 C 220.905,292.971 226.238,293.304 231.5,292.5C 231.5,293.833 231.5,295.167 231.5,296.5C 221.161,296.666 210.828,296.5 200.5,296C 199.167,295 199.167,294 200.5,293C 205.684,292.826 210.684,292.326 215.5,291.5 Z"/></g>
<g><path style="opacity:1" fill="#84637e" d="M 346.5,291.5 C 349.297,291.967 350.631,293.633 350.5,296.5C 343.211,295.745 335.878,295.745 328.5,296.5C 328.5,295.167 328.5,293.833 328.5,292.5C 334.69,292.823 340.69,292.49 346.5,291.5 Z"/></g>
<g><path style="opacity:1" fill="#80607b" d="M 443.5,291.5 C 444.708,292.234 446.041,292.567 447.5,292.5C 447.657,293.873 447.49,295.207 447,296.5C 446.667,295.833 446.333,295.167 446,294.5C 445.29,295.973 444.124,296.64 442.5,296.5C 442.629,294.784 442.962,293.117 443.5,291.5 Z"/></g>
<g><path style="opacity:1" fill="#7d5e78" d="M 120.5,291.5 C 121.222,291.918 121.722,292.584 122,293.5C 126.082,292.409 130.248,292.242 134.5,293C 135.336,294.243 135.003,295.41 133.5,296.5C 131.674,296.08 129.674,296.08 127.5,296.5C 127.167,292.5 126.833,292.5 126.5,296.5C 121.435,296.219 116.435,296.552 111.5,297.5C 109.224,296.787 106.891,296.287 104.5,296C 103.167,295 103.167,294 104.5,293C 109.087,292.201 113.587,292.368 118,293.5C 118.995,292.934 119.828,292.267 120.5,291.5 Z"/></g>
<g><path style="opacity:1" fill="#7d5e77" d="M 137.5,292.5 C 141.167,292.5 144.833,292.5 148.5,292.5C 148.5,293.833 148.5,295.167 148.5,296.5C 144.821,296.276 141.154,295.942 137.5,295.5C 137.5,294.5 137.5,293.5 137.5,292.5 Z"/></g>
<g><path style="opacity:1" fill="#82617c" d="M 307.5,292.5 C 308.833,292.5 310.167,292.5 311.5,292.5C 311.833,296.5 312.167,296.5 312.5,292.5C 316.514,292.334 320.514,292.501 324.5,293C 326.836,294.27 326.836,295.77 324.5,297.5C 318.635,296.854 312.802,296.187 307,295.5C 306.237,298.063 305.737,298.063 305.5,295.5C 305.942,294.261 306.609,293.261 307.5,292.5 Z"/></g>
<g><path style="opacity:1" fill="#81617b" d="M 392.5,291.5 C 398.848,291.504 405.182,292.004 411.5,293C 412.337,294.011 412.67,295.178 412.5,296.5C 400.829,296.667 389.162,296.5 377.5,296C 376.167,295 376.167,294 377.5,293C 382.684,292.826 387.684,292.326 392.5,291.5 Z"/></g>
<g><path style="opacity:1" fill="#82617d" d="M 425.5,291.5 C 430.501,292.778 435.501,292.778 440.5,291.5C 441.452,293.045 441.785,294.712 441.5,296.5C 435.833,296.5 430.167,296.5 424.5,296.5C 424.366,294.708 424.699,293.042 425.5,291.5 Z"/></g>
<g><path style="opacity:1" fill="#80607b" d="M 601.5,291.5 C 604.118,293.213 606.785,293.546 609.5,292.5C 609.5,294.167 609.5,295.833 609.5,297.5C 605.601,297.035 601.767,296.368 598,295.5C 591.415,296.168 584.582,296.501 577.5,296.5C 577.5,295.167 577.5,293.833 577.5,292.5C 584.841,292.334 592.174,292.5 599.5,293C 601.123,296.054 601.79,295.554 601.5,291.5 Z"/></g>
<g><path style="opacity:1" fill="#81617c" d="M 621.5,292.5 C 625.833,292.5 630.167,292.5 634.5,292.5C 634.5,293.833 634.5,295.167 634.5,296.5C 630.818,296.665 627.152,296.499 623.5,296C 622.027,295.29 621.36,294.124 621.5,292.5 Z"/></g>
<g><path style="opacity:1" fill="#82617c" d="M 636.5,292.5 C 641.214,292.173 645.88,292.507 650.5,293.5C 651.167,294.5 651.833,295.5 652.5,296.5C 647.014,296.613 641.348,296.613 635.5,296.5C 635.433,295.041 635.766,293.708 636.5,292.5 Z"/></g>
<g><path style="opacity:1" fill="#755971" d="M 79.5,292.5 C 82.0115,292.838 84.3448,292.838 86.5,292.5C 88.1112,293.32 88.7778,294.654 88.5,296.5C 86.8333,296.5 85.1667,296.5 83.5,296.5C 83.1667,292.5 82.8333,292.5 82.5,296.5C 81.5,296.5 80.5,296.5 79.5,296.5C 79.5,295.167 79.5,293.833 79.5,292.5 Z"/></g>
<g><path style="opacity:1" fill="#795b75" d="M 190.5,292.5 C 192.45,292.923 194.45,293.256 196.5,293.5C 197.386,294.325 197.719,295.325 197.5,296.5C 193.833,296.5 190.167,296.5 186.5,296.5C 186.413,293.402 186.913,293.068 188,295.5C 188.698,294.309 189.531,293.309 190.5,292.5 Z"/></g>
<g><path style="opacity:1" fill="#7f5f7a" d="M 283.5,291.5 C 290.218,292.333 296.884,292.666 303.5,292.5C 303.5,293.833 303.5,295.167 303.5,296.5C 294.361,297.639 285.361,297.639 276.5,296.5C 276.5,295.167 276.5,293.833 276.5,292.5C 279.059,292.802 281.393,292.468 283.5,291.5 Z"/></g>
<g><path style="opacity:1" fill="#7e5f79" d="M 92.5,292.5 C 95.8984,292.18 99.2317,292.513 102.5,293.5C 102.167,294.167 101.833,294.833 101.5,295.5C 97.878,296.659 94.2113,296.825 90.5,296C 90.0426,295.586 89.7093,295.086 89.5,294.5C 90.6016,293.824 91.6016,293.158 92.5,292.5 Z"/></g>
<g><path style="opacity:1" fill="#84627e" d="M 174.5,292.5 C 177.833,292.5 181.167,292.5 184.5,292.5C 184.5,293.833 184.5,295.167 184.5,296.5C 181.482,296.665 178.482,296.498 175.5,296C 174.663,294.989 174.33,293.822 174.5,292.5 Z"/></g>
<g><path style="opacity:1" fill="#7b5d77" d="M 233.5,291.5 C 235.582,291.472 237.416,292.139 239,293.5C 240.356,292.62 241.856,292.286 243.5,292.5C 243.33,293.822 243.663,294.989 244.5,296C 242.19,296.497 239.857,296.663 237.5,296.5C 237.167,292.5 236.833,292.5 236.5,296.5C 235.5,296.5 234.5,296.5 233.5,296.5C 233.5,294.833 233.5,293.167 233.5,291.5 Z"/></g>
<g><path style="opacity:1" fill="#84627e" d="M 414.5,292.5 C 417.167,292.5 419.833,292.5 422.5,292.5C 422.5,293.833 422.5,295.167 422.5,296.5C 419.5,296.5 416.5,296.5 413.5,296.5C 413.433,295.041 413.766,293.708 414.5,292.5 Z"/></g>
<g><path style="opacity:1" fill="#83627d" d="M 612.5,291.5 C 614.764,292.219 617.097,292.552 619.5,292.5C 619.5,293.833 619.5,295.167 619.5,296.5C 616.833,296.5 614.167,296.5 611.5,296.5C 611.366,294.708 611.699,293.042 612.5,291.5 Z"/></g>
<g><path style="opacity:1" fill="#83617d" d="M 232.5,300.5 C 234.47,302.073 236.136,303.407 237.5,304.5C 233.217,305.492 228.884,305.826 224.5,305.5C 224.5,304.167 224.5,302.833 224.5,301.5C 227.385,301.806 230.052,301.473 232.5,300.5 Z"/></g>
<g><path style="opacity:1" fill="#795b74" d="M 398.5,300.5 C 402.768,301.373 407.102,301.706 411.5,301.5C 410.98,306.03 409.814,306.363 408,302.5C 407.517,303.448 407.351,304.448 407.5,305.5C 397.5,305.5 387.5,305.5 377.5,305.5C 377.5,304.167 377.5,302.833 377.5,301.5C 382.565,301.219 387.565,301.552 392.5,302.5C 394.657,301.95 396.657,301.283 398.5,300.5 Z"/></g>
<g><path style="opacity:1" fill="#7b5d76" d="M 587.5,300.5 C 588.451,301.919 588.784,303.585 588.5,305.5C 585.167,305.5 581.833,305.5 578.5,305.5C 578.5,304.167 578.5,302.833 578.5,301.5C 581.713,301.81 584.713,301.477 587.5,300.5 Z"/></g>
<g><path style="opacity:1" fill="#7f5f7a" d="M 591.5,300.5 C 592.75,300.577 593.583,301.244 594,302.5C 595.086,300.153 596.419,300.153 598,302.5C 599.473,302.097 600.806,301.43 602,300.5C 606.595,301.17 611.428,301.503 616.5,301.5C 616.5,302.833 616.5,304.167 616.5,305.5C 612.194,304.936 608.027,304.936 604,305.5C 601.53,305.66 599.364,304.993 597.5,303.5C 592.546,306.812 590.546,305.812 591.5,300.5 Z"/></g>
<g><path style="opacity:1" fill="#81617b" d="M 617.5,300.5 C 622.438,301.392 627.438,301.726 632.5,301.5C 632.5,302.833 632.5,304.167 632.5,305.5C 627.5,305.5 622.5,305.5 617.5,305.5C 617.5,303.833 617.5,302.167 617.5,300.5 Z"/></g>
<g><path style="opacity:1" fill="#795b74" d="M 79.5,301.5 C 90.1864,301.84 101.186,302.174 112.5,302.5C 113.855,303.675 113.688,304.675 112,305.5C 110.493,301.764 109.66,301.764 109.5,305.5C 99.5981,304.637 89.5981,304.637 79.5,305.5C 79.5,304.167 79.5,302.833 79.5,301.5 Z"/></g>
<g><path style="opacity:1" fill="#765971" d="M 115.5,301.5 C 119.212,301.658 122.712,301.658 126,301.5C 126.781,302.944 126.614,304.277 125.5,305.5C 124.808,304.975 124.308,304.308 124,303.5C 121.394,306.108 119.061,305.775 117,302.5C 115.913,304.932 115.413,304.598 115.5,301.5 Z"/></g>
<g><path style="opacity:1" fill="#80607a" d="M 175.5,301.5 C 182.655,301.787 189.655,301.787 196.5,301.5C 196.657,302.873 196.49,304.207 196,305.5C 189.526,305.366 182.693,305.199 175.5,305C 174.316,303.855 174.316,302.688 175.5,301.5 Z"/></g>
<g><path style="opacity:1" fill="#83627d" d="M 210.5,301.5 C 214.846,301.334 219.179,301.501 223.5,302C 222.95,303.845 221.95,305.345 220.5,306.5C 217.242,305.583 213.909,305.249 210.5,305.5C 210.5,304.167 210.5,302.833 210.5,301.5 Z"/></g>
<g><path style="opacity:1" fill="#83627d" d="M 128.5,300.5 C 130.03,301.067 131.53,301.733 133,302.5C 136.527,300.897 139.36,301.731 141.5,305C 137.179,305.499 132.846,305.666 128.5,305.5C 128.5,303.833 128.5,302.167 128.5,300.5 Z"/></g>
<g><path style="opacity:1" fill="#84637e" d="M 198.5,301.5 C 202.167,301.5 205.833,301.5 209.5,301.5C 209.5,302.833 209.5,304.167 209.5,305.5C 205.996,305.073 202.329,305.073 198.5,305.5C 198.5,304.167 198.5,302.833 198.5,301.5 Z"/></g>
<g><path style="opacity:1" fill="#81617c" d="M 290.5,300.5 C 297.419,300.554 304.419,301.22 311.5,302.5C 311.833,303.167 312.167,303.833 312.5,304.5C 303.821,305.254 295.155,305.92 286.5,306.5C 286.649,305.448 286.483,304.448 286,303.5C 285.326,304.578 284.326,305.245 283,305.5C 280.877,304.417 278.71,304.417 276.5,305.5C 276.5,304.167 276.5,302.833 276.5,301.5C 279.885,301.92 283.052,302.253 286,302.5C 287.622,301.901 289.122,301.234 290.5,300.5 Z"/></g>
<g><path style="opacity:1" fill="#7f607a" d="M 584.5,309.5 C 587.883,309.257 591.049,309.924 594,311.5C 595.011,310.663 596.178,310.33 597.5,310.5C 597.612,317.368 595.778,318.034 592,312.5C 589.959,313.752 587.625,314.419 585,314.5C 582.833,314.333 580.667,314.167 578.5,314C 577.663,312.989 577.33,311.822 577.5,310.5C 580.059,310.802 582.393,310.468 584.5,309.5 Z"/></g>
<g><path style="opacity:1" fill="#81607c" d="M 599.5,309.5 C 601.89,309.913 604.223,310.579 606.5,311.5C 604.968,314.75 603.134,315.084 601,312.5C 600.667,312.833 600.333,313.167 600,313.5C 599.51,312.207 599.343,310.873 599.5,309.5 Z"/></g>
<g><path style="opacity:1" fill="#81617c" d="M 608.5,310.5 C 615.175,310.334 621.842,310.5 628.5,311C 627.167,312 627.167,313 628.5,314C 621.842,314.5 615.175,314.666 608.5,314.5C 608.5,313.167 608.5,311.833 608.5,310.5 Z"/></g>
<g><path style="opacity:1" fill="#85647f" d="M 630.5,310.5 C 634.998,311.508 639.331,311.508 643.5,310.5C 643.5,311.833 643.5,313.167 643.5,314.5C 639.167,314.5 634.833,314.5 630.5,314.5C 630.5,313.167 630.5,311.833 630.5,310.5 Z"/></g>
<g><path style="opacity:1" fill="#433b43" d="M 570.5,245.5 C 570.169,276.005 570.502,306.338 571.5,336.5C 601.167,336.5 630.833,336.5 660.5,336.5C 660.833,336.5 661.167,336.5 661.5,336.5C 631.005,337.498 600.338,337.831 569.5,337.5C 569.169,306.662 569.502,275.995 570.5,245.5 Z"/></g>
<g><path style="opacity:1" fill="#856680" d="M 71.5,352.5 C 102.005,352.169 132.338,352.502 162.5,353.5C 132.5,353.5 102.5,353.5 72.5,353.5C 72.5,383.5 72.5,413.5 72.5,443.5C 71.5019,413.338 71.1685,383.005 71.5,352.5 Z"/></g>
<g><path style="opacity:1" fill="#af82a6" d="M 162.5,353.5 C 162.5,383.5 162.5,413.5 162.5,443.5C 132.5,443.5 102.5,443.5 72.5,443.5C 72.5,413.5 72.5,383.5 72.5,353.5C 102.5,353.5 132.5,353.5 162.5,353.5 Z"/></g>
<g><path style="opacity:1" fill="#7e6278" d="M 262.5,353.5 C 232.5,353.5 202.5,353.5 172.5,353.5C 172.5,383.5 172.5,413.5 172.5,443.5C 172.167,443.5 171.833,443.5 171.5,443.5C 171.5,413.167 171.5,382.833 171.5,352.5C 202.005,352.169 232.338,352.502 262.5,353.5 Z"/></g>
<g><path style="opacity:1" fill="#b183a8" d="M 262.5,353.5 C 262.5,383.5 262.5,413.5 262.5,443.5C 232.5,443.5 202.5,443.5 172.5,443.5C 172.5,413.5 172.5,383.5 172.5,353.5C 202.5,353.5 232.5,353.5 262.5,353.5 Z"/></g>
<g><path style="opacity:1" fill="#b083a7" d="M 272.5,353.5 C 302.5,353.5 332.5,353.5 362.5,353.5C 362.5,383.5 362.5,413.5 362.5,443.5C 332.5,443.5 302.5,443.5 272.5,443.5C 272.5,413.5 272.5,383.5 272.5,353.5 Z"/></g>
<g><path style="opacity:1" fill="#7e607a" d="M 272.5,353.5 C 302.662,352.502 332.995,352.169 363.5,352.5C 363.5,383.167 363.5,413.833 363.5,444.5C 332.995,444.831 302.662,444.498 272.5,443.5C 302.5,443.5 332.5,443.5 362.5,443.5C 362.5,413.5 362.5,383.5 362.5,353.5C 332.5,353.5 302.5,353.5 272.5,353.5 Z"/></g>
<g><path style="opacity:1" fill="#534352" d="M 71.5,352.5 C 71.1685,383.005 71.5019,413.338 72.5,443.5C 102.5,443.5 132.5,443.5 162.5,443.5C 132.005,444.498 101.338,444.831 70.5,444.5C 70.1685,413.662 70.5019,382.995 71.5,352.5 Z"/></g>
<g><path style="opacity:1" fill="#6e546a" d="M 179.5,362.5 C 182.889,363.203 186.222,363.203 189.5,362.5C 192.984,364.755 196.65,365.088 200.5,363.5C 200.5,364.833 200.5,366.167 200.5,367.5C 193.5,367.5 186.5,367.5 179.5,367.5C 179.5,365.833 179.5,364.167 179.5,362.5 Z"/></g>
<g><path style="opacity:1" fill="#72566d" d="M 202.5,362.5 C 206.984,363.816 211.651,364.649 216.5,365C 214.699,365.317 214.366,365.984 215.5,367C 211.167,367.667 206.833,367.667 202.5,367C 201.272,365.51 201.272,364.01 202.5,362.5 Z"/></g>
<g><path style="opacity:1" fill="#81617c" d="M 117.5,363.5 C 123.444,364.045 129.444,364.045 135.5,363.5C 135.5,364.833 135.5,366.167 135.5,367.5C 132.289,367.988 129.456,367.321 127,365.5C 123.851,367.362 120.351,368.029 116.5,367.5C 116.433,366.041 116.766,364.708 117.5,363.5 Z"/></g>
<g><path style="opacity:1" fill="#685063" d="M 218.5,362.5 C 219.756,362.461 220.756,362.961 221.5,364C 232.214,364.81 242.88,364.643 253.5,363.5C 254.429,364.689 254.762,366.022 254.5,367.5C 241.988,368.15 229.654,368.15 217.5,367.5C 217.366,365.708 217.699,364.042 218.5,362.5 Z"/></g>
<g><path style="opacity:1" fill="#634d5f" d="M 280.5,363.5 C 282.124,363.36 283.29,364.027 284,365.5C 287.416,364.852 290.916,364.518 294.5,364.5C 298.267,364.547 301.767,365.214 305,366.5C 306.043,362.774 306.543,363.107 306.5,367.5C 297.833,367.5 289.167,367.5 280.5,367.5C 280.5,366.167 280.5,364.833 280.5,363.5 Z"/></g>
<g><path style="opacity:1" fill="#7e5f79" d="M 80.5,362.5 C 82.8825,364.046 85.5491,364.713 88.5,364.5C 88.5,365.5 88.5,366.5 88.5,367.5C 85.5,366.167 82.5,366.167 79.5,367.5C 79.366,365.708 79.6993,364.042 80.5,362.5 Z"/></g>
<g><path style="opacity:1" fill="#7b5d77" d="M 102.5,362.5 C 106.173,364.318 110.173,364.984 114.5,364.5C 114.5,365.5 114.5,366.5 114.5,367.5C 106.777,367.2 99.1101,367.533 91.5,368.5C 90.2528,366.994 90.2528,365.494 91.5,364C 93.7135,363.374 95.8801,363.541 98,364.5C 99.7275,364.101 101.228,363.434 102.5,362.5 Z"/></g>
<g><path style="opacity:1" fill="#7e5f79" d="M 144.5,363.5 C 146.176,364.183 146.843,365.517 146.5,367.5C 143.5,367.5 140.5,367.5 137.5,367.5C 137.5,366.5 137.5,365.5 137.5,364.5C 140.059,364.802 142.393,364.468 144.5,363.5 Z"/></g>
<g><path style="opacity:1" fill="#6c5267" d="M 338.5,362.5 C 339.222,362.918 339.722,363.584 340,364.5C 342.072,364.742 344.239,364.409 346.5,363.5C 346.657,364.873 346.49,366.207 346,367.5C 345.667,366.833 345.333,366.167 345,365.5C 333.084,367.467 320.918,368.134 308.5,367.5C 308.238,366.022 308.571,364.689 309.5,363.5C 316.21,364.494 323.044,364.828 330,364.5C 333.062,364.259 335.895,363.592 338.5,362.5 Z"/></g>
<g><path style="opacity:1" fill="#6f5469" d="M 281.5,371.5 C 289.125,372.402 296.791,373.069 304.5,373.5C 304.058,377.847 303.225,378.18 302,374.5C 301.517,375.448 301.351,376.448 301.5,377.5C 299.876,377.64 298.71,376.973 298,375.5C 292.259,376.475 286.425,376.808 280.5,376.5C 280.366,374.708 280.699,373.042 281.5,371.5 Z"/></g>
<g><path style="opacity:1" fill="#6f546b" d="M 79.5,372.5 C 80.2679,373.263 80.7679,374.263 81,375.5C 82.049,373.893 83.549,373.227 85.5,373.5C 85.6882,375.103 85.1882,376.437 84,377.5C 83.6667,376.833 83.3333,376.167 83,375.5C 81.9887,376.337 80.8221,376.67 79.5,376.5C 79.5,375.167 79.5,373.833 79.5,372.5 Z"/></g>
<g><path style="opacity:1" fill="#83627e" d="M 91.5,371.5 C 97.5559,371.625 103.556,372.125 109.5,373C 111.09,375.48 110.59,377.313 108,378.5C 104.364,376.906 100.531,376.072 96.5,376C 95.2577,372.643 94.4244,372.81 94,376.5C 93.1932,372.551 92.6932,372.551 92.5,376.5C 86.2916,375.77 85.9583,374.104 91.5,371.5 Z"/></g>
<g><path style="opacity:1" fill="#7d5e78" d="M 129.5,371.5 C 135.531,371.809 141.531,372.309 147.5,373C 148.337,374.011 148.67,375.178 148.5,376.5C 140.493,376.666 132.493,376.5 124.5,376C 123.584,375.626 122.75,375.126 122,374.5C 118.851,376.362 115.351,377.029 111.5,376.5C 111.147,374.365 111.98,373.032 114,372.5C 118.35,372.821 122.684,373.154 127,373.5C 127.995,372.934 128.828,372.267 129.5,371.5 Z"/></g>
<g><path style="opacity:1" fill="#85647f" d="M 129.5,381.5 C 136.5,381.5 143.5,381.5 150.5,381.5C 150.5,383.167 150.5,384.833 150.5,386.5C 142.2,385.629 133.867,385.295 125.5,385.5C 125.5,384.5 125.5,383.5 125.5,382.5C 127.099,382.768 128.432,382.434 129.5,381.5 Z"/></g>
<g><path style="opacity:1" fill="#81607b" d="M 82.5,381.5 C 90.5533,381.225 98.5533,381.725 106.5,383C 106.957,383.414 107.291,383.914 107.5,384.5C 100.266,386.922 93.0994,386.922 86,384.5C 83.9592,385.423 81.7925,385.756 79.5,385.5C 80.0008,383.293 81.0008,381.96 82.5,381.5 Z"/></g>
<g><path style="opacity:1" fill="#7b5d76" d="M 117.5,380.5 C 119.5,381.167 121.5,381.833 123.5,382.5C 123.5,383.5 123.5,384.5 123.5,385.5C 120.606,385.958 118.106,385.291 116,383.5C 114.103,385.016 111.936,385.683 109.5,385.5C 109.5,384.5 109.5,383.5 109.5,382.5C 112.495,382.706 115.162,382.04 117.5,380.5 Z"/></g>
<g><path style="opacity:1" fill="#80607a" d="M 131.5,392.5 C 137.645,391.51 143.978,391.177 150.5,391.5C 150.671,394.797 150.005,395.131 148.5,392.5C 144.152,394.087 139.652,395.087 135,395.5C 133.961,394.29 132.794,393.29 131.5,392.5 Z"/></g>
<g><path style="opacity:1" fill="#886682" d="M 96.5,389.5 C 98.8809,390.42 101.214,390.42 103.5,389.5C 104.452,391.045 104.785,392.712 104.5,394.5C 95.946,394.807 87.6127,395.14 79.5,395.5C 79.5,393.833 79.5,392.167 79.5,390.5C 85.5301,391.514 91.1967,391.181 96.5,389.5 Z"/></g>
<g><path style="opacity:1" fill="#8d6986" d="M 106.5,390.5 C 109.956,391.802 113.456,391.802 117,390.5C 117.945,390.905 118.612,391.572 119,392.5C 122.149,390.638 125.649,389.971 129.5,390.5C 129.714,392.144 129.38,393.644 128.5,395C 121.236,395.029 113.903,395.196 106.5,395.5C 106.5,393.833 106.5,392.167 106.5,390.5 Z"/></g>
<g><path style="opacity:1" fill="#6a5167" d="M 121.5,398.5 C 122.5,398.5 123.5,398.5 124.5,398.5C 124.5,400.167 124.5,401.833 124.5,403.5C 122.5,403.5 120.5,403.5 118.5,403.5C 118.5,402.5 118.5,401.5 118.5,400.5C 120.179,400.715 121.179,400.048 121.5,398.5 Z"/></g>
<g><path style="opacity:1" fill="#755870" d="M 100.5,399.5 C 103.673,399.401 106.673,400.068 109.5,401.5C 109.291,402.086 108.957,402.586 108.5,403C 98.8391,403.5 89.1724,403.666 79.5,403.5C 79.5,402.5 79.5,401.5 79.5,400.5C 86.6866,400.825 93.6866,400.491 100.5,399.5 Z"/></g>
<g><path style="opacity:1" fill="#775b74" d="M 111.5,400.5 C 113.167,400.5 114.833,400.5 116.5,400.5C 116.5,401.5 116.5,402.5 116.5,403.5C 114.833,403.5 113.167,403.5 111.5,403.5C 111.5,402.5 111.5,401.5 111.5,400.5 Z"/></g>
<g><path style="opacity:1" fill="#71566e" d="M 126.5,400.5 C 131.167,400.5 135.833,400.5 140.5,400.5C 140.5,401.5 140.5,402.5 140.5,403.5C 135.833,403.5 131.167,403.5 126.5,403.5C 126.5,402.5 126.5,401.5 126.5,400.5 Z"/></g>
<g><path style="opacity:1" fill="#745870" d="M 95.5,408.5 C 98.728,409.414 102.061,409.747 105.5,409.5C 105.5,410.833 105.5,412.167 105.5,413.5C 102.762,414.035 100.928,413.035 100,410.5C 98.8197,411.684 97.3197,412.351 95.5,412.5C 91.6739,412.543 87.8406,412.21 84,411.5C 82.5272,411.903 81.1939,412.57 80,413.5C 79.51,412.207 79.3433,410.873 79.5,409.5C 83.1064,409.211 86.6064,409.544 90,410.5C 91.9483,409.891 93.7816,409.224 95.5,408.5 Z"/></g>
<g><path style="opacity:1" fill="#765a72" d="M 112.5,408.5 C 114.432,409.653 116.432,409.653 118.5,408.5C 119.647,408.818 120.481,409.484 121,410.5C 126.468,409.812 131.968,409.145 137.5,408.5C 138.429,409.689 138.762,411.022 138.5,412.5C 134.003,413.055 129.836,412.389 126,410.5C 121.822,412.399 117.322,413.065 112.5,412.5C 112.5,411.167 112.5,409.833 112.5,408.5 Z"/></g>
<g><path style="opacity:1" fill="#72566d" d="M 148.5,408.5 C 150.176,409.183 150.843,410.517 150.5,412.5C 147.102,412.82 143.768,412.487 140.5,411.5C 140.709,410.914 141.043,410.414 141.5,410C 144.036,409.814 146.369,409.314 148.5,408.5 Z"/></g>
<g><path style="opacity:1" fill="#8f6a88" d="M 79.5,416.5 C 81.0295,417.067 82.5295,417.733 84,418.5C 86.9247,416.982 89.258,417.649 91,420.5C 94.3515,416.241 98.5181,415.241 103.5,417.5C 103.5,419.167 103.5,420.833 103.5,422.5C 95.4712,422.656 87.4712,422.323 79.5,421.5C 79.5,419.833 79.5,418.167 79.5,416.5 Z"/></g>
<g><path style="opacity:1" fill="#856480" d="M 105.5,417.5 C 114.477,417.956 123.144,417.956 131.5,417.5C 130.833,419.167 130.167,420.833 129.5,422.5C 121.525,421.496 113.525,421.496 105.5,422.5C 105.5,420.833 105.5,419.167 105.5,417.5 Z"/></g>
<g><path style="opacity:1" fill="#6b5168" d="M 262.5,353.5 C 263.498,383.662 263.831,413.995 263.5,444.5C 232.662,444.831 201.995,444.498 171.5,443.5C 171.833,443.5 172.167,443.5 172.5,443.5C 202.5,443.5 232.5,443.5 262.5,443.5C 262.5,413.5 262.5,383.5 262.5,353.5 Z"/></g>
</svg>
