<?xml version="1.0" encoding="UTF-8"?>
<!DOCTYPE svg PUBLIC "-//W3C//DTD SVG 1.1//EN" "http://www.w3.org/Graphics/SVG/1.1/DTD/svg11.dtd">
<svg xmlns="http://www.w3.org/2000/svg" version="1.1" width="60px" height="60px" style="shape-rendering:geometricPrecision; text-rendering:geometricPrecision; image-rendering:optimizeQuality; fill-rule:evenodd; clip-rule:evenodd" xmlns:xlink="http://www.w3.org/1999/xlink">
<g><path style="opacity:0.846" fill="#fbfcfc" d="M 21.5,-0.5 C 26.8333,-0.5 32.1667,-0.5 37.5,-0.5C 48.5,3.16667 55.8333,10.5 59.5,21.5C 59.5,26.8333 59.5,32.1667 59.5,37.5C 55.8333,48.5 48.5,55.8333 37.5,59.5C 32.1667,59.5 26.8333,59.5 21.5,59.5C 10.5,55.8333 3.16667,48.5 -0.5,37.5C -0.5,32.1667 -0.5,26.8333 -0.5,21.5C 3.16667,10.5 10.5,3.16667 21.5,-0.5 Z"/></g>
<g><path style="opacity:1" fill="#aeecf3" d="M 45.5,50.5 C 43.5739,48.7073 41.2406,47.7073 38.5,47.5C 38.1788,45.9519 37.1788,45.2852 35.5,45.5C 37.1915,40.4533 39.6915,35.7866 43,31.5C 43.765,29.9343 43.5983,28.6009 42.5,27.5C 42.8881,25.3153 43.8881,23.482 45.5,22C 45.1563,16.4587 42.4897,12.6254 37.5,10.5C 35.4907,8.93482 33.1573,7.93482 30.5,7.5C 28.1432,7.33669 25.8098,7.50335 23.5,8C 21.3527,10.5748 18.6861,12.4081 15.5,13.5C 14.8333,16.1667 14.1667,18.8333 13.5,21.5C 15.5589,22.9512 16.5589,24.9512 16.5,27.5C 14.7748,27.8425 14.2748,28.8425 15,30.5C 17.1705,34.8441 19.8372,38.8441 23,42.5C 23.4828,43.448 23.6495,44.448 23.5,45.5C 19.8832,46.6417 16.5498,48.3084 13.5,50.5C 8.06689,47.0054 4.56689,42.0054 3,35.5C 1.18725,19.6186 7.68725,8.78525 22.5,3C 47.7116,1.87272 58.545,13.7061 55,38.5C 53.5869,41.6612 51.9203,44.6612 50,47.5C 48.871,49.1412 47.371,50.1412 45.5,50.5 Z"/></g>
<g><path style="opacity:1" fill="#dba661" d="M 30.5,7.5 C 33.1573,7.93482 35.4907,8.93482 37.5,10.5C 36.4138,10.62 35.7472,11.2867 35.5,12.5C 36.5009,15.4822 37.0009,18.4822 37,21.5C 36.6174,20.944 36.1174,20.6107 35.5,20.5C 31.0373,16.5579 26.0373,15.5579 20.5,17.5C 19.168,19.1321 17.8347,20.7988 16.5,22.5C 16.1667,22.3333 15.8333,22.1667 15.5,22C 16.7824,19.3387 18.2824,16.8387 20,14.5C 20.8732,14.7355 21.7065,15.0688 22.5,15.5C 24.943,13.9447 27.6097,13.278 30.5,13.5C 30.5,11.5 30.5,9.5 30.5,7.5 Z"/></g>
<g><path style="opacity:1" fill="#eac287" d="M 30.5,7.5 C 30.5,9.5 30.5,11.5 30.5,13.5C 27.6097,13.278 24.943,13.9447 22.5,15.5C 21.7065,15.0688 20.8732,14.7355 20,14.5C 18.2824,16.8387 16.7824,19.3387 15.5,22C 15.8333,22.1667 16.1667,22.3333 16.5,22.5C 17.8347,20.7988 19.168,19.1321 20.5,17.5C 19.3196,21.3691 18.3196,25.3691 17.5,29.5C 16.7025,29.0431 16.3691,28.3764 16.5,27.5C 16.5589,24.9512 15.5589,22.9512 13.5,21.5C 14.1667,18.8333 14.8333,16.1667 15.5,13.5C 18.6861,12.4081 21.3527,10.5748 23.5,8C 25.8098,7.50335 28.1432,7.33669 30.5,7.5 Z"/></g>
<g><path style="opacity:1" fill="#c2874b" d="M 37.5,10.5 C 42.4897,12.6254 45.1563,16.4587 45.5,22C 43.8881,23.482 42.8881,25.3153 42.5,27.5C 41.7784,27.9175 41.2784,28.5842 41,29.5C 40.9814,26.6924 39.9814,24.3591 38,22.5C 36.2458,24.25 34.0792,24.9167 31.5,24.5C 31.1667,24.5 30.8333,24.5 30.5,24.5C 30.5,23.5 30.5,22.5 30.5,21.5C 32.4147,21.7845 34.0813,21.4511 35.5,20.5C 36.1174,20.6107 36.6174,20.944 37,21.5C 37.0009,18.4822 36.5009,15.4822 35.5,12.5C 35.7472,11.2867 36.4138,10.62 37.5,10.5 Z"/></g>
<g><path style="opacity:1" fill="#e5beb9" d="M 35.5,20.5 C 34.0813,21.4511 32.4147,21.7845 30.5,21.5C 30.5,22.5 30.5,23.5 30.5,24.5C 29.6805,27.3054 29.1805,30.3054 29,33.5C 26.9286,34.1029 25.7619,35.4362 25.5,37.5C 27.8794,40.1402 30.3794,40.1402 33,37.5C 33.7203,39.1124 33.5536,40.6124 32.5,42C 30.1955,42.8952 27.8622,43.7285 25.5,44.5C 27.1083,45.3184 28.7749,45.9851 30.5,46.5C 31.3857,47.325 31.719,48.325 31.5,49.5C 30.2921,50.2341 28.9587,50.5674 27.5,50.5C 25.4446,49.4412 24.1112,47.7746 23.5,45.5C 23.6495,44.448 23.4828,43.448 23,42.5C 19.8372,38.8441 17.1705,34.8441 15,30.5C 14.2748,28.8425 14.7748,27.8425 16.5,27.5C 16.3691,28.3764 16.7025,29.0431 17.5,29.5C 18.3196,25.3691 19.3196,21.3691 20.5,17.5C 26.0373,15.5579 31.0373,16.5579 35.5,20.5 Z"/></g>
<g><path style="opacity:1" fill="#e7bf89" d="M 21.5,21.5 C 23.9775,21.0508 25.9775,21.7175 27.5,23.5C 25.1667,24.8333 22.8333,24.8333 20.5,23.5C 20.8627,22.8165 21.1961,22.1499 21.5,21.5 Z"/></g>
<g><path style="opacity:1" fill="#bd857e" d="M 30.5,24.5 C 30.8333,24.5 31.1667,24.5 31.5,24.5C 32.0114,26.1947 32.6781,27.8614 33.5,29.5C 34.4287,28.3112 34.762,26.9778 34.5,25.5C 35.5,25.5 36.5,25.5 37.5,25.5C 36.0249,29 35.0249,32.6666 34.5,36.5C 31.5448,37.1587 28.5448,37.4921 25.5,37.5C 25.7619,35.4362 26.9286,34.1029 29,33.5C 29.1805,30.3054 29.6805,27.3054 30.5,24.5 Z"/></g>
<g><path style="opacity:1" fill="#a46761" d="M 42.5,27.5 C 43.5983,28.6009 43.765,29.9343 43,31.5C 39.6915,35.7866 37.1915,40.4533 35.5,45.5C 37.1788,45.2852 38.1788,45.9519 38.5,47.5C 36.079,47.8782 33.7457,48.5448 31.5,49.5C 31.719,48.325 31.3857,47.325 30.5,46.5C 28.7749,45.9851 27.1083,45.3184 25.5,44.5C 27.8622,43.7285 30.1955,42.8952 32.5,42C 33.5536,40.6124 33.7203,39.1124 33,37.5C 30.3794,40.1402 27.8794,40.1402 25.5,37.5C 28.5448,37.4921 31.5448,37.1587 34.5,36.5C 35.0249,32.6666 36.0249,29 37.5,25.5C 36.5,25.5 35.5,25.5 34.5,25.5C 34.762,26.9778 34.4287,28.3112 33.5,29.5C 32.6781,27.8614 32.0114,26.1947 31.5,24.5C 34.0792,24.9167 36.2458,24.25 38,22.5C 39.9814,24.3591 40.9814,26.6924 41,29.5C 41.2784,28.5842 41.7784,27.9175 42.5,27.5 Z"/></g>
<g><path style="opacity:1" fill="#706163" d="M 23.5,45.5 C 24.1112,47.7746 25.4446,49.4412 27.5,50.5C 27.44,51.0431 27.1067,51.3764 26.5,51.5C 22.5773,47.1656 19.244,47.4989 16.5,52.5C 14.9731,52.573 13.9731,51.9063 13.5,50.5C 16.5498,48.3084 19.8832,46.6417 23.5,45.5 Z"/></g>
<g><path style="opacity:1" fill="#3c3838" d="M 38.5,47.5 C 41.2406,47.7073 43.5739,48.7073 45.5,50.5C 38.0524,56.2717 29.7191,57.7717 20.5,55C 18.9336,54.3918 17.6002,53.5585 16.5,52.5C 19.244,47.4989 22.5773,47.1656 26.5,51.5C 27.1067,51.3764 27.44,51.0431 27.5,50.5C 28.9587,50.5674 30.2921,50.2341 31.5,49.5C 33.7457,48.5448 36.079,47.8782 38.5,47.5 Z"/></g>
</svg>
