<?xml version="1.0" encoding="UTF-8"?>
<!DOCTYPE svg PUBLIC "-//W3C//DTD SVG 1.1//EN" "http://www.w3.org/Graphics/SVG/1.1/DTD/svg11.dtd">
<svg xmlns="http://www.w3.org/2000/svg" version="1.1" width="1508px" height="3048px" style="shape-rendering:geometricPrecision; text-rendering:geometricPrecision; image-rendering:optimizeQuality; fill-rule:evenodd; clip-rule:evenodd" xmlns:xlink="http://www.w3.org/1999/xlink">
<g><path style="opacity:1" fill="#00444b" d="M -0.5,-0.5 C 502.167,-0.5 1004.83,-0.5 1507.5,-0.5C 1507.5,1015.5 1507.5,2031.5 1507.5,3047.5C 1004.83,3047.5 502.167,3047.5 -0.5,3047.5C -0.5,2031.5 -0.5,1015.5 -0.5,-0.5 Z"/></g>
<g><path style="opacity:1" fill="#cad8da" d="M 144.5,80.5 C 147.532,81.9991 149.032,84.3324 149,87.5C 139.652,96.6808 130.486,106.014 121.5,115.5C 130.986,125.486 140.652,135.319 150.5,145C 148.796,147.757 146.462,149.09 143.5,149C 134.319,139.652 124.986,130.486 115.5,121.5C 106.014,130.486 96.6808,139.652 87.5,149C 83.6667,149.167 81.8333,147.333 82,143.5C 91.3477,134.319 100.514,124.986 109.5,115.5C 100.514,106.014 91.3477,96.6808 82,87.5C 81.8333,83.6667 83.6667,81.8333 87.5,82C 96.6808,91.3477 106.014,100.514 115.5,109.5C 125.521,100.146 135.188,90.479 144.5,80.5 Z"/></g>
<g><path style="opacity:1" fill="#f2f5f6" d="M 732.5,90.5 C 743.015,89.0977 751.348,92.5977 757.5,101C 756.226,102.221 754.726,103.054 753,103.5C 750.511,101.681 748.011,99.8478 745.5,98C 737.812,94.8408 731.312,96.3408 726,102.5C 724.913,108.43 727.413,111.93 733.5,113C 740.555,113.763 747.222,115.763 753.5,119C 761.179,131.125 758.179,139.458 744.5,144C 733.068,146.472 724.068,142.972 717.5,133.5C 718.874,132.289 720.374,131.289 722,130.5C 724.449,131.944 726.615,133.778 728.5,136C 736.292,139.96 743.459,139.126 750,133.5C 751.227,129.409 750.394,125.909 747.5,123C 741.309,120.828 734.976,119.161 728.5,118C 719.114,113.172 716.948,106.006 722,96.5C 725.101,93.6482 728.601,91.6482 732.5,90.5 Z"/></g>
<g><path style="opacity:1" fill="#edf1f2" d="M 700.5,91.5 C 702.833,91.5 705.167,91.5 707.5,91.5C 707.5,108.833 707.5,126.167 707.5,143.5C 705.167,143.5 702.833,143.5 700.5,143.5C 700.5,126.167 700.5,108.833 700.5,91.5 Z"/></g>
<g><path style="opacity:1" fill="#f3f5f6" d="M 783.5,91.5 C 786.119,91.2317 788.619,91.565 791,92.5C 797.402,109.206 803.902,125.873 810.5,142.5C 808.167,143.833 805.833,143.833 803.5,142.5C 801.833,138.5 800.167,134.5 798.5,130.5C 790.833,129.167 783.167,129.167 775.5,130.5C 774.098,134.539 772.598,138.539 771,142.5C 768.599,143.602 766.099,143.769 763.5,143C 770.242,125.864 776.909,108.698 783.5,91.5 Z"/></g>
<g><path style="opacity:1" fill="#114c53" d="M 786.5,100.5 C 790.453,107.674 793.453,115.341 795.5,123.5C 789.794,123.829 784.128,123.495 778.5,122.5C 781.17,115.142 783.837,107.809 786.5,100.5 Z"/></g>
<g><path style="opacity:1" fill="#c6d5d7" d="M 1356.5,107.5 C 1362.93,106.534 1366.59,109.201 1367.5,115.5C 1367.11,120.72 1364.28,123.387 1359,123.5C 1353.02,122.261 1350.68,118.594 1352,112.5C 1353.02,110.313 1354.52,108.646 1356.5,107.5 Z"/></g>
<g><path style="opacity:1" fill="#c6d5d7" d="M 1388.5,107.5 C 1394.93,106.534 1398.59,109.201 1399.5,115.5C 1399.11,120.72 1396.28,123.387 1391,123.5C 1385.02,122.261 1382.68,118.594 1384,112.5C 1385.02,110.313 1386.52,108.646 1388.5,107.5 Z"/></g>
<g><path style="opacity:1" fill="#c6d5d7" d="M 1420.5,107.5 C 1426.93,106.534 1430.59,109.201 1431.5,115.5C 1431.11,120.72 1428.28,123.387 1423,123.5C 1417.02,122.261 1414.68,118.594 1416,112.5C 1417.02,110.313 1418.52,108.646 1420.5,107.5 Z"/></g>
<g><path style="opacity:1" fill="#33696f" d="M 69.5,227.5 C 525.5,227.333 981.5,227.5 1437.5,228C 1438,228.5 1438.5,229 1439,229.5C 1439.67,326.833 1439.67,424.167 1439,521.5C 1438.5,522 1438,522.5 1437.5,523C 981.5,523.667 525.5,523.667 69.5,523C 69,522.5 68.5,522 68,521.5C 67.3333,424.167 67.3333,326.833 68,229.5C 68.7172,228.956 69.2172,228.289 69.5,227.5 Z"/></g>
<g><path style="opacity:1" fill="#c2d2d4" d="M 145.5,313.5 C 147.604,313.201 149.604,313.534 151.5,314.5C 155.936,325.31 160.269,336.144 164.5,347C 162.741,347.798 161.074,347.631 159.5,346.5C 158.695,344.085 157.695,341.751 156.5,339.5C 151.208,338.505 145.875,338.172 140.5,338.5C 139.969,341.237 139.136,343.904 138,346.5C 136.644,347.38 135.144,347.714 133.5,347.5C 137.299,336.103 141.299,324.77 145.5,313.5 Z"/></g>
<g><path style="opacity:1" fill="#c0d0d3" d="M 336.5,313.5 C 338.604,313.201 340.604,313.534 342.5,314.5C 347.587,323.005 352.42,331.672 357,340.5C 357.5,331.506 357.666,322.506 357.5,313.5C 358.833,313.5 360.167,313.5 361.5,313.5C 361.5,324.833 361.5,336.167 361.5,347.5C 359.533,347.739 357.699,347.406 356,346.5C 350.746,337.661 345.746,328.661 341,319.5C 340.5,328.827 340.334,338.161 340.5,347.5C 339.167,347.5 337.833,347.5 336.5,347.5C 336.5,336.167 336.5,324.833 336.5,313.5 Z"/></g>
<g><path style="opacity:1" fill="#b8cbcd" d="M 307.5,315.5 C 309.167,315.5 310.833,315.5 312.5,315.5C 312.5,317.833 312.5,320.167 312.5,322.5C 314.5,322.5 316.5,322.5 318.5,322.5C 318.5,323.833 318.5,325.167 318.5,326.5C 316.5,326.5 314.5,326.5 312.5,326.5C 312.5,332.5 312.5,338.5 312.5,344.5C 314.5,344.5 316.5,344.5 318.5,344.5C 317.193,348.454 314.526,349.454 310.5,347.5C 309.667,346.5 308.833,345.5 308,344.5C 307.501,338.509 307.334,332.509 307.5,326.5C 306.5,326.5 305.5,326.5 304.5,326.5C 304.5,325.167 304.5,323.833 304.5,322.5C 305.5,322.5 306.5,322.5 307.5,322.5C 307.5,320.167 307.5,317.833 307.5,315.5 Z"/></g>
<g><path style="opacity:1" fill="#3b6e74" d="M 148.5,318.5 C 150.594,323.202 152.594,328.035 154.5,333C 150.848,333.499 147.182,333.665 143.5,333.5C 144.883,328.402 146.55,323.402 148.5,318.5 Z"/></g>
<g><path style="opacity:1" fill="#c1d1d4" d="M 174.5,322.5 C 180.391,321.404 185.391,322.904 189.5,327C 188.421,327.956 187.255,328.789 186,329.5C 181.749,324.274 177.415,324.274 173,329.5C 171.528,335.076 172.695,339.909 176.5,344C 178.5,344.667 180.5,344.667 182.5,344C 184.373,340.365 186.706,339.865 189.5,342.5C 184.894,348.823 179.227,349.99 172.5,346C 167.913,341.772 166.413,336.606 168,330.5C 169.305,327.039 171.471,324.372 174.5,322.5 Z"/></g>
<g><path style="opacity:1" fill="#bfd0d2" d="M 202.5,321.5 C 207.954,321.201 212.287,323.201 215.5,327.5C 214.672,328.415 213.672,329.081 212.5,329.5C 207.541,323.993 203.041,324.327 199,330.5C 197.574,335.757 198.741,340.257 202.5,344C 204.5,344.667 206.5,344.667 208.5,344C 210.373,340.365 212.706,339.865 215.5,342.5C 210.894,348.823 205.227,349.99 198.5,346C 192.923,340.146 192.09,333.646 196,326.5C 197.965,324.45 200.132,322.783 202.5,321.5 Z"/></g>
<g><path style="opacity:1" fill="#c2d2d4" d="M 228.5,321.5 C 240.983,321.753 245.817,328.087 243,340.5C 237.203,349.744 230.203,350.744 222,343.5C 217.093,333.891 219.259,326.557 228.5,321.5 Z"/></g>
<g><path style="opacity:1" fill="#c1d1d4" d="M 249.5,322.5 C 251.167,322.5 252.833,322.5 254.5,322.5C 254.334,329.175 254.5,335.842 255,342.5C 259.658,345.564 263.325,344.564 266,339.5C 266.499,333.843 266.666,328.176 266.5,322.5C 267.833,322.5 269.167,322.5 270.5,322.5C 270.5,330.833 270.5,339.167 270.5,347.5C 268.508,347.672 266.842,347.005 265.5,345.5C 258.652,350.432 253.485,349.099 250,341.5C 249.5,335.175 249.334,328.842 249.5,322.5 Z"/></g>
<g><path style="opacity:1" fill="#c6d5d7" d="M 287.5,321.5 C 292.814,320.74 296.647,322.74 299,327.5C 299.5,334.158 299.666,340.825 299.5,347.5C 298.167,347.5 296.833,347.5 295.5,347.5C 295.666,341.158 295.5,334.825 295,328.5C 290.694,324.325 286.694,324.658 283,329.5C 282.501,335.491 282.334,341.491 282.5,347.5C 281.167,347.5 279.833,347.5 278.5,347.5C 278.5,339.167 278.5,330.833 278.5,322.5C 280.492,322.328 282.158,322.995 283.5,324.5C 284.901,323.479 286.235,322.479 287.5,321.5 Z"/></g>
<g><path style="opacity:1" fill="#b8cbcd" d="M 368.5,324.5 C 376.52,323.881 380.02,327.547 379,335.5C 374.813,343.073 370.146,343.406 365,336.5C 363.745,331.738 364.912,327.738 368.5,324.5 Z"/></g>
<g><path style="opacity:1" fill="#376c71" d="M 229.5,325.5 C 237.982,325.765 241.149,330.099 239,338.5C 237.55,343.308 234.384,345.141 229.5,344C 227.333,343.167 225.833,341.667 225,339.5C 223.309,333.61 224.809,328.944 229.5,325.5 Z"/></g>
<g><path style="opacity:1" fill="#396d73" d="M 369.5,327.5 C 375.156,327.867 376.989,330.867 375,336.5C 373.477,338.62 371.644,338.953 369.5,337.5C 368.249,334.126 368.249,330.793 369.5,327.5 Z"/></g>
<g><path style="opacity:1" fill="#00444b" d="M 1308.5,333.5 C 1326.5,333.333 1344.5,333.5 1362.5,334C 1363.31,334.308 1363.97,334.808 1364.5,335.5C 1365.66,357.79 1365.82,380.124 1365,402.5C 1364.17,403.333 1363.33,404.167 1362.5,405C 1358.18,405.499 1353.85,405.666 1349.5,405.5C 1349.66,408.518 1349.5,411.518 1349,414.5C 1348.17,415.333 1347.33,416.167 1346.5,417C 1328.5,417.667 1310.5,417.667 1292.5,417C 1291.67,416.167 1290.83,415.333 1290,414.5C 1289.33,392.5 1289.33,370.5 1290,348.5C 1290.5,347.333 1291.33,346.5 1292.5,346C 1296.82,345.501 1301.15,345.334 1305.5,345.5C 1305.34,342.482 1305.5,339.482 1306,336.5C 1306.7,335.309 1307.53,334.309 1308.5,333.5 Z"/></g>
<g><path style="opacity:1" fill="#2f666c" d="M 1310.5,337.5 C 1327.41,337.175 1344.24,337.508 1361,338.5C 1361.67,359.167 1361.67,379.833 1361,400.5C 1357.27,401.46 1353.44,401.793 1349.5,401.5C 1349.82,383.453 1349.49,365.453 1348.5,347.5C 1347.97,346.808 1347.31,346.308 1346.5,346C 1334.17,345.5 1321.84,345.333 1309.5,345.5C 1309.28,342.721 1309.61,340.054 1310.5,337.5 Z"/></g>
<g><path style="opacity:1" fill="#c5d4d7" d="M 365.5,344.5 C 369.833,344.5 374.167,344.5 378.5,344.5C 378.5,345.5 378.5,346.5 378.5,347.5C 374.167,347.5 369.833,347.5 365.5,347.5C 365.5,346.5 365.5,345.5 365.5,344.5 Z"/></g>
<g><path style="opacity:1" fill="#31686e" d="M 1294.5,349.5 C 1311.41,349.175 1328.24,349.508 1345,350.5C 1345.83,371.406 1345.66,392.24 1344.5,413C 1327.59,413.825 1310.76,413.658 1294,412.5C 1293.18,391.427 1293.35,370.427 1294.5,349.5 Z"/></g>
<g><path style="opacity:1" fill="#f4f7f7" d="M 173.5,390.5 C 190.666,389.161 196.166,396.494 190,412.5C 184.543,418.658 178.709,424.491 172.5,430C 179.492,430.5 186.492,430.666 193.5,430.5C 193.5,432.167 193.5,433.833 193.5,435.5C 183.5,435.5 173.5,435.5 163.5,435.5C 163.34,433.801 163.506,432.134 164,430.5C 171,423.5 178,416.5 185,409.5C 189.556,401.615 187.39,396.949 178.5,395.5C 173.307,396.357 169.973,399.357 168.5,404.5C 167.264,403.754 165.93,403.421 164.5,403.5C 164.797,397.223 167.797,392.89 173.5,390.5 Z"/></g>
<g><path style="opacity:1" fill="#f1f5f5" d="M 210.5,390.5 C 224.341,388.181 230.508,393.848 229,407.5C 228.07,409.552 226.57,411.052 224.5,412C 233.492,418.811 233.826,426.144 225.5,434C 217.493,437.908 209.993,437.075 203,431.5C 202.15,429.99 201.317,428.49 200.5,427C 201.409,424.681 203.075,424.014 205.5,425C 207.504,429.17 210.837,431.003 215.5,430.5C 221.256,431.13 224.589,428.63 225.5,423C 223.868,416.265 219.535,413.432 212.5,414.5C 212.5,412.833 212.5,411.167 212.5,409.5C 222.807,410.376 225.807,406.21 221.5,397C 218.298,395.517 214.964,395.183 211.5,396C 209.291,398.378 206.958,400.545 204.5,402.5C 203.062,402.281 201.729,401.781 200.5,401C 202.664,396.338 205.997,392.838 210.5,390.5 Z"/></g>
<g><path style="opacity:1" fill="#f4f6f7" d="M 351.5,390.5 C 356.267,390.191 360.934,390.691 365.5,392C 368.033,393.033 369.699,394.867 370.5,397.5C 369.833,398.833 368.833,399.833 367.5,400.5C 362.186,394.773 356.352,394.106 350,398.5C 347.195,402.091 346.195,406.091 347,410.5C 351.785,406.627 357.285,405.46 363.5,407C 371.945,413.126 373.778,420.959 369,430.5C 362.211,437.369 354.711,438.202 346.5,433C 344.014,429.863 342.181,426.363 341,422.5C 337.867,409.4 341.367,398.733 351.5,390.5 Z"/></g>
<g><path style="opacity:1" fill="#f2f5f6" d="M 422.5,390.5 C 431.324,388.44 438.157,391.107 443,398.5C 444.007,404.318 442.173,408.984 437.5,412.5C 444.902,417.3 446.402,423.634 442,431.5C 433.822,437.401 425.322,437.901 416.5,433C 410.28,424.901 411.28,418.068 419.5,412.5C 410.785,403.836 411.785,396.502 422.5,390.5 Z"/></g>
<g><path style="opacity:1" fill="#f9fafa" d="M 147.5,435.5 C 147.832,423.149 147.499,410.815 146.5,398.5C 145.893,398.624 145.56,398.957 145.5,399.5C 143.836,401.757 141.669,403.423 139,404.5C 137.231,403.629 136.564,402.296 137,400.5C 141.269,395.468 146.436,392.135 152.5,390.5C 152.5,405.5 152.5,420.5 152.5,435.5C 150.833,435.5 149.167,435.5 147.5,435.5 Z"/></g>
<g><path style="opacity:1" fill="#f3f6f6" d="M 259.5,435.5 C 259.5,432.167 259.5,428.833 259.5,425.5C 252.167,425.5 244.833,425.5 237.5,425.5C 237.338,423.473 237.505,421.473 238,419.5C 244.833,410 251.667,400.5 258.5,391C 260.473,390.505 262.473,390.338 264.5,390.5C 264.5,400.5 264.5,410.5 264.5,420.5C 266.5,420.5 268.5,420.5 270.5,420.5C 270.5,422.167 270.5,423.833 270.5,425.5C 268.5,425.5 266.5,425.5 264.5,425.5C 264.5,428.833 264.5,432.167 264.5,435.5C 262.833,435.5 261.167,435.5 259.5,435.5 Z"/></g>
<g><path style="opacity:1" fill="#eef2f3" d="M 306.5,390.5 C 314.5,390.5 322.5,390.5 330.5,390.5C 330.5,392.5 330.5,394.5 330.5,396.5C 323.833,396.5 317.167,396.5 310.5,396.5C 309.633,400.535 309.633,404.535 310.5,408.5C 318.457,403.871 325.291,405.204 331,412.5C 335.115,430.719 327.948,438.219 309.5,435C 305.695,433.222 303.528,430.388 303,426.5C 304.085,425.707 305.252,425.04 306.5,424.5C 313.948,434.101 320.781,433.768 327,423.5C 327.285,413.465 322.451,409.631 312.5,412C 310.281,415.045 307.281,416.211 303.5,415.5C 304.285,407.097 305.285,398.764 306.5,390.5 Z"/></g>
<g><path style="opacity:1" fill="#ecf1f1" d="M 377.5,390.5 C 387.5,390.5 397.5,390.5 407.5,390.5C 407.662,392.527 407.495,394.527 407,396.5C 396.844,407.484 391.677,420.484 391.5,435.5C 389.5,435.5 387.5,435.5 385.5,435.5C 385.885,420.84 390.885,408.006 400.5,397C 392.841,396.5 385.174,396.334 377.5,396.5C 377.5,394.5 377.5,392.5 377.5,390.5 Z"/></g>
<g><path style="opacity:1" fill="#386c72" d="M 423.5,395.5 C 428.849,394.461 433.349,395.795 437,399.5C 438.475,406.523 435.642,410.19 428.5,410.5C 421.358,410.19 418.525,406.523 420,399.5C 421.376,398.295 422.542,396.962 423.5,395.5 Z"/></g>
<g><path style="opacity:1" fill="#b3c6c8" d="M 145.5,399.5 C 145.56,398.957 145.893,398.624 146.5,398.5C 147.499,410.815 147.832,423.149 147.5,435.5C 146.833,423.5 146.167,411.5 145.5,399.5 Z"/></g>
<g><path style="opacity:1" fill="#366b71" d="M 257.5,399.5 C 258.491,406.313 258.825,413.313 258.5,420.5C 253.489,420.666 248.489,420.499 243.5,420C 248.547,413.398 253.214,406.565 257.5,399.5 Z"/></g>
<g><path style="opacity:1" fill="#386c72" d="M 352.5,411.5 C 363.66,410.501 367.827,415.501 365,426.5C 358.914,433.345 353.247,433.012 348,425.5C 346.309,419.61 347.809,414.944 352.5,411.5 Z"/></g>
<g><path style="opacity:1" fill="#fdfefd" d="M 294.5,415.5 C 294.5,416.833 294.5,418.167 294.5,419.5C 289.167,419.5 283.833,419.5 278.5,419.5C 278.5,418.167 278.5,416.833 278.5,415.5C 283.833,415.5 289.167,415.5 294.5,415.5 Z"/></g>
<g><path style="opacity:1" fill="#366b71" d="M 422.5,415.5 C 426.514,415.334 430.514,415.501 434.5,416C 438.753,419.42 439.587,423.587 437,428.5C 432.11,431.784 426.944,432.284 421.5,430C 417.268,424.809 417.601,419.975 422.5,415.5 Z"/></g>
<g><path style="opacity:1" fill="#91adb1" d="M 294.5,415.5 C 289.167,415.5 283.833,415.5 278.5,415.5C 278.5,416.833 278.5,418.167 278.5,419.5C 283.833,419.5 289.167,419.5 294.5,419.5C 289.025,420.489 283.358,420.822 277.5,420.5C 277.5,418.5 277.5,416.5 277.5,414.5C 283.358,414.178 289.025,414.511 294.5,415.5 Z"/></g>
<g><path style="opacity:1" fill="#85a5a9" d="M 237.5,425.5 C 244.833,425.5 252.167,425.5 259.5,425.5C 259.5,428.833 259.5,432.167 259.5,435.5C 258.523,432.713 258.19,429.713 258.5,426.5C 251.313,426.825 244.313,426.491 237.5,425.5 Z"/></g>
<g><path style="opacity:1" fill="#0c4c53" d="M 753.5,587.5 C 753.5,612.5 753.5,637.5 753.5,662.5C 585.612,666.537 448.112,732.537 341,860.5C 242.841,987.469 207.175,1130.47 234,1289.5C 268.58,1453.63 358.747,1576.46 504.5,1658C 633.97,1724.48 768.636,1737.48 908.5,1697C 1056.43,1648.39 1164.6,1554.22 1233,1414.5C 1289.03,1289.28 1297.03,1160.95 1257,1029.5C 1207.72,884.556 1114.22,778.722 976.5,712C 907.392,680.058 834.725,663.891 758.5,663.5C 758.5,638.167 758.5,612.833 758.5,587.5C 928.446,591.587 1072.61,653.921 1191,774.5C 1316.02,910.564 1370.36,1071.23 1354,1256.5C 1330.7,1438.71 1244.86,1582.88 1096.5,1689C 954.297,1783.84 798.964,1815.17 630.5,1783C 473.494,1747.88 348.661,1665.05 256,1534.5C 163.163,1395.67 131.163,1243.67 160,1078.5C 196.495,904.217 289.662,769.717 439.5,675C 536.056,617.191 640.722,588.024 753.5,587.5 Z"/></g>
<g><path style="opacity:1" fill="#ea5c36" d="M 753.5,587.5 C 754.833,587.5 756.167,587.5 757.5,587.5C 757.5,612.5 757.5,637.5 757.5,662.5C 756.167,662.5 754.833,662.5 753.5,662.5C 753.5,637.5 753.5,612.5 753.5,587.5 Z"/></g>
<g><path style="opacity:1" fill="#af573e" d="M 757.5,587.5 C 757.833,587.5 758.167,587.5 758.5,587.5C 758.5,612.833 758.5,638.167 758.5,663.5C 756.585,663.784 754.919,663.451 753.5,662.5C 754.833,662.5 756.167,662.5 757.5,662.5C 757.5,637.5 757.5,612.5 757.5,587.5 Z"/></g>
<g><path style="opacity:1" fill="#00444b" d="M 753.5,662.5 C 754.919,663.451 756.585,663.784 758.5,663.5C 834.725,663.891 907.392,680.058 976.5,712C 1114.22,778.722 1207.72,884.556 1257,1029.5C 1297.03,1160.95 1289.03,1289.28 1233,1414.5C 1164.6,1554.22 1056.43,1648.39 908.5,1697C 768.636,1737.48 633.97,1724.48 504.5,1658C 358.747,1576.46 268.58,1453.63 234,1289.5C 207.175,1130.47 242.841,987.469 341,860.5C 448.112,732.537 585.612,666.537 753.5,662.5 Z"/></g>
<g><path style="opacity:1" fill="#e85b37" d="M 582.5,1088.5 C 615.564,1086.29 636.064,1101.29 644,1133.5C 649.448,1157.87 648.115,1181.87 640,1205.5C 625.457,1234.69 602.624,1244.19 571.5,1234C 558.843,1227.21 550.01,1217.04 545,1203.5C 536.404,1176.49 536.404,1149.49 545,1122.5C 552.06,1104.93 564.56,1093.6 582.5,1088.5 Z"/></g>
<g><path style="opacity:1" fill="#e85b37" d="M 702.5,1088.5 C 735.564,1086.29 756.064,1101.29 764,1133.5C 769.448,1157.87 768.115,1181.87 760,1205.5C 745.457,1234.69 722.624,1244.19 691.5,1234C 678.843,1227.21 670.01,1217.04 665,1203.5C 656.404,1176.49 656.404,1149.49 665,1122.5C 672.06,1104.93 684.56,1093.6 702.5,1088.5 Z"/></g>
<g><path style="opacity:1" fill="#e75b37" d="M 825.5,1088.5 C 849.435,1087.61 863.268,1098.94 867,1122.5C 867.557,1153.61 852.391,1167.78 821.5,1165C 807.891,1161.06 799.391,1152.22 796,1138.5C 790.77,1112.59 800.604,1095.92 825.5,1088.5 Z"/></g>
<g><path style="opacity:1" fill="#e85b37" d="M 919.5,1091.5 C 924.844,1091.33 930.177,1091.5 935.5,1092C 905.291,1139.58 874.958,1187.08 844.5,1234.5C 838.863,1235.66 833.196,1235.83 827.5,1235C 858.302,1187.22 888.969,1139.39 919.5,1091.5 Z"/></g>
<g><path style="opacity:1" fill="#06444a" d="M 824.5,1103.5 C 838.001,1101.33 846.835,1106.66 851,1119.5C 852.982,1129.74 850.815,1138.9 844.5,1147C 836.045,1152.54 827.378,1152.87 818.5,1148C 810.964,1139.57 808.464,1129.73 811,1118.5C 813.29,1111.38 817.79,1106.38 824.5,1103.5 Z"/></g>
<g><path style="opacity:1" fill="#04444a" d="M 585.5,1105.5 C 606.621,1104.1 619.787,1113.77 625,1134.5C 631.004,1158.43 629.338,1181.76 620,1204.5C 608.638,1221.64 593.804,1225.47 575.5,1216C 564.692,1205.54 558.859,1192.71 558,1177.5C 554.522,1155.77 558.188,1135.44 569,1116.5C 573.632,1111.34 579.132,1107.67 585.5,1105.5 Z"/></g>
<g><path style="opacity:1" fill="#04444a" d="M 705.5,1105.5 C 726.621,1104.1 739.787,1113.77 745,1134.5C 751.004,1158.43 749.338,1181.76 740,1204.5C 728.638,1221.64 713.804,1225.47 695.5,1216C 684.692,1205.54 678.859,1192.71 678,1177.5C 674.522,1155.77 678.188,1135.44 689,1116.5C 693.632,1111.34 699.132,1107.67 705.5,1105.5 Z"/></g>
<g><path style="opacity:1" fill="#e75b37" d="M 925.5,1160.5 C 949.064,1158.92 963.231,1169.58 968,1192.5C 970.068,1208.65 964.902,1221.81 952.5,1232C 933.735,1241.67 917.235,1238.83 903,1223.5C 893.972,1208.54 893.305,1193.21 901,1177.5C 906.971,1168.45 915.138,1162.78 925.5,1160.5 Z"/></g>
<g><path style="opacity:1" fill="#07444a" d="M 926.5,1174.5 C 939.883,1173.09 948.383,1178.76 952,1191.5C 953.942,1201.21 952.108,1210.04 946.5,1218C 934.978,1226.26 924.478,1225.09 915,1214.5C 911.195,1205.76 910.528,1196.76 913,1187.5C 916.076,1181.59 920.576,1177.26 926.5,1174.5 Z"/></g>
<g><path style="opacity:1" fill="#c5d4d6" d="M 551.5,1292.5 C 553.792,1292.24 555.959,1292.58 558,1293.5C 563.465,1307.42 568.632,1321.42 573.5,1335.5C 571.5,1335.5 569.5,1335.5 567.5,1335.5C 566.863,1331.42 565.53,1327.59 563.5,1324C 557.5,1323.33 551.5,1323.33 545.5,1324C 543.809,1327.4 542.309,1330.9 541,1334.5C 539.301,1335.41 537.467,1335.74 535.5,1335.5C 540.438,1321.02 545.771,1306.69 551.5,1292.5 Z"/></g>
<g><path style="opacity:1" fill="#b3c7ca" d="M 580.5,1292.5 C 582.5,1292.5 584.5,1292.5 586.5,1292.5C 586.5,1306.83 586.5,1321.17 586.5,1335.5C 584.5,1335.5 582.5,1335.5 580.5,1335.5C 580.5,1321.17 580.5,1306.83 580.5,1292.5 Z"/></g>
<g><path style="opacity:1" fill="#b3c7ca" d="M 595.5,1292.5 C 597.5,1292.5 599.5,1292.5 601.5,1292.5C 601.5,1306.83 601.5,1321.17 601.5,1335.5C 599.5,1335.5 597.5,1335.5 595.5,1335.5C 595.5,1321.17 595.5,1306.83 595.5,1292.5 Z"/></g>
<g><path style="opacity:1" fill="#bfd0d2" d="M 967.5,1292.5 C 969.5,1292.5 971.5,1292.5 973.5,1292.5C 973.5,1306.83 973.5,1321.17 973.5,1335.5C 971.5,1335.5 969.5,1335.5 967.5,1335.5C 967.649,1334.45 967.483,1333.45 967,1332.5C 958.594,1338.71 951.594,1337.38 946,1328.5C 942.569,1319.28 944.403,1311.45 951.5,1305C 957.209,1302.53 962.375,1303.36 967,1307.5C 967.499,1302.51 967.666,1297.51 967.5,1292.5 Z"/></g>
<g><path style="opacity:1" fill="#09484f" d="M 553.5,1300.5 C 555.136,1301.75 556.303,1303.42 557,1305.5C 558.222,1309.61 559.722,1313.61 561.5,1317.5C 556.88,1318.49 552.214,1318.83 547.5,1318.5C 549.493,1312.51 551.493,1306.51 553.5,1300.5 Z"/></g>
<g><path style="opacity:1" fill="#c3d3d5" d="M 887.5,1303.5 C 893.711,1302.51 898.711,1304.34 902.5,1309C 901.902,1310.3 900.902,1311.13 899.5,1311.5C 894.812,1308.03 889.979,1307.7 885,1310.5C 884.28,1312.11 884.446,1313.61 885.5,1315C 889.622,1316.96 893.955,1318.29 898.5,1319C 903.738,1322.27 904.904,1326.77 902,1332.5C 896.681,1336.64 890.848,1337.48 884.5,1335C 878.519,1332.99 877.686,1330.16 882,1326.5C 886.526,1331.82 891.859,1332.82 898,1329.5C 898.743,1327.56 898.576,1325.73 897.5,1324C 890.689,1323.62 884.856,1321.12 880,1316.5C 878.409,1309.67 880.909,1305.34 887.5,1303.5 Z"/></g>
<g><path style="opacity:1" fill="#c2d2d4" d="M 619.5,1303.5 C 633.988,1303.16 640.155,1310.16 638,1324.5C 636.87,1330.96 633.036,1334.8 626.5,1336C 617.579,1337.11 611.746,1333.27 609,1324.5C 607.262,1314.64 610.762,1307.64 619.5,1303.5 Z"/></g>
<g><path style="opacity:1" fill="#c5d4d6" d="M 642.5,1304.5 C 644.5,1304.5 646.5,1304.5 648.5,1304.5C 650.558,1312.51 652.725,1320.51 655,1328.5C 657.603,1320.86 660.103,1313.19 662.5,1305.5C 664.695,1304.23 666.861,1304.23 669,1305.5C 671.132,1312.89 673.465,1320.23 676,1327.5C 678.92,1320.41 681.253,1313.07 683,1305.5C 684.699,1304.59 686.533,1304.26 688.5,1304.5C 685.347,1314.78 682.347,1325.11 679.5,1335.5C 677.5,1335.5 675.5,1335.5 673.5,1335.5C 671.309,1327.43 668.809,1319.43 666,1311.5C 662.882,1319.02 660.048,1326.68 657.5,1334.5C 655.604,1335.47 653.604,1335.8 651.5,1335.5C 649.11,1325 646.11,1314.66 642.5,1304.5 Z"/></g>
<g><path style="opacity:1" fill="#c3d3d5" d="M 701.5,1303.5 C 706.951,1302.78 711.785,1304.11 716,1307.5C 716.667,1308.83 717.333,1310.17 718,1311.5C 718.5,1319.49 718.666,1327.49 718.5,1335.5C 716.833,1335.5 715.167,1335.5 713.5,1335.5C 713.649,1334.45 713.483,1333.45 713,1332.5C 708.405,1336.68 703.239,1337.51 697.5,1335C 693.741,1331.26 692.574,1326.76 694,1321.5C 695.214,1319.95 696.714,1318.78 698.5,1318C 703.401,1316.67 708.401,1316.17 713.5,1316.5C 712.748,1309.27 708.748,1306.77 701.5,1309C 699.751,1312.53 697.584,1313.03 695,1310.5C 694.333,1309.83 694.333,1309.17 695,1308.5C 696.965,1306.45 699.132,1304.78 701.5,1303.5 Z"/></g>
<g><path style="opacity:1" fill="#c4d4d6" d="M 739.5,1303.5 C 745.448,1302.53 749.948,1304.53 753,1309.5C 753.5,1318.16 753.666,1326.83 753.5,1335.5C 751.833,1335.5 750.167,1335.5 748.5,1335.5C 748.666,1327.49 748.5,1319.49 748,1311.5C 744.627,1308.11 740.794,1307.61 736.5,1310C 735.299,1310.9 734.465,1312.07 734,1313.5C 733.5,1320.83 733.334,1328.16 733.5,1335.5C 731.833,1335.5 730.167,1335.5 728.5,1335.5C 728.5,1325.17 728.5,1314.83 728.5,1304.5C 730.167,1304.5 731.833,1304.5 733.5,1304.5C 733.351,1305.55 733.517,1306.55 734,1307.5C 735.5,1305.53 737.333,1304.2 739.5,1303.5 Z"/></g>
<g><path style="opacity:1" fill="#c0d0d3" d="M 771.5,1303.5 C 778.611,1302.53 784.277,1304.87 788.5,1310.5C 787.562,1311.55 786.395,1312.22 785,1312.5C 777.697,1306.35 771.697,1307.35 767,1315.5C 765.491,1321.28 766.991,1326.12 771.5,1330C 776.881,1332.66 781.215,1331.49 784.5,1326.5C 786.997,1326.94 788.163,1328.27 788,1330.5C 782.096,1336.97 775.262,1338.14 767.5,1334C 760.576,1326.08 759.743,1317.58 765,1308.5C 767.326,1306.93 769.492,1305.27 771.5,1303.5 Z"/></g>
<g><path style="opacity:1" fill="#c4d3d5" d="M 804.5,1303.5 C 816.833,1303.17 822.833,1309.17 822.5,1321.5C 814.833,1321.5 807.167,1321.5 799.5,1321.5C 800.279,1329.44 804.612,1332.61 812.5,1331C 814.869,1330.46 816.869,1329.3 818.5,1327.5C 822.022,1329.77 821.689,1331.93 817.5,1334C 806.428,1338.86 798.595,1335.7 794,1324.5C 792.5,1314.75 796,1307.75 804.5,1303.5 Z"/></g>
<g><path style="opacity:1" fill="#c5d5d7" d="M 845.5,1304.5 C 847.167,1304.5 848.833,1304.5 850.5,1304.5C 850.334,1312.51 850.5,1320.51 851,1328.5C 854.373,1331.89 858.206,1332.39 862.5,1330C 863.211,1328.75 864.044,1327.58 865,1326.5C 865.5,1319.17 865.666,1311.84 865.5,1304.5C 867.167,1304.5 868.833,1304.5 870.5,1304.5C 870.5,1314.83 870.5,1325.17 870.5,1335.5C 868.833,1335.5 867.167,1335.5 865.5,1335.5C 865.649,1334.45 865.483,1333.45 865,1332.5C 859,1337.83 853,1337.83 847,1332.5C 845.583,1323.25 845.083,1313.91 845.5,1304.5 Z"/></g>
<g><path style="opacity:1" fill="#c4d4d6" d="M 919.5,1303.5 C 932.346,1302.68 938.68,1308.68 938.5,1321.5C 930.5,1321.5 922.5,1321.5 914.5,1321.5C 915.567,1329.87 920.234,1333.04 928.5,1331C 930.305,1330.03 931.972,1328.86 933.5,1327.5C 935.002,1328.08 936.335,1328.92 937.5,1330C 929.776,1337.87 921.609,1338.37 913,1331.5C 906.648,1319.99 908.815,1310.65 919.5,1303.5 Z"/></g>
<g><path style="opacity:1" fill="#04464d" d="M 619.5,1308.5 C 630.726,1307.89 635.226,1313.22 633,1324.5C 629.904,1330.97 625.071,1332.8 618.5,1330C 614.757,1325.52 613.591,1320.35 615,1314.5C 616.332,1312.34 617.832,1310.34 619.5,1308.5 Z"/></g>
<g><path style="opacity:1" fill="#0c4b51" d="M 804.5,1308.5 C 811.863,1307.2 816.196,1310.2 817.5,1317.5C 811.5,1317.5 805.5,1317.5 799.5,1317.5C 799.891,1313.78 801.558,1310.78 804.5,1308.5 Z"/></g>
<g><path style="opacity:1" fill="#0d4b52" d="M 919.5,1308.5 C 927.291,1306.87 931.624,1309.87 932.5,1317.5C 926.833,1317.5 921.167,1317.5 915.5,1317.5C 915.482,1313.87 916.816,1310.87 919.5,1308.5 Z"/></g>
<g><path style="opacity:1" fill="#06474e" d="M 954.5,1308.5 C 966.091,1308.6 970.257,1314.27 967,1325.5C 961.333,1333.5 955.667,1333.5 950,1325.5C 948.378,1318.89 949.878,1313.22 954.5,1308.5 Z"/></g>
<g><path style="opacity:1" fill="#0c4a51" d="M 703.5,1320.5 C 706.833,1320.5 710.167,1320.5 713.5,1320.5C 713.156,1329.01 708.823,1332.51 700.5,1331C 697.216,1326.16 698.216,1322.66 703.5,1320.5 Z"/></g>
<g><path style="opacity:1" fill="#84a4a8" d="M 150.5,1919.5 C 552.5,1919.33 954.5,1919.5 1356.5,1920C 1358.67,1920.83 1360.17,1922.33 1361,1924.5C 1361.67,1998.5 1361.67,2072.5 1361,2146.5C 1360.07,2149.1 1358.23,2150.6 1355.5,2151C 953.833,2151.67 552.167,2151.67 150.5,2151C 147.898,2150.07 146.398,2148.23 146,2145.5C 145.333,2071.83 145.333,1998.17 146,1924.5C 147.025,1922.31 148.525,1920.65 150.5,1919.5 Z"/></g>
<g><path style="opacity:1" fill="#00444b" d="M 153.5,1927.5 C 553.5,1927.5 953.5,1927.5 1353.5,1927.5C 1353.5,1999.5 1353.5,2071.5 1353.5,2143.5C 953.5,2143.5 553.5,2143.5 153.5,2143.5C 153.5,2071.5 153.5,1999.5 153.5,1927.5 Z"/></g>
<g><path style="opacity:1" fill="#edf2f2" d="M 439.5,2007.5 C 448.173,2007.33 456.84,2007.5 465.5,2008C 466,2008.5 466.5,2009 467,2009.5C 467.5,2018.16 467.666,2026.83 467.5,2035.5C 464.833,2035.5 462.167,2035.5 459.5,2035.5C 459.666,2031.49 459.499,2027.49 459,2023.5C 448.833,2033.67 438.667,2043.83 428.5,2054C 427.5,2054.67 426.5,2054.67 425.5,2054C 420.319,2048.65 414.985,2043.48 409.5,2038.5C 404.806,2044.38 399.472,2049.21 393.5,2053C 391.833,2051.33 390.167,2049.67 388.5,2048C 395.348,2040.99 402.348,2034.15 409.5,2027.5C 414.985,2032.48 420.319,2037.65 425.5,2043C 426.167,2043.67 426.833,2043.67 427.5,2043C 436.5,2034 445.5,2025 454.5,2016C 449.511,2015.5 444.511,2015.33 439.5,2015.5C 439.5,2012.83 439.5,2010.17 439.5,2007.5 Z"/></g>
<g><path style="opacity:1" fill="#eff4f4" d="M 520.5,2026.5 C 520.631,2025.62 520.298,2024.96 519.5,2024.5C 518.501,2036.15 518.168,2047.81 518.5,2059.5C 516.833,2059.5 515.167,2059.5 513.5,2059.5C 513.5,2044.17 513.5,2028.83 513.5,2013.5C 516.167,2013.5 518.833,2013.5 521.5,2013.5C 526.036,2026.25 530.869,2038.91 536,2051.5C 540.833,2039.17 545.667,2026.83 550.5,2014.5C 553.086,2013.52 555.753,2013.19 558.5,2013.5C 558.5,2028.83 558.5,2044.17 558.5,2059.5C 556.5,2059.5 554.5,2059.5 552.5,2059.5C 552.667,2048.16 552.5,2036.83 552,2025.5C 547.535,2036.76 543.368,2048.09 539.5,2059.5C 537.076,2059.81 534.743,2059.47 532.5,2058.5C 528.487,2047.81 524.487,2037.15 520.5,2026.5 Z"/></g>
<g><path style="opacity:1" fill="#e4ebec" d="M 630.5,2013.5 C 632.5,2013.5 634.5,2013.5 636.5,2013.5C 636.5,2028.83 636.5,2044.17 636.5,2059.5C 634.5,2059.5 632.5,2059.5 630.5,2059.5C 630.657,2058.13 630.49,2056.79 630,2055.5C 621.215,2062.91 613.548,2061.91 607,2052.5C 602.215,2041.53 604.715,2032.7 614.5,2026C 617.833,2025.33 621.167,2025.33 624.5,2026C 627.057,2026.69 628.891,2028.19 630,2030.5C 630.499,2024.84 630.666,2019.18 630.5,2013.5 Z"/></g>
<g><path style="opacity:1" fill="#e2eaeb" d="M 682.5,2013.5 C 684.5,2013.5 686.5,2013.5 688.5,2013.5C 688.5,2028.83 688.5,2044.17 688.5,2059.5C 686.5,2059.5 684.5,2059.5 682.5,2059.5C 682.5,2044.17 682.5,2028.83 682.5,2013.5 Z"/></g>
<g><path style="opacity:1" fill="#e7eeee" d="M 922.5,2013.5 C 924.5,2013.5 926.5,2013.5 928.5,2013.5C 928.5,2015.5 928.5,2017.5 928.5,2019.5C 926.5,2019.5 924.5,2019.5 922.5,2019.5C 922.5,2017.5 922.5,2015.5 922.5,2013.5 Z"/></g>
<g><path style="opacity:1" fill="#edf2f2" d="M 938.5,2013.5 C 940.167,2013.5 941.833,2013.5 943.5,2013.5C 943.334,2018.84 943.501,2024.18 944,2029.5C 949.28,2025.24 955.114,2024.41 961.5,2027C 966.692,2030.88 969.026,2036.05 968.5,2042.5C 968.829,2055.01 962.829,2060.84 950.5,2060C 947.898,2059.12 945.731,2057.62 944,2055.5C 943.51,2056.79 943.343,2058.13 943.5,2059.5C 941.833,2059.5 940.167,2059.5 938.5,2059.5C 938.5,2044.17 938.5,2028.83 938.5,2013.5 Z"/></g>
<g><path style="opacity:1" fill="#f0f4f4" d="M 1037.5,2013.5 C 1039.5,2013.5 1041.5,2013.5 1043.5,2013.5C 1043.5,2015.5 1043.5,2017.5 1043.5,2019.5C 1041.5,2019.5 1039.5,2019.5 1037.5,2019.5C 1037.5,2017.5 1037.5,2015.5 1037.5,2013.5 Z"/></g>
<g><path style="opacity:1" fill="#ecf1f2" d="M 889.5,2026.5 C 889.5,2027.83 889.5,2029.17 889.5,2030.5C 886.5,2030.5 883.5,2030.5 880.5,2030.5C 880.175,2038.02 880.508,2045.35 881.5,2052.5C 881.414,2053.5 881.748,2054.33 882.5,2055C 884.5,2055.33 886.5,2055.67 888.5,2056C 889.022,2056.56 889.355,2057.23 889.5,2058C 885.303,2061.36 881.137,2061.19 877,2057.5C 875.559,2048.94 875.059,2040.28 875.5,2031.5C 874.432,2030.57 873.099,2030.23 871.5,2030.5C 871.5,2029.17 871.5,2027.83 871.5,2026.5C 873.167,2026.5 874.833,2026.5 876.5,2026.5C 876.5,2023.5 876.5,2020.5 876.5,2017.5C 877.833,2017.5 879.167,2017.5 880.5,2017.5C 880.5,2020.5 880.5,2023.5 880.5,2026.5C 883.5,2026.5 886.5,2026.5 889.5,2026.5 Z"/></g>
<g><path style="opacity:1" fill="#84a5a8" d="M 889.5,2026.5 C 886.5,2026.5 883.5,2026.5 880.5,2026.5C 880.5,2023.5 880.5,2020.5 880.5,2017.5C 879.167,2017.5 877.833,2017.5 876.5,2017.5C 876.5,2020.5 876.5,2023.5 876.5,2026.5C 874.833,2026.5 873.167,2026.5 871.5,2026.5C 871.5,2027.83 871.5,2029.17 871.5,2030.5C 873.099,2030.23 874.432,2030.57 875.5,2031.5C 873.833,2031.5 872.167,2031.5 870.5,2031.5C 870.5,2029.5 870.5,2027.5 870.5,2025.5C 872.167,2025.5 873.833,2025.5 875.5,2025.5C 875.5,2022.5 875.5,2019.5 875.5,2016.5C 877.5,2016.5 879.5,2016.5 881.5,2016.5C 881.5,2019.5 881.5,2022.5 881.5,2025.5C 884.385,2025.19 887.052,2025.53 889.5,2026.5 Z"/></g>
<g><path style="opacity:1" fill="#eff3f3" d="M 1016.5,2053.5 C 1016.5,2045.83 1016.5,2038.17 1016.5,2030.5C 1014.83,2030.5 1013.17,2030.5 1011.5,2030.5C 1011.5,2029.17 1011.5,2027.83 1011.5,2026.5C 1013.17,2026.5 1014.83,2026.5 1016.5,2026.5C 1016.5,2023.5 1016.5,2020.5 1016.5,2017.5C 1018.17,2017.5 1019.83,2017.5 1021.5,2017.5C 1021.5,2020.5 1021.5,2023.5 1021.5,2026.5C 1024.5,2026.5 1027.5,2026.5 1030.5,2026.5C 1030.5,2027.83 1030.5,2029.17 1030.5,2030.5C 1027.5,2030.5 1024.5,2030.5 1021.5,2030.5C 1021.33,2038.17 1021.5,2045.84 1022,2053.5C 1024.17,2055.12 1026.67,2055.95 1029.5,2056C 1030.34,2057.01 1030.67,2058.18 1030.5,2059.5C 1025.67,2061.43 1021.34,2060.76 1017.5,2057.5C 1016.75,2056.26 1016.42,2054.93 1016.5,2053.5 Z"/></g>
<g><path style="opacity:1" fill="#98b4b6" d="M 520.5,2026.5 C 519.833,2037.5 519.167,2048.5 518.5,2059.5C 518.168,2047.81 518.501,2036.15 519.5,2024.5C 520.298,2024.96 520.631,2025.62 520.5,2026.5 Z"/></g>
<g><path style="opacity:1" fill="#e9efef" d="M 577.5,2025.5 C 592.793,2024.29 599.96,2031.29 599,2046.5C 596.299,2057.11 589.466,2061.61 578.5,2060C 572.902,2058.07 569.402,2054.24 568,2048.5C 565.461,2038.25 568.627,2030.58 577.5,2025.5 Z"/></g>
<g><path style="opacity:1" fill="#ebf1f1" d="M 654.5,2025.5 C 668.148,2024.48 675.148,2030.81 675.5,2044.5C 666.833,2044.5 658.167,2044.5 649.5,2044.5C 650.794,2053.29 655.794,2056.79 664.5,2055C 666.609,2053.86 668.442,2052.36 670,2050.5C 671.074,2051.62 672.24,2052.62 673.5,2053.5C 670.064,2058.57 665.231,2060.9 659,2060.5C 651.306,2059.99 646.64,2055.99 645,2048.5C 642.461,2038.25 645.627,2030.58 654.5,2025.5 Z"/></g>
<g><path style="opacity:1" fill="#e7eeee" d="M 720.5,2025.5 C 725.777,2024.93 730.777,2025.76 735.5,2028C 736.211,2029.25 737.044,2030.42 738,2031.5C 739.417,2040.75 739.917,2050.09 739.5,2059.5C 737.5,2059.5 735.5,2059.5 733.5,2059.5C 733.649,2058.45 733.483,2057.45 733,2056.5C 726.635,2061.75 720.302,2061.75 714,2056.5C 711.651,2051.31 712.151,2046.48 715.5,2042C 721.268,2039.77 727.268,2038.94 733.5,2039.5C 733.435,2031.61 729.435,2028.77 721.5,2031C 718.258,2035.57 715.758,2035.4 714,2030.5C 716.326,2028.93 718.492,2027.27 720.5,2025.5 Z"/></g>
<g><path style="opacity:1" fill="#e7eeee" d="M 773.5,2025.5 C 781.084,2023.96 787.084,2026.3 791.5,2032.5C 790.086,2033.62 788.586,2034.62 787,2035.5C 782.285,2029.78 776.952,2029.11 771,2033.5C 767.066,2041.01 767.899,2047.84 773.5,2054C 776.03,2055.42 778.697,2055.75 781.5,2055C 783.677,2053.49 785.844,2051.99 788,2050.5C 792.11,2051.96 792.277,2054.13 788.5,2057C 776.946,2063.37 768.446,2060.54 763,2048.5C 760.605,2037.96 764.105,2030.3 773.5,2025.5 Z"/></g>
<g><path style="opacity:1" fill="#ebf0f1" d="M 807.5,2025.5 C 824.495,2024.67 831.329,2032.67 828,2049.5C 822.279,2061.04 813.779,2063.54 802.5,2057C 797.734,2050.62 796.234,2043.45 798,2035.5C 800.022,2030.98 803.189,2027.65 807.5,2025.5 Z"/></g>
<g><path style="opacity:1" fill="#e8efef" d="M 837.5,2059.5 C 837.5,2048.5 837.5,2037.5 837.5,2026.5C 839.167,2026.5 840.833,2026.5 842.5,2026.5C 842.443,2030.13 843.443,2030.3 845.5,2027C 851.301,2024.65 856.801,2025.15 862,2028.5C 862.667,2029.83 863.333,2031.17 864,2032.5C 864.5,2041.49 864.666,2050.49 864.5,2059.5C 862.5,2059.5 860.5,2059.5 858.5,2059.5C 858.666,2050.83 858.5,2042.16 858,2033.5C 851.897,2028.81 846.897,2029.81 843,2036.5C 842.5,2044.16 842.334,2051.83 842.5,2059.5C 840.833,2059.5 839.167,2059.5 837.5,2059.5 Z"/></g>
<g><path style="opacity:1" fill="#e9efef" d="M 908.5,2025.5 C 911.247,2025.19 913.914,2025.52 916.5,2026.5C 915.754,2027.74 915.421,2029.07 915.5,2030.5C 910.023,2030.15 906.19,2032.48 904,2037.5C 903.5,2044.83 903.334,2052.16 903.5,2059.5C 901.5,2059.5 899.5,2059.5 897.5,2059.5C 897.5,2048.5 897.5,2037.5 897.5,2026.5C 899.167,2026.5 900.833,2026.5 902.5,2026.5C 902.34,2028.2 902.506,2029.87 903,2031.5C 904.36,2028.98 906.193,2026.98 908.5,2025.5 Z"/></g>
<g><path style="opacity:1" fill="#e9efef" d="M 1061.5,2025.5 C 1081.75,2025.99 1087.92,2035.65 1080,2054.5C 1071.01,2062.79 1062.34,2062.45 1054,2053.5C 1048.66,2041.82 1051.16,2032.48 1061.5,2025.5 Z"/></g>
<g><path style="opacity:1" fill="#f1f5f5" d="M 1102.5,2025.5 C 1105.85,2025.33 1109.18,2025.5 1112.5,2026C 1115,2027.17 1116.83,2029 1118,2031.5C 1118.5,2040.83 1118.67,2050.16 1118.5,2059.5C 1116.83,2059.5 1115.17,2059.5 1113.5,2059.5C 1113.67,2051.16 1113.5,2042.83 1113,2034.5C 1111.61,2031.63 1109.27,2030.3 1106,2030.5C 1101.27,2030.57 1098.27,2032.9 1097,2037.5C 1096.5,2044.83 1096.33,2052.16 1096.5,2059.5C 1094.83,2059.5 1093.17,2059.5 1091.5,2059.5C 1091.5,2048.5 1091.5,2037.5 1091.5,2026.5C 1093.17,2026.5 1094.83,2026.5 1096.5,2026.5C 1096.28,2027.68 1096.61,2028.68 1097.5,2029.5C 1099.21,2028.11 1100.88,2026.78 1102.5,2025.5 Z"/></g>
<g><path style="opacity:1" fill="#749a9d" d="M 842.5,2026.5 C 840.833,2026.5 839.167,2026.5 837.5,2026.5C 837.5,2037.5 837.5,2048.5 837.5,2059.5C 836.505,2048.35 836.172,2037.01 836.5,2025.5C 838.735,2025.21 840.735,2025.54 842.5,2026.5 Z"/></g>
<g><path style="opacity:1" fill="#f4f8f7" d="M 922.5,2026.5 C 924.167,2026.5 925.833,2026.5 927.5,2026.5C 927.5,2037.5 927.5,2048.5 927.5,2059.5C 925.833,2059.5 924.167,2059.5 922.5,2059.5C 922.5,2048.5 922.5,2037.5 922.5,2026.5 Z"/></g>
<g><path style="opacity:1" fill="#98b3b6" d="M 982.5,2048.5 C 981.508,2041.35 981.175,2034.02 981.5,2026.5C 980.167,2026.5 978.833,2026.5 977.5,2026.5C 977.5,2035.17 977.5,2043.83 977.5,2052.5C 976.507,2043.68 976.173,2034.68 976.5,2025.5C 978.5,2025.5 980.5,2025.5 982.5,2025.5C 982.5,2033.17 982.5,2040.83 982.5,2048.5 Z"/></g>
<g><path style="opacity:1" fill="#e8eeee" d="M 982.5,2048.5 C 982.974,2054.08 985.974,2056.24 991.5,2055C 993.848,2054.65 995.681,2053.49 997,2051.5C 998.438,2043.28 998.938,2034.94 998.5,2026.5C 1000.5,2026.5 1002.5,2026.5 1004.5,2026.5C 1004.5,2037.5 1004.5,2048.5 1004.5,2059.5C 1002.5,2059.5 1000.5,2059.5 998.5,2059.5C 998.649,2058.45 998.483,2057.45 998,2056.5C 991.635,2061.75 985.302,2061.75 979,2056.5C 978.209,2055.26 977.709,2053.92 977.5,2052.5C 977.5,2043.83 977.5,2035.17 977.5,2026.5C 978.833,2026.5 980.167,2026.5 981.5,2026.5C 981.175,2034.02 981.508,2041.35 982.5,2048.5 Z"/></g>
<g><path style="opacity:1" fill="#749a9d" d="M 1043.5,2026.5 C 1041.83,2026.5 1040.17,2026.5 1038.5,2026.5C 1038.5,2037.5 1038.5,2048.5 1038.5,2059.5C 1037.51,2048.35 1037.17,2037.01 1037.5,2025.5C 1039.74,2025.21 1041.74,2025.54 1043.5,2026.5 Z"/></g>
<g><path style="opacity:1" fill="#eff4f4" d="M 1043.5,2026.5 C 1043.5,2037.5 1043.5,2048.5 1043.5,2059.5C 1041.83,2059.5 1040.17,2059.5 1038.5,2059.5C 1038.5,2048.5 1038.5,2037.5 1038.5,2026.5C 1040.17,2026.5 1041.83,2026.5 1043.5,2026.5 Z"/></g>
<g><path style="opacity:1" fill="#08484f" d="M 579.5,2030.5 C 590.793,2030.64 595.293,2036.3 593,2047.5C 589.627,2055.7 584.127,2057.53 576.5,2053C 570.556,2044.45 571.556,2036.95 579.5,2030.5 Z"/></g>
<g><path style="opacity:1" fill="#07474e" d="M 616.5,2030.5 C 629.444,2031.35 633.611,2038.02 629,2050.5C 621.641,2057.83 615.641,2056.83 611,2047.5C 610.333,2044.17 610.333,2040.83 611,2037.5C 612.666,2035 614.5,2032.67 616.5,2030.5 Z"/></g>
<g><path style="opacity:1" fill="#05464d" d="M 668.5,2037.5 C 665.913,2038.82 662.913,2039.48 659.5,2039.5C 656.087,2039.48 653.087,2038.82 650.5,2037.5C 653.598,2030.31 658.598,2028.65 665.5,2032.5C 666.952,2033.94 667.952,2035.61 668.5,2037.5 Z"/></g>
<g><path style="opacity:1" fill="#09484f" d="M 808.5,2030.5 C 821.29,2030.71 825.79,2037.04 822,2049.5C 818.469,2055.18 813.635,2056.68 807.5,2054C 800.648,2045.84 800.981,2038.01 808.5,2030.5 Z"/></g>
<g><path style="opacity:1" fill="#06474e" d="M 949.5,2030.5 C 962.097,2031.03 966.264,2037.36 962,2049.5C 958.96,2055.37 954.46,2056.87 948.5,2054C 941.51,2045.78 941.843,2037.94 949.5,2030.5 Z"/></g>
<g><path style="opacity:1" fill="#05464d" d="M 1063.5,2030.5 C 1069.82,2029.57 1074.32,2031.91 1077,2037.5C 1079.14,2045.08 1076.98,2050.92 1070.5,2055C 1064.65,2056.16 1060.48,2053.99 1058,2048.5C 1055.91,2041.04 1057.74,2035.04 1063.5,2030.5 Z"/></g>
<g><path style="opacity:1" fill="#8eacaf" d="M 889.5,2030.5 C 887.052,2031.47 884.385,2031.81 881.5,2031.5C 881.5,2038.5 881.5,2045.5 881.5,2052.5C 880.508,2045.35 880.175,2038.02 880.5,2030.5C 883.5,2030.5 886.5,2030.5 889.5,2030.5 Z"/></g>
<g><path style="opacity:1" fill="#5c888c" d="M 1011.5,2030.5 C 1013.17,2030.5 1014.83,2030.5 1016.5,2030.5C 1016.5,2038.17 1016.5,2045.83 1016.5,2053.5C 1015.51,2046.35 1015.18,2039.02 1015.5,2031.5C 1013.9,2031.77 1012.57,2031.43 1011.5,2030.5 Z"/></g>
<g><path style="opacity:1" fill="#7ea1a4" d="M 650.5,2037.5 C 653.087,2038.82 656.087,2039.48 659.5,2039.5C 662.913,2039.48 665.913,2038.82 668.5,2037.5C 669.404,2038.21 669.737,2039.21 669.5,2040.5C 662.833,2040.5 656.167,2040.5 649.5,2040.5C 649.263,2039.21 649.596,2038.21 650.5,2037.5 Z"/></g>
<g><path style="opacity:1" fill="#0b4950" d="M 723.5,2043.5 C 726.833,2043.5 730.167,2043.5 733.5,2043.5C 733.74,2052.42 729.406,2056.26 720.5,2055C 715.983,2049.76 716.983,2045.92 723.5,2043.5 Z"/></g>
<g><path style="opacity:1" fill="#fefefe" d="M 7.5,2275.5 C 504.833,2275.5 1002.17,2275.5 1499.5,2275.5C 1499.5,2530.17 1499.5,2784.83 1499.5,3039.5C 1002.17,3039.5 504.833,3039.5 7.5,3039.5C 7.5,2784.83 7.5,2530.17 7.5,2275.5 Z"/></g>
<g><path style="opacity:1" fill="#4e4e4e" d="M 74.5,2435.5 C 83.5679,2435.12 92.5679,2435.62 101.5,2437C 105.333,2438.17 107.833,2440.67 109,2444.5C 110.393,2450.92 109.227,2456.76 105.5,2462C 103.336,2462.91 101.336,2464.08 99.5,2465.5C 102.912,2472.66 106.578,2479.66 110.5,2486.5C 107.966,2487.78 105.466,2487.78 103,2486.5C 99.7549,2479.68 96.2549,2473.01 92.5,2466.5C 88.5546,2465.51 84.5546,2465.18 80.5,2465.5C 80.5,2472.83 80.5,2480.17 80.5,2487.5C 78.5,2487.5 76.5,2487.5 74.5,2487.5C 74.5,2470.17 74.5,2452.83 74.5,2435.5 Z"/></g>
<g><path style="opacity:1" fill="#525252" d="M 606.5,2435.5 C 608.833,2435.5 611.167,2435.5 613.5,2435.5C 613.5,2437.83 613.5,2440.17 613.5,2442.5C 611.167,2442.5 608.833,2442.5 606.5,2442.5C 606.5,2440.17 606.5,2437.83 606.5,2435.5 Z"/></g>
<g><path style="opacity:1" fill="#a3a3a3" d="M 291.5,2449.5 C 290.523,2446.71 290.19,2443.71 290.5,2440.5C 288.833,2440.5 287.167,2440.5 285.5,2440.5C 285.5,2443.83 285.5,2447.17 285.5,2450.5C 283.5,2450.5 281.5,2450.5 279.5,2450.5C 280.919,2449.55 282.585,2449.22 284.5,2449.5C 284.5,2446.17 284.5,2442.83 284.5,2439.5C 286.833,2439.5 289.167,2439.5 291.5,2439.5C 291.5,2442.83 291.5,2446.17 291.5,2449.5 Z"/></g>
<g><path style="opacity:1" fill="#505050" d="M 291.5,2449.5 C 294.287,2450.48 297.287,2450.81 300.5,2450.5C 300.5,2452.17 300.5,2453.83 300.5,2455.5C 297.5,2455.5 294.5,2455.5 291.5,2455.5C 291.334,2464.17 291.5,2472.84 292,2481.5C 294.719,2482.44 297.552,2482.78 300.5,2482.5C 300.859,2484.77 300.192,2486.6 298.5,2488C 294.171,2489.15 290.338,2488.32 287,2485.5C 285.551,2475.61 285.051,2465.61 285.5,2455.5C 283.5,2455.5 281.5,2455.5 279.5,2455.5C 279.5,2453.83 279.5,2452.17 279.5,2450.5C 281.5,2450.5 283.5,2450.5 285.5,2450.5C 285.5,2447.17 285.5,2443.83 285.5,2440.5C 287.167,2440.5 288.833,2440.5 290.5,2440.5C 290.19,2443.71 290.523,2446.71 291.5,2449.5 Z"/></g>
<g><path style="opacity:1" fill="#505050" d="M 345.5,2450.5 C 345.5,2452.17 345.5,2453.83 345.5,2455.5C 342.167,2455.5 338.833,2455.5 335.5,2455.5C 335.334,2463.84 335.5,2472.17 336,2480.5C 338.48,2482.17 341.313,2483 344.5,2483C 345.996,2487.31 344.329,2489.14 339.5,2488.5C 334.479,2488.64 331.312,2486.31 330,2481.5C 329.5,2472.84 329.334,2464.17 329.5,2455.5C 327.833,2455.5 326.167,2455.5 324.5,2455.5C 324.5,2453.83 324.5,2452.17 324.5,2450.5C 326.5,2450.5 328.5,2450.5 330.5,2450.5C 330.5,2447.17 330.5,2443.83 330.5,2440.5C 332.167,2440.5 333.833,2440.5 335.5,2440.5C 335.5,2443.83 335.5,2447.17 335.5,2450.5C 338.833,2450.5 342.167,2450.5 345.5,2450.5 Z"/></g>
<g><path style="opacity:1" fill="#a3a3a3" d="M 588.5,2449.5 C 587.523,2446.71 587.19,2443.71 587.5,2440.5C 585.833,2440.5 584.167,2440.5 582.5,2440.5C 582.5,2443.83 582.5,2447.17 582.5,2450.5C 580.5,2450.5 578.5,2450.5 576.5,2450.5C 577.919,2449.55 579.585,2449.22 581.5,2449.5C 581.5,2446.17 581.5,2442.83 581.5,2439.5C 583.833,2439.5 586.167,2439.5 588.5,2439.5C 588.5,2442.83 588.5,2446.17 588.5,2449.5 Z"/></g>
<g><path style="opacity:1" fill="#505050" d="M 588.5,2449.5 C 591.287,2450.48 594.287,2450.81 597.5,2450.5C 597.5,2452.17 597.5,2453.83 597.5,2455.5C 594.5,2455.5 591.5,2455.5 588.5,2455.5C 588.334,2464.17 588.5,2472.84 589,2481.5C 591.719,2482.44 594.552,2482.78 597.5,2482.5C 597.739,2484.47 597.406,2486.3 596.5,2488C 591.848,2489.19 587.681,2488.36 584,2485.5C 582.551,2475.61 582.051,2465.61 582.5,2455.5C 580.5,2455.5 578.5,2455.5 576.5,2455.5C 576.5,2453.83 576.5,2452.17 576.5,2450.5C 578.5,2450.5 580.5,2450.5 582.5,2450.5C 582.5,2447.17 582.5,2443.83 582.5,2440.5C 584.167,2440.5 585.833,2440.5 587.5,2440.5C 587.19,2443.71 587.523,2446.71 588.5,2449.5 Z"/></g>
<g><path style="opacity:1" fill="#fafafa" d="M 80.5,2441.5 C 86.1764,2441.33 91.8431,2441.5 97.5,2442C 103.368,2445.04 104.868,2449.54 102,2455.5C 100.786,2457.05 99.286,2458.22 97.5,2459C 91.8431,2459.5 86.1764,2459.67 80.5,2459.5C 80.5,2453.5 80.5,2447.5 80.5,2441.5 Z"/></g>
<g><path style="opacity:1" fill="#4f4f4f" d="M 127.5,2449.5 C 143.205,2447.88 150.872,2454.88 150.5,2470.5C 141.167,2470.5 131.833,2470.5 122.5,2470.5C 123.703,2480.86 129.37,2484.7 139.5,2482C 141.624,2480.88 143.457,2479.38 145,2477.5C 146.771,2478.3 148.271,2479.47 149.5,2481C 139.162,2491.04 128.995,2490.87 119,2480.5C 115.433,2472.01 115.766,2463.68 120,2455.5C 122.114,2452.88 124.614,2450.88 127.5,2449.5 Z"/></g>
<g><path style="opacity:1" fill="#535353" d="M 169.5,2449.5 C 178.257,2447.86 185.257,2450.53 190.5,2457.5C 188.999,2458.75 187.332,2459.75 185.5,2460.5C 180.351,2453.7 174.351,2452.86 167.5,2458C 164.611,2463.12 163.777,2468.62 165,2474.5C 167.549,2481.36 172.383,2483.86 179.5,2482C 181.976,2480.69 183.976,2478.86 185.5,2476.5C 187.332,2477.25 188.999,2478.25 190.5,2479.5C 183.643,2489.23 174.976,2491.06 164.5,2485C 156.715,2476.32 155.549,2466.82 161,2456.5C 163.441,2453.55 166.275,2451.21 169.5,2449.5 Z"/></g>
<g><path style="opacity:1" fill="#505050" d="M 208.5,2449.5 C 224.155,2447.82 231.822,2454.82 231.5,2470.5C 222.167,2470.5 212.833,2470.5 203.5,2470.5C 204.371,2480.44 209.704,2484.27 219.5,2482C 222.196,2481.31 224.363,2479.81 226,2477.5C 227.307,2478.77 228.807,2479.77 230.5,2480.5C 221.957,2489.97 212.457,2490.97 202,2483.5C 192.987,2469.85 195.154,2458.52 208.5,2449.5 Z"/></g>
<g><path style="opacity:1" fill="#565656" d="M 241.5,2449.5 C 243.5,2449.5 245.5,2449.5 247.5,2449.5C 247.343,2450.87 247.51,2452.21 248,2453.5C 254.471,2448.79 261.304,2448.29 268.5,2452C 269.211,2453.25 270.044,2454.42 271,2455.5C 272.429,2466.09 272.929,2476.76 272.5,2487.5C 270.167,2487.5 267.833,2487.5 265.5,2487.5C 265.666,2477.83 265.5,2468.16 265,2458.5C 263.607,2455.63 261.274,2454.3 258,2454.5C 253.691,2454.8 250.357,2456.8 248,2460.5C 247.5,2469.49 247.334,2478.49 247.5,2487.5C 245.5,2487.5 243.5,2487.5 241.5,2487.5C 241.5,2474.83 241.5,2462.17 241.5,2449.5 Z"/></g>
<g><path style="opacity:1" fill="#9e9e9e" d="M 345.5,2450.5 C 342.167,2450.5 338.833,2450.5 335.5,2450.5C 335.5,2447.17 335.5,2443.83 335.5,2440.5C 333.833,2440.5 332.167,2440.5 330.5,2440.5C 330.5,2443.83 330.5,2447.17 330.5,2450.5C 328.5,2450.5 326.5,2450.5 324.5,2450.5C 325.919,2449.55 327.585,2449.22 329.5,2449.5C 329.5,2446.17 329.5,2442.83 329.5,2439.5C 331.833,2439.5 334.167,2439.5 336.5,2439.5C 336.5,2442.83 336.5,2446.17 336.5,2449.5C 339.713,2449.19 342.713,2449.52 345.5,2450.5 Z"/></g>
<g><path style="opacity:1" fill="#4c4c4c" d="M 355.5,2487.5 C 355.5,2475.17 355.5,2462.83 355.5,2450.5C 357.167,2450.5 358.833,2450.5 360.5,2450.5C 360.34,2452.2 360.506,2453.87 361,2455.5C 362.833,2453.67 364.667,2451.83 366.5,2450C 369.482,2449.5 372.482,2449.34 375.5,2449.5C 375.167,2451.5 374.833,2453.5 374.5,2455.5C 368.796,2454.44 364.629,2456.44 362,2461.5C 360.59,2470.08 360.09,2478.75 360.5,2487.5C 358.833,2487.5 357.167,2487.5 355.5,2487.5 Z"/></g>
<g><path style="opacity:1" fill="#505050" d="M 388.5,2449.5 C 396.226,2447.99 402.726,2449.99 408,2455.5C 409.429,2466.09 409.929,2476.76 409.5,2487.5C 407.5,2487.5 405.5,2487.5 403.5,2487.5C 403.657,2486.13 403.49,2484.79 403,2483.5C 395.698,2490.09 388.365,2490.09 381,2483.5C 376.598,2475.79 378.432,2469.95 386.5,2466C 392.088,2464.71 397.755,2464.21 403.5,2464.5C 403.235,2456.02 398.901,2452.85 390.5,2455C 388.309,2456.92 385.976,2458.25 383.5,2459C 382.5,2458 381.5,2457 380.5,2456C 382.776,2453.21 385.443,2451.04 388.5,2449.5 Z"/></g>
<g><path style="opacity:1" fill="#4d4d4d" d="M 433.5,2449.5 C 441.998,2447.33 448.165,2450 452,2457.5C 452.5,2467.49 452.666,2477.49 452.5,2487.5C 450.5,2487.5 448.5,2487.5 446.5,2487.5C 446.666,2478.49 446.5,2469.49 446,2460.5C 445.015,2456.33 442.348,2454.33 438,2454.5C 433.313,2454.85 429.979,2457.18 428,2461.5C 427.5,2470.16 427.334,2478.83 427.5,2487.5C 425.5,2487.5 423.5,2487.5 421.5,2487.5C 421.5,2475.17 421.5,2462.83 421.5,2450.5C 423.5,2450.5 425.5,2450.5 427.5,2450.5C 427.343,2451.87 427.51,2453.21 428,2454.5C 429.704,2452.63 431.537,2450.96 433.5,2449.5 Z"/></g>
<g><path style="opacity:1" fill="#515151" d="M 469.5,2449.5 C 475.732,2448.94 481.732,2449.77 487.5,2452C 491.492,2454.9 491.158,2457.4 486.5,2459.5C 482.882,2454.95 478.216,2453.45 472.5,2455C 467.632,2457.48 467.299,2460.48 471.5,2464C 476.531,2465.21 481.531,2466.54 486.5,2468C 487.931,2468.47 489.097,2469.3 490,2470.5C 493.87,2479.19 491.37,2485.02 482.5,2488C 473.744,2490.14 466.744,2487.64 461.5,2480.5C 462.212,2478.95 463.378,2477.95 465,2477.5C 467.156,2478.99 469.323,2480.49 471.5,2482C 474.833,2482.67 478.167,2482.67 481.5,2482C 485.354,2480.39 486.354,2477.73 484.5,2474C 479.702,2472.03 474.702,2470.69 469.5,2470C 460.214,2463.17 460.214,2456.34 469.5,2449.5 Z"/></g>
<g><path style="opacity:1" fill="#505050" d="M 508.5,2449.5 C 517.822,2447.25 524.655,2450.25 529,2458.5C 529.5,2468.16 529.666,2477.83 529.5,2487.5C 527.5,2487.5 525.5,2487.5 523.5,2487.5C 523.657,2486.13 523.49,2484.79 523,2483.5C 515.004,2490.39 507.338,2490.06 500,2482.5C 497.033,2474.94 499.2,2469.44 506.5,2466C 512.088,2464.71 517.755,2464.21 523.5,2464.5C 523.151,2456.08 518.817,2452.92 510.5,2455C 508.309,2456.92 505.976,2458.25 503.5,2459C 502.5,2458 501.5,2457 500.5,2456C 502.776,2453.21 505.443,2451.04 508.5,2449.5 Z"/></g>
<g><path style="opacity:1" fill="#525252" d="M 550.5,2449.5 C 556.105,2448.91 561.439,2449.74 566.5,2452C 571.607,2455.06 571.607,2457.9 566.5,2460.5C 559.259,2452.29 552.426,2452.62 546,2461.5C 545.333,2465.83 545.333,2470.17 546,2474.5C 548.305,2481.79 553.138,2484.29 560.5,2482C 562.976,2480.69 564.976,2478.86 566.5,2476.5C 568.332,2477.25 569.999,2478.25 571.5,2479.5C 564.597,2489.11 555.931,2490.94 545.5,2485C 538.614,2477.65 536.78,2469.15 540,2459.5C 542.738,2455.26 546.238,2451.93 550.5,2449.5 Z"/></g>
<g><path style="opacity:1" fill="#515151" d="M 634.5,2449.5 C 646.318,2447.02 654.151,2451.36 658,2462.5C 660.621,2480.2 653.121,2488.7 635.5,2488C 624.566,2482.96 620.399,2474.46 623,2462.5C 625.327,2456.68 629.16,2452.35 634.5,2449.5 Z"/></g>
<g><path style="opacity:1" fill="#565656" d="M 668.5,2449.5 C 670.5,2449.5 672.5,2449.5 674.5,2449.5C 674.343,2450.87 674.51,2452.21 675,2453.5C 681.471,2448.79 688.304,2448.29 695.5,2452C 696.211,2453.25 697.044,2454.42 698,2455.5C 699.429,2466.09 699.929,2476.76 699.5,2487.5C 697.167,2487.5 694.833,2487.5 692.5,2487.5C 692.666,2477.83 692.5,2468.16 692,2458.5C 690.607,2455.63 688.274,2454.3 685,2454.5C 680.691,2454.8 677.357,2456.8 675,2460.5C 674.5,2469.49 674.334,2478.49 674.5,2487.5C 672.5,2487.5 670.5,2487.5 668.5,2487.5C 668.5,2474.83 668.5,2462.17 668.5,2449.5 Z"/></g>
<g><path style="opacity:1" fill="#505050" d="M 716.5,2449.5 C 720.846,2449.33 725.179,2449.5 729.5,2450C 732.692,2451.09 735.358,2452.93 737.5,2455.5C 736.788,2457.05 735.622,2458.05 734,2458.5C 729.362,2455.07 724.195,2453.9 718.5,2455C 714.998,2457.5 714.665,2460.33 717.5,2463.5C 722.673,2465.53 728.006,2467.03 733.5,2468C 738.223,2471.25 739.723,2475.75 738,2481.5C 732.902,2487.41 726.402,2489.58 718.5,2488C 714.836,2487 711.669,2485.16 709,2482.5C 708.277,2479.88 709.277,2478.21 712,2477.5C 718.216,2483.25 724.882,2483.92 732,2479.5C 732.743,2477.56 732.576,2475.73 731.5,2474C 725.833,2472.33 720.167,2470.67 714.5,2469C 707.424,2461.7 708.091,2455.2 716.5,2449.5 Z"/></g>
<g><path style="opacity:1" fill="#7d7d7d" d="M 360.5,2450.5 C 358.833,2450.5 357.167,2450.5 355.5,2450.5C 355.5,2462.83 355.5,2475.17 355.5,2487.5C 354.505,2475.01 354.171,2462.34 354.5,2449.5C 356.735,2449.21 358.735,2449.54 360.5,2450.5 Z"/></g>
<g><path style="opacity:1" fill="#4a4b4a" d="M 607.5,2450.5 C 609.167,2450.5 610.833,2450.5 612.5,2450.5C 612.5,2462.83 612.5,2475.17 612.5,2487.5C 610.833,2487.5 609.167,2487.5 607.5,2487.5C 607.5,2475.17 607.5,2462.83 607.5,2450.5 Z"/></g>
<g><path style="opacity:1" fill="#7d7d7d" d="M 607.5,2450.5 C 609.265,2449.54 611.265,2449.21 613.5,2449.5C 613.829,2462.34 613.495,2475.01 612.5,2487.5C 612.5,2475.17 612.5,2462.83 612.5,2450.5C 610.833,2450.5 609.167,2450.5 607.5,2450.5 Z"/></g>
<g><path style="opacity:1" fill="#f8f8f8" d="M 129.5,2454.5 C 138.214,2453.22 143.214,2456.89 144.5,2465.5C 137.167,2465.5 129.833,2465.5 122.5,2465.5C 123.087,2460.65 125.42,2456.98 129.5,2454.5 Z"/></g>
<g><path style="opacity:1" fill="#f8f8f8" d="M 210.5,2454.5 C 218.654,2453.57 223.654,2457.07 225.5,2465C 218.174,2465.5 210.841,2465.67 203.5,2465.5C 203.829,2460.51 206.163,2456.85 210.5,2454.5 Z"/></g>
<g><path style="opacity:1" fill="#fbfbfb" d="M 637.5,2454.5 C 650.508,2455.82 655.008,2462.82 651,2475.5C 647.324,2482.41 641.824,2484.25 634.5,2481C 632.383,2479.27 630.883,2477.1 630,2474.5C 627.302,2465.57 629.802,2458.9 637.5,2454.5 Z"/></g>
<g><path style="opacity:1" fill="#f5f5f5" d="M 391.5,2469.5 C 395.5,2469.5 399.5,2469.5 403.5,2469.5C 403.534,2480.64 398.201,2484.8 387.5,2482C 383.964,2476.19 385.298,2472.03 391.5,2469.5 Z"/></g>
<g><path style="opacity:1" fill="#f3f3f3" d="M 511.5,2469.5 C 515.5,2469.5 519.5,2469.5 523.5,2469.5C 523.465,2480.67 518.132,2484.83 507.5,2482C 502.915,2475.99 504.248,2471.83 511.5,2469.5 Z"/></g>
<g><path style="opacity:1" fill="#4d4d4d" d="M 73.5,2617.5 C 80.5079,2617.33 87.5079,2617.5 94.5,2618C 102.964,2619.8 108.131,2624.96 110,2633.5C 111.501,2643.01 109.334,2651.51 103.5,2659C 100.382,2660.89 97.0487,2662.23 93.5,2663C 86.8417,2663.5 80.175,2663.67 73.5,2663.5C 73.5,2648.17 73.5,2632.83 73.5,2617.5 Z"/></g>
<g><path style="opacity:1" fill="#4e4e4e" d="M 266.5,2617.5 C 268.5,2617.5 270.5,2617.5 272.5,2617.5C 272.5,2619.5 272.5,2621.5 272.5,2623.5C 270.5,2623.5 268.5,2623.5 266.5,2623.5C 266.5,2621.5 266.5,2619.5 266.5,2617.5 Z"/></g>
<g><path style="opacity:1" fill="#939393" d="M 1206.5,2617.5 C 1208.2,2617.34 1209.87,2617.51 1211.5,2618C 1204.87,2633.43 1198.37,2648.93 1192,2664.5C 1190.96,2667.38 1189.13,2668.05 1186.5,2666.5C 1193.46,2650.26 1200.12,2633.93 1206.5,2617.5 Z"/></g>
<g><path style="opacity:1" fill="#939393" d="M 1299.5,2617.5 C 1300.98,2617.24 1302.31,2617.57 1303.5,2618.5C 1296.83,2634.5 1290.17,2650.5 1283.5,2666.5C 1281.93,2667.63 1280.26,2667.8 1278.5,2667C 1285.64,2650.55 1292.64,2634.05 1299.5,2617.5 Z"/></g>
<g><path style="opacity:1" fill="#1a9f65" d="M 548.5,2659.5 C 547.957,2659.56 547.624,2659.89 547.5,2660.5C 555.807,2661.5 564.14,2661.83 572.5,2661.5C 572.5,2664.17 572.5,2666.83 572.5,2669.5C 560.167,2669.5 547.833,2669.5 535.5,2669.5C 535.335,2666.48 535.502,2663.48 536,2660.5C 539.761,2656.97 541.261,2652.64 540.5,2647.5C 538.5,2647.5 536.5,2647.5 534.5,2647.5C 534.5,2645.17 534.5,2642.83 534.5,2640.5C 536.167,2640.5 537.833,2640.5 539.5,2640.5C 537.205,2625.97 543.372,2618.63 558,2618.5C 564.814,2618.16 569.981,2620.82 573.5,2626.5C 571.909,2628.63 569.909,2630.3 567.5,2631.5C 562.703,2627.4 557.369,2626.57 551.5,2629C 549.71,2632.58 549.043,2636.42 549.5,2640.5C 554.5,2640.5 559.5,2640.5 564.5,2640.5C 564.5,2642.83 564.5,2645.17 564.5,2647.5C 560.167,2647.5 555.833,2647.5 551.5,2647.5C 551.674,2651.81 550.674,2655.81 548.5,2659.5 Z"/></g>
<g><path style="opacity:1" fill="#1ea067" d="M 592.5,2618.5 C 599.771,2617.41 606.271,2619.08 612,2623.5C 617.338,2631.47 616.171,2638.3 608.5,2644C 616.969,2648.42 618.802,2654.92 614,2663.5C 607.894,2670.09 600.394,2672.26 591.5,2670C 585.538,2668.02 581.205,2664.18 578.5,2658.5C 580.888,2656.64 583.554,2655.31 586.5,2654.5C 591.357,2662.04 597.524,2663.38 605,2658.5C 605.667,2655.83 605.667,2653.17 605,2650.5C 601.417,2648.71 597.584,2648.04 593.5,2648.5C 593.5,2645.83 593.5,2643.17 593.5,2640.5C 603.585,2641.44 606.585,2637.44 602.5,2628.5C 599.562,2627.43 596.562,2627.26 593.5,2628C 591.267,2630.23 589.1,2632.4 587,2634.5C 584.251,2634.03 581.751,2633.03 579.5,2631.5C 581.951,2625.14 586.285,2620.81 592.5,2618.5 Z"/></g>
<g><path style="opacity:1" fill="#1ba066" d="M 681.5,2618.5 C 695.354,2616.85 703.854,2622.85 707,2636.5C 707.861,2643.98 707.194,2651.31 705,2658.5C 698.503,2670.44 689.003,2673.61 676.5,2668C 668.337,2659.87 665.17,2650.04 667,2638.5C 667.881,2628.81 672.714,2622.14 681.5,2618.5 Z"/></g>
<g><path style="opacity:1" fill="#1ca066" d="M 627.5,2619.5 C 637.5,2619.5 647.5,2619.5 657.5,2619.5C 657.5,2622.5 657.5,2625.5 657.5,2628.5C 649.722,2627.89 642.222,2628.56 635,2630.5C 634.333,2633.17 634.333,2635.83 635,2638.5C 640.654,2634.77 646.488,2634.61 652.5,2638C 660.449,2645.84 661.615,2654.67 656,2664.5C 647.391,2671.43 638.225,2672.26 628.5,2667C 626.126,2664.96 624.126,2662.63 622.5,2660C 624.933,2658.37 627.433,2656.87 630,2655.5C 634.25,2661.47 639.75,2662.97 646.5,2660C 650.787,2654.64 650.453,2649.64 645.5,2645C 640.785,2643.62 636.785,2644.62 633.5,2648C 630.518,2648.5 627.518,2648.66 624.5,2648.5C 624.907,2638.76 625.907,2629.1 627.5,2619.5 Z"/></g>
<g><path style="opacity:1" fill="#505050" d="M 284.5,2621.5 C 286.167,2621.5 287.833,2621.5 289.5,2621.5C 289.5,2624.5 289.5,2627.5 289.5,2630.5C 292.5,2630.5 295.5,2630.5 298.5,2630.5C 298.5,2631.83 298.5,2633.17 298.5,2634.5C 295.5,2634.5 292.5,2634.5 289.5,2634.5C 289.175,2642.35 289.508,2650.02 290.5,2657.5C 290.611,2658.12 290.944,2658.62 291.5,2659C 293.5,2659.33 295.5,2659.67 297.5,2660C 298.022,2660.56 298.355,2661.23 298.5,2662C 294.303,2665.36 290.137,2665.19 286,2661.5C 284.557,2652.61 284.057,2643.61 284.5,2634.5C 282.833,2634.5 281.167,2634.5 279.5,2634.5C 279.5,2633.17 279.5,2631.83 279.5,2630.5C 281.167,2630.5 282.833,2630.5 284.5,2630.5C 284.5,2627.5 284.5,2624.5 284.5,2621.5 Z"/></g>
<g><path style="opacity:1" fill="#949494" d="M 1137.5,2621.5 C 1147.61,2620.97 1153.78,2625.64 1156,2635.5C 1156.93,2642 1156.26,2648.34 1154,2654.5C 1147.45,2663.91 1139.78,2664.91 1131,2657.5C 1130,2655.5 1129,2653.5 1128,2651.5C 1127.33,2645.17 1127.33,2638.83 1128,2632.5C 1129.8,2627.52 1132.96,2623.85 1137.5,2621.5 Z"/></g>
<g><path style="opacity:1" fill="#939393" d="M 1224.5,2621.5 C 1233.45,2620.95 1239.29,2624.95 1242,2633.5C 1243.07,2641.02 1242.41,2648.35 1240,2655.5C 1228.48,2666.24 1219.81,2664.24 1214,2649.5C 1212.67,2641.8 1213.67,2634.47 1217,2627.5C 1219.11,2624.88 1221.61,2622.88 1224.5,2621.5 Z"/></g>
<g><path style="opacity:1" fill="#949494" d="M 1258.5,2621.5 C 1273.48,2622.12 1277.64,2629.12 1271,2642.5C 1266.5,2647 1262,2651.5 1257.5,2656C 1263.16,2656.5 1268.82,2656.67 1274.5,2656.5C 1274.5,2658.17 1274.5,2659.83 1274.5,2661.5C 1265.83,2661.5 1257.17,2661.5 1248.5,2661.5C 1248.34,2660.13 1248.51,2658.79 1249,2657.5C 1255,2651.5 1261,2645.5 1267,2639.5C 1271.49,2632.51 1269.83,2628.18 1262,2626.5C 1257.83,2626.84 1254.99,2629.01 1253.5,2633C 1252.21,2633.49 1250.87,2633.66 1249.5,2633.5C 1250.21,2627.79 1253.21,2623.79 1258.5,2621.5 Z"/></g>
<g><path style="opacity:1" fill="#949494" d="M 1315.5,2621.5 C 1331.27,2622.71 1335.1,2630.04 1327,2643.5C 1322.83,2647.67 1318.67,2651.83 1314.5,2656C 1320.16,2656.5 1325.82,2656.67 1331.5,2656.5C 1331.5,2658.17 1331.5,2659.83 1331.5,2661.5C 1322.83,2661.5 1314.17,2661.5 1305.5,2661.5C 1305.21,2659.71 1305.55,2658.05 1306.5,2656.5C 1312.15,2651.35 1317.65,2646.01 1323,2640.5C 1328.75,2633.48 1327.42,2628.82 1319,2626.5C 1314.68,2626.41 1311.85,2628.41 1310.5,2632.5C 1309.31,2633.43 1307.98,2633.76 1306.5,2633.5C 1307.24,2627.76 1310.24,2623.76 1315.5,2621.5 Z"/></g>
<g><path style="opacity:1" fill="#929292" d="M 1349.5,2621.5 C 1358.47,2620.97 1364.3,2624.97 1367,2633.5C 1367.87,2639.92 1367.54,2646.25 1366,2652.5C 1361.61,2661.74 1354.78,2664.24 1345.5,2660C 1340.19,2654.84 1337.86,2648.5 1338.5,2641C 1338.19,2632.11 1341.85,2625.61 1349.5,2621.5 Z"/></g>
<g><path style="opacity:1" fill="#949494" d="M 1383.5,2621.5 C 1398.43,2622.02 1402.6,2629.02 1396,2642.5C 1391.5,2647 1387,2651.5 1382.5,2656C 1388.16,2656.5 1393.82,2656.67 1399.5,2656.5C 1399.5,2658.17 1399.5,2659.83 1399.5,2661.5C 1390.83,2661.5 1382.17,2661.5 1373.5,2661.5C 1373.34,2660.13 1373.51,2658.79 1374,2657.5C 1380,2651.5 1386,2645.5 1392,2639.5C 1396.6,2628.43 1393.1,2624.6 1381.5,2628C 1380.5,2629.67 1379.5,2631.33 1378.5,2633C 1377.21,2633.49 1375.87,2633.66 1374.5,2633.5C 1375.21,2627.79 1378.21,2623.79 1383.5,2621.5 Z"/></g>
<g><path style="opacity:1" fill="#959595" d="M 79.5,2622.5 C 79.5,2634.17 79.5,2645.83 79.5,2657.5C 83.8333,2657.5 88.1667,2657.5 92.5,2657.5C 88.03,2658.49 83.3633,2658.82 78.5,2658.5C 78.1716,2646.32 78.5049,2634.32 79.5,2622.5 Z"/></g>
<g><path style="opacity:1" fill="#fcfcfc" d="M 79.5,2622.5 C 99.8695,2620.57 107.703,2629.57 103,2649.5C 100.766,2653.91 97.2662,2656.58 92.5,2657.5C 88.1667,2657.5 83.8333,2657.5 79.5,2657.5C 79.5,2645.83 79.5,2634.17 79.5,2622.5 Z"/></g>
<g><path style="opacity:1" fill="#939393" d="M 1173.5,2622.5 C 1175.17,2622.5 1176.83,2622.5 1178.5,2622.5C 1178.5,2635.5 1178.5,2648.5 1178.5,2661.5C 1176.83,2661.5 1175.17,2661.5 1173.5,2661.5C 1173.67,2650.83 1173.5,2640.16 1173,2629.5C 1171.1,2631.53 1168.94,2633.2 1166.5,2634.5C 1165.28,2634.11 1164.61,2633.28 1164.5,2632C 1167.47,2628.84 1170.47,2625.67 1173.5,2622.5 Z"/></g>
<g><path style="opacity:1" fill="#939393" d="M 1423.5,2622.5 C 1425.5,2622.5 1427.5,2622.5 1429.5,2622.5C 1429.5,2631.17 1429.5,2639.83 1429.5,2648.5C 1431.5,2648.5 1433.5,2648.5 1435.5,2648.5C 1435.5,2650.17 1435.5,2651.83 1435.5,2653.5C 1433.5,2653.5 1431.5,2653.5 1429.5,2653.5C 1429.5,2656.17 1429.5,2658.83 1429.5,2661.5C 1427.83,2661.5 1426.17,2661.5 1424.5,2661.5C 1424.5,2658.83 1424.5,2656.17 1424.5,2653.5C 1418.17,2653.5 1411.83,2653.5 1405.5,2653.5C 1405.3,2651.01 1405.8,2648.68 1407,2646.5C 1412.76,2638.64 1418.26,2630.64 1423.5,2622.5 Z"/></g>
<g><path style="opacity:1" fill="#fcfcfc" d="M 1138.5,2626.5 C 1142.19,2625.97 1145.36,2626.97 1148,2629.5C 1152.6,2637.82 1152.6,2646.15 1148,2654.5C 1141.38,2659.34 1136.38,2658.01 1133,2650.5C 1132.33,2644.83 1132.33,2639.17 1133,2633.5C 1133.97,2630.38 1135.8,2628.05 1138.5,2626.5 Z"/></g>
<g><path style="opacity:1" fill="#fcfcfc" d="M 1224.5,2626.5 C 1231.24,2625.28 1235.41,2627.95 1237,2634.5C 1238.31,2641.87 1237.31,2648.87 1234,2655.5C 1225.65,2659.52 1220.65,2656.86 1219,2647.5C 1217.07,2639.39 1218.91,2632.39 1224.5,2626.5 Z"/></g>
<g><path style="opacity:1" fill="#fcfcfc" d="M 1349.5,2626.5 C 1355.83,2625.65 1360,2628.32 1362,2634.5C 1363.2,2641.46 1362.36,2648.13 1359.5,2654.5C 1353.51,2659.19 1348.68,2658.19 1345,2651.5C 1343.62,2645.89 1343.28,2640.22 1344,2634.5C 1345.27,2631.4 1347.11,2628.74 1349.5,2626.5 Z"/></g>
<g><path style="opacity:1" fill="#fafdfc" d="M 683.5,2627.5 C 689.695,2626.34 693.861,2628.68 696,2634.5C 698.721,2643.6 697.554,2652.1 692.5,2660C 684.769,2663.29 679.935,2660.79 678,2652.5C 677.333,2646.83 677.333,2641.17 678,2635.5C 679.243,2632.42 681.077,2629.76 683.5,2627.5 Z"/></g>
<g><path style="opacity:1" fill="#515151" d="M 127.5,2629.5 C 141.157,2628.49 148.157,2634.82 148.5,2648.5C 140.167,2648.5 131.833,2648.5 123.5,2648.5C 123.814,2656.98 128.147,2660.48 136.5,2659C 139.196,2658.31 141.363,2656.81 143,2654.5C 144.487,2655.16 145.653,2656.16 146.5,2657.5C 141.329,2664.47 134.663,2666.31 126.5,2663C 121.734,2660.57 118.9,2656.74 118,2651.5C 116.03,2641.79 119.196,2634.45 127.5,2629.5 Z"/></g>
<g><path style="opacity:1" fill="#525252" d="M 163.5,2660.5 C 163.44,2659.96 163.107,2659.62 162.5,2659.5C 161.506,2664.46 161.173,2669.46 161.5,2674.5C 159.833,2674.5 158.167,2674.5 156.5,2674.5C 156.5,2659.83 156.5,2645.17 156.5,2630.5C 158.167,2630.5 159.833,2630.5 161.5,2630.5C 161.343,2631.87 161.51,2633.21 162,2634.5C 167.823,2628.88 174.323,2628.04 181.5,2632C 187.621,2638.86 189.121,2646.7 186,2655.5C 180.139,2665.26 172.639,2666.93 163.5,2660.5 Z"/></g>
<g><path style="opacity:1" fill="#515151" d="M 204.5,2629.5 C 214.501,2627.64 221.334,2631.31 225,2640.5C 227.776,2656.37 221.276,2664.21 205.5,2664C 199.269,2662.04 195.436,2657.87 194,2651.5C 191.967,2641.41 195.467,2634.07 204.5,2629.5 Z"/></g>
<g><path style="opacity:1" fill="#515151" d="M 239.5,2629.5 C 243.182,2629.33 246.848,2629.5 250.5,2630C 253.576,2630.91 255.909,2632.74 257.5,2635.5C 256.24,2636.38 255.074,2637.38 254,2638.5C 249.453,2634.11 244.453,2633.44 239,2636.5C 238.257,2638.44 238.424,2640.27 239.5,2642C 244.066,2643.64 248.732,2644.98 253.5,2646C 258.609,2649.37 259.776,2653.87 257,2659.5C 251.31,2664.69 244.81,2665.86 237.5,2663C 235.024,2661.69 233.024,2659.86 231.5,2657.5C 232.167,2656.17 233.167,2655.17 234.5,2654.5C 240.234,2660.16 246.401,2660.82 253,2656.5C 253.825,2654.3 253.325,2652.47 251.5,2651C 245.044,2650.4 239.21,2648.24 234,2644.5C 230.829,2637.53 232.662,2632.53 239.5,2629.5 Z"/></g>
<g><path style="opacity:1" fill="#aeaeae" d="M 284.5,2621.5 C 286.265,2620.54 288.265,2620.21 290.5,2620.5C 290.5,2623.5 290.5,2626.5 290.5,2629.5C 293.385,2629.19 296.052,2629.53 298.5,2630.5C 295.5,2630.5 292.5,2630.5 289.5,2630.5C 289.5,2627.5 289.5,2624.5 289.5,2621.5C 287.833,2621.5 286.167,2621.5 284.5,2621.5 Z"/></g>
<g><path style="opacity:1" fill="#959595" d="M 272.5,2630.5 C 270.833,2630.5 269.167,2630.5 267.5,2630.5C 267.5,2641.5 267.5,2652.5 267.5,2663.5C 266.505,2652.35 266.172,2641.01 266.5,2629.5C 268.735,2629.21 270.735,2629.54 272.5,2630.5 Z"/></g>
<g><path style="opacity:1" fill="#4e4e4e" d="M 272.5,2630.5 C 272.5,2641.5 272.5,2652.5 272.5,2663.5C 270.833,2663.5 269.167,2663.5 267.5,2663.5C 267.5,2652.5 267.5,2641.5 267.5,2630.5C 269.167,2630.5 270.833,2630.5 272.5,2630.5 Z"/></g>
<g><path style="opacity:1" fill="#fafafa" d="M 1423.5,2629.5 C 1424.49,2635.64 1424.82,2641.98 1424.5,2648.5C 1420.12,2648.83 1415.78,2648.49 1411.5,2647.5C 1415.51,2641.47 1419.51,2635.47 1423.5,2629.5 Z"/></g>
<g><path style="opacity:1" fill="#f1f1f1" d="M 128.5,2634.5 C 136.765,2632.96 141.432,2636.29 142.5,2644.5C 136.167,2644.5 129.833,2644.5 123.5,2644.5C 123.574,2640.35 125.241,2637.02 128.5,2634.5 Z"/></g>
<g><path style="opacity:1" fill="#fbfbfb" d="M 168.5,2634.5 C 174.204,2633.44 178.371,2635.44 181,2640.5C 182.223,2646.38 181.389,2651.88 178.5,2657C 171.646,2661.15 166.479,2659.65 163,2652.5C 162.333,2648.5 162.333,2644.5 163,2640.5C 164.36,2637.98 166.193,2635.98 168.5,2634.5 Z"/></g>
<g><path style="opacity:1" fill="#f9f9f9" d="M 205.5,2634.5 C 218.285,2634.7 222.785,2641.03 219,2653.5C 215.469,2659.18 210.635,2660.68 204.5,2658C 199.848,2653.46 198.348,2647.96 200,2641.5C 200.967,2638.38 202.8,2636.05 205.5,2634.5 Z"/></g>
<g><path style="opacity:1" fill="#959595" d="M 298.5,2634.5 C 296.052,2635.47 293.385,2635.81 290.5,2635.5C 290.5,2642.83 290.5,2650.17 290.5,2657.5C 289.508,2650.02 289.175,2642.35 289.5,2634.5C 292.5,2634.5 295.5,2634.5 298.5,2634.5 Z"/></g>
<g><path style="opacity:1" fill="#8f8f8f" d="M 163.5,2660.5 C 162.833,2665.17 162.167,2669.83 161.5,2674.5C 161.173,2669.46 161.506,2664.46 162.5,2659.5C 163.107,2659.62 163.44,2659.96 163.5,2660.5 Z"/></g>
<g><path style="opacity:1" fill="#86ceb0" d="M 548.5,2659.5 C 556.5,2660.17 564.5,2660.83 572.5,2661.5C 564.14,2661.83 555.807,2661.5 547.5,2660.5C 547.624,2659.89 547.957,2659.56 548.5,2659.5 Z"/></g>
<g><path style="opacity:1" fill="#e0e1e0" d="M 67.5,2731.5 C 524.833,2731.5 982.167,2731.5 1439.5,2731.5C 1439.5,2732.83 1439.5,2734.17 1439.5,2735.5C 982.167,2735.5 524.833,2735.5 67.5,2735.5C 67.5,2734.17 67.5,2732.83 67.5,2731.5 Z"/></g>
<g><path style="opacity:1" fill="#525252" d="M 70.5,2809.5 C 73.0792,2809.08 75.2458,2809.75 77,2811.5C 79.8307,2822.99 83.164,2834.32 87,2845.5C 90.4282,2833.62 93.9282,2821.78 97.5,2810C 100.063,2809.08 102.23,2809.58 104,2811.5C 106.741,2822.72 110.074,2833.72 114,2844.5C 117.333,2833.17 120.667,2821.83 124,2810.5C 126.064,2809.41 128.231,2809.24 130.5,2810C 125.808,2824.41 121.308,2838.91 117,2853.5C 115.246,2855.25 113.079,2855.92 110.5,2855.5C 107.621,2843.32 104.121,2831.32 100,2819.5C 96.2055,2831.35 93.0389,2843.35 90.5,2855.5C 88.1667,2855.5 85.8333,2855.5 83.5,2855.5C 78.8605,2840.28 74.5272,2824.95 70.5,2809.5 Z"/></g>
<g><path style="opacity:1" fill="#545454" d="M 138.5,2809.5 C 140.5,2809.5 142.5,2809.5 144.5,2809.5C 144.5,2811.5 144.5,2813.5 144.5,2815.5C 142.5,2815.5 140.5,2815.5 138.5,2815.5C 138.5,2813.5 138.5,2811.5 138.5,2809.5 Z"/></g>
<g><path style="opacity:1" fill="#4c4c4c" d="M 178.5,2809.5 C 180.167,2809.5 181.833,2809.5 183.5,2809.5C 183.172,2814.87 183.505,2820.21 184.5,2825.5C 190.085,2820.79 196.085,2820.29 202.5,2824C 203.701,2824.9 204.535,2826.07 205,2827.5C 205.5,2836.83 205.666,2846.16 205.5,2855.5C 203.833,2855.5 202.167,2855.5 200.5,2855.5C 200.666,2847.16 200.5,2838.83 200,2830.5C 198.607,2827.63 196.274,2826.3 193,2826.5C 188.667,2826.5 185.667,2828.5 184,2832.5C 183.5,2840.16 183.334,2847.83 183.5,2855.5C 181.833,2855.5 180.167,2855.5 178.5,2855.5C 178.5,2840.17 178.5,2824.83 178.5,2809.5 Z"/></g>
<g><path style="opacity:1" fill="#4f4f4f" d="M 239.5,2809.5 C 241.167,2809.5 242.833,2809.5 244.5,2809.5C 244.5,2824.83 244.5,2840.17 244.5,2855.5C 242.833,2855.5 241.167,2855.5 239.5,2855.5C 239.657,2854.13 239.49,2852.79 239,2851.5C 228.501,2859.62 220.501,2857.62 215,2845.5C 212.079,2835.42 214.913,2827.59 223.5,2822C 229.645,2820.41 234.811,2821.91 239,2826.5C 239.499,2820.84 239.666,2815.18 239.5,2809.5 Z"/></g>
<g><path style="opacity:1" fill="#575757" d="M 402.5,2809.5 C 404.5,2809.5 406.5,2809.5 408.5,2809.5C 408.5,2824.83 408.5,2840.17 408.5,2855.5C 406.5,2855.5 404.5,2855.5 402.5,2855.5C 402.5,2840.17 402.5,2824.83 402.5,2809.5 Z"/></g>
<g><path style="opacity:1" fill="#939393" d="M 1214.5,2809.5 C 1215.98,2809.24 1217.31,2809.57 1218.5,2810.5C 1211.9,2826.46 1205.4,2842.46 1199,2858.5C 1197.64,2859.38 1196.14,2859.71 1194.5,2859.5C 1200.61,2842.61 1207.28,2825.95 1214.5,2809.5 Z"/></g>
<g><path style="opacity:1" fill="#949494" d="M 1300.5,2809.5 C 1302.2,2809.34 1303.87,2809.51 1305.5,2810C 1298.53,2826.4 1291.87,2842.9 1285.5,2859.5C 1283.71,2859.79 1282.05,2859.45 1280.5,2858.5C 1287.57,2842.29 1294.23,2825.96 1300.5,2809.5 Z"/></g>
<g><path style="opacity:1" fill="#ec3334" d="M 564.5,2839.5 C 564.5,2837.5 564.5,2835.5 564.5,2833.5C 566.099,2833.77 567.432,2833.43 568.5,2832.5C 566.446,2818.62 572.446,2811.29 586.5,2810.5C 593.462,2809.98 598.795,2812.65 602.5,2818.5C 600.805,2820.77 598.639,2822.43 596,2823.5C 591.488,2819.25 586.321,2818.42 580.5,2821C 577.521,2824.42 576.854,2828.25 578.5,2832.5C 583.5,2832.5 588.5,2832.5 593.5,2832.5C 593.5,2834.83 593.5,2837.17 593.5,2839.5C 589.167,2839.5 584.833,2839.5 580.5,2839.5C 580.381,2844.19 579.048,2848.52 576.5,2852.5C 584.807,2853.5 593.14,2853.83 601.5,2853.5C 601.5,2856.17 601.5,2858.83 601.5,2861.5C 589.167,2861.5 576.833,2861.5 564.5,2861.5C 564.335,2858.48 564.502,2855.48 565,2852.5C 568.761,2848.97 570.261,2844.64 569.5,2839.5C 567.833,2839.5 566.167,2839.5 564.5,2839.5 Z"/></g>
<g><path style="opacity:1" fill="#ec3435" d="M 673.5,2810.5 C 687.372,2808.87 695.872,2814.87 699,2828.5C 699.942,2835.99 699.275,2843.32 697,2850.5C 690.044,2863.02 680.211,2865.86 667.5,2859C 657.806,2847.37 655.973,2834.53 662,2820.5C 664.818,2815.84 668.651,2812.51 673.5,2810.5 Z"/></g>
<g><path style="opacity:1" fill="#ec3334" d="M 721.5,2810.5 C 735.372,2808.87 743.872,2814.87 747,2828.5C 749.251,2840.74 746.084,2851.24 737.5,2860C 721.167,2865.99 711,2860.49 707,2843.5C 704.782,2831.54 707.948,2821.37 716.5,2813C 718.315,2812.24 719.981,2811.41 721.5,2810.5 Z"/></g>
<g><path style="opacity:1" fill="#ec3334" d="M 769.5,2810.5 C 783.28,2808.98 791.78,2814.98 795,2828.5C 795.861,2835.97 795.195,2843.3 793,2850.5C 786.453,2862.35 776.953,2865.52 764.5,2860C 754.219,2849.19 751.719,2836.69 757,2822.5C 759.769,2816.89 763.936,2812.89 769.5,2810.5 Z"/></g>
<g><path style="opacity:1" fill="#ec3033" d="M 621.5,2811.5 C 624.833,2811.5 628.167,2811.5 631.5,2811.5C 631.5,2828.17 631.5,2844.83 631.5,2861.5C 628.167,2861.5 624.833,2861.5 621.5,2861.5C 621.832,2849.15 621.499,2836.82 620.5,2824.5C 617.849,2826.65 615.349,2828.98 613,2831.5C 610.81,2829.61 608.977,2827.44 607.5,2825C 612.669,2821 617.336,2816.5 621.5,2811.5 Z"/></g>
<g><path style="opacity:1" fill="#4d4d4d" d="M 156.5,2849.5 C 156.5,2841.83 156.5,2834.17 156.5,2826.5C 154.833,2826.5 153.167,2826.5 151.5,2826.5C 151.5,2825.17 151.5,2823.83 151.5,2822.5C 153.167,2822.5 154.833,2822.5 156.5,2822.5C 156.5,2819.5 156.5,2816.5 156.5,2813.5C 158.167,2813.5 159.833,2813.5 161.5,2813.5C 161.5,2816.5 161.5,2819.5 161.5,2822.5C 164.167,2822.5 166.833,2822.5 169.5,2822.5C 169.5,2823.83 169.5,2825.17 169.5,2826.5C 166.833,2826.5 164.167,2826.5 161.5,2826.5C 161.334,2834.17 161.5,2841.84 162,2849.5C 164.243,2850.97 166.743,2851.97 169.5,2852.5C 170.813,2854.52 170.147,2855.69 167.5,2856C 161.427,2857.74 157.76,2855.57 156.5,2849.5 Z"/></g>
<g><path style="opacity:1" fill="#939393" d="M 1232.5,2813.5 C 1244.83,2814 1250.83,2820.5 1250.5,2833C 1251.14,2840.5 1248.81,2846.84 1243.5,2852C 1232.88,2856.95 1225.72,2853.78 1222,2842.5C 1220.87,2834.95 1221.54,2827.62 1224,2820.5C 1226.46,2817.52 1229.3,2815.19 1232.5,2813.5 Z"/></g>
<g><path style="opacity:1" fill="#949494" d="M 1316.5,2813.5 C 1331.21,2813.37 1335.71,2820.04 1330,2833.5C 1325.17,2838.33 1320.33,2843.17 1315.5,2848C 1321.49,2848.5 1327.49,2848.67 1333.5,2848.5C 1333.5,2850.17 1333.5,2851.83 1333.5,2853.5C 1324.83,2853.5 1316.17,2853.5 1307.5,2853.5C 1307.34,2851.8 1307.51,2850.13 1308,2848.5C 1313.14,2843.27 1318.48,2838.27 1324,2833.5C 1327.8,2829.25 1328.3,2824.75 1325.5,2820C 1319.48,2816.92 1315.15,2818.42 1312.5,2824.5C 1310.95,2825.45 1309.29,2825.79 1307.5,2825.5C 1308.26,2819.75 1311.26,2815.75 1316.5,2813.5 Z"/></g>
<g><path style="opacity:1" fill="#939393" d="M 1351.5,2813.5 C 1363.73,2814.07 1369.73,2820.57 1369.5,2833C 1369.89,2840.42 1367.56,2846.75 1362.5,2852C 1351.22,2856.91 1344.05,2853.41 1341,2841.5C 1340.13,2835.08 1340.46,2828.75 1342,2822.5C 1344.43,2818.57 1347.6,2815.57 1351.5,2813.5 Z"/></g>
<g><path style="opacity:1" fill="#939393" d="M 1385.5,2813.5 C 1399.77,2813.93 1403.94,2820.59 1398,2833.5C 1393.35,2838.43 1388.52,2843.26 1383.5,2848C 1389.49,2848.5 1395.49,2848.67 1401.5,2848.5C 1401.5,2850.17 1401.5,2851.83 1401.5,2853.5C 1392.83,2853.5 1384.17,2853.5 1375.5,2853.5C 1375.34,2852.13 1375.51,2850.79 1376,2849.5C 1381.67,2843.83 1387.33,2838.17 1393,2832.5C 1398.29,2821.47 1395.12,2817.31 1383.5,2820C 1382.13,2821.24 1381.13,2822.74 1380.5,2824.5C 1378.95,2825.45 1377.29,2825.79 1375.5,2825.5C 1376.51,2819.45 1379.84,2815.45 1385.5,2813.5 Z"/></g>
<g><path style="opacity:1" fill="#8f8f8f" d="M 1149.5,2853.5 C 1149.83,2842.81 1149.5,2832.15 1148.5,2821.5C 1147.89,2821.62 1147.56,2821.96 1147.5,2822.5C 1145.85,2823.81 1144.19,2825.14 1142.5,2826.5C 1141.17,2825.83 1140.17,2824.83 1139.5,2823.5C 1142.5,2820.83 1145.5,2818.17 1148.5,2815.5C 1150.05,2814.55 1151.71,2814.21 1153.5,2814.5C 1153.5,2827.5 1153.5,2840.5 1153.5,2853.5C 1152.17,2853.5 1150.83,2853.5 1149.5,2853.5 Z"/></g>
<g><path style="opacity:1" fill="#969696" d="M 1167.5,2814.5 C 1174.83,2814.5 1182.17,2814.5 1189.5,2814.5C 1189.71,2816.14 1189.38,2817.64 1188.5,2819C 1182.84,2819.5 1177.18,2819.67 1171.5,2819.5C 1171.1,2823.19 1170.94,2826.85 1171,2830.5C 1177.48,2826.14 1183.48,2826.81 1189,2832.5C 1193.47,2842.08 1190.97,2849.25 1181.5,2854C 1176.39,2855.11 1171.72,2854.11 1167.5,2851C 1163.54,2848.01 1163.7,2845.51 1168,2843.5C 1172.88,2850.62 1178.54,2851.29 1185,2845.5C 1185.67,2842.17 1185.67,2838.83 1185,2835.5C 1183.31,2833.08 1180.98,2832.08 1178,2832.5C 1173.51,2833.25 1169.34,2834.58 1165.5,2836.5C 1166.09,2829.16 1166.76,2821.83 1167.5,2814.5 Z"/></g>
<g><path style="opacity:1" fill="#8f8f8f" d="M 1267.5,2814.5 C 1269.17,2814.5 1270.83,2814.5 1272.5,2814.5C 1272.5,2827.5 1272.5,2840.5 1272.5,2853.5C 1270.83,2853.5 1269.17,2853.5 1267.5,2853.5C 1267.67,2842.83 1267.5,2832.16 1267,2821.5C 1265.26,2823.74 1263.09,2825.41 1260.5,2826.5C 1259.59,2825.67 1258.92,2824.67 1258.5,2823.5C 1261.83,2820.84 1264.83,2817.84 1267.5,2814.5 Z"/></g>
<g><path style="opacity:1" fill="#999999" d="M 1425.5,2814.5 C 1427.5,2814.5 1429.5,2814.5 1431.5,2814.5C 1431.5,2823.17 1431.5,2831.83 1431.5,2840.5C 1433.17,2840.5 1434.83,2840.5 1436.5,2840.5C 1436.5,2842.17 1436.5,2843.83 1436.5,2845.5C 1434.83,2845.5 1433.17,2845.5 1431.5,2845.5C 1431.5,2848.17 1431.5,2850.83 1431.5,2853.5C 1429.5,2853.5 1427.5,2853.5 1425.5,2853.5C 1425.5,2850.83 1425.5,2848.17 1425.5,2845.5C 1419.17,2845.5 1412.83,2845.5 1406.5,2845.5C 1406.34,2843.8 1406.51,2842.13 1407,2840.5C 1413.42,2831.98 1419.59,2823.31 1425.5,2814.5 Z"/></g>
<g><path style="opacity:1" fill="#fcfcfc" d="M 1232.5,2818.5 C 1239.31,2817.81 1243.48,2820.81 1245,2827.5C 1245.77,2832.9 1245.44,2838.24 1244,2843.5C 1240.96,2849.37 1236.46,2850.87 1230.5,2848C 1226.65,2841.36 1225.48,2834.19 1227,2826.5C 1228.12,2823.24 1229.95,2820.58 1232.5,2818.5 Z"/></g>
<g><path style="opacity:1" fill="#fcfcfc" d="M 1351.5,2818.5 C 1358.76,2817.92 1362.93,2821.26 1364,2828.5C 1365.59,2835.8 1364.09,2842.3 1359.5,2848C 1351.9,2851.11 1347.4,2848.61 1346,2840.5C 1345.33,2835.5 1345.33,2830.5 1346,2825.5C 1346.97,2822.38 1348.8,2820.05 1351.5,2818.5 Z"/></g>
<g><path style="opacity:1" fill="#fffafa" d="M 675.5,2819.5 C 683.244,2818.41 687.744,2821.74 689,2829.5C 690.232,2836.84 689.232,2843.84 686,2850.5C 677.945,2855.91 672.611,2853.91 670,2844.5C 669.333,2838.83 669.333,2833.17 670,2827.5C 671.116,2824.24 672.949,2821.58 675.5,2819.5 Z"/></g>
<g><path style="opacity:1" fill="#fff8f8" d="M 723.5,2819.5 C 731.702,2818.54 736.202,2822.21 737,2830.5C 738.093,2837.48 737.093,2844.15 734,2850.5C 730.205,2853.8 726.038,2854.3 721.5,2852C 714.265,2840.47 714.931,2829.64 723.5,2819.5 Z"/></g>
<g><path style="opacity:1" fill="#fff9f8" d="M 771.5,2819.5 C 779.702,2818.54 784.202,2822.21 785,2830.5C 785.942,2837.46 784.942,2844.13 782,2850.5C 778.205,2853.8 774.038,2854.3 769.5,2852C 762.211,2840.45 762.878,2829.62 771.5,2819.5 Z"/></g>
<g><path style="opacity:1" fill="#515151" d="M 256.5,2855.5 C 256.5,2844.5 256.5,2833.5 256.5,2822.5C 257.833,2822.5 259.167,2822.5 260.5,2822.5C 260.34,2824.2 260.506,2825.87 261,2827.5C 261.717,2826.96 262.217,2826.29 262.5,2825.5C 265.59,2821.92 269.59,2820.59 274.5,2821.5C 274.579,2822.93 274.246,2824.26 273.5,2825.5C 268.131,2826.05 264.298,2828.71 262,2833.5C 261.5,2840.83 261.334,2848.16 261.5,2855.5C 259.833,2855.5 258.167,2855.5 256.5,2855.5 Z"/></g>
<g><path style="opacity:1" fill="#4f4f4f" d="M 286.5,2821.5 C 294.514,2819.76 300.347,2822.43 304,2829.5C 304.5,2838.16 304.666,2846.83 304.5,2855.5C 302.833,2855.5 301.167,2855.5 299.5,2855.5C 299.657,2854.13 299.49,2852.79 299,2851.5C 292.226,2858 285.56,2858 279,2851.5C 276.165,2845.64 277.331,2840.81 282.5,2837C 288.101,2835.78 293.768,2835.28 299.5,2835.5C 298.808,2827.33 294.474,2824.49 286.5,2827C 283.409,2831.82 281.242,2831.65 280,2826.5C 281.805,2824.17 283.972,2822.51 286.5,2821.5 Z"/></g>
<g><path style="opacity:1" fill="#505050" d="M 373.5,2821.5 C 380.638,2820.1 386.472,2822.1 391,2827.5C 392.445,2836.73 392.945,2846.06 392.5,2855.5C 390.833,2855.5 389.167,2855.5 387.5,2855.5C 387.657,2854.13 387.49,2852.79 387,2851.5C 380.577,2857.61 373.911,2857.94 367,2852.5C 364.123,2846.29 365.29,2841.12 370.5,2837C 375.754,2835.73 381.087,2835.23 386.5,2835.5C 386.656,2827.18 382.656,2824.35 374.5,2827C 373.019,2827.98 371.685,2829.15 370.5,2830.5C 369.167,2829.5 367.833,2828.5 366.5,2827.5C 368.878,2825.45 371.211,2823.45 373.5,2821.5 Z"/></g>
<g><path style="opacity:1" fill="#c5c6c5" d="M 1147.5,2822.5 C 1147.56,2821.96 1147.89,2821.62 1148.5,2821.5C 1149.5,2832.15 1149.83,2842.81 1149.5,2853.5C 1148.83,2843.17 1148.17,2832.83 1147.5,2822.5 Z"/></g>
<g><path style="opacity:1" fill="#4a4b4a" d="M 138.5,2822.5 C 140.167,2822.5 141.833,2822.5 143.5,2822.5C 143.5,2833.5 143.5,2844.5 143.5,2855.5C 141.833,2855.5 140.167,2855.5 138.5,2855.5C 138.5,2844.5 138.5,2833.5 138.5,2822.5 Z"/></g>
<g><path style="opacity:1" fill="#7f7f7f" d="M 262.5,2825.5 C 262.217,2826.29 261.717,2826.96 261,2827.5C 260.506,2825.87 260.34,2824.2 260.5,2822.5C 259.167,2822.5 257.833,2822.5 256.5,2822.5C 256.5,2833.5 256.5,2844.5 256.5,2855.5C 255.505,2844.35 255.172,2833.01 255.5,2821.5C 257.5,2821.5 259.5,2821.5 261.5,2821.5C 261.232,2823.1 261.566,2824.43 262.5,2825.5 Z"/></g>
<g><path style="opacity:1" fill="#515151" d="M 311.5,2822.5 C 313.5,2822.5 315.5,2822.5 317.5,2822.5C 319.425,2830.61 321.759,2838.61 324.5,2846.5C 327.772,2838.68 330.438,2830.68 332.5,2822.5C 334.833,2822.5 337.167,2822.5 339.5,2822.5C 341.892,2830.84 344.392,2839.18 347,2847.5C 350.009,2839.31 352.509,2830.98 354.5,2822.5C 356.604,2822.2 358.604,2822.53 360.5,2823.5C 357.167,2833.83 353.833,2844.17 350.5,2854.5C 348.5,2855.83 346.5,2855.83 344.5,2854.5C 341.966,2846.07 339.133,2837.73 336,2829.5C 332.675,2837.97 329.842,2846.64 327.5,2855.5C 324.921,2855.92 322.754,2855.25 321,2853.5C 317.675,2843.19 314.508,2832.86 311.5,2822.5 Z"/></g>
<g><path style="opacity:1" fill="#fcfcfc" d="M 1424.5,2822.5 C 1425.49,2828.31 1425.82,2834.31 1425.5,2840.5C 1421.15,2840.67 1416.82,2840.5 1412.5,2840C 1416.63,2834.22 1420.63,2828.39 1424.5,2822.5 Z"/></g>
<g><path style="opacity:1" fill="#fafafa" d="M 225.5,2826.5 C 232.079,2825.04 236.579,2827.37 239,2833.5C 240.652,2839.96 239.152,2845.46 234.5,2850C 226.904,2852.95 222.071,2850.45 220,2842.5C 218.189,2835.81 220.022,2830.48 225.5,2826.5 Z"/></g>
<g><path style="opacity:1" fill="#b9b9b9" d="M 151.5,2826.5 C 153.167,2826.5 154.833,2826.5 156.5,2826.5C 156.5,2834.17 156.5,2841.83 156.5,2849.5C 155.508,2842.35 155.175,2835.02 155.5,2827.5C 153.901,2827.77 152.568,2827.43 151.5,2826.5 Z"/></g>
<g><path style="opacity:1" fill="#f48686" d="M 568.5,2832.5 C 567.432,2833.43 566.099,2833.77 564.5,2833.5C 564.5,2835.5 564.5,2837.5 564.5,2839.5C 563.532,2837.39 563.198,2835.06 563.5,2832.5C 565.167,2832.5 566.833,2832.5 568.5,2832.5 Z"/></g>
<g><path style="opacity:1" fill="#eb2d2f" d="M 535.5,2837.5 C 542.167,2837.5 548.833,2837.5 555.5,2837.5C 555.5,2839.83 555.5,2842.17 555.5,2844.5C 548.833,2844.5 542.167,2844.5 535.5,2844.5C 535.5,2842.17 535.5,2839.83 535.5,2837.5 Z"/></g>
<g><path style="opacity:1" fill="#f4f4f4" d="M 288.5,2839.5 C 292.167,2839.5 295.833,2839.5 299.5,2839.5C 299.426,2848.72 294.759,2852.56 285.5,2851C 280.983,2845.76 281.983,2841.92 288.5,2839.5 Z"/></g>
<g><path style="opacity:1" fill="#f5f5f5" d="M 376.5,2839.5 C 380.167,2839.5 383.833,2839.5 387.5,2839.5C 387.356,2848.75 382.689,2852.58 373.5,2851C 368.983,2845.76 369.983,2841.92 376.5,2839.5 Z"/></g>
<g><path style="opacity:1" fill="#f59596" d="M 535.5,2837.5 C 542.313,2836.51 549.313,2836.18 556.5,2836.5C 556.5,2839.5 556.5,2842.5 556.5,2845.5C 549.313,2845.82 542.313,2845.49 535.5,2844.5C 542.167,2844.5 548.833,2844.5 555.5,2844.5C 555.5,2842.17 555.5,2839.83 555.5,2837.5C 548.833,2837.5 542.167,2837.5 535.5,2837.5 Z"/></g>
<g><path style="opacity:1" fill="#ec3536" d="M 641.5,2850.5 C 645.167,2850.5 648.833,2850.5 652.5,2850.5C 652.666,2855.84 652.499,2861.18 652,2866.5C 650.77,2869.73 648.77,2872.4 646,2874.5C 644.833,2873.33 643.667,2872.17 642.5,2871C 645.62,2868.59 646.953,2865.43 646.5,2861.5C 644.833,2861.5 643.167,2861.5 641.5,2861.5C 641.5,2857.83 641.5,2854.17 641.5,2850.5 Z"/></g>
<g><path style="opacity:1" fill="#5f5f5f" d="M 481.5,2991.5 C 662.167,2991.33 842.834,2991.5 1023.5,2992C 1031.18,2994.35 1033.35,2999.18 1030,3006.5C 1028.83,3008.33 1027.33,3009.83 1025.5,3011C 844.167,3011.67 662.833,3011.67 481.5,3011C 473.541,3004.5 473.541,2998 481.5,2991.5 Z"/></g>
</svg>
