<?xml version="1.0" encoding="UTF-8"?>
<!DOCTYPE svg PUBLIC "-//W3C//DTD SVG 1.1//EN" "http://www.w3.org/Graphics/SVG/1.1/DTD/svg11.dtd">
<svg xmlns="http://www.w3.org/2000/svg" version="1.1" width="1736px" height="1736px" style="shape-rendering:geometricPrecision; text-rendering:geometricPrecision; image-rendering:optimizeQuality; fill-rule:evenodd; clip-rule:evenodd" xmlns:xlink="http://www.w3.org/1999/xlink">
<g><path style="opacity:0.928" fill="#eb5e39" d="M 826.5,-0.5 C 853.833,-0.5 881.167,-0.5 908.5,-0.5C 1125.11,12.8161 1312.11,93.3161 1469.5,241C 1632.42,401.727 1721.09,596.894 1735.5,826.5C 1735.5,853.833 1735.5,881.167 1735.5,908.5C 1722.18,1125.11 1641.68,1312.11 1494,1469.5C 1333.27,1632.42 1138.11,1721.09 908.5,1735.5C 881.167,1735.5 853.833,1735.5 826.5,1735.5C 609.893,1722.18 422.893,1641.68 265.5,1494C 102.578,1333.27 13.911,1138.11 -0.5,908.5C -0.5,881.167 -0.5,853.833 -0.5,826.5C 12.8161,609.893 93.3161,422.893 241,265.5C 401.727,102.578 596.894,13.911 826.5,-0.5 Z"/></g>
<g><path style="opacity:0.6" fill="#fb9d7c" d="M 839.5,3.5 C 1077.42,-0.118397 1283.76,77.7149 1458.5,237C 1629.07,401.023 1719.9,601.856 1731,839.5C 1734.98,1078.02 1656.98,1284.69 1497,1459.5C 1332,1630.46 1130.17,1720.96 891.5,1731C 655.52,1734.37 450.853,1657.04 277.5,1499C 104.932,1333.5 13.7654,1130.66 4,890.5C 0.394345,684.659 60.7277,500.326 185,337.5C 320.238,167.241 495.072,60.7409 709.5,18C 752.671,10.4511 796.005,5.61781 839.5,3.5 Z"/></g>
<g><path style="opacity:0.971" fill="#fe987d" d="M 769.5,156.5 C 773.167,156.5 776.833,156.5 780.5,156.5C 785.254,172.014 790.588,187.348 796.5,202.5C 793.232,203.487 789.898,203.82 786.5,203.5C 785.909,200.06 784.909,196.727 783.5,193.5C 777.537,192.504 771.537,192.171 765.5,192.5C 764.909,195.94 763.909,199.273 762.5,202.5C 759.572,203.484 756.572,203.817 753.5,203.5C 758.436,187.691 763.77,172.025 769.5,156.5 Z"/></g>
<g><path style="opacity:0.979" fill="#fe997d" d="M 824.5,156.5 C 827.167,156.5 829.833,156.5 832.5,156.5C 832.5,172.167 832.5,187.833 832.5,203.5C 829.833,203.5 827.167,203.5 824.5,203.5C 824.995,197.814 823.995,197.314 821.5,202C 807.298,206.542 799.965,201.208 799.5,186C 799.598,174.585 805.098,168.418 816,167.5C 819.21,168.701 821.877,170.701 824,173.5C 824.499,167.843 824.666,162.176 824.5,156.5 Z"/></g>
<g><path style="opacity:0.966" fill="#fe987d" d="M 905.5,167.5 C 911.444,166.966 916.611,168.966 921,173.5C 922.009,175.025 922.509,176.692 922.5,178.5C 919.813,178.664 917.146,178.497 914.5,178C 911.909,174.508 908.575,173.674 904.5,175.5C 901.956,177.392 901.956,179.225 904.5,181C 910.871,181.878 916.704,184.045 922,187.5C 924.594,198.434 920.094,204.101 908.5,204.5C 903.358,204.509 898.858,202.842 895,199.5C 893.872,197.655 893.372,195.655 893.5,193.5C 896.119,193.768 898.619,193.435 901,192.5C 904.203,197.916 908.536,198.916 914,195.5C 914.711,193.633 914.211,192.133 912.5,191C 908.535,189.874 904.535,188.874 900.5,188C 894.334,184.344 892.834,179.178 896,172.5C 898.907,170.132 902.074,168.465 905.5,167.5 Z"/></g>
<g><path style="opacity:0.971" fill="#fe997d" d="M 942.5,167.5 C 956.918,168.103 963.418,175.77 962,190.5C 958.033,202.734 949.867,206.901 937.5,203C 929.375,197.64 926.542,190.14 929,180.5C 930.784,173.214 935.284,168.88 942.5,167.5 Z"/></g>
<g><path style="opacity:0.963" fill="#fe987d" d="M 983.5,167.5 C 985.42,168.279 987.253,168.613 989,168.5C 989.667,170.833 989.667,173.167 989,175.5C 987.026,175.626 984.859,175.792 982.5,176C 980.333,176.833 978.833,178.333 978,180.5C 977.5,188.159 977.334,195.826 977.5,203.5C 974.5,203.5 971.5,203.5 968.5,203.5C 968.5,191.833 968.5,180.167 968.5,168.5C 971.5,168.5 974.5,168.5 977.5,168.5C 977.343,169.873 977.51,171.207 978,172.5C 979.352,170.251 981.185,168.584 983.5,167.5 Z"/></g>
<g><path style="opacity:0.971" fill="#fe987d" d="M 838.5,168.5 C 841.777,168.216 844.943,168.549 848,169.5C 850.207,177.286 852.707,184.952 855.5,192.5C 858.317,184.904 860.984,177.237 863.5,169.5C 866.5,168.167 869.5,168.167 872.5,169.5C 868.5,180.5 864.5,191.5 860.5,202.5C 857.167,203.833 853.833,203.833 850.5,202.5C 846.295,191.219 842.295,179.885 838.5,168.5 Z"/></g>
<g><path style="opacity:1" fill="#eb5538" d="M 1037.5,527.5 C 1109.96,524.14 1165.46,552.806 1204,613.5C 1233.87,669.158 1235.2,725.492 1208,782.5C 1177.49,836.368 1131.32,867.201 1069.5,875C 997.038,878.856 941.538,850.356 903,789.5C 873.196,733.818 871.862,677.485 899,620.5C 929.698,566.662 975.865,535.662 1037.5,527.5 Z"/></g>
<g><path style="opacity:1" fill="#fe8055" d="M 1037.5,531.5 C 1109.61,528.628 1164.44,557.628 1202,618.5C 1230.57,673.821 1230.57,729.154 1202,784.5C 1165.02,844.913 1110.86,873.747 1039.5,871C 980.096,864.406 935.263,835.572 905,784.5C 876.336,729.127 876.336,673.794 905,618.5C 934.975,568.083 979.142,539.083 1037.5,531.5 Z"/></g>
<g><path style="opacity:1" fill="#130905" d="M 936.5,680.5 C 946.411,678.436 952.745,682.103 955.5,691.5C 954.022,691.762 952.689,691.429 951.5,690.5C 950.699,687.867 949.033,686.033 946.5,685C 936.149,683.009 930.816,687.342 930.5,698C 930.768,708.603 936.101,712.936 946.5,711C 949.033,709.967 950.699,708.133 951.5,705.5C 952.689,704.571 954.022,704.238 955.5,704.5C 952.745,714.056 946.412,717.556 936.5,715C 931.6,713.098 928.433,709.598 927,704.5C 924.424,694.014 927.591,686.014 936.5,680.5 Z"/></g>
<g><path style="opacity:1" fill="#130905" d="M 1058.5,680.5 C 1060.77,680.141 1062.6,680.808 1064,682.5C 1068.3,693.372 1072.13,704.372 1075.5,715.5C 1074.02,715.762 1072.69,715.429 1071.5,714.5C 1070.5,711.833 1069.5,709.167 1068.5,706.5C 1063.5,705.167 1058.5,705.167 1053.5,706.5C 1052.5,709.167 1051.5,711.833 1050.5,714.5C 1049.31,715.429 1047.98,715.762 1046.5,715.5C 1050.5,703.845 1054.5,692.178 1058.5,680.5 Z"/></g>
<g><path style="opacity:1" fill="#140a06" d="M 1019.5,682.5 C 1020.83,682.5 1022.17,682.5 1023.5,682.5C 1023.5,684.833 1023.5,687.167 1023.5,689.5C 1025.17,689.5 1026.83,689.5 1028.5,689.5C 1028.5,690.5 1028.5,691.5 1028.5,692.5C 1026.83,692.5 1025.17,692.5 1023.5,692.5C 1023.33,698.509 1023.5,704.509 1024,710.5C 1025.36,711.38 1026.86,711.714 1028.5,711.5C 1028.5,712.833 1028.5,714.167 1028.5,715.5C 1025.03,716.125 1022.2,715.125 1020,712.5C 1019.5,705.842 1019.33,699.175 1019.5,692.5C 1018.17,692.5 1016.83,692.5 1015.5,692.5C 1015.5,691.5 1015.5,690.5 1015.5,689.5C 1016.83,689.5 1018.17,689.5 1019.5,689.5C 1019.5,687.167 1019.5,684.833 1019.5,682.5 Z"/></g>
<g><path style="opacity:1" fill="#1d110b" d="M 1172.5,689.5 C 1174.17,689.5 1175.83,689.5 1177.5,689.5C 1177.5,690.5 1177.5,691.5 1177.5,692.5C 1175.83,692.5 1174.17,692.5 1172.5,692.5C 1172.5,698.833 1172.5,705.167 1172.5,711.5C 1174.17,711.5 1175.83,711.5 1177.5,711.5C 1177.5,712.833 1177.5,714.167 1177.5,715.5C 1173.41,716.295 1170.24,714.962 1168,711.5C 1167.5,705.175 1167.33,698.842 1167.5,692.5C 1166.5,692.5 1165.5,692.5 1164.5,692.5C 1164.5,691.5 1164.5,690.5 1164.5,689.5C 1165.5,689.5 1166.5,689.5 1167.5,689.5C 1168.46,687.735 1168.79,685.735 1168.5,683.5C 1169.5,683.5 1170.5,683.5 1171.5,683.5C 1171.21,685.735 1171.54,687.735 1172.5,689.5 Z"/></g>
<g><path style="opacity:1" fill="#793d28" d="M 1172.5,689.5 C 1171.54,687.735 1171.21,685.735 1171.5,683.5C 1170.5,683.5 1169.5,683.5 1168.5,683.5C 1168.79,685.735 1168.46,687.735 1167.5,689.5C 1167.5,687.167 1167.5,684.833 1167.5,682.5C 1169.17,682.5 1170.83,682.5 1172.5,682.5C 1172.5,684.833 1172.5,687.167 1172.5,689.5 Z"/></g>
<g><path style="opacity:1" fill="#ef7950" d="M 1060.5,686.5 C 1063.06,690.819 1065.06,695.486 1066.5,700.5C 1062.83,701.833 1059.17,701.833 1055.5,700.5C 1057.48,695.915 1059.14,691.248 1060.5,686.5 Z"/></g>
<g><path style="opacity:1" fill="#1a0f09" d="M 962.5,680.5 C 963.833,680.5 965.167,680.5 966.5,680.5C 966.334,684.514 966.501,688.514 967,692.5C 970.257,689.572 974.091,688.738 978.5,690C 980.815,691.109 982.315,692.943 983,695.5C 983.5,702.158 983.666,708.825 983.5,715.5C 982.167,715.5 980.833,715.5 979.5,715.5C 979.666,709.158 979.5,702.825 979,696.5C 975.432,691.59 971.432,691.257 967,695.5C 966.5,702.158 966.334,708.825 966.5,715.5C 965.167,715.5 963.833,715.5 962.5,715.5C 962.5,703.833 962.5,692.167 962.5,680.5 Z"/></g>
<g><path style="opacity:1" fill="#180d08" d="M 994.5,689.5 C 998.182,689.335 1001.85,689.501 1005.5,690C 1007.81,691.109 1009.31,692.943 1010,695.5C 1010.5,702.158 1010.67,708.825 1010.5,715.5C 1009.17,715.5 1007.83,715.5 1006.5,715.5C 1006.65,714.448 1006.48,713.448 1006,712.5C 1001.36,717.437 996.356,717.771 991,713.5C 987.883,707.533 989.383,703.366 995.5,701C 999.114,700.064 1002.78,699.564 1006.5,699.5C 1006.19,693.697 1003.19,691.53 997.5,693C 995.694,693.81 994.194,694.976 993,696.5C 991.72,696.387 990.887,695.72 990.5,694.5C 991.857,692.814 993.19,691.148 994.5,689.5 Z"/></g>
<g><path style="opacity:1" fill="#130905" d="M 1086.5,689.5 C 1089.52,689.335 1092.52,689.502 1095.5,690C 1097.56,693.3 1098.56,693.133 1098.5,689.5C 1099.83,689.5 1101.17,689.5 1102.5,689.5C 1102.67,699.839 1102.5,710.172 1102,720.5C 1099.49,724.169 1095.99,725.835 1091.5,725.5C 1088.74,725.458 1086.07,724.958 1083.5,724C 1080.68,721.885 1080.85,720.052 1084,718.5C 1088.38,723.343 1093.05,723.677 1098,719.5C 1098.67,716.833 1098.67,714.167 1098,711.5C 1091.27,717.223 1085.6,716.223 1081,708.5C 1077.77,700.573 1079.6,694.24 1086.5,689.5 Z"/></g>
<g><path style="opacity:1" fill="#0e0604" d="M 1131.5,703.5 C 1125.17,703.5 1118.83,703.5 1112.5,703.5C 1112.26,704.791 1112.6,705.791 1113.5,706.5C 1115.22,712.027 1118.89,713.86 1124.5,712C 1126.22,708.622 1128.55,707.956 1131.5,710C 1130.5,712.333 1128.83,714 1126.5,715C 1112.24,717.06 1106.74,710.894 1110,696.5C 1114.04,689.393 1119.87,687.56 1127.5,691C 1131.04,694.387 1132.37,698.553 1131.5,703.5 Z"/></g>
<g><path style="opacity:1" fill="#140a06" d="M 1138.5,689.5 C 1139.5,689.5 1140.5,689.5 1141.5,689.5C 1141.37,694.272 1142.7,694.438 1145.5,690C 1150.53,688.506 1154.69,689.673 1158,693.5C 1158.5,700.826 1158.67,708.159 1158.5,715.5C 1157.17,715.5 1155.83,715.5 1154.5,715.5C 1154.67,708.825 1154.5,702.158 1154,695.5C 1150.33,691.5 1146.67,691.5 1143,695.5C 1142.5,702.158 1142.33,708.825 1142.5,715.5C 1141.17,715.5 1139.83,715.5 1138.5,715.5C 1138.5,706.833 1138.5,698.167 1138.5,689.5 Z"/></g>
<g><path style="opacity:1" fill="#f57c52" d="M 1088.5,692.5 C 1098.09,693.106 1101.26,698.106 1098,707.5C 1095.4,711.212 1091.9,712.378 1087.5,711C 1081.94,704.425 1082.28,698.258 1088.5,692.5 Z"/></g>
<g><path style="opacity:1" fill="#ee7850" d="M 1117.5,692.5 C 1124.01,691.404 1127.35,694.071 1127.5,700.5C 1122.83,700.5 1118.17,700.5 1113.5,700.5C 1113.34,699.127 1113.51,697.793 1114,696.5C 1115.38,695.295 1116.54,693.962 1117.5,692.5 Z"/></g>
<g><path style="opacity:1" fill="#f27a51" d="M 1003.5,703.5 C 1005.26,704.552 1005.92,706.219 1005.5,708.5C 1002.37,712.925 998.533,713.592 994,710.5C 993.257,708.559 993.424,706.726 994.5,705C 997.351,703.711 1000.35,703.211 1003.5,703.5 Z"/></g>
<g><path style="opacity:1" fill="#8b462e" d="M 1003.5,703.5 C 1004.21,702.596 1005.21,702.263 1006.5,702.5C 1006.79,704.735 1006.46,706.735 1005.5,708.5C 1005.92,706.219 1005.26,704.552 1003.5,703.5 Z"/></g>
<g><path style="opacity:1" fill="#b3593c" d="M 1131.5,703.5 C 1125.26,703.853 1119.26,704.853 1113.5,706.5C 1112.6,705.791 1112.26,704.791 1112.5,703.5C 1118.83,703.5 1125.17,703.5 1131.5,703.5 Z"/></g>
<g><path style="opacity:1" fill="#eb5538" d="M 665.5,931.5 C 737.956,928.14 793.456,956.806 832,1017.5C 861.866,1073.16 863.2,1129.49 836,1186.5C 805.486,1240.37 759.319,1271.2 697.5,1279C 625.038,1282.86 569.538,1254.36 531,1193.5C 501.196,1137.82 499.862,1081.49 527,1024.5C 557.698,970.662 603.865,939.662 665.5,931.5 Z"/></g>
<g><path style="opacity:1" fill="#fd8055" d="M 665.5,935.5 C 737.606,932.628 792.439,961.628 830,1022.5C 858.572,1077.82 858.572,1133.15 830,1188.5C 793.023,1248.91 738.856,1277.75 667.5,1275C 608.096,1268.41 563.263,1239.57 533,1188.5C 504.336,1133.13 504.336,1077.79 533,1022.5C 562.975,972.083 607.142,943.083 665.5,935.5 Z"/></g>
<g><path style="opacity:1" fill="#140a06" d="M 585.5,1060.5 C 594.901,1058.73 601.568,1062.06 605.5,1070.5C 603.955,1071.45 602.288,1071.79 600.5,1071.5C 600.201,1068.36 598.534,1066.19 595.5,1065C 585.12,1063.04 579.787,1067.38 579.5,1078C 579.954,1089.12 585.621,1093.45 596.5,1091C 598.923,1089.43 600.256,1087.26 600.5,1084.5C 601.833,1084.5 603.167,1084.5 604.5,1084.5C 604.335,1089.84 601.668,1093.34 596.5,1095C 585.189,1097.36 578.356,1092.86 576,1081.5C 574.646,1072.38 577.812,1065.38 585.5,1060.5 Z"/></g>
<g><path style="opacity:1" fill="#160c07" d="M 666.5,1062.5 C 667.833,1062.5 669.167,1062.5 670.5,1062.5C 670.5,1064.83 670.5,1067.17 670.5,1069.5C 672.167,1069.5 673.833,1069.5 675.5,1069.5C 675.5,1070.5 675.5,1071.5 675.5,1072.5C 673.833,1072.5 672.167,1072.5 670.5,1072.5C 670.334,1078.51 670.501,1084.51 671,1090.5C 672.399,1091.23 673.899,1091.73 675.5,1092C 676.337,1093.01 676.67,1094.18 676.5,1095.5C 672.713,1096.19 669.546,1095.19 667,1092.5C 666.5,1085.84 666.334,1079.17 666.5,1072.5C 665.167,1072.5 663.833,1072.5 662.5,1072.5C 662.5,1071.5 662.5,1070.5 662.5,1069.5C 663.833,1069.5 665.167,1069.5 666.5,1069.5C 666.5,1067.17 666.5,1064.83 666.5,1062.5 Z"/></g>
<g><path style="opacity:1" fill="#080302" d="M 611.5,1069.5 C 612.833,1069.5 614.167,1069.5 615.5,1069.5C 615.334,1075.84 615.5,1082.18 616,1088.5C 616.758,1090.91 618.425,1091.91 621,1091.5C 624.235,1091.72 626.568,1090.38 628,1087.5C 628.499,1081.51 628.666,1075.51 628.5,1069.5C 629.5,1069.5 630.5,1069.5 631.5,1069.5C 631.5,1078.17 631.5,1086.83 631.5,1095.5C 630.5,1095.5 629.5,1095.5 628.5,1095.5C 628.558,1091.3 627.558,1090.8 625.5,1094C 620.962,1096.3 616.795,1095.8 613,1092.5C 611.568,1084.95 611.068,1077.28 611.5,1069.5 Z"/></g>
<g><path style="opacity:1" fill="#130905" d="M 643.5,1069.5 C 646.85,1069.33 650.183,1069.5 653.5,1070C 656.87,1071.46 657.537,1073.3 655.5,1075.5C 653.369,1074.04 651.035,1073.04 648.5,1072.5C 644.009,1072.81 642.676,1074.98 644.5,1079C 647.73,1080.31 651.064,1081.31 654.5,1082C 659.951,1086.75 659.617,1091.09 653.5,1095C 649.833,1095.67 646.167,1095.67 642.5,1095C 640.981,1093.65 639.648,1092.15 638.5,1090.5C 638.887,1089.28 639.72,1088.61 641,1088.5C 644.35,1092.81 648.517,1093.64 653.5,1091C 654.833,1089.33 654.833,1087.67 653.5,1086C 649.229,1084.73 645.063,1083.23 641,1081.5C 638.383,1076.58 639.217,1072.58 643.5,1069.5 Z"/></g>
<g><path style="opacity:1" fill="#120805" d="M 687.5,1069.5 C 700.493,1068.32 705.826,1074.15 703.5,1087C 700.702,1094.4 695.369,1097.07 687.5,1095C 681.412,1090.75 679.246,1084.91 681,1077.5C 682.305,1074.04 684.471,1071.37 687.5,1069.5 Z"/></g>
<g><path style="opacity:1" fill="#0e0603" d="M 710.5,1069.5 C 711.833,1069.5 713.167,1069.5 714.5,1069.5C 714.443,1073.13 715.443,1073.3 717.5,1070C 721.709,1068.81 725.376,1069.64 728.5,1072.5C 732.844,1069.21 737.511,1068.71 742.5,1071C 743.126,1071.75 743.626,1072.58 744,1073.5C 744.5,1080.83 744.666,1088.16 744.5,1095.5C 743.167,1095.5 741.833,1095.5 740.5,1095.5C 740.666,1088.49 740.5,1081.49 740,1074.5C 736.304,1071.57 732.971,1071.91 730,1075.5C 729.5,1082.16 729.334,1088.83 729.5,1095.5C 728.167,1095.5 726.833,1095.5 725.5,1095.5C 725.666,1088.83 725.5,1082.16 725,1075.5C 721.714,1071.51 718.381,1071.51 715,1075.5C 714.5,1082.16 714.334,1088.83 714.5,1095.5C 713.167,1095.5 711.833,1095.5 710.5,1095.5C 710.5,1086.83 710.5,1078.17 710.5,1069.5 Z"/></g>
<g><path style="opacity:1" fill="#110804" d="M 773.5,1083.5 C 767.167,1083.5 760.833,1083.5 754.5,1083.5C 754.263,1084.79 754.596,1085.79 755.5,1086.5C 757.192,1091.99 760.859,1093.82 766.5,1092C 768.216,1088.62 770.549,1087.96 773.5,1090C 772.403,1092.76 770.403,1094.43 767.5,1095C 754.841,1096.92 749.341,1091.42 751,1078.5C 754.981,1069.14 761.481,1066.97 770.5,1072C 773.154,1075.33 774.154,1079.16 773.5,1083.5 Z"/></g>
<g><path style="opacity:1" fill="#23150f" d="M 792.5,1069.5 C 792.5,1070.5 792.5,1071.5 792.5,1072.5C 790.901,1072.23 789.568,1072.57 788.5,1073.5C 786.983,1073.51 785.816,1074.18 785,1075.5C 784.5,1082.16 784.334,1088.83 784.5,1095.5C 782.833,1095.5 781.167,1095.5 779.5,1095.5C 779.5,1086.83 779.5,1078.17 779.5,1069.5C 780.833,1069.5 782.167,1069.5 783.5,1069.5C 783.351,1070.55 783.517,1071.55 784,1072.5C 786.3,1069.24 789.133,1068.24 792.5,1069.5 Z"/></g>
<g><path style="opacity:1" fill="#9e4f35" d="M 792.5,1069.5 C 793.434,1070.57 793.768,1071.9 793.5,1073.5C 791.833,1073.5 790.167,1073.5 788.5,1073.5C 789.568,1072.57 790.901,1072.23 792.5,1072.5C 792.5,1071.5 792.5,1070.5 792.5,1069.5 Z"/></g>
<g><path style="opacity:1" fill="#f37b52" d="M 689.5,1072.5 C 698.432,1072.95 701.932,1077.61 700,1086.5C 695.421,1094.1 690.421,1094.43 685,1087.5C 684.333,1084.17 684.333,1080.83 685,1077.5C 686.025,1075.31 687.525,1073.65 689.5,1072.5 Z"/></g>
<g><path style="opacity:1" fill="#eb774f" d="M 759.5,1072.5 C 765.857,1071.53 769.19,1074.2 769.5,1080.5C 764.456,1080.83 759.456,1080.49 754.5,1079.5C 755.466,1076.53 757.133,1074.2 759.5,1072.5 Z"/></g>
<g><path style="opacity:1" fill="#b85c3d" d="M 773.5,1083.5 C 767.265,1083.85 761.265,1084.85 755.5,1086.5C 754.596,1085.79 754.263,1084.79 754.5,1083.5C 760.833,1083.5 767.167,1083.5 773.5,1083.5 Z"/></g>
<g><path style="opacity:1" fill="#110704" d="M 548.5,1119.5 C 551.91,1119.38 553.244,1121.05 552.5,1124.5C 548.065,1125.08 546.732,1123.41 548.5,1119.5 Z"/></g>
<g><path style="opacity:1" fill="#170c07" d="M 613.5,1119.5 C 617.161,1119.35 618.161,1120.85 616.5,1124C 611.522,1124.86 610.522,1123.36 613.5,1119.5 Z"/></g>
<g><path style="opacity:1" fill="#100704" d="M 683.5,1122.5 C 684.833,1122.5 686.167,1122.5 687.5,1122.5C 687.5,1124.83 687.5,1127.17 687.5,1129.5C 689.167,1129.5 690.833,1129.5 692.5,1129.5C 692.5,1130.5 692.5,1131.5 692.5,1132.5C 690.833,1132.5 689.167,1132.5 687.5,1132.5C 687.334,1138.51 687.501,1144.51 688,1150.5C 689.399,1151.23 690.899,1151.73 692.5,1152C 693.337,1153.01 693.67,1154.18 693.5,1155.5C 691.143,1155.66 688.81,1155.5 686.5,1155C 685.299,1154.1 684.465,1152.93 684,1151.5C 683.5,1145.18 683.334,1138.84 683.5,1132.5C 682.167,1132.5 680.833,1132.5 679.5,1132.5C 679.5,1131.5 679.5,1130.5 679.5,1129.5C 680.833,1129.5 682.167,1129.5 683.5,1129.5C 683.5,1127.17 683.5,1124.83 683.5,1122.5 Z"/></g>
<g><path style="opacity:1" fill="#140a06" d="M 714.5,1122.5 C 715.833,1122.5 717.167,1122.5 718.5,1122.5C 718.5,1124.83 718.5,1127.17 718.5,1129.5C 720.167,1129.5 721.833,1129.5 723.5,1129.5C 723.5,1130.5 723.5,1131.5 723.5,1132.5C 721.833,1132.5 720.167,1132.5 718.5,1132.5C 718.334,1138.51 718.501,1144.51 719,1150.5C 720.356,1151.38 721.856,1151.71 723.5,1151.5C 723.5,1152.83 723.5,1154.17 723.5,1155.5C 720.03,1156.13 717.196,1155.13 715,1152.5C 714.5,1145.84 714.334,1139.17 714.5,1132.5C 713.167,1132.5 711.833,1132.5 710.5,1132.5C 710.5,1131.5 710.5,1130.5 710.5,1129.5C 711.833,1129.5 713.167,1129.5 714.5,1129.5C 714.5,1127.17 714.5,1124.83 714.5,1122.5 Z"/></g>
<g><path style="opacity:1" fill="#000000" d="M 548.5,1129.5 C 549.5,1129.5 550.5,1129.5 551.5,1129.5C 551.5,1138.17 551.5,1146.83 551.5,1155.5C 550.5,1155.5 549.5,1155.5 548.5,1155.5C 548.5,1146.83 548.5,1138.17 548.5,1129.5 Z"/></g>
<g><path style="opacity:1" fill="#130906" d="M 559.5,1129.5 C 560.833,1129.5 562.167,1129.5 563.5,1129.5C 563.443,1133.13 564.443,1133.3 566.5,1130C 570.572,1129.04 574.405,1129.54 578,1131.5C 578.667,1132.83 579.333,1134.17 580,1135.5C 580.5,1142.16 580.666,1148.83 580.5,1155.5C 579.167,1155.5 577.833,1155.5 576.5,1155.5C 576.666,1149.16 576.5,1142.82 576,1136.5C 573.469,1132.21 569.969,1131.38 565.5,1134C 564.874,1134.75 564.374,1135.58 564,1136.5C 563.5,1142.82 563.334,1149.16 563.5,1155.5C 562.167,1155.5 560.833,1155.5 559.5,1155.5C 559.5,1146.83 559.5,1138.17 559.5,1129.5 Z"/></g>
<g><path style="opacity:1" fill="#100704" d="M 591.5,1129.5 C 594.85,1129.33 598.183,1129.5 601.5,1130C 604.87,1131.46 605.537,1133.3 603.5,1135.5C 600.628,1132.85 597.295,1132.02 593.5,1133C 591.398,1134.73 591.065,1136.73 592.5,1139C 597.785,1139.64 602.285,1141.81 606,1145.5C 607.057,1149.89 605.557,1153.05 601.5,1155C 597.833,1155.67 594.167,1155.67 590.5,1155C 588.586,1153.59 587.253,1151.75 586.5,1149.5C 587.167,1149.17 587.833,1148.83 588.5,1148.5C 592.342,1153 596.842,1153.67 602,1150.5C 602.72,1148.89 602.554,1147.39 601.5,1146C 596.683,1145.21 592.349,1143.38 588.5,1140.5C 587.456,1138.23 587.289,1135.9 588,1133.5C 589.376,1132.29 590.542,1130.96 591.5,1129.5 Z"/></g>
<g><path style="opacity:1" fill="#000000" d="M 612.5,1129.5 C 613.833,1129.5 615.167,1129.5 616.5,1129.5C 616.5,1138.17 616.5,1146.83 616.5,1155.5C 615.167,1155.5 613.833,1155.5 612.5,1155.5C 612.5,1146.83 612.5,1138.17 612.5,1129.5 Z"/></g>
<g><path style="opacity:1" fill="#130905" d="M 629.5,1129.5 C 632.518,1129.34 635.518,1129.5 638.5,1130C 640.557,1133.3 641.557,1133.13 641.5,1129.5C 642.833,1129.5 644.167,1129.5 645.5,1129.5C 645.666,1139.84 645.5,1150.17 645,1160.5C 642.531,1164.15 639.031,1165.82 634.5,1165.5C 630.215,1165.85 626.882,1164.35 624.5,1161C 626.134,1157.71 627.801,1157.71 629.5,1161C 638.758,1164.29 642.591,1161.13 641,1151.5C 640.167,1152.33 639.333,1153.17 638.5,1154C 626.298,1155.46 621.131,1149.96 623,1137.5C 624.305,1134.04 626.471,1131.37 629.5,1129.5 Z"/></g>
<g><path style="opacity:1" fill="#150a06" d="M 653.5,1120.5 C 654.833,1120.5 656.167,1120.5 657.5,1120.5C 657.334,1124.51 657.501,1128.51 658,1132.5C 661.257,1129.57 665.091,1128.74 669.5,1130C 671.552,1130.93 673.052,1132.43 674,1134.5C 674.5,1141.49 674.666,1148.49 674.5,1155.5C 673.167,1155.5 671.833,1155.5 670.5,1155.5C 670.666,1149.16 670.5,1142.82 670,1136.5C 667.469,1132.21 663.969,1131.38 659.5,1134C 658.874,1134.75 658.374,1135.58 658,1136.5C 657.5,1142.82 657.334,1149.16 657.5,1155.5C 656.167,1155.5 654.833,1155.5 653.5,1155.5C 653.5,1143.83 653.5,1132.17 653.5,1120.5 Z"/></g>
<g><path style="opacity:1" fill="#0c0503" d="M 735.5,1129.5 C 746.136,1128.14 751.469,1132.8 751.5,1143.5C 745.167,1143.5 738.833,1143.5 732.5,1143.5C 732.817,1150.65 736.484,1153.48 743.5,1152C 745.306,1151.19 746.806,1150.02 748,1148.5C 749.28,1148.61 750.113,1149.28 750.5,1150.5C 748.258,1154.29 744.925,1155.95 740.5,1155.5C 734.196,1155.7 730.363,1152.7 729,1146.5C 727.305,1139.24 729.472,1133.57 735.5,1129.5 Z"/></g>
<g><path style="opacity:1" fill="#150b06" d="M 761.5,1129.5 C 765.182,1129.33 768.848,1129.5 772.5,1130C 773.931,1130.47 775.097,1131.3 776,1132.5C 777.432,1140.05 777.932,1147.72 777.5,1155.5C 776.167,1155.5 774.833,1155.5 773.5,1155.5C 773.649,1154.45 773.483,1153.45 773,1152.5C 764.959,1158.93 759.459,1157.26 756.5,1147.5C 756.883,1143.95 758.883,1141.78 762.5,1141C 766.114,1140.06 769.78,1139.56 773.5,1139.5C 773.427,1133.45 770.427,1131.29 764.5,1133C 762.697,1133.64 761.364,1134.8 760.5,1136.5C 759.328,1136.08 758.328,1135.41 757.5,1134.5C 758.857,1132.81 760.19,1131.15 761.5,1129.5 Z"/></g>
<g><path style="opacity:1" fill="#0d0503" d="M 784.5,1129.5 C 785.833,1129.5 787.167,1129.5 788.5,1129.5C 788.343,1130.87 788.51,1132.21 789,1133.5C 789.465,1132.07 790.299,1130.9 791.5,1130C 794.167,1129.33 796.833,1129.33 799.5,1130C 801.333,1130.5 802.5,1131.67 803,1133.5C 806.308,1129.67 810.474,1128.51 815.5,1130C 816.701,1130.9 817.535,1132.07 818,1133.5C 818.5,1140.83 818.666,1148.16 818.5,1155.5C 817.5,1155.5 816.5,1155.5 815.5,1155.5C 815.666,1148.83 815.5,1142.16 815,1135.5C 810.752,1131.16 807.085,1131.49 804,1136.5C 803.5,1142.82 803.334,1149.16 803.5,1155.5C 802.167,1155.5 800.833,1155.5 799.5,1155.5C 799.666,1148.49 799.5,1141.49 799,1134.5C 794.906,1131.52 791.573,1132.19 789,1136.5C 788.5,1142.82 788.334,1149.16 788.5,1155.5C 787.167,1155.5 785.833,1155.5 784.5,1155.5C 784.5,1146.83 784.5,1138.17 784.5,1129.5 Z"/></g>
<g><path style="opacity:1" fill="#f67c53" d="M 631.5,1132.5 C 641.093,1133.11 644.26,1138.11 641,1147.5C 637.975,1151.7 634.141,1152.53 629.5,1150C 625.018,1143.42 625.685,1137.59 631.5,1132.5 Z"/></g>
<g><path style="opacity:1" fill="#ed7850" d="M 737.5,1132.5 C 743.54,1131.88 746.874,1134.55 747.5,1140.5C 742.5,1140.5 737.5,1140.5 732.5,1140.5C 732.667,1136.82 734.334,1134.15 737.5,1132.5 Z"/></g>
<g><path style="opacity:1" fill="#ef7950" d="M 770.5,1142.5 C 771.5,1142.5 772.5,1142.5 773.5,1142.5C 773.199,1151.67 769.032,1154.34 761,1150.5C 760.202,1148.74 760.369,1147.07 761.5,1145.5C 764.515,1144.18 767.515,1143.18 770.5,1142.5 Z"/></g>
</svg>
