<?xml version="1.0" encoding="UTF-8"?>
<!DOCTYPE svg PUBLIC "-//W3C//DTD SVG 1.1//EN" "http://www.w3.org/Graphics/SVG/1.1/DTD/svg11.dtd">
<svg xmlns="http://www.w3.org/2000/svg" version="1.1" width="1336px" height="744px" style="shape-rendering:geometricPrecision; text-rendering:geometricPrecision; image-rendering:optimizeQuality; fill-rule:evenodd; clip-rule:evenodd" xmlns:xlink="http://www.w3.org/1999/xlink">
<g><path style="opacity:1" fill="#f4f4f4" d="M -0.5,-0.5 C 444.833,-0.5 890.167,-0.5 1335.5,-0.5C 1335.5,247.5 1335.5,495.5 1335.5,743.5C 890.167,743.5 444.833,743.5 -0.5,743.5C -0.5,495.5 -0.5,247.5 -0.5,-0.5 Z"/></g>
<g><path style="opacity:1" fill="#bababa" d="M 75.5,57.5 C 80.2137,57.1734 84.8804,57.5067 89.5,58.5C 92.7823,60.758 94.7823,63.758 95.5,67.5C 93.5,67.5 91.5,67.5 89.5,67.5C 89.6715,65.5082 89.0049,63.8415 87.5,62.5C 77.8426,59.8246 73.1759,63.4912 73.5,73.5C 73.1759,83.5088 77.8426,87.1754 87.5,84.5C 89.0049,83.1585 89.6715,81.4918 89.5,79.5C 91.604,79.2011 93.604,79.5344 95.5,80.5C 93.9866,83.5244 91.9866,86.1911 89.5,88.5C 76.5099,91.8478 69.1765,86.8478 67.5,73.5C 68.2729,68.6356 69.6062,63.969 71.5,59.5C 73.4832,59.8432 74.8166,59.1765 75.5,57.5 Z"/></g>
<g><path style="opacity:1" fill="#bababa" d="M 243.5,57.5 C 244.833,57.5 246.167,57.5 247.5,57.5C 247.5,66.8333 247.5,76.1667 247.5,85.5C 252.167,85.5 256.833,85.5 261.5,85.5C 261.5,86.8333 261.5,88.1667 261.5,89.5C 255.5,89.5 249.5,89.5 243.5,89.5C 243.5,78.8333 243.5,68.1667 243.5,57.5 Z"/></g>
<g><path style="opacity:1" fill="#bebebe" d="M 99.5,57.5 C 101.5,57.5 103.5,57.5 105.5,57.5C 105.5,60.1667 105.5,62.8333 105.5,65.5C 110.085,64.9872 114.418,65.6538 118.5,67.5C 119.497,74.8032 119.831,82.1365 119.5,89.5C 118.167,89.5 116.833,89.5 115.5,89.5C 115.5,82.8333 115.5,76.1667 115.5,69.5C 112.212,69.073 109.212,69.7397 106.5,71.5C 105.504,77.4632 105.171,83.4632 105.5,89.5C 103.5,89.5 101.5,89.5 99.5,89.5C 99.5,78.8333 99.5,68.1667 99.5,57.5 Z"/></g>
<g><path style="opacity:1" fill="#bbbbbb" d="M 295.5,65.5 C 300.085,64.9872 304.418,65.6538 308.5,67.5C 309.842,65.9951 311.508,65.3285 313.5,65.5C 313.832,74.8571 313.498,84.1904 312.5,93.5C 307.087,100.456 301.087,101.122 294.5,95.5C 293.571,94.3112 293.238,92.9778 293.5,91.5C 296.687,92.339 299.687,93.6724 302.5,95.5C 304.777,94.5217 307.11,93.8551 309.5,93.5C 309.5,91.5 309.5,89.5 309.5,87.5C 306.865,88.1419 304.198,88.8086 301.5,89.5C 295.249,87.9166 291.915,83.9166 291.5,77.5C 291.723,73.0714 293.056,69.0714 295.5,65.5 Z"/></g>
<g><path style="opacity:1" fill="#bababa" d="M 129.5,65.5 C 133.555,65.1758 137.555,65.5091 141.5,66.5C 142.5,67.5 143.5,68.5 144.5,69.5C 145.497,76.1335 145.83,82.8002 145.5,89.5C 143.508,89.6715 141.842,89.0049 140.5,87.5C 135.316,90.4634 130.65,89.7967 126.5,85.5C 125.078,81.7664 126.078,78.7664 129.5,76.5C 132.768,75.513 136.102,75.1796 139.5,75.5C 139.5,73.5 139.5,71.5 139.5,69.5C 135.37,69.5343 131.37,70.201 127.5,71.5C 127.614,69.2821 128.28,67.2821 129.5,65.5 Z"/></g>
<g><path style="opacity:1" fill="#bdbdbd" d="M 207.5,65.5 C 212.974,65.3026 218.308,65.9693 223.5,67.5C 224.799,71.3705 225.466,75.3705 225.5,79.5C 219.463,79.1707 213.463,79.5041 207.5,80.5C 209.005,81.8415 209.672,83.5082 209.5,85.5C 214.222,85.1518 218.889,84.4851 223.5,83.5C 223.5,84.8333 223.5,86.1667 223.5,87.5C 218.308,89.0307 212.974,89.6974 207.5,89.5C 207.577,86.9876 206.577,84.9876 204.5,83.5C 203.167,78.8333 203.167,74.1667 204.5,69.5C 205.934,68.4116 206.934,67.0783 207.5,65.5 Z"/></g>
<g><path style="opacity:1" fill="#eeeeee" d="M 297.5,69.5 C 300.833,69.5 304.167,69.5 307.5,69.5C 308.142,72.135 308.809,74.8016 309.5,77.5C 307.177,85.9432 302.844,87.2765 296.5,81.5C 296.167,80.1667 295.833,78.8333 295.5,77.5C 296.191,74.8016 296.858,72.135 297.5,69.5 Z"/></g>
<g><path style="opacity:1" fill="#bababa" d="M 271.5,65.5 C 285.505,63.8454 290.505,69.8454 286.5,83.5C 282.773,88.9143 277.773,90.581 271.5,88.5C 263.584,80.6845 263.584,73.0179 271.5,65.5 Z"/></g>
<g><path style="opacity:1" fill="#f0f0f0" d="M 271.5,69.5 C 275.434,69.0211 279.101,69.6878 282.5,71.5C 282.833,73.1667 283.167,74.8333 283.5,76.5C 282.954,79.5656 282.288,82.5656 281.5,85.5C 270.113,85.3688 266.779,80.0354 271.5,69.5 Z"/></g>
<g><path style="opacity:1" fill="#c1c1c1" d="M 151.5,65.5 C 156.875,65.1718 162.208,65.5052 167.5,66.5C 168.5,67.5 169.5,68.5 170.5,69.5C 171.497,76.1335 171.83,82.8002 171.5,89.5C 169.5,89.5 167.5,89.5 165.5,89.5C 165.5,82.8333 165.5,76.1667 165.5,69.5C 162.212,69.073 159.212,69.7397 156.5,71.5C 155.504,77.4632 155.171,83.4632 155.5,89.5C 154.167,89.5 152.833,89.5 151.5,89.5C 151.5,81.5 151.5,73.5 151.5,65.5 Z"/></g>
<g><path style="opacity:1" fill="#e7e7e7" d="M 209.5,69.5 C 212.833,69.5 216.167,69.5 219.5,69.5C 219.5,71.5 219.5,73.5 219.5,75.5C 215.5,75.5 211.5,75.5 207.5,75.5C 207.614,73.2821 208.28,71.2821 209.5,69.5 Z"/></g>
<g><path style="opacity:1" fill="#f1f1f1" d="M 131.5,79.5 C 134.167,79.5 136.833,79.5 139.5,79.5C 139.5,81.5 139.5,83.5 139.5,85.5C 135.643,86.0384 132.309,85.0384 129.5,82.5C 130.612,81.7348 131.279,80.7348 131.5,79.5 Z"/></g>
<g><path style="opacity:1" fill="#bdbdbd" d="M 179.5,65.5 C 185.5,65.5 191.5,65.5 197.5,65.5C 197.832,75.5222 197.499,85.5222 196.5,95.5C 190.351,100.619 184.351,100.619 178.5,95.5C 177.571,94.3112 177.238,92.9778 177.5,91.5C 180.687,92.339 183.687,93.6724 186.5,95.5C 188.777,94.5217 191.11,93.8551 193.5,93.5C 193.5,91.5 193.5,89.5 193.5,87.5C 182.8,91.8284 176.8,88.1617 175.5,76.5C 176.409,72.6227 177.742,68.956 179.5,65.5 Z"/></g>
<g><path style="opacity:1" fill="#ededed" d="M 181.5,69.5 C 191.85,67.5142 195.517,71.5142 192.5,81.5C 186.156,87.2765 181.823,85.9432 179.5,77.5C 180.191,74.8016 180.858,72.135 181.5,69.5 Z"/></g>
<g><path style="opacity:1" fill="#cfe9dd" d="M 241.5,105.5 C 241.5,106.167 241.5,106.833 241.5,107.5C 240.833,107.5 240.167,107.5 239.5,107.5C 181.5,107.5 123.5,107.5 65.5,107.5C 123.824,105.504 182.491,104.837 241.5,105.5 Z"/></g>
<g><path style="opacity:1" fill="#c0c1c0" d="M 241.5,105.5 C 585.168,104.834 928.502,105.501 1271.5,107.5C 928.167,107.5 584.833,107.5 241.5,107.5C 241.5,106.833 241.5,106.167 241.5,105.5 Z"/></g>
<g><path style="opacity:1" fill="#bae2d1" d="M 65.5,107.5 C 65.5,166.167 65.5,224.833 65.5,283.5C 64.1668,254.508 63.5002,225.174 63.5,195.5C 63.5002,165.826 64.1668,136.492 65.5,107.5 Z"/></g>
<g><path style="opacity:1" fill="#5dc197" d="M 65.5,107.5 C 123.5,107.5 181.5,107.5 239.5,107.5C 239.5,166.167 239.5,224.833 239.5,283.5C 181.5,283.5 123.5,283.5 65.5,283.5C 65.5,224.833 65.5,166.167 65.5,107.5 Z"/></g>
<g><path style="opacity:1" fill="#57ae87" d="M 239.5,107.5 C 240.167,107.5 240.833,107.5 241.5,107.5C 241.5,166.167 241.5,224.833 241.5,283.5C 240.833,283.5 240.167,283.5 239.5,283.5C 239.5,224.833 239.5,166.167 239.5,107.5 Z"/></g>
<g><path style="opacity:1" fill="#222222" d="M 241.5,107.5 C 584.833,107.5 928.167,107.5 1271.5,107.5C 1271.5,166.167 1271.5,224.833 1271.5,283.5C 928.167,283.5 584.833,283.5 241.5,283.5C 241.5,224.833 241.5,166.167 241.5,107.5 Z"/></g>
<g><path style="opacity:1" fill="#dadbda" d="M 1271.5,107.5 C 1272.83,136.492 1273.5,165.826 1273.5,195.5C 1273.5,225.174 1272.83,254.508 1271.5,283.5C 1271.5,224.833 1271.5,166.167 1271.5,107.5 Z"/></g>
<g><path style="opacity:1" fill="#fefffe" d="M 283.5,163.5 C 283.5,170.833 283.5,178.167 283.5,185.5C 287.084,187.118 291.084,188.118 295.5,188.5C 290.208,189.495 284.875,189.828 279.5,189.5C 279.5,180.833 279.5,172.167 279.5,163.5C 280.833,163.5 282.167,163.5 283.5,163.5 Z"/></g>
<g><path style="opacity:1" fill="#595959" d="M 429.5,171.5 C 429.631,172.376 429.298,173.043 428.5,173.5C 427.513,170.232 427.18,166.898 427.5,163.5C 426.167,163.5 424.833,163.5 423.5,163.5C 423.5,172.833 423.5,182.167 423.5,191.5C 421.526,181.889 420.859,171.889 421.5,161.5C 424.167,161.5 426.833,161.5 429.5,161.5C 429.5,164.833 429.5,168.167 429.5,171.5 Z"/></g>
<g><path style="opacity:1" fill="#f3f3f3" d="M 429.5,171.5 C 433.434,171.021 437.101,171.688 440.5,173.5C 441.495,178.792 441.828,184.125 441.5,189.5C 440.167,189.5 438.833,189.5 437.5,189.5C 438.089,185.029 437.423,181.029 435.5,177.5C 435.03,176.307 434.03,175.64 432.5,175.5C 430.97,175.64 429.97,176.307 429.5,177.5C 427.564,181.715 426.897,186.381 427.5,191.5C 426.167,191.5 424.833,191.5 423.5,191.5C 423.5,182.167 423.5,172.833 423.5,163.5C 424.833,163.5 426.167,163.5 427.5,163.5C 427.18,166.898 427.513,170.232 428.5,173.5C 429.298,173.043 429.631,172.376 429.5,171.5 Z"/></g>
<g><path style="opacity:1" fill="#fafafa" d="M 631.5,163.5 C 632.833,163.5 634.167,163.5 635.5,163.5C 635.18,166.898 635.513,170.232 636.5,173.5C 637.298,173.043 637.631,172.376 637.5,171.5C 641.434,171.021 645.101,171.688 648.5,173.5C 649.495,178.792 649.828,184.125 649.5,189.5C 648.167,189.5 646.833,189.5 645.5,189.5C 646.103,184.381 645.436,179.715 643.5,175.5C 640.918,175.025 638.918,175.692 637.5,177.5C 635.577,181.029 634.911,185.029 635.5,189.5C 634.167,189.5 632.833,189.5 631.5,189.5C 631.5,180.833 631.5,172.167 631.5,163.5 Z"/></g>
<g><path style="opacity:1" fill="#8d8d8d" d="M 637.5,171.5 C 637.631,172.376 637.298,173.043 636.5,173.5C 635.513,170.232 635.18,166.898 635.5,163.5C 634.167,163.5 632.833,163.5 631.5,163.5C 632.918,161.692 634.918,161.025 637.5,161.5C 637.5,164.833 637.5,168.167 637.5,171.5 Z"/></g>
<g><path style="opacity:1" fill="#818181" d="M 659.5,167.5 C 659.5,166.167 659.5,164.833 659.5,163.5C 658.167,163.5 656.833,163.5 655.5,163.5C 655.5,164.833 655.5,166.167 655.5,167.5C 653.692,166.082 653.025,164.082 653.5,161.5C 656.167,161.5 658.833,161.5 661.5,161.5C 661.975,164.082 661.308,166.082 659.5,167.5 Z"/></g>
<g><path style="opacity:1" fill="#f7f7f7" d="M 329.5,175.5 C 328.223,176.694 327.556,178.36 327.5,180.5C 327.556,182.64 328.223,184.306 329.5,185.5C 330.183,187.176 331.517,187.843 333.5,187.5C 331.365,189.369 328.698,190.036 325.5,189.5C 323.763,185.066 323.096,180.399 323.5,175.5C 322.167,175.5 320.833,175.5 319.5,175.5C 319.5,174.167 319.5,172.833 319.5,171.5C 320.833,171.5 322.167,171.5 323.5,171.5C 323.5,169.5 323.5,167.5 323.5,165.5C 324.833,165.5 326.167,165.5 327.5,165.5C 327.5,167.5 327.5,169.5 327.5,171.5C 329.5,171.5 331.5,171.5 333.5,171.5C 333.5,172.833 333.5,174.167 333.5,175.5C 332.167,175.5 330.833,175.5 329.5,175.5 Z"/></g>
<g><path style="opacity:1" fill="#f7f7f7" d="M 383.5,165.5 C 383.5,167.5 383.5,169.5 383.5,171.5C 385.5,171.5 387.5,171.5 389.5,171.5C 389.5,172.833 389.5,174.167 389.5,175.5C 388.167,175.5 386.833,175.5 385.5,175.5C 384.223,176.694 383.556,178.36 383.5,180.5C 383.556,182.64 384.223,184.306 385.5,185.5C 386.183,187.176 387.517,187.843 389.5,187.5C 387.365,189.369 384.698,190.036 381.5,189.5C 379.763,185.066 379.096,180.399 379.5,175.5C 378.167,175.5 376.833,175.5 375.5,175.5C 375.5,174.167 375.5,172.833 375.5,171.5C 376.833,171.5 378.167,171.5 379.5,171.5C 379.5,169.5 379.5,167.5 379.5,165.5C 380.833,165.5 382.167,165.5 383.5,165.5 Z"/></g>
<g><path style="opacity:1" fill="#efefef" d="M 569.5,165.5 C 570.833,165.5 572.167,165.5 573.5,165.5C 573.5,167.5 573.5,169.5 573.5,171.5C 575.5,171.5 577.5,171.5 579.5,171.5C 579.5,172.833 579.5,174.167 579.5,175.5C 577.5,175.5 575.5,175.5 573.5,175.5C 573.18,178.898 573.513,182.232 574.5,185.5C 575.842,187.005 577.508,187.672 579.5,187.5C 579.5,188.833 579.5,190.167 579.5,191.5C 576.753,191.813 574.086,191.48 571.5,190.5C 570.388,189.735 569.721,188.735 569.5,187.5C 570.089,183.029 569.423,179.029 567.5,175.5C 566.833,175.5 566.167,175.5 565.5,175.5C 565.5,174.167 565.5,172.833 565.5,171.5C 566.833,171.5 568.167,171.5 569.5,171.5C 569.5,169.5 569.5,167.5 569.5,165.5 Z"/></g>
<g><path style="opacity:1" fill="#f1f1f1" d="M 621.5,165.5 C 621.5,167.5 621.5,169.5 621.5,171.5C 623.5,171.5 625.5,171.5 627.5,171.5C 627.5,172.833 627.5,174.167 627.5,175.5C 626.167,175.5 624.833,175.5 623.5,175.5C 622.223,176.694 621.556,178.36 621.5,180.5C 621.556,182.64 622.223,184.306 623.5,185.5C 624.183,187.176 625.517,187.843 627.5,187.5C 627.5,188.833 627.5,190.167 627.5,191.5C 623.719,191.907 620.719,190.574 618.5,187.5C 617.509,183.555 617.176,179.555 617.5,175.5C 616.167,175.5 614.833,175.5 613.5,175.5C 613.5,174.167 613.5,172.833 613.5,171.5C 614.833,171.5 616.167,171.5 617.5,171.5C 617.5,169.5 617.5,167.5 617.5,165.5C 618.833,165.5 620.167,165.5 621.5,165.5 Z"/></g>
<g><path style="opacity:1" fill="#d9d9d9" d="M 659.5,167.5 C 658.167,167.5 656.833,167.5 655.5,167.5C 655.5,166.167 655.5,164.833 655.5,163.5C 656.833,163.5 658.167,163.5 659.5,163.5C 659.5,164.833 659.5,166.167 659.5,167.5 Z"/></g>
<g><path style="opacity:1" fill="#e6e6e6" d="M 889.5,187.5 C 889.5,182.833 889.5,178.167 889.5,173.5C 887.517,173.843 886.183,173.176 885.5,171.5C 887.308,170.082 887.975,168.082 887.5,165.5C 889.5,165.5 891.5,165.5 893.5,165.5C 893.5,167.5 893.5,169.5 893.5,171.5C 895.5,171.5 897.5,171.5 899.5,171.5C 899.5,172.833 899.5,174.167 899.5,175.5C 897.5,175.5 895.5,175.5 893.5,175.5C 893.5,179.5 893.5,183.5 893.5,187.5C 895.5,187.5 897.5,187.5 899.5,187.5C 899.5,188.833 899.5,190.167 899.5,191.5C 896.753,191.813 894.086,191.48 891.5,190.5C 890.388,189.735 889.721,188.735 889.5,187.5 Z"/></g>
<g><path style="opacity:1" fill="#efefef" d="M 955.5,165.5 C 956.833,165.5 958.167,165.5 959.5,165.5C 959.5,167.5 959.5,169.5 959.5,171.5C 961.5,171.5 963.5,171.5 965.5,171.5C 965.5,172.833 965.5,174.167 965.5,175.5C 963.5,175.5 961.5,175.5 959.5,175.5C 959.18,178.898 959.513,182.232 960.5,185.5C 961.842,187.005 963.508,187.672 965.5,187.5C 965.5,188.833 965.5,190.167 965.5,191.5C 962.753,191.813 960.086,191.48 957.5,190.5C 956.388,189.735 955.721,188.735 955.5,187.5C 956.089,183.029 955.423,179.029 953.5,175.5C 952.833,175.5 952.167,175.5 951.5,175.5C 951.5,174.167 951.5,172.833 951.5,171.5C 952.833,171.5 954.167,171.5 955.5,171.5C 955.5,169.5 955.5,167.5 955.5,165.5 Z"/></g>
<g><path style="opacity:1" fill="#525252" d="M 383.5,165.5 C 385.176,166.183 385.843,167.517 385.5,169.5C 387.5,169.5 389.5,169.5 391.5,169.5C 391.975,172.082 391.308,174.082 389.5,175.5C 389.5,174.167 389.5,172.833 389.5,171.5C 387.5,171.5 385.5,171.5 383.5,171.5C 383.5,169.5 383.5,167.5 383.5,165.5 Z"/></g>
<g><path style="opacity:1" fill="#5d5d5d" d="M 569.5,165.5 C 569.5,167.5 569.5,169.5 569.5,171.5C 568.167,171.5 566.833,171.5 565.5,171.5C 565.5,172.833 565.5,174.167 565.5,175.5C 563.692,174.082 563.025,172.082 563.5,169.5C 564.833,169.5 566.167,169.5 567.5,169.5C 567.157,167.517 567.824,166.183 569.5,165.5 Z"/></g>
<g><path style="opacity:1" fill="#616161" d="M 595.5,171.5 C 592.833,171.5 590.167,171.5 587.5,171.5C 588.334,170.252 589.667,169.585 591.5,169.5C 593.333,169.585 594.666,170.252 595.5,171.5 Z"/></g>
<g><path style="opacity:1" fill="#585858" d="M 621.5,165.5 C 623.176,166.183 623.843,167.517 623.5,169.5C 625.5,169.5 627.5,169.5 629.5,169.5C 629.975,172.082 629.308,174.082 627.5,175.5C 627.5,174.167 627.5,172.833 627.5,171.5C 625.5,171.5 623.5,171.5 621.5,171.5C 621.5,169.5 621.5,167.5 621.5,165.5 Z"/></g>
<g><path style="opacity:1" fill="#4f4f4f" d="M 955.5,165.5 C 955.5,167.5 955.5,169.5 955.5,171.5C 954.167,171.5 952.833,171.5 951.5,171.5C 951.5,172.833 951.5,174.167 951.5,175.5C 950.833,175.5 950.167,175.5 949.5,175.5C 949.5,173.5 949.5,171.5 949.5,169.5C 950.833,169.5 952.167,169.5 953.5,169.5C 953.157,167.517 953.824,166.183 955.5,165.5 Z"/></g>
<g><path style="opacity:1" fill="#e1e1e1" d="M 317.5,189.5 C 312.167,189.5 306.833,189.5 301.5,189.5C 300.653,187.971 299.986,186.304 299.5,184.5C 299.833,183.5 300.167,182.5 300.5,181.5C 303.899,179.688 307.566,179.021 311.5,179.5C 311.5,178.167 311.5,176.833 311.5,175.5C 308.167,175.5 304.833,175.5 301.5,175.5C 301.5,174.167 301.5,172.833 301.5,171.5C 306.167,171.5 310.833,171.5 315.5,171.5C 317.098,177.36 317.765,183.36 317.5,189.5 Z"/></g>
<g><path style="opacity:1" fill="#e8e8e8" d="M 461.5,173.5 C 461.828,178.875 461.495,184.208 460.5,189.5C 459.735,188.388 458.735,187.721 457.5,187.5C 454.663,189.402 451.329,190.069 447.5,189.5C 446.653,187.971 445.986,186.304 445.5,184.5C 445.833,183.5 446.167,182.5 446.5,181.5C 449.899,179.688 453.566,179.021 457.5,179.5C 457.5,178.167 457.5,176.833 457.5,175.5C 454.167,175.5 450.833,175.5 447.5,175.5C 447.5,174.167 447.5,172.833 447.5,171.5C 452.619,170.897 457.285,171.564 461.5,173.5 Z"/></g>
<g><path style="opacity:1" fill="#c0c0c0" d="M 469.5,171.5 C 469.171,177.537 469.504,183.537 470.5,189.5C 470.882,185.084 471.882,181.084 473.5,177.5C 473.5,182.167 473.5,186.833 473.5,191.5C 471.5,191.5 469.5,191.5 467.5,191.5C 466.874,184.416 467.541,177.75 469.5,171.5 Z"/></g>
<g><path style="opacity:1" fill="#f8f8f8" d="M 469.5,171.5 C 474.214,171.173 478.88,171.507 483.5,172.5C 484.612,173.265 485.279,174.265 485.5,175.5C 485.5,180.167 485.5,184.833 485.5,189.5C 484.167,189.5 482.833,189.5 481.5,189.5C 481.5,184.833 481.5,180.167 481.5,175.5C 478.302,174.964 475.635,175.631 473.5,177.5C 471.882,181.084 470.882,185.084 470.5,189.5C 469.504,183.537 469.171,177.537 469.5,171.5 Z"/></g>
<g><path style="opacity:1" fill="#ececec" d="M 509.5,171.5 C 509.5,178.833 509.5,186.167 509.5,193.5C 508.554,196.313 506.554,197.646 503.5,197.5C 500.833,197.5 498.167,197.5 495.5,197.5C 494.167,197.5 492.833,197.5 491.5,197.5C 491.5,196.167 491.5,194.833 491.5,193.5C 495.5,193.5 499.5,193.5 503.5,193.5C 504.693,193.03 505.36,192.03 505.5,190.5C 505.167,189.5 504.833,188.5 504.5,187.5C 501.788,189.26 498.788,189.927 495.5,189.5C 493.5,188.833 492.167,187.5 491.5,185.5C 491.5,182.167 491.5,178.833 491.5,175.5C 492.768,172.606 495.102,171.273 498.5,171.5C 500.715,171.67 502.715,172.337 504.5,173.5C 505.842,171.995 507.508,171.328 509.5,171.5 Z"/></g>
<g><path style="opacity:1" fill="#717171" d="M 509.5,171.5 C 510.822,174.768 511.489,178.435 511.5,182.5C 511.489,186.565 510.822,190.232 509.5,193.5C 509.5,186.167 509.5,178.833 509.5,171.5 Z"/></g>
<g><path style="opacity:1" fill="#565656" d="M 655.5,171.5 C 655.5,178.167 655.5,184.833 655.5,191.5C 654.18,188.572 653.514,185.239 653.5,181.5C 653.514,177.761 654.18,174.428 655.5,171.5 Z"/></g>
<g><path style="opacity:1" fill="#f7f7f7" d="M 655.5,171.5 C 656.833,171.5 658.167,171.5 659.5,171.5C 659.5,178.167 659.5,184.833 659.5,191.5C 658.167,191.5 656.833,191.5 655.5,191.5C 655.5,184.833 655.5,178.167 655.5,171.5 Z"/></g>
<g><path style="opacity:1" fill="#585858" d="M 659.5,171.5 C 660.82,174.428 661.486,177.761 661.5,181.5C 661.486,185.239 660.82,188.572 659.5,191.5C 659.5,184.833 659.5,178.167 659.5,171.5 Z"/></g>
<g><path style="opacity:1" fill="#797979" d="M 737.5,171.5 C 737.5,177.5 737.5,183.5 737.5,189.5C 738.833,189.5 740.167,189.5 741.5,189.5C 740.082,191.308 738.082,191.975 735.5,191.5C 734.874,184.416 735.541,177.75 737.5,171.5 Z"/></g>
<g><path style="opacity:1" fill="#f5f5f5" d="M 737.5,171.5 C 739.492,171.328 741.158,171.995 742.5,173.5C 746.092,170.966 749.759,170.966 753.5,173.5C 755.715,172.456 758.048,171.79 760.5,171.5C 762.64,171.556 764.306,172.223 765.5,173.5C 765.5,178.833 765.5,184.167 765.5,189.5C 764.167,189.5 762.833,189.5 761.5,189.5C 761.5,184.833 761.5,180.167 761.5,175.5C 758.918,175.025 756.918,175.692 755.5,177.5C 753.577,181.029 752.911,185.029 753.5,189.5C 752.167,189.5 750.833,189.5 749.5,189.5C 749.5,184.833 749.5,180.167 749.5,175.5C 746.856,175.16 744.523,175.827 742.5,177.5C 741.509,181.445 741.176,185.445 741.5,189.5C 740.167,189.5 738.833,189.5 737.5,189.5C 737.5,183.5 737.5,177.5 737.5,171.5 Z"/></g>
<g><path style="opacity:1" fill="#797979" d="M 819.5,171.5 C 819.5,177.5 819.5,183.5 819.5,189.5C 820.833,189.5 822.167,189.5 823.5,189.5C 822.082,191.308 820.082,191.975 817.5,191.5C 816.874,184.416 817.541,177.75 819.5,171.5 Z"/></g>
<g><path style="opacity:1" fill="#f4f4f4" d="M 819.5,171.5 C 821.492,171.328 823.158,171.995 824.5,173.5C 826.285,172.337 828.285,171.67 830.5,171.5C 832.64,171.556 834.306,172.223 835.5,173.5C 835.828,178.875 835.495,184.208 834.5,189.5C 834.118,185.084 833.118,181.084 831.5,177.5C 829.365,175.631 826.698,174.964 823.5,175.5C 823.5,180.167 823.5,184.833 823.5,189.5C 822.167,189.5 820.833,189.5 819.5,189.5C 819.5,183.5 819.5,177.5 819.5,171.5 Z"/></g>
<g><path style="opacity:1" fill="#f3f3f3" d="M 881.5,175.5 C 881.5,180.833 881.5,186.167 881.5,191.5C 880.167,191.5 878.833,191.5 877.5,191.5C 878.113,185.729 877.446,180.396 875.5,175.5C 872.918,175.025 870.918,175.692 869.5,177.5C 867.577,181.029 866.911,185.029 867.5,189.5C 866.167,189.5 864.833,189.5 863.5,189.5C 863.5,183.5 863.5,177.5 863.5,171.5C 868.875,171.172 874.208,171.505 879.5,172.5C 880.612,173.265 881.279,174.265 881.5,175.5 Z"/></g>
<g><path style="opacity:1" fill="#e2e2e2" d="M 915.5,171.5 C 919.5,171.5 923.5,171.5 927.5,171.5C 927.5,172.833 927.5,174.167 927.5,175.5C 918.183,174.529 915.516,178.196 919.5,186.5C 922.068,187.868 924.401,187.534 926.5,185.5C 927.576,189.446 925.909,191.446 921.5,191.5C 912.965,189.295 909.965,183.962 912.5,175.5C 913.934,174.412 914.934,173.078 915.5,171.5 Z"/></g>
<g><path style="opacity:1" fill="#e2e2e2" d="M 1017.5,171.5 C 1031.94,169.933 1036.6,175.933 1031.5,189.5C 1017.72,194.718 1012.05,190.051 1014.5,175.5C 1015.93,174.412 1016.93,173.078 1017.5,171.5 Z"/></g>
<g><path style="opacity:1" fill="#f9f9f9" d="M 1043.5,177.5 C 1041.58,181.029 1040.91,185.029 1041.5,189.5C 1040.17,189.5 1038.83,189.5 1037.5,189.5C 1037.5,183.5 1037.5,177.5 1037.5,171.5C 1041.5,171.5 1045.5,171.5 1049.5,171.5C 1049.5,172.833 1049.5,174.167 1049.5,175.5C 1046.92,175.025 1044.92,175.692 1043.5,177.5 Z"/></g>
<g><path style="opacity:1" fill="#e7e7e7" d="M 1051.5,171.5 C 1053.5,171.5 1055.5,171.5 1057.5,171.5C 1058.59,175.686 1060.26,179.686 1062.5,183.5C 1063.44,180.007 1064.78,176.674 1066.5,173.5C 1067.84,171.995 1069.51,171.328 1071.5,171.5C 1071.8,173.604 1071.47,175.604 1070.5,177.5C 1067.28,183.264 1064.62,189.264 1062.5,195.5C 1061.16,197.005 1059.49,197.672 1057.5,197.5C 1057.34,194.639 1058.01,191.972 1059.5,189.5C 1056.26,183.684 1053.59,177.684 1051.5,171.5 Z"/></g>
<g><path style="opacity:1" fill="#49886e" d="M 121.5,175.5 C 114.167,175.5 106.833,175.5 99.5,175.5C 102.768,174.178 106.435,173.511 110.5,173.5C 114.565,173.511 118.232,174.178 121.5,175.5 Z"/></g>
<g><path style="opacity:1" fill="#3a6453" d="M 153.5,175.5 C 150.167,175.5 146.833,175.5 143.5,175.5C 144.694,174.223 146.36,173.556 148.5,173.5C 150.64,173.556 152.306,174.223 153.5,175.5 Z"/></g>
<g><path style="opacity:1" fill="#3c6957" d="M 199.5,175.5 C 196.167,175.5 192.833,175.5 189.5,175.5C 190.694,174.223 192.36,173.556 194.5,173.5C 196.64,173.556 198.306,174.223 199.5,175.5 Z"/></g>
<g><path style="opacity:1" fill="#e9e9e9" d="M 353.5,175.5 C 353.5,177.5 353.5,179.5 353.5,181.5C 349.029,180.911 345.029,181.577 341.5,183.5C 342.425,186.26 344.425,187.593 347.5,187.5C 349.384,187.284 351.051,186.617 352.5,185.5C 353.734,187.398 353.401,189.065 351.5,190.5C 345.272,192.675 340.606,191.008 337.5,185.5C 337.5,182.167 337.5,178.833 337.5,175.5C 337.721,174.265 338.388,173.265 339.5,172.5C 343.5,171.167 347.5,171.167 351.5,172.5C 352.612,173.265 353.279,174.265 353.5,175.5 Z"/></g>
<g><path style="opacity:1" fill="#dadada" d="M 359.5,171.5 C 364.167,171.5 368.833,171.5 373.5,171.5C 373.5,172.833 373.5,174.167 373.5,175.5C 370.167,175.5 366.833,175.5 363.5,175.5C 363.5,176.833 363.5,178.167 363.5,179.5C 371.854,178.183 374.854,181.516 372.5,189.5C 368.372,191.683 364.039,192.016 359.5,190.5C 357.995,189.158 357.328,187.492 357.5,185.5C 361.37,186.799 365.37,187.466 369.5,187.5C 369.5,186.167 369.5,184.833 369.5,183.5C 363.357,184.651 359.357,182.318 357.5,176.5C 357.986,174.696 358.653,173.029 359.5,171.5 Z"/></g>
<g><path style="opacity:1" fill="#e3e3e3" d="M 407.5,171.5 C 411.5,171.5 415.5,171.5 419.5,171.5C 419.5,172.833 419.5,174.167 419.5,175.5C 416.102,175.18 412.768,175.513 409.5,176.5C 406.609,181.486 407.942,185.153 413.5,187.5C 415.334,186.246 417.334,185.579 419.5,185.5C 419.383,189.945 417.049,191.945 412.5,191.5C 409.079,191.621 406.412,190.288 404.5,187.5C 403.167,183.5 403.167,179.5 404.5,175.5C 405.934,174.412 406.934,173.078 407.5,171.5 Z"/></g>
<g><path style="opacity:1" fill="#e7e7e7" d="M 533.5,181.5 C 528.833,181.5 524.167,181.5 519.5,181.5C 519.157,183.483 519.824,184.817 521.5,185.5C 522.334,186.748 523.667,187.415 525.5,187.5C 527.667,187.13 529.667,186.463 531.5,185.5C 531.5,186.833 531.5,188.167 531.5,189.5C 527.695,191.522 523.695,191.855 519.5,190.5C 517.739,189.083 516.406,187.417 515.5,185.5C 515.5,182.833 515.5,180.167 515.5,177.5C 515.328,175.508 515.995,173.842 517.5,172.5C 521.5,171.167 525.5,171.167 529.5,172.5C 532.574,174.719 533.907,177.719 533.5,181.5 Z"/></g>
<g><path style="opacity:1" fill="#e3e3e3" d="M 551.5,183.5 C 551.5,184.833 551.5,186.167 551.5,187.5C 551.279,188.735 550.612,189.735 549.5,190.5C 545.5,191.833 541.5,191.833 537.5,190.5C 535.193,188.672 535.526,187.006 538.5,185.5C 541.212,187.26 544.212,187.927 547.5,187.5C 547.5,186.167 547.5,184.833 547.5,183.5C 539.146,184.817 536.146,181.484 538.5,173.5C 542.582,171.654 546.915,170.987 551.5,171.5C 551.5,172.833 551.5,174.167 551.5,175.5C 548.167,175.5 544.833,175.5 541.5,175.5C 541.5,176.833 541.5,178.167 541.5,179.5C 544.247,179.187 546.914,179.52 549.5,180.5C 550.612,181.265 551.279,182.265 551.5,183.5 Z"/></g>
<g><path style="opacity:1" fill="#e9e9e9" d="M 709.5,171.5 C 709.843,173.483 709.176,174.817 707.5,175.5C 704.833,175.5 702.167,175.5 699.5,175.5C 699.18,178.898 699.513,182.232 700.5,185.5C 703.167,188.167 705.833,188.167 708.5,185.5C 711.474,187.006 711.807,188.672 709.5,190.5C 703.272,192.675 698.606,191.008 695.5,185.5C 695.5,182.167 695.5,178.833 695.5,175.5C 695.721,174.265 696.388,173.265 697.5,172.5C 701.445,171.509 705.445,171.176 709.5,171.5 Z"/></g>
<g><path style="opacity:1" fill="#e7e7e7" d="M 731.5,175.5 C 731.5,178.833 731.5,182.167 731.5,185.5C 728.394,191.008 723.728,192.675 717.5,190.5C 715.739,189.083 714.406,187.417 713.5,185.5C 713.5,182.167 713.5,178.833 713.5,175.5C 713.721,174.265 714.388,173.265 715.5,172.5C 720.167,171.167 724.833,171.167 729.5,172.5C 730.612,173.265 731.279,174.265 731.5,175.5 Z"/></g>
<g><path style="opacity:1" fill="#e1e1e1" d="M 771.5,171.5 C 776.875,171.172 782.208,171.505 787.5,172.5C 792.477,177.754 792.81,183.421 788.5,189.5C 785.167,192.167 781.833,192.167 778.5,189.5C 777.52,192.086 777.187,194.753 777.5,197.5C 775.5,197.5 773.5,197.5 771.5,197.5C 771.5,188.833 771.5,180.167 771.5,171.5 Z"/></g>
<g><path style="opacity:1" fill="#e6e6e6" d="M 813.5,177.5 C 813.5,180.167 813.5,182.833 813.5,185.5C 810.394,191.008 805.728,192.675 799.5,190.5C 797.739,189.083 796.406,187.417 795.5,185.5C 795.5,182.833 795.5,180.167 795.5,177.5C 795.328,175.508 795.995,173.842 797.5,172.5C 802.167,171.167 806.833,171.167 811.5,172.5C 813.005,173.842 813.672,175.508 813.5,177.5 Z"/></g>
<g><path style="opacity:1" fill="#ececec" d="M 859.5,181.5 C 854.833,181.5 850.167,181.5 845.5,181.5C 845.157,183.483 845.824,184.817 847.5,185.5C 851.029,187.423 855.029,188.089 859.5,187.5C 858.665,188.943 857.332,189.943 855.5,190.5C 843.497,192.486 839.163,187.486 842.5,175.5C 843.5,174.5 844.5,173.5 845.5,172.5C 849.445,171.509 853.445,171.176 857.5,171.5C 858.576,174.734 859.243,178.068 859.5,181.5 Z"/></g>
<g><path style="opacity:1" fill="#e4e4e4" d="M 1003.5,197.5 C 1000.17,197.5 996.833,197.5 993.5,197.5C 991.824,196.817 991.157,195.483 991.5,193.5C 995.5,193.5 999.5,193.5 1003.5,193.5C 1003.5,192.167 1003.5,190.833 1003.5,189.5C 999.5,189.5 995.5,189.5 991.5,189.5C 990.712,186.566 990.046,183.566 989.5,180.5C 990.046,177.434 990.712,174.434 991.5,171.5C 997.5,171.5 1003.5,171.5 1009.5,171.5C 1009.83,178.863 1009.5,186.197 1008.5,193.5C 1007.08,195.261 1005.42,196.594 1003.5,197.5 Z"/></g>
<g><path style="opacity:1" fill="#242927" d="M 99.5,175.5 C 106.833,175.5 114.167,175.5 121.5,175.5C 128.611,178.674 130.945,184.007 128.5,191.5C 126.695,193.903 124.362,195.57 121.5,196.5C 124.941,200.388 127.608,204.721 129.5,209.5C 128.082,211.308 126.082,211.975 123.5,211.5C 121.608,206.721 118.941,202.388 115.5,198.5C 112.914,197.52 110.247,197.187 107.5,197.5C 105.564,201.715 104.897,206.381 105.5,211.5C 103.5,211.5 101.5,211.5 99.5,211.5C 99.5,199.5 99.5,187.5 99.5,175.5 Z"/></g>
<g><path style="opacity:1" fill="#252927" d="M 143.5,175.5 C 146.833,175.5 150.167,175.5 153.5,175.5C 155.282,176.72 157.282,177.386 159.5,177.5C 159.824,181.555 159.491,185.555 158.5,189.5C 157.5,190.5 156.5,191.5 155.5,192.5C 160.914,196.227 162.581,201.227 160.5,207.5C 153.594,214.039 145.927,215.039 137.5,210.5C 135.995,209.158 135.328,207.492 135.5,205.5C 139.476,206.154 143.476,206.821 147.5,207.5C 150.043,207.36 152.377,206.694 154.5,205.5C 155.922,201.766 154.922,198.766 151.5,196.5C 148.232,195.513 144.898,195.18 141.5,195.5C 141.5,194.167 141.5,192.833 141.5,191.5C 145.63,191.466 149.63,190.799 153.5,189.5C 153.927,186.212 153.26,183.212 151.5,180.5C 146.659,179.126 142.326,180.126 138.5,183.5C 136.423,182.012 135.423,180.012 135.5,177.5C 138.167,176.833 140.833,176.167 143.5,175.5 Z"/></g>
<g><path style="opacity:1" fill="#252927" d="M 189.5,175.5 C 192.833,175.5 196.167,175.5 199.5,175.5C 202.088,177.08 204.422,179.08 206.5,181.5C 207.833,189.5 207.833,197.5 206.5,205.5C 200.483,214.304 193.15,215.637 184.5,209.5C 183.285,206.191 182.285,202.858 181.5,199.5C 181.5,194.833 181.5,190.167 181.5,185.5C 182.66,181.002 185.326,177.669 189.5,175.5 Z"/></g>
<g><path style="opacity:1" fill="#777777" d="M 329.5,175.5 C 329.5,178.833 329.5,182.167 329.5,185.5C 328.223,184.306 327.556,182.64 327.5,180.5C 327.556,178.36 328.223,176.694 329.5,175.5 Z"/></g>
<g><path style="opacity:1" fill="#363636" d="M 341.5,175.5 C 344.167,175.5 346.833,175.5 349.5,175.5C 349.5,176.833 349.5,178.167 349.5,179.5C 346.833,179.5 344.167,179.5 341.5,179.5C 341.5,178.167 341.5,176.833 341.5,175.5 Z"/></g>
<g><path style="opacity:1" fill="#777777" d="M 385.5,175.5 C 385.5,178.833 385.5,182.167 385.5,185.5C 384.223,184.306 383.556,182.64 383.5,180.5C 383.556,178.36 384.223,176.694 385.5,175.5 Z"/></g>
<g><path style="opacity:1" fill="#292929" d="M 495.5,175.5 C 498.247,175.187 500.914,175.52 503.5,176.5C 505.534,178.599 505.868,180.932 504.5,183.5C 502.401,185.534 500.068,185.868 497.5,184.5C 495.74,181.788 495.073,178.788 495.5,175.5 Z"/></g>
<g><path style="opacity:1" fill="#868686" d="M 567.5,175.5 C 569.423,179.029 570.089,183.029 569.5,187.5C 567.577,183.971 566.911,179.971 567.5,175.5 Z"/></g>
<g><path style="opacity:1" fill="#e1e1e1" d="M 587.5,171.5 C 590.167,171.5 592.833,171.5 595.5,171.5C 599.456,173.134 601.456,176.134 601.5,180.5C 600.954,183.566 600.288,186.566 599.5,189.5C 596.865,190.142 594.198,190.809 591.5,191.5C 588.802,190.809 586.135,190.142 583.5,189.5C 582.712,186.566 582.046,183.566 581.5,180.5C 581.544,176.134 583.544,173.134 587.5,171.5 Z"/></g>
<g><path style="opacity:1" fill="#2a2a2a" d="M 587.5,175.5 C 590.167,175.5 592.833,175.5 595.5,175.5C 595.82,178.898 595.487,182.232 594.5,185.5C 592.477,187.173 590.144,187.84 587.5,187.5C 587.5,183.5 587.5,179.5 587.5,175.5 Z"/></g>
<g><path style="opacity:1" fill="#929292" d="M 623.5,175.5 C 623.5,178.833 623.5,182.167 623.5,185.5C 622.223,184.306 621.556,182.64 621.5,180.5C 621.556,178.36 622.223,176.694 623.5,175.5 Z"/></g>
<g><path style="opacity:1" fill="#2f2f2f" d="M 719.5,175.5 C 724.395,174.669 727.062,176.669 727.5,181.5C 727.632,185.033 725.965,187.033 722.5,187.5C 719.035,187.033 717.368,185.033 717.5,181.5C 717.87,179.333 718.537,177.333 719.5,175.5 Z"/></g>
<g><path style="opacity:1" fill="#262626" d="M 777.5,175.5 C 780.167,175.5 782.833,175.5 785.5,175.5C 785.82,178.898 785.487,182.232 784.5,185.5C 782.5,188.167 780.5,188.167 778.5,185.5C 777.513,182.232 777.18,178.898 777.5,175.5 Z"/></g>
<g><path style="opacity:1" fill="#303030" d="M 801.5,175.5 C 806.395,174.669 809.062,176.669 809.5,181.5C 809.632,185.033 807.965,187.033 804.5,187.5C 801.035,187.033 799.368,185.033 799.5,181.5C 799.87,179.333 800.537,177.333 801.5,175.5 Z"/></g>
<g><path style="opacity:1" fill="#ababab" d="M 885.5,171.5 C 886.183,173.176 887.517,173.843 889.5,173.5C 889.5,178.167 889.5,182.833 889.5,187.5C 887.577,183.971 886.911,179.971 887.5,175.5C 886.167,175.5 884.833,175.5 883.5,175.5C 883.157,173.517 883.824,172.183 885.5,171.5 Z"/></g>
<g><path style="opacity:1" fill="#ececec" d="M 947.5,175.5 C 947.5,180.167 947.5,184.833 947.5,189.5C 946.167,189.5 944.833,189.5 943.5,189.5C 940.363,191.446 937.03,191.779 933.5,190.5C 930.833,187.167 930.833,183.833 933.5,180.5C 936.768,179.513 940.102,179.18 943.5,179.5C 943.5,178.167 943.5,176.833 943.5,175.5C 939.5,175.5 935.5,175.5 931.5,175.5C 931.5,174.167 931.5,172.833 931.5,171.5C 936.214,171.173 940.88,171.507 945.5,172.5C 946.612,173.265 947.279,174.265 947.5,175.5 Z"/></g>
<g><path style="opacity:1" fill="#6e6e6e" d="M 953.5,175.5 C 955.423,179.029 956.089,183.029 955.5,187.5C 953.577,183.971 952.911,179.971 953.5,175.5 Z"/></g>
<g><path style="opacity:1" fill="#e1e1e1" d="M 971.5,171.5 C 975.555,171.176 979.555,171.509 983.5,172.5C 985.26,175.212 985.927,178.212 985.5,181.5C 981.5,181.5 977.5,181.5 973.5,181.5C 973.335,185.003 975.002,187.003 978.5,187.5C 980.777,186.522 983.11,185.855 985.5,185.5C 985.383,189.945 983.049,191.945 978.5,191.5C 975.434,190.954 972.434,190.288 969.5,189.5C 968.712,186.566 968.046,183.566 967.5,180.5C 967.833,178.833 968.167,177.167 968.5,175.5C 969.934,174.412 970.934,173.078 971.5,171.5 Z"/></g>
<g><path style="opacity:1" fill="#272727" d="M 995.5,183.5 C 995.5,181.5 995.5,179.5 995.5,177.5C 997.635,175.631 1000.3,174.964 1003.5,175.5C 1003.5,178.833 1003.5,182.167 1003.5,185.5C 1000.3,186.036 997.635,185.369 995.5,183.5 Z"/></g>
<g><path style="opacity:1" fill="#2b2b2b" d="M 1019.5,183.5 C 1019.5,181.5 1019.5,179.5 1019.5,177.5C 1021.64,175.631 1024.3,174.964 1027.5,175.5C 1027.82,178.898 1027.49,182.232 1026.5,185.5C 1024.48,187.173 1022.14,187.84 1019.5,187.5C 1019.5,186.167 1019.5,184.833 1019.5,183.5 Z"/></g>
<g><path style="opacity:1" fill="#585858" d="M 429.5,177.5 C 430.103,182.619 429.436,187.285 427.5,191.5C 426.897,186.381 427.564,181.715 429.5,177.5 Z"/></g>
<g><path style="opacity:1" fill="#a4a4a4" d="M 435.5,177.5 C 437.423,181.029 438.089,185.029 437.5,189.5C 438.833,189.5 440.167,189.5 441.5,189.5C 440.082,191.308 438.082,191.975 435.5,191.5C 435.5,186.833 435.5,182.167 435.5,177.5 Z"/></g>
<g><path style="opacity:1" fill="#7b7b7b" d="M 491.5,175.5 C 491.5,178.833 491.5,182.167 491.5,185.5C 490.223,184.306 489.556,182.64 489.5,180.5C 489.556,178.36 490.223,176.694 491.5,175.5 Z"/></g>
<g><path style="opacity:1" fill="#474747" d="M 519.5,175.5 C 522.833,175.5 526.167,175.5 529.5,175.5C 529.5,176.833 529.5,178.167 529.5,179.5C 526.167,179.5 522.833,179.5 519.5,179.5C 519.5,178.167 519.5,176.833 519.5,175.5 Z"/></g>
<g><path style="opacity:1" fill="#7e7e7e" d="M 643.5,175.5 C 645.436,179.715 646.103,184.381 645.5,189.5C 646.833,189.5 648.167,189.5 649.5,189.5C 648.082,191.308 646.082,191.975 643.5,191.5C 643.5,186.167 643.5,180.833 643.5,175.5 Z"/></g>
<g><path style="opacity:1" fill="#8c8c8c" d="M 765.5,173.5 C 767.453,179.074 768.12,185.074 767.5,191.5C 764.918,191.975 762.918,191.308 761.5,189.5C 762.833,189.5 764.167,189.5 765.5,189.5C 765.5,184.167 765.5,178.833 765.5,173.5 Z"/></g>
<g><path style="opacity:1" fill="#bababa" d="M 835.5,173.5 C 837.453,179.074 838.12,185.074 837.5,191.5C 835.5,191.5 833.5,191.5 831.5,191.5C 831.5,186.833 831.5,182.167 831.5,177.5C 833.118,181.084 834.118,185.084 834.5,189.5C 835.495,184.208 835.828,178.875 835.5,173.5 Z"/></g>
<g><path style="opacity:1" fill="#444444" d="M 845.5,175.5 C 848.833,175.5 852.167,175.5 855.5,175.5C 855.5,176.833 855.5,178.167 855.5,179.5C 852.167,179.5 848.833,179.5 845.5,179.5C 845.5,178.167 845.5,176.833 845.5,175.5 Z"/></g>
<g><path style="opacity:1" fill="#8d8d8d" d="M 947.5,175.5 C 948.167,175.5 948.833,175.5 949.5,175.5C 949.5,180.833 949.5,186.167 949.5,191.5C 946.918,191.975 944.918,191.308 943.5,189.5C 944.833,189.5 946.167,189.5 947.5,189.5C 947.5,184.833 947.5,180.167 947.5,175.5 Z"/></g>
<g><path style="opacity:1" fill="#353535" d="M 973.5,175.5 C 976.167,175.5 978.833,175.5 981.5,175.5C 981.5,176.833 981.5,178.167 981.5,179.5C 978.833,179.5 976.167,179.5 973.5,179.5C 973.5,178.167 973.5,176.833 973.5,175.5 Z"/></g>
<g><path style="opacity:1" fill="#8d8d8d" d="M 485.5,175.5 C 487.446,180.396 488.113,185.729 487.5,191.5C 484.918,191.975 482.918,191.308 481.5,189.5C 482.833,189.5 484.167,189.5 485.5,189.5C 485.5,184.833 485.5,180.167 485.5,175.5 Z"/></g>
<g><path style="opacity:1" fill="#7c7c7c" d="M 515.5,177.5 C 515.5,180.167 515.5,182.833 515.5,185.5C 514.252,184.666 513.585,183.333 513.5,181.5C 513.585,179.667 514.252,178.334 515.5,177.5 Z"/></g>
<g><path style="opacity:1" fill="#939393" d="M 637.5,177.5 C 637.5,182.167 637.5,186.833 637.5,191.5C 634.918,191.975 632.918,191.308 631.5,189.5C 632.833,189.5 634.167,189.5 635.5,189.5C 634.911,185.029 635.577,181.029 637.5,177.5 Z"/></g>
<g><path style="opacity:1" fill="#5f5f5f" d="M 709.5,171.5 C 710.833,172.833 712.167,174.167 713.5,175.5C 713.5,178.833 713.5,182.167 713.5,185.5C 711.631,183.365 710.964,180.698 711.5,177.5C 709.517,177.843 708.183,177.176 707.5,175.5C 709.176,174.817 709.843,173.483 709.5,171.5 Z"/></g>
<g><path style="opacity:1" fill="#7d7d7d" d="M 755.5,177.5 C 755.5,182.167 755.5,186.833 755.5,191.5C 752.918,191.975 750.918,191.308 749.5,189.5C 750.833,189.5 752.167,189.5 753.5,189.5C 752.911,185.029 753.577,181.029 755.5,177.5 Z"/></g>
<g><path style="opacity:1" fill="#767676" d="M 795.5,177.5 C 795.5,180.167 795.5,182.833 795.5,185.5C 794.252,184.666 793.585,183.333 793.5,181.5C 793.585,179.667 794.252,178.334 795.5,177.5 Z"/></g>
<g><path style="opacity:1" fill="#828282" d="M 813.5,177.5 C 814.748,178.334 815.415,179.667 815.5,181.5C 815.415,183.333 814.748,184.666 813.5,185.5C 813.5,182.833 813.5,180.167 813.5,177.5 Z"/></g>
<g><path style="opacity:1" fill="#949494" d="M 869.5,177.5 C 869.5,182.167 869.5,186.833 869.5,191.5C 866.918,191.975 864.918,191.308 863.5,189.5C 864.833,189.5 866.167,189.5 867.5,189.5C 866.911,185.029 867.577,181.029 869.5,177.5 Z"/></g>
<g><path style="opacity:1" fill="#5b5b5b" d="M 875.5,175.5 C 877.446,180.396 878.113,185.729 877.5,191.5C 875.554,186.604 874.887,181.271 875.5,175.5 Z"/></g>
<g><path style="opacity:1" fill="#545454" d="M 881.5,175.5 C 882.167,175.5 882.833,175.5 883.5,175.5C 884.113,181.271 883.446,186.604 881.5,191.5C 881.5,186.167 881.5,180.833 881.5,175.5 Z"/></g>
<g><path style="opacity:1" fill="#828282" d="M 995.5,177.5 C 995.5,179.5 995.5,181.5 995.5,183.5C 994.307,183.03 993.64,182.03 993.5,180.5C 993.64,178.97 994.307,177.97 995.5,177.5 Z"/></g>
<g><path style="opacity:1" fill="#828282" d="M 1019.5,177.5 C 1019.5,179.5 1019.5,181.5 1019.5,183.5C 1018.31,183.03 1017.64,182.03 1017.5,180.5C 1017.64,178.97 1018.31,177.97 1019.5,177.5 Z"/></g>
<g><path style="opacity:1" fill="#939393" d="M 1043.5,177.5 C 1043.5,182.167 1043.5,186.833 1043.5,191.5C 1040.92,191.975 1038.92,191.308 1037.5,189.5C 1038.83,189.5 1040.17,189.5 1041.5,189.5C 1040.91,185.029 1041.58,181.029 1043.5,177.5 Z"/></g>
<g><path style="opacity:1" fill="#3c6755" d="M 119.5,181.5 C 115.5,181.5 111.5,181.5 107.5,181.5C 107.5,184.833 107.5,188.167 107.5,191.5C 105.577,187.971 104.911,183.971 105.5,179.5C 110.619,178.897 115.285,179.564 119.5,181.5 Z"/></g>
<g><path style="opacity:1" fill="#5bba92" d="M 119.5,181.5 C 121.889,182.231 123.223,183.898 123.5,186.5C 123.21,188.044 122.544,189.377 121.5,190.5C 116.88,191.493 112.214,191.827 107.5,191.5C 107.5,188.167 107.5,184.833 107.5,181.5C 111.5,181.5 115.5,181.5 119.5,181.5 Z"/></g>
<g><path style="opacity:1" fill="#5bbc93" d="M 191.5,179.5 C 199.596,179.949 202.93,184.282 201.5,192.5C 201.511,197.1 200.511,201.433 198.5,205.5C 193.592,208.526 190.259,207.193 188.5,201.5C 187.167,195.5 187.167,189.5 188.5,183.5C 189.934,182.412 190.934,181.078 191.5,179.5 Z"/></g>
<g><path style="opacity:1" fill="#9f9f9f" d="M 337.5,175.5 C 337.5,178.833 337.5,182.167 337.5,185.5C 336.223,184.306 335.556,182.64 335.5,180.5C 335.556,178.36 336.223,176.694 337.5,175.5 Z"/></g>
<g><path style="opacity:1" fill="#636363" d="M 353.5,175.5 C 355.369,177.635 356.036,180.302 355.5,183.5C 350.833,183.5 346.167,183.5 341.5,183.5C 345.029,181.577 349.029,180.911 353.5,181.5C 353.5,179.5 353.5,177.5 353.5,175.5 Z"/></g>
<g><path style="opacity:1" fill="#575757" d="M 533.5,181.5 C 529.5,182.833 525.5,184.167 521.5,185.5C 519.824,184.817 519.157,183.483 519.5,181.5C 524.167,181.5 528.833,181.5 533.5,181.5 Z"/></g>
<g><path style="opacity:1" fill="#dfdfdf" d="M 665.5,189.5 C 666.183,187.824 667.517,187.157 669.5,187.5C 671.5,187.5 673.5,187.5 675.5,187.5C 675.5,186.167 675.5,184.833 675.5,183.5C 669.945,184.457 665.945,182.457 663.5,177.5C 664.754,175.666 665.421,173.666 665.5,171.5C 670.167,171.5 674.833,171.5 679.5,171.5C 679.5,172.833 679.5,174.167 679.5,175.5C 676.167,175.5 672.833,175.5 669.5,175.5C 669.5,176.833 669.5,178.167 669.5,179.5C 677.854,178.183 680.854,181.516 678.5,189.5C 676.377,190.694 674.043,191.36 671.5,191.5C 669.048,191.461 667.048,190.794 665.5,189.5 Z"/></g>
<g><path style="opacity:1" fill="#8f8f8f" d="M 695.5,175.5 C 695.5,178.833 695.5,182.167 695.5,185.5C 694.223,184.306 693.556,182.64 693.5,180.5C 693.556,178.36 694.223,176.694 695.5,175.5 Z"/></g>
<g><path style="opacity:1" fill="#838383" d="M 731.5,175.5 C 732.777,176.694 733.444,178.36 733.5,180.5C 733.444,182.64 732.777,184.306 731.5,185.5C 731.5,182.167 731.5,178.833 731.5,175.5 Z"/></g>
<g><path style="opacity:1" fill="#626262" d="M 859.5,181.5 C 855.5,182.833 851.5,184.167 847.5,185.5C 845.824,184.817 845.157,183.483 845.5,181.5C 850.167,181.5 854.833,181.5 859.5,181.5 Z"/></g>
<g><path style="opacity:1" fill="#343434" d="M 305.5,181.5 C 307.5,181.5 309.5,181.5 311.5,181.5C 311.5,185.5 309.5,187.5 305.5,187.5C 305.5,185.5 305.5,183.5 305.5,181.5 Z"/></g>
<g><path style="opacity:1" fill="#3c3c3c" d="M 457.5,187.5 C 455.5,187.5 453.5,187.5 451.5,187.5C 451.5,185.5 451.5,183.5 451.5,181.5C 453.5,181.5 455.5,181.5 457.5,181.5C 457.5,183.5 457.5,185.5 457.5,187.5 Z"/></g>
<g><path style="opacity:1" fill="#383838" d="M 937.5,181.5 C 939.5,181.5 941.5,181.5 943.5,181.5C 942.574,187.638 939.907,188.638 935.5,184.5C 936.612,183.735 937.279,182.735 937.5,181.5 Z"/></g>
<g><path style="opacity:1" fill="#8b8b8b" d="M 551.5,183.5 C 552.586,183.62 553.253,184.287 553.5,185.5C 553.253,186.713 552.586,187.38 551.5,187.5C 551.5,186.167 551.5,184.833 551.5,183.5 Z"/></g>
<g><path style="opacity:1" fill="#8c8c8c" d="M 669.5,187.5 C 667.517,187.157 666.183,187.824 665.5,189.5C 663.824,188.817 663.157,187.483 663.5,185.5C 666.082,185.025 668.082,185.692 669.5,187.5 Z"/></g>
<g><path style="opacity:1" fill="#646464" d="M 847.5,185.5 C 851.971,184.911 855.971,185.577 859.5,187.5C 855.029,188.089 851.029,187.423 847.5,185.5 Z"/></g>
<g><path style="opacity:1" fill="#7e7e7e" d="M 531.5,185.5 C 532.586,185.62 533.253,186.287 533.5,187.5C 533.253,188.713 532.586,189.38 531.5,189.5C 531.5,188.167 531.5,186.833 531.5,185.5 Z"/></g>
<g><path style="opacity:1" fill="#a6a6a6" d="M 283.5,163.5 C 282.167,163.5 280.833,163.5 279.5,163.5C 279.5,172.167 279.5,180.833 279.5,189.5C 284.875,189.828 290.208,189.495 295.5,188.5C 291.084,188.118 287.084,187.118 283.5,185.5C 288.167,185.5 292.833,185.5 297.5,185.5C 297.5,187.5 297.5,189.5 297.5,191.5C 290.833,191.5 284.167,191.5 277.5,191.5C 277.5,181.5 277.5,171.5 277.5,161.5C 280.082,161.025 282.082,161.692 283.5,163.5 Z"/></g>
<g><path style="opacity:1" fill="#989898" d="M 301.5,189.5 C 306.833,189.5 312.167,189.5 317.5,189.5C 315.257,190.812 312.59,191.478 309.5,191.5C 306.41,191.478 303.743,190.812 301.5,189.5 Z"/></g>
<g><path style="opacity:1" fill="#a8a8a8" d="M 333.5,187.5 C 335.176,188.183 335.843,189.517 335.5,191.5C 331.671,192.069 328.337,191.402 325.5,189.5C 328.698,190.036 331.365,189.369 333.5,187.5 Z"/></g>
<g><path style="opacity:1" fill="#a8a8a8" d="M 389.5,187.5 C 391.176,188.183 391.843,189.517 391.5,191.5C 387.671,192.069 384.337,191.402 381.5,189.5C 384.698,190.036 387.365,189.369 389.5,187.5 Z"/></g>
<g><path style="opacity:1" fill="#a3a3a3" d="M 461.5,173.5 C 463.453,179.074 464.12,185.074 463.5,191.5C 457.729,192.113 452.396,191.446 447.5,189.5C 451.329,190.069 454.663,189.402 457.5,187.5C 458.735,187.721 459.735,188.388 460.5,189.5C 461.495,184.208 461.828,178.875 461.5,173.5 Z"/></g>
<g><path style="opacity:1" fill="#555555" d="M 503.5,193.5 C 500.833,192.167 498.167,190.833 495.5,189.5C 498.788,189.927 501.788,189.26 504.5,187.5C 504.833,188.5 505.167,189.5 505.5,190.5C 505.36,192.03 504.693,193.03 503.5,193.5 Z"/></g>
<g><path style="opacity:1" fill="#7e7e7e" d="M 623.5,185.5 C 625.5,185.5 627.5,185.5 629.5,185.5C 629.975,188.082 629.308,190.082 627.5,191.5C 627.5,190.167 627.5,188.833 627.5,187.5C 625.517,187.843 624.183,187.176 623.5,185.5 Z"/></g>
<g><path style="opacity:1" fill="#457f67" d="M 181.5,185.5 C 181.5,190.167 181.5,194.833 181.5,199.5C 180.195,197.603 179.529,195.269 179.5,192.5C 179.529,189.731 180.195,187.397 181.5,185.5 Z"/></g>
<g><path style="opacity:1" fill="#396050" d="M 107.5,197.5 C 107.5,202.833 107.5,208.167 107.5,213.5C 104.302,214.036 101.635,213.369 99.5,211.5C 101.5,211.5 103.5,211.5 105.5,211.5C 104.897,206.381 105.564,201.715 107.5,197.5 Z"/></g>
<g><path style="opacity:1" fill="#6e6e6e" d="M 495.5,197.5 C 498.167,197.5 500.833,197.5 503.5,197.5C 502.666,198.748 501.333,199.415 499.5,199.5C 497.667,199.415 496.334,198.748 495.5,197.5 Z"/></g>
<g><path style="opacity:1" fill="#656565" d="M 993.5,197.5 C 996.833,197.5 1000.17,197.5 1003.5,197.5C 1002.31,198.777 1000.64,199.444 998.5,199.5C 996.36,199.444 994.694,198.777 993.5,197.5 Z"/></g>
<g><path style="opacity:1" fill="#242927" d="M 175.5,211.5 C 172.833,211.5 170.167,211.5 167.5,211.5C 167.5,209.5 167.5,207.5 167.5,205.5C 170.167,205.5 172.833,205.5 175.5,205.5C 175.5,207.5 175.5,209.5 175.5,211.5 Z"/></g>
<g><path style="opacity:1" fill="#646464" d="M 277.5,209.5 C 277.5,214.833 277.5,220.167 277.5,225.5C 280.833,225.5 284.167,225.5 287.5,225.5C 283.971,227.423 279.971,228.089 275.5,227.5C 274.88,221.074 275.547,215.074 277.5,209.5 Z"/></g>
<g><path style="opacity:1" fill="#cbcbcb" d="M 541.5,209.5 C 545.555,209.176 549.555,209.509 553.5,210.5C 555.922,212.726 555.922,215.06 553.5,217.5C 555.356,220.036 555.689,222.702 554.5,225.5C 550.418,227.346 546.085,228.013 541.5,227.5C 541.5,221.5 541.5,215.5 541.5,209.5 Z"/></g>
<g><path style="opacity:1" fill="#3c6856" d="M 129.5,209.5 C 131.176,210.183 131.843,211.517 131.5,213.5C 128.302,214.036 125.635,213.369 123.5,211.5C 126.082,211.975 128.082,211.308 129.5,209.5 Z"/></g>
<g><path style="opacity:1" fill="#396151" d="M 167.5,211.5 C 170.167,211.5 172.833,211.5 175.5,211.5C 174.666,212.748 173.333,213.415 171.5,213.5C 169.667,213.415 168.334,212.748 167.5,211.5 Z"/></g>
<g><path style="opacity:1" fill="#e8e8e8" d="M 277.5,209.5 C 281.555,209.176 285.555,209.509 289.5,210.5C 291.005,211.842 291.672,213.508 291.5,215.5C 291.5,217.5 291.5,219.5 291.5,221.5C 290.833,223.5 289.5,224.833 287.5,225.5C 284.167,225.5 280.833,225.5 277.5,225.5C 277.5,220.167 277.5,214.833 277.5,209.5 Z"/></g>
<g><path style="opacity:1" fill="#f7f7f7" d="M 335.5,209.5 C 334.897,214.619 335.564,219.285 337.5,223.5C 336.817,225.176 335.483,225.843 333.5,225.5C 332.887,219.729 333.554,214.396 335.5,209.5 Z"/></g>
<g><path style="opacity:1" fill="#737373" d="M 335.5,209.5 C 337.436,213.715 338.103,218.381 337.5,223.5C 335.564,219.285 334.897,214.619 335.5,209.5 Z"/></g>
<g><path style="opacity:1" fill="#ededed" d="M 535.5,213.5 C 533.564,217.715 532.897,222.381 533.5,227.5C 531.554,222.604 530.887,217.271 531.5,211.5C 529.396,211.799 527.396,211.466 525.5,210.5C 530.167,209.167 534.833,209.167 539.5,210.5C 537.668,211.057 536.335,212.057 535.5,213.5 Z"/></g>
<g><path style="opacity:1" fill="#909090" d="M 559.5,209.5 C 559.5,214.833 559.5,220.167 559.5,225.5C 562.167,225.5 564.833,225.5 567.5,225.5C 564.663,227.402 561.329,228.069 557.5,227.5C 556.88,221.074 557.547,215.074 559.5,209.5 Z"/></g>
<g><path style="opacity:1" fill="#636363" d="M 285.5,213.5 C 284.167,213.5 282.833,213.5 281.5,213.5C 281.5,216.833 281.5,220.167 281.5,223.5C 279.577,219.971 278.911,215.971 279.5,211.5C 282.082,211.025 284.082,211.692 285.5,213.5 Z"/></g>
<g><path style="opacity:1" fill="#2c2c2c" d="M 285.5,213.5 C 289.045,215.129 290.045,217.795 288.5,221.5C 286.477,223.173 284.144,223.84 281.5,223.5C 281.5,220.167 281.5,216.833 281.5,213.5C 282.833,213.5 284.167,213.5 285.5,213.5 Z"/></g>
<g><path style="opacity:1" fill="#5f5f5f" d="M 377.5,215.5 C 374.833,215.5 372.167,215.5 369.5,215.5C 370.334,214.252 371.667,213.585 373.5,213.5C 375.333,213.585 376.666,214.252 377.5,215.5 Z"/></g>
<g><path style="opacity:1" fill="#5f5f5f" d="M 411.5,215.5 C 408.833,215.5 406.167,215.5 403.5,215.5C 404.334,214.252 405.667,213.585 407.5,213.5C 409.333,213.585 410.666,214.252 411.5,215.5 Z"/></g>
<g><path style="opacity:1" fill="#717171" d="M 535.5,213.5 C 536.103,218.619 535.436,223.285 533.5,227.5C 532.897,222.381 533.564,217.715 535.5,213.5 Z"/></g>
<g><path style="opacity:1" fill="#414141" d="M 545.5,211.5 C 547.5,211.5 549.5,211.5 551.5,211.5C 551.5,213.5 551.5,215.5 551.5,217.5C 549.5,217.5 547.5,217.5 545.5,217.5C 545.5,215.5 545.5,213.5 545.5,211.5 Z"/></g>
<g><path style="opacity:1" fill="#cecece" d="M 341.5,225.5 C 341.5,224.167 340.833,223.5 339.5,223.5C 339.16,220.856 339.827,218.523 341.5,216.5C 344.768,215.513 348.102,215.18 351.5,215.5C 351.82,218.898 351.487,222.232 350.5,225.5C 349.377,226.544 348.044,227.21 346.5,227.5C 344.696,227.014 343.029,226.347 341.5,225.5 Z"/></g>
<g><path style="opacity:1" fill="#8c8c8c" d="M 355.5,215.5 C 355.5,220.833 355.5,226.167 355.5,231.5C 354.188,229.257 353.522,226.59 353.5,223.5C 353.522,220.41 354.188,217.743 355.5,215.5 Z"/></g>
<g><path style="opacity:1" fill="#575757" d="M 369.5,215.5 C 369.5,219.5 369.5,223.5 369.5,227.5C 368.167,226.833 366.833,226.167 365.5,225.5C 365.5,222.833 365.5,220.167 365.5,217.5C 366.833,216.833 368.167,216.167 369.5,215.5 Z"/></g>
<g><path style="opacity:1" fill="#d3d3d3" d="M 369.5,215.5 C 372.167,215.5 374.833,215.5 377.5,215.5C 386.317,214.624 389.65,218.624 387.5,227.5C 386.167,227.5 384.833,227.5 383.5,227.5C 383.5,224.167 383.5,220.833 383.5,217.5C 382.167,217.5 380.833,217.5 379.5,217.5C 379.5,220.833 379.5,224.167 379.5,227.5C 378.167,227.5 376.833,227.5 375.5,227.5C 375.5,224.167 375.5,220.833 375.5,217.5C 374.167,217.5 372.833,217.5 371.5,217.5C 372.069,221.329 371.402,224.663 369.5,227.5C 369.5,223.5 369.5,219.5 369.5,215.5 Z"/></g>
<g><path style="opacity:1" fill="#eeeeee" d="M 403.5,215.5 C 406.167,215.5 408.833,215.5 411.5,215.5C 413.402,218.337 414.069,221.671 413.5,225.5C 412.167,222.833 410.833,220.167 409.5,217.5C 408.167,217.5 406.833,217.5 405.5,217.5C 405.5,220.167 405.5,222.833 405.5,225.5C 403.598,222.663 402.931,219.329 403.5,215.5 Z"/></g>
<g><path style="opacity:1" fill="#e4e4e4" d="M 481.5,215.5 C 482.069,219.329 481.402,222.663 479.5,225.5C 479.5,222.833 479.5,220.167 479.5,217.5C 477.517,217.157 476.183,217.824 475.5,219.5C 474.167,221.5 472.833,223.5 471.5,225.5C 471.5,222.167 471.5,218.833 471.5,215.5C 474.833,215.5 478.167,215.5 481.5,215.5 Z"/></g>
<g><path style="opacity:1" fill="#9e9e9e" d="M 493.5,215.5 C 492.167,215.5 491.5,216.167 491.5,217.5C 490.167,217.5 489.5,218.167 489.5,219.5C 488.167,218.833 486.833,218.167 485.5,217.5C 486.231,215.111 487.898,213.777 490.5,213.5C 492.03,213.64 493.03,214.307 493.5,215.5 Z"/></g>
<g><path style="opacity:1" fill="#747474" d="M 499.5,215.5 C 498.931,219.329 499.598,222.663 501.5,225.5C 500.817,227.176 499.483,227.843 497.5,227.5C 497.975,224.918 497.308,222.918 495.5,221.5C 495.5,220.167 495.5,218.833 495.5,217.5C 496.833,216.833 498.167,216.167 499.5,215.5 Z"/></g>
<g><path style="opacity:1" fill="#fafafa" d="M 499.5,215.5 C 501.604,215.201 503.604,215.534 505.5,216.5C 504.311,217.429 502.978,217.762 501.5,217.5C 501.5,220.167 501.5,222.833 501.5,225.5C 499.598,222.663 498.931,219.329 499.5,215.5 Z"/></g>
<g><path style="opacity:1" fill="#e2e2e2" d="M 513.5,215.5 C 514.978,215.238 516.311,215.571 517.5,216.5C 516.833,216.833 516.167,217.167 515.5,217.5C 514.287,217.253 513.62,216.586 513.5,215.5 Z"/></g>
<g><path style="opacity:1" fill="#747474" d="M 291.5,215.5 C 292.833,216.167 294.167,216.833 295.5,217.5C 295.5,219.5 295.5,221.5 295.5,223.5C 294.167,222.833 292.833,222.167 291.5,221.5C 291.5,219.5 291.5,217.5 291.5,215.5 Z"/></g>
<g><path style="opacity:1" fill="#363636" d="M 343.5,217.5 C 345.5,217.5 347.5,217.5 349.5,217.5C 349.5,219.5 349.5,221.5 349.5,223.5C 347.5,223.5 345.5,223.5 343.5,223.5C 343.5,221.5 343.5,219.5 343.5,217.5 Z"/></g>
<g><path style="opacity:1" fill="#d7d7d7" d="M 399.5,217.5 C 399.5,218.833 399.5,220.167 399.5,221.5C 397.5,221.5 395.5,221.5 393.5,221.5C 392.167,222.167 390.833,222.833 389.5,223.5C 388.988,218.675 390.988,215.342 395.5,213.5C 397.545,214.211 398.878,215.544 399.5,217.5 Z"/></g>
<g><path style="opacity:1" fill="#212221" d="M 393.5,217.5 C 394.978,217.238 396.311,217.571 397.5,218.5C 396.833,218.833 396.167,219.167 395.5,219.5C 394.287,219.253 393.62,218.586 393.5,217.5 Z"/></g>
<g><path style="opacity:1" fill="#838383" d="M 481.5,215.5 C 483.423,219.029 484.089,223.029 483.5,227.5C 481.517,227.843 480.183,227.176 479.5,225.5C 481.402,222.663 482.069,219.329 481.5,215.5 Z"/></g>
<g><path style="opacity:1" fill="#d5d5d5" d="M 303.5,217.5 C 305.176,218.183 305.843,219.517 305.5,221.5C 294.913,221.864 294.913,222.864 305.5,224.5C 301.598,228.629 298.265,228.296 295.5,223.5C 295.5,221.5 295.5,219.5 295.5,217.5C 296.334,216.252 297.667,215.585 299.5,215.5C 301.333,215.585 302.666,216.252 303.5,217.5 Z"/></g>
<g><path style="opacity:1" fill="#393939" d="M 303.5,217.5 C 303.03,218.693 302.03,219.36 300.5,219.5C 299.5,219.167 298.5,218.833 297.5,218.5C 299.396,217.534 301.396,217.201 303.5,217.5 Z"/></g>
<g><path style="opacity:1" fill="#cfcfcf" d="M 307.5,215.5 C 310.08,216.615 311.746,218.615 312.5,221.5C 313.337,219.156 314.671,217.156 316.5,215.5C 317.514,220.169 316.18,224.169 312.5,227.5C 309.175,224.184 307.508,220.184 307.5,215.5 Z"/></g>
<g><path style="opacity:1" fill="#d3d3d3" d="M 323.5,223.5 C 323.5,224.833 322.833,225.5 321.5,225.5C 320.252,224.666 319.585,223.333 319.5,221.5C 319.716,219.616 320.383,217.949 321.5,216.5C 324.167,215.167 326.833,215.167 329.5,216.5C 331.005,217.842 331.672,219.508 331.5,221.5C 328.302,220.964 325.635,221.631 323.5,223.5 Z"/></g>
<g><path style="opacity:1" fill="#212221" d="M 323.5,217.5 C 324.978,217.238 326.311,217.571 327.5,218.5C 326.833,218.833 326.167,219.167 325.5,219.5C 324.287,219.253 323.62,218.586 323.5,217.5 Z"/></g>
<g><path style="opacity:1" fill="#797979" d="M 409.5,217.5 C 410.833,220.167 412.167,222.833 413.5,225.5C 412.817,227.176 411.483,227.843 409.5,227.5C 409.5,224.167 409.5,220.833 409.5,217.5 Z"/></g>
<g><path style="opacity:1" fill="#9c9c9c" d="M 433.5,213.5 C 433.5,216.167 433.5,218.833 433.5,221.5C 432.252,220.666 431.585,219.333 431.5,217.5C 431.585,215.667 432.252,214.334 433.5,213.5 Z"/></g>
<g><path style="opacity:1" fill="#ececec" d="M 493.5,215.5 C 494.833,215.5 495.5,216.167 495.5,217.5C 495.5,218.833 495.5,220.167 495.5,221.5C 492.753,221.187 490.086,221.52 487.5,222.5C 487.957,223.298 488.624,223.631 489.5,223.5C 489.5,224.833 488.833,225.5 487.5,225.5C 485.631,223.365 484.964,220.698 485.5,217.5C 486.833,218.167 488.167,218.833 489.5,219.5C 490.978,219.762 492.311,219.429 493.5,218.5C 493.043,217.702 492.376,217.369 491.5,217.5C 491.5,216.167 492.167,215.5 493.5,215.5 Z"/></g>
<g><path style="opacity:1" fill="#2b2b2b" d="M 491.5,217.5 C 492.376,217.369 493.043,217.702 493.5,218.5C 492.311,219.429 490.978,219.762 489.5,219.5C 489.5,218.167 490.167,217.5 491.5,217.5 Z"/></g>
<g><path style="opacity:1" fill="#212221" d="M 545.5,219.5 C 547.5,219.5 549.5,219.5 551.5,219.5C 551.5,220.833 551.5,222.167 551.5,223.5C 549.5,223.5 547.5,223.5 545.5,223.5C 545.5,222.167 545.5,220.833 545.5,219.5 Z"/></g>
<g><path style="opacity:1" fill="#c9c9c9" d="M 433.5,221.5 C 433.5,218.833 433.5,216.167 433.5,213.5C 434.768,210.606 437.102,209.273 440.5,209.5C 445.049,209.055 447.383,211.055 447.5,215.5C 451.281,215.093 454.281,216.426 456.5,219.5C 457.429,218.311 457.762,216.978 457.5,215.5C 461.322,215.649 463.655,217.649 464.5,221.5C 465.466,219.604 465.799,217.604 465.5,215.5C 466.833,215.5 468.167,215.5 469.5,215.5C 468.167,219.5 466.833,223.5 465.5,227.5C 464.167,227.5 462.833,227.5 461.5,227.5C 461.799,225.396 461.466,223.396 460.5,221.5C 458.423,222.988 457.423,224.988 457.5,227.5C 456.167,227.5 454.833,227.5 453.5,227.5C 453.517,223.883 452.517,220.55 450.5,217.5C 448.474,222.192 445.141,225.526 440.5,227.5C 438.223,226.522 435.89,225.855 433.5,225.5C 433.5,224.167 433.5,222.833 433.5,221.5 Z"/></g>
<g><path style="opacity:1" fill="#2a2a2a" d="M 435.5,213.5 C 438.247,213.187 440.914,213.52 443.5,214.5C 445.534,216.599 445.868,218.932 444.5,221.5C 442.401,223.534 440.068,223.868 437.5,222.5C 435.74,219.788 435.073,216.788 435.5,213.5 Z"/></g>
<g><path style="opacity:1" fill="#9d9d9d" d="M 323.5,223.5 C 326.247,223.187 328.914,223.52 331.5,224.5C 329.974,226.387 327.974,227.387 325.5,227.5C 323.667,227.415 322.334,226.748 321.5,225.5C 322.833,225.5 323.5,224.833 323.5,223.5 Z"/></g>
<g><path style="opacity:1" fill="#e0e0e0" d="M 355.5,215.5 C 359.329,214.931 362.663,215.598 365.5,217.5C 365.5,220.167 365.5,222.833 365.5,225.5C 364.2,226.108 362.867,226.775 361.5,227.5C 360.328,227.081 359.328,226.415 358.5,225.5C 358.036,227.975 357.036,229.975 355.5,231.5C 355.5,226.167 355.5,220.833 355.5,215.5 Z"/></g>
<g><path style="opacity:1" fill="#2f2f2f" d="M 357.5,217.5 C 359.5,217.5 361.5,217.5 363.5,217.5C 363.5,219.5 363.5,221.5 363.5,223.5C 361.5,223.5 359.5,223.5 357.5,223.5C 357.5,221.5 357.5,219.5 357.5,217.5 Z"/></g>
<g><path style="opacity:1" fill="#cdcdcd" d="M 417.5,211.5 C 418.833,211.5 420.167,211.5 421.5,211.5C 421.328,213.492 421.995,215.158 423.5,216.5C 422.456,217.623 421.79,218.956 421.5,220.5C 422.478,222.777 423.145,225.11 423.5,227.5C 421.508,227.672 419.842,227.005 418.5,225.5C 417.953,222.298 416.953,219.298 415.5,216.5C 417.005,215.158 417.672,213.492 417.5,211.5 Z"/></g>
<g><path style="opacity:1" fill="#d7d7d7" d="M 559.5,209.5 C 570.5,208.163 574.833,212.829 572.5,223.5C 571.158,225.005 569.492,225.672 567.5,225.5C 564.833,225.5 562.167,225.5 559.5,225.5C 559.5,220.167 559.5,214.833 559.5,209.5 Z"/></g>
<g><path style="opacity:1" fill="#252525" d="M 561.5,213.5 C 564.167,213.5 566.833,213.5 569.5,213.5C 569.5,216.833 569.5,220.167 569.5,223.5C 566.833,223.5 564.167,223.5 561.5,223.5C 561.5,220.167 561.5,216.833 561.5,213.5 Z"/></g>
<g><path style="opacity:1" fill="#828282" d="M 337.5,223.5 C 338.167,223.5 338.833,223.5 339.5,223.5C 340.833,223.5 341.5,224.167 341.5,225.5C 339.971,226.347 338.304,227.014 336.5,227.5C 334.97,227.36 333.97,226.693 333.5,225.5C 335.483,225.843 336.817,225.176 337.5,223.5 Z"/></g>
<g><path style="opacity:1" fill="#959595" d="M 403.5,215.5 C 402.931,219.329 403.598,222.663 405.5,225.5C 404.121,228.047 402.454,228.047 400.5,225.5C 397.725,227.607 394.725,227.941 391.5,226.5C 390.388,225.735 389.721,224.735 389.5,223.5C 390.833,222.833 392.167,222.167 393.5,221.5C 394.334,222.748 395.667,223.415 397.5,223.5C 398.833,223.167 400.167,222.833 401.5,222.5C 401.043,221.702 400.376,221.369 399.5,221.5C 399.5,220.167 399.5,218.833 399.5,217.5C 400.833,216.833 402.167,216.167 403.5,215.5 Z"/></g>
<g><path style="opacity:1" fill="#212221" d="M 393.5,221.5 C 395.5,221.5 397.5,221.5 399.5,221.5C 400.376,221.369 401.043,221.702 401.5,222.5C 400.167,222.833 398.833,223.167 397.5,223.5C 395.667,223.415 394.334,222.748 393.5,221.5 Z"/></g>
<g><path style="opacity:1" fill="#919191" d="M 475.5,219.5 C 475.5,222.167 475.5,224.833 475.5,227.5C 473.517,227.843 472.183,227.176 471.5,225.5C 472.833,223.5 474.167,221.5 475.5,219.5 Z"/></g>
<g><path style="opacity:1" fill="#989898" d="M 489.5,223.5 C 491.5,223.5 493.5,223.5 495.5,223.5C 495.5,224.833 495.5,226.167 495.5,227.5C 492.302,228.036 489.635,227.369 487.5,225.5C 488.833,225.5 489.5,224.833 489.5,223.5 Z"/></g>
<g><path style="opacity:1" fill="#b1b1b1" d="M 513.5,223.5 C 514.833,223.5 516.167,223.5 517.5,223.5C 517.5,224.833 517.5,226.167 517.5,227.5C 516.167,227.5 514.833,227.5 513.5,227.5C 513.5,226.167 513.5,224.833 513.5,223.5 Z"/></g>
<g><path style="opacity:1" fill="#fefeff" d="M 65.5,283.5 C 123.5,283.5 181.5,283.5 239.5,283.5C 240.167,283.5 240.833,283.5 241.5,283.5C 584.833,283.5 928.167,283.5 1271.5,283.5C 1271.5,417.5 1271.5,551.5 1271.5,685.5C 869.5,685.5 467.5,685.5 65.5,685.5C 65.5,551.5 65.5,417.5 65.5,283.5 Z"/></g>
<g><path style="opacity:1" fill="#a892ff" d="M 1025.5,385.5 C 786.833,385.5 548.167,385.5 309.5,385.5C 428.498,384.167 547.831,383.5 667.5,383.5C 787.169,383.5 906.502,384.167 1025.5,385.5 Z"/></g>
<g><path style="opacity:1" fill="#b09dff" d="M 303.5,385.5 C 302.817,387.176 301.483,387.843 299.5,387.5C 300.183,385.824 301.517,385.157 303.5,385.5 Z"/></g>
<g><path style="opacity:1" fill="#7452ff" d="M 303.5,385.5 C 305.5,385.5 307.5,385.5 309.5,385.5C 548.167,385.5 786.833,385.5 1025.5,385.5C 1033.14,385.71 1040.47,387.377 1047.5,390.5C 1066.93,399.926 1079.93,414.926 1086.5,435.5C 1087.49,438.768 1087.82,442.102 1087.5,445.5C 1087.5,488.167 1087.5,530.833 1087.5,573.5C 1087.5,574.833 1087.5,576.167 1087.5,577.5C 1081.92,607.084 1064.58,625.75 1035.5,633.5C 1033.52,633.157 1032.18,633.824 1031.5,635.5C 1030.17,635.5 1028.83,635.5 1027.5,635.5C 788.833,635.5 550.167,635.5 311.5,635.5C 297.18,634.617 284.514,629.617 273.5,620.5C 260.597,609.692 252.597,596.025 249.5,579.5C 249.843,577.517 249.176,576.183 247.5,575.5C 247.5,572.833 247.5,570.167 247.5,567.5C 247.5,529.5 247.5,491.5 247.5,453.5C 247.5,450.167 247.5,446.833 247.5,443.5C 249.176,442.817 249.843,441.483 249.5,439.5C 249.5,438.833 249.5,438.167 249.5,437.5C 251.176,436.817 251.843,435.483 251.5,433.5C 258.888,412.442 272.888,397.442 293.5,388.5C 295.396,387.534 297.396,387.201 299.5,387.5C 301.483,387.843 302.817,387.176 303.5,385.5 Z"/></g>
<g><path style="opacity:1" fill="#8468ff" d="M 1021.5,393.5 C 786.167,393.5 550.833,393.5 315.5,393.5C 432.831,392.167 550.498,391.5 668.5,391.5C 786.502,391.5 904.169,392.167 1021.5,393.5 Z"/></g>
<g><path style="opacity:1" fill="#fefefe" d="M 315.5,393.5 C 550.833,393.5 786.167,393.5 1021.5,393.5C 1026.22,393.848 1030.89,394.515 1035.5,395.5C 1036.18,397.176 1037.52,397.843 1039.5,397.5C 1048.91,401.044 1057.24,406.377 1064.5,413.5C 1065.73,416.732 1067.73,419.399 1070.5,421.5C 1073.98,427.119 1076.32,433.119 1077.5,439.5C 1077.16,441.483 1077.82,442.817 1079.5,443.5C 1079.5,444.833 1079.5,446.167 1079.5,447.5C 1079.5,484.833 1079.5,522.167 1079.5,559.5C 1077.76,572.301 1072.76,583.634 1064.5,593.5C 1060.65,596.261 1056.98,599.261 1053.5,602.5C 1048.78,604.86 1044.11,607.193 1039.5,609.5C 1037.52,609.157 1036.18,609.824 1035.5,611.5C 1034.17,611.5 1032.83,611.5 1031.5,611.5C 1029.52,611.157 1028.18,611.824 1027.5,613.5C 1024.83,613.5 1022.17,613.5 1019.5,613.5C 785.5,613.5 551.5,613.5 317.5,613.5C 314.167,613.5 310.833,613.5 307.5,613.5C 306.817,611.824 305.483,611.157 303.5,611.5C 302.833,611.5 302.167,611.5 301.5,611.5C 300.817,609.824 299.483,609.157 297.5,609.5C 278.03,602.695 265.363,589.362 259.5,569.5C 259.843,567.517 259.176,566.183 257.5,565.5C 257.5,564.167 257.5,562.833 257.5,561.5C 257.5,522.833 257.5,484.167 257.5,445.5C 257.5,444.167 257.5,442.833 257.5,441.5C 259.176,440.817 259.843,439.483 259.5,437.5C 259.5,436.833 259.5,436.167 259.5,435.5C 261.176,434.817 261.843,433.483 261.5,431.5C 268.519,414.816 280.519,403.149 297.5,396.5C 303.364,394.593 309.364,393.593 315.5,393.5 Z"/></g>
<g><path style="opacity:1" fill="#ae9aff" d="M 1035.5,395.5 C 1037.48,395.157 1038.82,395.824 1039.5,397.5C 1037.52,397.843 1036.18,397.176 1035.5,395.5 Z"/></g>
<g><path style="opacity:1" fill="#ccbdff" d="M 261.5,431.5 C 261.843,433.483 261.176,434.817 259.5,435.5C 259.157,433.517 259.824,432.183 261.5,431.5 Z"/></g>
<g><path style="opacity:1" fill="#a58fff" d="M 251.5,433.5 C 251.843,435.483 251.176,436.817 249.5,437.5C 249.157,435.517 249.824,434.183 251.5,433.5 Z"/></g>
<g><path style="opacity:1" fill="#c5b6ff" d="M 259.5,437.5 C 259.843,439.483 259.176,440.817 257.5,441.5C 257.157,439.517 257.824,438.183 259.5,437.5 Z"/></g>
<g><path style="opacity:1" fill="#cabeff" d="M 249.5,439.5 C 249.843,441.483 249.176,442.817 247.5,443.5C 247.157,441.517 247.824,440.183 249.5,439.5 Z"/></g>
<g><path style="opacity:1" fill="#c1b2ff" d="M 1077.5,439.5 C 1079.18,440.183 1079.84,441.517 1079.5,443.5C 1077.82,442.817 1077.16,441.483 1077.5,439.5 Z"/></g>
<g><path style="opacity:1" fill="#ede9fe" d="M 247.5,453.5 C 247.5,491.5 247.5,529.5 247.5,567.5C 246.167,548.845 245.5,529.845 245.5,510.5C 245.5,491.155 246.167,472.155 247.5,453.5 Z"/></g>
<g><path style="opacity:1" fill="#c7baff" d="M 257.5,445.5 C 257.5,484.167 257.5,522.833 257.5,561.5C 256.167,542.512 255.5,523.178 255.5,503.5C 255.5,483.822 256.167,464.488 257.5,445.5 Z"/></g>
<g><path style="opacity:1" fill="#a68fff" d="M 1079.5,447.5 C 1080.83,465.821 1081.5,484.488 1081.5,503.5C 1081.5,522.512 1080.83,541.179 1079.5,559.5C 1079.5,522.167 1079.5,484.833 1079.5,447.5 Z"/></g>
<g><path style="opacity:1" fill="#866aff" d="M 1087.5,445.5 C 1089.49,487.82 1090.16,530.487 1089.5,573.5C 1088.83,573.5 1088.17,573.5 1087.5,573.5C 1087.5,530.833 1087.5,488.167 1087.5,445.5 Z"/></g>
<g><path style="opacity:1" fill="#383838" d="M 429.5,489.5 C 424.833,489.5 420.167,489.5 415.5,489.5C 413.234,482.558 408.567,478.558 401.5,477.5C 399.952,476.206 397.952,475.539 395.5,475.5C 393.048,475.539 391.048,476.206 389.5,477.5C 382.811,479.86 378.477,484.526 376.5,491.5C 374.48,502.628 375.813,513.295 380.5,523.5C 388.144,531.942 397.144,533.609 407.5,528.5C 411.378,525.636 414.044,521.969 415.5,517.5C 420.167,517.5 424.833,517.5 429.5,517.5C 427.342,531.326 419.342,539.66 405.5,542.5C 387.051,546.105 373.384,539.771 364.5,523.5C 363.176,518.875 362.176,514.208 361.5,509.5C 361.5,504.833 361.5,500.167 361.5,495.5C 363.778,480.872 371.778,470.538 385.5,464.5C 404.716,460.44 419.049,466.773 428.5,483.5C 429.466,485.396 429.799,487.396 429.5,489.5 Z"/></g>
<g><path style="opacity:1" fill="#848484" d="M 455.5,465.5 C 451.5,465.5 447.5,465.5 443.5,465.5C 443.5,490.833 443.5,516.167 443.5,541.5C 447.5,541.5 451.5,541.5 455.5,541.5C 455.5,542.167 455.5,542.833 455.5,543.5C 450.833,543.5 446.167,543.5 441.5,543.5C 441.5,516.833 441.5,490.167 441.5,463.5C 446.619,462.897 451.285,463.564 455.5,465.5 Z"/></g>
<g><path style="opacity:1" fill="#343434" d="M 455.5,465.5 C 455.168,474.857 455.502,484.19 456.5,493.5C 458.329,491.844 459.663,489.844 460.5,487.5C 468.545,482.538 476.878,482.204 485.5,486.5C 489.967,489.776 492.634,494.109 493.5,499.5C 493.5,513.5 493.5,527.5 493.5,541.5C 489.5,541.5 485.5,541.5 481.5,541.5C 482.147,528.456 481.48,515.789 479.5,503.5C 478.434,497.45 474.767,494.784 468.5,495.5C 462.233,494.784 458.566,497.45 457.5,503.5C 455.52,515.789 454.853,528.456 455.5,541.5C 451.5,541.5 447.5,541.5 443.5,541.5C 443.5,516.167 443.5,490.833 443.5,465.5C 447.5,465.5 451.5,465.5 455.5,465.5 Z"/></g>
<g><path style="opacity:1" fill="#323332" d="M 795.5,465.5 C 799.5,465.5 803.5,465.5 807.5,465.5C 806.844,487.859 807.511,509.859 809.5,531.5C 820.167,531.5 830.833,531.5 841.5,531.5C 841.5,534.833 841.5,538.167 841.5,541.5C 826.167,541.5 810.833,541.5 795.5,541.5C 795.5,516.167 795.5,490.833 795.5,465.5 Z"/></g>
<g><path style="opacity:1" fill="#999999" d="M 809.5,529.5 C 809.5,530.167 809.5,530.833 809.5,531.5C 807.511,509.859 806.844,487.859 807.5,465.5C 803.5,465.5 799.5,465.5 795.5,465.5C 794.833,465.5 794.167,465.5 793.5,465.5C 798.396,463.554 803.729,462.887 809.5,463.5C 809.5,485.5 809.5,507.5 809.5,529.5 Z"/></g>
<g><path style="opacity:1" fill="#a1a1a1" d="M 401.5,477.5 C 397.5,477.5 393.5,477.5 389.5,477.5C 391.048,476.206 393.048,475.539 395.5,475.5C 397.952,475.539 399.952,476.206 401.5,477.5 Z"/></g>
<g><path style="opacity:1" fill="#383838" d="M 555.5,499.5 C 555.5,513.5 555.5,527.5 555.5,541.5C 551.5,541.5 547.5,541.5 543.5,541.5C 543.799,539.396 543.466,537.396 542.5,535.5C 537.97,541.431 531.97,544.098 524.5,543.5C 521.5,543.167 518.5,542.833 515.5,542.5C 513.844,540.671 511.844,539.337 509.5,538.5C 507.172,534.512 505.838,530.179 505.5,525.5C 505.937,521.114 507.27,517.114 509.5,513.5C 513.991,511.59 518.658,510.256 523.5,509.5C 526.698,510.036 529.365,509.369 531.5,507.5C 539.854,508.817 542.854,505.484 540.5,497.5C 534.649,492.381 528.649,492.381 522.5,497.5C 521.571,498.689 521.238,500.022 521.5,501.5C 516.792,500.824 512.125,499.824 507.5,498.5C 514.838,484.506 526.171,479.84 541.5,484.5C 546.705,486.267 551.038,489.267 554.5,493.5C 555.466,495.396 555.799,497.396 555.5,499.5 Z"/></g>
<g><path style="opacity:1" fill="#363636" d="M 621.5,541.5 C 616.833,541.5 612.167,541.5 607.5,541.5C 607.833,527.484 607.499,513.484 606.5,499.5C 605.5,498.5 604.5,497.5 603.5,496.5C 598.833,495.167 594.167,495.167 589.5,496.5C 586.854,498.132 585.521,500.465 585.5,503.5C 583.52,515.789 582.853,528.456 583.5,541.5C 579.5,541.5 575.5,541.5 571.5,541.5C 571.5,522.833 571.5,504.167 571.5,485.5C 575.5,485.5 579.5,485.5 583.5,485.5C 583.187,488.247 583.52,490.914 584.5,493.5C 587.828,486.332 593.494,482.998 601.5,483.5C 610.566,483.199 616.9,487.199 620.5,495.5C 621.499,510.819 621.833,526.152 621.5,541.5 Z"/></g>
<g><path style="opacity:1" fill="#373737" d="M 675.5,485.5 C 679.5,485.5 683.5,485.5 687.5,485.5C 687.5,506.833 687.5,528.167 687.5,549.5C 685.788,558.209 680.454,563.209 671.5,564.5C 660.963,566.636 650.963,565.303 641.5,560.5C 639.013,558.191 637.013,555.524 635.5,552.5C 637.7,550.454 640.367,549.454 643.5,549.5C 647.876,549.115 651.209,550.781 653.5,554.5C 671.167,558.167 678.167,551.167 674.5,533.5C 667.708,540.905 659.375,543.239 649.5,540.5C 646.833,539.167 644.167,537.833 641.5,536.5C 635.655,529.632 632.988,521.632 633.5,512.5C 633.162,501.842 637.162,493.175 645.5,486.5C 651.905,483.533 658.571,482.867 665.5,484.5C 666.988,486.577 668.988,487.577 671.5,487.5C 671.423,490.012 672.423,492.012 674.5,493.5C 675.48,490.914 675.813,488.247 675.5,485.5 Z"/></g>
<g><path style="opacity:1" fill="#383838" d="M 701.5,519.5 C 701.5,516.167 701.5,512.833 701.5,509.5C 701.859,497.119 707.859,488.786 719.5,484.5C 744.489,481.152 756.489,492.152 755.5,517.5C 742.167,517.5 728.833,517.5 715.5,517.5C 715.813,530.677 722.48,535.677 735.5,532.5C 737.95,529.374 740.95,527.041 744.5,525.5C 747.379,526.795 750.379,527.462 753.5,527.5C 752.82,533.85 749.487,538.183 743.5,540.5C 733.5,544.5 723.5,544.5 713.5,540.5C 706.632,535.093 702.632,528.093 701.5,519.5 Z"/></g>
<g><path style="opacity:1" fill="#373737" d="M 907.5,507.5 C 907.5,512.167 907.5,516.833 907.5,521.5C 904.123,535.888 895.123,543.221 880.5,543.5C 876.833,543.167 873.167,542.833 869.5,542.5C 859.766,537.785 854.433,530.119 853.5,519.5C 853.5,515.5 853.5,511.5 853.5,507.5C 853.244,503.191 854.244,499.191 856.5,495.5C 860.247,491.082 864.58,487.416 869.5,484.5C 885.656,480.42 897.989,485.42 906.5,499.5C 907.48,502.086 907.813,504.753 907.5,507.5 Z"/></g>
<g><path style="opacity:1" fill="#373737" d="M 959.5,485.5 C 964.167,485.5 968.833,485.5 973.5,485.5C 973.833,507.51 973.5,529.51 972.5,551.5C 970.167,556.5 966.5,560.167 961.5,562.5C 952.348,565.453 943.015,566.12 933.5,564.5C 930.344,562.311 927.011,560.644 923.5,559.5C 922.424,556.266 921.757,552.932 921.5,549.5C 925.555,549.176 929.555,549.509 933.5,550.5C 934.833,551.833 936.167,553.167 937.5,554.5C 955.276,558.058 962.276,551.058 958.5,533.5C 956.072,536.598 953.072,538.931 949.5,540.5C 943.5,541.833 937.5,541.833 931.5,540.5C 921.731,533.296 917.065,523.63 917.5,511.5C 919.402,508.663 920.069,505.329 919.5,501.5C 925.378,484.567 936.711,479.567 953.5,486.5C 955.903,488.305 957.57,490.638 958.5,493.5C 959.48,490.914 959.813,488.247 959.5,485.5 Z"/></g>
<g><path style="opacity:1" fill="#696969" d="M 973.5,485.5 C 968.833,485.5 964.167,485.5 959.5,485.5C 961.397,484.195 963.731,483.529 966.5,483.5C 969.269,483.529 971.603,484.195 973.5,485.5 Z"/></g>
<g><path style="opacity:1" fill="#7f7f7f" d="M 583.5,485.5 C 579.5,485.5 575.5,485.5 571.5,485.5C 571.5,504.167 571.5,522.833 571.5,541.5C 575.5,541.5 579.5,541.5 583.5,541.5C 583.5,542.167 583.5,542.833 583.5,543.5C 578.833,543.5 574.167,543.5 569.5,543.5C 569.5,523.5 569.5,503.5 569.5,483.5C 574.619,482.897 579.285,483.564 583.5,485.5 Z"/></g>
<g><path style="opacity:1" fill="#686868" d="M 687.5,549.5 C 687.5,528.167 687.5,506.833 687.5,485.5C 683.5,485.5 679.5,485.5 675.5,485.5C 679.715,483.564 684.381,482.897 689.5,483.5C 690.156,505.859 689.489,527.859 687.5,549.5 Z"/></g>
<g><path style="opacity:1" fill="#656665" d="M 415.5,489.5 C 420.167,489.5 424.833,489.5 429.5,489.5C 427.603,490.805 425.269,491.471 422.5,491.5C 419.731,491.471 417.397,490.805 415.5,489.5 Z"/></g>
<g><path style="opacity:1" fill="#a8a8a8" d="M 733.5,495.5 C 730.167,495.5 726.833,495.5 723.5,495.5C 724.694,494.223 726.36,493.556 728.5,493.5C 730.64,493.556 732.306,494.223 733.5,495.5 Z"/></g>
<g><path style="opacity:1" fill="#969696" d="M 885.5,495.5 C 882.167,495.5 878.833,495.5 875.5,495.5C 876.694,494.223 878.36,493.556 880.5,493.5C 882.64,493.556 884.306,494.223 885.5,495.5 Z"/></g>
<g><path style="opacity:1" fill="#f7f7f7" d="M 655.5,495.5 C 660.974,495.303 666.308,495.969 671.5,497.5C 671.917,500.343 672.917,503.01 674.5,505.5C 677.239,515.375 674.905,523.708 667.5,530.5C 657.254,533.587 650.921,529.921 648.5,519.5C 646.867,512.571 647.533,505.905 650.5,499.5C 652.489,498.368 654.156,497.035 655.5,495.5 Z"/></g>
<g><path style="opacity:1" fill="#f9f9f9" d="M 723.5,495.5 C 726.833,495.5 730.167,495.5 733.5,495.5C 735.492,495.328 737.158,495.995 738.5,497.5C 740.517,500.55 741.517,503.883 741.5,507.5C 732.833,507.5 724.167,507.5 715.5,507.5C 715.5,506.167 715.5,504.833 715.5,503.5C 716.72,501.718 717.386,499.718 717.5,497.5C 719.718,497.386 721.718,496.72 723.5,495.5 Z"/></g>
<g><path style="opacity:1" fill="#fcfcfc" d="M 875.5,495.5 C 878.833,495.5 882.167,495.5 885.5,495.5C 890.588,497.916 893.255,501.916 893.5,507.5C 893.5,511.5 893.5,515.5 893.5,519.5C 892.81,524.896 890.144,528.896 885.5,531.5C 882.167,531.5 878.833,531.5 875.5,531.5C 874.167,531.5 872.833,531.5 871.5,531.5C 869.24,527.871 867.907,523.871 867.5,519.5C 867.5,514.833 867.5,510.167 867.5,505.5C 868.66,501.002 871.326,497.669 875.5,495.5 Z"/></g>
<g><path style="opacity:1" fill="#f9f9f9" d="M 933.5,519.5 C 933.5,514.833 933.5,510.167 933.5,505.5C 934.167,502.833 934.833,500.167 935.5,497.5C 941.391,495.565 947.391,495.232 953.5,496.5C 958.207,500.766 960.207,506.099 959.5,512.5C 960.098,519.97 957.431,525.97 951.5,530.5C 941.086,533.718 935.086,530.052 933.5,519.5 Z"/></g>
<g><path style="opacity:1" fill="#bcbcbc" d="M 361.5,495.5 C 361.5,500.167 361.5,504.833 361.5,509.5C 360.195,507.603 359.529,505.269 359.5,502.5C 359.529,499.731 360.195,497.397 361.5,495.5 Z"/></g>
<g><path style="opacity:1" fill="#ababab" d="M 555.5,499.5 C 557.483,513.795 558.15,528.462 557.5,543.5C 552.381,544.103 547.715,543.436 543.5,541.5C 547.5,541.5 551.5,541.5 555.5,541.5C 555.5,527.5 555.5,513.5 555.5,499.5 Z"/></g>
<g><path style="opacity:1" fill="#b6b6b6" d="M 493.5,499.5 C 494.831,506.468 495.497,513.802 495.5,521.5C 495.497,529.198 494.831,536.532 493.5,543.5C 493.5,542.833 493.5,542.167 493.5,541.5C 493.5,527.5 493.5,513.5 493.5,499.5 Z"/></g>
<g><path style="opacity:1" fill="#808080" d="M 479.5,503.5 C 481.48,515.789 482.147,528.456 481.5,541.5C 485.5,541.5 489.5,541.5 493.5,541.5C 493.5,542.167 493.5,542.833 493.5,543.5C 488.833,543.5 484.167,543.5 479.5,543.5C 479.5,530.167 479.5,516.833 479.5,503.5 Z"/></g>
<g><path style="opacity:1" fill="#cacaca" d="M 585.5,503.5 C 586.148,517.209 585.481,530.542 583.5,543.5C 583.5,542.833 583.5,542.167 583.5,541.5C 582.853,528.456 583.52,515.789 585.5,503.5 Z"/></g>
<g><path style="opacity:1" fill="#cacaca" d="M 457.5,503.5 C 458.148,517.209 457.481,530.542 455.5,543.5C 455.5,542.833 455.5,542.167 455.5,541.5C 454.853,528.456 455.52,515.789 457.5,503.5 Z"/></g>
<g><path style="opacity:1" fill="#919191" d="M 531.5,507.5 C 529.365,509.369 526.698,510.036 523.5,509.5C 525.635,507.631 528.302,506.964 531.5,507.5 Z"/></g>
<g><path style="opacity:1" fill="#686868" d="M 715.5,503.5 C 715.5,504.833 715.5,506.167 715.5,507.5C 724.167,507.5 732.833,507.5 741.5,507.5C 732.56,509.472 723.227,510.139 713.5,509.5C 713.025,506.918 713.692,504.918 715.5,503.5 Z"/></g>
<g><path style="opacity:1" fill="#7e7e7e" d="M 919.5,501.5 C 920.069,505.329 919.402,508.663 917.5,511.5C 916.931,507.671 917.598,504.337 919.5,501.5 Z"/></g>
<g><path style="opacity:1" fill="#878787" d="M 853.5,507.5 C 853.5,511.5 853.5,515.5 853.5,519.5C 852.206,517.952 851.539,515.952 851.5,513.5C 851.539,511.048 852.206,509.048 853.5,507.5 Z"/></g>
<g><path style="opacity:1" fill="#b9b9b9" d="M 933.5,505.5 C 933.5,510.167 933.5,514.833 933.5,519.5C 932.195,517.603 931.529,515.269 931.5,512.5C 931.529,509.731 932.195,507.397 933.5,505.5 Z"/></g>
<g><path style="opacity:1" fill="#9e9e9e" d="M 867.5,505.5 C 867.5,510.167 867.5,514.833 867.5,519.5C 866.195,517.603 865.529,515.269 865.5,512.5C 865.529,509.731 866.195,507.397 867.5,505.5 Z"/></g>
<g><path style="opacity:1" fill="#898989" d="M 893.5,507.5 C 894.794,509.048 895.461,511.048 895.5,513.5C 895.461,515.952 894.794,517.952 893.5,519.5C 893.5,515.5 893.5,511.5 893.5,507.5 Z"/></g>
<g><path style="opacity:1" fill="#a6a6a6" d="M 907.5,507.5 C 908.805,509.397 909.471,511.731 909.5,514.5C 909.471,517.269 908.805,519.603 907.5,521.5C 907.5,516.833 907.5,512.167 907.5,507.5 Z"/></g>
<g><path style="opacity:1" fill="#bcbcbc" d="M 429.5,517.5 C 424.833,517.5 420.167,517.5 415.5,517.5C 417.397,516.195 419.731,515.529 422.5,515.5C 425.269,515.529 427.603,516.195 429.5,517.5 Z"/></g>
<g><path style="opacity:1" fill="#8e8e8e" d="M 541.5,515.5 C 542.777,516.694 543.444,518.36 543.5,520.5C 543.444,522.64 542.777,524.306 541.5,525.5C 541.5,522.167 541.5,518.833 541.5,515.5 Z"/></g>
<g><path style="opacity:1" fill="#ababab" d="M 701.5,509.5 C 701.5,512.833 701.5,516.167 701.5,519.5C 700.223,518.306 699.556,516.64 699.5,514.5C 699.556,512.36 700.223,510.694 701.5,509.5 Z"/></g>
<g><path style="opacity:1" fill="#f5f5f5" d="M 541.5,515.5 C 541.5,518.833 541.5,522.167 541.5,525.5C 540.28,527.282 539.614,529.282 539.5,531.5C 533.609,533.435 527.609,533.768 521.5,532.5C 518.833,528.5 518.833,524.5 521.5,520.5C 527.941,517.945 534.608,516.278 541.5,515.5 Z"/></g>
<g><path style="opacity:1" fill="#cccccc" d="M 809.5,529.5 C 821.216,528.856 832.549,529.522 843.5,531.5C 842.833,531.5 842.167,531.5 841.5,531.5C 830.833,531.5 820.167,531.5 809.5,531.5C 809.5,530.833 809.5,530.167 809.5,529.5 Z"/></g>
<g><path style="opacity:1" fill="#a9a9a9" d="M 875.5,531.5 C 878.833,531.5 882.167,531.5 885.5,531.5C 884.306,532.777 882.64,533.444 880.5,533.5C 878.36,533.444 876.694,532.777 875.5,531.5 Z"/></g>
<g><path style="opacity:1" fill="#818181" d="M 607.5,541.5 C 612.167,541.5 616.833,541.5 621.5,541.5C 619.603,542.805 617.269,543.471 614.5,543.5C 611.731,543.471 609.397,542.805 607.5,541.5 Z"/></g>
<g><path style="opacity:1" fill="#7e7e7e" d="M 793.5,465.5 C 794.167,465.5 794.833,465.5 795.5,465.5C 795.5,490.833 795.5,516.167 795.5,541.5C 810.833,541.5 826.167,541.5 841.5,541.5C 841.5,538.167 841.5,534.833 841.5,531.5C 842.167,531.5 842.833,531.5 843.5,531.5C 843.5,535.5 843.5,539.5 843.5,543.5C 826.833,543.5 810.167,543.5 793.5,543.5C 793.5,517.5 793.5,491.5 793.5,465.5 Z"/></g>
<g><path style="opacity:1" fill="#b4a0ff" d="M 257.5,565.5 C 259.176,566.183 259.843,567.517 259.5,569.5C 257.824,568.817 257.157,567.483 257.5,565.5 Z"/></g>
<g><path style="opacity:1" fill="#cabdff" d="M 1087.5,573.5 C 1088.17,573.5 1088.83,573.5 1089.5,573.5C 1089.84,575.483 1089.18,576.817 1087.5,577.5C 1087.5,576.167 1087.5,574.833 1087.5,573.5 Z"/></g>
<g><path style="opacity:1" fill="#b9a8ff" d="M 247.5,575.5 C 249.176,576.183 249.843,577.517 249.5,579.5C 247.824,578.817 247.157,577.483 247.5,575.5 Z"/></g>
<g><path style="opacity:1" fill="#c5b6ff" d="M 297.5,609.5 C 299.483,609.157 300.817,609.824 301.5,611.5C 299.517,611.843 298.183,611.176 297.5,609.5 Z"/></g>
<g><path style="opacity:1" fill="#a68fff" d="M 1039.5,609.5 C 1038.82,611.176 1037.48,611.843 1035.5,611.5C 1036.18,609.824 1037.52,609.157 1039.5,609.5 Z"/></g>
<g><path style="opacity:1" fill="#a892ff" d="M 303.5,611.5 C 305.483,611.157 306.817,611.824 307.5,613.5C 305.517,613.843 304.183,613.176 303.5,611.5 Z"/></g>
<g><path style="opacity:1" fill="#b6a5ff" d="M 1031.5,611.5 C 1030.82,613.176 1029.48,613.843 1027.5,613.5C 1028.18,611.824 1029.52,611.157 1031.5,611.5 Z"/></g>
<g><path style="opacity:1" fill="#8468ff" d="M 317.5,613.5 C 551.5,613.5 785.5,613.5 1019.5,613.5C 902.835,614.833 785.835,615.5 668.5,615.5C 551.165,615.5 434.165,614.833 317.5,613.5 Z"/></g>
<g><path style="opacity:1" fill="#a892ff" d="M 1035.5,633.5 C 1034.82,635.176 1033.48,635.843 1031.5,635.5C 1032.18,633.824 1033.52,633.157 1035.5,633.5 Z"/></g>
<g><path style="opacity:1" fill="#b9a8ff" d="M 311.5,635.5 C 550.167,635.5 788.833,635.5 1027.5,635.5C 908.502,636.833 789.169,637.5 669.5,637.5C 549.831,637.5 430.498,636.833 311.5,635.5 Z"/></g>
</svg>
