<?xml version="1.0" encoding="UTF-8"?>
<!DOCTYPE svg PUBLIC "-//W3C//DTD SVG 1.1//EN" "http://www.w3.org/Graphics/SVG/1.1/DTD/svg11.dtd">
<svg xmlns="http://www.w3.org/2000/svg" version="1.1" width="1736px" height="1736px" style="shape-rendering:geometricPrecision; text-rendering:geometricPrecision; image-rendering:optimizeQuality; fill-rule:evenodd; clip-rule:evenodd" xmlns:xlink="http://www.w3.org/1999/xlink">
<g><path style="opacity:0.883" fill="#fdfefe" d="M 826.5,-0.5 C 853.833,-0.5 881.167,-0.5 908.5,-0.5C 1125.11,12.8161 1312.11,93.3161 1469.5,241C 1632.42,401.727 1721.09,596.894 1735.5,826.5C 1735.5,853.833 1735.5,881.167 1735.5,908.5C 1722.18,1125.11 1641.68,1312.11 1494,1469.5C 1333.27,1632.42 1138.11,1721.09 908.5,1735.5C 881.167,1735.5 853.833,1735.5 826.5,1735.5C 609.893,1722.18 422.893,1641.68 265.5,1494C 102.578,1333.27 13.911,1138.11 -0.5,908.5C -0.5,881.167 -0.5,853.833 -0.5,826.5C 12.8161,609.893 93.3161,422.893 241,265.5C 401.727,102.578 596.894,13.911 826.5,-0.5 Z"/></g>
<g><path style="opacity:0.6" fill="#d7eaec" d="M 839.5,3.5 C 1077.43,-0.112047 1283.77,77.7213 1458.5,237C 1629.06,401.002 1719.89,601.835 1731,839.5C 1734.99,1078.02 1656.99,1284.68 1497,1459.5C 1332,1630.46 1130.16,1720.96 891.5,1731C 685.256,1734.8 500.589,1674.47 337.5,1550C 143.21,1394.65 33.0437,1192.48 7,943.5C -11.1505,687.593 65.5162,465.259 237,276.5C 401.223,105.993 602.056,14.9929 839.5,3.5 Z"/></g>
<g><path style="opacity:0.997" fill="#fdfefe" d="M 733.5,156.5 C 747.205,154.006 756.205,159.172 760.5,172C 757.5,172.667 754.5,172.667 751.5,172C 748.399,164.924 743.066,162.591 735.5,165C 729.704,168.256 727.037,173.256 727.5,180C 727.495,193.347 733.828,198.347 746.5,195C 748.741,193.261 750.408,191.094 751.5,188.5C 754.5,187.167 757.5,187.167 760.5,188.5C 756.403,200.42 748.07,205.587 735.5,204C 726.217,201.304 720.717,195.137 719,185.5C 716.969,172.228 721.802,162.562 733.5,156.5 Z"/></g>
<g><path style="opacity:0.995" fill="#fcfefe" d="M 843.5,160.5 C 846.167,160.5 848.833,160.5 851.5,160.5C 851.5,163.167 851.5,165.833 851.5,168.5C 853.833,168.5 856.167,168.5 858.5,168.5C 858.5,170.833 858.5,173.167 858.5,175.5C 856.5,175.5 854.5,175.5 852.5,175.5C 852.5,182.5 852.5,189.5 852.5,196.5C 854.5,196.5 856.5,196.5 858.5,196.5C 860.603,203.653 857.936,206.153 850.5,204C 847,203.167 844.833,201 844,197.5C 843.5,190.174 843.334,182.841 843.5,175.5C 841.833,175.5 840.167,175.5 838.5,175.5C 838.5,173.167 838.5,170.833 838.5,168.5C 840.167,168.5 841.833,168.5 843.5,168.5C 843.5,165.833 843.5,163.167 843.5,160.5 Z"/></g>
<g><path style="opacity:0.998" fill="#fefefe" d="M 767.5,168.5 C 770.167,168.5 772.833,168.5 775.5,168.5C 775.334,176.174 775.5,183.841 776,191.5C 777.449,196.218 780.615,197.718 785.5,196C 787.049,194.786 788.215,193.286 789,191.5C 789.5,183.841 789.666,176.174 789.5,168.5C 792.167,168.5 794.833,168.5 797.5,168.5C 797.5,180.167 797.5,191.833 797.5,203.5C 794.833,203.5 792.167,203.5 789.5,203.5C 789.66,201.801 789.494,200.134 789,198.5C 783.381,205.49 777.047,206.157 770,200.5C 769.138,198.913 768.471,197.246 768,195.5C 767.5,186.506 767.334,177.506 767.5,168.5 Z"/></g>
<g><path style="opacity:0.996" fill="#fdfefe" d="M 812.5,168.5 C 817.93,168.161 823.264,168.661 828.5,170C 831.675,171.995 833.342,174.828 833.5,178.5C 830.753,178.813 828.086,178.48 825.5,177.5C 823.109,174.761 820.109,173.928 816.5,175C 813.629,177.84 813.963,180.174 817.5,182C 823.168,182.592 828.335,184.425 833,187.5C 835.594,198.434 831.094,204.101 819.5,204.5C 811.335,204.936 806.335,201.269 804.5,193.5C 808.903,192.782 812.57,193.949 815.5,197C 818.562,197.741 821.562,197.575 824.5,196.5C 825.76,194.647 825.76,192.814 824.5,191C 818.749,189.788 813.249,187.955 808,185.5C 803.758,178.274 805.258,172.607 812.5,168.5 Z"/></g>
<g><path style="opacity:0.998" fill="#fdfefe" d="M 873.5,168.5 C 893.883,167.582 901.05,176.915 895,196.5C 887.286,205.617 878.453,206.784 868.5,200C 860.495,187.819 862.162,177.319 873.5,168.5 Z"/></g>
<g><path style="opacity:0.997" fill="#fdfefe" d="M 904.5,168.5 C 907.167,168.5 909.833,168.5 912.5,168.5C 912.343,169.873 912.51,171.207 913,172.5C 919.694,166.871 926.027,167.204 932,173.5C 936.947,168.315 942.781,167.149 949.5,170C 951.041,171.579 952.208,173.413 953,175.5C 953.5,184.827 953.666,194.161 953.5,203.5C 950.5,203.5 947.5,203.5 944.5,203.5C 944.666,194.827 944.5,186.16 944,177.5C 941.503,175.522 938.669,175.022 935.5,176C 934.299,176.903 933.465,178.069 933,179.5C 932.5,187.493 932.334,195.493 932.5,203.5C 929.833,203.5 927.167,203.5 924.5,203.5C 924.666,195.16 924.5,186.827 924,178.5C 921.833,175.713 918.999,174.88 915.5,176C 914.299,176.903 913.465,178.069 913,179.5C 912.5,187.493 912.334,195.493 912.5,203.5C 909.833,203.5 907.167,203.5 904.5,203.5C 904.5,191.833 904.5,180.167 904.5,168.5 Z"/></g>
<g><path style="opacity:0.997" fill="#f9fcfc" d="M 970.5,168.5 C 985.815,166.484 993.148,173.151 992.5,188.5C 984.5,188.5 976.5,188.5 968.5,188.5C 969.104,195.978 973.104,198.811 980.5,197C 982.591,194.897 985.091,193.731 988,193.5C 989.728,193.454 991.228,193.954 992.5,195C 987.117,203.796 979.45,206.463 969.5,203C 965.612,200.778 962.779,197.612 961,193.5C 957.734,182.444 960.9,174.111 970.5,168.5 Z"/></g>
<g><path style="opacity:0.993" fill="#fdfefe" d="M 999.5,168.5 C 1002.17,168.5 1004.83,168.5 1007.5,168.5C 1007.34,170.199 1007.51,171.866 1008,173.5C 1010.53,169.093 1014.36,167.426 1019.5,168.5C 1019.5,170.833 1019.5,173.167 1019.5,175.5C 1017.14,175.337 1014.81,175.503 1012.5,176C 1010.67,176.5 1009.5,177.667 1009,179.5C 1008.5,187.493 1008.33,195.493 1008.5,203.5C 1005.5,203.5 1002.5,203.5 999.5,203.5C 999.5,191.833 999.5,180.167 999.5,168.5 Z"/></g>
<g><path style="opacity:0.6" fill="#d7ebed" d="M 877.5,174.5 C 882.421,174.043 885.921,176.043 888,180.5C 888.667,184.167 888.667,187.833 888,191.5C 884.77,198.122 880.27,199.122 874.5,194.5C 871.042,187.022 872.042,180.355 877.5,174.5 Z"/></g>
<g><path style="opacity:0.999" fill="#a39b9b" d="M 357.5,639.5 C 417.965,636.473 468.132,657.473 508,702.5C 553.304,762.327 559.97,826.327 528,894.5C 497.486,948.368 451.319,979.201 389.5,987C 317.038,990.856 261.538,962.356 223,901.5C 198.211,857.064 192.877,810.398 207,761.5C 226.474,704.693 264.641,666.526 321.5,647C 333.463,643.642 345.463,641.142 357.5,639.5 Z"/></g>
<g><path style="opacity:1" fill="#d8d8d8" d="M 357.5,643.5 C 429.609,640.63 484.443,669.63 522,730.5C 550.573,785.81 550.573,841.143 522,896.5C 484.754,957.214 430.254,986.047 358.5,983C 299.517,976.116 255.017,947.283 225,896.5C 196.03,840.306 196.363,784.306 226,728.5C 256.318,679.415 300.151,651.082 357.5,643.5 Z"/></g>
<g><path style="opacity:1" fill="#111111" d="M 371.5,795.5 C 374.91,795.384 376.244,797.05 375.5,800.5C 373.833,800.5 372.167,800.5 370.5,800.5C 370.366,798.708 370.699,797.042 371.5,795.5 Z"/></g>
<g><path style="opacity:1" fill="#0e0e0e" d="M 308.5,818.5 C 305.713,817.523 302.713,817.19 299.5,817.5C 299.5,822.167 299.5,826.833 299.5,831.5C 298.167,831.5 296.833,831.5 295.5,831.5C 295.5,819.833 295.5,808.167 295.5,796.5C 301.909,796.183 308.243,796.683 314.5,798C 321.278,804.929 320.944,811.596 313.5,818C 315.826,822.318 318.159,826.651 320.5,831C 318.741,831.798 317.074,831.631 315.5,830.5C 313.14,826.437 310.807,822.437 308.5,818.5 Z"/></g>
<g><path style="opacity:1" fill="#090909" d="M 355.5,799.5 C 356.833,799.5 358.167,799.5 359.5,799.5C 359.5,801.5 359.5,803.5 359.5,805.5C 361.167,805.5 362.833,805.5 364.5,805.5C 364.5,806.5 364.5,807.5 364.5,808.5C 362.833,808.5 361.167,808.5 359.5,808.5C 359.334,814.509 359.501,820.509 360,826.5C 361.356,827.38 362.856,827.714 364.5,827.5C 364.33,828.822 364.663,829.989 365.5,831C 361.219,832.458 358.053,831.292 356,827.5C 355.5,821.175 355.334,814.842 355.5,808.5C 354.167,808.5 352.833,808.5 351.5,808.5C 351.5,807.5 351.5,806.5 351.5,805.5C 352.833,805.5 354.167,805.5 355.5,805.5C 355.5,803.5 355.5,801.5 355.5,799.5 Z"/></g>
<g><path style="opacity:1" fill="#c8c8c8" d="M 299.5,800.5 C 304.297,800.121 308.964,800.621 313.5,802C 316.69,807.051 315.69,811.051 310.5,814C 307.167,814.667 303.833,814.667 300.5,814C 299.533,809.599 299.2,805.099 299.5,800.5 Z"/></g>
<g><path style="opacity:1" fill="#090909" d="M 331.5,805.5 C 342.087,804.084 347.421,808.751 347.5,819.5C 341.167,819.5 334.833,819.5 328.5,819.5C 328.817,826.649 332.484,829.483 339.5,828C 341.306,827.19 342.806,826.024 344,824.5C 345.28,824.613 346.113,825.28 346.5,826.5C 344.258,830.288 340.925,831.954 336.5,831.5C 330.196,831.699 326.363,828.699 325,822.5C 323.305,815.241 325.472,809.575 331.5,805.5 Z"/></g>
<g><path style="opacity:1" fill="#000000" d="M 371.5,805.5 C 372.5,805.5 373.5,805.5 374.5,805.5C 374.5,814.167 374.5,822.833 374.5,831.5C 373.5,831.5 372.5,831.5 371.5,831.5C 371.5,822.833 371.5,814.167 371.5,805.5 Z"/></g>
<g><path style="opacity:1" fill="#0c0c0c" d="M 390.5,804.5 C 392.167,804.5 393.833,804.5 395.5,804.5C 395.5,805.833 395.5,807.167 395.5,808.5C 391.645,807.845 388.812,809.179 387,812.5C 386.5,818.825 386.334,825.158 386.5,831.5C 385.167,831.5 383.833,831.5 382.5,831.5C 382.5,822.833 382.5,814.167 382.5,805.5C 383.833,805.5 385.167,805.5 386.5,805.5C 386.351,806.552 386.517,807.552 387,808.5C 388.376,807.295 389.542,805.962 390.5,804.5 Z"/></g>
<g><path style="opacity:1" fill="#0a0a0a" d="M 405.5,805.5 C 416.137,804.138 421.47,808.805 421.5,819.5C 415.167,819.5 408.833,819.5 402.5,819.5C 402.802,826.632 406.469,829.465 413.5,828C 415.306,827.19 416.806,826.024 418,824.5C 419.28,824.613 420.113,825.28 420.5,826.5C 418.258,830.288 414.925,831.954 410.5,831.5C 400.032,830.061 396.199,824.061 399,813.5C 400.277,810.062 402.443,807.395 405.5,805.5 Z"/></g>
<g><path style="opacity:1" fill="#0b0b0b" d="M 433.5,805.5 C 444.137,804.138 449.47,808.805 449.5,819.5C 443.167,819.5 436.833,819.5 430.5,819.5C 430.802,826.632 434.469,829.465 441.5,828C 443.306,827.19 444.806,826.024 446,824.5C 447.28,824.613 448.113,825.28 448.5,826.5C 446.258,830.288 442.925,831.954 438.5,831.5C 434.042,831.854 430.542,830.188 428,826.5C 424.526,817.86 426.36,810.86 433.5,805.5 Z"/></g>
<g><path style="opacity:1" fill="#cacaca" d="M 333.5,808.5 C 339.54,807.88 342.874,810.547 343.5,816.5C 338.5,816.5 333.5,816.5 328.5,816.5C 328.667,812.821 330.334,810.154 333.5,808.5 Z"/></g>
<g><path style="opacity:1" fill="#c9c9c9" d="M 407.5,808.5 C 413.54,807.88 416.874,810.547 417.5,816.5C 412.5,816.5 407.5,816.5 402.5,816.5C 402.667,812.821 404.334,810.154 407.5,808.5 Z"/></g>
<g><path style="opacity:1" fill="#d1d1d1" d="M 444.5,813.5 C 440.285,815.436 435.619,816.103 430.5,815.5C 432.137,808.61 436.137,806.777 442.5,810C 443.823,810.816 444.489,811.983 444.5,813.5 Z"/></g>
<g><path style="opacity:1" fill="#989898" d="M 444.5,813.5 C 445.404,814.209 445.737,815.209 445.5,816.5C 440.305,816.821 435.305,816.487 430.5,815.5C 435.619,816.103 440.285,815.436 444.5,813.5 Z"/></g>
<g><path style="opacity:1" fill="#707070" d="M 308.5,818.5 C 305.833,818.5 303.167,818.5 300.5,818.5C 300.818,823.032 300.485,827.366 299.5,831.5C 299.5,826.833 299.5,822.167 299.5,817.5C 302.713,817.19 305.713,817.523 308.5,818.5 Z"/></g>
<g><path style="opacity:0.999" fill="#a39b9b" d="M 873.5,867.5 C 933.965,864.473 984.132,885.473 1024,930.5C 1069.3,990.327 1075.97,1054.33 1044,1122.5C 1013.49,1176.37 967.319,1207.2 905.5,1215C 833.038,1218.86 777.538,1190.36 739,1129.5C 714.211,1085.06 708.877,1038.4 723,989.5C 742.474,932.693 780.641,894.526 837.5,875C 849.463,871.642 861.463,869.142 873.5,867.5 Z"/></g>
<g><path style="opacity:1" fill="#d8d8d8" d="M 873.5,871.5 C 945.609,868.63 1000.44,897.63 1038,958.5C 1066.57,1013.81 1066.57,1069.14 1038,1124.5C 1000.75,1185.21 946.254,1214.05 874.5,1211C 815.517,1204.12 771.017,1175.28 741,1124.5C 712.03,1068.31 712.363,1012.31 742,956.5C 772.318,907.415 816.151,879.082 873.5,871.5 Z"/></g>
<g><path style="opacity:0.999" fill="#a39b9b" d="M 1353.5,979.5 C 1413.96,976.473 1464.13,997.473 1504,1042.5C 1549.3,1102.33 1555.97,1166.33 1524,1234.5C 1493.49,1288.37 1447.32,1319.2 1385.5,1327C 1313.04,1330.86 1257.54,1302.36 1219,1241.5C 1194.21,1197.06 1188.88,1150.4 1203,1101.5C 1222.47,1044.69 1260.64,1006.53 1317.5,987C 1329.46,983.642 1341.46,981.142 1353.5,979.5 Z"/></g>
<g><path style="opacity:1" fill="#d8d8d8" d="M 1353.5,983.5 C 1425.61,980.63 1480.44,1009.63 1518,1070.5C 1546.57,1125.81 1546.57,1181.14 1518,1236.5C 1480.75,1297.21 1426.25,1326.05 1354.5,1323C 1295.52,1316.12 1251.02,1287.28 1221,1236.5C 1192.03,1180.31 1192.36,1124.31 1222,1068.5C 1252.32,1019.41 1296.15,991.082 1353.5,983.5 Z"/></g>
<g><path style="opacity:1" fill="#0c0c0c" d="M 748.5,1028.5 C 747.517,1032.3 747.183,1036.3 747.5,1040.5C 752.833,1040.5 758.167,1040.5 763.5,1040.5C 763.5,1041.5 763.5,1042.5 763.5,1043.5C 758.167,1043.5 752.833,1043.5 747.5,1043.5C 747.183,1047.7 747.517,1051.7 748.5,1055.5C 753.64,1056.49 758.974,1056.82 764.5,1056.5C 764.5,1057.5 764.5,1058.5 764.5,1059.5C 757.5,1059.5 750.5,1059.5 743.5,1059.5C 743.5,1047.83 743.5,1036.17 743.5,1024.5C 750.5,1024.5 757.5,1024.5 764.5,1024.5C 764.5,1025.83 764.5,1027.17 764.5,1028.5C 759.167,1028.5 753.833,1028.5 748.5,1028.5 Z"/></g>
<g><path style="opacity:1" fill="#131313" d="M 811.5,1036.5 C 809.5,1036.5 807.5,1036.5 805.5,1036.5C 805.177,1042.69 805.51,1048.69 806.5,1054.5C 807.919,1055.45 809.585,1055.78 811.5,1055.5C 811.5,1056.83 811.5,1058.17 811.5,1059.5C 807.316,1060.3 804.15,1058.96 802,1055.5C 801.5,1049.18 801.334,1042.84 801.5,1036.5C 800.167,1036.5 798.833,1036.5 797.5,1036.5C 797.5,1035.5 797.5,1034.5 797.5,1033.5C 798.833,1033.5 800.167,1033.5 801.5,1033.5C 801.5,1031.17 801.5,1028.83 801.5,1026.5C 802.833,1026.5 804.167,1026.5 805.5,1026.5C 805.5,1028.83 805.5,1031.17 805.5,1033.5C 807.5,1033.5 809.5,1033.5 811.5,1033.5C 811.5,1034.5 811.5,1035.5 811.5,1036.5 Z"/></g>
<g><path style="opacity:1" fill="#101010" d="M 771.5,1033.5 C 772.833,1033.5 774.167,1033.5 775.5,1033.5C 775.135,1038.42 776.135,1038.75 778.5,1034.5C 783.178,1032.66 787.344,1033.33 791,1036.5C 792.432,1044.05 792.932,1051.72 792.5,1059.5C 791.167,1059.5 789.833,1059.5 788.5,1059.5C 788.666,1052.83 788.5,1046.16 788,1039.5C 783.694,1035.33 779.694,1035.66 776,1040.5C 775.5,1046.82 775.334,1053.16 775.5,1059.5C 774.167,1059.5 772.833,1059.5 771.5,1059.5C 771.5,1050.83 771.5,1042.17 771.5,1033.5 Z"/></g>
<g><path style="opacity:1" fill="#0c0c0c" d="M 825.5,1032.5 C 827.167,1032.5 828.833,1032.5 830.5,1032.5C 830.5,1033.83 830.5,1035.17 830.5,1036.5C 826.645,1035.85 823.812,1037.18 822,1040.5C 821.5,1046.82 821.334,1053.16 821.5,1059.5C 820.167,1059.5 818.833,1059.5 817.5,1059.5C 817.5,1050.83 817.5,1042.17 817.5,1033.5C 818.833,1033.5 820.167,1033.5 821.5,1033.5C 821.351,1034.55 821.517,1035.55 822,1036.5C 823.376,1035.29 824.542,1033.96 825.5,1032.5 Z"/></g>
<g><path style="opacity:1" fill="#0b0b0b" d="M 839.5,1033.5 C 850.669,1031.68 856.336,1036.35 856.5,1047.5C 850.167,1047.5 843.833,1047.5 837.5,1047.5C 837.802,1054.63 841.469,1057.47 848.5,1056C 850.306,1055.19 851.806,1054.02 853,1052.5C 854.28,1052.61 855.113,1053.28 855.5,1054.5C 853.258,1058.29 849.925,1059.95 845.5,1059.5C 835.032,1058.06 831.199,1052.06 834,1041.5C 835.243,1038.42 837.077,1035.76 839.5,1033.5 Z"/></g>
<g><path style="opacity:1" fill="#090909" d="M 862.5,1033.5 C 863.833,1033.5 865.167,1033.5 866.5,1033.5C 866.351,1034.55 866.517,1035.55 867,1036.5C 877.622,1030.73 883.788,1033.89 885.5,1046C 885.376,1056.13 880.376,1060.46 870.5,1059C 868.667,1058.5 867.5,1057.33 867,1055.5C 866.501,1060.15 866.334,1064.82 866.5,1069.5C 865.167,1069.5 863.833,1069.5 862.5,1069.5C 862.5,1057.5 862.5,1045.5 862.5,1033.5 Z"/></g>
<g><path style="opacity:1" fill="#0c0c0c" d="M 900.5,1032.5 C 901.833,1032.5 903.167,1032.5 904.5,1032.5C 904.5,1033.83 904.5,1035.17 904.5,1036.5C 900.685,1035.83 897.851,1037.16 896,1040.5C 895.5,1046.82 895.334,1053.16 895.5,1059.5C 894.167,1059.5 892.833,1059.5 891.5,1059.5C 891.5,1050.83 891.5,1042.17 891.5,1033.5C 892.833,1033.5 894.167,1033.5 895.5,1033.5C 895.351,1034.55 895.517,1035.55 896,1036.5C 897.397,1034.93 898.897,1033.6 900.5,1032.5 Z"/></g>
<g><path style="opacity:1" fill="#0a0a0a" d="M 914.5,1033.5 C 925.136,1032.14 930.469,1036.8 930.5,1047.5C 924.167,1047.5 917.833,1047.5 911.5,1047.5C 911.802,1054.63 915.469,1057.47 922.5,1056C 924.306,1055.19 925.806,1054.02 927,1052.5C 928.28,1052.61 929.113,1053.28 929.5,1054.5C 927.258,1058.29 923.925,1059.95 919.5,1059.5C 913.632,1059.8 909.798,1057.14 908,1051.5C 906.003,1043.85 908.17,1037.85 914.5,1033.5 Z"/></g>
<g><path style="opacity:1" fill="#0a0a0a" d="M 936.5,1033.5 C 937.833,1033.5 939.167,1033.5 940.5,1033.5C 940.21,1037.55 940.877,1038.05 942.5,1035C 948.446,1032.17 953.279,1033.33 957,1038.5C 957.5,1045.49 957.666,1052.49 957.5,1059.5C 956.167,1059.5 954.833,1059.5 953.5,1059.5C 953.666,1053.16 953.5,1046.82 953,1040.5C 949.098,1035.2 945.098,1035.2 941,1040.5C 940.5,1046.82 940.334,1053.16 940.5,1059.5C 939.167,1059.5 937.833,1059.5 936.5,1059.5C 936.5,1050.83 936.5,1042.17 936.5,1033.5 Z"/></g>
<g><path style="opacity:1" fill="#090909" d="M 970.5,1033.5 C 981.136,1032.14 986.469,1036.8 986.5,1047.5C 980.167,1047.5 973.833,1047.5 967.5,1047.5C 967.802,1054.63 971.469,1057.47 978.5,1056C 980.306,1055.19 981.806,1054.02 983,1052.5C 984.28,1052.61 985.113,1053.28 985.5,1054.5C 983.258,1058.29 979.925,1059.95 975.5,1059.5C 969.632,1059.8 965.798,1057.14 964,1051.5C 962.003,1043.85 964.17,1037.85 970.5,1033.5 Z"/></g>
<g><path style="opacity:1" fill="#121212" d="M 992.5,1033.5 C 993.833,1033.5 995.167,1033.5 996.5,1033.5C 996.334,1039.84 996.5,1046.18 997,1052.5C 999.981,1055.94 1003.48,1056.44 1007.5,1054C 1008.13,1053.25 1008.63,1052.42 1009,1051.5C 1009.5,1045.51 1009.67,1039.51 1009.5,1033.5C 1010.83,1033.5 1012.17,1033.5 1013.5,1033.5C 1013.5,1042.17 1013.5,1050.83 1013.5,1059.5C 1012.17,1059.5 1010.83,1059.5 1009.5,1059.5C 1009.97,1055.03 1008.97,1054.53 1006.5,1058C 1000.87,1060.78 996.366,1059.61 993,1054.5C 992.5,1047.51 992.334,1040.51 992.5,1033.5 Z"/></g>
<g><path style="opacity:1" fill="#080808" d="M 1028.5,1032.5 C 1030.17,1032.5 1031.83,1032.5 1033.5,1032.5C 1033.5,1033.83 1033.5,1035.17 1033.5,1036.5C 1029.68,1035.83 1026.85,1037.16 1025,1040.5C 1024.5,1046.82 1024.33,1053.16 1024.5,1059.5C 1023.17,1059.5 1021.83,1059.5 1020.5,1059.5C 1020.5,1050.83 1020.5,1042.17 1020.5,1033.5C 1021.83,1033.5 1023.17,1033.5 1024.5,1033.5C 1024.35,1034.55 1024.52,1035.55 1025,1036.5C 1026.38,1035.29 1027.54,1033.96 1028.5,1032.5 Z"/></g>
<g><path style="opacity:1" fill="#9e9e9e" d="M 811.5,1036.5 C 810.081,1037.45 808.415,1037.78 806.5,1037.5C 806.5,1043.17 806.5,1048.83 806.5,1054.5C 805.51,1048.69 805.177,1042.69 805.5,1036.5C 807.5,1036.5 809.5,1036.5 811.5,1036.5 Z"/></g>
<g><path style="opacity:1" fill="#c9c9c9" d="M 842.5,1036.5 C 848.54,1035.88 851.874,1038.55 852.5,1044.5C 847.5,1044.5 842.5,1044.5 837.5,1044.5C 837.667,1040.82 839.334,1038.15 842.5,1036.5 Z"/></g>
<g><path style="opacity:1" fill="#d1d1d1" d="M 870.5,1036.5 C 875.772,1035.55 879.272,1037.55 881,1042.5C 882.583,1048.15 881.083,1052.65 876.5,1056C 871.377,1057.54 868.211,1055.71 867,1050.5C 865.608,1045.09 866.774,1040.43 870.5,1036.5 Z"/></g>
<g><path style="opacity:1" fill="#cacaca" d="M 916.5,1036.5 C 922.54,1035.88 925.874,1038.55 926.5,1044.5C 921.5,1044.5 916.5,1044.5 911.5,1044.5C 911.667,1040.82 913.334,1038.15 916.5,1036.5 Z"/></g>
<g><path style="opacity:1" fill="#cacaca" d="M 972.5,1036.5 C 978.54,1035.88 981.874,1038.55 982.5,1044.5C 977.5,1044.5 972.5,1044.5 967.5,1044.5C 967.667,1040.82 969.334,1038.15 972.5,1036.5 Z"/></g>
<g><path style="opacity:1" fill="#7e7e7e" d="M 748.5,1028.5 C 748.5,1032.17 748.5,1035.83 748.5,1039.5C 753.695,1039.18 758.695,1039.51 763.5,1040.5C 758.167,1040.5 752.833,1040.5 747.5,1040.5C 747.183,1036.3 747.517,1032.3 748.5,1028.5 Z"/></g>
<g><path style="opacity:1" fill="#737373" d="M 763.5,1043.5 C 758.695,1044.49 753.695,1044.82 748.5,1044.5C 748.5,1048.17 748.5,1051.83 748.5,1055.5C 747.517,1051.7 747.183,1047.7 747.5,1043.5C 752.833,1043.5 758.167,1043.5 763.5,1043.5 Z"/></g>
<g><path style="opacity:1" fill="#3b3b3b" d="M 748.5,1055.5 C 754.167,1055.5 759.833,1055.5 765.5,1055.5C 765.768,1057.1 765.434,1058.43 764.5,1059.5C 764.5,1058.5 764.5,1057.5 764.5,1056.5C 758.974,1056.82 753.64,1056.49 748.5,1055.5 Z"/></g>
<g><path style="opacity:1" fill="#0b0b0b" d="M 1235.5,1132.5 C 1235.5,1137.83 1235.5,1143.17 1235.5,1148.5C 1242.02,1148.82 1248.36,1148.49 1254.5,1147.5C 1254.5,1142.5 1254.5,1137.5 1254.5,1132.5C 1255.83,1132.5 1257.17,1132.5 1258.5,1132.5C 1258.5,1144.17 1258.5,1155.83 1258.5,1167.5C 1257.17,1167.5 1255.83,1167.5 1254.5,1167.5C 1254.5,1162.5 1254.5,1157.5 1254.5,1152.5C 1248.36,1151.51 1242.02,1151.18 1235.5,1151.5C 1235.5,1156.83 1235.5,1162.17 1235.5,1167.5C 1234.17,1167.5 1232.83,1167.5 1231.5,1167.5C 1231.5,1155.83 1231.5,1144.17 1231.5,1132.5C 1232.83,1132.5 1234.17,1132.5 1235.5,1132.5 Z"/></g>
<g><path style="opacity:1" fill="#111111" d="M 1272.5,1141.5 C 1285.17,1140.15 1290.67,1145.81 1289,1158.5C 1286.38,1166.73 1280.88,1169.56 1272.5,1167C 1266.03,1162.87 1263.86,1157.04 1266,1149.5C 1267.3,1146.04 1269.47,1143.37 1272.5,1141.5 Z"/></g>
<g><path style="opacity:1" fill="#090909" d="M 1295.5,1141.5 C 1296.83,1141.5 1298.17,1141.5 1299.5,1141.5C 1299.44,1145.13 1300.44,1145.3 1302.5,1142C 1307.21,1140.56 1311.05,1141.72 1314,1145.5C 1314.5,1143.67 1315.67,1142.5 1317.5,1142C 1320.96,1141.18 1324.3,1141.52 1327.5,1143C 1328.13,1143.75 1328.63,1144.58 1329,1145.5C 1329.5,1152.83 1329.67,1160.16 1329.5,1167.5C 1328.17,1167.5 1326.83,1167.5 1325.5,1167.5C 1325.67,1160.49 1325.5,1153.49 1325,1146.5C 1321.3,1143.57 1317.97,1143.91 1315,1147.5C 1314.5,1154.16 1314.33,1160.83 1314.5,1167.5C 1313.17,1167.5 1311.83,1167.5 1310.5,1167.5C 1310.67,1160.49 1310.5,1153.49 1310,1146.5C 1305.8,1143.34 1302.47,1144.01 1300,1148.5C 1299.5,1154.82 1299.33,1161.16 1299.5,1167.5C 1298.17,1167.5 1296.83,1167.5 1295.5,1167.5C 1295.5,1158.83 1295.5,1150.17 1295.5,1141.5 Z"/></g>
<g><path style="opacity:1" fill="#0e0e0e" d="M 1358.5,1155.5 C 1352.17,1155.5 1345.83,1155.5 1339.5,1155.5C 1339.26,1156.79 1339.6,1157.79 1340.5,1158.5C 1342.48,1163.49 1346.15,1165.33 1351.5,1164C 1353.22,1160.62 1355.55,1159.96 1358.5,1162C 1357.5,1164.33 1355.83,1166 1353.5,1167C 1340.27,1169.44 1334.44,1163.94 1336,1150.5C 1339.4,1141.55 1345.56,1139.05 1354.5,1143C 1358.04,1146.39 1359.37,1150.55 1358.5,1155.5 Z"/></g>
<g><path style="opacity:1" fill="#0c0c0c" d="M 1383.5,1141.5 C 1397.26,1140.44 1402.76,1146.77 1400,1160.5C 1396.68,1166.91 1391.51,1169.07 1384.5,1167C 1377.81,1162.62 1375.64,1156.46 1378,1148.5C 1379.67,1146 1381.5,1143.67 1383.5,1141.5 Z"/></g>
<g><path style="opacity:1" fill="#111111" d="M 1404.5,1141.5 C 1406.14,1141.29 1407.64,1141.62 1409,1142.5C 1410.67,1148.5 1412.33,1154.5 1414,1160.5C 1416.3,1154.29 1418.13,1147.96 1419.5,1141.5C 1421.29,1141.21 1422.95,1141.55 1424.5,1142.5C 1426.33,1148.48 1428.16,1154.48 1430,1160.5C 1431.73,1154.46 1433.57,1148.46 1435.5,1142.5C 1436.83,1141.17 1438.17,1141.17 1439.5,1142.5C 1436.55,1150.68 1434.22,1159.01 1432.5,1167.5C 1430.83,1167.5 1429.17,1167.5 1427.5,1167.5C 1426.38,1160.65 1424.55,1153.98 1422,1147.5C 1419.54,1154 1417.71,1160.67 1416.5,1167.5C 1414.86,1167.71 1413.36,1167.38 1412,1166.5C 1409.39,1158.18 1406.89,1149.85 1404.5,1141.5 Z"/></g>
<g><path style="opacity:1" fill="#131313" d="M 1445.5,1141.5 C 1446.83,1141.5 1448.17,1141.5 1449.5,1141.5C 1449.44,1145.13 1450.44,1145.3 1452.5,1142C 1457.53,1140.51 1461.69,1141.67 1465,1145.5C 1465.5,1152.83 1465.67,1160.16 1465.5,1167.5C 1464.17,1167.5 1462.83,1167.5 1461.5,1167.5C 1461.67,1160.83 1461.5,1154.16 1461,1147.5C 1458.36,1144.18 1455.2,1143.68 1451.5,1146C 1450.87,1146.75 1450.37,1147.58 1450,1148.5C 1449.5,1154.82 1449.33,1161.16 1449.5,1167.5C 1448.17,1167.5 1446.83,1167.5 1445.5,1167.5C 1445.5,1158.83 1445.5,1150.17 1445.5,1141.5 Z"/></g>
<g><path style="opacity:1" fill="#0c0c0c" d="M 1479.5,1141.5 C 1490.14,1140.14 1495.47,1144.8 1495.5,1155.5C 1489.17,1155.5 1482.83,1155.5 1476.5,1155.5C 1476.8,1162.63 1480.47,1165.47 1487.5,1164C 1489,1162.84 1490.5,1161.67 1492,1160.5C 1493.28,1160.61 1494.11,1161.28 1494.5,1162.5C 1492.12,1166.44 1488.62,1168.11 1484,1167.5C 1479.58,1168.09 1476.24,1166.42 1474,1162.5C 1470.53,1153.86 1472.36,1146.86 1479.5,1141.5 Z"/></g>
<g><path style="opacity:1" fill="#0f0f0f" d="M 1510.5,1140.5 C 1511.83,1140.5 1513.17,1140.5 1514.5,1140.5C 1514.5,1141.83 1514.5,1143.17 1514.5,1144.5C 1511.14,1144.07 1508.3,1145.07 1506,1147.5C 1505.5,1154.16 1505.33,1160.83 1505.5,1167.5C 1504.17,1167.5 1502.83,1167.5 1501.5,1167.5C 1501.5,1158.83 1501.5,1150.17 1501.5,1141.5C 1503.49,1141.33 1505.16,1142 1506.5,1143.5C 1507.9,1142.48 1509.23,1141.48 1510.5,1140.5 Z"/></g>
<g><path style="opacity:1" fill="#d1d1d1" d="M 1274.5,1144.5 C 1282.96,1144.8 1286.46,1149.13 1285,1157.5C 1283.03,1164.35 1278.87,1166.19 1272.5,1163C 1267.99,1156.1 1268.66,1149.93 1274.5,1144.5 Z"/></g>
<g><path style="opacity:1" fill="#c7c7c7" d="M 1344.5,1144.5 C 1351.01,1143.4 1354.35,1146.07 1354.5,1152.5C 1349.46,1152.83 1344.46,1152.49 1339.5,1151.5C 1340.45,1148.57 1342.12,1146.24 1344.5,1144.5 Z"/></g>
<g><path style="opacity:1" fill="#d2d2d2" d="M 1386.5,1144.5 C 1396.09,1145.11 1399.26,1150.11 1396,1159.5C 1393.93,1164.14 1390.43,1165.64 1385.5,1164C 1381.7,1159.91 1380.53,1155.08 1382,1149.5C 1383.02,1147.31 1384.52,1145.65 1386.5,1144.5 Z"/></g>
<g><path style="opacity:1" fill="#c8c8c8" d="M 1480.5,1144.5 C 1486.33,1143.58 1490,1145.91 1491.5,1151.5C 1486.54,1152.49 1481.54,1152.83 1476.5,1152.5C 1476.34,1151.13 1476.51,1149.79 1477,1148.5C 1478.38,1147.29 1479.54,1145.96 1480.5,1144.5 Z"/></g>
<g><path style="opacity:1" fill="#7e7e7e" d="M 1235.5,1132.5 C 1236.49,1137.31 1236.82,1142.31 1236.5,1147.5C 1242.5,1147.5 1248.5,1147.5 1254.5,1147.5C 1248.36,1148.49 1242.02,1148.82 1235.5,1148.5C 1235.5,1143.17 1235.5,1137.83 1235.5,1132.5 Z"/></g>
<g><path style="opacity:1" fill="#737373" d="M 1254.5,1152.5 C 1248.5,1152.5 1242.5,1152.5 1236.5,1152.5C 1236.82,1157.69 1236.49,1162.69 1235.5,1167.5C 1236.49,1162.69 1236.82,1157.69 1236.5,1152.5C 1242.5,1152.5 1248.5,1152.5 1254.5,1152.5 Z"/></g>
<g><path style="opacity:1" fill="#9a9a9a" d="M 1358.5,1155.5 C 1352.26,1155.85 1346.26,1156.85 1340.5,1158.5C 1339.6,1157.79 1339.26,1156.79 1339.5,1155.5C 1345.83,1155.5 1352.17,1155.5 1358.5,1155.5 Z"/></g>
<g><path style="opacity:0.999" fill="#a39b9b" d="M 449.5,1163.5 C 509.965,1160.47 560.132,1181.47 600,1226.5C 645.304,1286.33 651.97,1350.33 620,1418.5C 589.486,1472.37 543.319,1503.2 481.5,1511C 409.038,1514.86 353.538,1486.36 315,1425.5C 290.211,1381.06 284.877,1334.4 299,1285.5C 318.474,1228.69 356.641,1190.53 413.5,1171C 425.463,1167.64 437.463,1165.14 449.5,1163.5 Z"/></g>
<g><path style="opacity:1" fill="#d8d8d8" d="M 449.5,1167.5 C 521.609,1164.63 576.443,1193.63 614,1254.5C 642.573,1309.81 642.573,1365.14 614,1420.5C 576.754,1481.21 522.254,1510.05 450.5,1507C 391.517,1500.12 347.017,1471.28 317,1420.5C 288.03,1364.31 288.363,1308.31 318,1252.5C 348.318,1203.41 392.151,1175.08 449.5,1167.5 Z"/></g>
<g><path style="opacity:1" fill="#0b0b0b" d="M 455.5,1291.5 C 459.161,1291.35 460.161,1292.85 458.5,1296C 457.207,1296.49 455.873,1296.66 454.5,1296.5C 454.366,1294.71 454.699,1293.04 455.5,1291.5 Z"/></g>
<g><path style="opacity:1" fill="#090909" d="M 484.5,1291.5 C 488.161,1291.35 489.161,1292.85 487.5,1296C 486.207,1296.49 484.873,1296.66 483.5,1296.5C 483.366,1294.71 483.699,1293.04 484.5,1291.5 Z"/></g>
<g><path style="opacity:1" fill="#101010" d="M 350.5,1292.5 C 359.167,1292.5 367.833,1292.5 376.5,1292.5C 376.5,1293.83 376.5,1295.17 376.5,1296.5C 372.833,1296.5 369.167,1296.5 365.5,1296.5C 365.5,1306.83 365.5,1317.17 365.5,1327.5C 364.167,1327.5 362.833,1327.5 361.5,1327.5C 361.5,1317.17 361.5,1306.83 361.5,1296.5C 357.833,1296.5 354.167,1296.5 350.5,1296.5C 350.5,1295.17 350.5,1293.83 350.5,1292.5 Z"/></g>
<g><path style="opacity:1" fill="#0e0e0e" d="M 443.5,1292.5 C 444.5,1292.5 445.5,1292.5 446.5,1292.5C 446.5,1304.17 446.5,1315.83 446.5,1327.5C 445.5,1327.5 444.5,1327.5 443.5,1327.5C 443.633,1322.73 442.3,1322.56 439.5,1327C 429.633,1329.14 424.3,1325.14 423.5,1315C 423.796,1304.37 429.129,1300.03 439.5,1302C 440.667,1303.17 441.833,1304.33 443,1305.5C 443.499,1301.18 443.666,1296.85 443.5,1292.5 Z"/></g>
<g><path style="opacity:1" fill="#151515" d="M 578.5,1292.5 C 579.833,1292.5 581.167,1292.5 582.5,1292.5C 582.5,1304.17 582.5,1315.83 582.5,1327.5C 581.167,1327.5 579.833,1327.5 578.5,1327.5C 578.5,1315.83 578.5,1304.17 578.5,1292.5 Z"/></g>
<g><path style="opacity:1" fill="#0f0f0f" d="M 468.5,1295.5 C 469.5,1295.5 470.5,1295.5 471.5,1295.5C 471.205,1297.74 471.539,1299.74 472.5,1301.5C 474.167,1301.5 475.833,1301.5 477.5,1301.5C 477.5,1302.5 477.5,1303.5 477.5,1304.5C 475.833,1304.5 474.167,1304.5 472.5,1304.5C 472.5,1310.83 472.5,1317.17 472.5,1323.5C 474.167,1323.5 475.833,1323.5 477.5,1323.5C 477.5,1324.83 477.5,1326.17 477.5,1327.5C 474.03,1328.13 471.196,1327.13 469,1324.5C 468.5,1317.84 468.334,1311.17 468.5,1304.5C 467.167,1304.5 465.833,1304.5 464.5,1304.5C 464.5,1303.5 464.5,1302.5 464.5,1301.5C 465.833,1301.5 467.167,1301.5 468.5,1301.5C 468.5,1299.5 468.5,1297.5 468.5,1295.5 Z"/></g>
<g><path style="opacity:1" fill="#595959" d="M 468.5,1295.5 C 469.568,1294.57 470.901,1294.23 472.5,1294.5C 472.5,1296.83 472.5,1299.17 472.5,1301.5C 471.539,1299.74 471.205,1297.74 471.5,1295.5C 470.5,1295.5 469.5,1295.5 468.5,1295.5 Z"/></g>
<g><path style="opacity:1" fill="#101010" d="M 389.5,1301.5 C 390.5,1301.5 391.5,1301.5 392.5,1301.5C 392.5,1302.5 392.5,1303.5 392.5,1304.5C 390.901,1304.23 389.568,1304.57 388.5,1305.5C 386.983,1305.51 385.816,1306.18 385,1307.5C 384.5,1314.16 384.334,1320.83 384.5,1327.5C 383.167,1327.5 381.833,1327.5 380.5,1327.5C 380.5,1318.83 380.5,1310.17 380.5,1301.5C 382.451,1301.23 383.951,1301.89 385,1303.5C 386.33,1302.42 387.83,1301.75 389.5,1301.5 Z"/></g>
<g><path style="opacity:1" fill="#0f0f0f" d="M 402.5,1301.5 C 406.182,1301.33 409.848,1301.5 413.5,1302C 414.667,1303.17 415.833,1304.33 417,1305.5C 417.5,1312.83 417.666,1320.16 417.5,1327.5C 416.167,1327.5 414.833,1327.5 413.5,1327.5C 413.649,1326.45 413.483,1325.45 413,1324.5C 408.037,1329.71 403.037,1329.71 398,1324.5C 395.163,1319.03 396.663,1315.2 402.5,1313C 405.89,1312.75 409.223,1312.25 412.5,1311.5C 414.445,1306.76 412.778,1304.43 407.5,1304.5C 404.729,1304.76 402.562,1306.09 401,1308.5C 399.795,1307.93 398.628,1307.26 397.5,1306.5C 398.882,1304.45 400.548,1302.78 402.5,1301.5 Z"/></g>
<g><path style="opacity:1" fill="#151515" d="M 454.5,1301.5 C 455.833,1301.5 457.167,1301.5 458.5,1301.5C 458.5,1310.17 458.5,1318.83 458.5,1327.5C 457.167,1327.5 455.833,1327.5 454.5,1327.5C 454.5,1318.83 454.5,1310.17 454.5,1301.5 Z"/></g>
<g><path style="opacity:1" fill="#0f0f0f" d="M 483.5,1301.5 C 484.833,1301.5 486.167,1301.5 487.5,1301.5C 487.5,1310.17 487.5,1318.83 487.5,1327.5C 486.167,1327.5 484.833,1327.5 483.5,1327.5C 483.5,1318.83 483.5,1310.17 483.5,1301.5 Z"/></g>
<g><path style="opacity:1" fill="#0f0f0f" d="M 500.5,1301.5 C 514.979,1300.76 520.146,1307.43 516,1321.5C 514.833,1324 513,1325.83 510.5,1327C 497.832,1328.89 492.332,1323.39 494,1310.5C 495.222,1306.69 497.389,1303.69 500.5,1301.5 Z"/></g>
<g><path style="opacity:1" fill="#0c0c0c" d="M 523.5,1301.5 C 524.833,1301.5 526.167,1301.5 527.5,1301.5C 527.21,1305.55 527.877,1306.05 529.5,1303C 534.436,1300.59 538.936,1301.09 543,1304.5C 544.432,1312.05 544.932,1319.72 544.5,1327.5C 543.167,1327.5 541.833,1327.5 540.5,1327.5C 540.666,1320.83 540.5,1314.16 540,1307.5C 535.615,1303.24 531.615,1303.58 528,1308.5C 527.5,1314.82 527.334,1321.16 527.5,1327.5C 526.167,1327.5 524.833,1327.5 523.5,1327.5C 523.5,1318.83 523.5,1310.17 523.5,1301.5 Z"/></g>
<g><path style="opacity:1" fill="#0d0d0d" d="M 556.5,1301.5 C 559.85,1301.33 563.183,1301.5 566.5,1302C 567.931,1302.47 569.097,1303.3 570,1304.5C 571.432,1312.05 571.932,1319.72 571.5,1327.5C 570.167,1327.5 568.833,1327.5 567.5,1327.5C 567.649,1326.45 567.483,1325.45 567,1324.5C 560.863,1330.25 555.53,1329.59 551,1322.5C 550.056,1319.65 550.556,1317.15 552.5,1315C 556.611,1313.11 560.944,1312.11 565.5,1312C 568.835,1307.32 567.502,1304.82 561.5,1304.5C 558.707,1304.95 556.373,1306.28 554.5,1308.5C 552.61,1308.13 551.776,1307.13 552,1305.5C 553.397,1303.93 554.897,1302.6 556.5,1301.5 Z"/></g>
<g><path style="opacity:1" fill="#747474" d="M 389.5,1301.5 C 390.568,1300.57 391.901,1300.23 393.5,1300.5C 393.5,1302.17 393.5,1303.83 393.5,1305.5C 391.833,1305.5 390.167,1305.5 388.5,1305.5C 389.568,1304.57 390.901,1304.23 392.5,1304.5C 392.5,1303.5 392.5,1302.5 392.5,1301.5C 391.5,1301.5 390.5,1301.5 389.5,1301.5 Z"/></g>
<g><path style="opacity:1" fill="#d1d1d1" d="M 432.5,1304.5 C 442.102,1305.02 445.269,1310.02 442,1319.5C 440.287,1324.04 437.12,1325.54 432.5,1324C 425.874,1317.47 425.874,1310.97 432.5,1304.5 Z"/></g>
<g><path style="opacity:1" fill="#d0d0d0" d="M 502.5,1304.5 C 507.28,1303.64 510.78,1305.31 513,1309.5C 513.767,1313.59 513.434,1317.59 512,1321.5C 505.65,1326.23 500.984,1324.89 498,1317.5C 497.208,1312.32 498.708,1307.98 502.5,1304.5 Z"/></g>
<g><path style="opacity:1" fill="#cbcbcb" d="M 412.5,1314.5 C 414.261,1323.08 410.761,1326.08 402,1323.5C 399.855,1321.1 400.022,1318.94 402.5,1317C 405.909,1316 409.242,1315.17 412.5,1314.5 Z"/></g>
<g><path style="opacity:1" fill="#cccccc" d="M 566.5,1314.5 C 568.66,1320.5 566.494,1323.83 560,1324.5C 554.417,1323.98 553.25,1321.48 556.5,1317C 559.909,1316 563.242,1315.17 566.5,1314.5 Z"/></g>
<g><path style="opacity:1" fill="#121212" d="M 478.5,1352.5 C 479.833,1352.5 481.167,1352.5 482.5,1352.5C 482.334,1359.17 482.5,1365.84 483,1372.5C 486.5,1369 490,1365.5 493.5,1362C 495.167,1361.33 496.833,1361.33 498.5,1362C 494.984,1365.35 491.651,1368.85 488.5,1372.5C 491.802,1377.6 495.469,1382.44 499.5,1387C 497.833,1387.67 496.167,1387.67 494.5,1387C 491.324,1382.99 487.991,1379.16 484.5,1375.5C 483.914,1375.71 483.414,1376.04 483,1376.5C 482.501,1380.15 482.335,1383.82 482.5,1387.5C 481.167,1387.5 479.833,1387.5 478.5,1387.5C 478.5,1375.83 478.5,1364.17 478.5,1352.5 Z"/></g>
<g><path style="opacity:1" fill="#0f0f0f" d="M 391.5,1362.5 C 392.919,1361.55 394.585,1361.22 396.5,1361.5C 397.004,1367.84 398.67,1373.84 401.5,1379.5C 403.787,1373.68 405.454,1367.68 406.5,1361.5C 408.467,1361.26 410.301,1361.59 412,1362.5C 413.541,1368.54 415.207,1374.54 417,1380.5C 419.301,1374.29 421.135,1367.96 422.5,1361.5C 423.833,1361.5 425.167,1361.5 426.5,1361.5C 424.167,1370.17 421.833,1378.83 419.5,1387.5C 417.856,1387.71 416.356,1387.38 415,1386.5C 413.454,1379.97 411.454,1373.64 409,1367.5C 406.851,1374.1 405.018,1380.76 403.5,1387.5C 401.549,1387.77 400.049,1387.11 399,1385.5C 396.764,1377.63 394.264,1369.96 391.5,1362.5 Z"/></g>
<g><path style="opacity:1" fill="#0d0d0d" d="M 437.5,1361.5 C 444.696,1359.7 449.863,1362.03 453,1368.5C 454.249,1374.25 453.416,1379.58 450.5,1384.5C 435.974,1390.5 429.474,1385.5 431,1369.5C 432.277,1366.06 434.443,1363.4 437.5,1361.5 Z"/></g>
<g><path style="opacity:1" fill="#0e0e0e" d="M 469.5,1361.5 C 470.5,1361.5 471.5,1361.5 472.5,1361.5C 472.5,1362.5 472.5,1363.5 472.5,1364.5C 470.901,1364.23 469.568,1364.57 468.5,1365.5C 466.983,1365.51 465.816,1366.18 465,1367.5C 464.5,1374.16 464.334,1380.83 464.5,1387.5C 463.167,1387.5 461.833,1387.5 460.5,1387.5C 460.5,1378.83 460.5,1370.17 460.5,1361.5C 462.451,1361.23 463.951,1361.89 465,1363.5C 466.33,1362.42 467.83,1361.75 469.5,1361.5 Z"/></g>
<g><path style="opacity:1" fill="#0e0e0e" d="M 524.5,1375.5 C 518.167,1375.5 511.833,1375.5 505.5,1375.5C 505.263,1376.79 505.596,1377.79 506.5,1378.5C 508.221,1384.03 511.888,1385.86 517.5,1384C 519.216,1380.62 521.549,1379.96 524.5,1382C 523.5,1384.33 521.833,1386 519.5,1387C 506.272,1389.44 500.439,1383.94 502,1370.5C 505.445,1361.55 511.612,1359.05 520.5,1363C 524.039,1366.39 525.372,1370.55 524.5,1375.5 Z"/></g>
<g><path style="opacity:1" fill="#121212" d="M 543.5,1361.5 C 543.5,1362.5 543.5,1363.5 543.5,1364.5C 541.901,1364.23 540.568,1364.57 539.5,1365.5C 537.983,1365.51 536.816,1366.18 536,1367.5C 535.5,1374.16 535.334,1380.83 535.5,1387.5C 534.167,1387.5 532.833,1387.5 531.5,1387.5C 531.5,1378.83 531.5,1370.17 531.5,1361.5C 532.5,1361.5 533.5,1361.5 534.5,1361.5C 534.343,1362.87 534.51,1364.21 535,1365.5C 537.072,1361.81 539.906,1360.47 543.5,1361.5 Z"/></g>
<g><path style="opacity:1" fill="#747474" d="M 469.5,1361.5 C 470.568,1360.57 471.901,1360.23 473.5,1360.5C 473.5,1362.17 473.5,1363.83 473.5,1365.5C 471.833,1365.5 470.167,1365.5 468.5,1365.5C 469.568,1364.57 470.901,1364.23 472.5,1364.5C 472.5,1363.5 472.5,1362.5 472.5,1361.5C 471.5,1361.5 470.5,1361.5 469.5,1361.5 Z"/></g>
<g><path style="opacity:1" fill="#7c7c7c" d="M 543.5,1361.5 C 544.434,1362.57 544.768,1363.9 544.5,1365.5C 542.833,1365.5 541.167,1365.5 539.5,1365.5C 540.568,1364.57 541.901,1364.23 543.5,1364.5C 543.5,1363.5 543.5,1362.5 543.5,1361.5 Z"/></g>
<g><path style="opacity:1" fill="#d3d3d3" d="M 439.5,1364.5 C 449.093,1365.11 452.26,1370.11 449,1379.5C 446.447,1384.63 442.614,1385.79 437.5,1383C 434.71,1378.94 433.877,1374.44 435,1369.5C 436.025,1367.31 437.525,1365.65 439.5,1364.5 Z"/></g>
<g><path style="opacity:1" fill="#c8c8c8" d="M 510.5,1364.5 C 517.013,1363.4 520.346,1366.07 520.5,1372.5C 515.456,1372.83 510.456,1372.49 505.5,1371.5C 506.453,1368.57 508.12,1366.24 510.5,1364.5 Z"/></g>
<g><path style="opacity:1" fill="#999999" d="M 524.5,1375.5 C 518.265,1375.85 512.265,1376.85 506.5,1378.5C 505.596,1377.79 505.263,1376.79 505.5,1375.5C 511.833,1375.5 518.167,1375.5 524.5,1375.5 Z"/></g>
</svg>
