<?xml version="1.0" encoding="UTF-8"?>
<!DOCTYPE svg PUBLIC "-//W3C//DTD SVG 1.1//EN" "http://www.w3.org/Graphics/SVG/1.1/DTD/svg11.dtd">
<svg xmlns="http://www.w3.org/2000/svg" version="1.1" width="3520px" height="1372px" style="shape-rendering:geometricPrecision; text-rendering:geometricPrecision; image-rendering:optimizeQuality; fill-rule:evenodd; clip-rule:evenodd" xmlns:xlink="http://www.w3.org/1999/xlink">
<g><path style="opacity:0.864" fill="#323232" d="M 658.5,-0.5 C 676.5,-0.5 694.5,-0.5 712.5,-0.5C 712.5,1.16667 712.5,2.83333 712.5,4.5C 694.5,3.16667 676.5,3.16667 658.5,4.5C 658.5,2.83333 658.5,1.16667 658.5,-0.5 Z"/></g>
<g><path style="opacity:0.86" fill="#323232" d="M 1736.5,-0.5 C 1754.5,-0.5 1772.5,-0.5 1790.5,-0.5C 1790.5,1.16667 1790.5,2.83333 1790.5,4.5C 1772.5,3.16667 1754.5,3.16667 1736.5,4.5C 1736.5,2.83333 1736.5,1.16667 1736.5,-0.5 Z"/></g>
<g><path style="opacity:0.864" fill="#323232" d="M 2806.5,-0.5 C 2824.5,-0.5 2842.5,-0.5 2860.5,-0.5C 2860.5,1.16667 2860.5,2.83333 2860.5,4.5C 2842.5,3.16667 2824.5,3.16667 2806.5,4.5C 2806.5,2.83333 2806.5,1.16667 2806.5,-0.5 Z"/></g>
<g><path style="opacity:0.878" fill="#313131" d="M 602.5,3.5 C 603.5,3.5 604.5,3.5 605.5,3.5C 605.5,5.16667 605.5,6.83333 605.5,8.5C 587.468,10.9497 569.468,13.6164 551.5,16.5C 551.5,14.8333 551.5,13.1667 551.5,11.5C 568.644,8.91922 585.644,6.25256 602.5,3.5 Z"/></g>
<g><path style="opacity:0.88" fill="#313131" d="M 765.5,3.5 C 783.258,5.68181 800.925,8.51514 818.5,12C 819.38,13.3561 819.714,14.8561 819.5,16.5C 801.532,13.6164 783.532,10.9497 765.5,8.5C 765.5,6.83333 765.5,5.16667 765.5,3.5 Z"/></g>
<g><path style="opacity:0.867" fill="#313131" d="M 1680.5,3.5 C 1681.5,3.5 1682.5,3.5 1683.5,3.5C 1683.5,5.16667 1683.5,6.83333 1683.5,8.5C 1665.47,10.9497 1647.47,13.6164 1629.5,16.5C 1629.29,14.8561 1629.62,13.3561 1630.5,12C 1647.25,8.81969 1663.92,5.98636 1680.5,3.5 Z"/></g>
<g><path style="opacity:0.877" fill="#313131" d="M 1843.5,3.5 C 1861.26,5.68181 1878.92,8.51514 1896.5,12C 1898.12,14.7997 1897.28,16.2997 1894,16.5C 1877.25,13.2357 1860.41,10.569 1843.5,8.5C 1843.5,6.83333 1843.5,5.16667 1843.5,3.5 Z"/></g>
<g><path style="opacity:0.878" fill="#313131" d="M 2750.5,3.5 C 2751.5,3.5 2752.5,3.5 2753.5,3.5C 2753.5,5.16667 2753.5,6.83333 2753.5,8.5C 2735.47,10.9497 2717.47,13.6164 2699.5,16.5C 2699.5,14.8333 2699.5,13.1667 2699.5,11.5C 2716.64,8.91922 2733.64,6.25256 2750.5,3.5 Z"/></g>
<g><path style="opacity:0.88" fill="#313131" d="M 2913.5,3.5 C 2931.26,5.68181 2948.92,8.51514 2966.5,12C 2967.38,13.3561 2967.71,14.8561 2967.5,16.5C 2949.53,13.6164 2931.53,10.9497 2913.5,8.5C 2913.5,6.83333 2913.5,5.16667 2913.5,3.5 Z"/></g>
<g><path style="opacity:0.901" fill="#313131" d="M 497.5,24.5 C 500.697,25.9057 501.031,27.7391 498.5,30C 482.334,34.6664 466.334,39.833 450.5,45.5C 448.833,45.1667 447.833,44.1667 447.5,42.5C 449.153,40.8786 451.153,39.7119 453.5,39C 468.249,34.0276 482.916,29.1943 497.5,24.5 Z"/></g>
<g><path style="opacity:0.906" fill="#313131" d="M 871.5,24.5 C 889.415,29.1372 906.749,35.1372 923.5,42.5C 923.167,44.1667 922.167,45.1667 920.5,45.5C 903.608,39.9269 886.941,34.0936 870.5,28C 870.989,26.8615 871.322,25.6948 871.5,24.5 Z"/></g>
<g><path style="opacity:0.888" fill="#313131" d="M 1576.5,24.5 C 1579.07,26.2877 1579.07,28.121 1576.5,30C 1560.59,34.9689 1544.76,40.1355 1529,45.5C 1525.64,43.5237 1525.81,41.6903 1529.5,40C 1545.25,34.6943 1560.92,29.5276 1576.5,24.5 Z"/></g>
<g><path style="opacity:0.902" fill="#313131" d="M 1949.5,24.5 C 1966.3,29.4889 1982.97,34.9889 1999.5,41C 2000.67,42.8684 2000.51,44.7017 1999,46.5C 1983.2,40.0109 1967.03,34.5109 1950.5,30C 1948.19,28.5415 1947.86,26.7081 1949.5,24.5 Z"/></g>
<g><path style="opacity:0.901" fill="#313131" d="M 2645.5,24.5 C 2648.7,25.9057 2649.03,27.7391 2646.5,30C 2630.33,34.6664 2614.33,39.833 2598.5,45.5C 2596.83,45.1667 2595.83,44.1667 2595.5,42.5C 2597.15,40.8786 2599.15,39.7119 2601.5,39C 2616.25,34.0276 2630.92,29.1943 2645.5,24.5 Z"/></g>
<g><path style="opacity:0.906" fill="#313131" d="M 3019.5,24.5 C 3037.42,29.1372 3054.75,35.1372 3071.5,42.5C 3071.17,44.1667 3070.17,45.1667 3068.5,45.5C 3051.61,39.9269 3034.94,34.0936 3018.5,28C 3018.99,26.8615 3019.32,25.6948 3019.5,24.5 Z"/></g>
<g><path style="opacity:0.939" fill="#313131" d="M 972.5,61.5 C 989.121,69.477 1005.45,77.977 1021.5,87C 1020.84,88.4866 1019.84,89.6533 1018.5,90.5C 1002.66,82.0779 986.656,73.9112 970.5,66C 971.267,64.5295 971.933,63.0295 972.5,61.5 Z"/></g>
<g><path style="opacity:0.914" fill="#313131" d="M 1474.5,62.5 C 1477.69,62.7224 1478.69,64.2224 1477.5,67C 1462.34,74.4112 1447.34,82.0779 1432.5,90C 1429.31,90.2735 1428.31,88.9401 1429.5,86C 1444.59,78.1223 1459.59,70.289 1474.5,62.5 Z"/></g>
<g><path style="opacity:0.947" fill="#313131" d="M 2049.5,62.5 C 2066.11,69.5559 2082.28,77.5559 2098,86.5C 2098.49,89.3398 2097.32,90.5065 2094.5,90C 2079.66,82.0779 2064.66,74.4112 2049.5,67C 2048.59,65.5861 2048.59,64.0861 2049.5,62.5 Z"/></g>
<g><path style="opacity:0.939" fill="#313131" d="M 3120.5,61.5 C 3137.12,69.477 3153.45,77.977 3169.5,87C 3168.84,88.4866 3167.84,89.6533 3166.5,90.5C 3150.66,82.0779 3134.66,73.9112 3118.5,66C 3119.27,64.5295 3119.93,63.0295 3120.5,61.5 Z"/></g>
<g><path style="opacity:0.904" fill="#313131" d="M 395.5,62.5 C 396.978,62.238 398.311,62.5713 399.5,63.5C 400.59,64.6086 400.59,65.6086 399.5,66.5C 383.677,74.2445 368.01,82.2445 352.5,90.5C 351.155,89.6533 350.155,88.4866 349.5,87C 364.736,78.5499 380.07,70.3832 395.5,62.5 Z"/></g>
<g><path style="opacity:0.904" fill="#313131" d="M 2543.5,62.5 C 2544.98,62.238 2546.31,62.5713 2547.5,63.5C 2548.59,64.6086 2548.59,65.6086 2547.5,66.5C 2531.68,74.2445 2516.01,82.2445 2500.5,90.5C 2499.16,89.6533 2498.16,88.4866 2497.5,87C 2512.74,78.5499 2528.07,70.3832 2543.5,62.5 Z"/></g>
<g><path style="opacity:0.858" fill="#000000" d="M 2858.5,107.5 C 2863.7,106.189 2867.04,108.022 2868.5,113C 2867.02,118.138 2863.69,119.805 2858.5,118C 2854.61,114.511 2854.61,111.011 2858.5,107.5 Z"/></g>
<g><path style="opacity:0.929" fill="#000000" d="M 595.5,109.5 C 598.5,109.5 601.5,109.5 604.5,109.5C 604.5,132.833 604.5,156.167 604.5,179.5C 601.5,179.5 598.5,179.5 595.5,179.5C 595.5,156.167 595.5,132.833 595.5,109.5 Z"/></g>
<g><path style="opacity:0.89" fill="#000000" d="M 655.5,109.5 C 658.5,109.5 661.5,109.5 664.5,109.5C 664.5,132.833 664.5,156.167 664.5,179.5C 661.5,179.5 658.5,179.5 655.5,179.5C 655.663,177.143 655.497,174.81 655,172.5C 651.872,178.566 646.872,181.566 640,181.5C 624.861,178.775 617.361,169.609 617.5,154C 617.953,131.303 628.953,122.97 650.5,129C 652.378,130.543 653.878,132.376 655,134.5C 655.5,126.173 655.666,117.84 655.5,109.5 Z M 636.5,134.5 C 646.478,132.648 652.645,136.648 655,146.5C 656.31,153.871 655.31,160.871 652,167.5C 647.509,172.259 642.009,173.759 635.5,172C 631.942,170.108 629.442,167.275 628,163.5C 625.51,155.2 626.177,147.2 630,139.5C 631.965,137.45 634.132,135.783 636.5,134.5 Z"/></g>
<g><path style="opacity:0.917" fill="#000000" d="M 1559.5,109.5 C 1570.17,109.333 1580.84,109.5 1591.5,110C 1599.56,111.732 1604.73,116.565 1607,124.5C 1609.89,136.883 1605.72,145.717 1594.5,151C 1600.09,160.171 1605.42,169.504 1610.5,179C 1606.58,179.793 1602.74,179.626 1599,178.5C 1594.5,170.167 1590,161.833 1585.5,153.5C 1579.87,152.505 1574.21,152.171 1568.5,152.5C 1568.5,161.5 1568.5,170.5 1568.5,179.5C 1565.5,179.5 1562.5,179.5 1559.5,179.5C 1559.5,156.167 1559.5,132.833 1559.5,109.5 Z M 1568.5,117.5 C 1576.24,117.144 1583.9,117.644 1591.5,119C 1598.51,123.904 1600.34,130.404 1597,138.5C 1594.33,141.84 1590.83,143.674 1586.5,144C 1580.51,144.499 1574.51,144.666 1568.5,144.5C 1568.5,135.5 1568.5,126.5 1568.5,117.5 Z"/></g>
<g><path style="opacity:0.941" fill="#000000" d="M 1923.5,109.5 C 1926.17,109.5 1928.83,109.5 1931.5,109.5C 1931.33,117.84 1931.5,126.173 1932,134.5C 1935.43,128.537 1940.59,125.87 1947.5,126.5C 1954.97,125.986 1960.47,128.986 1964,135.5C 1965.45,150.095 1965.95,164.761 1965.5,179.5C 1962.5,179.5 1959.5,179.5 1956.5,179.5C 1956.67,166.829 1956.5,154.162 1956,141.5C 1954.43,136.296 1950.93,133.963 1945.5,134.5C 1939.91,134.374 1935.75,136.708 1933,141.5C 1931.6,154.114 1931.1,166.781 1931.5,179.5C 1928.83,179.5 1926.17,179.5 1923.5,179.5C 1923.5,156.167 1923.5,132.833 1923.5,109.5 Z"/></g>
<g><path style="opacity:0.914" fill="#000000" d="M 2683.5,109.5 C 2693.84,109.334 2704.17,109.5 2714.5,110C 2724.3,112.146 2731.47,117.646 2736,126.5C 2740.85,139.301 2740.52,151.967 2735,164.5C 2730.53,171.96 2724.03,176.794 2715.5,179C 2704.84,179.5 2694.17,179.667 2683.5,179.5C 2683.5,156.167 2683.5,132.833 2683.5,109.5 Z M 2692.5,117.5 C 2723.05,114.272 2734.88,127.606 2728,157.5C 2724.95,164.947 2719.45,169.447 2711.5,171C 2705.18,171.5 2698.84,171.666 2692.5,171.5C 2692.5,153.5 2692.5,135.5 2692.5,117.5 Z"/></g>
<g><path style="opacity:0.917" fill="#313131" d="M 303.5,114.5 C 306.267,115.638 306.934,117.472 305.5,120C 290.892,129.554 276.726,139.72 263,150.5C 261.916,149.335 261.083,148.002 260.5,146.5C 274.366,135.082 288.699,124.415 303.5,114.5 Z"/></g>
<g><path style="opacity:0.929" fill="#313131" d="M 1066.5,114.5 C 1081.49,124.668 1096.16,135.335 1110.5,146.5C 1109.83,150.077 1108.16,150.91 1105.5,149C 1092.52,138.844 1079.19,129.177 1065.5,120C 1064.24,117.924 1064.58,116.09 1066.5,114.5 Z"/></g>
<g><path style="opacity:0.917" fill="#313131" d="M 2451.5,114.5 C 2454.27,115.638 2454.93,117.472 2453.5,120C 2438.89,129.554 2424.73,139.72 2411,150.5C 2409.92,149.335 2409.08,148.002 2408.5,146.5C 2422.37,135.082 2436.7,124.415 2451.5,114.5 Z"/></g>
<g><path style="opacity:0.929" fill="#313131" d="M 3214.5,114.5 C 3229.49,124.668 3244.16,135.335 3258.5,146.5C 3257.83,150.077 3256.16,150.91 3253.5,149C 3240.52,138.844 3227.19,129.177 3213.5,120C 3212.24,117.924 3212.58,116.09 3214.5,114.5 Z"/></g>
<g><path style="opacity:0.923" fill="#313131" d="M 1381.5,115.5 C 1384.69,115.722 1385.69,117.222 1384.5,120C 1370.3,129.267 1356.63,139.267 1343.5,150C 1341,150.167 1339.83,149 1340,146.5C 1353.45,135.537 1367.29,125.204 1381.5,115.5 Z"/></g>
<g><path style="opacity:0.927" fill="#313131" d="M 2142.5,115.5 C 2144.31,115.491 2145.98,115.991 2147.5,117C 2161.23,126.063 2174.4,135.897 2187,146.5C 2187.17,149 2186,150.167 2183.5,150C 2170.37,139.267 2156.7,129.267 2142.5,120C 2141.59,118.586 2141.59,117.086 2142.5,115.5 Z"/></g>
<g><path style="opacity:0.883" fill="#000000" d="M 1855.5,125.5 C 1857.79,125.244 1859.96,125.577 1862,126.5C 1862.67,129.5 1862.67,132.5 1862,135.5C 1854.34,133.161 1848.67,135.494 1845,142.5C 1844.5,154.829 1844.33,167.162 1844.5,179.5C 1841.5,179.5 1838.5,179.5 1835.5,179.5C 1835.5,161.833 1835.5,144.167 1835.5,126.5C 1838.17,126.5 1840.83,126.5 1843.5,126.5C 1842.58,134.102 1843.92,134.935 1847.5,129C 1850.16,127.522 1852.82,126.355 1855.5,125.5 Z"/></g>
<g><path style="opacity:0.884" fill="#000000" d="M 693.5,126.5 C 715.134,124.801 725.134,134.801 723.5,156.5C 711.167,156.5 698.833,156.5 686.5,156.5C 687.627,169.447 694.627,174.613 707.5,172C 710.973,170.36 713.64,167.86 715.5,164.5C 718.325,165.383 720.992,166.55 723.5,168C 719.037,176.656 711.87,181.156 702,181.5C 689.505,180.656 681.505,174.323 678,162.5C 674.239,146.38 679.405,134.38 693.5,126.5 Z M 695.5,134.5 C 707.008,132.358 713.341,137.024 714.5,148.5C 705.167,148.5 695.833,148.5 686.5,148.5C 687.088,142.252 690.088,137.585 695.5,134.5 Z"/></g>
<g><path style="opacity:0.886" fill="#000000" d="M 747.5,126.5 C 752.844,126.334 758.177,126.501 763.5,127C 769.333,128.833 773.167,132.667 775,138.5C 775.5,152.163 775.667,165.829 775.5,179.5C 772.5,179.5 769.5,179.5 766.5,179.5C 767.187,173.401 765.854,172.901 762.5,178C 754.847,182.56 747.18,182.56 739.5,178C 730.686,169.957 730.353,161.623 738.5,153C 740.957,151.438 743.624,150.438 746.5,150C 752.892,149.077 759.226,147.91 765.5,146.5C 767.612,138.432 764.445,134.099 756,133.5C 750.207,134.479 745.374,137.145 741.5,141.5C 733.207,140.024 732.541,136.524 739.5,131C 742.099,129.205 744.766,127.705 747.5,126.5 Z M 764.5,154.5 C 768.209,165.384 764.042,171.717 752,173.5C 742.35,172.311 739.85,167.644 744.5,159.5C 751.139,157.277 757.805,155.61 764.5,154.5 Z"/></g>
<g><path style="opacity:0.882" fill="#000000" d="M 1633.5,126.5 C 1655.11,124.781 1665.11,134.781 1663.5,156.5C 1650.82,156.168 1638.15,156.501 1625.5,157.5C 1627.88,169.693 1635.21,174.527 1647.5,172C 1650.67,170.167 1653.17,167.667 1655,164.5C 1657.38,165.554 1659.88,166.221 1662.5,166.5C 1661.93,170.797 1659.93,174.297 1656.5,177C 1644.53,183.241 1633.36,182.074 1623,173.5C 1614.11,159.605 1614.45,145.939 1624,132.5C 1626.84,129.837 1630.01,127.837 1633.5,126.5 Z M 1635.5,134.5 C 1646.85,132.652 1653.18,137.319 1654.5,148.5C 1644.83,148.666 1635.16,148.5 1625.5,148C 1627.04,142.059 1630.37,137.559 1635.5,134.5 Z"/></g>
<g><path style="opacity:0.883" fill="#000000" d="M 1686.5,126.5 C 1699.12,123.513 1708.12,127.68 1713.5,139C 1710.83,139.834 1708.16,140.668 1705.5,141.5C 1699.53,132.217 1692.36,131.217 1684,138.5C 1682.83,142.305 1683.99,145.139 1687.5,147C 1693.5,148.667 1699.5,150.333 1705.5,152C 1717.02,160.225 1717.35,168.892 1706.5,178C 1695.61,182.99 1685.45,181.824 1676,174.5C 1674.83,172.167 1673.67,169.833 1672.5,167.5C 1675.04,166.197 1677.71,165.197 1680.5,164.5C 1684.71,172.305 1691.04,174.805 1699.5,172C 1705.25,168.819 1705.92,164.819 1701.5,160C 1693.56,158.1 1685.9,155.433 1678.5,152C 1671.51,140.476 1674.18,131.976 1686.5,126.5 Z"/></g>
<g><path style="opacity:0.881" fill="#000000" d="M 1739.5,126.5 C 1761.15,124.812 1771.15,134.812 1769.5,156.5C 1756.82,156.168 1744.15,156.501 1731.5,157.5C 1733.91,169.731 1741.24,174.564 1753.5,172C 1756.67,170.167 1759.17,167.667 1761,164.5C 1763.38,165.554 1765.88,166.221 1768.5,166.5C 1767.96,170.746 1765.96,174.246 1762.5,177C 1750.53,183.241 1739.36,182.074 1729,173.5C 1719.97,159.441 1720.47,145.775 1730.5,132.5C 1733.08,129.72 1736.08,127.72 1739.5,126.5 Z M 1741.5,134.5 C 1752.85,132.652 1759.18,137.319 1760.5,148.5C 1750.83,148.666 1741.16,148.5 1731.5,148C 1733.04,142.059 1736.37,137.559 1741.5,134.5 Z"/></g>
<g><path style="opacity:0.886" fill="#000000" d="M 1793.5,126.5 C 1799.93,126.13 1806.26,126.63 1812.5,128C 1815.67,129.833 1818.17,132.333 1820,135.5C 1821.43,150.108 1821.93,164.775 1821.5,179.5C 1818.5,179.5 1815.5,179.5 1812.5,179.5C 1812.66,177.801 1812.49,176.134 1812,174.5C 1804.07,182.204 1795.24,183.371 1785.5,178C 1776.63,169.963 1776.3,161.63 1784.5,153C 1792.85,149.73 1801.51,147.73 1810.5,147C 1813.06,143.263 1812.72,139.596 1809.5,136C 1800.91,132.382 1793.58,134.216 1787.5,141.5C 1780.82,141.254 1779.32,138.588 1783,133.5C 1786,130.262 1789.5,127.929 1793.5,126.5 Z M 1810.5,154.5 C 1814.23,165.369 1810.06,171.703 1798,173.5C 1788.84,172.658 1786.01,168.158 1789.5,160C 1796.4,157.383 1803.4,155.55 1810.5,154.5 Z"/></g>
<g><path style="opacity:0.883" fill="#000000" d="M 1883.5,126.5 C 1897.79,123.804 1907.45,129.137 1912.5,142.5C 1909.55,143.655 1906.55,143.821 1903.5,143C 1898.68,134.062 1891.68,132.062 1882.5,137C 1875.47,145.179 1873.97,154.346 1878,164.5C 1882.03,172.037 1888.2,174.537 1896.5,172C 1899.92,170.249 1902.25,167.582 1903.5,164C 1906.55,163.179 1909.55,163.345 1912.5,164.5C 1909.3,175.196 1902.14,180.863 1891,181.5C 1875.39,179.195 1867.23,170.029 1866.5,154C 1866.77,141.265 1872.43,132.098 1883.5,126.5 Z"/></g>
<g><path style="opacity:0.883" fill="#000000" d="M 2765.5,126.5 C 2787.13,124.801 2797.13,134.801 2795.5,156.5C 2782.83,156.333 2770.16,156.5 2757.5,157C 2759.69,169.523 2767.02,174.523 2779.5,172C 2782.97,170.36 2785.64,167.86 2787.5,164.5C 2789.73,165.577 2792.06,166.244 2794.5,166.5C 2794.45,171.064 2792.45,174.564 2788.5,177C 2774.9,183.918 2763.07,181.751 2753,170.5C 2746.87,158.663 2747.21,146.996 2754,135.5C 2757.18,131.462 2761.02,128.462 2765.5,126.5 Z M 2767.5,134.5 C 2779.01,132.358 2785.34,137.024 2786.5,148.5C 2777.17,148.5 2767.83,148.5 2758.5,148.5C 2759.06,142.275 2762.06,137.608 2767.5,134.5 Z"/></g>
<g><path style="opacity:0.88" fill="#000000" d="M 2818.5,126.5 C 2824.59,126.139 2830.59,126.639 2836.5,128C 2840.75,130.419 2843.75,133.919 2845.5,138.5C 2843.26,139.692 2840.93,140.692 2838.5,141.5C 2832.04,132.339 2824.54,131.339 2816,138.5C 2814.96,141.636 2815.79,144.136 2818.5,146C 2824.67,148.46 2831,150.46 2837.5,152C 2847.06,157.463 2848.89,164.963 2843,174.5C 2832.2,182.991 2821.03,183.491 2809.5,176C 2803.15,169.965 2804.15,166.131 2812.5,164.5C 2817.5,173.001 2824.5,175.168 2833.5,171C 2837.71,167.636 2838.05,164.136 2834.5,160.5C 2828.61,158.36 2822.61,156.527 2816.5,155C 2807.46,151.211 2804.63,144.711 2808,135.5C 2810.51,131.189 2814.01,128.189 2818.5,126.5 Z"/></g>
<g><path style="opacity:0.893" fill="#000000" d="M 2857.5,126.5 C 2860.5,126.5 2863.5,126.5 2866.5,126.5C 2866.5,144.167 2866.5,161.833 2866.5,179.5C 2863.5,179.5 2860.5,179.5 2857.5,179.5C 2857.5,161.833 2857.5,144.167 2857.5,126.5 Z"/></g>
<g><path style="opacity:0.9" fill="#000000" d="M 2893.5,126.5 C 2898.18,126.334 2902.85,126.501 2907.5,127C 2911.26,128.461 2914.09,130.961 2916,134.5C 2916.5,131.854 2916.66,129.187 2916.5,126.5C 2919.17,126.5 2921.83,126.5 2924.5,126.5C 2924.67,146.836 2924.5,167.169 2924,187.5C 2919.86,197.299 2912.36,201.632 2901.5,200.5C 2892.35,201.074 2885.35,197.574 2880.5,190C 2882.29,187.836 2884.46,186.002 2887,184.5C 2891.96,191.714 2898.8,194.214 2907.5,192C 2910.94,190.895 2913.44,188.728 2915,185.5C 2915.67,180.833 2915.67,176.167 2915,171.5C 2910.81,177.676 2904.98,180.176 2897.5,179C 2889.13,177.737 2883.3,173.237 2880,165.5C 2876.16,154.711 2877.16,144.377 2883,134.5C 2885.98,130.952 2889.48,128.286 2893.5,126.5 Z M 2896.5,134.5 C 2905.54,132.767 2911.71,136.101 2915,144.5C 2917.62,153.733 2915.79,161.9 2909.5,169C 2897.06,173.86 2889.56,169.693 2887,156.5C 2885.46,146.904 2888.63,139.571 2896.5,134.5 Z"/></g>
<g><path style="opacity:0.886" fill="#000000" d="M 2938.5,126.5 C 2941.5,126.5 2944.5,126.5 2947.5,126.5C 2947.34,128.857 2947.5,131.19 2948,133.5C 2951.29,128.106 2956.12,125.773 2962.5,126.5C 2974.21,126.04 2980.38,131.706 2981,143.5C 2981.5,155.495 2981.67,167.495 2981.5,179.5C 2978.5,179.5 2975.5,179.5 2972.5,179.5C 2972.92,166.439 2972.42,153.439 2971,140.5C 2968.93,136.047 2965.43,134.047 2960.5,134.5C 2953.85,134.646 2949.68,137.98 2948,144.5C 2947.5,156.162 2947.33,167.829 2947.5,179.5C 2944.5,179.5 2941.5,179.5 2938.5,179.5C 2938.5,161.833 2938.5,144.167 2938.5,126.5 Z"/></g>
<g><path style="opacity:0.944" fill="#313131" d="M 218.5,181.5 C 221.001,181.826 222.168,183.159 222,185.5C 209.833,197.667 197.667,209.833 185.5,222C 183,222.167 181.833,221 182,218.5C 194.369,206.298 206.535,193.965 218.5,181.5 Z"/></g>
<g><path style="opacity:0.942" fill="#313131" d="M 1150.5,181.5 C 1163.75,193.244 1176.58,205.578 1189,218.5C 1189.17,221 1188,222.167 1185.5,222C 1173.33,209.833 1161.17,197.667 1149,185.5C 1148.7,183.934 1149.2,182.601 1150.5,181.5 Z"/></g>
<g><path style="opacity:0.932" fill="#313131" d="M 1298.5,181.5 C 1300.91,182.406 1301.75,184.072 1301,186.5C 1288,198.167 1275.67,210.5 1264,223.5C 1263.31,222.643 1262.48,221.977 1261.5,221.5C 1260.48,220.998 1260.31,220.332 1261,219.5C 1273.03,206.301 1285.53,193.634 1298.5,181.5 Z"/></g>
<g><path style="opacity:0.93" fill="#313131" d="M 2227.5,181.5 C 2241.13,193.296 2253.96,205.963 2266,219.5C 2266.69,220.332 2266.52,220.998 2265.5,221.5C 2264.52,221.977 2263.69,222.643 2263,223.5C 2251.33,210.5 2239,198.167 2226,186.5C 2225.39,184.505 2225.89,182.838 2227.5,181.5 Z"/></g>
<g><path style="opacity:0.944" fill="#313131" d="M 2366.5,181.5 C 2369,181.826 2370.17,183.159 2370,185.5C 2357.83,197.667 2345.67,209.833 2333.5,222C 2331,222.167 2329.83,221 2330,218.5C 2342.37,206.298 2354.54,193.965 2366.5,181.5 Z"/></g>
<g><path style="opacity:0.942" fill="#313131" d="M 3298.5,181.5 C 3311.75,193.244 3324.58,205.578 3337,218.5C 3337.17,221 3336,222.167 3333.5,222C 3321.33,209.833 3309.17,197.667 3297,185.5C 3296.7,183.934 3297.2,182.601 3298.5,181.5 Z"/></g>
<g><path style="opacity:0.925" fill="#313131" d="M 145.5,260.5 C 149.564,260.673 150.731,262.34 149,265.5C 138.844,278.479 129.177,291.813 120,305.5C 117.761,306.869 115.927,306.369 114.5,304C 124.975,289.53 135.308,275.03 145.5,260.5 Z"/></g>
<g><path style="opacity:0.935" fill="#313131" d="M 1223.5,260.5 C 1225.93,260.585 1227.93,261.585 1229.5,263.5C 1228.54,264.812 1228.71,266.146 1230,267.5C 1239.2,279.401 1248.03,291.568 1256.5,304C 1255.07,306.369 1253.24,306.869 1251,305.5C 1243.11,292.941 1234.44,280.941 1225,269.5C 1215.61,282.05 1206.44,294.717 1197.5,307.5C 1194.31,306.123 1193.81,304.123 1196,301.5C 1204.38,289.229 1212.88,277.062 1221.5,265C 1220.41,262.876 1221.08,261.376 1223.5,260.5 Z"/></g>
<g><path style="opacity:0.927" fill="#313131" d="M 2293.5,260.5 C 2295.26,260.877 2296.92,261.544 2298.5,262.5C 2300.1,260.027 2301.6,260.027 2303,262.5C 2313.05,275.554 2322.72,288.887 2332,302.5C 2332.71,304.367 2332.21,305.867 2330.5,307C 2329.55,307.617 2328.72,307.451 2328,306.5C 2318.78,291.943 2308.78,277.943 2298,264.5C 2287.27,277.634 2277.27,291.301 2268,305.5C 2265.76,306.869 2263.93,306.369 2262.5,304C 2272.98,289.53 2283.31,275.03 2293.5,260.5 Z"/></g>
<g><path style="opacity:0.937" fill="#313131" d="M 3371.5,260.5 C 3373.42,261.909 3375.25,263.576 3377,265.5C 3386.53,278.069 3395.7,290.903 3404.5,304C 3403.07,306.369 3401.24,306.869 3399,305.5C 3389.45,290.892 3379.28,276.726 3368.5,263C 3369.57,262.148 3370.57,261.315 3371.5,260.5 Z"/></g>
<g><path style="opacity:0.93" fill="#313131" d="M 86.5,349.5 C 88.1998,350.016 89.5331,351.016 90.5,352.5C 82.0779,368.344 73.9112,384.344 66,400.5C 64.3905,399.853 62.8905,399.02 61.5,398C 69.7187,381.728 78.052,365.562 86.5,349.5 Z"/></g>
<g><path style="opacity:0.954" fill="#313131" d="M 1283.5,349.5 C 1292.84,364.846 1301.18,380.846 1308.5,397.5C 1308.17,399.167 1307.17,400.167 1305.5,400.5C 1297.17,384.5 1288.83,368.5 1280.5,352.5C 1281.34,351.265 1282.34,350.265 1283.5,349.5 Z"/></g>
<g><path style="opacity:0.93" fill="#313131" d="M 2234.5,349.5 C 2236.2,350.016 2237.53,351.016 2238.5,352.5C 2230.08,368.344 2221.91,384.344 2214,400.5C 2212.39,399.853 2210.89,399.02 2209.5,398C 2217.72,381.728 2226.05,365.562 2234.5,349.5 Z"/></g>
<g><path style="opacity:0.954" fill="#313131" d="M 3431.5,349.5 C 3440.84,364.846 3449.18,380.846 3456.5,397.5C 3456.17,399.167 3455.17,400.167 3453.5,400.5C 3445.17,384.5 3436.83,368.5 3428.5,352.5C 3429.34,351.265 3430.34,350.265 3431.5,349.5 Z"/></g>
<g><path style="opacity:0.921" fill="#313131" d="M 1165.5,350.5 C 1167.68,350.284 1169.35,351.117 1170.5,353C 1161.59,367.982 1153.59,383.482 1146.5,399.5C 1144.64,400.666 1142.97,400.333 1141.5,398.5C 1149,382.168 1157,366.168 1165.5,350.5 Z"/></g>
<g><path style="opacity:0.905" fill="#313131" d="M 2358.5,350.5 C 2360.59,350.561 2362.09,351.561 2363,353.5C 2371.03,368.221 2378.53,383.221 2385.5,398.5C 2384.03,400.333 2382.36,400.666 2380.5,399.5C 2373.41,383.482 2365.41,367.982 2356.5,353C 2357.38,352.292 2358.05,351.458 2358.5,350.5 Z"/></g>
<g><path style="opacity:0.907" fill="#313131" d="M 41.5,447.5 C 44.6461,447.794 45.8128,449.461 45,452.5C 39.3992,467.636 34.3992,482.969 30,498.5C 28.3268,500.917 26.4935,500.917 24.5,498.5C 29.5759,481.272 35.2425,464.272 41.5,447.5 Z"/></g>
<g><path style="opacity:0.904" fill="#313131" d="M 1121.5,447.5 C 1123.2,448.016 1124.53,449.016 1125.5,450.5C 1119.72,466.293 1114.55,482.293 1110,498.5C 1108.16,501.081 1106.33,501.081 1104.5,498.5C 1109.58,481.272 1115.24,464.272 1121.5,447.5 Z"/></g>
<g><path style="opacity:0.904" fill="#313131" d="M 1327.5,447.5 C 1328.5,447.414 1329.33,447.748 1330,448.5C 1336,465.005 1341.5,481.672 1346.5,498.5C 1344.51,500.917 1342.67,500.917 1341,498.5C 1336.33,482.334 1331.17,466.334 1325.5,450.5C 1325.94,449.261 1326.61,448.261 1327.5,447.5 Z"/></g>
<g><path style="opacity:0.907" fill="#313131" d="M 2189.5,447.5 C 2192.65,447.794 2193.81,449.461 2193,452.5C 2187.4,467.636 2182.4,482.969 2178,498.5C 2176.33,500.917 2174.49,500.917 2172.5,498.5C 2177.58,481.272 2183.24,464.272 2189.5,447.5 Z"/></g>
<g><path style="opacity:0.908" fill="#313131" d="M 2404.5,447.5 C 2405.79,448.058 2406.62,449.058 2407,450.5C 2412.88,466.973 2418.05,483.639 2422.5,500.5C 2420.23,500.859 2418.4,500.192 2417,498.5C 2412.34,482.34 2407.17,466.34 2401.5,450.5C 2402.34,449.265 2403.34,448.265 2404.5,447.5 Z"/></g>
<g><path style="opacity:0.904" fill="#313131" d="M 3475.5,447.5 C 3476.5,447.414 3477.33,447.748 3478,448.5C 3484,465.005 3489.5,481.672 3494.5,498.5C 3492.51,500.917 3490.67,500.917 3489,498.5C 3484.33,482.334 3479.17,466.334 3473.5,450.5C 3473.94,449.261 3474.61,448.261 3475.5,447.5 Z"/></g>
<g><path style="opacity:0.999" fill="#000000" d="M 154.5,523.5 C 336.167,523.333 517.834,523.5 699.5,524C 732.537,530.369 754.371,549.535 765,581.5C 765.794,584.471 766.461,587.471 767,590.5C 767.667,628.167 767.667,665.833 767,703.5C 762.005,732.985 745.838,753.818 718.5,766C 712.668,768.277 706.668,769.944 700.5,771C 518.833,771.667 337.167,771.667 155.5,771C 122.463,764.631 100.629,745.465 90,713.5C 89.2057,710.529 88.539,707.529 88,704.5C 87.3333,666.833 87.3333,629.167 88,591.5C 92.9951,562.015 109.162,541.182 136.5,529C 142.531,526.832 148.531,524.999 154.5,523.5 Z"/></g>
<g><path style="opacity:0.999" fill="#8992b2" d="M 1498.5,523.5 C 1662.83,523.333 1827.17,523.5 1991.5,524C 2026.15,530.977 2048.31,551.477 2058,585.5C 2059.64,624.795 2059.97,664.128 2059,703.5C 2054,732.985 2037.84,753.818 2010.5,766C 2004.67,768.277 1998.67,769.944 1992.5,771C 1828.17,771.667 1663.83,771.667 1499.5,771C 1466.46,764.631 1444.63,745.465 1434,713.5C 1433.21,710.529 1432.54,707.529 1432,704.5C 1431.33,666.833 1431.33,629.167 1432,591.5C 1437,562.015 1453.16,541.182 1480.5,529C 1486.53,526.832 1492.53,524.999 1498.5,523.5 Z"/></g>
<g><path style="opacity:1" fill="#b68ee9" d="M 2610.5,523.5 C 2736.17,523.333 2861.83,523.5 2987.5,524C 3022.15,530.977 3044.31,551.477 3054,585.5C 3055.64,624.795 3055.97,664.128 3055,703.5C 3050,732.985 3033.84,753.818 3006.5,766C 3000.67,768.277 2994.67,769.944 2988.5,771C 2862.83,771.667 2737.17,771.667 2611.5,771C 2578.46,764.631 2556.63,745.465 2546,713.5C 2545.21,710.529 2544.54,707.529 2544,704.5C 2543.33,666.833 2543.33,629.167 2544,591.5C 2549,562.015 2565.16,541.182 2592.5,529C 2598.53,526.832 2604.53,524.999 2610.5,523.5 Z"/></g>
<g><path style="opacity:0.967" fill="#2e2c2c" d="M 3182.5,523.5 C 3228.17,523.333 3273.83,523.5 3319.5,524C 3348.98,528.995 3369.82,545.162 3382,572.5C 3384.28,578.332 3385.94,584.332 3387,590.5C 3387.67,628.167 3387.67,665.833 3387,703.5C 3382,732.985 3365.84,753.818 3338.5,766C 3332.67,768.277 3326.67,769.944 3320.5,771C 3274.83,771.667 3229.17,771.667 3183.5,771C 3154.02,766.005 3133.18,749.838 3121,722.5C 3118.72,716.668 3117.06,710.668 3116,704.5C 3115.04,664.8 3115.37,625.134 3117,585.5C 3126.74,551.919 3148.58,531.252 3182.5,523.5 Z"/></g>
<g><path style="opacity:1" fill="#fefefe" d="M 3184.5,527.5 C 3228.83,527.333 3273.17,527.5 3317.5,528C 3353.55,535.051 3375.38,556.551 3383,592.5C 3383.67,628.833 3383.67,665.167 3383,701.5C 3375.7,738.463 3353.54,760.297 3316.5,767C 3272.83,767.667 3229.17,767.667 3185.5,767C 3148.57,759.734 3126.73,737.568 3120,700.5C 3119.04,662.471 3119.38,624.471 3121,586.5C 3130.51,554.148 3151.68,534.481 3184.5,527.5 Z"/></g>
<g><path style="opacity:0.89" fill="#313131" d="M 12.5,551.5 C 13.8333,551.5 15.1667,551.5 16.5,551.5C 13.6164,569.468 10.9497,587.468 8.5,605.5C 6.83333,605.5 5.16667,605.5 3.5,605.5C 5.64026,587.325 8.64026,569.325 12.5,551.5 Z"/></g>
<g><path style="opacity:0.893" fill="#313131" d="M 1091.5,551.5 C 1094.59,550.83 1096.26,551.997 1096.5,555C 1093.24,571.752 1090.57,588.585 1088.5,605.5C 1086.83,605.5 1085.17,605.5 1083.5,605.5C 1085.95,587.468 1088.62,569.468 1091.5,551.5 Z"/></g>
<g><path style="opacity:0.893" fill="#313131" d="M 1354.5,551.5 C 1356.17,551.5 1357.83,551.5 1359.5,551.5C 1362.38,569.468 1365.05,587.468 1367.5,605.5C 1365.83,605.5 1364.17,605.5 1362.5,605.5C 1360.05,587.468 1357.38,569.468 1354.5,551.5 Z"/></g>
<g><path style="opacity:0.89" fill="#313131" d="M 2160.5,551.5 C 2161.83,551.5 2163.17,551.5 2164.5,551.5C 2161.62,569.468 2158.95,587.468 2156.5,605.5C 2154.83,605.5 2153.17,605.5 2151.5,605.5C 2153.64,587.325 2156.64,569.325 2160.5,551.5 Z"/></g>
<g><path style="opacity:0.899" fill="#313131" d="M 2430.5,551.5 C 2432.17,551.5 2433.83,551.5 2435.5,551.5C 2438.38,569.471 2441.05,587.471 2443.5,605.5C 2441.83,605.5 2440.17,605.5 2438.5,605.5C 2436.05,587.468 2433.38,569.468 2430.5,551.5 Z"/></g>
<g><path style="opacity:0.893" fill="#313131" d="M 3502.5,551.5 C 3504.17,551.5 3505.83,551.5 3507.5,551.5C 3510.38,569.468 3513.05,587.468 3515.5,605.5C 3513.83,605.5 3512.17,605.5 3510.5,605.5C 3508.05,587.468 3505.38,569.468 3502.5,551.5 Z"/></g>
<g><path style="opacity:1" fill="#f1f1f1" d="M 484.5,663.5 C 484.5,655.833 484.5,648.167 484.5,640.5C 483.167,640.5 481.833,640.5 480.5,640.5C 479.596,639.791 479.263,638.791 479.5,637.5C 481.167,637.5 482.833,637.5 484.5,637.5C 483.664,629.171 487.33,626.005 495.5,628C 493.911,629.745 491.911,630.912 489.5,631.5C 488.652,633.409 488.318,635.409 488.5,637.5C 490.5,637.5 492.5,637.5 494.5,637.5C 494.5,638.5 494.5,639.5 494.5,640.5C 492.5,640.5 490.5,640.5 488.5,640.5C 488.5,648.167 488.5,655.833 488.5,663.5C 487.167,663.5 485.833,663.5 484.5,663.5 Z"/></g>
<g><path style="opacity:1" fill="#f8f9fa" d="M 1691.5,627.5 C 1694.91,627.384 1696.24,629.05 1695.5,632.5C 1693.83,632.5 1692.17,632.5 1690.5,632.5C 1690.37,630.708 1690.7,629.042 1691.5,627.5 Z"/></g>
<g><path style="opacity:1" fill="#f8f9fa" d="M 1950.5,627.5 C 1953.91,627.384 1955.24,629.05 1954.5,632.5C 1952.83,632.5 1951.17,632.5 1949.5,632.5C 1949.37,630.708 1949.7,629.042 1950.5,627.5 Z"/></g>
<g><path style="opacity:1" fill="#f9f5fd" d="M 2913.5,627.5 C 2917.16,627.35 2918.16,628.85 2916.5,632C 2911.5,632.787 2910.5,631.287 2913.5,627.5 Z"/></g>
<g><path style="opacity:1" fill="#1e1e1e" d="M 3283.5,627.5 C 3286.91,627.384 3288.24,629.05 3287.5,632.5C 3283.07,633.078 3281.73,631.411 3283.5,627.5 Z"/></g>
<g><path style="opacity:1" fill="#eeeeee" d="M 176.5,628.5 C 182.646,627.547 188.146,628.88 193,632.5C 194.411,634.65 195.245,636.984 195.5,639.5C 194.022,639.762 192.689,639.429 191.5,638.5C 188.5,632.857 183.833,631.024 177.5,633C 172.558,635.882 170.224,640.215 170.5,646C 170.768,656.603 176.101,660.936 186.5,659C 188.731,657.723 190.398,655.889 191.5,653.5C 192.689,652.571 194.022,652.238 195.5,652.5C 195.181,658.309 192.181,661.809 186.5,663C 176.976,665.154 170.476,661.654 167,652.5C 164.424,642.014 167.591,634.014 176.5,628.5 Z"/></g>
<g><path style="opacity:1" fill="#f7f8fa" d="M 1520.5,628.5 C 1530.49,626.316 1536.82,629.983 1539.5,639.5C 1538.02,639.762 1536.69,639.429 1535.5,638.5C 1532.5,632.857 1527.83,631.024 1521.5,633C 1516.56,635.882 1514.22,640.215 1514.5,646C 1514.77,656.603 1520.1,660.936 1530.5,659C 1533.03,657.967 1534.7,656.133 1535.5,653.5C 1536.69,652.571 1538.02,652.238 1539.5,652.5C 1539.18,658.309 1536.18,661.809 1530.5,663C 1520.98,665.154 1514.48,661.654 1511,652.5C 1508.42,642.014 1511.59,634.014 1520.5,628.5 Z"/></g>
<g><path style="opacity:1" fill="#faf8fd" d="M 2632.5,628.5 C 2642.49,626.316 2648.82,629.983 2651.5,639.5C 2650.02,639.762 2648.69,639.429 2647.5,638.5C 2644.5,632.857 2639.83,631.024 2633.5,633C 2628.56,635.882 2626.22,640.215 2626.5,646C 2626.77,656.603 2632.1,660.936 2642.5,659C 2645.03,657.967 2646.7,656.133 2647.5,653.5C 2648.69,652.571 2650.02,652.238 2651.5,652.5C 2651.18,658.309 2648.18,661.809 2642.5,663C 2632.98,665.154 2626.48,661.654 2623,652.5C 2620.42,642.014 2623.59,634.014 2632.5,628.5 Z"/></g>
<g><path style="opacity:1" fill="#f1f1f1" d="M 230.5,628.5 C 231.833,628.5 233.167,628.5 234.5,628.5C 234.5,640.167 234.5,651.833 234.5,663.5C 233.167,663.5 231.833,663.5 230.5,663.5C 230.5,651.833 230.5,640.167 230.5,628.5 Z"/></g>
<g><path style="opacity:1" fill="#eaeaea" d="M 242.5,628.5 C 243.833,628.5 245.167,628.5 246.5,628.5C 246.5,640.167 246.5,651.833 246.5,663.5C 245.167,663.5 243.833,663.5 242.5,663.5C 242.5,651.833 242.5,640.167 242.5,628.5 Z"/></g>
<g><path style="opacity:1" fill="#e7e7e7" d="M 438.5,628.5 C 439.833,628.5 441.167,628.5 442.5,628.5C 442.96,633.244 441.46,637.244 438,640.5C 437.13,639.892 436.63,639.059 436.5,638C 437.872,634.974 438.538,631.807 438.5,628.5 Z"/></g>
<g><path style="opacity:1" fill="#f2f2f2" d="M 572.5,628.5 C 573.833,628.5 575.167,628.5 576.5,628.5C 576.5,640.167 576.5,651.833 576.5,663.5C 575.167,663.5 573.833,663.5 572.5,663.5C 572.657,662.127 572.49,660.793 572,659.5C 564.892,666.684 558.892,665.684 554,656.5C 551.943,649.007 553.777,642.84 559.5,638C 562.5,637.333 565.5,637.333 568.5,638C 570.333,638.5 571.5,639.667 572,641.5C 572.499,637.179 572.666,632.846 572.5,628.5 Z"/></g>
<g><path style="opacity:1" fill="#dddddd" d="M 584.5,628.5 C 586.167,628.5 587.833,628.5 589.5,628.5C 589.334,632.514 589.501,636.514 590,640.5C 600.831,634.669 606.998,638.002 608.5,650.5C 607.828,661.032 602.495,665.198 592.5,663C 589.7,658.562 588.367,658.728 588.5,663.5C 587.167,663.5 585.833,663.5 584.5,663.5C 584.5,651.833 584.5,640.167 584.5,628.5 Z"/></g>
<g><path style="opacity:1" fill="#ececec" d="M 668.5,628.5 C 669.833,628.5 671.167,628.5 672.5,628.5C 672.334,635.175 672.5,641.842 673,648.5C 676.5,645 680,641.5 683.5,638C 685.167,637.333 686.833,637.333 688.5,638C 684.984,641.349 681.651,644.849 678.5,648.5C 681.802,653.603 685.469,658.436 689.5,663C 687.833,663.667 686.167,663.667 684.5,663C 681.333,659.167 678.167,655.333 675,651.5C 674.586,651.957 674.086,652.291 673.5,652.5C 672.511,656.107 672.177,659.774 672.5,663.5C 671.167,663.5 669.833,663.5 668.5,663.5C 668.5,651.833 668.5,640.167 668.5,628.5 Z"/></g>
<g><path style="opacity:1" fill="#f5f6f8" d="M 1886.5,628.5 C 1887.83,628.5 1889.17,628.5 1890.5,628.5C 1890.5,640.167 1890.5,651.833 1890.5,663.5C 1889.17,663.5 1887.83,663.5 1886.5,663.5C 1886.5,651.833 1886.5,640.167 1886.5,628.5 Z"/></g>
<g><path style="opacity:1" fill="#fcfafe" d="M 2847.5,628.5 C 2848.83,628.5 2850.17,628.5 2851.5,628.5C 2851.5,640.167 2851.5,651.833 2851.5,663.5C 2850.17,663.5 2848.83,663.5 2847.5,663.5C 2847.65,662.448 2847.48,661.448 2847,660.5C 2835.7,666.583 2829.54,663.083 2828.5,650C 2829.3,639.859 2834.63,635.859 2844.5,638C 2845.33,638.833 2846.17,639.667 2847,640.5C 2847.5,636.514 2847.67,632.514 2847.5,628.5 Z"/></g>
<g><path style="opacity:1" fill="#232323" d="M 3195.5,628.5 C 3196.83,628.5 3198.17,628.5 3199.5,628.5C 3199.33,637.173 3199.5,645.84 3200,654.5C 3203.39,660.467 3208.23,661.967 3214.5,659C 3216.05,657.786 3217.22,656.286 3218,654.5C 3218.5,645.84 3218.67,637.173 3218.5,628.5C 3219.83,628.5 3221.17,628.5 3222.5,628.5C 3222.92,638.58 3222.42,648.58 3221,658.5C 3211.43,667.227 3203.09,666.227 3196,655.5C 3195.5,646.506 3195.33,637.506 3195.5,628.5 Z"/></g>
<g><path style="opacity:1" fill="#181818" d="M 3231.5,628.5 C 3232.83,628.5 3234.17,628.5 3235.5,628.5C 3235.5,640.167 3235.5,651.833 3235.5,663.5C 3234.17,663.5 3232.83,663.5 3231.5,663.5C 3231.5,651.833 3231.5,640.167 3231.5,628.5 Z"/></g>
<g><path style="opacity:1" fill="#1e1e1e" d="M 3257.5,628.5 C 3258.5,628.5 3259.5,628.5 3260.5,628.5C 3260.17,635.2 3260.5,641.866 3261.5,648.5C 3265.32,645.182 3268.98,641.682 3272.5,638C 3274.17,637.333 3275.83,637.333 3277.5,638C 3273.78,641.379 3270.45,645.046 3267.5,649C 3270.77,653.943 3274.44,658.609 3278.5,663C 3276.83,663.667 3275.17,663.667 3273.5,663C 3270.32,658.994 3266.99,655.16 3263.5,651.5C 3262.52,651.977 3261.69,652.643 3261,653.5C 3260.5,656.817 3260.33,660.15 3260.5,663.5C 3259.5,663.5 3258.5,663.5 3257.5,663.5C 3257.5,651.833 3257.5,640.167 3257.5,628.5 Z"/></g>
<g><path style="opacity:1" fill="#858585" d="M 314.5,637.5 C 313.539,635.735 313.205,633.735 313.5,631.5C 312.5,631.5 311.5,631.5 310.5,631.5C 310.795,633.735 310.461,635.735 309.5,637.5C 309.5,635.167 309.5,632.833 309.5,630.5C 311.167,630.5 312.833,630.5 314.5,630.5C 314.5,632.833 314.5,635.167 314.5,637.5 Z"/></g>
<g><path style="opacity:1" fill="#efefef" d="M 314.5,637.5 C 316.167,637.5 317.833,637.5 319.5,637.5C 319.5,638.5 319.5,639.5 319.5,640.5C 317.833,640.5 316.167,640.5 314.5,640.5C 314.334,646.509 314.501,652.509 315,658.5C 322.806,662.32 322.306,663.82 313.5,663C 311.944,662.28 310.944,661.113 310.5,659.5C 310.5,653.167 310.5,646.833 310.5,640.5C 309.167,640.5 307.833,640.5 306.5,640.5C 306.5,639.5 306.5,638.5 306.5,637.5C 307.5,637.5 308.5,637.5 309.5,637.5C 310.461,635.735 310.795,633.735 310.5,631.5C 311.5,631.5 312.5,631.5 313.5,631.5C 313.205,633.735 313.539,635.735 314.5,637.5 Z"/></g>
<g><path style="opacity:1" fill="#fcfcfd" d="M 1675.5,630.5 C 1676.83,630.5 1678.17,630.5 1679.5,630.5C 1679.5,632.833 1679.5,635.167 1679.5,637.5C 1681.17,637.5 1682.83,637.5 1684.5,637.5C 1684.5,638.5 1684.5,639.5 1684.5,640.5C 1682.83,640.5 1681.17,640.5 1679.5,640.5C 1679.33,646.509 1679.5,652.509 1680,658.5C 1687.78,662.368 1687.28,663.868 1678.5,663C 1677.3,662.097 1676.47,660.931 1676,659.5C 1675.5,653.175 1675.33,646.842 1675.5,640.5C 1674.17,640.5 1672.83,640.5 1671.5,640.5C 1671.5,639.5 1671.5,638.5 1671.5,637.5C 1672.83,637.5 1674.17,637.5 1675.5,637.5C 1675.5,635.167 1675.5,632.833 1675.5,630.5 Z"/></g>
<g><path style="opacity:1" fill="#f8f9fa" d="M 1704.5,631.5 C 1705.83,631.5 1707.17,631.5 1708.5,631.5C 1708.5,633.5 1708.5,635.5 1708.5,637.5C 1710.17,637.5 1711.83,637.5 1713.5,637.5C 1713.5,638.5 1713.5,639.5 1713.5,640.5C 1711.83,640.5 1710.17,640.5 1708.5,640.5C 1708.33,646.509 1708.5,652.509 1709,658.5C 1710.4,659.227 1711.9,659.727 1713.5,660C 1714.34,661.011 1714.67,662.178 1714.5,663.5C 1710.71,664.186 1707.55,663.186 1705,660.5C 1704.5,653.842 1704.33,647.175 1704.5,640.5C 1703.17,640.5 1701.83,640.5 1700.5,640.5C 1700.5,639.5 1700.5,638.5 1700.5,637.5C 1701.83,637.5 1703.17,637.5 1704.5,637.5C 1704.5,635.5 1704.5,633.5 1704.5,631.5 Z"/></g>
<g><path style="opacity:1" fill="#fcfafe" d="M 2800.5,631.5 C 2801.83,631.5 2803.17,631.5 2804.5,631.5C 2804.5,633.5 2804.5,635.5 2804.5,637.5C 2806.5,637.5 2808.5,637.5 2810.5,637.5C 2810.5,638.5 2810.5,639.5 2810.5,640.5C 2808.5,640.5 2806.5,640.5 2804.5,640.5C 2804.33,646.509 2804.5,652.509 2805,658.5C 2806.7,659.406 2808.53,659.739 2810.5,659.5C 2810.5,660.833 2810.5,662.167 2810.5,663.5C 2806.32,664.296 2803.15,662.963 2801,659.5C 2800.5,653.175 2800.33,646.842 2800.5,640.5C 2799.17,640.5 2797.83,640.5 2796.5,640.5C 2796.5,639.5 2796.5,638.5 2796.5,637.5C 2797.83,637.5 2799.17,637.5 2800.5,637.5C 2800.5,635.5 2800.5,633.5 2800.5,631.5 Z"/></g>
<g><path style="opacity:1" fill="#242424" d="M 3296.5,630.5 C 3297.83,630.5 3299.17,630.5 3300.5,630.5C 3300.5,632.833 3300.5,635.167 3300.5,637.5C 3302.17,637.5 3303.83,637.5 3305.5,637.5C 3305.5,638.5 3305.5,639.5 3305.5,640.5C 3303.83,640.5 3302.17,640.5 3300.5,640.5C 3300.33,646.509 3300.5,652.509 3301,658.5C 3302.4,659.227 3303.9,659.727 3305.5,660C 3306.34,661.011 3306.67,662.178 3306.5,663.5C 3302.71,664.186 3299.55,663.186 3297,660.5C 3296.5,653.842 3296.33,647.175 3296.5,640.5C 3295.17,640.5 3293.83,640.5 3292.5,640.5C 3292.5,639.5 3292.5,638.5 3292.5,637.5C 3293.83,637.5 3295.17,637.5 3296.5,637.5C 3296.5,635.167 3296.5,632.833 3296.5,630.5 Z"/></g>
<g><path style="opacity:1" fill="#e8e8e8" d="M 207.5,637.5 C 220.764,636.267 226.264,642.267 224,655.5C 220.02,664.079 213.853,666.246 205.5,662C 198.393,653.054 199.06,644.887 207.5,637.5 Z"/></g>
<g><path style="opacity:1" fill="#eeeeee" d="M 261.5,636.5 C 271.384,636.715 276.051,641.715 275.5,651.5C 269.167,651.5 262.833,651.5 256.5,651.5C 256.655,658.159 259.989,660.993 266.5,660C 268.867,659.626 270.7,658.459 272,656.5C 273.28,656.613 274.113,657.28 274.5,658.5C 267.797,666.479 260.963,666.479 254,658.5C 249.995,648.678 252.495,641.345 261.5,636.5 Z"/></g>
<g><path style="opacity:1" fill="#e8e8e8" d="M 289.5,636.5 C 296.214,636.337 300.547,639.337 302.5,645.5C 301.022,645.762 299.689,645.429 298.5,644.5C 294.717,639.645 290.55,639.312 286,643.5C 284.068,648.139 284.068,652.806 286,657.5C 290.8,661.804 294.966,661.304 298.5,656C 299.793,655.51 301.127,655.343 302.5,655.5C 299.944,663.609 294.61,666.109 286.5,663C 280.882,658.071 279.049,651.905 281,644.5C 283.098,640.897 285.932,638.23 289.5,636.5 Z"/></g>
<g><path style="opacity:1" fill="#f0f0f0" d="M 339.5,637.5 C 340.833,637.5 342.167,637.5 343.5,637.5C 343.334,643.842 343.5,650.175 344,656.5C 344.758,658.91 346.425,659.91 349,659.5C 351.667,659.833 353.667,658.833 355,656.5C 355.5,650.175 355.666,643.842 355.5,637.5C 356.833,637.5 358.167,637.5 359.5,637.5C 359.5,646.167 359.5,654.833 359.5,663.5C 358.167,663.5 356.833,663.5 355.5,663.5C 355.649,662.448 355.483,661.448 355,660.5C 350.263,664.432 345.596,664.432 341,660.5C 339.568,652.946 339.068,645.279 339.5,637.5 Z"/></g>
<g><path style="opacity:1" fill="#e7e7e7" d="M 373.5,636.5 C 378.822,636.041 382.822,638.041 385.5,642.5C 384.833,642.833 384.167,643.167 383.5,643.5C 381.369,642.037 379.035,641.037 376.5,640.5C 371.302,640.798 369.969,642.965 372.5,647C 376.298,647.96 379.965,649.294 383.5,651C 387.5,654.667 387.5,658.333 383.5,662C 378.468,665.232 373.468,665.232 368.5,662C 366.845,660.556 366.178,658.722 366.5,656.5C 369.531,657.999 372.698,659.333 376,660.5C 381.583,659.98 382.75,657.48 379.5,653C 373.944,653.274 369.777,651.108 367,646.5C 366.365,644.365 366.699,642.365 368,640.5C 369.812,639.023 371.645,637.69 373.5,636.5 Z"/></g>
<g><path style="opacity:1" fill="#eaeaea" d="M 397.5,637.5 C 408.621,635.625 414.288,640.292 414.5,651.5C 408.167,651.5 401.833,651.5 395.5,651.5C 395.848,658.685 399.515,661.519 406.5,660C 408.216,656.622 410.549,655.956 413.5,658C 407.911,665.56 401.411,666.393 394,660.5C 388.521,651.676 389.688,644.009 397.5,637.5 Z"/></g>
<g><path style="opacity:1" fill="#e7e7e7" d="M 428.5,636.5 C 430.167,636.5 431.833,636.5 433.5,636.5C 433.5,637.833 433.5,639.167 433.5,640.5C 430.138,640.07 427.305,641.07 425,643.5C 424.5,650.158 424.334,656.825 424.5,663.5C 423.167,663.5 421.833,663.5 420.5,663.5C 420.5,654.833 420.5,646.167 420.5,637.5C 422.451,637.227 423.951,637.893 425,639.5C 426.145,638.364 427.312,637.364 428.5,636.5 Z"/></g>
<g><path style="opacity:1" fill="#eaeaea" d="M 447.5,637.5 C 451.182,637.335 454.848,637.501 458.5,638C 460.019,639.351 461.352,640.851 462.5,642.5C 461.833,642.833 461.167,643.167 460.5,643.5C 458.192,642.099 455.692,641.099 453,640.5C 447.654,640.793 446.487,642.96 449.5,647C 454.193,647.71 458.36,649.543 462,652.5C 462.782,661.397 458.616,665.23 449.5,664C 445.741,663.256 443.908,661.089 444,657.5C 446.291,656.689 448.125,657.523 449.5,660C 452.303,660.755 454.97,660.422 457.5,659C 458.833,657.333 458.833,655.667 457.5,654C 452.215,653.355 447.715,651.189 444,647.5C 443.333,645.5 443.333,643.5 444,641.5C 445.376,640.295 446.542,638.962 447.5,637.5 Z"/></g>
<g><path style="opacity:1" fill="#f0f0f0" d="M 504.5,637.5 C 515.786,635.456 521.119,640.123 520.5,651.5C 514.132,651.17 507.798,651.504 501.5,652.5C 502.475,658.986 506.142,661.486 512.5,660C 514.306,659.19 515.806,658.024 517,656.5C 520.101,657.709 520.268,659.375 517.5,661.5C 505.768,667.247 499.102,663.58 497.5,650.5C 497.504,644.819 499.838,640.486 504.5,637.5 Z"/></g>
<g><path style="opacity:1" fill="#f1f1f1" d="M 531.5,637.5 C 542.964,635.376 548.631,640.042 548.5,651.5C 542.167,651.5 535.833,651.5 529.5,651.5C 529.802,658.632 533.469,661.465 540.5,660C 542.306,659.19 543.806,658.024 545,656.5C 546.28,656.613 547.113,657.28 547.5,658.5C 541.436,666.034 534.936,666.367 528,659.5C 523.854,651.263 525.021,643.93 531.5,637.5 Z"/></g>
<g><path style="opacity:1" fill="#eaeaea" d="M 618.5,637.5 C 622.182,637.335 625.848,637.501 629.5,638C 630.416,638.374 631.25,638.874 632,639.5C 633.435,647.389 633.935,655.389 633.5,663.5C 631.549,663.773 630.049,663.107 629,661.5C 623.644,665.771 618.644,665.437 614,660.5C 612.773,656.409 613.606,652.909 616.5,650C 620.663,648.334 624.997,647.501 629.5,647.5C 629.82,641.003 626.82,638.836 620.5,641C 619.44,642.298 618.274,643.465 617,644.5C 614.812,643.941 614.146,642.607 615,640.5C 616.145,639.364 617.312,638.364 618.5,637.5 Z"/></g>
<g><path style="opacity:1" fill="#e9e9e9" d="M 646.5,637.5 C 653.797,635.726 659.13,638.06 662.5,644.5C 659.554,646.092 657.554,645.258 656.5,642C 648.576,639.136 644.576,641.97 644.5,650.5C 644.576,659.03 648.576,661.864 656.5,659C 657.337,657.989 657.67,656.822 657.5,655.5C 659.288,655.215 660.955,655.548 662.5,656.5C 657.535,665.3 651.035,666.633 643,660.5C 638.705,651.794 639.872,644.128 646.5,637.5 Z"/></g>
<g><path style="opacity:1" fill="#f7f8fa" d="M 1551.5,637.5 C 1564.76,636.267 1570.26,642.267 1568,655.5C 1564.05,663.504 1557.88,665.671 1549.5,662C 1542.39,653.054 1543.06,644.887 1551.5,637.5 Z"/></g>
<g><path style="opacity:1" fill="#f4f5f8" d="M 1574.5,637.5 C 1575.83,637.5 1577.17,637.5 1578.5,637.5C 1578.44,641.133 1579.44,641.3 1581.5,638C 1584.5,637.333 1587.5,637.333 1590.5,638C 1591.7,638.903 1592.53,640.069 1593,641.5C 1596.31,637.673 1600.47,636.506 1605.5,638C 1607.05,639.214 1608.22,640.714 1609,642.5C 1609.5,649.492 1609.67,656.492 1609.5,663.5C 1608.17,663.5 1606.83,663.5 1605.5,663.5C 1605.67,656.825 1605.5,650.158 1605,643.5C 1601.95,639.99 1598.62,639.657 1595,642.5C 1594.5,649.492 1594.33,656.492 1594.5,663.5C 1592.83,663.5 1591.17,663.5 1589.5,663.5C 1589.67,656.492 1589.5,649.492 1589,642.5C 1584.95,639.512 1581.62,640.178 1579,644.5C 1578.5,650.825 1578.33,657.158 1578.5,663.5C 1577.17,663.5 1575.83,663.5 1574.5,663.5C 1574.5,654.833 1574.5,646.167 1574.5,637.5 Z"/></g>
<g><path style="opacity:1" fill="#fafbfc" d="M 1616.5,637.5 C 1617.83,637.5 1619.17,637.5 1620.5,637.5C 1620.34,638.873 1620.51,640.207 1621,641.5C 1621.5,639.667 1622.67,638.5 1624.5,638C 1634.38,636.536 1639.38,640.869 1639.5,651C 1639.02,661.256 1633.69,665.256 1623.5,663C 1622.3,662.097 1621.47,660.931 1621,659.5C 1620.5,664.155 1620.33,668.821 1620.5,673.5C 1619.17,673.5 1617.83,673.5 1616.5,673.5C 1616.5,661.5 1616.5,649.5 1616.5,637.5 Z"/></g>
<g><path style="opacity:1" fill="#fafafb" d="M 1651.5,637.5 C 1662.46,635.796 1667.79,640.463 1667.5,651.5C 1661.17,651.5 1654.83,651.5 1648.5,651.5C 1648.8,658.632 1652.47,661.465 1659.5,660C 1661.31,659.19 1662.81,658.024 1664,656.5C 1665.28,656.613 1666.11,657.28 1666.5,658.5C 1664.16,662.419 1660.66,664.086 1656,663.5C 1650.43,663.616 1646.77,660.95 1645,655.5C 1642.95,647.793 1645.12,641.793 1651.5,637.5 Z"/></g>
<g><path style="opacity:1" fill="#f6f6f9" d="M 1691.5,637.5 C 1692.83,637.5 1694.17,637.5 1695.5,637.5C 1695.5,646.167 1695.5,654.833 1695.5,663.5C 1694.17,663.5 1692.83,663.5 1691.5,663.5C 1691.5,654.833 1691.5,646.167 1691.5,637.5 Z"/></g>
<g><path style="opacity:1" fill="#f5f6f8" d="M 1724.5,637.5 C 1737.25,635.422 1743.09,640.755 1742,653.5C 1739.06,663.477 1732.89,666.31 1723.5,662C 1716.57,653.522 1716.91,645.356 1724.5,637.5 Z"/></g>
<g><path style="opacity:1" fill="#f8f8fa" d="M 1756.5,636.5 C 1758.17,636.5 1759.83,636.5 1761.5,636.5C 1761.5,637.833 1761.5,639.167 1761.5,640.5C 1758.14,640.07 1755.3,641.07 1753,643.5C 1752.5,650.158 1752.33,656.825 1752.5,663.5C 1751.17,663.5 1749.83,663.5 1748.5,663.5C 1748.5,654.833 1748.5,646.167 1748.5,637.5C 1750.45,637.227 1751.95,637.893 1753,639.5C 1754.52,638.837 1755.69,637.837 1756.5,636.5 Z"/></g>
<g><path style="opacity:1" fill="#f5f6f8" d="M 1770.5,637.5 C 1773.85,637.335 1777.18,637.502 1780.5,638C 1782,638.833 1783.17,640 1784,641.5C 1782.55,644.076 1780.71,643.909 1778.5,641C 1774.62,639.795 1771.62,640.795 1769.5,644C 1769.76,645.261 1770.43,646.261 1771.5,647C 1775.3,647.96 1778.97,649.294 1782.5,651C 1786.5,654.667 1786.5,658.333 1782.5,662C 1777.47,665.232 1772.47,665.232 1767.5,662C 1766.14,660.416 1765.47,658.582 1765.5,656.5C 1768.53,657.999 1771.7,659.333 1775,660.5C 1779.75,660.437 1781.25,658.27 1779.5,654C 1775.88,652.513 1772.22,651.18 1768.5,650C 1764.28,645.059 1764.94,640.892 1770.5,637.5 Z"/></g>
<g><path style="opacity:1" fill="#f7f8fa" d="M 1808.5,637.5 C 1812.18,637.335 1815.85,637.501 1819.5,638C 1820.93,638.465 1822.1,639.299 1823,640.5C 1824.43,648.054 1824.93,655.721 1824.5,663.5C 1823.17,663.5 1821.83,663.5 1820.5,663.5C 1820.65,662.448 1820.48,661.448 1820,660.5C 1813.82,666.246 1808.48,665.579 1804,658.5C 1802.88,655.044 1803.71,652.21 1806.5,650C 1810.44,649.007 1814.44,648.34 1818.5,648C 1821.21,643.792 1819.87,641.292 1814.5,640.5C 1811.71,640.946 1809.37,642.279 1807.5,644.5C 1806.33,644.081 1805.33,643.415 1804.5,642.5C 1805.86,640.814 1807.19,639.148 1808.5,637.5 Z"/></g>
<g><path style="opacity:1" fill="#f9fafb" d="M 1831.5,637.5 C 1832.83,637.5 1834.17,637.5 1835.5,637.5C 1835.35,638.552 1835.52,639.552 1836,640.5C 1841.68,636.207 1847.02,636.541 1852,641.5C 1852.5,648.826 1852.67,656.159 1852.5,663.5C 1851.17,663.5 1849.83,663.5 1848.5,663.5C 1848.67,656.825 1848.5,650.158 1848,643.5C 1843.61,639.244 1839.61,639.577 1836,644.5C 1835.5,650.825 1835.33,657.158 1835.5,663.5C 1834.17,663.5 1832.83,663.5 1831.5,663.5C 1831.5,654.833 1831.5,646.167 1831.5,637.5 Z"/></g>
<g><path style="opacity:1" fill="#f8f8fa" d="M 1864.5,637.5 C 1867.85,637.335 1871.18,637.502 1874.5,638C 1875.93,638.465 1877.1,639.299 1878,640.5C 1879.43,648.054 1879.93,655.721 1879.5,663.5C 1878.17,663.5 1876.83,663.5 1875.5,663.5C 1875.65,662.448 1875.48,661.448 1875,660.5C 1870,665.833 1865,665.833 1860,660.5C 1857.64,656.526 1858.14,653.026 1861.5,650C 1866.08,648.637 1870.75,647.803 1875.5,647.5C 1875.54,641.499 1872.54,639.332 1866.5,641C 1865.05,643.694 1863.05,644.527 1860.5,643.5C 1859.48,642.998 1859.31,642.332 1860,641.5C 1861.4,639.93 1862.9,638.596 1864.5,637.5 Z"/></g>
<g><path style="opacity:1" fill="#f7f7fa" d="M 1896.5,637.5 C 1898.14,637.286 1899.64,637.62 1901,638.5C 1903.34,644.844 1905.67,651.178 1908,657.5C 1910.33,651.167 1912.67,644.833 1915,638.5C 1916.49,637.253 1917.99,637.253 1919.5,638.5C 1915.43,649.217 1911.26,659.884 1907,670.5C 1904.7,672.93 1901.86,673.93 1898.5,673.5C 1898.5,672.167 1898.5,670.833 1898.5,669.5C 1902.68,669.65 1905.02,667.65 1905.5,663.5C 1902.89,654.683 1899.89,646.016 1896.5,637.5 Z"/></g>
<g><path style="opacity:1" fill="#f7f7f9" d="M 1931.5,636.5 C 1936.25,636.136 1940.08,637.802 1943,641.5C 1941.55,644.076 1939.71,643.909 1937.5,641C 1935.5,640.333 1933.5,640.333 1931.5,641C 1928.62,642.037 1927.95,643.871 1929.5,646.5C 1934.33,647.83 1938.83,649.83 1943,652.5C 1944.38,656.942 1943.21,660.442 1939.5,663C 1935.5,663.667 1931.5,663.667 1927.5,663C 1925.08,661.491 1924.08,659.325 1924.5,656.5C 1927.56,658.053 1930.73,659.386 1934,660.5C 1938.75,660.437 1940.25,658.27 1938.5,654C 1935.27,652.692 1931.94,651.692 1928.5,651C 1922.53,644.669 1923.53,639.836 1931.5,636.5 Z"/></g>
<g><path style="opacity:1" fill="#f6f6f9" d="M 1950.5,637.5 C 1951.83,637.5 1953.17,637.5 1954.5,637.5C 1954.5,646.167 1954.5,654.833 1954.5,663.5C 1953.17,663.5 1951.83,663.5 1950.5,663.5C 1950.5,654.833 1950.5,646.167 1950.5,637.5 Z"/></g>
<g><path style="opacity:1" fill="#f7f7f9" d="M 1965.5,637.5 C 1969.91,637.021 1974.08,637.688 1978,639.5C 1978.5,640.5 1979,641.5 1979.5,642.5C 1978.83,642.833 1978.17,643.167 1977.5,643.5C 1975.37,642.037 1973.04,641.037 1970.5,640.5C 1966.01,640.812 1964.68,642.978 1966.5,647C 1970.57,648.083 1974.57,649.416 1978.5,651C 1981.69,656.051 1980.69,660.051 1975.5,663C 1971.83,663.667 1968.17,663.667 1964.5,663C 1962.08,661.429 1960.74,659.263 1960.5,656.5C 1963.5,657.942 1966.67,659.275 1970,660.5C 1974.61,660.25 1976.45,658.083 1975.5,654C 1970.56,653.134 1966.06,651.3 1962,648.5C 1960.66,643.872 1961.83,640.205 1965.5,637.5 Z"/></g>
<g><path style="opacity:1" fill="#faf8fd" d="M 2663.5,637.5 C 2676.76,636.267 2682.26,642.267 2680,655.5C 2676.05,663.504 2669.88,665.671 2661.5,662C 2654.39,653.054 2655.06,644.887 2663.5,637.5 Z"/></g>
<g><path style="opacity:1" fill="#fbfafe" d="M 2686.5,637.5 C 2687.83,637.5 2689.17,637.5 2690.5,637.5C 2690.35,638.552 2690.52,639.552 2691,640.5C 2694.68,637.64 2698.85,636.807 2703.5,638C 2704.33,638.833 2705.17,639.667 2706,640.5C 2707.43,648.054 2707.93,655.721 2707.5,663.5C 2706.17,663.5 2704.83,663.5 2703.5,663.5C 2703.67,656.825 2703.5,650.158 2703,643.5C 2698.61,639.244 2694.61,639.577 2691,644.5C 2690.5,650.825 2690.33,657.158 2690.5,663.5C 2689.17,663.5 2687.83,663.5 2686.5,663.5C 2686.5,654.833 2686.5,646.167 2686.5,637.5 Z"/></g>
<g><path style="opacity:1" fill="#f9f6fd" d="M 2720.5,637.5 C 2724.64,637.146 2728.64,637.646 2732.5,639C 2734.45,640.734 2735.45,642.901 2735.5,645.5C 2734.02,645.762 2732.69,645.429 2731.5,644.5C 2727.42,639.199 2723.26,639.199 2719,644.5C 2716.38,650.534 2717.55,655.701 2722.5,660C 2726.53,661.337 2729.53,660.17 2731.5,656.5C 2732.69,655.571 2734.02,655.238 2735.5,655.5C 2735.46,659.09 2733.79,661.59 2730.5,663C 2717.28,664.772 2711.78,658.939 2714,645.5C 2715.3,642.039 2717.47,639.372 2720.5,637.5 Z"/></g>
<g><path style="opacity:1" fill="#fcfbfe" d="M 2746.5,637.5 C 2757.92,635.359 2763.58,640.026 2763.5,651.5C 2757.17,651.5 2750.83,651.5 2744.5,651.5C 2744.82,658.649 2748.48,661.483 2755.5,660C 2757.31,659.19 2758.81,658.024 2760,656.5C 2761.28,656.613 2762.11,657.28 2762.5,658.5C 2760.26,662.288 2756.92,663.954 2752.5,663.5C 2746.2,663.699 2742.36,660.699 2741,654.5C 2739.41,647.683 2741.25,642.017 2746.5,637.5 Z"/></g>
<g><path style="opacity:1" fill="#fcfafe" d="M 2769.5,637.5 C 2770.83,637.5 2772.17,637.5 2773.5,637.5C 2773.34,638.873 2773.51,640.207 2774,641.5C 2774.5,639.667 2775.67,638.5 2777.5,638C 2787.23,636.061 2792.23,640.061 2792.5,650C 2792.7,660.473 2787.7,664.807 2777.5,663C 2776,662.167 2774.83,661 2774,659.5C 2773.5,664.155 2773.33,668.821 2773.5,673.5C 2772.17,673.5 2770.83,673.5 2769.5,673.5C 2769.5,661.5 2769.5,649.5 2769.5,637.5 Z"/></g>
<g><path style="opacity:1" fill="#fcfbfe" d="M 2864.5,637.5 C 2875.96,635.375 2881.63,640.041 2881.5,651.5C 2875.17,651.5 2868.83,651.5 2862.5,651.5C 2862.82,658.649 2866.48,661.483 2873.5,660C 2875.31,659.19 2876.81,658.024 2878,656.5C 2879.28,656.613 2880.11,657.28 2880.5,658.5C 2878.26,662.288 2874.92,663.954 2870.5,663.5C 2864.2,663.699 2860.36,660.699 2859,654.5C 2857.41,647.683 2859.25,642.017 2864.5,637.5 Z"/></g>
<g><path style="opacity:1" fill="#faf8fd" d="M 2891.5,637.5 C 2894.85,637.335 2898.18,637.502 2901.5,638C 2904.21,638.875 2905.55,640.708 2905.5,643.5C 2902.33,642.985 2899.33,641.985 2896.5,640.5C 2892.01,640.812 2890.68,642.978 2892.5,647C 2896.85,648.003 2901.02,649.503 2905,651.5C 2907.22,655.388 2906.72,658.888 2903.5,662C 2899.29,663.534 2894.96,663.867 2890.5,663C 2888.08,661.429 2886.74,659.263 2886.5,656.5C 2889.5,657.942 2892.67,659.275 2896,660.5C 2900.61,660.25 2902.45,658.083 2901.5,654C 2897.22,652.724 2893.05,651.224 2889,649.5C 2886.52,644.713 2887.35,640.713 2891.5,637.5 Z"/></g>
<g><path style="opacity:1" fill="#fdfcfe" d="M 2912.5,637.5 C 2913.83,637.5 2915.17,637.5 2916.5,637.5C 2916.5,646.167 2916.5,654.833 2916.5,663.5C 2915.17,663.5 2913.83,663.5 2912.5,663.5C 2912.5,654.833 2912.5,646.167 2912.5,637.5 Z"/></g>
<g><path style="opacity:1" fill="#f9f6fd" d="M 2929.5,637.5 C 2932.52,637.335 2935.52,637.502 2938.5,638C 2940.56,641.3 2941.56,641.133 2941.5,637.5C 2942.83,637.5 2944.17,637.5 2945.5,637.5C 2945.67,647.839 2945.5,658.172 2945,668.5C 2942.51,672.454 2938.84,674.121 2934,673.5C 2929.7,674.169 2926.54,672.669 2924.5,669C 2924.61,667.72 2925.28,666.887 2926.5,666.5C 2931.09,671.297 2935.92,671.63 2941,667.5C 2941.67,664.833 2941.67,662.167 2941,659.5C 2933.01,665.824 2927.01,664.157 2923,654.5C 2921.31,647.241 2923.47,641.575 2929.5,637.5 Z"/></g>
<g><path style="opacity:1" fill="#f7f3fc" d="M 2953.5,637.5 C 2954.83,637.5 2956.17,637.5 2957.5,637.5C 2957.44,641.133 2958.44,641.3 2960.5,638C 2964.57,637.044 2968.41,637.544 2972,639.5C 2972.67,640.833 2973.33,642.167 2974,643.5C 2974.5,650.158 2974.67,656.825 2974.5,663.5C 2972.83,663.5 2971.17,663.5 2969.5,663.5C 2969.67,656.825 2969.5,650.158 2969,643.5C 2964.93,639.381 2961.26,639.715 2958,644.5C 2957.5,650.825 2957.33,657.158 2957.5,663.5C 2956.17,663.5 2954.83,663.5 2953.5,663.5C 2953.5,654.833 2953.5,646.167 2953.5,637.5 Z"/></g>
<g><path style="opacity:1" fill="#272727" d="M 3283.5,637.5 C 3284.83,637.5 3286.17,637.5 3287.5,637.5C 3287.5,646.167 3287.5,654.833 3287.5,663.5C 3286.17,663.5 3284.83,663.5 3283.5,663.5C 3283.5,654.833 3283.5,646.167 3283.5,637.5 Z"/></g>
<g><path style="opacity:1" fill="#080808" d="M 209.5,640.5 C 215.326,639.489 218.826,641.822 220,647.5C 221.421,652.808 219.921,656.975 215.5,660C 210.88,661.538 207.713,660.038 206,655.5C 204.559,649.772 205.726,644.772 209.5,640.5 Z"/></g>
<g><path style="opacity:1" fill="#0a0a0a" d="M 270.5,644.5 C 270.5,645.5 270.5,646.5 270.5,647.5C 265.833,647.5 261.167,647.5 256.5,647.5C 257.69,642.07 261.023,639.903 266.5,641C 268.324,641.66 269.657,642.827 270.5,644.5 Z"/></g>
<g><path style="opacity:1" fill="#747474" d="M 306.5,640.5 C 307.833,640.5 309.167,640.5 310.5,640.5C 310.5,646.833 310.5,653.167 310.5,659.5C 309.51,653.69 309.177,647.69 309.5,641.5C 308.209,641.737 307.209,641.404 306.5,640.5 Z"/></g>
<g><path style="opacity:1" fill="#151515" d="M 399.5,640.5 C 406.013,639.404 409.346,642.071 409.5,648.5C 404.833,648.5 400.167,648.5 395.5,648.5C 395.343,647.127 395.51,645.793 396,644.5C 397.376,643.295 398.542,641.962 399.5,640.5 Z"/></g>
<g><path style="opacity:1" fill="#414141" d="M 480.5,640.5 C 481.833,640.5 483.167,640.5 484.5,640.5C 484.5,648.167 484.5,655.833 484.5,663.5C 483.508,656.352 483.175,649.019 483.5,641.5C 482.209,641.737 481.209,641.404 480.5,640.5 Z"/></g>
<g><path style="opacity:1" fill="#0d0d0d" d="M 516.5,647.5 C 511.381,648.103 506.715,647.436 502.5,645.5C 504.849,640.523 508.515,639.356 513.5,642C 515.607,643.264 516.607,645.097 516.5,647.5 Z"/></g>
<g><path style="opacity:1" fill="#0b0b0b" d="M 543.5,645.5 C 541.777,646.8 539.61,647.467 537,647.5C 534.39,647.467 532.223,646.8 530.5,645.5C 532.812,640.527 536.479,639.36 541.5,642C 542.823,642.816 543.489,643.983 543.5,645.5 Z"/></g>
<g><path style="opacity:1" fill="#0b0b0b" d="M 562.5,640.5 C 571.303,641.064 574.469,645.731 572,654.5C 570.268,659.617 566.768,661.45 561.5,660C 557.948,655.778 556.781,650.945 558,645.5C 559.025,643.313 560.525,641.646 562.5,640.5 Z"/></g>
<g><path style="opacity:1" fill="#050505" d="M 593.5,640.5 C 597.888,639.943 601.055,641.61 603,645.5C 604.472,651.076 603.305,655.909 599.5,660C 594.88,661.538 591.713,660.038 590,655.5C 588.461,649.693 589.628,644.693 593.5,640.5 Z"/></g>
<g><path style="opacity:1" fill="#8d95b4" d="M 1553.5,640.5 C 1558.28,639.641 1561.78,641.308 1564,645.5C 1564.67,648.5 1564.67,651.5 1564,654.5C 1562.27,659.617 1558.77,661.45 1553.5,660C 1546.89,653.503 1546.89,647.003 1553.5,640.5 Z"/></g>
<g><path style="opacity:1" fill="#8c95b4" d="M 1625.5,640.5 C 1629.89,639.943 1633.06,641.61 1635,645.5C 1636.12,650.399 1635.29,654.899 1632.5,659C 1627.5,661.601 1623.66,660.434 1621,655.5C 1620.33,652.167 1620.33,648.833 1621,645.5C 1622.02,643.313 1623.52,641.646 1625.5,640.5 Z"/></g>
<g><path style="opacity:1" fill="#9099b7" d="M 1653.5,640.5 C 1659.54,639.88 1662.87,642.547 1663.5,648.5C 1658.5,648.5 1653.5,648.5 1648.5,648.5C 1648.67,644.821 1650.33,642.154 1653.5,640.5 Z"/></g>
<g><path style="opacity:1" fill="#8b94b3" d="M 1727.5,640.5 C 1731.43,640.047 1734.59,641.38 1737,644.5C 1737.67,648.5 1737.67,652.5 1737,656.5C 1733.93,660.707 1730.1,661.54 1725.5,659C 1720.9,652.021 1721.56,645.855 1727.5,640.5 Z"/></g>
<g><path style="opacity:1" fill="#b891e9" d="M 2665.5,640.5 C 2670.28,639.641 2673.78,641.308 2676,645.5C 2676.67,648.5 2676.67,651.5 2676,654.5C 2674.27,659.617 2670.77,661.45 2665.5,660C 2658.89,653.503 2658.89,647.003 2665.5,640.5 Z"/></g>
<g><path style="opacity:1" fill="#ba95ea" d="M 2749.5,640.5 C 2755.54,639.88 2758.87,642.547 2759.5,648.5C 2754.5,648.5 2749.5,648.5 2744.5,648.5C 2744.67,644.821 2746.33,642.154 2749.5,640.5 Z"/></g>
<g><path style="opacity:1" fill="#b891e9" d="M 2778.5,640.5 C 2787.3,641.064 2790.47,645.731 2788,654.5C 2786.31,659.599 2782.81,661.432 2777.5,660C 2773.81,655.827 2772.64,650.993 2774,645.5C 2775.02,643.313 2776.52,641.646 2778.5,640.5 Z"/></g>
<g><path style="opacity:1" fill="#b891e9" d="M 2837.5,640.5 C 2841.89,639.943 2845.06,641.61 2847,645.5C 2847.67,648.833 2847.67,652.167 2847,655.5C 2844.34,660.434 2840.5,661.601 2835.5,659C 2830.96,652.055 2831.62,645.888 2837.5,640.5 Z"/></g>
<g><path style="opacity:1" fill="#ba95ea" d="M 2867.5,640.5 C 2873.54,639.88 2876.87,642.547 2877.5,648.5C 2872.5,648.5 2867.5,648.5 2862.5,648.5C 2862.67,644.821 2864.33,642.154 2867.5,640.5 Z"/></g>
<g><path style="opacity:1" fill="#b790e9" d="M 2931.5,640.5 C 2941.09,641.106 2944.26,646.106 2941,655.5C 2934.71,661.509 2930.04,660.509 2927,652.5C 2925.98,647.548 2927.48,643.548 2931.5,640.5 Z"/></g>
<g><path style="opacity:1" fill="#4a4a4a" d="M 270.5,644.5 C 271.434,645.568 271.768,646.901 271.5,648.5C 266.305,648.821 261.305,648.487 256.5,647.5C 261.167,647.5 265.833,647.5 270.5,647.5C 270.5,646.5 270.5,645.5 270.5,644.5 Z"/></g>
<g><path style="opacity:1" fill="#424242" d="M 502.5,645.5 C 506.715,647.436 511.381,648.103 516.5,647.5C 511.695,648.487 506.695,648.821 501.5,648.5C 501.263,647.209 501.596,646.209 502.5,645.5 Z"/></g>
<g><path style="opacity:1" fill="#414141" d="M 530.5,645.5 C 532.223,646.8 534.39,647.467 537,647.5C 539.61,647.467 541.777,646.8 543.5,645.5C 544.404,646.209 544.737,647.209 544.5,648.5C 539.5,648.5 534.5,648.5 529.5,648.5C 529.263,647.209 529.596,646.209 530.5,645.5 Z"/></g>
<g><path style="opacity:1" fill="#0b0b0b" d="M 621.5,651.5 C 624.167,651.5 626.833,651.5 629.5,651.5C 630.037,658.745 626.704,661.578 619.5,660C 616.631,656.337 617.298,653.504 621.5,651.5 Z"/></g>
<g><path style="opacity:1" fill="#8e97b5" d="M 1817.5,650.5 C 1818.5,650.5 1819.5,650.5 1820.5,650.5C 1820.26,659.367 1816.1,662.034 1808,658.5C 1807.33,657.167 1807.33,655.833 1808,654.5C 1810.89,652.288 1814.05,650.954 1817.5,650.5 Z"/></g>
<g><path style="opacity:1" fill="#8d95b4" d="M 1874.5,650.5 C 1876.42,656.135 1874.25,659.468 1868,660.5C 1862.4,659.901 1861.24,657.401 1864.5,653C 1867.91,652.004 1871.24,651.171 1874.5,650.5 Z"/></g>
<g><path style="opacity:0.919" fill="#313131" d="M -0.5,658.5 C 1.16667,658.5 2.83333,658.5 4.5,658.5C 3.16667,676.5 3.16667,694.5 4.5,712.5C 2.83333,712.5 1.16667,712.5 -0.5,712.5C -0.5,694.5 -0.5,676.5 -0.5,658.5 Z"/></g>
<g><path style="opacity:0.93" fill="#313131" d="M 1366.5,658.5 C 1368.17,658.5 1369.83,658.5 1371.5,658.5C 1371.5,676.5 1371.5,694.5 1371.5,712.5C 1369.83,712.5 1368.17,712.5 1366.5,712.5C 1367.83,694.5 1367.83,676.5 1366.5,658.5 Z"/></g>
<g><path style="opacity:0.919" fill="#313131" d="M 2147.5,658.5 C 2149.17,658.5 2150.83,658.5 2152.5,658.5C 2151.17,676.5 2151.17,694.5 2152.5,712.5C 2150.83,712.5 2149.17,712.5 2147.5,712.5C 2147.5,694.5 2147.5,676.5 2147.5,658.5 Z"/></g>
<g><path style="opacity:0.93" fill="#313131" d="M 3519.5,658.5 C 3519.5,676.5 3519.5,694.5 3519.5,712.5C 3517.83,712.5 3516.17,712.5 3514.5,712.5C 3515.83,694.5 3515.83,676.5 3514.5,658.5C 3516.17,658.5 3517.83,658.5 3519.5,658.5 Z"/></g>
<g><path style="opacity:0.92" fill="#313131" d="M 1079.5,658.5 C 1081.17,658.5 1082.83,658.5 1084.5,658.5C 1083.17,676.5 1083.17,694.5 1084.5,712.5C 1082.83,712.5 1081.17,712.5 1079.5,712.5C 1079.5,694.5 1079.5,676.5 1079.5,658.5 Z"/></g>
<g><path style="opacity:0.931" fill="#313131" d="M 2442.5,658.5 C 2444.17,658.5 2445.83,658.5 2447.5,658.5C 2447.5,676.5 2447.5,694.5 2447.5,712.5C 2445.83,712.5 2444.17,712.5 2442.5,712.5C 2443.83,694.5 2443.83,676.5 2442.5,658.5 Z"/></g>
<g><path style="opacity:0.894" fill="#313131" d="M 3.5,765.5 C 5.16667,765.5 6.83333,765.5 8.5,765.5C 10.9497,783.532 13.6164,801.532 16.5,819.5C 14.8333,819.5 13.1667,819.5 11.5,819.5C 8.61641,801.532 5.94975,783.532 3.5,765.5 Z"/></g>
<g><path style="opacity:0.893" fill="#313131" d="M 1083.5,765.5 C 1085.17,765.5 1086.83,765.5 1088.5,765.5C 1090.95,783.532 1093.62,801.532 1096.5,819.5C 1094.83,819.5 1093.17,819.5 1091.5,819.5C 1088.62,801.529 1085.95,783.529 1083.5,765.5 Z"/></g>
<g><path style="opacity:0.888" fill="#313131" d="M 1362.5,765.5 C 1364.17,765.5 1365.83,765.5 1367.5,765.5C 1365.32,783.258 1362.48,800.925 1359,818.5C 1357.64,819.38 1356.14,819.714 1354.5,819.5C 1357.38,801.532 1360.05,783.532 1362.5,765.5 Z"/></g>
<g><path style="opacity:0.894" fill="#313131" d="M 2151.5,765.5 C 2153.17,765.5 2154.83,765.5 2156.5,765.5C 2158.95,783.532 2161.62,801.532 2164.5,819.5C 2162.83,819.5 2161.17,819.5 2159.5,819.5C 2156.62,801.532 2153.95,783.532 2151.5,765.5 Z"/></g>
<g><path style="opacity:0.89" fill="#313131" d="M 2438.5,765.5 C 2440.17,765.5 2441.83,765.5 2443.5,765.5C 2441.05,783.532 2438.38,801.532 2435.5,819.5C 2432.41,820.17 2430.74,819.003 2430.5,816C 2433.76,799.248 2436.43,782.415 2438.5,765.5 Z"/></g>
<g><path style="opacity:0.888" fill="#313131" d="M 3510.5,765.5 C 3512.17,765.5 3513.83,765.5 3515.5,765.5C 3513.32,783.258 3510.48,800.925 3507,818.5C 3505.64,819.38 3504.14,819.714 3502.5,819.5C 3505.38,801.532 3508.05,783.532 3510.5,765.5 Z"/></g>
<g><path style="opacity:0.999" fill="#ee864c" d="M 706.5,831.5 C 782.834,831.333 859.167,831.5 935.5,832C 964.985,836.995 985.818,853.162 998,880.5C 1000.28,886.332 1001.94,892.332 1003,898.5C 1003.67,936.167 1003.67,973.833 1003,1011.5C 998.005,1040.98 981.838,1061.82 954.5,1074C 948.668,1076.28 942.668,1077.94 936.5,1079C 860.167,1079.67 783.833,1079.67 707.5,1079C 678.015,1074 657.182,1057.84 645,1030.5C 642.723,1024.67 641.056,1018.67 640,1012.5C 639.333,974.833 639.333,937.167 640,899.5C 644.995,870.015 661.162,849.182 688.5,837C 694.531,834.832 700.531,832.999 706.5,831.5 Z"/></g>
<g><path style="opacity:0.973" fill="#2d2b2b" d="M 1842.5,831.5 C 1922.83,831.333 2003.17,831.5 2083.5,832C 2112.98,836.995 2133.82,853.162 2146,880.5C 2148.28,886.332 2149.94,892.332 2151,898.5C 2151.67,936.167 2151.67,973.833 2151,1011.5C 2146,1040.98 2129.84,1061.82 2102.5,1074C 2096.67,1076.28 2090.67,1077.94 2084.5,1079C 2004.17,1079.67 1923.83,1079.67 1843.5,1079C 1814.02,1074 1793.18,1057.84 1781,1030.5C 1778.72,1024.67 1777.06,1018.67 1776,1012.5C 1775.33,974.833 1775.33,937.167 1776,899.5C 1781,870.015 1797.16,849.182 1824.5,837C 1830.53,834.832 1836.53,832.999 1842.5,831.5 Z"/></g>
<g><path style="opacity:0.998" fill="#0387c1" d="M 2762.5,831.5 C 2868.17,831.333 2973.83,831.5 3079.5,832C 3108.98,836.995 3129.82,853.162 3142,880.5C 3144.28,886.332 3145.94,892.332 3147,898.5C 3147.67,936.167 3147.67,973.833 3147,1011.5C 3142,1040.98 3125.84,1061.82 3098.5,1074C 3092.67,1076.28 3086.67,1077.94 3080.5,1079C 2974.83,1079.67 2869.17,1079.67 2763.5,1079C 2728.85,1072.02 2706.69,1051.52 2697,1017.5C 2695.36,978.205 2695.03,938.872 2696,899.5C 2701,870.015 2717.16,849.182 2744.5,837C 2750.53,834.832 2756.53,832.999 2762.5,831.5 Z"/></g>
<g><path style="opacity:1" fill="#fefefe" d="M 1844.5,835.5 C 1923.5,835.333 2002.5,835.5 2081.5,836C 2117.55,843.051 2139.38,864.551 2147,900.5C 2147.67,936.833 2147.67,973.167 2147,1009.5C 2139.7,1046.46 2117.54,1068.3 2080.5,1075C 2002.17,1075.67 1923.83,1075.67 1845.5,1075C 1811.55,1068.72 1790.05,1048.89 1781,1015.5C 1779.88,995.365 1779.38,975.198 1779.5,955C 1779.38,934.802 1779.88,914.635 1781,894.5C 1790.51,862.148 1811.68,842.481 1844.5,835.5 Z"/></g>
<g><path style="opacity:0.909" fill="#313131" d="M 26.5,870.5 C 28.1238,870.36 29.2904,871.027 30,872.5C 34.6664,888.666 39.833,904.666 45.5,920.5C 45.1667,922.167 44.1667,923.167 42.5,923.5C 40.8786,921.847 39.7119,919.847 39,917.5C 33.8623,902.587 29.029,887.587 24.5,872.5C 25.2427,871.818 25.9094,871.151 26.5,870.5 Z"/></g>
<g><path style="opacity:0.906" fill="#313131" d="M 1104.5,870.5 C 1106.77,870.141 1108.6,870.808 1110,872.5C 1114.66,888.66 1119.83,904.66 1125.5,920.5C 1124.65,921.845 1123.49,922.845 1122,923.5C 1114.87,906.287 1109.04,888.62 1104.5,870.5 Z"/></g>
<g><path style="opacity:0.914" fill="#313131" d="M 1341.5,870.5 C 1343.48,870.383 1345.15,871.05 1346.5,872.5C 1342.3,886.587 1337.8,900.587 1333,914.5C 1331.96,917.829 1330.46,920.829 1328.5,923.5C 1326.83,923.167 1325.83,922.167 1325.5,920.5C 1331.44,904.011 1336.77,887.345 1341.5,870.5 Z"/></g>
<g><path style="opacity:0.909" fill="#313131" d="M 2174.5,870.5 C 2176.12,870.36 2177.29,871.027 2178,872.5C 2182.67,888.666 2187.83,904.666 2193.5,920.5C 2193.17,922.167 2192.17,923.167 2190.5,923.5C 2188.88,921.847 2187.71,919.847 2187,917.5C 2181.86,902.587 2177.03,887.587 2172.5,872.5C 2173.24,871.818 2173.91,871.151 2174.5,870.5 Z"/></g>
<g><path style="opacity:0.906" fill="#313131" d="M 2417.5,870.5 C 2419.66,870.116 2421.33,870.783 2422.5,872.5C 2417.55,889.847 2411.72,906.847 2405,923.5C 2403.51,922.845 2402.35,921.845 2401.5,920.5C 2407.45,904.021 2412.79,887.354 2417.5,870.5 Z"/></g>
<g><path style="opacity:0.914" fill="#313131" d="M 3489.5,870.5 C 3491.48,870.383 3493.15,871.05 3494.5,872.5C 3490.3,886.587 3485.8,900.587 3481,914.5C 3479.96,917.829 3478.46,920.829 3476.5,923.5C 3474.83,923.167 3473.83,922.167 3473.5,920.5C 3479.44,904.011 3484.77,887.345 3489.5,870.5 Z"/></g>
<g><path style="opacity:1" fill="#1f1f1f" d="M 1898.5,935.5 C 1902.16,935.35 1903.16,936.85 1901.5,940C 1900.21,940.49 1898.87,940.657 1897.5,940.5C 1897.37,938.708 1897.7,937.042 1898.5,935.5 Z"/></g>
<g><path style="opacity:1" fill="#f0f7fb" d="M 2831.5,935.5 C 2832.98,935.238 2834.31,935.571 2835.5,936.5C 2831.53,949.363 2828.03,962.363 2825,975.5C 2823.99,976.337 2822.82,976.67 2821.5,976.5C 2824.68,962.798 2828.01,949.131 2831.5,935.5 Z"/></g>
<g><path style="opacity:1" fill="#fef5f0" d="M 725.5,936.5 C 732.016,935.237 737.516,936.904 742,941.5C 742.49,942.793 742.657,944.127 742.5,945.5C 741.022,945.762 739.689,945.429 738.5,944.5C 737.105,941.218 734.605,939.884 731,940.5C 723.508,940.223 721.675,943.223 725.5,949.5C 729.767,951.151 734.1,952.651 738.5,954C 744.813,958.867 745.146,964.201 739.5,970C 732.323,973.957 725.823,973.124 720,967.5C 718.991,965.975 718.491,964.308 718.5,962.5C 719.873,962.343 721.207,962.51 722.5,963C 725.07,967.948 729.07,969.615 734.5,968C 738.611,966.119 739.944,963.119 738.5,959C 732.453,956.871 726.62,954.371 721,951.5C 717.923,944.986 719.423,939.986 725.5,936.5 Z"/></g>
<g><path style="opacity:1" fill="#e8f3f9" d="M 3003.5,935.5 C 3007.14,934.737 3008.64,936.07 3008,939.5C 3003.42,941.413 3001.92,940.079 3003.5,935.5 Z"/></g>
<g><path style="opacity:1" fill="#fefbfa" d="M 893.5,936.5 C 894.833,936.5 896.167,936.5 897.5,936.5C 897.5,948.167 897.5,959.833 897.5,971.5C 896.167,971.5 894.833,971.5 893.5,971.5C 893.5,959.833 893.5,948.167 893.5,936.5 Z"/></g>
<g><path style="opacity:1" fill="#4f4f4f" d="M 1861.5,938.5 C 1859.96,937.699 1858.29,937.366 1856.5,937.5C 1856.5,948.833 1856.5,960.167 1856.5,971.5C 1855.51,960.012 1855.17,948.345 1855.5,936.5C 1858.08,936.025 1860.08,936.692 1861.5,938.5 Z"/></g>
<g><path style="opacity:1" fill="#1d1d1d" d="M 1886.5,971.5 C 1886.67,962.494 1886.5,953.494 1886,944.5C 1884.96,945.244 1884.46,946.244 1884.5,947.5C 1881.44,955.178 1878.27,962.845 1875,970.5C 1873.64,971.38 1872.14,971.714 1870.5,971.5C 1867.5,962.669 1864,954.003 1860,945.5C 1859.5,954.16 1859.33,962.827 1859.5,971.5C 1858.5,971.5 1857.5,971.5 1856.5,971.5C 1856.5,960.167 1856.5,948.833 1856.5,937.5C 1858.29,937.366 1859.96,937.699 1861.5,938.5C 1865.34,947.504 1869.17,956.504 1873,965.5C 1877.11,956.281 1880.94,946.947 1884.5,937.5C 1886.05,936.548 1887.71,936.215 1889.5,936.5C 1889.5,948.167 1889.5,959.833 1889.5,971.5C 1888.5,971.5 1887.5,971.5 1886.5,971.5 Z"/></g>
<g><path style="opacity:1" fill="#222222" d="M 1955.5,936.5 C 1956.83,936.5 1958.17,936.5 1959.5,936.5C 1959.5,948.167 1959.5,959.833 1959.5,971.5C 1958.17,971.5 1956.83,971.5 1955.5,971.5C 1955.63,966.728 1954.3,966.562 1951.5,971C 1941.12,972.966 1936.12,968.633 1936.5,958C 1936.45,947.716 1941.45,943.716 1951.5,946C 1952.67,947.167 1953.83,948.333 1955,949.5C 1955.5,945.179 1955.67,940.846 1955.5,936.5 Z"/></g>
<g><path style="opacity:1" fill="#f1f8fb" d="M 2775.5,936.5 C 2776.83,936.5 2778.17,936.5 2779.5,936.5C 2779.33,945.173 2779.5,953.84 2780,962.5C 2783.39,968.467 2788.23,969.967 2794.5,967C 2796.05,965.786 2797.22,964.286 2798,962.5C 2798.5,953.84 2798.67,945.173 2798.5,936.5C 2799.83,936.5 2801.17,936.5 2802.5,936.5C 2802.92,946.58 2802.42,956.58 2801,966.5C 2791.43,975.227 2783.09,974.227 2776,963.5C 2775.5,954.506 2775.33,945.506 2775.5,936.5 Z"/></g>
<g><path style="opacity:1" fill="#fefefe" d="M 2811.5,936.5 C 2812.83,936.5 2814.17,936.5 2815.5,936.5C 2815.5,948.167 2815.5,959.833 2815.5,971.5C 2814.17,971.5 2812.83,971.5 2811.5,971.5C 2811.5,959.833 2811.5,948.167 2811.5,936.5 Z"/></g>
<g><path style="opacity:1" fill="#f3f9fc" d="M 2841.5,936.5 C 2842.83,936.5 2844.17,936.5 2845.5,936.5C 2845.33,945.506 2845.5,954.506 2846,963.5C 2852.92,970.567 2858.92,969.9 2864,961.5C 2864.5,953.173 2864.67,944.84 2864.5,936.5C 2865.83,936.5 2867.17,936.5 2868.5,936.5C 2868.92,946.247 2868.42,955.914 2867,965.5C 2864.12,970.022 2859.95,972.022 2854.5,971.5C 2848.65,972.157 2844.48,969.824 2842,964.5C 2841.5,955.173 2841.33,945.839 2841.5,936.5 Z"/></g>
<g><path style="opacity:1" fill="#f2f9fb" d="M 2874.5,936.5 C 2876.72,936.178 2878.56,936.845 2880,938.5C 2882.17,942.844 2884.84,946.844 2888,950.5C 2891.03,946.302 2893.86,941.968 2896.5,937.5C 2898.17,936.167 2899.83,936.167 2901.5,937.5C 2897.55,942.616 2894.22,948.116 2891.5,954C 2894.22,959.884 2897.55,965.384 2901.5,970.5C 2899.83,971.833 2898.17,971.833 2896.5,970.5C 2893.67,966.167 2890.83,961.833 2888,957.5C 2884.97,961.698 2882.14,966.032 2879.5,970.5C 2877.83,971.833 2876.17,971.833 2874.5,970.5C 2877.97,965.067 2881.3,959.567 2884.5,954C 2881.02,948.209 2877.69,942.376 2874.5,936.5 Z"/></g>
<g><path style="opacity:1" fill="#f5fafc" d="M 2938.5,936.5 C 2939.83,936.5 2941.17,936.5 2942.5,936.5C 2942.5,948.167 2942.5,959.833 2942.5,971.5C 2941.17,971.5 2939.83,971.5 2938.5,971.5C 2938.63,966.728 2937.3,966.562 2934.5,971C 2924.85,972.518 2919.85,968.351 2919.5,958.5C 2919.85,948.649 2924.85,944.482 2934.5,946C 2935.67,947.167 2936.83,948.333 2938,949.5C 2938.5,945.179 2938.67,940.846 2938.5,936.5 Z"/></g>
<g><path style="opacity:1" fill="#fef9f7" d="M 779.5,938.5 C 780.833,938.5 782.167,938.5 783.5,938.5C 783.5,940.833 783.5,943.167 783.5,945.5C 785.5,945.5 787.5,945.5 789.5,945.5C 789.5,946.5 789.5,947.5 789.5,948.5C 787.5,948.5 785.5,948.5 783.5,948.5C 783.334,954.509 783.501,960.509 784,966.5C 785.699,967.406 787.533,967.739 789.5,967.5C 789.5,968.833 789.5,970.167 789.5,971.5C 785.713,972.186 782.546,971.186 780,968.5C 779.5,961.842 779.334,955.175 779.5,948.5C 778.167,948.5 776.833,948.5 775.5,948.5C 775.5,947.5 775.5,946.5 775.5,945.5C 776.833,945.5 778.167,945.5 779.5,945.5C 779.5,943.167 779.5,940.833 779.5,938.5 Z"/></g>
<g><path style="opacity:1" fill="#fef7f3" d="M 755.5,945.5 C 766.837,943.51 772.17,948.177 771.5,959.5C 765.167,959.5 758.833,959.5 752.5,959.5C 753.195,966.181 756.862,969.014 763.5,968C 765.306,967.19 766.806,966.024 768,964.5C 769.28,964.613 770.113,965.28 770.5,966.5C 764.436,974.034 757.936,974.367 751,967.5C 746.558,958.79 748.058,951.456 755.5,945.5 Z"/></g>
<g><path style="opacity:1" fill="#fef8f5" d="M 813.5,945.5 C 816.85,945.335 820.183,945.502 823.5,946C 825.557,949.3 826.557,949.133 826.5,945.5C 827.833,945.5 829.167,945.5 830.5,945.5C 830.666,955.506 830.5,965.506 830,975.5C 827.831,980.087 824.164,982.087 819,981.5C 814.607,982.053 811.107,980.553 808.5,977C 811.114,973.768 813.448,974.101 815.5,978C 824.053,979.448 827.553,975.948 826,967.5C 818.461,973.574 812.461,972.24 808,963.5C 806.018,956.172 807.851,950.172 813.5,945.5 Z"/></g>
<g><path style="opacity:1" fill="#fef5f1" d="M 843.5,945.5 C 856.764,944.267 862.264,950.267 860,963.5C 856.88,970.974 851.38,973.474 843.5,971C 837.412,966.748 835.246,960.915 837,953.5C 838.305,950.039 840.471,947.372 843.5,945.5 Z"/></g>
<g><path style="opacity:1" fill="#fef5f0" d="M 873.5,944.5 C 878.907,944.125 883.073,946.125 886,950.5C 886.5,957.492 886.666,964.492 886.5,971.5C 885.167,971.5 883.833,971.5 882.5,971.5C 882.649,970.448 882.483,969.448 882,968.5C 877.314,973.302 872.314,973.636 867,969.5C 864.614,965.206 865.114,961.373 868.5,958C 873,956.208 877.667,955.375 882.5,955.5C 882.19,949.697 879.19,947.53 873.5,949C 871.744,951.495 869.577,952.329 867,951.5C 867.892,948.104 870.059,945.77 873.5,944.5 Z"/></g>
<g><path style="opacity:1" fill="#fef4ef" d="M 911.5,944.5 C 916.78,944.033 920.78,946.033 923.5,950.5C 922.672,951.415 921.672,952.081 920.5,952.5C 917.698,948.251 914.031,947.418 909.5,950C 908.14,951.938 908.473,953.604 910.5,955C 915.039,956.066 919.206,957.899 923,960.5C 924.546,968.129 921.379,972.129 913.5,972.5C 907.906,972.567 904.906,969.9 904.5,964.5C 907.56,966.053 910.726,967.386 914,968.5C 918.745,968.437 920.245,966.27 918.5,962C 915.27,960.692 911.936,959.692 908.5,959C 902.57,952.75 903.57,947.917 911.5,944.5 Z"/></g>
<g><path style="opacity:1" fill="#878787" d="M 1886.5,971.5 C 1885.83,963.5 1885.17,955.5 1884.5,947.5C 1884.46,946.244 1884.96,945.244 1886,944.5C 1886.5,953.494 1886.67,962.494 1886.5,971.5 Z"/></g>
<g><path style="opacity:1" fill="#272727" d="M 1897.5,945.5 C 1898.83,945.5 1900.17,945.5 1901.5,945.5C 1901.5,954.167 1901.5,962.833 1901.5,971.5C 1900.17,971.5 1898.83,971.5 1897.5,971.5C 1897.5,962.833 1897.5,954.167 1897.5,945.5 Z"/></g>
<g><path style="opacity:1" fill="#202020" d="M 1909.5,945.5 C 1910.83,945.5 1912.17,945.5 1913.5,945.5C 1913.44,949.133 1914.44,949.3 1916.5,946C 1920.57,945.044 1924.41,945.544 1928,947.5C 1929.44,955.389 1929.94,963.389 1929.5,971.5C 1928.5,971.5 1927.5,971.5 1926.5,971.5C 1926.67,965.158 1926.5,958.825 1926,952.5C 1922.43,947.59 1918.43,947.257 1914,951.5C 1913.5,958.158 1913.33,964.825 1913.5,971.5C 1912.17,971.5 1910.83,971.5 1909.5,971.5C 1909.5,962.833 1909.5,954.167 1909.5,945.5 Z"/></g>
<g><path style="opacity:1" fill="#1f1f1f" d="M 1980.5,945.5 C 1981.83,945.5 1983.17,945.5 1984.5,945.5C 1984.34,946.873 1984.51,948.207 1985,949.5C 1985.47,948.069 1986.3,946.903 1987.5,946C 1990.17,945.333 1992.83,945.333 1995.5,946C 1997.33,946.5 1998.5,947.667 1999,949.5C 2002.31,945.673 2006.47,944.506 2011.5,946C 2012.7,946.903 2013.53,948.069 2014,949.5C 2014.5,956.826 2014.67,964.159 2014.5,971.5C 2013.5,971.5 2012.5,971.5 2011.5,971.5C 2011.67,964.825 2011.5,958.158 2011,951.5C 2006.75,947.158 2003.09,947.492 2000,952.5C 1999.5,958.825 1999.33,965.158 1999.5,971.5C 1998.17,971.5 1996.83,971.5 1995.5,971.5C 1995.67,964.492 1995.5,957.492 1995,950.5C 1990.91,947.524 1987.57,948.191 1985,952.5C 1984.5,958.825 1984.33,965.158 1984.5,971.5C 1983.17,971.5 1981.83,971.5 1980.5,971.5C 1980.5,962.833 1980.5,954.167 1980.5,945.5 Z"/></g>
<g><path style="opacity:1" fill="#272727" d="M 2026.5,945.5 C 2030.18,945.335 2033.85,945.501 2037.5,946C 2039.55,946.93 2041.05,948.43 2042,950.5C 2042.5,957.492 2042.67,964.492 2042.5,971.5C 2041.17,971.5 2039.83,971.5 2038.5,971.5C 2038.72,970.325 2038.39,969.325 2037.5,968.5C 2033.07,973.484 2028.23,973.817 2023,969.5C 2020.61,965.206 2021.11,961.373 2024.5,958C 2028.7,956.523 2033.03,955.689 2037.5,955.5C 2038,949.501 2035.33,947.334 2029.5,949C 2027.7,949.637 2026.36,950.803 2025.5,952.5C 2024.33,952.081 2023.33,951.415 2022.5,950.5C 2023.86,948.814 2025.19,947.148 2026.5,945.5 Z"/></g>
<g><path style="opacity:1" fill="#1d1d1d" d="M 2049.5,945.5 C 2050.83,945.5 2052.17,945.5 2053.5,945.5C 2053.34,946.873 2053.51,948.207 2054,949.5C 2054.5,947.667 2055.67,946.5 2057.5,946C 2067.11,944.428 2072.11,948.594 2072.5,958.5C 2071.99,968.845 2066.66,973.011 2056.5,971C 2055.3,970.097 2054.47,968.931 2054,967.5C 2053.5,972.155 2053.33,976.821 2053.5,981.5C 2052.17,981.5 2050.83,981.5 2049.5,981.5C 2049.5,969.5 2049.5,957.5 2049.5,945.5 Z"/></g>
<g><path style="opacity:1" fill="#f6fbfc" d="M 2956.5,945.5 C 2967.34,944.006 2972.34,948.672 2971.5,959.5C 2965.5,959.5 2959.5,959.5 2953.5,959.5C 2953.8,966.632 2957.47,969.465 2964.5,968C 2966.22,964.622 2968.55,963.956 2971.5,966C 2969.36,970.321 2965.86,972.155 2961,971.5C 2956.58,972.091 2953.24,970.424 2951,966.5C 2947.55,957.89 2949.38,950.89 2956.5,945.5 Z"/></g>
<g><path style="opacity:1" fill="#f1f8fb" d="M 2982.5,945.5 C 2985.85,945.335 2989.18,945.502 2992.5,946C 2994.02,947.351 2995.35,948.851 2996.5,950.5C 2995.83,950.833 2995.17,951.167 2994.5,951.5C 2992.37,950.037 2990.04,949.037 2987.5,948.5C 2981.91,948.538 2980.57,950.704 2983.5,955C 2986.36,956.399 2989.36,957.399 2992.5,958C 2999.06,962.245 2999.06,966.578 2992.5,971C 2988.83,971.667 2985.17,971.667 2981.5,971C 2979.64,969.972 2978.31,968.472 2977.5,966.5C 2977.89,965.28 2978.72,964.613 2980,964.5C 2984.55,969.797 2989.05,969.797 2993.5,964.5C 2993.08,963.328 2992.41,962.328 2991.5,961.5C 2986.87,960.903 2982.7,959.237 2979,956.5C 2976.72,951.732 2977.88,948.065 2982.5,945.5 Z"/></g>
<g><path style="opacity:1" fill="#f2f8fc" d="M 3003.5,945.5 C 3004.83,945.5 3006.17,945.5 3007.5,945.5C 3007.5,954.167 3007.5,962.833 3007.5,971.5C 3006.17,971.5 3004.83,971.5 3003.5,971.5C 3003.5,962.833 3003.5,954.167 3003.5,945.5 Z"/></g>
<g><path style="opacity:1" fill="#f7fbfd" d="M 3020.5,945.5 C 3023.19,945.336 3025.85,945.503 3028.5,946C 3030.33,946.5 3031.5,947.667 3032,949.5C 3032.49,948.207 3032.66,946.873 3032.5,945.5C 3033.83,945.5 3035.17,945.5 3036.5,945.5C 3036.67,955.506 3036.5,965.506 3036,975.5C 3033.79,980.105 3030.13,982.105 3025,981.5C 3020.61,982.053 3017.11,980.553 3014.5,977C 3017.11,973.768 3019.45,974.101 3021.5,978C 3030.79,979.622 3034.29,975.789 3032,966.5C 3030.33,969.666 3027.67,971 3024,970.5C 3020.06,970.57 3017.06,968.904 3015,965.5C 3011.55,957.152 3013.38,950.485 3020.5,945.5 Z"/></g>
<g><path style="opacity:1" fill="#f1f8fb" d="M 3043.5,945.5 C 3044.83,945.5 3046.17,945.5 3047.5,945.5C 3047.37,950.272 3048.7,950.438 3051.5,946C 3055.91,944.738 3059.74,945.572 3063,948.5C 3064.43,956.054 3064.93,963.721 3064.5,971.5C 3063.17,971.5 3061.83,971.5 3060.5,971.5C 3060.67,964.825 3060.5,958.158 3060,951.5C 3055.18,947.081 3051.18,947.748 3048,953.5C 3047.5,959.491 3047.33,965.491 3047.5,971.5C 3046.17,971.5 3044.83,971.5 3043.5,971.5C 3043.5,962.833 3043.5,954.167 3043.5,945.5 Z"/></g>
<g><path style="opacity:1" fill="#ef8e57" d="M 757.5,948.5 C 763.582,947.928 766.916,950.595 767.5,956.5C 762.456,956.827 757.456,956.494 752.5,955.5C 753.466,952.531 755.133,950.198 757.5,948.5 Z"/></g>
<g><path style="opacity:1" fill="#ee8950" d="M 816.5,948.5 C 825.303,949.064 828.469,953.731 826,962.5C 823.447,967.626 819.614,968.793 814.5,966C 809.97,959.414 810.636,953.581 816.5,948.5 Z"/></g>
<g><path style="opacity:1" fill="#ee8951" d="M 845.5,948.5 C 852.521,948.352 856.188,951.852 856.5,959C 856.131,964.369 853.297,967.536 848,968.5C 842.842,966.995 840.342,963.495 840.5,958C 840.726,954.046 842.393,950.879 845.5,948.5 Z"/></g>
<g><path style="opacity:1" fill="#f6f6f6" d="M 1944.5,948.5 C 1953.16,948.438 1956.66,952.771 1955,961.5C 1953.82,967.341 1950.32,969.507 1944.5,968C 1942.95,966.786 1941.78,965.286 1941,963.5C 1939.46,957.693 1940.63,952.693 1944.5,948.5 Z"/></g>
<g><path style="opacity:1" fill="#f6f6f6" d="M 2057.5,948.5 C 2066.65,948.156 2070.15,952.49 2068,961.5C 2066.82,967.341 2063.32,969.507 2057.5,968C 2053.7,963.909 2052.53,959.076 2054,953.5C 2055,951.677 2056.16,950.01 2057.5,948.5 Z"/></g>
<g><path style="opacity:1" fill="#148ac2" d="M 2927.5,948.5 C 2936.63,948.137 2940.13,952.471 2938,961.5C 2936.82,967.341 2933.32,969.507 2927.5,968C 2922.2,961.471 2922.2,954.971 2927.5,948.5 Z"/></g>
<g><path style="opacity:1" fill="#1f8ec5" d="M 2957.5,948.5 C 2964.08,947.428 2967.41,950.095 2967.5,956.5C 2962.83,956.5 2958.17,956.5 2953.5,956.5C 2953.34,955.127 2953.51,953.793 2954,952.5C 2955.38,951.295 2956.54,949.962 2957.5,948.5 Z"/></g>
<g><path style="opacity:1" fill="#158ac3" d="M 3022.5,948.5 C 3027.13,947.458 3030.3,949.125 3032,953.5C 3033.43,958.757 3032.26,963.257 3028.5,967C 3022.96,968.892 3019.46,967.059 3018,961.5C 3016.38,955.923 3017.88,951.589 3022.5,948.5 Z"/></g>
<g><path style="opacity:1" fill="#ef8c56" d="M 879.5,958.5 C 880.5,958.5 881.5,958.5 882.5,958.5C 882.199,967.671 878.032,970.338 870,966.5C 869.202,964.741 869.369,963.074 870.5,961.5C 873.515,960.182 876.515,959.182 879.5,958.5 Z"/></g>
<g><path style="opacity:1" fill="#f5f5f5" d="M 2035.5,959.5 C 2037.26,960.552 2037.92,962.219 2037.5,964.5C 2034.28,968.787 2030.44,969.454 2026,966.5C 2025.26,964.559 2025.42,962.726 2026.5,961C 2029.35,959.711 2032.35,959.211 2035.5,959.5 Z"/></g>
<g><path style="opacity:1" fill="#959595" d="M 2035.5,959.5 C 2036.21,958.596 2037.21,958.263 2038.5,958.5C 2038.79,960.735 2038.46,962.735 2037.5,964.5C 2037.92,962.219 2037.26,960.552 2035.5,959.5 Z"/></g>
<g><path style="opacity:0.932" fill="#313131" d="M 64.5,970.5 C 65.3764,970.369 66.0431,970.702 66.5,971.5C 74.2445,987.323 82.2445,1002.99 90.5,1018.5C 89.6533,1019.84 88.4866,1020.84 87,1021.5C 78.0491,1005.93 69.8824,989.932 62.5,973.5C 62.9424,972.261 63.6091,971.261 64.5,970.5 Z"/></g>
<g><path style="opacity:0.918" fill="#313131" d="M 1143.5,970.5 C 1144.68,970.281 1145.68,970.614 1146.5,971.5C 1153.59,987.518 1161.59,1003.02 1170.5,1018C 1169.23,1020.26 1167.56,1020.76 1165.5,1019.5C 1156.72,1004.27 1148.72,988.604 1141.5,972.5C 1142.24,971.818 1142.91,971.151 1143.5,970.5 Z"/></g>
<g><path style="opacity:0.932" fill="#313131" d="M 2212.5,970.5 C 2213.38,970.369 2214.04,970.702 2214.5,971.5C 2222.24,987.323 2230.24,1002.99 2238.5,1018.5C 2237.65,1019.84 2236.49,1020.84 2235,1021.5C 2226.05,1005.93 2217.88,989.932 2210.5,973.5C 2210.94,972.261 2211.61,971.261 2212.5,970.5 Z"/></g>
<g><path style="opacity:0.924" fill="#313131" d="M 2380.5,970.5 C 2382.48,970.383 2384.15,971.05 2385.5,972.5C 2378.27,989.289 2369.77,1005.29 2360,1020.5C 2358.57,1020.07 2357.4,1019.24 2356.5,1018C 2365.69,1002.78 2373.69,986.949 2380.5,970.5 Z"/></g>
<g><path style="opacity:0.92" fill="#313131" d="M 1304.5,970.5 C 1306.3,971.046 1307.97,971.88 1309.5,973C 1301.38,989.404 1292.88,1005.57 1284,1021.5C 1282.51,1020.84 1281.35,1019.84 1280.5,1018.5C 1289.04,1002.76 1297.04,986.757 1304.5,970.5 Z"/></g>
<g><path style="opacity:0.92" fill="#313131" d="M 3452.5,970.5 C 3454.3,971.046 3455.97,971.88 3457.5,973C 3449.38,989.404 3440.88,1005.57 3432,1021.5C 3430.51,1020.84 3429.35,1019.84 3428.5,1018.5C 3437.04,1002.76 3445.04,986.757 3452.5,970.5 Z"/></g>
<g><path style="opacity:0.933" fill="#313131" d="M 116.5,1064.5 C 117.822,1064.33 118.989,1064.66 120,1065.5C 129.554,1080.11 139.72,1094.27 150.5,1108C 149.335,1109.08 148.002,1109.92 146.5,1110.5C 134.979,1096.62 124.312,1082.12 114.5,1067C 115.381,1066.29 116.047,1065.46 116.5,1064.5 Z"/></g>
<g><path style="opacity:0.94" fill="#313131" d="M 1196.5,1063.5 C 1197.5,1063.41 1198.33,1063.75 1199,1064.5C 1207.28,1077.11 1215.94,1089.44 1225,1101.5C 1234.44,1090.06 1243.11,1078.06 1251,1065.5C 1253.24,1064.13 1255.07,1064.63 1256.5,1067C 1245.96,1082.11 1235.46,1096.61 1225,1110.5C 1221.69,1110.2 1220.52,1108.7 1221.5,1106C 1212.8,1093.43 1203.96,1080.93 1195,1068.5C 1194.39,1066.5 1194.89,1064.84 1196.5,1063.5 Z"/></g>
<g><path style="opacity:0.923" fill="#313131" d="M 2328.5,1063.5 C 2332.39,1064.28 2333.23,1066.28 2331,1069.5C 2321.39,1083.45 2311.39,1097.11 2301,1110.5C 2298.99,1108.2 2296.83,1108.2 2294.5,1110.5C 2282.98,1096.62 2272.31,1082.12 2262.5,1067C 2263.93,1064.63 2265.76,1064.13 2268,1065.5C 2277.27,1079.7 2287.27,1093.37 2298,1106.5C 2309.16,1092.84 2319.33,1078.51 2328.5,1063.5 Z"/></g>
<g><path style="opacity:0.932" fill="#313131" d="M 3399.5,1064.5 C 3401.68,1064.28 3403.35,1065.12 3404.5,1067C 3394.2,1081.77 3383.53,1096.27 3372.5,1110.5C 3368.92,1109.83 3368.09,1108.16 3370,1105.5C 3380.44,1092.23 3390.27,1078.57 3399.5,1064.5 Z"/></g>
<g><path style="opacity:0.932" fill="#313131" d="M 183.5,1148.5 C 196.747,1160.24 209.581,1172.58 222,1185.5C 222.167,1188 221,1189.17 218.5,1189C 206.333,1176.83 194.167,1164.67 182,1152.5C 181.7,1150.93 182.2,1149.6 183.5,1148.5 Z"/></g>
<g><path style="opacity:0.963" fill="#313131" d="M 1263.5,1147.5 C 1275.47,1160.3 1287.97,1172.63 1301,1184.5C 1301.72,1186.66 1301.05,1188.33 1299,1189.5C 1285.32,1177.32 1272.48,1164.32 1260.5,1150.5C 1261.77,1149.71 1262.77,1148.71 1263.5,1147.5 Z"/></g>
<g><path style="opacity:0.965" fill="#313131" d="M 2262.5,1147.5 C 2264.51,1148.35 2265.67,1149.68 2266,1151.5C 2254,1164.83 2241.33,1177.5 2228,1189.5C 2225.95,1188.33 2225.28,1186.66 2226,1184.5C 2239.04,1172.96 2251.2,1160.63 2262.5,1147.5 Z"/></g>
<g><path style="opacity:0.932" fill="#313131" d="M 2331.5,1148.5 C 2344.75,1160.24 2357.58,1172.58 2370,1185.5C 2370.17,1188 2369,1189.17 2366.5,1189C 2354.33,1176.83 2342.17,1164.67 2330,1152.5C 2329.7,1150.93 2330.2,1149.6 2331.5,1148.5 Z"/></g>
<g><path style="opacity:0.927" fill="#313131" d="M 1185.5,1148.5 C 1188,1148.83 1189.17,1150.16 1189,1152.5C 1176.83,1164.67 1164.67,1176.83 1152.5,1189C 1150,1189.17 1148.83,1188 1149,1185.5C 1161.37,1173.3 1173.54,1160.97 1185.5,1148.5 Z"/></g>
<g><path style="opacity:0.927" fill="#313131" d="M 3333.5,1148.5 C 3336,1148.83 3337.17,1150.16 3337,1152.5C 3324.83,1164.67 3312.67,1176.83 3300.5,1189C 3298,1189.17 3296.83,1188 3297,1185.5C 3309.37,1173.3 3321.54,1160.97 3333.5,1148.5 Z"/></g>
<g><path style="opacity:0.928" fill="#313131" d="M 1341.5,1220.5 C 1355.42,1231.14 1369.76,1241.31 1384.5,1251C 1385.65,1252.9 1385.15,1254.4 1383,1255.5C 1367.5,1246.17 1353,1235.5 1339.5,1223.5C 1340.19,1222.48 1340.86,1221.48 1341.5,1220.5 Z"/></g>
<g><path style="opacity:0.924" fill="#313131" d="M 2183.5,1220.5 C 2185.38,1220.71 2186.72,1221.71 2187.5,1223.5C 2173.67,1235.34 2159.17,1246.34 2144,1256.5C 2142.08,1254.88 2141.58,1253.05 2142.5,1251C 2156.95,1241.79 2170.61,1231.62 2183.5,1220.5 Z"/></g>
<g><path style="opacity:0.929" fill="#313131" d="M 262.5,1220.5 C 276.453,1231.15 290.786,1241.32 305.5,1251C 306.869,1253.24 306.369,1255.07 304,1256.5C 289.233,1246.2 274.733,1235.53 260.5,1224.5C 261.18,1223.14 261.847,1221.81 262.5,1220.5 Z"/></g>
<g><path style="opacity:0.926" fill="#313131" d="M 1107.5,1220.5 C 1108.96,1221.41 1109.96,1222.74 1110.5,1224.5C 1096.62,1236.02 1082.12,1246.69 1067,1256.5C 1064.63,1255.07 1064.13,1253.24 1065.5,1251C 1080.1,1241.55 1094.1,1231.38 1107.5,1220.5 Z"/></g>
<g><path style="opacity:0.929" fill="#313131" d="M 2410.5,1220.5 C 2424.45,1231.15 2438.79,1241.32 2453.5,1251C 2454.87,1253.24 2454.37,1255.07 2452,1256.5C 2437.23,1246.2 2422.73,1235.53 2408.5,1224.5C 2409.18,1223.14 2409.85,1221.81 2410.5,1220.5 Z"/></g>
<g><path style="opacity:0.926" fill="#313131" d="M 3255.5,1220.5 C 3256.96,1221.41 3257.96,1222.74 3258.5,1224.5C 3244.62,1236.02 3230.12,1246.69 3215,1256.5C 3212.63,1255.07 3212.13,1253.24 3213.5,1251C 3228.1,1241.55 3242.1,1231.38 3255.5,1220.5 Z"/></g>
<g><path style="opacity:0.913" fill="#313131" d="M 351.5,1280.5 C 367.78,1288.64 384.114,1296.81 400.5,1305C 399.853,1306.61 399.02,1308.11 398,1309.5C 381.596,1301.38 365.43,1292.88 349.5,1284C 350.305,1282.89 350.972,1281.72 351.5,1280.5 Z"/></g>
<g><path style="opacity:0.903" fill="#313131" d="M 1017.5,1280.5 C 1019.56,1280.76 1020.9,1281.93 1021.5,1284C 1006.48,1292.51 991.148,1300.51 975.5,1308C 974.056,1308.78 972.723,1308.61 971.5,1307.5C 970.41,1306.39 970.41,1305.39 971.5,1304.5C 987.21,1296.98 1002.54,1288.98 1017.5,1280.5 Z"/></g>
<g><path style="opacity:0.901" fill="#313131" d="M 1429.5,1280.5 C 1445.56,1288.03 1461.56,1295.86 1477.5,1304C 1478.69,1306.94 1477.69,1308.27 1474.5,1308C 1459.1,1300.55 1443.93,1292.72 1429,1284.5C 1428.81,1283.18 1428.97,1281.85 1429.5,1280.5 Z"/></g>
<g><path style="opacity:0.902" fill="#313131" d="M 2094.5,1280.5 C 2097.69,1280.72 2098.69,1282.22 2097.5,1285C 2082.22,1293.29 2066.72,1301.12 2051,1308.5C 2048.85,1307.4 2048.35,1305.9 2049.5,1304C 2064.88,1296.65 2079.88,1288.81 2094.5,1280.5 Z"/></g>
<g><path style="opacity:0.913" fill="#313131" d="M 2499.5,1280.5 C 2515.78,1288.64 2532.11,1296.81 2548.5,1305C 2547.85,1306.61 2547.02,1308.11 2546,1309.5C 2529.6,1301.38 2513.43,1292.88 2497.5,1284C 2498.31,1282.89 2498.97,1281.72 2499.5,1280.5 Z"/></g>
<g><path style="opacity:0.903" fill="#313131" d="M 3165.5,1280.5 C 3167.56,1280.76 3168.9,1281.93 3169.5,1284C 3154.48,1292.51 3139.15,1300.51 3123.5,1308C 3122.06,1308.78 3120.72,1308.61 3119.5,1307.5C 3118.41,1306.39 3118.41,1305.39 3119.5,1304.5C 3135.21,1296.98 3150.54,1288.98 3165.5,1280.5 Z"/></g>
<g><path style="opacity:0.893" fill="#313131" d="M 1527.5,1324.5 C 1543.49,1330.89 1559.83,1336.39 1576.5,1341C 1578.98,1342.59 1579.15,1344.43 1577,1346.5C 1560.39,1341.41 1543.89,1335.91 1527.5,1330C 1526.46,1328.22 1526.46,1326.39 1527.5,1324.5 Z"/></g>
<g><path style="opacity:0.883" fill="#313131" d="M 1996.5,1325.5 C 1998.63,1325.15 1999.97,1325.98 2000.5,1328C 2000.18,1329.65 1999.18,1330.65 1997.5,1331C 1981.7,1336.38 1965.87,1341.54 1950,1346.5C 1947.85,1344.43 1948.02,1342.59 1950.5,1341C 1966.11,1336.3 1981.44,1331.13 1996.5,1325.5 Z"/></g>
<g><path style="opacity:0.905" fill="#313131" d="M 448.5,1325.5 C 466.158,1330.66 483.491,1336.5 500.5,1343C 500.22,1344.4 499.553,1345.56 498.5,1346.5C 481.672,1341.5 465.005,1336 448.5,1330C 447.587,1328.59 447.587,1327.09 448.5,1325.5 Z"/></g>
<g><path style="opacity:0.891" fill="#313131" d="M 918.5,1325.5 C 922.311,1325.18 923.644,1326.68 922.5,1330C 905.995,1336 889.328,1341.5 872.5,1346.5C 870.083,1344.51 870.083,1342.67 872.5,1341C 888.243,1336.7 903.576,1331.53 918.5,1325.5 Z"/></g>
<g><path style="opacity:0.905" fill="#313131" d="M 2596.5,1325.5 C 2614.16,1330.66 2631.49,1336.5 2648.5,1343C 2648.22,1344.4 2647.55,1345.56 2646.5,1346.5C 2629.67,1341.5 2613,1336 2596.5,1330C 2595.59,1328.59 2595.59,1327.09 2596.5,1325.5 Z"/></g>
<g><path style="opacity:0.891" fill="#313131" d="M 3066.5,1325.5 C 3070.31,1325.18 3071.64,1326.68 3070.5,1330C 3054,1336 3037.33,1341.5 3020.5,1346.5C 3018.08,1344.51 3018.08,1342.67 3020.5,1341C 3036.24,1336.7 3051.58,1331.53 3066.5,1325.5 Z"/></g>
<g><path style="opacity:0.881" fill="#313131" d="M 551.5,1354.5 C 569.468,1357.38 587.468,1360.05 605.5,1362.5C 605.5,1364.17 605.5,1365.83 605.5,1367.5C 587.742,1365.32 570.075,1362.48 552.5,1359C 551.62,1357.64 551.286,1356.14 551.5,1354.5 Z"/></g>
<g><path style="opacity:0.87" fill="#313131" d="M 813.5,1354.5 C 815.5,1354.5 817.5,1354.5 819.5,1354.5C 819.5,1356.17 819.5,1357.83 819.5,1359.5C 801.532,1362.38 783.532,1365.05 765.5,1367.5C 765.5,1365.83 765.5,1364.17 765.5,1362.5C 781.762,1360.66 797.762,1357.99 813.5,1354.5 Z"/></g>
<g><path style="opacity:0.88" fill="#313131" d="M 1630.5,1354.5 C 1648.12,1357.49 1665.79,1360.16 1683.5,1362.5C 1683.5,1364.17 1683.5,1365.83 1683.5,1367.5C 1665.74,1365.32 1648.08,1362.48 1630.5,1359C 1629.27,1357.51 1629.27,1356.01 1630.5,1354.5 Z"/></g>
<g><path style="opacity:0.876" fill="#313131" d="M 1891.5,1354.5 C 1893.5,1354.5 1895.5,1354.5 1897.5,1354.5C 1897.71,1356.14 1897.38,1357.64 1896.5,1359C 1878.92,1362.48 1861.26,1365.32 1843.5,1367.5C 1843.5,1365.83 1843.5,1364.17 1843.5,1362.5C 1859.76,1360.66 1875.76,1357.99 1891.5,1354.5 Z"/></g>
<g><path style="opacity:0.881" fill="#313131" d="M 2699.5,1354.5 C 2717.47,1357.38 2735.47,1360.05 2753.5,1362.5C 2753.5,1364.17 2753.5,1365.83 2753.5,1367.5C 2735.74,1365.32 2718.08,1362.48 2700.5,1359C 2699.62,1357.64 2699.29,1356.14 2699.5,1354.5 Z"/></g>
<g><path style="opacity:0.87" fill="#313131" d="M 2961.5,1354.5 C 2963.5,1354.5 2965.5,1354.5 2967.5,1354.5C 2967.5,1356.17 2967.5,1357.83 2967.5,1359.5C 2949.53,1362.38 2931.53,1365.05 2913.5,1367.5C 2913.5,1365.83 2913.5,1364.17 2913.5,1362.5C 2929.76,1360.66 2945.76,1357.99 2961.5,1354.5 Z"/></g>
<g><path style="opacity:0.946" fill="#313131" d="M 712.5,1371.5 C 694.5,1371.5 676.5,1371.5 658.5,1371.5C 658.5,1369.83 658.5,1368.17 658.5,1366.5C 676.5,1367.83 694.5,1367.83 712.5,1366.5C 712.5,1368.17 712.5,1369.83 712.5,1371.5 Z"/></g>
<g><path style="opacity:0.947" fill="#313131" d="M 1790.5,1371.5 C 1772.5,1371.5 1754.5,1371.5 1736.5,1371.5C 1736.5,1369.83 1736.5,1368.17 1736.5,1366.5C 1754.5,1367.83 1772.5,1367.83 1790.5,1366.5C 1790.5,1368.17 1790.5,1369.83 1790.5,1371.5 Z"/></g>
<g><path style="opacity:0.946" fill="#313131" d="M 2860.5,1371.5 C 2842.5,1371.5 2824.5,1371.5 2806.5,1371.5C 2806.5,1369.83 2806.5,1368.17 2806.5,1366.5C 2824.5,1367.83 2842.5,1367.83 2860.5,1366.5C 2860.5,1368.17 2860.5,1369.83 2860.5,1371.5 Z"/></g>
</svg>
