<?xml version="1.0" encoding="UTF-8"?>
<!DOCTYPE svg PUBLIC "-//W3C//DTD SVG 1.1//EN" "http://www.w3.org/Graphics/SVG/1.1/DTD/svg11.dtd">
<svg xmlns="http://www.w3.org/2000/svg" version="1.1" width="2088px" height="1496px" style="shape-rendering:geometricPrecision; text-rendering:geometricPrecision; image-rendering:optimizeQuality; fill-rule:evenodd; clip-rule:evenodd" xmlns:xlink="http://www.w3.org/1999/xlink">
<g><path style="opacity:0.999" fill="#000000" d="M 37.5,-0.5 C 44.5,-0.5 51.5,-0.5 58.5,-0.5C 38.5423,5.29189 25.709,18.2919 20,38.5C 19.3333,501.5 19.3333,964.5 20,1427.5C 25.0656,1448.23 37.899,1461.4 58.5,1467C 721.5,1467.67 1384.5,1467.67 2047.5,1467C 2068.68,1461.65 2082.01,1448.49 2087.5,1427.5C 2087.5,1437.5 2087.5,1447.5 2087.5,1457.5C 2081.81,1477.19 2069.14,1489.86 2049.5,1495.5C 1378.83,1495.5 708.167,1495.5 37.5,1495.5C 17.807,1489.81 5.14032,1477.14 -0.5,1457.5C -0.5,984.167 -0.5,510.833 -0.5,37.5C 5.193,17.807 17.8597,5.14032 37.5,-0.5 Z"/></g>
<g><path style="opacity:1" fill="#fefefe" d="M 58.5,-0.5 C 722.167,-0.5 1385.83,-0.5 2049.5,-0.5C 2069.19,5.193 2081.86,17.8597 2087.5,37.5C 2087.5,500.833 2087.5,964.167 2087.5,1427.5C 2082.01,1448.49 2068.68,1461.65 2047.5,1467C 1384.5,1467.67 721.5,1467.67 58.5,1467C 37.899,1461.4 25.0656,1448.23 20,1427.5C 19.3333,964.5 19.3333,501.5 20,38.5C 25.709,18.2919 38.5423,5.29189 58.5,-0.5 Z"/></g>
</svg>
