<?xml version="1.0" encoding="UTF-8"?>
<!DOCTYPE svg PUBLIC "-//W3C//DTD SVG 1.1//EN" "http://www.w3.org/Graphics/SVG/1.1/DTD/svg11.dtd">
<svg xmlns="http://www.w3.org/2000/svg" version="1.1" width="527px" height="382px" style="shape-rendering:geometricPrecision; text-rendering:geometricPrecision; image-rendering:optimizeQuality; fill-rule:evenodd; clip-rule:evenodd" xmlns:xlink="http://www.w3.org/1999/xlink">
<g><path style="opacity:0.996" fill="#000000" d="M 11.5,-0.5 C 180.167,-0.5 348.833,-0.5 517.5,-0.5C 521.5,1.5 524.5,4.5 526.5,8.5C 526.5,127.833 526.5,247.167 526.5,366.5C 523.21,372.087 519.21,377.087 514.5,381.5C 345.167,381.5 175.833,381.5 6.5,381.5C 3.83333,379.5 1.5,377.167 -0.5,374.5C -0.5,254.5 -0.5,134.5 -0.5,14.5C 1.78552,11.5373 3.61885,8.20395 5,4.5C 6.96514,2.44965 9.13181,0.782988 11.5,-0.5 Z"/></g>
<g><path style="opacity:1" fill="#97bec4" d="M 12.5,0.5 C 180.5,0.333334 348.5,0.500001 516.5,1C 520.667,2.5 523.5,5.33333 525,9.5C 525.667,128.167 525.667,246.833 525,365.5C 523.402,370.099 520.235,372.932 515.5,374C 347.833,374.667 180.167,374.667 12.5,374C 7.90139,372.402 5.06805,369.235 4,364.5C 3.33333,246.167 3.33333,127.833 4,9.5C 5.68784,5.31481 8.52117,2.31481 12.5,0.5 Z"/></g>
<g><path style="opacity:1" fill="#0d0e0e" d="M 324.5,170.5 C 323.833,170.5 323.167,170.5 322.5,170.5C 317.526,172.652 312.526,174.819 307.5,177C 306.359,177.741 306.359,178.575 307.5,179.5C 255.982,202.758 204.315,225.758 152.5,248.5C 151.784,247.689 150.95,247.022 150,246.5C 142.404,249.043 135.571,252.71 129.5,257.5C 127.589,257.426 126.422,256.426 126,254.5C 117.283,207.533 108.783,160.533 100.5,113.5C 100.334,109.486 100.501,105.486 101,101.5C 102.045,100.627 102.878,99.6266 103.5,98.5C 166.53,71.5376 229.863,45.0376 293.5,19C 296.956,17.877 299.79,18.7104 302,21.5C 310.239,71.0809 317.739,120.748 324.5,170.5 Z"/></g>
<g><path style="opacity:1" fill="#07454c" d="M 300.5,30.5 C 299.127,30.3433 297.793,30.51 296.5,31C 232.593,57.7888 168.593,84.2888 104.5,110.5C 103.214,107.665 103.214,104.832 104.5,102C 133.749,89.8637 163.083,78.0303 192.5,66.5C 192.281,67.675 192.614,68.675 193.5,69.5C 199.833,66.8333 206.167,64.1667 212.5,61.5C 213.08,59.3633 214.08,57.53 215.5,56C 243.275,44.1337 271.275,32.967 299.5,22.5C 299.279,25.2788 299.612,27.9455 300.5,30.5 Z"/></g>
<g><path style="opacity:1" fill="#9c9894" d="M 290.5,26.5 C 291.5,26.5 292.5,26.5 293.5,26.5C 293.833,29.5 292.5,30.8333 289.5,30.5C 289.433,29.0413 289.766,27.7079 290.5,26.5 Z"/></g>
<g><path style="opacity:1" fill="#f7f8f8" d="M 300.5,30.5 C 307.633,74.4292 314.299,118.429 320.5,162.5C 256.5,190.167 192.5,217.833 128.5,245.5C 120.823,200.441 112.823,155.441 104.5,110.5C 168.593,84.2888 232.593,57.7888 296.5,31C 297.793,30.51 299.127,30.3433 300.5,30.5 Z"/></g>
<g><path style="opacity:1" fill="#f58f8e" d="M 277.5,54.5 C 279.337,54.6395 279.67,55.3061 278.5,56.5C 277.702,56.0431 277.369,55.3764 277.5,54.5 Z"/></g>
<g><path style="opacity:1" fill="#3c6f75" d="M 284.5,60.5 C 286.369,62.6353 287.036,65.3019 286.5,68.5C 282.824,69.3371 279.324,70.6704 276,72.5C 275.178,69.8832 274.678,67.2165 274.5,64.5C 278.116,63.6857 281.449,62.3523 284.5,60.5 Z"/></g>
<g><path style="opacity:1" fill="#427379" d="M 269.5,66.5 C 270.822,66.33 271.989,66.6634 273,67.5C 273.808,69.5787 273.641,71.5787 272.5,73.5C 269.104,75.6315 265.437,76.9649 261.5,77.5C 261.337,75.1432 261.503,72.8098 262,70.5C 264.633,69.2475 267.133,67.9142 269.5,66.5 Z"/></g>
<g><path style="opacity:1" fill="#47777d" d="M 257.5,71.5 C 259.693,73.5223 260.693,76.1889 260.5,79.5C 256.716,80.4289 253.049,81.7622 249.5,83.5C 248.41,81.2095 247.91,78.8762 248,76.5C 251.388,75.1047 254.555,73.438 257.5,71.5 Z"/></g>
<g><path style="opacity:1" fill="#44757a" d="M 271.5,75.5 C 272.5,75.5 273.5,75.5 274.5,75.5C 274.318,77.5914 274.652,79.5914 275.5,81.5C 271.822,83.9479 267.822,85.6146 263.5,86.5C 262.943,84.0509 262.943,81.7175 263.5,79.5C 266.507,78.6633 269.174,77.3299 271.5,75.5 Z"/></g>
<g><path style="opacity:1" fill="#44757a" d="M 257.5,81.5 C 258.822,81.33 259.989,81.6634 261,82.5C 261.808,84.5787 261.641,86.5787 260.5,88.5C 256.951,90.2378 253.284,91.5711 249.5,92.5C 249.337,90.1432 249.503,87.8098 250,85.5C 252.514,83.9958 255.014,82.6624 257.5,81.5 Z"/></g>
<g><path style="opacity:1" fill="#9e877b" d="M 213.5,88.5 C 218.508,89.01 219.508,91.1766 216.5,95C 209.842,95.5313 208.842,93.3646 213.5,88.5 Z"/></g>
<g><path style="opacity:1" fill="#f1f4f4" d="M 294.5,103.5 C 296.045,104.23 296.878,105.563 297,107.5C 300.11,126.154 302.777,144.82 305,163.5C 278.446,175.52 251.613,187.187 224.5,198.5C 221.773,179.306 218.773,160.139 215.5,141C 215.833,139.833 216.167,138.667 216.5,137.5C 242.615,126.353 268.615,115.02 294.5,103.5 Z"/></g>
<g><path style="opacity:1" fill="#3d4245" d="M 103.5,98.5 C 102.878,99.6266 102.045,100.627 101,101.5C 100.501,105.486 100.334,109.486 100.5,113.5C 98.5663,109.29 98.3996,104.957 100,100.5C 100.816,99.1772 101.983,98.5106 103.5,98.5 Z"/></g>
<g><path style="opacity:1" fill="#4f7d82" d="M 165.5,112.5 C 166.675,112.281 167.675,112.614 168.5,113.5C 165.131,115.864 161.464,117.031 157.5,117C 160.191,115.395 162.858,113.895 165.5,112.5 Z"/></g>
<g><path style="opacity:1" fill="#175157" d="M 280.5,126.5 C 280.768,124.901 280.434,123.568 279.5,122.5C 279.414,121.504 279.748,120.671 280.5,120C 283.952,118.774 287.285,117.274 290.5,115.5C 292.229,117.851 292.896,120.518 292.5,123.5C 288.716,124.429 285.049,125.762 281.5,127.5C 280.893,127.376 280.56,127.043 280.5,126.5 Z"/></g>
<g><path style="opacity:1" fill="#a7a7a7" d="M 150.5,115.5 C 153.244,116.072 154.077,117.738 153,120.5C 149.408,121.446 145.741,123.113 142,125.5C 141.986,123.529 142.319,121.529 143,119.5C 145.849,118.622 148.349,117.289 150.5,115.5 Z"/></g>
<g><path style="opacity:1" fill="#155057" d="M 278.5,125.5 C 278.5,126.833 278.5,128.167 278.5,129.5C 274.824,130.337 271.324,131.67 268,133.5C 267.802,131.618 267.302,129.952 266.5,128.5C 266.281,127.325 266.614,126.325 267.5,125.5C 271.09,123.868 274.757,122.534 278.5,121.5C 278.5,122.833 278.5,124.167 278.5,125.5 Z"/></g>
<g><path style="opacity:1" fill="#a3a3a3" d="M 138.5,120.5 C 140.786,121.34 141.119,122.84 139.5,125C 138.303,126.52 136.803,127.687 135,128.5C 135.128,126.555 134.962,124.722 134.5,123C 134.833,122.833 135.167,122.667 135.5,122.5C 136.167,123.5 136.833,124.5 137.5,125.5C 137.973,123.753 138.307,122.086 138.5,120.5 Z"/></g>
<g><path style="opacity:1" fill="#ef7656" d="M 171.5,122.5 C 173.337,122.639 173.67,123.306 172.5,124.5C 168.608,126.029 164.775,127.696 161,129.5C 160.5,129.167 160,128.833 159.5,128.5C 163.561,126.47 167.561,124.47 171.5,122.5 Z"/></g>
<g><path style="opacity:1" fill="#b3b3b3" d="M 130.5,124.5 C 132.759,125.344 133.759,127.011 133.5,129.5C 131.323,129.586 129.323,130.253 127.5,131.5C 125.687,127.81 126.687,125.476 130.5,124.5 Z"/></g>
<g><path style="opacity:1" fill="#175158" d="M 265.5,132.5 C 263.49,135.027 260.823,136.861 257.5,138C 255.807,138.484 254.473,137.984 253.5,136.5C 253.261,134.533 253.594,132.699 254.5,131C 257.758,129.533 261.092,128.367 264.5,127.5C 264.629,129.216 264.962,130.883 265.5,132.5 Z"/></g>
<g><path style="opacity:1" fill="#ff916b" d="M 171.5,128.5 C 172.773,129.077 172.773,129.743 171.5,130.5C 168.109,132.798 164.442,133.965 160.5,134C 164.192,132.058 167.858,130.224 171.5,128.5 Z"/></g>
<g><path style="opacity:1" fill="#c9d7d9" d="M 279.5,122.5 C 280.434,123.568 280.768,124.901 280.5,126.5C 279.566,127.568 279.232,128.901 279.5,130.5C 275.931,132.119 272.264,133.452 268.5,134.5C 268.5,136.167 268.5,137.833 268.5,139.5C 267.662,139.842 267.328,140.508 267.5,141.5C 266.837,139.958 266.17,138.291 265.5,136.5C 262.141,137.849 258.808,139.182 255.5,140.5C 254.194,139.533 253.527,138.199 253.5,136.5C 254.473,137.984 255.807,138.484 257.5,138C 260.823,136.861 263.49,135.027 265.5,132.5C 266.434,131.432 266.768,130.099 266.5,128.5C 267.302,129.952 267.802,131.618 268,133.5C 271.324,131.67 274.824,130.337 278.5,129.5C 278.5,128.167 278.5,126.833 278.5,125.5C 279.404,124.791 279.737,123.791 279.5,122.5 Z"/></g>
<g><path style="opacity:1" fill="#165157" d="M 279.5,130.5 C 280.092,133.127 280.425,135.794 280.5,138.5C 276.716,139.429 273.049,140.762 269.5,142.5C 268.614,141.675 268.281,140.675 268.5,139.5C 268.5,137.833 268.5,136.167 268.5,134.5C 272.264,133.452 275.931,132.119 279.5,130.5 Z"/></g>
<g><path style="opacity:1" fill="#ffb49c" d="M 172.5,133.5 C 174.549,133.706 174.883,134.539 173.5,136C 169.942,137.362 166.442,138.862 163,140.5C 162.5,140.167 162,139.833 161.5,139.5C 165.237,137.489 168.904,135.489 172.5,133.5 Z"/></g>
<g><path style="opacity:1" fill="#5b868a" d="M 291.5,135.5 C 293.048,135.821 293.715,136.821 293.5,138.5C 290.752,138.598 290.086,137.598 291.5,135.5 Z"/></g>
<g><path style="opacity:1" fill="#185259" d="M 267.5,141.5 C 267.631,142.376 267.298,143.043 266.5,143.5C 263.045,145.311 259.545,146.978 256,148.5C 255.627,146.302 255.127,144.135 254.5,142C 254.57,141.235 254.903,140.735 255.5,140.5C 258.808,139.182 262.141,137.849 265.5,136.5C 266.17,138.291 266.837,139.958 267.5,141.5 Z"/></g>
<g><path style="opacity:1" fill="#303232" d="M 413.5,116.5 C 416.676,118.179 418.343,120.846 418.5,124.5C 415.265,136.541 411.265,148.207 406.5,159.5C 409.009,148.303 412.342,137.303 416.5,126.5C 415.804,123.045 414.804,119.712 413.5,116.5 Z"/></g>
<g><path style="opacity:1" fill="#8f796f" d="M 226.5,141.5 C 234.248,141.149 235.582,144.315 230.5,151C 225.502,152.33 223.336,150.496 224,145.5C 224.48,143.867 225.313,142.534 226.5,141.5 Z"/></g>
<g><path style="opacity:1" fill="#b0b2b2" d="M 240.5,149.5 C 241.289,149.783 241.956,150.283 242.5,151C 239.246,152.027 236.246,153.527 233.5,155.5C 232.614,154.675 232.281,153.675 232.5,152.5C 235.443,152.02 238.11,151.02 240.5,149.5 Z"/></g>
<g><path style="opacity:1" fill="#969696" d="M 156.5,172.5 C 158.484,172.484 159.484,173.484 159.5,175.5C 159.292,178.185 158.125,178.851 156,177.5C 155.667,178.167 155.333,178.833 155,179.5C 154.333,174.167 153.667,174.167 153,179.5C 149.538,182.244 148.038,181.244 148.5,176.5C 151.806,176.181 154.473,174.847 156.5,172.5 Z"/></g>
<g><path style="opacity:1" fill="#ffa88c" d="M 191.5,178.5 C 196.938,177.451 199.938,179.618 200.5,185C 200.343,190.506 197.676,194.006 192.5,195.5C 188.252,194.853 186.252,192.353 186.5,188C 186.726,184.046 188.393,180.879 191.5,178.5 Z"/></g>
<g><path style="opacity:1" fill="#333435" d="M 401.5,172.5 C 401.66,174.199 401.494,175.866 401,177.5C 395.893,191.386 391.06,205.386 386.5,219.5C 384.795,222.261 383.462,225.261 382.5,228.5C 381.957,228.44 381.624,228.107 381.5,227.5C 387.406,208.773 394.072,190.44 401.5,172.5 Z"/></g>
<g><path style="opacity:1" fill="#212022" d="M 322.5,170.5 C 319.245,176.008 316.245,181.675 313.5,187.5C 300.316,193.261 287.316,199.261 274.5,205.5C 236.764,221.688 199.264,238.354 162,255.5C 161.837,257.387 162.671,258.887 164.5,260C 178.999,272.667 192.999,285.834 206.5,299.5C 199.829,302.502 193.162,305.502 186.5,308.5C 185.169,307.408 184.336,306.074 184,304.5C 183.282,305.451 182.449,305.617 181.5,305C 171.011,294.618 159.677,283.785 147.5,272.5C 151.958,278.489 157.292,284.323 163.5,290C 162.181,290.195 160.847,290.028 159.5,289.5C 150.505,280.672 141.338,272.005 132,263.5C 131.062,261.512 130.228,259.512 129.5,257.5C 135.571,252.71 142.404,249.043 150,246.5C 150.95,247.022 151.784,247.689 152.5,248.5C 204.315,225.758 255.982,202.758 307.5,179.5C 306.359,178.575 306.359,177.741 307.5,177C 312.526,174.819 317.526,172.652 322.5,170.5 Z"/></g>
<g><path style="opacity:1" fill="#43747a" d="M 247.5,175.5 C 251.029,176.609 251.362,178.442 248.5,181C 242.638,183.675 236.638,185.842 230.5,187.5C 230.286,185.856 230.62,184.356 231.5,183C 237.045,180.725 242.378,178.225 247.5,175.5 Z"/></g>
<g><path style="opacity:1" fill="#999999" d="M 137.5,182.5 C 138.868,180.221 140.702,179.554 143,180.5C 144,179.5 145,178.5 146,177.5C 146.273,179.329 147.107,180.829 148.5,182C 147.007,183.368 145.507,183.535 144,182.5C 143.667,183.167 143.333,183.833 143,184.5C 140.942,183.891 140.109,182.891 140.5,181.5C 139.583,182.127 138.583,182.461 137.5,182.5 Z"/></g>
<g><path style="opacity:1" fill="#ee6e4d" d="M 171.5,182.5 C 178.307,182.4 181.974,185.734 182.5,192.5C 182.521,202.14 177.854,207.14 168.5,207.5C 168.5,206.5 168.5,205.5 168.5,204.5C 177.836,203.875 181.336,198.875 179,189.5C 176.804,186.875 173.97,185.875 170.5,186.5C 170.433,185.041 170.766,183.708 171.5,182.5 Z"/></g>
<g><path style="opacity:1" fill="#929292" d="M 137.5,182.5 C 138.028,183.721 138.695,184.887 139.5,186C 138.975,186.692 138.308,187.192 137.5,187.5C 136.742,186.043 136.742,184.376 137.5,182.5 Z"/></g>
<g><path style="opacity:1" fill="#504d52" d="M 322.5,170.5 C 323.167,170.5 323.833,170.5 324.5,170.5C 325.873,170.343 327.207,170.51 328.5,171C 331.72,173.437 335.053,175.603 338.5,177.5C 335.676,184.659 332.676,191.659 329.5,198.5C 325.648,194.814 321.648,191.314 317.5,188C 316.207,187.51 314.873,187.343 313.5,187.5C 316.245,181.675 319.245,176.008 322.5,170.5 Z"/></g>
<g><path style="opacity:1" fill="#111111" d="M 413.5,116.5 C 414.804,119.712 415.804,123.045 416.5,126.5C 412.342,137.303 409.009,148.303 406.5,159.5C 405.008,163.987 403.342,168.32 401.5,172.5C 394.072,190.44 387.406,208.773 381.5,227.5C 381.624,228.107 381.957,228.44 382.5,228.5C 380.042,235.73 375.042,238.23 367.5,236C 364.595,234.963 361.761,233.796 359,232.5C 351.027,235.879 343.193,239.546 335.5,243.5C 334.391,243.557 333.391,243.89 332.5,244.5C 329.101,246.199 325.768,247.866 322.5,249.5C 314.5,252.833 306.5,256.167 298.5,259.5C 297.85,259.196 297.183,258.863 296.5,258.5C 286.768,263.48 276.768,266.813 266.5,268.5C 268.269,266.443 270.269,264.61 272.5,263C 280.727,258.266 289.06,253.766 297.5,249.5C 298.833,248.833 298.833,248.167 297.5,247.5C 292.251,252.099 287.917,251.432 284.5,245.5C 286.847,244.288 289.347,243.621 292,243.5C 294.756,244.01 297.256,244.843 299.5,246C 297.833,244.333 296.167,242.667 294.5,241C 297.167,239.333 299.833,237.667 302.5,236C 300.5,236 298.5,236 296.5,236C 295.315,234.647 293.981,233.48 292.5,232.5C 291.771,234.595 292.437,236.428 294.5,238C 292.167,239.167 289.833,240.333 287.5,241.5C 285.35,239.851 283.35,238.018 281.5,236C 284.485,234.336 287.485,232.669 290.5,231C 287.037,230.212 284.037,228.546 281.5,226C 276.173,226.618 271.84,224.951 268.5,221C 271.854,218.968 275.187,216.968 278.5,215C 276.325,215.049 274.158,215.549 272,216.5C 269.704,215.372 267.871,213.705 266.5,211.5C 269.279,209.778 272.279,208.611 275.5,208C 274.748,207.329 274.414,206.496 274.5,205.5C 287.316,199.261 300.316,193.261 313.5,187.5C 314.873,187.343 316.207,187.51 317.5,188C 321.648,191.314 325.648,194.814 329.5,198.5C 332.676,191.659 335.676,184.659 338.5,177.5C 345.828,154.349 353.662,131.349 362,108.5C 364.919,102.975 369.419,101.142 375.5,103C 388.228,107.409 400.895,111.909 413.5,116.5 Z"/></g>
<g><path style="opacity:1" fill="#f6f7f6" d="M 336.5,188.5 C 352.72,194.775 369.054,200.775 385.5,206.5C 383.077,215.533 379.744,224.2 375.5,232.5C 374.389,233.611 373.055,234.278 371.5,234.5C 367.705,233.432 364.038,232.098 360.5,230.5C 361.598,229.603 361.598,228.77 360.5,228C 354.392,226.112 348.392,223.945 342.5,221.5C 341.583,222.127 340.583,222.461 339.5,222.5C 333.257,222.388 329.257,219.388 327.5,213.5C 330.276,204.976 333.276,196.643 336.5,188.5 Z"/></g>
<g><path style="opacity:1" fill="#04464d" d="M 360.5,120.5 C 360.369,121.376 360.702,122.043 361.5,122.5C 377.395,128.575 393.395,134.242 409.5,139.5C 401.503,161.822 393.503,184.156 385.5,206.5C 369.054,200.775 352.72,194.775 336.5,188.5C 343.932,165.532 351.932,142.865 360.5,120.5 Z"/></g>
<g><path style="opacity:1" fill="#45767b" d="M 355.5,184.5 C 362.833,187.224 370.166,190.057 377.5,193C 370.25,191.933 363.25,189.766 356.5,186.5C 355.702,186.043 355.369,185.376 355.5,184.5 Z"/></g>
<g><path style="opacity:1" fill="#674f43" d="M 369.5,150.5 C 371.124,150.36 372.29,151.027 373,152.5C 373.561,151.978 374.228,151.645 375,151.5C 377.216,152.601 379.216,153.934 381,155.5C 384.11,154.327 384.277,154.827 381.5,157C 384.044,158.099 384.044,159.265 381.5,160.5C 380.554,158.058 379.054,156.058 377,154.5C 375.678,157.888 373.845,158.221 371.5,155.5C 369.456,156.98 368.122,156.48 367.5,154C 367.978,152.697 368.645,151.531 369.5,150.5 Z"/></g>
<g><path style="opacity:1" fill="#02434a" d="M 412.5,128.5 C 396.437,122.256 380.104,116.589 363.5,111.5C 363.893,106.942 366.393,104.608 371,104.5C 384.401,108.282 397.568,112.782 410.5,118C 414.8,121.017 415.467,124.517 412.5,128.5 Z"/></g>
<g><path style="opacity:1" fill="#33696f" d="M 363.5,111.5 C 380.104,116.589 396.437,122.256 412.5,128.5C 411.301,132.099 410.301,135.765 409.5,139.5C 393.395,134.242 377.395,128.575 361.5,122.5C 360.702,122.043 360.369,121.376 360.5,120.5C 360.928,117.215 361.928,114.215 363.5,111.5 Z"/></g>
<g><path style="opacity:1" fill="#000505" d="M 382.5,110.5 C 387.323,111.218 391.99,112.551 396.5,114.5C 398.002,116.833 397.502,118.499 395,119.5C 390.757,118.197 386.59,116.697 382.5,115C 381.272,113.51 381.272,112.01 382.5,110.5 Z"/></g>
<g><path style="opacity:1" fill="#f7a9aa" d="M 347.5,215.5 C 350.168,216.004 352.834,217.337 355.5,219.5C 352.286,220.11 349.286,219.277 346.5,217C 347.056,216.617 347.389,216.117 347.5,215.5 Z"/></g>
<g><path style="opacity:1" fill="#b5babb" d="M 360.5,230.5 C 353.257,228.201 346.257,225.535 339.5,222.5C 340.583,222.461 341.583,222.127 342.5,221.5C 348.392,223.945 354.392,226.112 360.5,228C 361.598,228.77 361.598,229.603 360.5,230.5 Z"/></g>
<g><path style="opacity:1" fill="#0d0d0d" d="M 274.5,205.5 C 274.414,206.496 274.748,207.329 275.5,208C 272.279,208.611 269.279,209.778 266.5,211.5C 267.871,213.705 269.704,215.372 272,216.5C 274.158,215.549 276.325,215.049 278.5,215C 275.187,216.968 271.854,218.968 268.5,221C 271.84,224.951 276.173,226.618 281.5,226C 284.037,228.546 287.037,230.212 290.5,231C 287.485,232.669 284.485,234.336 281.5,236C 283.35,238.018 285.35,239.851 287.5,241.5C 289.833,240.333 292.167,239.167 294.5,238C 292.437,236.428 291.771,234.595 292.5,232.5C 293.981,233.48 295.315,234.647 296.5,236C 298.5,236 300.5,236 302.5,236C 299.833,237.667 297.167,239.333 294.5,241C 296.167,242.667 297.833,244.333 299.5,246C 297.256,244.843 294.756,244.01 292,243.5C 289.347,243.621 286.847,244.288 284.5,245.5C 287.917,251.432 292.251,252.099 297.5,247.5C 298.833,248.167 298.833,248.833 297.5,249.5C 289.06,253.766 280.727,258.266 272.5,263C 270.269,264.61 268.269,266.443 266.5,268.5C 276.768,266.813 286.768,263.48 296.5,258.5C 297.183,258.863 297.85,259.196 298.5,259.5C 296.365,261.071 294.032,262.404 291.5,263.5C 265.188,275.321 238.855,287.155 212.5,299C 210.527,299.495 208.527,299.662 206.5,299.5C 192.999,285.834 178.999,272.667 164.5,260C 162.671,258.887 161.837,257.387 162,255.5C 199.264,238.354 236.764,221.688 274.5,205.5 Z"/></g>
<g><path style="opacity:1" fill="#535055" d="M 386.5,219.5 C 387.543,222.056 389.21,224.223 391.5,226C 404.427,237.049 417.26,248.215 430,259.5C 430.789,261.712 430.622,263.712 429.5,265.5C 429.631,264.761 429.464,264.094 429,263.5C 417.007,269.58 404.841,275.247 392.5,280.5C 391.127,280.657 389.793,280.49 388.5,280C 382.083,271.581 374.416,264.581 365.5,259C 359.8,257.964 354.467,255.964 349.5,253C 346.066,250.565 342.4,248.565 338.5,247C 336.937,246.241 335.937,245.074 335.5,243.5C 343.193,239.546 351.027,235.879 359,232.5C 361.761,233.796 364.595,234.963 367.5,236C 375.042,238.23 380.042,235.73 382.5,228.5C 383.462,225.261 384.795,222.261 386.5,219.5 Z"/></g>
<g><path style="opacity:1" fill="#2b292c" d="M 332.5,244.5 C 348.167,258.5 363.833,272.5 379.5,286.5C 364.21,294.311 348.544,301.311 332.5,307.5C 332.082,306.778 331.416,306.278 330.5,306C 337.963,303.178 338.296,299.511 331.5,295C 331.833,294.667 332.167,294.333 332.5,294C 331.157,290.161 329.157,286.661 326.5,283.5C 326.709,282.914 327.043,282.414 327.5,282C 326.056,280.237 325.056,278.237 324.5,276C 324.203,268.28 324.537,260.447 325.5,252.5C 325.57,250.334 324.904,250.001 323.5,251.5C 323.213,250.8 322.88,250.133 322.5,249.5C 325.768,247.866 329.101,246.199 332.5,244.5 Z"/></g>
<g><path style="opacity:1" fill="#3c393d" d="M 335.5,243.5 C 335.937,245.074 336.937,246.241 338.5,247C 342.4,248.565 346.066,250.565 349.5,253C 354.467,255.964 359.8,257.964 365.5,259C 374.416,264.581 382.083,271.581 388.5,280C 389.793,280.49 391.127,280.657 392.5,280.5C 388.414,282.87 384.081,284.87 379.5,286.5C 363.833,272.5 348.167,258.5 332.5,244.5C 333.391,243.89 334.391,243.557 335.5,243.5 Z"/></g>
<g><path style="opacity:1" fill="#383639" d="M 322.5,249.5 C 322.88,250.133 323.213,250.8 323.5,251.5C 324.904,250.001 325.57,250.334 325.5,252.5C 324.537,260.447 324.203,268.28 324.5,276C 325.056,278.237 326.056,280.237 327.5,282C 327.043,282.414 326.709,282.914 326.5,283.5C 329.157,286.661 331.157,290.161 332.5,294C 332.167,294.333 331.833,294.667 331.5,295C 338.296,299.511 337.963,303.178 330.5,306C 331.416,306.278 332.082,306.778 332.5,307.5C 301.613,323.108 270.28,337.942 238.5,352C 235.036,352.817 231.702,352.483 228.5,351C 225.629,348.297 222.962,345.464 220.5,342.5C 220.953,341.542 221.619,340.708 222.5,340C 222.167,339.667 221.833,339.333 221.5,339C 222.5,338.167 223.5,337.333 224.5,336.5C 224.291,335.914 223.957,335.414 223.5,335C 226.829,333.447 229.829,331.447 232.5,329C 232.167,328.667 231.833,328.333 231.5,328C 234.008,327.346 236.174,326.179 238,324.5C 238.333,324.833 238.667,325.167 239,325.5C 239.684,324.216 239.517,323.049 238.5,322C 239.449,321.383 240.282,321.549 241,322.5C 242.574,321.016 243.907,319.349 245,317.5C 245.333,317.833 245.667,318.167 246,318.5C 248.278,314.579 251.444,311.412 255.5,309C 255.5,308 255.5,307 255.5,306C 258.686,301.627 261.853,301.794 265,306.5C 269.011,304.826 271.011,301.826 271,297.5C 276.679,290.662 280.179,283.162 281.5,275C 282.966,273.448 283.966,271.614 284.5,269.5C 287.246,267.527 290.246,266.027 293.5,265C 292.584,264.722 291.918,264.222 291.5,263.5C 294.032,262.404 296.365,261.071 298.5,259.5C 306.5,256.167 314.5,252.833 322.5,249.5 Z"/></g>
<g><path style="opacity:1" fill="#302e31" d="M 291.5,263.5 C 291.918,264.222 292.584,264.722 293.5,265C 290.246,266.027 287.246,267.527 284.5,269.5C 283.966,271.614 282.966,273.448 281.5,275C 280.179,283.162 276.679,290.662 271,297.5C 271.011,301.826 269.011,304.826 265,306.5C 261.853,301.794 258.686,301.627 255.5,306C 255.5,307 255.5,308 255.5,309C 251.444,311.412 248.278,314.579 246,318.5C 245.667,318.167 245.333,317.833 245,317.5C 243.907,319.349 242.574,321.016 241,322.5C 240.282,321.549 239.449,321.383 238.5,322C 239.517,323.049 239.684,324.216 239,325.5C 238.667,325.167 238.333,324.833 238,324.5C 236.174,326.179 234.008,327.346 231.5,328C 231.833,328.333 232.167,328.667 232.5,329C 229.829,331.447 226.829,333.447 223.5,335C 223.957,335.414 224.291,335.914 224.5,336.5C 223.5,337.333 222.5,338.167 221.5,339C 221.833,339.333 222.167,339.667 222.5,340C 221.619,340.708 220.953,341.542 220.5,342.5C 202.068,326.238 184.068,309.405 166.5,292C 165.251,291.26 164.251,291.427 163.5,292.5C 161.77,291.974 160.436,290.974 159.5,289.5C 160.847,290.028 162.181,290.195 163.5,290C 157.292,284.323 151.958,278.489 147.5,272.5C 159.677,283.785 171.011,294.618 181.5,305C 182.449,305.617 183.282,305.451 184,304.5C 184.336,306.074 185.169,307.408 186.5,308.5C 193.162,305.502 199.829,302.502 206.5,299.5C 208.527,299.662 210.527,299.495 212.5,299C 238.855,287.155 265.188,275.321 291.5,263.5 Z"/></g>
<g><path style="opacity:1" fill="#181719" d="M 429.5,265.5 C 429.586,266.496 429.252,267.329 428.5,268C 363.857,298.71 298.857,328.543 233.5,357.5C 232.5,357.333 231.5,357.167 230.5,357C 207.664,335.997 185.331,314.497 163.5,292.5C 164.251,291.427 165.251,291.26 166.5,292C 184.068,309.405 202.068,326.238 220.5,342.5C 222.962,345.464 225.629,348.297 228.5,351C 231.702,352.483 235.036,352.817 238.5,352C 270.28,337.942 301.613,323.108 332.5,307.5C 348.544,301.311 364.21,294.311 379.5,286.5C 384.081,284.87 388.414,282.87 392.5,280.5C 404.841,275.247 417.007,269.58 429,263.5C 429.464,264.094 429.631,264.761 429.5,265.5 Z"/></g>
</svg>
