<?xml version="1.0" encoding="UTF-8"?>
<!DOCTYPE svg PUBLIC "-//W3C//DTD SVG 1.1//EN" "http://www.w3.org/Graphics/SVG/1.1/DTD/svg11.dtd">
<svg xmlns="http://www.w3.org/2000/svg" version="1.1" width="439px" height="247px" style="shape-rendering:geometricPrecision; text-rendering:geometricPrecision; image-rendering:optimizeQuality; fill-rule:evenodd; clip-rule:evenodd" xmlns:xlink="http://www.w3.org/1999/xlink">
<g><path style="opacity:1" fill="#fe4b54" d="M 0.5,-0.5 C 146.167,-0.5 291.833,-0.5 437.5,-0.5C 437.5,81.1667 437.5,162.833 437.5,244.5C 291.833,244.5 146.167,244.5 0.5,244.5C 0.5,163.167 0.5,81.8333 0.5,0.5C 0.5,0.166667 0.5,-0.166667 0.5,-0.5 Z"/></g>
<g><path style="opacity:1" fill="#ffb2b4" d="M 228.5,30.5 C 230.388,32.9878 231.055,35.9878 230.5,39.5C 225.673,40.1521 223.84,38.1521 225,33.5C 226.729,33.0257 227.895,32.0257 228.5,30.5 Z"/></g>
<g><path style="opacity:1" fill="#ffc9cb" d="M 291.5,32.5 C 292.978,32.238 294.311,32.5713 295.5,33.5C 294.738,33.9106 293.738,34.0773 292.5,34C 291.809,35.0674 291.309,36.2341 291,37.5C 290.36,35.735 290.527,34.0683 291.5,32.5 Z"/></g>
<g><path style="opacity:1" fill="#ffc9cb" d="M 238.5,30.5 C 241.598,30.4125 241.932,30.9125 239.5,32C 239.833,32.3333 240.167,32.6667 240.5,33C 239.751,34.7337 239.251,36.567 239,38.5C 238.048,35.6993 237.882,33.0326 238.5,30.5 Z"/></g>
<g><path style="opacity:1" fill="#ffd0d1" d="M 268.5,32.5 C 269.451,33.9187 269.784,35.5853 269.5,37.5C 270.5,37.5 271.5,37.5 272.5,37.5C 272.34,35.8008 272.506,34.1341 273,32.5C 274.026,35.5934 273.193,37.9268 270.5,39.5C 269.914,39.2907 269.414,38.9574 269,38.5C 268.505,36.5273 268.338,34.5273 268.5,32.5 Z"/></g>
<g><path style="opacity:1" fill="#ffc5c8" d="M 276.5,35.5 C 275.596,34.791 275.263,33.791 275.5,32.5C 276.978,32.238 278.311,32.5713 279.5,33.5C 279.062,34.5063 278.396,34.5063 277.5,33.5C 276.702,33.9569 276.369,34.6236 276.5,35.5 Z"/></g>
<g><path style="opacity:1" fill="#ff5059" d="M 226.5,33.5 C 228.176,34.1834 228.843,35.5168 228.5,37.5C 227.5,37.5 226.5,37.5 225.5,37.5C 225.433,36.0413 225.766,34.7079 226.5,33.5 Z"/></g>
<g><path style="opacity:1" fill="#ffb3b5" d="M 232.5,32.5 C 235.5,32.1667 236.833,33.5 236.5,36.5C 234.856,36.2865 233.356,36.6198 232,37.5C 231.36,35.735 231.527,34.0683 232.5,32.5 Z"/></g>
<g><path style="opacity:1" fill="#ffabaf" d="M 245.5,32.5 C 250.241,32.1614 251.574,34.1614 249.5,38.5C 248.052,31.9216 246.885,31.9216 246,38.5C 245.505,36.5273 245.338,34.5273 245.5,32.5 Z"/></g>
<g><path style="opacity:1" fill="#ffb4b6" d="M 252.5,32.5 C 255.5,32.1667 256.833,33.5 256.5,36.5C 254.856,36.2865 253.356,36.6198 252,37.5C 251.36,35.735 251.527,34.0683 252.5,32.5 Z"/></g>
<g><path style="opacity:1" fill="#ffb0b2" d="M 297.5,32.5 C 302.241,32.1614 303.574,34.1614 301.5,38.5C 299.602,39.7345 297.935,39.4011 296.5,37.5C 297.518,36.1476 298.851,35.1476 300.5,34.5C 299.726,33.2888 298.893,33.2888 298,34.5C 297.536,33.9056 297.369,33.2389 297.5,32.5 Z"/></g>
<g><path style="opacity:1" fill="#ffb1b4" d="M 303.5,33.5 C 304.885,34.6138 306.385,35.6138 308,36.5C 308.617,37.4491 308.451,38.2825 307.5,39C 303.19,39.0659 302.856,38.3993 306.5,37C 304.574,36.5776 303.574,35.4109 303.5,33.5 Z"/></g>
<g><path style="opacity:1" fill="#ffbcbd" d="M 310.5,32.5 C 313.5,32.1667 314.833,33.5 314.5,36.5C 309.206,36.6822 309.206,37.1822 314.5,38C 313.351,39.7441 312.017,39.9108 310.5,38.5C 309.306,36.4844 309.306,34.4844 310.5,32.5 Z"/></g>
<g><path style="opacity:1" fill="#ffcbcc" d="M 276.5,35.5 C 277.5,35.5 278.5,35.5 279.5,35.5C 279.642,39.2231 278.309,40.0564 275.5,38C 276.5,37.6667 277.5,37.3333 278.5,37C 277.584,36.7216 276.918,36.2216 276.5,35.5 Z"/></g>
<g><path style="opacity:1" fill="#ffadb0" d="M 282.5,32.5 C 285.5,32.1667 286.833,33.5 286.5,36.5C 281.206,36.6822 281.206,37.1822 286.5,38C 283.599,40.2206 281.599,39.5539 280.5,36C 280.978,34.6974 281.645,33.5307 282.5,32.5 Z"/></g>
<g><path style="opacity:1" fill="#ffc8ca" d="M 317.5,36.5 C 318.209,35.596 319.209,35.2627 320.5,35.5C 320.642,39.2231 319.309,40.0564 316.5,38C 317.5,37.6667 318.5,37.3333 319.5,37C 318.906,36.5357 318.239,36.369 317.5,36.5 Z"/></g>
<g><path style="opacity:1" fill="#ffcacc" d="M 356.5,52.5 C 354.171,47.6561 350.838,43.4894 346.5,40C 342.07,37.7298 337.403,37.0631 332.5,38C 333.672,38.4186 334.672,39.0853 335.5,40C 329.064,39.251 328.231,36.751 333,32.5C 333.617,33.4491 333.451,34.2825 332.5,35C 344.934,34.9539 352.934,40.7873 356.5,52.5 Z"/></g>
<g><path style="opacity:1" fill="#ffc0c2" d="M 259.5,33.5 C 260.848,32.8141 262.015,31.8141 263,30.5C 263.818,33.2272 263.652,35.8938 262.5,38.5C 259.849,40.0034 258.516,39.1701 258.5,36C 258.528,34.9302 258.861,34.0968 259.5,33.5 Z"/></g>
<g><path style="opacity:1" fill="#ff5059" d="M 259.5,33.5 C 261.912,33.6941 262.912,35.0274 262.5,37.5C 261.5,37.5 260.5,37.5 259.5,37.5C 259.5,36.1667 259.5,34.8333 259.5,33.5 Z"/></g>
<g><path style="opacity:1" fill="#fff3f4" d="M 269.5,56.5 C 269.833,55.8333 270.167,55.1667 270.5,54.5C 270.335,50.8183 270.501,47.1516 271,43.5C 271.2,47.7533 271.7,51.92 272.5,56C 271.648,57.7284 270.648,57.895 269.5,56.5 Z"/></g>
<g><path style="opacity:1" fill="#ff9fa2" d="M 270.5,54.5 C 270.167,55.1667 269.833,55.8333 269.5,56.5C 267.272,55.6782 266.605,54.3448 267.5,52.5C 268.518,53.1925 269.518,53.8592 270.5,54.5 Z"/></g>
<g><path style="opacity:1" fill="#ffcccd" d="M 356.5,52.5 C 359.062,57.0607 360.562,62.0607 361,67.5C 361.832,75.5208 361.665,83.5208 360.5,91.5C 361.199,78.3629 359.866,65.3629 356.5,52.5 Z"/></g>
<g><path style="opacity:1" fill="#ffb7b9" d="M 244.5,61.5 C 245.933,64.0384 247.266,66.705 248.5,69.5C 249.086,69.2907 249.586,68.9574 250,68.5C 250.333,66.1667 250.667,63.8333 251,61.5C 251.777,64.4294 251.61,67.2628 250.5,70C 248.299,70.8249 246.466,70.3249 245,68.5C 244.503,66.1902 244.337,63.8568 244.5,61.5 Z"/></g>
<g><path style="opacity:1" fill="#ffcacc" d="M 218.5,62.5 C 225.444,62.3184 231.778,64.1518 237.5,68C 232.634,66.0901 227.467,64.9234 222,64.5C 213.024,65.311 208.191,70.311 207.5,79.5C 209.502,82.5204 208.835,84.0204 205.5,84C 201.553,80.4765 201.553,79.6432 205.5,81.5C 206.173,72.439 210.506,66.1057 218.5,62.5 Z"/></g>
<g><path style="opacity:1" fill="#ffa5a8" d="M 294.5,63.5 C 299.378,63.5349 300.711,65.8682 298.5,70.5C 297.052,63.9216 295.885,63.9216 295,70.5C 294.503,68.1902 294.337,65.8568 294.5,63.5 Z"/></g>
<g><path style="opacity:1" fill="#ffadb0" d="M 253.5,63.5 C 258.213,63.4676 259.713,65.8009 258,70.5C 257.506,68.8659 257.34,67.1992 257.5,65.5C 256.5,65.5 255.5,65.5 254.5,65.5C 254.66,67.1992 254.494,68.8659 254,70.5C 253.503,68.1902 253.337,65.8568 253.5,63.5 Z"/></g>
<g><path style="opacity:1" fill="#ffb5b8" d="M 278.5,63.5 C 282.847,63.942 283.18,64.7753 279.5,66C 282.124,66.5764 282.791,67.9098 281.5,70C 279.926,70.6987 278.593,70.3654 277.5,69C 278.738,69.0773 279.738,68.9106 280.5,68.5C 277.807,67.4682 277.14,65.8015 278.5,63.5 Z"/></g>
<g><path style="opacity:1" fill="#ffb4b7" d="M 283.5,62.5 C 284.725,63.1522 285.392,64.3189 285.5,66C 286.009,67.7767 286.009,69.2767 285.5,70.5C 284.914,70.2907 284.414,69.9574 284,69.5C 283.503,67.1902 283.337,64.8568 283.5,62.5 Z"/></g>
<g><path style="opacity:1" fill="#ffb7b9" d="M 268.5,63.5 C 274.125,65.9701 273.791,67.4701 267.5,68C 268.649,69.7441 269.983,69.9108 271.5,68.5C 272.696,68.8457 272.696,69.3457 271.5,70C 266.148,70.1754 265.148,68.0087 268.5,63.5 Z"/></g>
<g><path style="opacity:1" fill="#ffb4b6" d="M 263.5,61.5 C 265.388,63.9878 266.055,66.9878 265.5,70.5C 263.801,70.6602 262.134,70.4935 260.5,70C 259.941,69.2753 259.608,68.4419 259.5,67.5C 260.491,65.1933 261.824,63.1933 263.5,61.5 Z"/></g>
<g><path style="opacity:1" fill="#ff575e" d="M 261.5,65.5 C 262.586,65.62 263.253,66.2867 263.5,67.5C 262.696,69.9573 261.696,69.9573 260.5,67.5C 260.863,66.8165 261.196,66.1499 261.5,65.5 Z"/></g>
<g><path style="opacity:1" fill="#ffb4b6" d="M 301.5,65.5 C 302.757,64.1819 304.091,62.8485 305.5,61.5C 306.484,64.4281 306.817,67.4281 306.5,70.5C 301.491,71.4998 299.824,69.8332 301.5,65.5 Z"/></g>
<g><path style="opacity:1" fill="#ff565e" d="M 301.5,65.5 C 302.5,65.5 303.5,65.5 304.5,65.5C 304.762,66.9778 304.429,68.3112 303.5,69.5C 301.889,68.6798 301.222,67.3464 301.5,65.5 Z"/></g>
<g><path style="opacity:1" fill="#ffb3b4" d="M 288.5,63.5 C 289.822,63.33 290.989,63.6634 292,64.5C 292.495,66.4727 292.662,68.4727 292.5,70.5C 286.443,69.912 286.11,68.412 291.5,66C 290.167,65.6667 288.833,65.3333 287.5,65C 288.056,64.6174 288.389,64.1174 288.5,63.5 Z"/></g>
<g><path style="opacity:1" fill="#ffdadb" d="M 347.5,101.5 C 347.5,101.833 347.5,102.167 347.5,102.5C 346.698,103.952 346.198,105.618 346,107.5C 345.749,105.567 345.249,103.734 344.5,102C 345.967,99.8144 347.967,99.1477 350.5,100C 348.494,100.083 347.494,100.583 347.5,101.5 Z"/></g>
<g><path style="opacity:1" fill="#ffcfd1" d="M 195.5,100.5 C 196.693,100.97 197.36,101.97 197.5,103.5C 197.333,104.5 197.167,105.5 197,106.5C 195.301,107.406 193.467,107.739 191.5,107.5C 191.5,104.833 191.5,102.167 191.5,99.5C 193.099,99.2322 194.432,99.5655 195.5,100.5 Z"/></g>
<g><path style="opacity:1" fill="#ff4e57" d="M 195.5,100.5 C 197.444,104.116 196.444,106.116 192.5,106.5C 192.5,104.5 192.5,102.5 192.5,100.5C 193.5,100.5 194.5,100.5 195.5,100.5 Z"/></g>
<g><path style="opacity:1" fill="#ff8a8d" d="M 214.5,103.5 C 214.5,104.167 214.5,104.833 214.5,105.5C 213.849,106.091 213.182,106.757 212.5,107.5C 211.167,104.833 211.167,102.167 212.5,99.5C 213.172,100.949 213.839,102.282 214.5,103.5 Z"/></g>
<g><path style="opacity:1" fill="#ffc1c3" d="M 324.5,101.5 C 328.554,101.21 329.054,101.877 326,103.5C 325.667,104.833 325.333,106.167 325,107.5C 324.505,105.527 324.338,103.527 324.5,101.5 Z"/></g>
<g><path style="opacity:1" fill="#ff9296" d="M 347.5,102.5 C 347.5,102.167 347.5,101.833 347.5,101.5C 348.5,101.5 349.5,101.5 350.5,101.5C 350.302,110.208 349.302,110.542 347.5,102.5 Z"/></g>
<g><path style="opacity:1" fill="#ffd0d2" d="M 375.5,101.5 C 376.451,102.919 376.784,104.585 376.5,106.5C 377.5,106.5 378.5,106.5 379.5,106.5C 379.34,104.801 379.506,103.134 380,101.5C 380.495,103.473 380.662,105.473 380.5,107.5C 378.833,107.5 377.167,107.5 375.5,107.5C 375.5,105.5 375.5,103.5 375.5,101.5 Z"/></g>
<g><path style="opacity:1" fill="#ffb4b7" d="M 382.5,101.5 C 385.797,101.329 386.131,101.995 383.5,103.5C 384.325,104.386 385.325,104.719 386.5,104.5C 386.352,108.491 384.686,109.324 381.5,107C 386.498,106.572 386.665,105.739 382,104.5C 381.53,103.423 381.697,102.423 382.5,101.5 Z"/></g>
<g><path style="opacity:1" fill="#ff6f72" d="M 407.5,102.5 C 407.119,103.931 406.119,104.764 404.5,105C 406.133,105.48 407.466,106.313 408.5,107.5C 406.362,108.808 404.362,108.475 402.5,106.5C 401.472,106.074 400.139,106.074 398.5,106.5C 398.088,104.027 399.088,102.694 401.5,102.5C 403.691,101.709 405.691,101.709 407.5,102.5 Z"/></g>
<g><path style="opacity:1" fill="#ffc3c5" d="M 411.5,102.5 C 412.386,101.224 413.386,101.224 414.5,102.5C 413.767,103.087 412.767,103.087 411.5,102.5 Z"/></g>
<g><path style="opacity:1" fill="#ffb4b6" d="M 206.5,101.5 C 209.797,101.329 210.131,101.995 207.5,103.5C 208.325,104.386 209.325,104.719 210.5,104.5C 210.352,108.491 208.686,109.324 205.5,107C 210.498,106.572 210.665,105.739 206,104.5C 205.53,103.423 205.697,102.423 206.5,101.5 Z"/></g>
<g><path style="opacity:1" fill="#ffd4d6" d="M 214.5,105.5 C 214.5,104.833 214.5,104.167 214.5,103.5C 214.5,102.833 214.833,102.5 215.5,102.5C 216.568,101.566 217.901,101.232 219.5,101.5C 219.664,104.187 219.497,106.854 219,109.5C 217.302,108.259 215.802,106.926 214.5,105.5 Z"/></g>
<g><path style="opacity:1" fill="#ff5259" d="M 215.5,102.5 C 217.912,102.694 218.912,104.027 218.5,106.5C 217.5,106.5 216.5,106.5 215.5,106.5C 215.5,105.167 215.5,103.833 215.5,102.5 Z"/></g>
<g><path style="opacity:1" fill="#ffd7d9" d="M 221.5,101.5 C 226.068,101.083 227.568,103.083 226,107.5C 224.439,101.044 223.106,101.044 222,107.5C 221.505,105.527 221.338,103.527 221.5,101.5 Z"/></g>
<g><path style="opacity:1" fill="#ffd2d3" d="M 332.5,102.5 C 333.848,101.814 335.015,100.814 336,99.5C 336.818,102.227 336.652,104.894 335.5,107.5C 332.849,109.003 331.516,108.17 331.5,105C 331.528,103.93 331.861,103.097 332.5,102.5 Z"/></g>
<g><path style="opacity:1" fill="#ff5058" d="M 332.5,102.5 C 334.912,102.694 335.912,104.027 335.5,106.5C 334.5,106.5 333.5,106.5 332.5,106.5C 332.5,105.167 332.5,103.833 332.5,102.5 Z"/></g>
<g><path style="opacity:1" fill="#ffbec0" d="M 351.5,101.5 C 353.167,101.5 354.833,101.5 356.5,101.5C 356.637,108.626 355.97,108.959 354.5,102.5C 352.613,108.995 351.613,108.662 351.5,101.5 Z"/></g>
<g><path style="opacity:1" fill="#ffaaad" d="M 200.5,101.5 C 203.5,101.167 204.833,102.5 204.5,105.5C 199.206,105.682 199.206,106.182 204.5,107C 201.668,109.168 199.668,108.501 198.5,105C 198.978,103.697 199.645,102.531 200.5,101.5 Z"/></g>
<g><path style="opacity:1" fill="#ffb1b3" d="M 339.5,101.5 C 342.5,101.167 343.833,102.5 343.5,105.5C 338.206,105.682 338.206,106.182 343.5,107C 342.407,108.365 341.074,108.699 339.5,108C 338.232,105.837 338.232,103.67 339.5,101.5 Z"/></g>
<g><path style="opacity:1" fill="#ffadaf" d="M 388.5,106.5 C 387.199,105.116 387.199,103.616 388.5,102C 390.661,101.278 392.328,101.945 393.5,104C 391.825,104.985 390.158,105.819 388.5,106.5 Z"/></g>
<g><path style="opacity:1" fill="#ffddde" d="M 407.5,102.5 C 408.451,103.919 408.784,105.585 408.5,107.5C 407.466,106.313 406.133,105.48 404.5,105C 406.119,104.764 407.119,103.931 407.5,102.5 Z"/></g>
<g><path style="opacity:1" fill="#ffc0c2" d="M 411.5,102.5 C 412.456,103.659 413.456,104.826 414.5,106C 413.709,108.734 412.376,109.068 410.5,107C 414.19,106.576 414.357,105.742 411,104.5C 410.308,103.563 410.475,102.897 411.5,102.5 Z"/></g>
<g><path style="opacity:1" fill="#ffb7b9" d="M 359.5,101.5 C 362.5,101.167 363.833,102.5 363.5,105.5C 358.206,105.682 358.206,106.182 363.5,107C 362.407,108.365 361.074,108.699 359.5,108C 358.232,105.837 358.232,103.67 359.5,101.5 Z"/></g>
<g><path style="opacity:1" fill="#ffb7ba" d="M 369.5,99.5 C 370.8,102.024 370.8,104.691 369.5,107.5C 366.929,108.8 365.262,107.967 364.5,105C 365.776,102.721 367.443,100.888 369.5,99.5 Z"/></g>
<g><path style="opacity:1" fill="#ff565d" d="M 366.5,102.5 C 368.912,102.694 369.912,104.027 369.5,106.5C 368.5,106.5 367.5,106.5 366.5,106.5C 366.5,105.167 366.5,103.833 366.5,102.5 Z"/></g>
<g><path style="opacity:1" fill="#ffb9bc" d="M 318.5,101.5 C 319.163,103.042 319.83,104.709 320.5,106.5C 322.387,100.005 323.387,100.338 323.5,107.5C 321.833,107.5 320.167,107.5 318.5,107.5C 318.5,105.5 318.5,103.5 318.5,101.5 Z"/></g>
<g><path style="opacity:1" fill="#ffb1b5" d="M 388.5,106.5 C 389.873,106.343 391.207,106.51 392.5,107C 390.876,109.019 389.543,108.852 388.5,106.5 Z"/></g>
<g><path style="opacity:1" fill="#ffbec0" d="M 401.5,102.5 C 399.088,102.694 398.088,104.027 398.5,106.5C 400.139,106.074 401.472,106.074 402.5,106.5C 401.415,108.582 399.915,108.916 398,107.5C 397.333,105.833 397.333,104.167 398,102.5C 399.292,101.209 400.458,101.209 401.5,102.5 Z"/></g>
<g><path style="opacity:1" fill="#ffb1b4" d="M 417.5,101.5 C 420.5,101.167 421.833,102.5 421.5,105.5C 416.206,105.682 416.206,106.182 421.5,107C 420.407,108.365 419.074,108.699 417.5,108C 416.232,105.837 416.232,103.67 417.5,101.5 Z"/></g>
<g><path style="opacity:1" fill="#ffa6ab" d="M 44.5,109.5 C 45.7479,110.334 46.4146,111.667 46.5,113.5C 46.1667,114.833 45.8333,116.167 45.5,117.5C 44.52,114.914 44.1866,112.247 44.5,109.5 Z"/></g>
<g><path style="opacity:1" fill="#ffa3a7" d="M 53.5,111.5 C 54.6935,111.97 55.3601,112.97 55.5,114.5C 55.1667,115.5 54.8333,116.5 54.5,117.5C 53.5344,115.604 53.2011,113.604 53.5,111.5 Z"/></g>
<g><path style="opacity:1" fill="#ffc7ca" d="M 56.5,111.5 C 58.1667,111.5 59.8333,111.5 61.5,111.5C 61.6369,118.626 60.9702,118.959 59.5,112.5C 57.9309,113.714 57.0976,115.381 57,117.5C 56.5045,115.527 56.3379,113.527 56.5,111.5 Z"/></g>
<g><path style="opacity:1" fill="#ffc2c5" d="M 89.5,114.5 C 87.9519,114.179 87.2852,113.179 87.5,111.5C 88.9778,111.238 90.3112,111.571 91.5,112.5C 90.7376,112.911 89.7376,113.077 88.5,113C 89.056,113.383 89.3893,113.883 89.5,114.5 Z"/></g>
<g><path style="opacity:1" fill="#ffa7aa" d="M 92.5,111.5 C 93.6935,111.97 94.3601,112.97 94.5,114.5C 94.1667,115.5 93.8333,116.5 93.5,117.5C 92.5344,115.604 92.2011,113.604 92.5,111.5 Z"/></g>
<g><path style="opacity:1" fill="#ffe4e5" d="M 26.5,112.5 C 26.5,113.167 26.5,113.833 26.5,114.5C 27.2297,116.045 28.563,116.878 30.5,117C 28.8659,117.494 27.1992,117.66 25.5,117.5C 25.5,114.833 25.5,112.167 25.5,109.5C 27.1992,109.34 28.8659,109.506 30.5,110C 28.563,110.122 27.2297,110.955 26.5,112.5 Z"/></g>
<g><path style="opacity:1" fill="#ff7373" d="M 42.5,112.5 C 43.8333,113.833 43.8333,115.167 42.5,116.5C 41.5,116.5 40.5,116.5 39.5,116.5C 39.5,115.167 39.5,113.833 39.5,112.5C 40.5,112.5 41.5,112.5 42.5,112.5 Z"/></g>
<g><path style="opacity:1" fill="#ffc4c6" d="M 131.5,109.5 C 132.267,110.172 132.934,111.005 133.5,112C 132.721,113.994 132.387,115.828 132.5,117.5C 131.085,114.816 130.752,112.149 131.5,109.5 Z"/></g>
<g><path style="opacity:1" fill="#ff9398" d="M 26.5,112.5 C 31.8333,113.167 31.8333,113.833 26.5,114.5C 26.5,113.833 26.5,113.167 26.5,112.5 Z"/></g>
<g><path style="opacity:1" fill="#ffd4d6" d="M 74.5,112.5 C 75.8484,111.814 77.015,110.814 78,109.5C 78.4974,112.146 78.6641,114.813 78.5,117.5C 76.8333,117.5 75.1667,117.5 73.5,117.5C 73.2155,115.585 73.5489,113.919 74.5,112.5 Z"/></g>
<g><path style="opacity:1" fill="#ff525a" d="M 74.5,112.5 C 75.5,112.5 76.5,112.5 77.5,112.5C 77.5,113.833 77.5,115.167 77.5,116.5C 76.5,116.5 75.5,116.5 74.5,116.5C 74.5,115.167 74.5,113.833 74.5,112.5 Z"/></g>
<g><path style="opacity:1" fill="#ffc1c4" d="M 96.5,111.5 C 98.1667,111.5 99.8333,111.5 101.5,111.5C 101.663,113.857 101.497,116.19 101,118.5C 99.3116,120.848 97.4783,121.015 95.5,119C 100.498,118.572 100.665,117.739 96,116.5C 95.3603,114.735 95.5269,113.068 96.5,111.5 Z"/></g>
<g><path style="opacity:1" fill="#ff4d56" d="M 97.5,112.5 C 98.5862,112.62 99.2528,113.287 99.5,114.5C 98.6964,116.957 97.6964,116.957 96.5,114.5C 96.8627,113.817 97.1961,113.15 97.5,112.5 Z"/></g>
<g><path style="opacity:1" fill="#ffd5d7" d="M 102.5,111.5 C 104.167,111.5 105.833,111.5 107.5,111.5C 107.637,118.626 106.97,118.959 105.5,112.5C 103.931,113.714 103.098,115.381 103,117.5C 102.505,115.527 102.338,113.527 102.5,111.5 Z"/></g>
<g><path style="opacity:1" fill="#ffa6a7" d="M 135.5,111.5 C 139.521,111.244 140.854,112.91 139.5,116.5C 134.733,117.899 133.4,116.232 135.5,111.5 Z"/></g>
<g><path style="opacity:1" fill="#ffb9bc" d="M 31.5,112.5 C 31.56,111.957 31.8933,111.624 32.5,111.5C 33.8333,115.5 35.1667,115.5 36.5,111.5C 36.8333,111.667 37.1667,111.833 37.5,112C 36.782,113.987 35.782,115.821 34.5,117.5C 33.3037,115.855 32.3037,114.189 31.5,112.5 Z"/></g>
<g><path style="opacity:1" fill="#ffbabd" d="M 42.5,112.5 C 41.5,112.5 40.5,112.5 39.5,112.5C 39.5,113.833 39.5,115.167 39.5,116.5C 40.5,116.5 41.5,116.5 42.5,116.5C 40.2431,117.886 38.5764,117.219 37.5,114.5C 38.5764,111.781 40.2431,111.114 42.5,112.5 Z"/></g>
<g><path style="opacity:1" fill="#ffa2a3" d="M 81.5,111.5 C 85.0681,111.759 86.4015,113.759 85.5,117.5C 80.7398,117.799 79.4064,115.799 81.5,111.5 Z"/></g>
<g><path style="opacity:1" fill="#ffc5c7" d="M 121.5,115.5 C 121.312,113.897 121.812,112.563 123,111.5C 123.348,113.14 122.848,114.473 121.5,115.5 Z"/></g>
<g><path style="opacity:1" fill="#ffb4b7" d="M 124.5,112.5 C 127.37,113.078 129.037,114.745 129.5,117.5C 127.712,117.785 126.045,117.452 124.5,116.5C 125.582,116.251 126.915,116.085 128.5,116C 126.456,115.502 125.122,114.335 124.5,112.5 Z"/></g>
<g><path style="opacity:1" fill="#ffcfd0" d="M 141.5,111.5 C 144.167,111.5 146.833,111.5 149.5,111.5C 149.637,118.626 148.97,118.959 147.5,112.5C 146.167,119.167 144.833,119.167 143.5,112.5C 142.03,118.959 141.363,118.626 141.5,111.5 Z"/></g>
<g><path style="opacity:1" fill="#ffbfc0" d="M 47.5,111.5 C 48.9663,112.347 49.7996,113.68 50,115.5C 51.8598,110.371 52.5264,110.371 52,115.5C 51.3333,116.167 50.6667,116.833 50,117.5C 48.6813,115.713 47.848,113.713 47.5,111.5 Z"/></g>
<g><path style="opacity:1" fill="#ffbbbe" d="M 112.5,111.5 C 116.893,111.457 117.226,111.957 113.5,113C 118.946,115.88 118.613,117.214 112.5,117C 116.19,116.576 116.357,115.742 113,114.5C 112.517,113.552 112.351,112.552 112.5,111.5 Z"/></g>
<g><path style="opacity:1" fill="#ffbfc1" d="M 121.5,115.5 C 121.716,117.681 120.883,119.347 119,120.5C 119.517,117.534 119.517,114.534 119,111.5C 119.608,113.066 120.442,114.4 121.5,115.5 Z"/></g>
<g><path style="opacity:1" fill="#ffc9cc" d="M 89.5,114.5 C 91.0481,114.821 91.7148,115.821 91.5,117.5C 87.1074,117.543 86.7741,117.043 90.5,116C 89.944,115.617 89.6107,115.117 89.5,114.5 Z"/></g>
<g><path style="opacity:1" fill="#ffcbcd" d="M 63.5,111.5 C 65.1667,111.5 66.8333,111.5 68.5,111.5C 68.6641,114.187 68.4974,116.854 68,119.5C 66.3646,120.849 64.8646,120.682 63.5,119C 68.7937,118.182 68.7937,117.682 63.5,117.5C 63.5,115.5 63.5,113.5 63.5,111.5 Z"/></g>
<g><path style="opacity:1" fill="#ff565d" d="M 64.5,112.5 C 65.5,112.5 66.5,112.5 67.5,112.5C 67.5,113.833 67.5,115.167 67.5,116.5C 66.5,116.5 65.5,116.5 64.5,116.5C 64.5,115.167 64.5,113.833 64.5,112.5 Z"/></g>
<g><path style="opacity:1" fill="#ffa0a4" d="M 29.5,123.5 C 30.5,123.5 31.5,123.5 32.5,123.5C 32.8134,126.247 32.48,128.914 31.5,131.5C 30.9639,129.031 29.9639,126.864 28.5,125C 29.056,124.617 29.3893,124.117 29.5,123.5 Z"/></g>
<g><path style="opacity:1" fill="#ffa2a5" d="M 62.5,125.5 C 63.6935,125.97 64.3601,126.97 64.5,128.5C 64.1667,129.5 63.8333,130.5 63.5,131.5C 62.5344,129.604 62.2011,127.604 62.5,125.5 Z"/></g>
<g><path style="opacity:1" fill="#ffcdcf" d="M 72.5,125.5 C 74.1667,125.5 75.8333,125.5 77.5,125.5C 77.6621,127.527 77.4955,129.527 77,131.5C 76.5065,129.866 76.3398,128.199 76.5,126.5C 75.5,126.5 74.5,126.5 73.5,126.5C 73.6602,128.199 73.4935,129.866 73,131.5C 72.5045,129.527 72.3379,127.527 72.5,125.5 Z"/></g>
<g><path style="opacity:1" fill="#ffaaae" d="M 85.5,125.5 C 86.552,125.351 87.552,125.517 88.5,126C 86.7706,133.363 85.7706,133.196 85.5,125.5 Z"/></g>
<g><path style="opacity:1" fill="#ffbec1" d="M 47.5,124.5 C 49.3769,125.659 49.8769,127.326 49,129.5C 47.2111,131.229 45.0444,131.896 42.5,131.5C 42.5,128.833 42.5,126.167 42.5,123.5C 44.4147,123.216 46.0813,123.549 47.5,124.5 Z"/></g>
<g><path style="opacity:1" fill="#ff5159" d="M 47.5,124.5 C 48.4015,128.241 47.0681,130.241 43.5,130.5C 43.5,128.5 43.5,126.5 43.5,124.5C 44.8333,124.5 46.1667,124.5 47.5,124.5 Z"/></g>
<g><path style="opacity:1" fill="#ffc7c9" d="M 57.5,125.5 C 61.8926,125.457 62.2259,125.957 58.5,127C 60.8633,127.589 61.8633,129.089 61.5,131.5C 57.1074,131.543 56.7741,131.043 60.5,130C 58.5614,129.092 57.5614,127.592 57.5,125.5 Z"/></g>
<g><path style="opacity:1" fill="#ffc6c9" d="M 90.5,125.5 C 94.8926,125.457 95.2259,125.957 91.5,127C 93.8633,127.589 94.8633,129.089 94.5,131.5C 90.1074,131.543 89.7741,131.043 93.5,130C 91.5614,129.092 90.5614,127.592 90.5,125.5 Z"/></g>
<g><path style="opacity:1" fill="#ffb8b9" d="M 51.5,125.5 C 52.8333,125.5 54.1667,125.5 55.5,125.5C 55.5,126.5 55.5,127.5 55.5,128.5C 53.549,128.227 52.049,128.893 51,130.5C 50.3603,128.735 50.5269,127.068 51.5,125.5 Z"/></g>
<g><path style="opacity:1" fill="#ffbbbb" d="M 80.5,130.5 C 79.5489,129.081 79.2155,127.415 79.5,125.5C 81.6648,125.116 83.3315,125.783 84.5,127.5C 82.6684,128.057 81.3351,129.057 80.5,130.5 Z"/></g>
<g><path style="opacity:1" fill="#ffb2b5" d="M 66.5,126.5 C 67.9187,125.549 69.5853,125.216 71.5,125.5C 71.6633,127.857 71.4966,130.19 71,132.5C 69.7592,134.421 68.2592,134.754 66.5,133.5C 67.376,132.749 68.376,132.249 69.5,132C 65.7572,131.433 64.7572,129.6 66.5,126.5 Z"/></g>
<g><path style="opacity:1" fill="#ff525a" d="M 66.5,126.5 C 67.5,126.5 68.5,126.5 69.5,126.5C 69.762,127.978 69.4287,129.311 68.5,130.5C 66.8888,129.68 66.2222,128.346 66.5,126.5 Z"/></g>
<g><path style="opacity:1" fill="#ffacae" d="M 80.5,130.5 C 82.1092,130.094 83.4425,130.094 84.5,130.5C 83.0416,131.782 81.7082,131.782 80.5,130.5 Z"/></g>
<g><path style="opacity:1" fill="#ffd3d5" d="M 209.5,155.5 C 204.776,153.424 201.942,149.758 201,144.5C 199.046,136.824 199.046,129.158 201,121.5C 199.505,131.553 200.839,141.219 205,150.5C 206.707,152.037 208.207,153.704 209.5,155.5 Z"/></g>
<g><path style="opacity:1" fill="#ffc7c9" d="M 341.5,155.5 C 352.6,149.782 355.767,141.115 351,129.5C 350.751,130.624 350.251,131.624 349.5,132.5C 349.096,126.437 351.43,125.27 356.5,129C 355.552,129.483 354.552,129.649 353.5,129.5C 356.577,139.302 354.243,147.468 346.5,154C 344.975,155.009 343.308,155.509 341.5,155.5 Z"/></g>
<g><path style="opacity:1" fill="#ffb6b9" d="M 42.5,136.5 C 48.9918,136.658 50.6585,139.492 47.5,145C 45.8659,145.494 44.1992,145.66 42.5,145.5C 42.5,142.5 42.5,139.5 42.5,136.5 Z"/></g>
<g><path style="opacity:1" fill="#ff535b" d="M 43.5,138.5 C 44.8333,138.5 46.1667,138.5 47.5,138.5C 48.4015,142.241 47.0681,144.241 43.5,144.5C 43.5,142.5 43.5,140.5 43.5,138.5 Z"/></g>
<g><path style="opacity:1" fill="#ffc8ca" d="M 94.5,138.5 C 95.0431,138.56 95.3764,138.893 95.5,139.5C 94.0451,141.22 93.2117,143.22 93,145.5C 92.185,142.802 92.685,140.468 94.5,138.5 Z"/></g>
<g><path style="opacity:1" fill="#ff8a8b" d="M 79.5,139.5 C 79.5,142.167 79.5,144.833 79.5,147.5C 78.71,146.391 78.21,145.058 78,143.5C 76,146.167 74,146.167 72,143.5C 71.6924,144.308 71.1924,144.975 70.5,145.5C 69.1667,142.5 69.1667,139.5 70.5,136.5C 71.2811,137.729 71.7811,139.062 72,140.5C 74.5219,137.674 76.5219,138.007 78,141.5C 78.2784,140.584 78.7784,139.918 79.5,139.5 Z"/></g>
<g><path style="opacity:1" fill="#ffd9db" d="M 50.5,139.5 C 51.8121,139.824 52.6454,140.491 53,141.5C 54.0105,141.108 54.5105,140.441 54.5,139.5C 55.3857,140.325 55.719,141.325 55.5,142.5C 53.549,142.227 52.049,142.893 51,144.5C 50.5065,142.866 50.3398,141.199 50.5,139.5 Z"/></g>
<g><path style="opacity:1" fill="#ffadae" d="M 87.5,138.5 C 91.5387,139.714 92.5387,141.881 90.5,145C 85.4003,144.887 84.4003,142.721 87.5,138.5 Z"/></g>
<g><path style="opacity:1" fill="#ffc7c9" d="M 56.5,139.5 C 57.9311,139.881 58.7645,140.881 59,142.5C 59.9147,141.672 60.5814,140.672 61,139.5C 59.9106,147.396 58.4106,147.396 56.5,139.5 Z"/></g>
<g><path style="opacity:1" fill="#ffb3b5" d="M 64.5,138.5 C 69.5696,140.285 69.5696,141.951 64.5,143.5C 65.3914,144.59 66.3914,144.59 67.5,143.5C 68.6956,143.846 68.6956,144.346 67.5,145C 62.1483,145.175 61.1483,143.009 64.5,138.5 Z"/></g>
<g><path style="opacity:1" fill="#ffbabd" d="M 29.5,136.5 C 34.4819,137.978 34.8152,140.478 30.5,144C 31.5,144.333 32.5,144.667 33.5,145C 31.7412,145.798 30.0745,145.631 28.5,144.5C 29.8333,142.833 31.1667,141.167 32.5,139.5C 31.3493,138.269 30.1827,138.269 29,139.5C 28.5304,138.423 28.6971,137.423 29.5,136.5 Z"/></g>
<g><path style="opacity:1" fill="#ff9899" d="M 97.5,138.5 C 101.847,138.942 102.18,139.775 98.5,141C 101.124,141.576 101.791,142.91 100.5,145C 98.9262,145.699 97.5929,145.365 96.5,144C 98.8912,143.309 98.8912,142.309 96.5,141C 97.2524,140.329 97.5858,139.496 97.5,138.5 Z"/></g>
<g><path style="opacity:1" fill="#ffc9cb" d="M 79.5,139.5 C 80.2389,139.369 80.9056,139.536 81.5,140C 80.2528,141.494 80.2528,142.994 81.5,144.5C 83.5962,143.38 83.9295,141.88 82.5,140C 82.8333,139.833 83.1667,139.667 83.5,139.5C 84.6309,141.074 84.7975,142.741 84,144.5C 82.2495,145.222 80.7495,146.222 79.5,147.5C 79.5,144.833 79.5,142.167 79.5,139.5 Z"/></g>
<g><path style="opacity:1" fill="#ffabaf" d="M 233.5,162.5 C 231.974,161.508 231.307,160.008 231.5,158C 231.833,156.833 232.167,155.667 232.5,154.5C 233.48,157.086 233.813,159.753 233.5,162.5 Z"/></g>
<g><path style="opacity:1" fill="#ff9fa0" d="M 233.5,162.5 C 234.5,162.5 235.5,162.5 236.5,162.5C 236.187,159.753 236.52,157.086 237.5,154.5C 238.652,157.106 238.818,159.773 238,162.5C 236.384,163.801 234.884,163.801 233.5,162.5 Z"/></g>
<g><path style="opacity:1" fill="#ff8e93" d="M 262.5,154.5 C 263.765,155.514 264.431,157.014 264.5,159C 264.167,160.5 263.833,162 263.5,163.5C 262.516,160.572 262.183,157.572 262.5,154.5 Z"/></g>
<g><path style="opacity:1" fill="#ffd1d3" d="M 275.5,154.5 C 276.808,158.019 276.808,161.685 275.5,165.5C 275.377,162.114 275.377,158.447 275.5,154.5 Z"/></g>
<g><path style="opacity:1" fill="#ffbcbf" d="M 284.5,157.5 C 286.089,163.931 287.589,163.931 289,157.5C 289.495,159.473 289.662,161.473 289.5,163.5C 285.092,163.938 283.425,161.938 284.5,157.5 Z"/></g>
<g><path style="opacity:1" fill="#ffcccd" d="M 297.5,156.5 C 298.496,156.414 299.329,156.748 300,157.5C 300.667,159.5 300.667,161.5 300,163.5C 299.506,161.866 299.34,160.199 299.5,158.5C 298.5,158.5 297.5,158.5 296.5,158.5C 296.66,160.199 296.494,161.866 296,163.5C 295.185,160.802 295.685,158.468 297.5,156.5 Z"/></g>
<g><path style="opacity:1" fill="#ffd7d9" d="M 209.5,155.5 C 214.717,157.519 220.05,157.853 225.5,156.5C 224.189,155.742 223.689,154.742 224,153.5C 228.841,155.33 229.508,157.997 226,161.5C 225.383,160.551 225.549,159.718 226.5,159C 222.167,158.667 217.833,158.333 213.5,158C 211.68,157.8 210.347,156.966 209.5,155.5 Z"/></g>
<g><path style="opacity:1" fill="#ffbfc1" d="M 241.5,156.5 C 245.326,157.48 245.326,158.313 241.5,159C 243.932,160.087 243.598,160.587 240.5,160.5C 240.433,159.041 240.766,157.708 241.5,156.5 Z"/></g>
<g><path style="opacity:1" fill="#ffc0c2" d="M 256.5,155.5 C 257.473,157.948 257.806,160.615 257.5,163.5C 252.932,163.917 251.432,161.917 253,157.5C 254.302,156.915 255.469,156.249 256.5,155.5 Z"/></g>
<g><path style="opacity:1" fill="#ff4d56" d="M 253.5,158.5 C 254.5,158.5 255.5,158.5 256.5,158.5C 255.5,163.833 254.5,163.833 253.5,158.5 Z"/></g>
<g><path style="opacity:1" fill="#ffb5b8" d="M 341.5,155.5 C 334.658,159.243 327.324,160.243 319.5,158.5C 326.888,157.783 334.222,156.783 341.5,155.5 Z"/></g>
<g><path style="opacity:1" fill="#ffd6d7" d="M 267.5,156.5 C 268.496,156.414 269.329,156.748 270,157.5C 270.667,159.5 270.667,161.5 270,163.5C 269.506,161.866 269.34,160.199 269.5,158.5C 268.5,158.5 267.5,158.5 266.5,158.5C 266.66,160.199 266.494,161.866 266,163.5C 265.185,160.802 265.685,158.468 267.5,156.5 Z"/></g>
<g><path style="opacity:1" fill="#ffe2e3" d="M 291.5,157.5 C 292.239,157.369 292.906,157.536 293.5,158C 292.123,165.342 291.456,165.176 291.5,157.5 Z"/></g>
<g><path style="opacity:1" fill="#ffb8b9" d="M 303.5,156.5 C 306.5,156.167 307.833,157.5 307.5,160.5C 302.206,160.682 302.206,161.182 307.5,162C 306.407,163.365 305.074,163.699 303.5,163C 302.232,160.837 302.232,158.67 303.5,156.5 Z"/></g>
<g><path style="opacity:1" fill="#ffb5b7" d="M 247.5,156.5 C 252.57,158.285 252.57,159.951 247.5,161.5C 248.391,162.59 249.391,162.59 250.5,161.5C 251.696,161.846 251.696,162.346 250.5,163C 245.4,162.887 244.4,160.721 247.5,156.5 Z"/></g>
<g><path style="opacity:1" fill="#ffc6c7" d="M 310.5,161.5 C 309.152,160.473 308.652,159.14 309,157.5C 310.188,158.563 310.688,159.897 310.5,161.5 Z"/></g>
<g><path style="opacity:1" fill="#ffcecf" d="M 310.5,161.5 C 311.232,160.192 312.066,158.858 313,157.5C 312.975,159.92 312.309,162.253 311,164.5C 310.517,163.552 310.351,162.552 310.5,161.5 Z"/></g>
<g><path style="opacity:1" fill="#ffbbbd" d="M 279.5,156.5 C 283.184,157.372 284.184,159.539 282.5,163C 277.4,162.887 276.4,160.721 279.5,156.5 Z"/></g>
<g><path style="opacity:1" fill="#ff535b" d="M 279.5,158.5 C 280.5,158.5 281.5,158.5 282.5,158.5C 282.778,160.346 282.111,161.68 280.5,162.5C 279.571,161.311 279.238,159.978 279.5,158.5 Z"/></g>
<g><path style="opacity:1" fill="#ffc2c4" d="M 239.5,162.5 C 240.721,161.535 242.054,161.702 243.5,163C 242.072,163.579 240.738,163.412 239.5,162.5 Z"/></g>
<g><path style="opacity:1" fill="#ffe8e8" d="M 270.5,175.5 C 271.182,182.568 271.849,189.734 272.5,197C 272,197.5 271.5,198 271,198.5C 269.649,196.981 268.149,195.648 266.5,194.5C 267.868,193.406 269.035,193.74 270,195.5C 270.5,188.842 270.666,182.175 270.5,175.5 Z"/></g>
<g><path style="opacity:1" fill="#ffcacc" d="M 249.5,206.5 C 248.167,206.5 246.833,206.5 245.5,206.5C 245.5,208.5 245.5,210.5 245.5,212.5C 247.292,212.634 248.958,212.301 250.5,211.5C 249.082,213.308 247.082,213.975 244.5,213.5C 244.5,210.833 244.5,208.167 244.5,205.5C 246.415,205.216 248.081,205.549 249.5,206.5 Z"/></g>
<g><path style="opacity:1" fill="#ff9ba0" d="M 271.5,205.5 C 272.748,206.334 273.415,207.667 273.5,209.5C 273.167,210.833 272.833,212.167 272.5,213.5C 271.52,210.914 271.187,208.247 271.5,205.5 Z"/></g>
<g><path style="opacity:1" fill="#ffb5b8" d="M 295.5,212.5 C 294.402,211.399 294.235,210.066 295,208.5C 296.693,207.816 298.193,206.816 299.5,205.5C 300.833,208.167 300.833,210.833 299.5,213.5C 297.703,214.932 296.37,214.599 295.5,212.5 Z"/></g>
<g><path style="opacity:1" fill="#ff5d63" d="M 249.5,206.5 C 250.038,208.117 250.371,209.784 250.5,211.5C 248.958,212.301 247.292,212.634 245.5,212.5C 245.5,210.5 245.5,208.5 245.5,206.5C 246.833,206.5 248.167,206.5 249.5,206.5 Z"/></g>
<g><path style="opacity:1" fill="#ffcdce" d="M 249.5,206.5 C 251.597,207.879 251.93,209.545 250.5,211.5C 250.371,209.784 250.038,208.117 249.5,206.5 Z"/></g>
<g><path style="opacity:1" fill="#ff555c" d="M 295.5,212.5 C 295.222,210.654 295.889,209.32 297.5,208.5C 298.429,209.689 298.762,211.022 298.5,212.5C 297.5,212.5 296.5,212.5 295.5,212.5 Z"/></g>
<g><path style="opacity:1" fill="#ffaeb1" d="M 266.5,207.5 C 269.5,207.167 270.833,208.5 270.5,211.5C 265.206,211.682 265.206,212.182 270.5,213C 269.407,214.365 268.074,214.699 266.5,214C 265.232,211.837 265.232,209.67 266.5,207.5 Z"/></g>
<g><path style="opacity:1" fill="#ffb8ba" d="M 278.5,208.5 C 280.836,210.618 280.503,212.618 277.5,214.5C 274.58,213.032 273.913,210.865 275.5,208C 276.749,207.26 277.749,207.427 278.5,208.5 Z"/></g>
<g><path style="opacity:1" fill="#ff5058" d="M 278.5,208.5 C 278.5,209.833 278.5,211.167 278.5,212.5C 277.5,212.5 276.5,212.5 275.5,212.5C 275.088,210.027 276.088,208.694 278.5,208.5 Z"/></g>
<g><path style="opacity:1" fill="#ff989a" d="M 253.5,207.5 C 255.584,208.248 257.584,208.248 259.5,207.5C 260.833,211.5 262.167,211.5 263.5,207.5C 264.108,209.684 263.441,211.684 261.5,213.5C 260.416,212.335 259.583,211.002 259,209.5C 258.423,214.126 256.423,215.126 253,212.5C 252.36,210.735 252.527,209.068 253.5,207.5 Z"/></g>
<g><path style="opacity:1" fill="#ffb3b5" d="M 285.5,208.5 C 286.15,208.804 286.817,209.137 287.5,209.5C 290.91,206.414 292.91,207.08 293.5,211.5C 288.206,211.682 288.206,212.182 293.5,213C 291.407,214.927 289.407,214.76 287.5,212.5C 286.18,214.27 284.68,214.603 283,213.5C 282.667,214.5 282.333,215.5 282,216.5C 281.502,213.518 281.335,210.518 281.5,207.5C 283.099,207.232 284.432,207.566 285.5,208.5 Z"/></g>
<g><path style="opacity:1" fill="#ff5159" d="M 285.5,208.5 C 285.5,209.833 285.5,211.167 285.5,212.5C 284.5,212.5 283.5,212.5 282.5,212.5C 282.088,210.027 283.088,208.694 285.5,208.5 Z"/></g>
<g><path style="opacity:0.373" fill="#501c1c" d="M -0.5,0.5 C -0.166667,0.5 0.166667,0.5 0.5,0.5C 0.5,81.8333 0.5,163.167 0.5,244.5C 146.167,244.5 291.833,244.5 437.5,244.5C 437.5,245.167 437.5,245.833 437.5,246.5C 291.833,246.5 146.167,246.5 0.5,246.5C 0.5,245.833 0.166667,245.5 -0.5,245.5C -0.5,163.833 -0.5,82.1667 -0.5,0.5 Z"/></g>
</svg>
