<?xml version="1.0" encoding="UTF-8"?>
<!DOCTYPE svg PUBLIC "-//W3C//DTD SVG 1.1//EN" "http://www.w3.org/Graphics/SVG/1.1/DTD/svg11.dtd">
<svg xmlns="http://www.w3.org/2000/svg" version="1.1" width="1368px" height="1495px" style="shape-rendering:geometricPrecision; text-rendering:geometricPrecision; image-rendering:optimizeQuality; fill-rule:evenodd; clip-rule:evenodd" xmlns:xlink="http://www.w3.org/1999/xlink">
<g><path style="opacity:0.994" fill="#060909" d="M 170.5,-0.5 C 528.167,-0.5 885.833,-0.5 1243.5,-0.5C 1299.5,6.65765 1338.33,36.3243 1360,88.5C 1363.26,99.1387 1365.76,109.805 1367.5,120.5C 1367.5,529.833 1367.5,939.167 1367.5,1348.5C 1366.57,1349.57 1366.23,1350.9 1366.5,1352.5C 1354.56,1411.57 1319.56,1449.07 1261.5,1465C 1254.19,1466.16 1246.86,1467.16 1239.5,1468C 884.833,1468.67 530.167,1468.67 175.5,1468C 112.385,1461.2 71.2188,1427.7 52,1367.5C 49.7025,1358.98 48.3691,1350.31 48,1341.5C 47.3333,936.5 47.3333,531.5 48,126.5C 51.071,87.5627 67.571,55.7294 97.5,31C 97.2716,30.6012 96.9382,30.4346 96.5,30.5C 117.932,12.7904 142.598,2.45709 170.5,-0.5 Z"/></g>
<g><path style="opacity:1" fill="#fefefe" d="M 172.5,2.5 C 529.167,2.33333 885.833,2.5 1242.5,3C 1295.44,8.95458 1332.94,36.1213 1355,84.5C 1361.01,98.8732 1364.34,113.873 1365,129.5C 1365.67,532.5 1365.67,935.5 1365,1338.5C 1358.47,1403.36 1323.97,1444.86 1261.5,1463C 1254.26,1464.65 1246.92,1465.65 1239.5,1466C 884.833,1466.67 530.167,1466.67 175.5,1466C 121.477,1460.62 82.9774,1433.45 60,1384.5C 54.304,1370.72 50.9707,1356.38 50,1341.5C 49.3333,936.833 49.3333,532.167 50,127.5C 54.466,79.052 77.6327,42.552 119.5,18C 136.333,9.54654 154,4.37988 172.5,2.5 Z"/></g>
<g><path style="opacity:0.992" fill="#000000" d="M 96.5,30.5 C 96.9382,30.4346 97.2716,30.6012 97.5,31C 67.571,55.7294 51.071,87.5627 48,126.5C 47.3333,531.5 47.3333,936.5 48,1341.5C 48.3691,1350.31 49.7025,1358.98 52,1367.5C 71.2188,1427.7 112.385,1461.2 175.5,1468C 530.167,1468.67 884.833,1468.67 1239.5,1468C 1246.86,1467.16 1254.19,1466.16 1261.5,1465C 1319.56,1449.07 1354.56,1411.57 1366.5,1352.5C 1366.31,1419.48 1334.98,1464.65 1272.5,1488C 1263.36,1490.74 1254.03,1492.41 1244.5,1493C 870.167,1493.67 495.833,1493.67 121.5,1493C 65.049,1485.7 26.549,1455.53 6,1402.5C 3.36432,1393.13 1.19765,1383.8 -0.5,1374.5C -0.5,964.5 -0.5,554.5 -0.5,144.5C 9.47765,87.5193 41.811,49.5193 96.5,30.5 Z"/></g>
<g><path style="opacity:1" fill="#0f0f0f" d="M 128.5,77.5 C 129.833,77.5 131.167,77.5 132.5,77.5C 136.226,88.6681 140.56,99.6681 145.5,110.5C 143.994,111.747 142.494,111.747 141,110.5C 139.861,104.596 136.194,102.263 130,103.5C 127.167,103.833 124.333,104.167 121.5,104.5C 120.786,106.811 119.786,108.978 118.5,111C 117.167,111.667 115.833,111.667 114.5,111C 119.326,99.8543 123.993,88.6876 128.5,77.5 Z"/></g>
<g><path style="opacity:1" fill="#eeeeee" d="M 135.5,97.5 C 134.129,98.7868 132.295,99.4535 130,99.5C 127.967,99.4944 126.134,99.1611 124.5,98.5C 125.841,93.31 127.674,88.31 130,83.5C 132.526,87.9138 134.359,92.5805 135.5,97.5 Z"/></g>
<g><path style="opacity:1" fill="#7f7f7f" d="M 149.5,88.5 C 155.645,87.5098 161.978,87.1765 168.5,87.5C 168.737,88.791 168.404,89.791 167.5,90.5C 161.926,88.5467 155.926,87.88 149.5,88.5 Z"/></g>
<g><path style="opacity:1" fill="#1c1c1c" d="M 178.5,87.5 C 189.605,85.857 195.272,90.5237 195.5,101.5C 188.833,101.5 182.167,101.5 175.5,101.5C 176.392,107.952 180.059,110.452 186.5,109C 188.848,108.654 190.681,107.487 192,105.5C 192.833,106.333 193.667,107.167 194.5,108C 186.739,115.646 179.572,115.146 173,106.5C 170.1,98.7093 171.933,92.3759 178.5,87.5 Z"/></g>
<g><path style="opacity:1" fill="#151515" d="M 224.5,97.5 C 224.5,98.5 224.5,99.5 224.5,100.5C 217.646,100.176 210.979,100.509 204.5,101.5C 207.746,109.972 213.246,111.638 221,106.5C 222.059,106.63 222.892,107.13 223.5,108C 216.478,115.369 209.645,115.202 203,107.5C 198.434,93.7522 203.268,87.2522 217.5,88C 221.586,89.9135 223.919,93.0802 224.5,97.5 Z"/></g>
<g><path style="opacity:1" fill="#0e0e0e" d="M 149.5,88.5 C 155.926,87.88 161.926,88.5467 167.5,90.5C 163.801,97.0458 159.467,103.212 154.5,109C 159.155,109.499 163.821,109.666 168.5,109.5C 168.5,110.5 168.5,111.5 168.5,112.5C 162.167,112.5 155.833,112.5 149.5,112.5C 149.491,110.692 149.991,109.025 151,107.5C 155.027,102.306 158.86,96.9728 162.5,91.5C 157.757,91.1234 153.424,90.1234 149.5,88.5 Z"/></g>
<g><path style="opacity:1" fill="#090909" d="M 241.5,92.5 C 242.043,92.44 242.376,92.1067 242.5,91.5C 238.217,90.5078 233.884,90.1744 229.5,90.5C 235.074,88.5467 241.074,87.88 247.5,88.5C 247.649,89.552 247.483,90.552 247,91.5C 242.711,97.2453 238.544,103.079 234.5,109C 238.821,109.499 243.154,109.666 247.5,109.5C 247.5,110.5 247.5,111.5 247.5,112.5C 241.5,112.5 235.5,112.5 229.5,112.5C 229.343,111.127 229.51,109.793 230,108.5C 234.052,103.288 237.885,97.9546 241.5,92.5 Z"/></g>
<g><path style="opacity:1" fill="#f7f7f7" d="M 180.5,90.5 C 187.002,89.5625 190.669,92.2292 191.5,98.5C 186.167,98.5 180.833,98.5 175.5,98.5C 175.667,94.8206 177.334,92.154 180.5,90.5 Z"/></g>
<g><path style="opacity:1" fill="#f4f4f4" d="M 209.5,90.5 C 215.448,89.4411 219.448,91.7744 221.5,97.5C 215.872,98.4954 210.206,98.8288 204.5,98.5C 204.945,95.0579 206.612,92.3912 209.5,90.5 Z"/></g>
<g><path style="opacity:1" fill="#7e7e7e" d="M 229.5,90.5 C 233.884,90.1744 238.217,90.5078 242.5,91.5C 242.376,92.1067 242.043,92.44 241.5,92.5C 237.5,91.8333 233.5,91.1667 229.5,90.5 Z"/></g>
<g><path style="opacity:1" fill="#050505" d="M 1279.5,97.5 C 1280.5,97.4142 1281.33,97.7476 1282,98.5C 1284.98,104.442 1288.15,110.275 1291.5,116C 1297.85,119.699 1304.19,123.366 1310.5,127C 1304.32,130.588 1297.99,133.922 1291.5,137C 1287.71,143.414 1284.04,149.914 1280.5,156.5C 1276.96,149.928 1273.3,143.428 1269.5,137C 1263.01,133.922 1256.68,130.588 1250.5,127C 1256.98,123.199 1263.48,119.365 1270,115.5C 1273.45,109.604 1276.61,103.604 1279.5,97.5 Z"/></g>
<g><path style="opacity:1" fill="#7e7e7e" d="M 135.5,97.5 C 136.404,98.209 136.737,99.209 136.5,100.5C 132.116,100.826 127.783,100.492 123.5,99.5C 123.624,98.8933 123.957,98.56 124.5,98.5C 126.134,99.1611 127.967,99.4944 130,99.5C 132.295,99.4535 134.129,98.7868 135.5,97.5 Z"/></g>
<g><path style="opacity:1" fill="#686868" d="M 224.5,97.5 C 225.434,98.5676 225.768,99.901 225.5,101.5C 218.5,101.5 211.5,101.5 204.5,101.5C 210.979,100.509 217.646,100.176 224.5,100.5C 224.5,99.5 224.5,98.5 224.5,97.5 Z"/></g>
<g><path style="opacity:1" fill="#404040" d="M 365.5,124.5 C 365.5,125.833 365.5,127.167 365.5,128.5C 652.5,128.5 939.5,128.5 1226.5,128.5C 1226.5,127.167 1226.5,125.833 1226.5,124.5C 1227.45,125.919 1227.78,127.585 1227.5,129.5C 939.833,129.5 652.167,129.5 364.5,129.5C 364.216,127.585 364.549,125.919 365.5,124.5 Z"/></g>
<g><path style="opacity:1" fill="#000000" d="M 365.5,124.5 C 652.5,124.5 939.5,124.5 1226.5,124.5C 1226.5,125.833 1226.5,127.167 1226.5,128.5C 939.5,128.5 652.5,128.5 365.5,128.5C 365.5,127.167 365.5,125.833 365.5,124.5 Z"/></g>
<g><path style="opacity:1" fill="#141414" d="M 128.5,141.5 C 129.822,141.33 130.989,141.663 132,142.5C 136.225,153.688 140.725,164.688 145.5,175.5C 144.167,176.833 142.833,176.833 141.5,175.5C 140.123,173.711 139.123,171.711 138.5,169.5C 132.833,168.167 127.167,168.167 121.5,169.5C 120.423,171.729 119.756,174.063 119.5,176.5C 117.712,176.785 116.045,176.452 114.5,175.5C 119.681,164.339 124.347,153.006 128.5,141.5 Z"/></g>
<g><path style="opacity:1" fill="#111111" d="M 173.5,142.5 C 173.5,153.833 173.5,165.167 173.5,176.5C 172.5,176.5 171.5,176.5 170.5,176.5C 170.719,175.325 170.386,174.325 169.5,173.5C 168.893,173.624 168.56,173.957 168.5,174.5C 157.365,180.432 151.032,177.099 149.5,164.5C 149.955,154.093 155.288,150.26 165.5,153C 166.931,153.465 168.097,154.299 169,155.5C 169.499,151.179 169.666,146.846 169.5,142.5C 170.833,142.5 172.167,142.5 173.5,142.5 Z"/></g>
<g><path style="opacity:1" fill="#626262" d="M 173.5,142.5 C 174.495,153.988 174.828,165.655 174.5,177.5C 172.833,177.5 171.167,177.5 169.5,177.5C 169.737,176.209 169.404,175.209 168.5,174.5C 168.56,173.957 168.893,173.624 169.5,173.5C 170.386,174.325 170.719,175.325 170.5,176.5C 171.5,176.5 172.5,176.5 173.5,176.5C 173.5,165.167 173.5,153.833 173.5,142.5 Z"/></g>
<g><path style="opacity:1" fill="#7e7e7e" d="M 210.5,142.5 C 210.5,153.833 210.5,165.167 210.5,176.5C 211.5,176.5 212.5,176.5 213.5,176.5C 212.432,177.434 211.099,177.768 209.5,177.5C 209.172,165.655 209.505,153.988 210.5,142.5 Z"/></g>
<g><path style="opacity:1" fill="#0f0f0f" d="M 210.5,142.5 C 211.5,142.5 212.5,142.5 213.5,142.5C 213.174,146.884 213.508,151.217 214.5,155.5C 225.828,149.326 232.828,152.493 235.5,165C 232.24,178.053 225.074,180.886 214,173.5C 213.517,174.448 213.351,175.448 213.5,176.5C 212.5,176.5 211.5,176.5 210.5,176.5C 210.5,165.167 210.5,153.833 210.5,142.5 Z"/></g>
<g><path style="opacity:1" fill="#f2f2f2" d="M 129.5,148.5 C 132.203,153.414 134.537,158.58 136.5,164C 132.167,164.667 127.833,164.667 123.5,164C 125.809,158.899 127.809,153.732 129.5,148.5 Z"/></g>
<g><path style="opacity:1" fill="#141414" d="M 187.5,152.5 C 198.312,150.324 203.645,154.657 203.5,165.5C 196.8,165.17 190.134,165.503 183.5,166.5C 187.32,175.417 192.987,176.75 200.5,170.5C 201.5,170.833 202.167,171.5 202.5,172.5C 197.175,178.037 191.175,178.87 184.5,175C 179.804,168.869 179.304,162.369 183,155.5C 184.409,154.219 185.909,153.219 187.5,152.5 Z"/></g>
<g><path style="opacity:1" fill="#0e0e0e" d="M 247.5,152.5 C 252.284,151.839 256.618,152.839 260.5,155.5C 261.386,154.675 261.719,153.675 261.5,152.5C 262.833,152.5 264.167,152.5 265.5,152.5C 265.5,160.833 265.5,169.167 265.5,177.5C 264.167,177.5 262.833,177.5 261.5,177.5C 261.657,176.127 261.49,174.793 261,173.5C 255,178.833 249,178.833 243,173.5C 239,165.179 240.5,158.179 247.5,152.5 Z"/></g>
<g><path style="opacity:1" fill="#141414" d="M 270.5,152.5 C 271.822,152.33 272.989,152.663 274,153.5C 276.296,159.284 278.796,164.95 281.5,170.5C 284.038,164.879 286.371,159.212 288.5,153.5C 289.689,152.571 291.022,152.238 292.5,152.5C 287.96,164.123 283.627,175.79 279.5,187.5C 278.022,187.762 276.689,187.429 275.5,186.5C 276.833,183.5 278.167,180.5 279.5,177.5C 276.201,169.243 273.201,160.91 270.5,152.5 Z"/></g>
<g><path style="opacity:1" fill="#141414" d="M 303.5,152.5 C 318.372,151.857 323.539,158.524 319,172.5C 312.615,178.739 305.948,179.072 299,173.5C 295.667,167.5 295.667,161.5 299,155.5C 300.652,154.601 302.152,153.601 303.5,152.5 Z"/></g>
<g><path style="opacity:1" fill="#f7f7f7" d="M 157.5,155.5 C 167.655,154.83 171.489,159.496 169,169.5C 162.687,176.42 157.353,175.753 153,167.5C 152.333,165.167 152.333,162.833 153,160.5C 154.634,158.938 156.134,157.271 157.5,155.5 Z"/></g>
<g><path style="opacity:1" fill="#f5f5f5" d="M 188.5,155.5 C 194.716,154.268 198.716,156.602 200.5,162.5C 194.833,163.833 189.167,163.833 183.5,162.5C 184.065,159.284 185.732,156.951 188.5,155.5 Z"/></g>
<g><path style="opacity:1" fill="#f7f7f7" d="M 218.5,155.5 C 229.784,154.94 233.617,159.94 230,170.5C 223.322,176.328 217.989,175.328 214,167.5C 213.333,165.167 213.333,162.833 214,160.5C 215.634,158.938 217.134,157.271 218.5,155.5 Z"/></g>
<g><path style="opacity:1" fill="#f6f6f6" d="M 250.5,155.5 C 260.218,156.261 263.385,161.261 260,170.5C 253.534,176.342 248.201,175.342 244,167.5C 243.328,161.836 245.495,157.836 250.5,155.5 Z"/></g>
<g><path style="opacity:1" fill="#f6f6f6" d="M 306.5,155.5 C 313.068,155.231 316.735,158.398 317.5,165C 314.575,174.716 309.075,176.55 301,170.5C 298.232,163.623 300.066,158.623 306.5,155.5 Z"/></g>
<g><path style="opacity:1" fill="#070707" d="M 279.5,407.5 C 293.593,408.094 298.426,415.094 294,428.5C 288.525,435.037 282.025,436.204 274.5,432C 268.923,426.146 268.09,419.646 272,412.5C 274.17,410.177 276.67,408.51 279.5,407.5 Z"/></g>
<g><path style="opacity:1" fill="#030303" d="M 119.5,410.5 C 128.192,410.169 136.859,410.502 145.5,411.5C 158.717,445.602 172.217,479.602 186,513.5C 199.302,479.258 212.802,445.258 226.5,411.5C 235.147,410.335 243.814,410.168 252.5,411C 233.5,458.314 214.667,505.814 196,553.5C 189.256,554.479 182.422,554.812 175.5,554.5C 156.634,506.568 137.967,458.568 119.5,410.5 Z"/></g>
<g><path style="opacity:1" fill="#000000" d="M 668.5,410.5 C 676.5,410.5 684.5,410.5 692.5,410.5C 692.5,458.5 692.5,506.5 692.5,554.5C 684.5,554.5 676.5,554.5 668.5,554.5C 668.5,506.5 668.5,458.5 668.5,410.5 Z"/></g>
<g><path style="opacity:1" fill="#616161" d="M 1086.5,409.5 C 1086.83,427.845 1086.5,446.179 1085.5,464.5C 1084.89,464.376 1084.56,464.043 1084.5,463.5C 1085.17,445.5 1085.83,427.5 1086.5,409.5 Z"/></g>
<g><path style="opacity:1" fill="#020202" d="M 1086.5,409.5 C 1094.17,409.5 1101.83,409.5 1109.5,409.5C 1109.5,457.5 1109.5,505.5 1109.5,553.5C 1101.83,553.5 1094.17,553.5 1086.5,553.5C 1086.82,549.445 1086.49,545.445 1085.5,541.5C 1084.89,541.624 1084.56,541.957 1084.5,542.5C 1075.49,552.564 1064.16,557.064 1050.5,556C 1021.22,550.707 1006.22,533.04 1005.5,503C 1005.33,475.184 1018.66,457.851 1045.5,451C 1060.74,448.552 1073.74,452.719 1084.5,463.5C 1084.56,464.043 1084.89,464.376 1085.5,464.5C 1086.5,446.179 1086.83,427.845 1086.5,409.5 Z"/></g>
<g><path style="opacity:1" fill="#040404" d="M 354.5,449.5 C 368.488,448.443 381.154,451.943 392.5,460C 396.062,463.058 399.062,466.558 401.5,470.5C 396.5,473.833 391.5,477.167 386.5,480.5C 376.814,470.771 365.147,466.938 351.5,469C 344.208,471.305 341.708,476.138 344,483.5C 345.739,485.283 347.572,486.95 349.5,488.5C 363.679,492.295 377.346,497.462 390.5,504C 402.195,514.499 404.695,526.999 398,541.5C 392.537,549.439 385.037,554.273 375.5,556C 358.387,559.365 342.387,556.698 327.5,548C 322.675,544.183 319.008,539.516 316.5,534C 316.759,532.739 317.426,531.739 318.5,531C 322.916,528.042 327.416,525.208 332,522.5C 343.033,537.4 357.199,541.567 374.5,535C 379.746,529.301 379.746,523.634 374.5,518C 361.088,513.31 347.755,508.31 334.5,503C 322.497,495.818 317.997,485.318 321,471.5C 324.079,463.42 329.579,457.586 337.5,454C 343.111,451.731 348.778,450.231 354.5,449.5 Z"/></g>
<g><path style="opacity:1" fill="#020202" d="M 617.5,463.5 C 617.56,464.043 617.893,464.376 618.5,464.5C 619.491,460.555 619.824,456.555 619.5,452.5C 627.167,452.5 634.833,452.5 642.5,452.5C 642.5,486.167 642.5,519.833 642.5,553.5C 634.833,553.5 627.167,553.5 619.5,553.5C 619.824,549.445 619.491,545.445 618.5,541.5C 617.893,541.624 617.56,541.957 617.5,542.5C 608.494,552.564 597.16,557.064 583.5,556C 554.157,550.648 539.157,532.981 538.5,503C 538.681,475.492 552.014,458.159 578.5,451C 593.735,448.552 606.735,452.719 617.5,463.5 Z"/></g>
<g><path style="opacity:1" fill="#020202" d="M 798.5,450.5 C 814.473,448.323 827.973,452.99 839,464.5C 839.499,460.514 839.666,456.514 839.5,452.5C 847.5,452.5 855.5,452.5 863.5,452.5C 863.5,486.5 863.5,520.5 863.5,554.5C 855.5,554.5 847.5,554.5 839.5,554.5C 839.666,550.486 839.499,546.486 839,542.5C 816.219,561.454 793.886,560.787 772,540.5C 756.6,519.433 754.6,497.1 766,473.5C 773.904,461.484 784.738,453.817 798.5,450.5 Z"/></g>
<g><path style="opacity:1" fill="#040404" d="M 934.5,450.5 C 949.57,448.555 962.737,452.555 974,462.5C 979.498,469.166 982.498,476.833 983,485.5C 983.5,508.498 983.667,531.498 983.5,554.5C 975.5,554.5 967.5,554.5 959.5,554.5C 959.667,532.164 959.5,509.831 959,487.5C 955.497,476.654 947.997,470.987 936.5,470.5C 926.26,470.532 919.093,475.198 915,484.5C 913.552,507.789 913.052,531.122 913.5,554.5C 905.5,554.5 897.5,554.5 889.5,554.5C 889.5,520.5 889.5,486.5 889.5,452.5C 897.5,452.5 905.5,452.5 913.5,452.5C 912.249,461.329 914.249,462.829 919.5,457C 924.336,454.243 929.336,452.077 934.5,450.5 Z"/></g>
<g><path style="opacity:1" fill="#8f8f8f" d="M 642.5,452.5 C 634.833,452.5 627.167,452.5 619.5,452.5C 619.824,456.555 619.491,460.555 618.5,464.5C 617.893,464.376 617.56,464.043 617.5,463.5C 618.483,459.702 618.817,455.702 618.5,451.5C 626.684,451.174 634.684,451.508 642.5,452.5 Z"/></g>
<g><path style="opacity:1" fill="#040404" d="M 270.5,452.5 C 278.5,452.5 286.5,452.5 294.5,452.5C 294.5,486.5 294.5,520.5 294.5,554.5C 286.5,554.5 278.5,554.5 270.5,554.5C 270.5,520.5 270.5,486.5 270.5,452.5 Z"/></g>
<g><path style="opacity:1" fill="#010101" d="M 422.5,452.5 C 430.167,452.5 437.833,452.5 445.5,452.5C 445.169,474.007 445.503,495.34 446.5,516.5C 450.507,532.017 460.507,538.184 476.5,535C 485.643,532.188 490.81,526.022 492,516.5C 492.5,495.169 492.667,473.836 492.5,452.5C 500.167,452.5 507.833,452.5 515.5,452.5C 515.5,486.5 515.5,520.5 515.5,554.5C 507.833,554.5 500.167,554.5 492.5,554.5C 492.82,551.102 492.487,547.768 491.5,544.5C 490.893,544.624 490.56,544.957 490.5,545.5C 476.742,556.412 461.409,558.912 444.5,553C 432.468,547.285 425.301,537.785 423,524.5C 422.5,500.502 422.333,476.502 422.5,452.5 Z"/></g>
<g><path style="opacity:1" fill="#6c6c6c" d="M 422.5,452.5 C 430.316,451.508 438.316,451.174 446.5,451.5C 446.5,473.167 446.5,494.833 446.5,516.5C 445.503,495.34 445.169,474.007 445.5,452.5C 437.833,452.5 430.167,452.5 422.5,452.5 Z"/></g>
<g><path style="opacity:1" fill="#696969" d="M 492.5,452.5 C 500.316,451.508 508.316,451.174 516.5,451.5C 516.832,486.004 516.498,520.337 515.5,554.5C 515.5,520.5 515.5,486.5 515.5,452.5C 507.833,452.5 500.167,452.5 492.5,452.5 Z"/></g>
<g><path style="opacity:1" fill="#fcfcfc" d="M 585.5,472.5 C 606.316,472.152 617.316,482.318 618.5,503C 619.11,516.782 613.11,526.448 600.5,532C 576.804,536.656 563.804,526.99 561.5,503C 561.779,486.551 569.779,476.384 585.5,472.5 Z"/></g>
<g><path style="opacity:1" fill="#fbfbfb" d="M 806.5,472.5 C 831.632,473.473 842.466,486.473 839,511.5C 830.47,533.007 815.637,538.84 794.5,529C 781.813,516.98 778.979,502.814 786,486.5C 791.139,479.169 797.973,474.502 806.5,472.5 Z"/></g>
<g><path style="opacity:1" fill="#fcfcfc" d="M 1052.5,472.5 C 1073.32,472.152 1084.32,482.318 1085.5,503C 1086.11,516.782 1080.11,526.448 1067.5,532C 1043.67,536.835 1030.67,527.169 1028.5,503C 1028.78,486.551 1036.78,476.384 1052.5,472.5 Z"/></g>
<g><path style="opacity:1" fill="#9c9c9c" d="M 490.5,545.5 C 490.56,544.957 490.893,544.624 491.5,544.5C 492.487,547.768 492.82,551.102 492.5,554.5C 491.833,551.5 491.167,548.5 490.5,545.5 Z"/></g>
<g><path style="opacity:1" fill="#2f2f2f" d="M 617.5,542.5 C 617.56,541.957 617.893,541.624 618.5,541.5C 619.491,545.445 619.824,549.445 619.5,553.5C 627.167,553.5 634.833,553.5 642.5,553.5C 634.684,554.492 626.684,554.826 618.5,554.5C 618.817,550.298 618.483,546.298 617.5,542.5 Z"/></g>
<g><path style="opacity:1" fill="#303030" d="M 1084.5,542.5 C 1084.56,541.957 1084.89,541.624 1085.5,541.5C 1086.49,545.445 1086.82,549.445 1086.5,553.5C 1094.17,553.5 1101.83,553.5 1109.5,553.5C 1101.68,554.492 1093.68,554.826 1085.5,554.5C 1085.82,550.298 1085.48,546.298 1084.5,542.5 Z"/></g>
<g><path style="opacity:1" fill="#060606" d="M 816.5,673.5 C 831.055,674.747 835.555,682.08 830,695.5C 824.972,700.579 819.139,701.745 812.5,699C 804.945,691.662 804.611,683.996 811.5,676C 813.315,675.243 814.981,674.41 816.5,673.5 Z"/></g>
<g><path style="opacity:1" fill="#010101" d="M 125.5,676.5 C 133.5,676.5 141.5,676.5 149.5,676.5C 149.042,710.535 149.542,744.535 151,778.5C 155.971,791.782 165.638,798.449 180,798.5C 196.999,798.359 206.999,790.026 210,773.5C 210.5,741.168 210.667,708.835 210.5,676.5C 218.833,676.5 227.167,676.5 235.5,676.5C 235.667,710.835 235.5,745.168 235,779.5C 227.713,807.674 209.38,822.007 180,822.5C 153.529,822.456 135.863,810.122 127,785.5C 125.539,749.202 125.039,712.868 125.5,676.5 Z"/></g>
<g><path style="opacity:1" fill="#030303" d="M 255.5,677.5 C 264.657,676.342 273.991,676.176 283.5,677C 294.877,693.587 306.377,710.087 318,726.5C 329.167,710.167 340.333,693.833 351.5,677.5C 361.149,676.335 370.816,676.168 380.5,677C 363.912,700.424 347.912,724.258 332.5,748.5C 348.5,772.167 364.5,795.833 380.5,819.5C 371.184,820.665 361.851,820.832 352.5,820C 340.876,803.253 329.376,786.42 318,769.5C 306.5,786.333 295,803.167 283.5,820C 274.149,820.832 264.816,820.665 255.5,819.5C 271.5,795.833 287.5,772.167 303.5,748.5C 287.441,724.793 271.441,701.126 255.5,677.5 Z"/></g>
<g><path style="opacity:1" fill="#020202" d="M 444.5,676.5 C 465.503,676.333 486.503,676.5 507.5,677C 546.106,684.938 565.772,708.605 566.5,748C 567.581,775.486 556.581,796.486 533.5,811C 526.575,814.796 519.242,817.462 511.5,819C 489.194,820.383 466.861,820.883 444.5,820.5C 444.5,772.5 444.5,724.5 444.5,676.5 Z"/></g>
<g><path style="opacity:1" fill="#fcfcfc" d="M 468.5,700.5 C 480.838,700.333 493.171,700.5 505.5,701C 530.186,707.365 542.519,723.365 542.5,749C 541.652,775.848 527.985,791.515 501.5,796C 490.505,796.5 479.505,796.667 468.5,796.5C 468.5,764.5 468.5,732.5 468.5,700.5 Z"/></g>
<g><path style="opacity:1" fill="#040404" d="M 685.5,763.5 C 685.5,767.5 685.5,771.5 685.5,775.5C 659.995,775.169 634.661,775.502 609.5,776.5C 612.11,793.115 621.777,801.449 638.5,801.5C 649.211,801.81 657.877,797.81 664.5,789.5C 670.116,793.115 675.45,797.115 680.5,801.5C 676.589,807.911 671.256,812.744 664.5,816C 646.836,824.666 629.169,824.666 611.5,816C 588.303,799.412 580.803,777.245 589,749.5C 599.615,724.603 618.449,713.77 645.5,717C 669.901,722.965 683.235,738.465 685.5,763.5 Z"/></g>
<g><path style="opacity:1" fill="#040404" d="M 738.5,715.5 C 752.346,715.03 765.013,718.53 776.5,726C 779.941,728.768 782.607,732.101 784.5,736C 780.316,740 775.65,743.5 770.5,746.5C 760.702,736.967 749.035,733.134 735.5,735C 732.461,736.031 729.961,737.865 728,740.5C 726.282,746.157 727.782,750.657 732.5,754C 745.582,757.541 758.249,762.208 770.5,768C 786.378,778.079 789.878,791.579 781,808.5C 775.623,815.749 768.456,820.249 759.5,822C 741.024,825.738 724.024,822.404 708.5,812C 704.919,808.252 701.919,804.085 699.5,799.5C 704.864,795.637 710.364,791.971 716,788.5C 725.834,802.158 739.001,806.991 755.5,803C 762.929,798.313 764.263,792.313 759.5,785C 756.392,782.894 753.059,781.228 749.5,780C 739.073,777.858 729.073,774.524 719.5,770C 700.757,757.139 698.757,742.139 713.5,725C 721.12,719.741 729.454,716.574 738.5,715.5 Z"/></g>
<g><path style="opacity:1" fill="#020202" d="M 935.5,718.5 C 943.167,718.5 950.833,718.5 958.5,718.5C 958.5,751.5 958.5,784.5 958.5,817.5C 956.705,839.461 945.372,853.961 924.5,861C 906.703,865.356 889.703,863.356 873.5,855C 869.225,852.358 865.558,849.025 862.5,845C 867.389,840.44 872.555,836.274 878,832.5C 892.542,845.125 908.042,846.625 924.5,837C 933.46,829.222 936.96,819.389 935,807.5C 926.531,817.067 915.864,822.067 903,822.5C 877.878,820.384 862.211,807.051 856,782.5C 851.526,760.869 857.026,742.369 872.5,727C 891.152,714.121 910.152,713.454 929.5,725C 931.333,726.833 933.167,728.667 935,730.5C 935.499,726.514 935.666,722.514 935.5,718.5 Z"/></g>
<g><path style="opacity:1" fill="#020202" d="M 1009.5,756.5 C 1008.5,777.327 1008.17,798.327 1008.5,819.5C 1000.83,819.5 993.167,819.5 985.5,819.5C 985.5,785.833 985.5,752.167 985.5,718.5C 993.5,718.5 1001.5,718.5 1009.5,718.5C 1009.33,721.85 1009.5,725.183 1010,728.5C 1017.75,720.131 1027.42,716.131 1039,716.5C 1062.44,716.855 1075.78,728.522 1079,751.5C 1079.5,774.498 1079.67,797.498 1079.5,820.5C 1071.5,820.5 1063.5,820.5 1055.5,820.5C 1055.67,799.164 1055.5,777.831 1055,756.5C 1053.3,745.802 1047.14,739.302 1036.5,737C 1021.32,735.236 1012.32,741.736 1009.5,756.5 Z"/></g>
<g><path style="opacity:1" fill="#040404" d="M 1200.5,763.5 C 1200.5,767.5 1200.5,771.5 1200.5,775.5C 1174.99,775.169 1149.66,775.502 1124.5,776.5C 1129.14,796.159 1141.47,804.326 1161.5,801C 1169.41,799.805 1175.57,795.972 1180,789.5C 1185.59,793.378 1191.09,797.378 1196.5,801.5C 1180.39,819.769 1160.39,825.936 1136.5,820C 1111.14,809.801 1099.64,790.968 1102,763.5C 1105.45,733.556 1122.28,717.889 1152.5,716.5C 1181.71,718.708 1197.71,734.375 1200.5,763.5 Z"/></g>
<g><path style="opacity:1" fill="#040404" d="M 1279.5,716.5 C 1280.5,716.5 1281.5,716.5 1282.5,716.5C 1282.5,724.167 1282.5,731.833 1282.5,739.5C 1268.91,738.716 1258.07,743.716 1250,754.5C 1248.26,757.957 1247.26,761.623 1247,765.5C 1246.5,783.83 1246.33,802.164 1246.5,820.5C 1238.5,820.5 1230.5,820.5 1222.5,820.5C 1222.5,786.5 1222.5,752.5 1222.5,718.5C 1230.5,718.5 1238.5,718.5 1246.5,718.5C 1246.33,724.509 1246.5,730.509 1247,736.5C 1254.73,724.566 1265.57,717.899 1279.5,716.5 Z"/></g>
<g><path style="opacity:1" fill="#000000" d="M 807.5,718.5 C 815.167,718.5 822.833,718.5 830.5,718.5C 830.5,752.5 830.5,786.5 830.5,820.5C 822.833,820.5 815.167,820.5 807.5,820.5C 807.5,786.5 807.5,752.5 807.5,718.5 Z"/></g>
<g><path style="opacity:1" fill="#696969" d="M 807.5,718.5 C 815.316,717.508 823.316,717.174 831.5,717.5C 831.832,752.004 831.498,786.337 830.5,820.5C 830.5,786.5 830.5,752.5 830.5,718.5C 822.833,718.5 815.167,718.5 807.5,718.5 Z"/></g>
<g><path style="opacity:1" fill="#6a6a6a" d="M 935.5,718.5 C 943.316,717.508 951.316,717.174 959.5,717.5C 959.832,751.004 959.498,784.338 958.5,817.5C 958.5,784.5 958.5,751.5 958.5,718.5C 950.833,718.5 943.167,718.5 935.5,718.5 Z"/></g>
<g><path style="opacity:1" fill="#fcfcfc" d="M 632.5,735.5 C 650.323,734.664 660.656,742.997 663.5,760.5C 645.497,760.667 627.497,760.5 609.5,760C 611.6,746.405 619.267,738.238 632.5,735.5 Z"/></g>
<g><path style="opacity:1" fill="#fcfcfc" d="M 1147.5,735.5 C 1165.33,734.667 1175.66,743 1178.5,760.5C 1160.5,760.667 1142.5,760.5 1124.5,760C 1127.3,747.035 1134.97,738.869 1147.5,735.5 Z"/></g>
<g><path style="opacity:1" fill="#fcfcfc" d="M 898.5,739.5 C 921.067,737.079 933.401,747.079 935.5,769.5C 934.621,788.045 924.955,798.045 906.5,799.5C 888.074,798.073 878.408,788.073 877.5,769.5C 877.609,754.43 884.609,744.43 898.5,739.5 Z"/></g>
<g><path style="opacity:1" fill="#202020" d="M 1009.5,756.5 C 1009.5,777.833 1009.5,799.167 1009.5,820.5C 1001.32,820.826 993.316,820.492 985.5,819.5C 993.167,819.5 1000.83,819.5 1008.5,819.5C 1008.17,798.327 1008.5,777.327 1009.5,756.5 Z"/></g>
<g><path style="opacity:1" fill="#686868" d="M 685.5,763.5 C 686.485,767.634 686.818,771.968 686.5,776.5C 660.833,776.5 635.167,776.5 609.5,776.5C 634.661,775.502 659.995,775.169 685.5,775.5C 685.5,771.5 685.5,767.5 685.5,763.5 Z"/></g>
<g><path style="opacity:1" fill="#5c5c5c" d="M 1200.5,763.5 C 1201.48,767.634 1201.82,771.968 1201.5,776.5C 1175.83,776.5 1150.17,776.5 1124.5,776.5C 1149.66,775.502 1174.99,775.169 1200.5,775.5C 1200.5,771.5 1200.5,767.5 1200.5,763.5 Z"/></g>
<g><path style="opacity:1" fill="#0b0b0b" d="M 254.5,960.5 C 256.167,960.5 257.833,960.5 259.5,960.5C 259.5,976.833 259.5,993.167 259.5,1009.5C 257.833,1009.5 256.167,1009.5 254.5,1009.5C 254.662,1007.47 254.495,1005.47 254,1003.5C 248.296,1009.6 241.462,1011.1 233.5,1008C 223.777,999.821 222.277,990.321 229,979.5C 237.724,972.543 246.057,972.877 254,980.5C 254.5,973.842 254.666,967.175 254.5,960.5 Z"/></g>
<g><path style="opacity:1" fill="#141414" d="M 708.5,959.5 C 727.498,959.332 736.998,968.665 737,987.5C 736.277,995.892 731.777,999.392 723.5,998C 721.513,996.681 720.346,994.848 720,992.5C 714.887,998.187 709.22,998.854 703,994.5C 699.284,989.54 698.617,984.207 701,978.5C 706.206,972.638 712.039,971.971 718.5,976.5C 719.524,975.147 720.857,974.48 722.5,974.5C 722.334,980.176 722.501,985.843 723,991.5C 727.237,997.116 730.57,996.449 733,989.5C 734.198,970.036 725.032,961.536 705.5,964C 692.482,969.873 687.982,979.706 692,993.5C 698.422,1006.42 708.422,1010.09 722,1004.5C 722.309,1005.77 722.809,1006.93 723.5,1008C 711.562,1013.37 701.062,1011.2 692,1001.5C 685.342,989.054 686.176,977.221 694.5,966C 698.846,962.95 703.513,960.783 708.5,959.5 Z"/></g>
<g><path style="opacity:1" fill="#0e0e0e" d="M 1114.5,960.5 C 1121.88,959.689 1128.88,960.856 1135.5,964C 1140.29,967.244 1140.29,970.077 1135.5,972.5C 1129.87,965.841 1122.87,964.007 1114.5,967C 1110.88,969.161 1109.71,972.328 1111,976.5C 1111.5,977 1112,977.5 1112.5,978C 1118.38,980.305 1124.38,982.305 1130.5,984C 1142.01,989.881 1143.34,997.547 1134.5,1007C 1126.65,1009.94 1118.65,1010.28 1110.5,1008C 1106.97,1005.97 1104.31,1003.14 1102.5,999.5C 1103.21,997.954 1104.38,996.954 1106,996.5C 1112.6,1004.4 1120.77,1006.57 1130.5,1003C 1135.73,998.585 1135.73,994.251 1130.5,990C 1124.24,987.802 1117.91,985.802 1111.5,984C 1104.7,980.249 1102.54,974.749 1105,967.5C 1107.79,964.535 1110.96,962.202 1114.5,960.5 Z"/></g>
<g><path style="opacity:1" fill="#0e0e0e" d="M 118.5,960.5 C 126.507,960.334 134.507,960.5 142.5,961C 153.424,965.178 156.591,972.678 152,983.5C 150.167,985.333 148.333,987.167 146.5,989C 138.905,990.356 131.238,990.856 123.5,990.5C 123.5,996.833 123.5,1003.17 123.5,1009.5C 121.833,1009.5 120.167,1009.5 118.5,1009.5C 118.5,993.167 118.5,976.833 118.5,960.5 Z"/></g>
<g><path style="opacity:1" fill="#484848" d="M 406.5,961.5 C 399.833,961.5 393.167,961.5 386.5,961.5C 386.5,977.5 386.5,993.5 386.5,1009.5C 385.504,993.342 385.17,977.009 385.5,960.5C 392.687,960.175 399.687,960.509 406.5,961.5 Z"/></g>
<g><path style="opacity:1" fill="#101010" d="M 406.5,961.5 C 419.568,963.766 426.235,971.599 426.5,985C 426.073,996.217 420.74,1003.88 410.5,1008C 402.561,1009.32 394.561,1009.82 386.5,1009.5C 386.5,993.5 386.5,977.5 386.5,961.5C 393.167,961.5 399.833,961.5 406.5,961.5 Z"/></g>
<g><path style="opacity:1" fill="#1b1b1b" d="M 509.5,960.5 C 514.493,960.997 515.493,963.164 512.5,967C 507.382,966.824 506.382,964.658 509.5,960.5 Z"/></g>
<g><path style="opacity:1" fill="#0e0e0e" d="M 778.5,960.5 C 780.766,960.141 782.599,960.808 784,962.5C 790.448,978.095 796.615,993.761 802.5,1009.5C 800.533,1009.74 798.699,1009.41 797,1008.5C 795.783,1005.01 794.283,1001.67 792.5,998.5C 784.855,997.335 777.188,997.169 769.5,998C 767.809,1001.4 766.309,1004.9 765,1008.5C 763.301,1009.41 761.467,1009.74 759.5,1009.5C 766.017,993.291 772.35,976.957 778.5,960.5 Z"/></g>
<g><path style="opacity:1" fill="#030303" d="M 349.5,965.5 C 351.167,965.5 352.833,965.5 354.5,965.5C 354.5,968.833 354.5,972.167 354.5,975.5C 357.167,975.5 359.833,975.5 362.5,975.5C 362.5,976.833 362.5,978.167 362.5,979.5C 359.833,979.5 357.167,979.5 354.5,979.5C 354.334,987.174 354.5,994.841 355,1002.5C 356.848,1005.04 359.348,1006.04 362.5,1005.5C 362.5,1006.83 362.5,1008.17 362.5,1009.5C 358.21,1010.01 354.377,1009.01 351,1006.5C 349.586,997.582 349.086,988.582 349.5,979.5C 347.833,979.5 346.167,979.5 344.5,979.5C 344.5,978.167 344.5,976.833 344.5,975.5C 346.167,975.5 347.833,975.5 349.5,975.5C 349.5,972.167 349.5,968.833 349.5,965.5 Z"/></g>
<g><path style="opacity:1" fill="#040404" d="M 965.5,965.5 C 967.167,965.5 968.833,965.5 970.5,965.5C 970.5,968.833 970.5,972.167 970.5,975.5C 973.167,975.5 975.833,975.5 978.5,975.5C 978.5,976.833 978.5,978.167 978.5,979.5C 975.833,979.5 973.167,979.5 970.5,979.5C 970.334,987.174 970.5,994.841 971,1002.5C 972.848,1005.04 975.348,1006.04 978.5,1005.5C 978.5,1006.83 978.5,1008.17 978.5,1009.5C 973.61,1010.22 969.444,1008.88 966,1005.5C 965.5,996.84 965.334,988.173 965.5,979.5C 963.833,979.5 962.167,979.5 960.5,979.5C 960.5,978.167 960.5,976.833 960.5,975.5C 962.167,975.5 963.833,975.5 965.5,975.5C 965.5,972.167 965.5,968.833 965.5,965.5 Z"/></g>
<g><path style="opacity:1" fill="#fcfcfc" d="M 124.5,966.5 C 130.842,966.334 137.175,966.5 143.5,967C 149.215,971.462 149.881,976.628 145.5,982.5C 144.378,983.63 143.044,984.297 141.5,984.5C 135.833,984.5 130.167,984.5 124.5,984.5C 124.5,978.5 124.5,972.5 124.5,966.5 Z"/></g>
<g><path style="opacity:1" fill="#fbfbfb" d="M 391.5,966.5 C 401.93,964.344 410.763,967.01 418,974.5C 423.828,988.765 419.661,998.599 405.5,1004C 400.845,1004.5 396.179,1004.67 391.5,1004.5C 391.5,991.833 391.5,979.167 391.5,966.5 Z"/></g>
<g><path style="opacity:1" fill="#f7f7f7" d="M 789.5,991.5 C 783.642,991.822 777.975,991.489 772.5,990.5C 774.856,983.59 777.689,976.923 781,970.5C 784.124,977.37 786.957,984.37 789.5,991.5 Z"/></g>
<g><path style="opacity:1" fill="#060606" d="M 162.5,974.5 C 164.167,974.5 165.833,974.5 167.5,974.5C 167.338,976.527 167.505,978.527 168,980.5C 170.617,976.274 174.45,974.274 179.5,974.5C 179.5,976.167 179.5,977.833 179.5,979.5C 174.048,979.144 170.215,981.477 168,986.5C 167.5,994.159 167.334,1001.83 167.5,1009.5C 165.833,1009.5 164.167,1009.5 162.5,1009.5C 162.5,997.833 162.5,986.167 162.5,974.5 Z"/></g>
<g><path style="opacity:1" fill="#0d0d0d" d="M 194.5,974.5 C 207.853,973.033 215.519,978.866 217.5,992C 214.829,1007 206.163,1012.34 191.5,1008C 183.385,1002.06 180.885,994.227 184,984.5C 186.106,979.557 189.606,976.224 194.5,974.5 Z"/></g>
<g><path style="opacity:1" fill="#0f0f0f" d="M 319.5,974.5 C 327.452,972.984 334.118,975.151 339.5,981C 338.338,981.827 337.171,982.66 336,983.5C 329.215,978.291 322.548,978.291 316,983.5C 310.491,999.646 315.991,1006.15 332.5,1003C 334.802,999.682 337.135,999.682 339.5,1003C 331.506,1010.59 322.839,1011.42 313.5,1005.5C 308.331,998.531 307.164,990.865 310,982.5C 312.735,979.231 315.901,976.564 319.5,974.5 Z"/></g>
<g><path style="opacity:1" fill="#0a0a0a" d="M 444.5,974.5 C 458.645,972.98 465.979,979.313 466.5,993.5C 457.167,993.5 447.833,993.5 438.5,993.5C 439.573,1002.4 444.573,1006.24 453.5,1005C 456.621,1004.27 459.287,1002.77 461.5,1000.5C 462.646,1001.14 463.646,1001.98 464.5,1003C 459.204,1009.13 452.538,1011.13 444.5,1009C 433.845,1003.05 430.679,994.214 435,982.5C 436.529,981.271 437.696,979.771 438.5,978C 440.727,977.059 442.727,975.892 444.5,974.5 Z"/></g>
<g><path style="opacity:1" fill="#121212" d="M 480.5,974.5 C 486.072,973.99 491.405,974.823 496.5,977C 500.513,979.447 500.346,981.281 496,982.5C 491.861,978.95 487.028,977.783 481.5,979C 479.32,981.418 478.987,984.084 480.5,987C 485.845,989.002 491.178,991.002 496.5,993C 499.894,997.105 500.394,1001.6 498,1006.5C 492.102,1010.9 485.602,1011.73 478.5,1009C 475.637,1007.64 473.637,1005.47 472.5,1002.5C 473.328,1001.59 474.328,1000.92 475.5,1000.5C 479.858,1005.18 485.191,1006.68 491.5,1005C 494.966,1002.34 495.299,999.339 492.5,996C 488.317,994.204 483.984,992.871 479.5,992C 471.38,985.658 471.713,979.824 480.5,974.5 Z"/></g>
<g><path style="opacity:1" fill="#101010" d="M 534.5,974.5 C 540.932,973.347 546.432,975.014 551,979.5C 551.494,977.866 551.66,976.199 551.5,974.5C 553.5,974.5 555.5,974.5 557.5,974.5C 557.667,986.171 557.5,997.838 557,1009.5C 555.104,1019.04 549.271,1023.7 539.5,1023.5C 533.893,1023.7 529.226,1021.7 525.5,1017.5C 528.499,1015.08 531.499,1015.25 534.5,1018C 544.588,1020.39 550.588,1016.56 552.5,1006.5C 552.167,1005.5 551.833,1004.5 551.5,1003.5C 544.618,1010.52 536.951,1011.36 528.5,1006C 520.5,996.667 520.5,987.333 528.5,978C 530.432,976.541 532.432,975.375 534.5,974.5 Z"/></g>
<g><path style="opacity:1" fill="#0c0c0c" d="M 616.5,974.5 C 630.658,972.994 637.991,979.327 638.5,993.5C 629.143,993.168 619.81,993.502 610.5,994.5C 612.525,1003.02 617.859,1006.52 626.5,1005C 629.173,1004 631.507,1002.5 633.5,1000.5C 634.646,1001.14 635.646,1001.98 636.5,1003C 631.597,1009.08 625.263,1011.08 617.5,1009C 611.667,1007.17 607.833,1003.33 606,997.5C 603.663,986.961 607.163,979.295 616.5,974.5 Z"/></g>
<g><path style="opacity:1" fill="#0d0d0d" d="M 662.5,974.5 C 664.256,975.552 664.923,977.219 664.5,979.5C 658.839,979.578 655.005,982.244 653,987.5C 652.5,994.826 652.334,1002.16 652.5,1009.5C 650.833,1009.5 649.167,1009.5 647.5,1009.5C 647.5,997.833 647.5,986.167 647.5,974.5C 649.5,974.5 651.5,974.5 653.5,974.5C 652.813,980.599 654.146,981.099 657.5,976C 659.025,974.991 660.692,974.491 662.5,974.5 Z"/></g>
<g><path style="opacity:1" fill="#8c8c8c" d="M 662.5,974.5 C 663.209,973.596 664.209,973.263 665.5,973.5C 665.795,975.735 665.461,977.735 664.5,979.5C 664.923,977.219 664.256,975.552 662.5,974.5 Z"/></g>
<g><path style="opacity:1" fill="#0f0f0f" d="M 819.5,974.5 C 826.91,973.304 833.243,975.304 838.5,980.5C 837.833,981.833 836.833,982.833 835.5,983.5C 828.534,978.325 821.7,978.325 815,983.5C 811.364,990.038 811.864,996.204 816.5,1002C 819.155,1003.44 821.988,1004.27 825,1004.5C 829.169,1003.88 833.002,1002.72 836.5,1001C 837.357,1001.69 838.023,1002.52 838.5,1003.5C 832.154,1009.51 824.82,1011.01 816.5,1008C 807.623,1001.93 805.123,993.761 809,983.5C 811.489,979.168 814.989,976.168 819.5,974.5 Z"/></g>
<g><path style="opacity:1" fill="#101010" d="M 856.5,974.5 C 863.91,973.304 870.243,975.304 875.5,980.5C 874.833,981.833 873.833,982.833 872.5,983.5C 865.534,978.325 858.7,978.325 852,983.5C 846.76,994.832 850.094,1001.83 862,1004.5C 866.202,1003.87 870.035,1002.71 873.5,1001C 875.007,1001.84 875.507,1003 875,1004.5C 865.66,1011.46 856.66,1011.13 848,1003.5C 841.113,990.722 843.947,981.055 856.5,974.5 Z"/></g>
<g><path style="opacity:1" fill="#0c0c0c" d="M 893.5,974.5 C 907.166,973.501 914.166,979.834 914.5,993.5C 905.143,993.168 895.81,993.502 886.5,994.5C 888.553,1003.06 893.886,1006.56 902.5,1005C 905.66,1004.01 908.16,1002.18 910,999.5C 910.635,1000.97 911.469,1002.3 912.5,1003.5C 907.396,1009.09 901.063,1010.93 893.5,1009C 888.427,1007.59 884.927,1004.43 883,999.5C 879.452,987.929 882.952,979.596 893.5,974.5 Z"/></g>
<g><path style="opacity:1" fill="#070707" d="M 1026.5,974.5 C 1028.17,974.5 1029.83,974.5 1031.5,974.5C 1031.34,976.527 1031.5,978.527 1032,980.5C 1034.62,976.274 1038.45,974.274 1043.5,974.5C 1043.5,976.167 1043.5,977.833 1043.5,979.5C 1038.05,979.144 1034.22,981.477 1032,986.5C 1031.5,994.159 1031.33,1001.83 1031.5,1009.5C 1029.83,1009.5 1028.17,1009.5 1026.5,1009.5C 1026.5,997.833 1026.5,986.167 1026.5,974.5 Z"/></g>
<g><path style="opacity:1" fill="#0b0b0b" d="M 1058.5,974.5 C 1072.65,972.98 1079.98,979.313 1080.5,993.5C 1071.17,993.5 1061.83,993.5 1052.5,993.5C 1054.04,1002.54 1059.38,1006.37 1068.5,1005C 1071.17,1004 1073.51,1002.5 1075.5,1000.5C 1076.65,1001.14 1077.65,1001.98 1078.5,1003C 1073.2,1009.13 1066.54,1011.13 1058.5,1009C 1050.83,1005.98 1047.16,1000.32 1047.5,992C 1047.36,983.662 1051.03,977.829 1058.5,974.5 Z"/></g>
<g><path style="opacity:1" fill="#0d0d0d" d="M 1159.5,974.5 C 1172.85,973.033 1180.52,978.866 1182.5,992C 1179.83,1007 1171.16,1012.34 1156.5,1008C 1150.67,1004.34 1147.67,999.006 1147.5,992C 1147.71,983.369 1151.71,977.536 1159.5,974.5 Z"/></g>
<g><path style="opacity:1" fill="#0d0d0d" d="M 1241.5,974.5 C 1248.34,973.275 1253.84,975.275 1258,980.5C 1258.5,978.527 1258.66,976.527 1258.5,974.5C 1260.17,974.5 1261.83,974.5 1263.5,974.5C 1263.95,988.24 1263.45,1001.91 1262,1015.5C 1253.29,1024.98 1243.62,1025.98 1233,1018.5C 1232.73,1016.41 1233.73,1015.08 1236,1014.5C 1241.31,1018.72 1247.14,1019.55 1253.5,1017C 1258.08,1013.56 1259.58,1009.06 1258,1003.5C 1256.16,1006.17 1253.66,1008.01 1250.5,1009C 1237.57,1010.74 1230.57,1005.08 1229.5,992C 1229.44,983.249 1233.44,977.416 1241.5,974.5 Z"/></g>
<g><path style="opacity:1" fill="#080808" d="M 269.5,974.5 C 271.167,974.5 272.833,974.5 274.5,974.5C 274.334,982.507 274.5,990.507 275,998.5C 277.851,1005.39 282.684,1007.23 289.5,1004C 291.049,1002.79 292.215,1001.29 293,999.5C 293.5,991.173 293.666,982.84 293.5,974.5C 295.167,974.5 296.833,974.5 298.5,974.5C 298.5,986.167 298.5,997.833 298.5,1009.5C 296.833,1009.5 295.167,1009.5 293.5,1009.5C 293.657,1008.13 293.49,1006.79 293,1005.5C 286,1010.83 279,1010.83 272,1005.5C 271.71,1003.96 271.044,1002.62 270,1001.5C 269.5,992.506 269.334,983.506 269.5,974.5 Z"/></g>
<g><path style="opacity:1" fill="#020202" d="M 508.5,974.5 C 510.167,974.5 511.833,974.5 513.5,974.5C 513.5,986.167 513.5,997.833 513.5,1009.5C 511.833,1009.5 510.167,1009.5 508.5,1009.5C 508.5,997.833 508.5,986.167 508.5,974.5 Z"/></g>
<g><path style="opacity:1" fill="#131313" d="M 580.5,974.5 C 587.434,973.883 592.601,976.55 596,982.5C 596.5,991.494 596.666,1000.49 596.5,1009.5C 594.833,1009.5 593.167,1009.5 591.5,1009.5C 591.91,1000.75 591.41,992.084 590,983.5C 583.878,977.85 578.211,978.183 573,984.5C 572.5,992.827 572.334,1001.16 572.5,1009.5C 570.5,1009.5 568.5,1009.5 566.5,1009.5C 566.5,998.167 566.5,986.833 566.5,975.5C 568.5,975.5 570.5,975.5 572.5,975.5C 572.343,976.873 572.51,978.207 573,979.5C 574.913,976.72 577.413,975.053 580.5,974.5 Z"/></g>
<g><path style="opacity:1" fill="#101010" d="M 937.5,974.5 C 944.064,974.196 948.898,976.862 952,982.5C 953.414,991.418 953.914,1000.42 953.5,1009.5C 951.5,1009.5 949.5,1009.5 947.5,1009.5C 947.666,1001.16 947.5,992.827 947,984.5C 943.702,979.78 939.202,978.28 933.5,980C 931.19,981.637 929.69,983.804 929,986.5C 928.5,994.159 928.334,1001.83 928.5,1009.5C 926.833,1009.5 925.167,1009.5 923.5,1009.5C 923.5,998.167 923.5,986.833 923.5,975.5C 925.167,975.5 926.833,975.5 928.5,975.5C 928.343,976.873 928.51,978.207 929,979.5C 931.425,976.945 934.259,975.278 937.5,974.5 Z"/></g>
<g><path style="opacity:1" fill="#080808" d="M 986.5,974.5 C 988.167,974.5 989.833,974.5 991.5,974.5C 991.334,982.507 991.5,990.507 992,998.5C 995.779,1005.78 1001.28,1007.28 1008.5,1003C 1009.46,1001.58 1010.29,1000.08 1011,998.5C 1011.5,990.507 1011.67,982.507 1011.5,974.5C 1013.17,974.5 1014.83,974.5 1016.5,974.5C 1016.5,986.167 1016.5,997.833 1016.5,1009.5C 1014.83,1009.5 1013.17,1009.5 1011.5,1009.5C 1011.76,1008.02 1011.43,1006.69 1010.5,1005.5C 1007.71,1008.64 1004.21,1009.98 1000,1009.5C 993.086,1009.59 988.753,1006.26 987,999.5C 986.5,991.173 986.334,982.84 986.5,974.5 Z"/></g>
<g><path style="opacity:1" fill="#070707" d="M 1204.5,974.5 C 1210.64,974.32 1215.47,976.653 1219,981.5C 1220.39,990.766 1220.89,1000.1 1220.5,1009.5C 1218.83,1009.5 1217.17,1009.5 1215.5,1009.5C 1215.67,1001.83 1215.5,994.159 1215,986.5C 1211.74,979.519 1206.57,977.686 1199.5,981C 1197.96,982.579 1196.79,984.413 1196,986.5C 1195.5,994.159 1195.33,1001.83 1195.5,1009.5C 1193.83,1009.5 1192.17,1009.5 1190.5,1009.5C 1190.5,998.167 1190.5,986.833 1190.5,975.5C 1192.17,975.5 1193.83,975.5 1195.5,975.5C 1195.34,976.873 1195.51,978.207 1196,979.5C 1198.53,977.097 1201.36,975.43 1204.5,974.5 Z"/></g>
<g><path style="opacity:1" fill="#f7f7f7" d="M 707.5,977.5 C 717.484,976.648 720.984,980.981 718,990.5C 715.091,993.394 711.591,994.227 707.5,993C 703.723,990.089 702.556,986.256 704,981.5C 704.69,979.65 705.856,978.316 707.5,977.5 Z"/></g>
<g><path style="opacity:1" fill="#f8f8f8" d="M 194.5,979.5 C 207.818,978.319 213.318,984.319 211,997.5C 207.638,1003.84 202.472,1006.01 195.5,1004C 188.985,1000.79 186.485,995.624 188,988.5C 189.581,985.084 191.748,982.084 194.5,979.5 Z"/></g>
<g><path style="opacity:1" fill="#f9f9f9" d="M 237.5,979.5 C 249.193,978.695 254.693,984.028 254,995.5C 251.034,1003.05 245.534,1005.89 237.5,1004C 230.862,999.983 228.696,994.15 231,986.5C 232.694,983.642 234.861,981.309 237.5,979.5 Z"/></g>
<g><path style="opacity:1" fill="#f1f1f1" d="M 447.5,978.5 C 451.901,977.87 455.568,979.203 458.5,982.5C 460.623,984.745 461.623,987.412 461.5,990.5C 453.833,990.5 446.167,990.5 438.5,990.5C 439.274,984.739 442.274,980.739 447.5,978.5 Z"/></g>
<g><path style="opacity:1" fill="#f8f8f8" d="M 535.5,979.5 C 549.897,979.383 554.73,986.05 550,999.5C 546.155,1004 541.322,1005.5 535.5,1004C 524.899,995.838 524.899,987.671 535.5,979.5 Z"/></g>
<g><path style="opacity:1" fill="#f2f2f2" d="M 619.5,978.5 C 628.205,977.875 632.871,981.875 633.5,990.5C 625.804,990.831 618.138,990.497 610.5,989.5C 611.718,984.29 614.718,980.623 619.5,978.5 Z"/></g>
<g><path style="opacity:1" fill="#f2f2f2" d="M 895.5,978.5 C 903.513,978.01 908.513,981.677 910.5,989.5C 902.5,990.833 894.5,990.833 886.5,989.5C 887.728,984.282 890.728,980.615 895.5,978.5 Z"/></g>
<g><path style="opacity:1" fill="#f1f1f1" d="M 1061.5,978.5 C 1069.88,978.218 1074.55,982.218 1075.5,990.5C 1067.83,990.5 1060.17,990.5 1052.5,990.5C 1053.24,984.765 1056.24,980.765 1061.5,978.5 Z"/></g>
<g><path style="opacity:1" fill="#f7f7f7" d="M 1159.5,979.5 C 1172.82,978.319 1178.32,984.319 1176,997.5C 1172.64,1003.84 1167.47,1006.01 1160.5,1004C 1153.98,1000.79 1151.48,995.624 1153,988.5C 1154.58,985.084 1156.75,982.084 1159.5,979.5 Z"/></g>
<g><path style="opacity:1" fill="#f9f9f9" d="M 1243.5,979.5 C 1255.65,979.427 1260.48,985.427 1258,997.5C 1253.87,1004.49 1248.04,1006.32 1240.5,1003C 1234.32,997.928 1232.99,991.761 1236.5,984.5C 1238.62,982.358 1240.95,980.692 1243.5,979.5 Z"/></g>
<g><path style="opacity:1" fill="#737373" d="M 124.5,966.5 C 124.5,972.5 124.5,978.5 124.5,984.5C 130.167,984.5 135.833,984.5 141.5,984.5C 135.69,985.49 129.69,985.823 123.5,985.5C 123.177,978.978 123.51,972.645 124.5,966.5 Z"/></g>
<g><path style="opacity:1" fill="#7a7a7a" d="M 772.5,990.5 C 777.975,991.489 783.642,991.822 789.5,991.5C 783.654,992.817 777.654,992.817 771.5,991.5C 771.624,990.893 771.957,990.56 772.5,990.5 Z"/></g>
<g><path style="opacity:1" fill="#050505" d="M 142.5,1296.5 C 143.376,1296.37 144.043,1296.7 144.5,1297.5C 147.789,1303.91 151.456,1310.08 155.5,1316C 161.5,1319.33 167.5,1322.67 173.5,1326C 167.167,1329.67 160.833,1333.33 154.5,1337C 150.945,1343.28 147.278,1349.45 143.5,1355.5C 140.112,1349.17 136.446,1343.01 132.5,1337C 126.147,1333.3 119.813,1329.63 113.5,1326C 119.889,1322.39 126.389,1318.89 133,1315.5C 136.721,1309.39 139.887,1303.06 142.5,1296.5 Z"/></g>
<g><path style="opacity:1" fill="#7f7f7f" d="M 193.5,1325.5 C 558.666,1324.5 924,1324.17 1289.5,1324.5C 1289.74,1325.79 1289.4,1326.79 1288.5,1327.5C 923.835,1325.5 558.835,1324.83 193.5,1325.5 Z"/></g>
<g><path style="opacity:1" fill="#000000" d="M 193.5,1325.5 C 558.835,1324.83 923.835,1325.5 1288.5,1327.5C 923.165,1328.17 558.165,1327.5 193.5,1325.5 Z"/></g>
</svg>
