<?xml version="1.0" encoding="UTF-8"?>
<!DOCTYPE svg PUBLIC "-//W3C//DTD SVG 1.1//EN" "http://www.w3.org/Graphics/SVG/1.1/DTD/svg11.dtd">
<svg xmlns="http://www.w3.org/2000/svg" version="1.1" width="432px" height="290px" style="shape-rendering:geometricPrecision; text-rendering:geometricPrecision; image-rendering:optimizeQuality; fill-rule:evenodd; clip-rule:evenodd" xmlns:xlink="http://www.w3.org/1999/xlink">
<g><path style="opacity:0.994" fill="#f8f9f8" d="M -0.5,-0.5 C 143.5,-0.5 287.5,-0.5 431.5,-0.5C 431.5,96.1667 431.5,192.833 431.5,289.5C 287.5,289.5 143.5,289.5 -0.5,289.5C -0.5,192.833 -0.5,96.1667 -0.5,-0.5 Z"/></g>
<g><path style="opacity:1" fill="#05daee" d="M 306.5,37.5 C 306.5,36.8333 306.5,36.1667 306.5,35.5C 306.5,32.5 306.5,29.5 306.5,26.5C 324.5,26.5 342.5,26.5 360.5,26.5C 360.5,31.1667 360.5,35.8333 360.5,40.5C 342.5,40.5 324.5,40.5 306.5,40.5C 306.5,39.5 306.5,38.5 306.5,37.5 Z"/></g>
<g><path style="opacity:1" fill="#087986" d="M 311.5,31.5 C 319.494,32.1659 327.161,32.1659 334.5,31.5C 334.5,32.8333 334.5,34.1667 334.5,35.5C 326.576,35.0693 318.91,35.0693 311.5,35.5C 311.5,34.1667 311.5,32.8333 311.5,31.5 Z"/></g>
<g><path style="opacity:1" fill="#067782" d="M 336.5,31.5 C 342.807,32.671 349.14,32.671 355.5,31.5C 355.5,32.8333 355.5,34.1667 355.5,35.5C 349.704,34.4228 344.037,34.4228 338.5,35.5C 335.652,35.1393 334.986,33.806 336.5,31.5 Z"/></g>
<g><path style="opacity:1" fill="#506464" d="M 306.5,35.5 C 306.5,36.1667 306.5,36.8333 306.5,37.5C 305.778,37.9175 305.278,38.5842 305,39.5C 304.227,37.6476 304.727,36.3143 306.5,35.5 Z"/></g>
<g><path style="opacity:1" fill="#0adaeb" d="M 100.5,26.5 C 118.5,26.5 136.5,26.5 154.5,26.5C 154.5,31.1667 154.5,35.8333 154.5,40.5C 136.5,40.5 118.5,40.5 100.5,40.5C 100.5,35.8333 100.5,31.1667 100.5,26.5 Z"/></g>
<g><path style="opacity:1" fill="#077985" d="M 108.5,34.5 C 109.847,35.1712 111.014,35.1712 112,34.5C 112.333,35.1667 112.667,35.8333 113,36.5C 113.519,35.4844 114.353,34.8178 115.5,34.5C 123.657,34.6401 132.323,34.6401 141.5,34.5C 141.5,35.8333 141.5,37.1667 141.5,38.5C 130.66,38.3695 119.66,38.3695 108.5,38.5C 108.5,37.1667 108.5,35.8333 108.5,34.5 Z"/></g>
<g><path style="opacity:1" fill="#026273" d="M 143.5,34.5 C 144.586,34.62 145.253,35.2867 145.5,36.5C 145.167,37.1667 144.833,37.8333 144.5,38.5C 143.571,37.3112 143.238,35.9778 143.5,34.5 Z"/></g>
<g><path style="opacity:1" fill="#04717c" d="M 117.5,28.5 C 124.291,29.4574 130.958,29.7908 137.5,29.5C 137.5,30.5 137.5,31.5 137.5,32.5C 131.256,31.8773 124.589,31.8773 117.5,32.5C 117.5,31.1667 117.5,29.8333 117.5,28.5 Z"/></g>
<g><path style="opacity:1" fill="#a3ef81" d="M 154.5,50.5 C 154.5,51.1667 154.5,51.8333 154.5,52.5C 154.5,54.5 154.5,56.5 154.5,58.5C 136.5,58.5 118.5,58.5 100.5,58.5C 100.5,53.5 100.5,48.5 100.5,43.5C 118.5,43.5 136.5,43.5 154.5,43.5C 154.5,45.8333 154.5,48.1667 154.5,50.5 Z"/></g>
<g><path style="opacity:1" fill="#a3f082" d="M 306.5,43.5 C 324.5,43.5 342.5,43.5 360.5,43.5C 360.5,48.5 360.5,53.5 360.5,58.5C 342.5,58.5 324.5,58.5 306.5,58.5C 306.5,53.5 306.5,48.5 306.5,43.5 Z"/></g>
<g><path style="opacity:1" fill="#6ded3f" d="M 101.5,44.5 C 118.833,44.5 136.167,44.5 153.5,44.5C 153.5,48.8333 153.5,53.1667 153.5,57.5C 136.497,57.6666 119.497,57.4999 102.5,57C 101.536,52.9341 101.203,48.7675 101.5,44.5 Z"/></g>
<g><path style="opacity:1" fill="#6cec3e" d="M 307.5,44.5 C 324.833,44.5 342.167,44.5 359.5,44.5C 359.5,48.8333 359.5,53.1667 359.5,57.5C 342.167,57.5 324.833,57.5 307.5,57.5C 307.5,53.1667 307.5,48.8333 307.5,44.5 Z"/></g>
<g><path style="opacity:1" fill="#4cab32" d="M 128.5,46.5 C 133.918,46.3779 139.584,46.3779 145.5,46.5C 145.737,47.791 145.404,48.791 144.5,49.5C 142.777,48.1999 140.61,47.5332 138,47.5C 135.443,47.5546 132.943,47.8879 130.5,48.5C 129.818,47.7573 129.151,47.0906 128.5,46.5 Z"/></g>
<g><path style="opacity:1" fill="#bbbbba" d="M 298.5,51.5 C 299.38,48.7378 300.546,46.0711 302,43.5C 302.681,47.0533 301.514,49.72 298.5,51.5 Z"/></g>
<g><path style="opacity:1" fill="#428a2d" d="M 110.5,45.5 C 115.772,46.4002 121.105,46.7335 126.5,46.5C 126.5,47.5 126.5,48.5 126.5,49.5C 121.156,49.666 115.823,49.4994 110.5,49C 109.316,47.8545 109.316,46.6879 110.5,45.5 Z"/></g>
<g><path style="opacity:1" fill="#337b28" d="M 128.5,46.5 C 129.151,47.0906 129.818,47.7573 130.5,48.5C 132.943,47.8879 135.443,47.5546 138,47.5C 140.61,47.5332 142.777,48.1999 144.5,49.5C 139.167,49.5 133.833,49.5 128.5,49.5C 128.5,48.5 128.5,47.5 128.5,46.5 Z"/></g>
<g><path style="opacity:1" fill="#388129" d="M 320.5,46.5 C 323.5,46.5 326.5,46.5 329.5,46.5C 329.5,47.5 329.5,48.5 329.5,49.5C 326.5,49.5 323.5,49.5 320.5,49.5C 320.5,48.5 320.5,47.5 320.5,46.5 Z"/></g>
<g><path style="opacity:1" fill="#40862d" d="M 331.5,46.5 C 336.167,46.5 340.833,46.5 345.5,46.5C 345.5,47.5 345.5,48.5 345.5,49.5C 340.833,49.5 336.167,49.5 331.5,49.5C 331.5,48.5 331.5,47.5 331.5,46.5 Z"/></g>
<g><path style="opacity:1" fill="#8d8e8c" d="M 154.5,50.5 C 156.446,51.2544 157.279,52.5878 157,54.5C 156.292,53.6195 155.458,52.9528 154.5,52.5C 154.5,51.8333 154.5,51.1667 154.5,50.5 Z"/></g>
<g><path style="opacity:1" fill="#40892d" d="M 336.5,51.5 C 341.787,52.3424 347.12,52.6757 352.5,52.5C 352.5,53.5 352.5,54.5 352.5,55.5C 347.156,55.666 341.823,55.4994 336.5,55C 335.316,53.8545 335.316,52.6879 336.5,51.5 Z"/></g>
<g><path style="opacity:1" fill="#438e2f" d="M 124.5,51.5 C 131.109,52.4226 137.776,52.7559 144.5,52.5C 144.5,53.5 144.5,54.5 144.5,55.5C 137.833,55.5 131.167,55.5 124.5,55.5C 124.5,54.1667 124.5,52.8333 124.5,51.5 Z"/></g>
<g><path style="opacity:1" fill="#3e892b" d="M 113.5,51.5 C 116.5,51.5 119.5,51.5 122.5,51.5C 122.5,52.8333 122.5,54.1667 122.5,55.5C 118.717,55.0762 115.05,54.9095 111.5,55C 111.043,54.586 110.709,54.086 110.5,53.5C 111.602,52.8243 112.602,52.1577 113.5,51.5 Z"/></g>
<g><path style="opacity:1" fill="#0ad9ec" d="M 257.5,58.5 C 239.5,58.5 221.5,58.5 203.5,58.5C 203.5,53.8333 203.5,49.1667 203.5,44.5C 221.5,44.5 239.5,44.5 257.5,44.5C 257.5,49.1667 257.5,53.8333 257.5,58.5 Z"/></g>
<g><path style="opacity:1" fill="#06737d" d="M 215.5,52.5 C 221.96,51.9032 228.126,52.5698 234,54.5C 234.674,53.4216 235.674,52.7549 237,52.5C 239.363,53.1513 241.863,53.1513 244.5,52.5C 244.5,53.5 244.5,54.5 244.5,55.5C 235.446,55.1944 226.446,55.5278 217.5,56.5C 215.889,55.6798 215.222,54.3464 215.5,52.5 Z"/></g>
<g><path style="opacity:1" fill="#067382" d="M 239.5,49.5 C 238.778,49.0825 238.278,48.4158 238,47.5C 237.221,50.0972 236.721,50.0972 236.5,47.5C 239.484,46.8725 242.817,46.7058 246.5,47C 244.713,49.7611 242.379,50.5944 239.5,49.5 Z"/></g>
<g><path style="opacity:1" fill="#0c6c77" d="M 227.5,46.5 C 228.718,47.1614 230.051,47.8281 231.5,48.5C 230.675,49.3857 229.675,49.719 228.5,49.5C 227.178,49.67 226.011,49.3366 225,48.5C 222.944,50.3188 220.777,50.9855 218.5,50.5C 217.167,49.1667 217.167,47.8333 218.5,46.5C 221.49,46.6617 224.49,46.6617 227.5,46.5 Z"/></g>
<g><path style="opacity:1" fill="#056579" d="M 214.5,47.5 C 214.56,46.9569 214.893,46.6236 215.5,46.5C 216.583,47.365 216.749,48.365 216,49.5C 215.722,48.5842 215.222,47.9175 214.5,47.5 Z"/></g>
<g><path style="opacity:1" fill="#0495a2" d="M 227.5,46.5 C 230.609,46.2641 233.609,46.5975 236.5,47.5C 236.721,50.0972 237.221,50.0972 238,47.5C 238.278,48.4158 238.778,49.0825 239.5,49.5C 235.833,50.8333 232.167,50.8333 228.5,49.5C 229.675,49.719 230.675,49.3857 231.5,48.5C 230.051,47.8281 228.718,47.1614 227.5,46.5 Z"/></g>
<g><path style="opacity:1" fill="#43932a" d="M 317.5,52.5 C 316.624,52.3691 315.957,52.7025 315.5,53.5C 320.802,54.6628 326.136,54.8295 331.5,54C 329.618,53.8019 327.952,53.3019 326.5,52.5C 328.833,52.5 331.167,52.5 333.5,52.5C 333.5,53.5 333.5,54.5 333.5,55.5C 327.167,55.5 320.833,55.5 314.5,55.5C 314.5,54.1667 314.5,52.8333 314.5,51.5C 315.791,51.2627 316.791,51.596 317.5,52.5 Z"/></g>
<g><path style="opacity:1" fill="#3a7629" d="M 317.5,52.5 C 320.5,52.5 323.5,52.5 326.5,52.5C 327.952,53.3019 329.618,53.8019 331.5,54C 326.136,54.8295 320.802,54.6628 315.5,53.5C 315.957,52.7025 316.624,52.3691 317.5,52.5 Z"/></g>
<g><path style="opacity:1" fill="#defaee" d="M 203.5,58.5 C 221.5,58.5 239.5,58.5 257.5,58.5C 240.005,59.3316 222.338,59.8316 204.5,60C 222.005,60.1684 239.338,60.6684 256.5,61.5C 238.833,61.5 221.167,61.5 203.5,61.5C 203.5,60.5 203.5,59.5 203.5,58.5 Z"/></g>
<g><path style="opacity:1" fill="#a2a2a1" d="M 298.5,51.5 C 295.899,58.705 292.733,65.705 289,72.5C 291.058,65.0473 294.224,58.0473 298.5,51.5 Z"/></g>
<g><path style="opacity:1" fill="#89eff4" d="M 86.5,71.5 C 68.8333,71.5 51.1667,71.5 33.5,71.5C 33.5,76.1667 33.5,80.8333 33.5,85.5C 32.5128,80.6946 32.1795,75.6946 32.5,70.5C 50.6744,70.1699 68.6744,70.5032 86.5,71.5 Z"/></g>
<g><path style="opacity:1" fill="#15dbee" d="M 86.5,71.5 C 87.4861,75.97 87.8195,80.6367 87.5,85.5C 69.5,85.5 51.5,85.5 33.5,85.5C 33.5,80.8333 33.5,76.1667 33.5,71.5C 51.1667,71.5 68.8333,71.5 86.5,71.5 Z"/></g>
<g><path style="opacity:1" fill="#85e85c" d="M 203.5,61.5 C 221.167,61.5 238.833,61.5 256.5,61.5C 257.486,65.97 257.819,70.6367 257.5,75.5C 239.5,75.5 221.5,75.5 203.5,75.5C 203.5,70.8333 203.5,66.1667 203.5,61.5 Z"/></g>
<g><path style="opacity:1" fill="#6ceb3c" d="M 225.5,72.5 C 225.5,71.5 225.5,70.5 225.5,69.5C 222.482,69.3354 219.482,69.502 216.5,70C 214.881,70.2355 213.881,71.0689 213.5,72.5C 211.012,74.3878 208.012,75.0545 204.5,74.5C 204.5,70.5 204.5,66.5 204.5,62.5C 221.833,62.5 239.167,62.5 256.5,62.5C 256.5,66.5 256.5,70.5 256.5,74.5C 245.162,74.6665 233.828,74.4999 222.5,74C 223.737,73.7679 224.737,73.2679 225.5,72.5 Z"/></g>
<g><path style="opacity:1" fill="#377827" d="M 227.5,69.5 C 252.741,71.1538 252.741,72.1538 227.5,72.5C 227.5,71.5 227.5,70.5 227.5,69.5 Z"/></g>
<g><path style="opacity:1" fill="#367926" d="M 225.5,72.5 C 223.549,72.7733 222.049,72.1066 221,70.5C 218.894,72.291 216.394,72.9577 213.5,72.5C 213.881,71.0689 214.881,70.2355 216.5,70C 219.482,69.502 222.482,69.3354 225.5,69.5C 225.5,70.5 225.5,71.5 225.5,72.5 Z"/></g>
<g><path style="opacity:1" fill="#53aa36" d="M 232.5,64.5 C 233.404,65.209 233.737,66.209 233.5,67.5C 229.833,67.5 226.167,67.5 222.5,67.5C 226.119,67.1187 229.452,66.1187 232.5,64.5 Z"/></g>
<g><path style="opacity:1" fill="#2b5a23" d="M 238.5,64.5 C 237.817,66.1765 236.483,66.8432 234.5,66.5C 235.183,64.8235 236.517,64.1568 238.5,64.5 Z"/></g>
<g><path style="opacity:1" fill="#39762b" d="M 223.5,64.5 C 226.5,64.5 229.5,64.5 232.5,64.5C 229.452,66.1187 226.119,67.1187 222.5,67.5C 222.167,67.5 221.833,67.5 221.5,67.5C 221.389,66.8826 221.056,66.3826 220.5,66C 221.737,65.7679 222.737,65.2679 223.5,64.5 Z"/></g>
<g><path style="opacity:1" fill="#408a2a" d="M 238.5,64.5 C 241.572,64.1826 244.572,64.5159 247.5,65.5C 243.188,67.634 238.854,67.9673 234.5,66.5C 236.483,66.8432 237.817,66.1765 238.5,64.5 Z"/></g>
<g><path style="opacity:1" fill="#44942c" d="M 215.5,64.5 C 218.376,64.2077 221.043,64.2077 223.5,64.5C 222.737,65.2679 221.737,65.7679 220.5,66C 221.056,66.3826 221.389,66.8826 221.5,67.5C 218.5,67.5 215.5,67.5 212.5,67.5C 212.5,66.1667 212.5,64.8333 212.5,63.5C 213.791,63.2627 214.791,63.596 215.5,64.5 Z"/></g>
<g><path style="opacity:1" fill="#2d6120" d="M 215.5,64.5 C 216.609,65.29 217.942,65.79 219.5,66C 217.421,66.8077 215.421,66.641 213.5,65.5C 213.957,64.7025 214.624,64.3691 215.5,64.5 Z"/></g>
<g><path style="opacity:1" fill="#076771" d="M 49.5,76.5 C 56.1599,77.0569 63.1599,77.0569 70.5,76.5C 70.5,77.5 70.5,78.5 70.5,79.5C 63.5,79.5 56.5,79.5 49.5,79.5C 49.5,78.5 49.5,77.5 49.5,76.5 Z"/></g>
<g><path style="opacity:1" fill="#c2c2c1" d="M 285.5,76.5 C 286.124,76.9169 286.457,77.5836 286.5,78.5C 285.134,80.3703 283.967,82.3703 283,84.5C 282.833,83.6667 282.667,82.8333 282.5,82C 283.562,80.159 284.562,78.3257 285.5,76.5 Z"/></g>
<g><path style="opacity:1" fill="#9f9f9e" d="M 88.5,78.5 C 96.5998,82.0493 104.6,85.8826 112.5,90C 111.5,90.6667 110.5,90.6667 109.5,90C 102.046,86.6141 95.0461,82.7808 88.5,78.5 Z"/></g>
<g><path style="opacity:1" fill="#a9f089" d="M 32.5,87.5 C 50.5,87.5 68.5,87.5 86.5,87.5C 86.5,92.5 86.5,97.5 86.5,102.5C 68.5,102.5 50.5,102.5 32.5,102.5C 32.5,97.5 32.5,92.5 32.5,87.5 Z"/></g>
<g><path style="opacity:1" fill="#b8b8b8" d="M 231.5,119.5 C 231.062,120.506 230.396,120.506 229.5,119.5C 230.167,62.1667 230.833,62.1667 231.5,119.5 Z"/></g>
<g><path style="opacity:1" fill="#6bf03a" d="M 33.5,88.5 C 50.8333,88.5 68.1667,88.5 85.5,88.5C 85.5,92.8333 85.5,97.1667 85.5,101.5C 68.1667,101.5 50.8333,101.5 33.5,101.5C 33.5,97.1667 33.5,92.8333 33.5,88.5 Z"/></g>
<g><path style="opacity:1" fill="#347a25" d="M 54.5,90.5 C 55.9002,91.1001 56.9002,92.1001 57.5,93.5C 54.1667,93.5 50.8333,93.5 47.5,93.5C 47.5,92.5 47.5,91.5 47.5,90.5C 49.8333,90.5 52.1667,90.5 54.5,90.5 Z"/></g>
<g><path style="opacity:1" fill="#25691c" d="M 71.5,91.5 C 71.5,91.8333 71.5,92.1667 71.5,92.5C 69.1825,93.0069 66.5158,93.3402 63.5,93.5C 63.6509,90.2819 64.4842,89.9485 66,92.5C 67.6995,91.5939 69.5328,91.2606 71.5,91.5 Z"/></g>
<g><path style="opacity:1" fill="#6adf41" d="M 71.5,91.5 C 69.5328,91.2606 67.6995,91.5939 66,92.5C 64.4842,89.9485 63.6509,90.2819 63.5,93.5C 66.5158,93.3402 69.1825,93.0069 71.5,92.5C 69.1667,93.8333 66.8333,95.1667 64.5,96.5C 61.9407,96.8016 59.6074,96.4682 57.5,95.5C 57.5,94.8333 57.5,94.1667 57.5,93.5C 56.9002,92.1001 55.9002,91.1001 54.5,90.5C 55.8333,90.5 57.1667,90.5 58.5,90.5C 62.9124,89.258 67.2457,89.5913 71.5,91.5 Z"/></g>
<g><path style="opacity:1" fill="#327326" d="M 58.5,90.5 C 62.5841,89.9453 63.2508,90.9453 60.5,93.5C 59.5748,92.6431 58.9081,91.6431 58.5,90.5 Z"/></g>
<g><path style="opacity:1" fill="#9f9f9f" d="M 120.5,95.5 C 121.251,94.4265 122.251,94.2599 123.5,95C 128.833,97.6667 134.167,100.333 139.5,103C 138.5,103.667 137.5,103.667 136.5,103C 131.265,100.215 125.932,97.7152 120.5,95.5 Z"/></g>
<g><path style="opacity:1" fill="#3b852a" d="M 57.5,95.5 C 59.6074,96.4682 61.9407,96.8016 64.5,96.5C 64.5,97.5 64.5,98.5 64.5,99.5C 61.1667,99.5 57.8333,99.5 54.5,99.5C 54.5,98.1667 54.5,96.8333 54.5,95.5C 55.5,95.5 56.5,95.5 57.5,95.5 Z"/></g>
<g><path style="opacity:1" fill="#a1a1a1" d="M 280.5,86.5 C 281.573,87.2506 281.74,88.2506 281,89.5C 277,97.5 273,105.5 269,113.5C 268.333,112.5 268.333,111.5 269,110.5C 273.117,102.6 276.951,94.5998 280.5,86.5 Z"/></g>
<g><path style="opacity:1" fill="#a2a2a1" d="M 149.5,109.5 C 150.251,108.427 151.251,108.26 152.5,109C 158.5,112 164.5,115 170.5,118C 169.5,118.667 168.5,118.667 167.5,118C 161.599,114.882 155.599,112.049 149.5,109.5 Z"/></g>
<g><path style="opacity:1" fill="#8bea65" d="M 33.5,104.5 C 33.5,104.833 33.5,105.167 33.5,105.5C 33.5,109.5 33.5,113.5 33.5,117.5C 50.8333,117.5 68.1667,117.5 85.5,117.5C 85.5,113.5 85.5,109.5 85.5,105.5C 85.5,105.167 85.5,104.833 85.5,104.5C 86.4861,108.97 86.8195,113.637 86.5,118.5C 68.5,118.5 50.5,118.5 32.5,118.5C 32.1805,113.637 32.5139,108.97 33.5,104.5 Z"/></g>
<g><path style="opacity:1" fill="#6af03b" d="M 33.5,105.5 C 38.0323,105.182 42.3656,105.515 46.5,106.5C 45.1266,106.343 43.7932,106.51 42.5,107C 42.8333,107.333 43.1667,107.667 43.5,108C 41.0644,109.762 38.3977,111.096 35.5,112C 35.9743,113.729 36.9743,114.895 38.5,115.5C 48.0684,116.817 57.7351,116.817 67.5,115.5C 71.8333,116.833 76.1667,116.833 80.5,115.5C 81.3382,115.158 81.6716,114.492 81.5,113.5C 78.3586,112.679 75.0252,112.179 71.5,112C 72.056,111.617 72.3893,111.117 72.5,110.5C 72.5,109.5 72.5,108.5 72.5,107.5C 70.5,107.5 68.5,107.5 66.5,107.5C 61.0247,106.511 55.358,106.178 49.5,106.5C 61.3217,105.505 73.3217,105.172 85.5,105.5C 85.5,109.5 85.5,113.5 85.5,117.5C 68.1667,117.5 50.8333,117.5 33.5,117.5C 33.5,113.5 33.5,109.5 33.5,105.5 Z"/></g>
<g><path style="opacity:1" fill="#60c83d" d="M 80.5,115.5 C 76.1667,116.833 71.8333,116.833 67.5,115.5C 68.2216,115.082 68.7216,114.416 69,113.5C 72.4935,115.377 76.3268,116.044 80.5,115.5 Z"/></g>
<g><path style="opacity:1" fill="#65ca41" d="M 46.5,112.5 C 47.5,112.5 48.5,112.5 49.5,112.5C 49.5,113.5 49.5,114.5 49.5,115.5C 54.8779,115.398 60.0446,115.398 65,115.5C 65.1881,113.939 64.3547,113.272 62.5,113.5C 63.9187,112.549 65.5853,112.216 67.5,112.5C 67.5,113.5 67.5,114.5 67.5,115.5C 57.7351,116.817 48.0684,116.817 38.5,115.5C 41.5719,115.817 44.5719,115.484 47.5,114.5C 47.1373,113.817 46.8039,113.15 46.5,112.5 Z"/></g>
<g><path style="opacity:1" fill="#39832a" d="M 46.5,112.5 C 46.8039,113.15 47.1373,113.817 47.5,114.5C 44.5719,115.484 41.5719,115.817 38.5,115.5C 38.281,114.325 38.6143,113.325 39.5,112.5C 41.8228,113.672 44.1561,113.672 46.5,112.5 Z"/></g>
<g><path style="opacity:1" fill="#307222" d="M 67.5,112.5 C 72.1191,113.314 76.7858,113.647 81.5,113.5C 81.6716,114.492 81.3382,115.158 80.5,115.5C 76.3268,116.044 72.4935,115.377 69,113.5C 68.7216,114.416 68.2216,115.082 67.5,115.5C 67.5,114.5 67.5,113.5 67.5,112.5 Z"/></g>
<g><path style="opacity:1" fill="#357927" d="M 49.5,112.5 C 53.7685,113.373 58.1018,113.706 62.5,113.5C 64.3547,113.272 65.1881,113.939 65,115.5C 60.0446,115.398 54.8779,115.398 49.5,115.5C 49.5,114.5 49.5,113.5 49.5,112.5 Z"/></g>
<g><path style="opacity:1" fill="#6fe73f" d="M 46.5,106.5 C 46.5,107.833 46.5,109.167 46.5,110.5C 49.3938,110.958 51.8938,110.291 54,108.5C 54.6667,109.833 55.3333,109.833 56,108.5C 56.6689,111.028 57.5022,111.028 58.5,108.5C 55.3583,107.833 52.3583,107.166 49.5,106.5C 55.358,106.178 61.0247,106.511 66.5,107.5C 63.6359,107.064 61.3025,107.897 59.5,110C 63.6123,110.265 67.9456,110.431 72.5,110.5C 72.3893,111.117 72.056,111.617 71.5,112C 75.0252,112.179 78.3586,112.679 81.5,113.5C 76.7858,113.647 72.1191,113.314 67.5,112.5C 65.5853,112.216 63.9187,112.549 62.5,113.5C 58.1018,113.706 53.7685,113.373 49.5,112.5C 48.5,112.5 47.5,112.5 46.5,112.5C 44.1561,113.672 41.8228,113.672 39.5,112.5C 38.6143,113.325 38.281,114.325 38.5,115.5C 36.9743,114.895 35.9743,113.729 35.5,112C 38.3977,111.096 41.0644,109.762 43.5,108C 43.1667,107.667 42.8333,107.333 42.5,107C 43.7932,106.51 45.1266,106.343 46.5,106.5 Z"/></g>
<g><path style="opacity:1" fill="#3a8229" d="M 66.5,107.5 C 68.5,107.5 70.5,107.5 72.5,107.5C 72.5,108.5 72.5,109.5 72.5,110.5C 67.9456,110.431 63.6123,110.265 59.5,110C 61.3025,107.897 63.6359,107.064 66.5,107.5 Z"/></g>
<g><path style="opacity:1" fill="#377b28" d="M 46.5,106.5 C 47.5,106.5 48.5,106.5 49.5,106.5C 52.3583,107.166 55.3583,107.833 58.5,108.5C 57.5022,111.028 56.6689,111.028 56,108.5C 55.3333,109.833 54.6667,109.833 54,108.5C 51.8938,110.291 49.3938,110.958 46.5,110.5C 46.5,109.167 46.5,107.833 46.5,106.5 Z"/></g>
<g><path style="opacity:1" fill="#7fec54" d="M 33.5,105.5 C 33.5,105.167 33.5,104.833 33.5,104.5C 50.8333,104.5 68.1667,104.5 85.5,104.5C 85.5,104.833 85.5,105.167 85.5,105.5C 73.3217,105.172 61.3217,105.505 49.5,106.5C 48.5,106.5 47.5,106.5 46.5,106.5C 42.3656,105.515 38.0323,105.182 33.5,105.5 Z"/></g>
<g><path style="opacity:1" fill="#f7fcb7" d="M 32.5,121.5 C 50.3256,120.503 68.3256,120.17 86.5,120.5C 86.5,125.167 86.5,129.833 86.5,134.5C 86.1667,134.5 85.8333,134.5 85.5,134.5C 85.5,130.167 85.5,125.833 85.5,121.5C 80.8333,121.5 76.1667,121.5 71.5,121.5C 63.5,121.5 55.5,121.5 47.5,121.5C 42.5,121.5 37.5,121.5 32.5,121.5 Z"/></g>
<g><path style="opacity:1" fill="#dff8f8" d="M 229.5,119.5 C 230.396,120.506 231.062,120.506 231.5,119.5C 240.5,119.5 249.5,119.5 258.5,119.5C 258.5,123.5 258.5,127.5 258.5,131.5C 257.646,133.035 257.646,134.368 258.5,135.5C 258.353,140.214 258.686,144.881 259.5,149.5C 250.651,149.174 241.984,149.507 233.5,150.5C 233.167,150.5 232.833,150.5 232.5,150.5C 231.597,148.38 230.263,148.046 228.5,149.5C 220.167,149.5 211.833,149.5 203.5,149.5C 203.5,144.833 203.5,140.167 203.5,135.5C 204.757,134.377 204.424,133.711 202.5,133.5C 202.666,128.489 202.499,123.489 202,118.5C 196.949,112.927 197.282,111.927 203,115.5C 203.49,116.793 203.657,118.127 203.5,119.5C 212.167,119.5 220.833,119.5 229.5,119.5 Z"/></g>
<g><path style="opacity:1" fill="#a1a1a1" d="M 176.5,122.5 C 177.251,121.427 178.251,121.26 179.5,122C 185.5,125 191.5,128 197.5,131C 196.5,131.667 195.5,131.667 194.5,131C 188.599,127.882 182.599,125.049 176.5,122.5 Z"/></g>
<g><path style="opacity:1" fill="#27dbee" d="M 308.5,128.5 C 308.5,127.833 308.5,127.167 308.5,126.5C 308.244,124.208 308.577,122.041 309.5,120C 327.167,119.333 344.833,119.333 362.5,120C 363.469,124.737 363.803,129.57 363.5,134.5C 345.167,134.5 326.833,134.5 308.5,134.5C 308.5,132.5 308.5,130.5 308.5,128.5 Z"/></g>
<g><path style="opacity:1" fill="#03808b" d="M 342.5,125.5 C 343.222,125.918 343.722,126.584 344,127.5C 344.674,126.422 345.674,125.755 347,125.5C 349.123,126.583 351.29,126.583 353.5,125.5C 353.5,126.5 353.5,127.5 353.5,128.5C 349.846,128.942 346.179,129.276 342.5,129.5C 342.5,128.167 342.5,126.833 342.5,125.5 Z"/></g>
<g><path style="opacity:1" fill="#067481" d="M 335.5,125.5 C 337.167,125.5 338.833,125.5 340.5,125.5C 340.762,126.978 340.429,128.311 339.5,129.5C 338.264,128.754 336.93,128.421 335.5,128.5C 335.5,127.5 335.5,126.5 335.5,125.5 Z"/></g>
<g><path style="opacity:1" fill="#0a606d" d="M 318.5,125.5 C 319.833,125.5 321.167,125.5 322.5,125.5C 322.5,126.5 322.5,127.5 322.5,128.5C 321.167,128.5 319.833,128.5 318.5,128.5C 318.5,127.5 318.5,126.5 318.5,125.5 Z"/></g>
<g><path style="opacity:1" fill="#066d78" d="M 323.5,125.5 C 327.329,125.927 330.996,125.927 334.5,125.5C 334.5,126.5 334.5,127.5 334.5,128.5C 330.833,128.5 327.167,128.5 323.5,128.5C 323.5,127.5 323.5,126.5 323.5,125.5 Z"/></g>
<g><path style="opacity:1" fill="#505d5d" d="M 210.5,129.5 C 207.833,130.167 207.833,130.833 210.5,131.5C 209.791,132.404 208.791,132.737 207.5,132.5C 207.5,131.167 207.5,129.833 207.5,128.5C 208.791,128.263 209.791,128.596 210.5,129.5 Z"/></g>
<g><path style="opacity:1" fill="#c5cfd0" d="M 210.5,129.5 C 210.5,130.167 210.5,130.833 210.5,131.5C 207.833,130.833 207.833,130.167 210.5,129.5 Z"/></g>
<g><path style="opacity:1" fill="#555e5f" d="M 212.5,131.5 C 211.833,131.5 211.167,131.5 210.5,131.5C 210.5,130.833 210.5,130.167 210.5,129.5C 212.203,128.34 212.869,129.007 212.5,131.5 Z"/></g>
<g><path style="opacity:1" fill="#5f696a" d="M 227.5,128.5 C 226.438,129.575 226.438,130.575 227.5,131.5C 228.192,130.975 228.692,130.308 229,129.5C 229.71,130.973 230.876,131.64 232.5,131.5C 232.5,130.5 232.5,129.5 232.5,128.5C 236.399,129.366 240.399,129.366 244.5,128.5C 244.833,132.5 245.167,132.5 245.5,128.5C 248.011,128.838 250.345,128.838 252.5,128.5C 252.554,129.53 252.888,130.697 253.5,132C 252.256,132.456 251.423,131.956 251,130.5C 250.667,131.167 250.333,131.833 250,132.5C 248.044,132.216 245.877,132.216 243.5,132.5C 243.404,128.689 242.738,128.689 241.5,132.5C 240.262,128.689 239.596,128.689 239.5,132.5C 233.158,132.666 226.825,132.5 220.5,132C 221.211,130.745 222.044,129.579 223,128.5C 224.414,129.413 225.914,129.413 227.5,128.5 Z"/></g>
<g><path style="opacity:1" fill="#adb8b8" d="M 227.5,128.5 C 229.167,128.5 230.833,128.5 232.5,128.5C 232.5,129.5 232.5,130.5 232.5,131.5C 230.876,131.64 229.71,130.973 229,129.5C 228.692,130.308 228.192,130.975 227.5,131.5C 226.438,130.575 226.438,129.575 227.5,128.5 Z"/></g>
<g><path style="opacity:1" fill="#697474" d="M 212.5,131.5 C 214.048,131.179 214.715,130.179 214.5,128.5C 217.95,127.756 219.616,129.09 219.5,132.5C 216.941,132.802 214.607,132.468 212.5,131.5 Z"/></g>
<g><path style="opacity:1" fill="#99999a" d="M 308.5,126.5 C 308.5,127.167 308.5,127.833 308.5,128.5C 291.573,129.919 274.906,132.252 258.5,135.5C 257.646,134.368 257.646,133.035 258.5,131.5C 260.226,129.058 261.726,126.391 263,123.5C 262.961,126.945 261.794,130.112 259.5,133C 275.803,131.076 292.136,128.91 308.5,126.5 Z"/></g>
<g><path style="opacity:1" fill="#f6fc66" d="M 32.5,121.5 C 37.5,121.5 42.5,121.5 47.5,121.5C 44.1667,122.167 40.8333,122.833 37.5,123.5C 37.5,124.5 37.5,125.5 37.5,126.5C 38.5,127.167 39.5,127.833 40.5,128.5C 40.5,129.833 40.5,131.167 40.5,132.5C 46.8333,132.5 53.1667,132.5 59.5,132.5C 59.8333,132.5 60.1667,132.5 60.5,132.5C 65.9863,132.331 71.6529,132.331 77.5,132.5C 78.4345,131.432 78.7678,130.099 78.5,128.5C 77.1266,128.657 75.7932,128.49 74.5,128C 76.8098,127.503 79.1432,127.337 81.5,127.5C 81.5,125.833 81.5,124.167 81.5,122.5C 77.9581,122.813 74.6248,122.479 71.5,121.5C 76.1667,121.5 80.8333,121.5 85.5,121.5C 85.5,125.833 85.5,130.167 85.5,134.5C 67.8333,134.5 50.1667,134.5 32.5,134.5C 32.5,130.167 32.5,125.833 32.5,121.5 Z"/></g>
<g><path style="opacity:1" fill="#808338" d="M 40.5,128.5 C 46.7889,129.372 53.1222,129.705 59.5,129.5C 59.5,130.5 59.5,131.5 59.5,132.5C 53.1667,132.5 46.8333,132.5 40.5,132.5C 40.5,131.167 40.5,129.833 40.5,128.5 Z"/></g>
<g><path style="opacity:1" fill="#6f7033" d="M 37.5,123.5 C 41.0607,124.559 44.8941,124.559 49,123.5C 49.7494,124.635 49.5827,125.635 48.5,126.5C 44.8039,126.492 41.1373,126.492 37.5,126.5C 37.5,125.5 37.5,124.5 37.5,123.5 Z"/></g>
<g><path style="opacity:1" fill="#e9ef65" d="M 47.5,121.5 C 55.5,121.5 63.5,121.5 71.5,121.5C 74.6248,122.479 77.9581,122.813 81.5,122.5C 81.5,124.167 81.5,125.833 81.5,127.5C 79.1432,127.337 76.8098,127.503 74.5,128C 75.7932,128.49 77.1266,128.657 78.5,128.5C 78.7678,130.099 78.4345,131.432 77.5,132.5C 77.5,131.5 77.5,130.5 77.5,129.5C 71.9135,129.878 66.2469,129.878 60.5,129.5C 60.5,130.5 60.5,131.5 60.5,132.5C 60.1667,132.5 59.8333,132.5 59.5,132.5C 59.5,131.5 59.5,130.5 59.5,129.5C 53.1222,129.705 46.7889,129.372 40.5,128.5C 39.5,127.833 38.5,127.167 37.5,126.5C 41.1373,126.492 44.8039,126.492 48.5,126.5C 49.5827,125.635 49.7494,124.635 49,123.5C 44.8941,124.559 41.0607,124.559 37.5,123.5C 40.8333,122.833 44.1667,122.167 47.5,121.5 Z"/></g>
<g><path style="opacity:1" fill="#84883f" d="M 77.5,132.5 C 71.6529,132.331 65.9863,132.331 60.5,132.5C 60.5,131.5 60.5,130.5 60.5,129.5C 66.2469,129.878 71.9135,129.878 77.5,129.5C 77.5,130.5 77.5,131.5 77.5,132.5 Z"/></g>
<g><path style="opacity:1" fill="#7b7d3a" d="M 68.5,123.5 C 71.7383,124.395 74.9049,124.395 78,123.5C 78.9246,124.047 79.7579,124.713 80.5,125.5C 76.5546,126.491 72.5546,126.824 68.5,126.5C 68.5,125.5 68.5,124.5 68.5,123.5 Z"/></g>
<g><path style="opacity:1" fill="#737536" d="M 51.5,123.5 C 54.3709,124.679 57.2043,124.679 60,123.5C 62.4728,124.12 64.9728,124.786 67.5,125.5C 62.3703,125.949 57.037,126.283 51.5,126.5C 51.5,125.5 51.5,124.5 51.5,123.5 Z"/></g>
<g><path style="opacity:1" fill="#f7fcac" d="M 32.5,121.5 C 32.5,125.833 32.5,130.167 32.5,134.5C 50.1667,134.5 67.8333,134.5 85.5,134.5C 68.0079,135.497 50.3412,135.83 32.5,135.5C 31.1667,130.833 31.1667,126.167 32.5,121.5 Z"/></g>
<g><path style="opacity:1" fill="#8d9697" d="M 202.5,133.5 C 204.424,133.711 204.757,134.377 203.5,135.5C 201.863,136.218 200.197,136.384 198.5,136C 200.481,135.395 200.815,134.395 199.5,133C 200.577,132.53 201.577,132.697 202.5,133.5 Z"/></g>
<g><path style="opacity:1" fill="#fafbe6" d="M 85.5,134.5 C 85.8333,134.5 86.1667,134.5 86.5,134.5C 86.5,135.5 86.5,136.5 86.5,137.5C 68.5,137.5 50.5,137.5 32.5,137.5C 32.5,136.833 32.5,136.167 32.5,135.5C 50.3412,135.83 68.0079,135.497 85.5,134.5 Z"/></g>
<g><path style="opacity:1" fill="#f8fca0" d="M 32.5,137.5 C 50.5,137.5 68.5,137.5 86.5,137.5C 86.8195,142.363 86.4861,147.03 85.5,151.5C 85.5,147.167 85.5,142.833 85.5,138.5C 67.8333,138.5 50.1667,138.5 32.5,138.5C 32.5,142.833 32.5,147.167 32.5,151.5C 31.1667,146.833 31.1667,142.167 32.5,137.5 Z"/></g>
<g><path style="opacity:1" fill="#6c7677" d="M 212.5,135.5 C 219.044,135.613 225.544,135.613 232,135.5C 232.976,139.252 232.31,139.918 230,137.5C 227.959,138.752 225.625,139.419 223,139.5C 219.338,138.937 215.838,138.937 212.5,139.5C 212.5,138.167 212.5,136.833 212.5,135.5 Z"/></g>
<g><path style="opacity:1" fill="#616c6c" d="M 234.5,136.5 C 236.863,134.998 239.03,135.332 241,137.5C 241.667,136.833 242.333,136.167 243,135.5C 243.741,136.641 244.575,136.641 245.5,135.5C 246.192,136.025 246.692,136.692 247,137.5C 247.308,136.692 247.808,136.025 248.5,135.5C 249.614,136.723 249.781,138.056 249,139.5C 245.379,139.358 241.545,139.358 237.5,139.5C 237.307,135.551 236.807,135.551 236,139.5C 235.768,138.263 235.268,137.263 234.5,136.5 Z"/></g>
<g><path style="opacity:1" fill="#a6f088" d="M 309.5,138.5 C 326.992,137.503 344.659,137.17 362.5,137.5C 363.833,142.167 363.833,146.833 362.5,151.5C 362.5,147.167 362.5,142.833 362.5,138.5C 344.833,138.5 327.167,138.5 309.5,138.5 Z"/></g>
<g><path style="opacity:1" fill="#a1a1a1" d="M 190.5,138.5 C 191.552,138.351 192.552,138.517 193.5,139C 183.02,143.822 172.354,147.822 161.5,151C 171.309,146.906 180.975,142.74 190.5,138.5 Z"/></g>
<g><path style="opacity:1" fill="#6def3e" d="M 309.5,138.5 C 327.167,138.5 344.833,138.5 362.5,138.5C 362.5,142.833 362.5,147.167 362.5,151.5C 344.833,151.5 327.167,151.5 309.5,151.5C 309.5,147.167 309.5,142.833 309.5,138.5 Z"/></g>
<g><path style="opacity:1" fill="#347928" d="M 336.5,142.5 C 339.786,143.207 343.119,143.54 346.5,143.5C 346.5,144.5 346.5,145.5 346.5,146.5C 343.167,146.5 339.833,146.5 336.5,146.5C 336.5,145.167 336.5,143.833 336.5,142.5 Z"/></g>
<g><path style="opacity:1" fill="#3e8c2d" d="M 325.5,142.5 C 328.833,142.833 332.167,143.167 335.5,143.5C 335.5,144.5 335.5,145.5 335.5,146.5C 332.167,146.5 328.833,146.5 325.5,146.5C 325.5,145.167 325.5,143.833 325.5,142.5 Z"/></g>
<g><path style="opacity:1" fill="#f7fc66" d="M 85.5,151.5 C 67.8333,151.5 50.1667,151.5 32.5,151.5C 32.5,147.167 32.5,142.833 32.5,138.5C 50.1667,138.5 67.8333,138.5 85.5,138.5C 85.5,142.833 85.5,147.167 85.5,151.5 Z"/></g>
<g><path style="opacity:1" fill="#82853d" d="M 39.5,140.5 C 43.8461,140.334 48.1794,140.501 52.5,141C 54.0441,141.29 55.3774,141.956 56.5,143C 50.8431,143.499 45.1764,143.666 39.5,143.5C 39.5,142.5 39.5,141.5 39.5,140.5 Z"/></g>
<g><path style="opacity:1" fill="#878b3e" d="M 58.5,140.5 C 65.175,140.334 71.8417,140.5 78.5,141C 78.9574,141.414 79.2907,141.914 79.5,142.5C 72.1667,143.833 64.8333,143.833 57.5,142.5C 57.8627,141.817 58.1961,141.15 58.5,140.5 Z"/></g>
<g><path style="opacity:1" fill="#d8fbc8" d="M 362.5,137.5 C 344.659,137.17 326.992,137.503 309.5,138.5C 309.5,142.833 309.5,147.167 309.5,151.5C 327.167,151.5 344.833,151.5 362.5,151.5C 344.674,152.497 326.674,152.83 308.5,152.5C 308.5,147.167 308.5,141.833 308.5,136.5C 326.674,136.17 344.674,136.503 362.5,137.5 Z"/></g>
<g><path style="opacity:1" fill="#a2a2a2" d="M 232.5,150.5 C 232.833,150.5 233.167,150.5 233.5,150.5C 237.847,153.817 241.18,157.483 243.5,161.5C 239.479,158.146 235.812,154.479 232.5,150.5 Z"/></g>
<g><path style="opacity:1" fill="#d3d3d3" d="M 131.5,163.5 C 132.596,159.75 134.929,158.584 138.5,160C 138.857,154.826 140.357,154.326 143,158.5C 144.049,157.483 145.216,157.316 146.5,158C 141.657,160.336 136.657,162.169 131.5,163.5 Z"/></g>
<g><path style="opacity:1" fill="#abacab" d="M 232.5,150.5 C 231.503,167.659 231.17,184.992 231.5,202.5C 230.833,202.5 230.167,202.5 229.5,202.5C 229.667,185.497 229.5,168.497 229,151.5C 220.167,160.333 211.333,169.167 202.5,178C 201.833,178.667 201.167,178.667 200.5,178C 210.036,168.632 219.369,159.132 228.5,149.5C 230.263,148.046 231.597,148.38 232.5,150.5 Z"/></g>
<g><path style="opacity:1" fill="#a2a2a2" d="M 131.5,163.5 C 126.895,166.296 121.895,168.296 116.5,169.5C 121.117,166.734 126.117,164.734 131.5,163.5 Z"/></g>
<g><path style="opacity:1" fill="#f7fda6" d="M 309.5,168.5 C 308.514,164.03 308.181,159.363 308.5,154.5C 326.833,154.5 345.167,154.5 363.5,154.5C 363.5,159.5 363.5,164.5 363.5,169.5C 345.326,169.83 327.326,169.497 309.5,168.5 Z"/></g>
<g><path style="opacity:1" fill="#f6fb67" d="M 309.5,168.5 C 309.5,164.167 309.5,159.833 309.5,155.5C 327.167,155.5 344.833,155.5 362.5,155.5C 362.5,159.833 362.5,164.167 362.5,168.5C 344.833,168.5 327.167,168.5 309.5,168.5 Z"/></g>
<g><path style="opacity:1" fill="#7b7b37" d="M 338.5,160.5 C 357.086,162.143 357.086,163.143 338.5,163.5C 338.5,162.5 338.5,161.5 338.5,160.5 Z"/></g>
<g><path style="opacity:1" fill="#797a3c" d="M 331.5,160.5 C 333.167,160.5 334.833,160.5 336.5,160.5C 336.5,161.5 336.5,162.5 336.5,163.5C 334.833,163.5 333.167,163.5 331.5,163.5C 331.5,162.5 331.5,161.5 331.5,160.5 Z"/></g>
<g><path style="opacity:1" fill="#7a7b38" d="M 319.5,160.5 C 321.663,161.72 323.83,161.72 326,160.5C 329.199,160.964 329.866,162.297 328,164.5C 325.281,163.556 322.448,163.223 319.5,163.5C 319.5,162.5 319.5,161.5 319.5,160.5 Z"/></g>
<g><path style="opacity:1" fill="#a3a3a3" d="M 246.5,164.5 C 246.897,163.475 247.563,163.308 248.5,164C 252.833,168.333 257.167,172.667 261.5,177C 260.833,177.667 260.167,177.667 259.5,177C 255.298,172.63 250.964,168.463 246.5,164.5 Z"/></g>
<g><path style="opacity:1" fill="#d1d1d1" d="M 116.5,169.5 C 114.565,170.81 112.565,172.143 110.5,173.5C 111.313,174.814 112.313,175.981 113.5,177C 112.234,177.309 111.067,177.809 110,178.5C 110.148,177.175 109.982,176.008 109.5,175C 107.866,174.506 106.199,174.34 104.5,174.5C 108.213,172.315 112.213,170.648 116.5,169.5 Z"/></g>
<g><path style="opacity:1" fill="#24dcef" d="M 32.5,174.5 C 50.5,174.5 68.5,174.5 86.5,174.5C 86.8025,179.43 86.4692,184.263 85.5,189C 67.8365,189.5 50.1698,189.667 32.5,189.5C 32.5,184.5 32.5,179.5 32.5,174.5 Z"/></g>
<g><path style="opacity:1" fill="#a1a1a1" d="M 104.5,174.5 C 101.47,176.403 98.1368,177.737 94.5,178.5C 97.3695,176.206 100.703,174.872 104.5,174.5 Z"/></g>
<g><path style="opacity:1" fill="#9a9b9b" d="M 94.5,178.5 C 92.3994,180.428 90.0661,181.095 87.5,180.5C 89.7067,179.365 92.0401,178.699 94.5,178.5 Z"/></g>
<g><path style="opacity:1" fill="#08636f" d="M 54.5,180.5 C 56.1301,181.082 57.9634,181.082 60,180.5C 61.9552,180.641 63.4552,181.474 64.5,183C 61.5,183.667 58.5,183.667 55.5,183C 54.7476,182.329 54.4142,181.496 54.5,180.5 Z"/></g>
<g><path style="opacity:1" fill="#a3a3a3" d="M 263.5,180.5 C 263.897,179.475 264.563,179.308 265.5,180C 269.5,184 273.5,188 277.5,192C 276.833,192.667 276.167,192.667 275.5,192C 271.631,187.963 267.631,184.13 263.5,180.5 Z"/></g>
<g><path style="opacity:1" fill="#f7fc96" d="M 309.5,172.5 C 309.5,176.833 309.5,181.167 309.5,185.5C 327.167,185.5 344.833,185.5 362.5,185.5C 362.5,181.167 362.5,176.833 362.5,172.5C 363.486,176.97 363.819,181.637 363.5,186.5C 345.167,186.5 326.833,186.5 308.5,186.5C 308.181,181.637 308.514,176.97 309.5,172.5 Z"/></g>
<g><path style="opacity:1" fill="#f7fd68" d="M 309.5,172.5 C 327.167,172.5 344.833,172.5 362.5,172.5C 362.5,176.833 362.5,181.167 362.5,185.5C 344.833,185.5 327.167,185.5 309.5,185.5C 309.5,181.167 309.5,176.833 309.5,172.5 Z"/></g>
<g><path style="opacity:1" fill="#8a8b3d" d="M 322.5,177.5 C 326.262,178.178 329.929,178.511 333.5,178.5C 333.778,180.346 333.111,181.68 331.5,182.5C 328.557,181.756 325.557,181.256 322.5,181C 321.316,179.855 321.316,178.688 322.5,177.5 Z"/></g>
<g><path style="opacity:1" fill="#909142" d="M 335.5,177.5 C 340.287,178.809 345.287,179.475 350.5,179.5C 350.291,180.086 349.957,180.586 349.5,181C 344.833,181.667 340.167,181.667 335.5,181C 334.316,179.855 334.316,178.688 335.5,177.5 Z"/></g>
<g><path style="opacity:1" fill="#a3a3a3" d="M 279.5,195.5 C 279.897,194.475 280.563,194.308 281.5,195C 285.5,199 289.5,203 293.5,207C 292.833,207.667 292.167,207.667 291.5,207C 287.631,202.963 283.631,199.13 279.5,195.5 Z"/></g>
<g><path style="opacity:1" fill="#8ceb60" d="M 32.5,193.5 C 50.5,193.5 68.5,193.5 86.5,193.5C 86.5,198.167 86.5,202.833 86.5,207.5C 68.5,207.5 50.5,207.5 32.5,207.5C 32.5,202.833 32.5,198.167 32.5,193.5 Z"/></g>
<g><path style="opacity:1" fill="#6beb3d" d="M 33.5,194.5 C 50.8333,194.5 68.1667,194.5 85.5,194.5C 85.5,198.5 85.5,202.5 85.5,206.5C 68.1667,206.5 50.8333,206.5 33.5,206.5C 33.5,202.5 33.5,198.5 33.5,194.5 Z"/></g>
<g><path style="opacity:1" fill="#3a7829" d="M 67.5,201.5 C 72.6982,202.761 77.8649,202.761 83,201.5C 83.4828,202.448 83.6495,203.448 83.5,204.5C 78.1667,204.5 72.8333,204.5 67.5,204.5C 67.5,203.5 67.5,202.5 67.5,201.5 Z"/></g>
<g><path style="opacity:1" fill="#387829" d="M 48.5,201.5 C 53.9008,202.825 59.4008,202.825 65,201.5C 65.4828,202.448 65.6495,203.448 65.5,204.5C 59.1667,204.5 52.8333,204.5 46.5,204.5C 46.2852,202.821 46.9519,201.821 48.5,201.5 Z"/></g>
<g><path style="opacity:1" fill="#316623" d="M 38.5,201.5 C 40.0419,202.163 41.7086,202.83 43.5,203.5C 40.9135,204.48 38.2469,204.813 35.5,204.5C 35.3505,203.448 35.5172,202.448 36,201.5C 36.7697,202.598 37.603,202.598 38.5,201.5 Z"/></g>
<g><path style="opacity:1" fill="#61ca3b" d="M 45.5,197.5 C 49.97,198.486 54.6367,198.819 59.5,198.5C 55.6877,199.324 51.6877,199.824 47.5,200C 48.056,200.383 48.3893,200.883 48.5,201.5C 46.9519,201.821 46.2852,202.821 46.5,204.5C 42.6992,205.715 39.0326,205.715 35.5,204.5C 38.2469,204.813 40.9135,204.48 43.5,203.5C 41.7086,202.83 40.0419,202.163 38.5,201.5C 40.5,201.167 42.5,200.833 44.5,200.5C 44.2627,199.209 44.596,198.209 45.5,197.5 Z"/></g>
<g><path style="opacity:1" fill="#4aa932" d="M 63.5,196.5 C 62.9569,196.56 62.6236,196.893 62.5,197.5C 66.4454,198.491 70.4454,198.824 74.5,198.5C 70.3656,199.485 66.0323,199.818 61.5,199.5C 61.238,198.022 61.5713,196.689 62.5,195.5C 63.1067,195.624 63.44,195.957 63.5,196.5 Z"/></g>
<g><path style="opacity:1" fill="#317022" d="M 63.5,196.5 C 67.649,195.92 71.3157,196.586 74.5,198.5C 70.4454,198.824 66.4454,198.491 62.5,197.5C 62.6236,196.893 62.9569,196.56 63.5,196.5 Z"/></g>
<g><path style="opacity:1" fill="#367726" d="M 59.5,198.5 C 54.6367,198.819 49.97,198.486 45.5,197.5C 47.6413,196.837 49.9746,196.503 52.5,196.5C 55.2695,196.529 57.6028,197.195 59.5,198.5 Z"/></g>
<g><path style="opacity:1" fill="#a0a2a2" d="M 306.5,219.5 C 306.5,219.833 306.5,220.167 306.5,220.5C 306.167,220.5 305.833,220.5 305.5,220.5C 302.371,216.869 299.037,213.369 295.5,210C 299.817,212.131 303.484,215.298 306.5,219.5 Z"/></g>
<g><path style="opacity:1" fill="#f3fcec" d="M 86.5,211.5 C 68.5,211.5 50.5,211.5 32.5,211.5C 50.5711,209.429 68.5711,209.429 86.5,211.5 Z"/></g>
<g><path style="opacity:1" fill="#a6f082" d="M 32.5,211.5 C 50.5,211.5 68.5,211.5 86.5,211.5C 86.5,216.5 86.5,221.5 86.5,226.5C 68.5,226.5 50.5,226.5 32.5,226.5C 32.5,221.5 32.5,216.5 32.5,211.5 Z"/></g>
<g><path style="opacity:1" fill="#2dddef" d="M 229.5,202.5 C 230.167,202.5 230.833,202.5 231.5,202.5C 240.833,202.5 250.167,202.5 259.5,202.5C 259.5,207.5 259.5,212.5 259.5,217.5C 241.5,217.5 223.5,217.5 205.5,217.5C 205.5,212.5 205.5,207.5 205.5,202.5C 213.5,202.5 221.5,202.5 229.5,202.5 Z"/></g>
<g><path style="opacity:1" fill="#07838f" d="M 209.5,208.5 C 209.5,209.5 209.5,210.5 209.5,211.5C 211.541,211.146 213.374,211.146 215,211.5C 215.483,210.552 215.649,209.552 215.5,208.5C 216.222,208.918 216.722,209.584 217,210.5C 217.674,209.422 218.674,208.755 220,208.5C 222.687,209.025 225.52,209.025 228.5,208.5C 228.5,209.833 228.5,211.167 228.5,212.5C 221.833,212.5 215.167,212.5 208.5,212.5C 208.232,210.901 208.566,209.568 209.5,208.5 Z"/></g>
<g><path style="opacity:1" fill="#075c67" d="M 241.5,210.5 C 244.114,210.295 246.448,210.295 248.5,210.5C 245.572,211.484 242.572,211.817 239.5,211.5C 236.5,211.5 233.5,211.5 230.5,211.5C 230.351,210.448 230.517,209.448 231,208.5C 234.249,208.958 237.249,208.958 240,208.5C 240.278,209.416 240.778,210.082 241.5,210.5 Z"/></g>
<g><path style="opacity:1" fill="#0c7e8a" d="M 239.5,211.5 C 242.572,211.817 245.572,211.484 248.5,210.5C 246.448,210.295 244.114,210.295 241.5,210.5C 241.369,209.624 241.702,208.957 242.5,208.5C 246.652,208.654 250.985,208.654 255.5,208.5C 255.5,209.833 255.5,211.167 255.5,212.5C 249.974,212.821 244.64,212.488 239.5,211.5 Z"/></g>
<g><path style="opacity:1" fill="#0b6973" d="M 209.5,208.5 C 211.5,208.5 213.5,208.5 215.5,208.5C 215.649,209.552 215.483,210.552 215,211.5C 213.374,211.146 211.541,211.146 209.5,211.5C 209.5,210.5 209.5,209.5 209.5,208.5 Z"/></g>
<g><path style="opacity:1" fill="#a1a3a3" d="M 159.5,220.5 C 158.833,220.5 158.167,220.5 157.5,220.5C 168.098,209.236 179.098,198.236 190.5,187.5C 190.833,187.667 191.167,187.833 191.5,188C 180.631,198.702 169.965,209.535 159.5,220.5 Z"/></g>
<g><path style="opacity:1" fill="#6eed3f" d="M 33.5,212.5 C 50.8333,212.5 68.1667,212.5 85.5,212.5C 85.5,216.833 85.5,221.167 85.5,225.5C 68.1667,225.5 50.8333,225.5 33.5,225.5C 33.5,221.167 33.5,216.833 33.5,212.5 Z"/></g>
<g><path style="opacity:1" fill="#387c29" d="M 62.5,214.5 C 66.5138,214.334 70.5138,214.501 74.5,215C 74.9574,215.414 75.2907,215.914 75.5,216.5C 71.2172,217.492 66.8839,217.826 62.5,217.5C 62.5,216.5 62.5,215.5 62.5,214.5 Z"/></g>
<g><path style="opacity:1" fill="#316d22" d="M 61.5,215.5 C 57.2853,217.436 52.6186,218.103 47.5,217.5C 51.7147,215.564 56.3814,214.897 61.5,215.5 Z"/></g>
<g><path style="opacity:1" fill="#4fa636" d="M 61.5,215.5 C 56.3814,214.897 51.7147,215.564 47.5,217.5C 46.4138,217.38 45.7472,216.713 45.5,215.5C 45.8333,214.833 46.1667,214.167 46.5,213.5C 51.632,214.121 56.632,214.787 61.5,215.5 Z"/></g>
<g><path style="opacity:1" fill="#5bb33d" d="M 45.5,220.5 C 43.5168,220.157 42.1834,220.824 41.5,222.5C 39.3523,222.611 39.019,221.944 40.5,220.5C 42.2985,219.212 43.9652,219.212 45.5,220.5 Z"/></g>
<g><path style="opacity:1" fill="#2d6722" d="M 45.5,220.5 C 46.1667,220.5 46.8333,220.5 47.5,220.5C 48.6085,221.29 49.9419,221.79 51.5,222C 48.1832,222.498 44.8499,222.665 41.5,222.5C 42.1834,220.824 43.5168,220.157 45.5,220.5 Z"/></g>
<g><path style="opacity:1" fill="#3c882c" d="M 67.5,219.5 C 71.0173,219.787 74.6839,219.787 78.5,219.5C 78.5,220.833 78.5,222.167 78.5,223.5C 76.549,223.773 75.049,223.107 74,221.5C 70.7284,224.448 68.5618,223.781 67.5,219.5 Z"/></g>
<g><path style="opacity:1" fill="#429429" d="M 41.5,222.5 C 44.8499,222.665 48.1832,222.498 51.5,222C 49.9419,221.79 48.6085,221.29 47.5,220.5C 50.3727,219.11 52.0394,220.11 52.5,223.5C 48.6286,223.815 44.9619,223.482 41.5,222.5 Z"/></g>
<g><path style="opacity:1" fill="#3e8d2c" d="M 54.5,219.5 C 58.0991,220.344 61.7657,220.677 65.5,220.5C 65.5,221.5 65.5,222.5 65.5,223.5C 61.8333,223.5 58.1667,223.5 54.5,223.5C 54.5,222.167 54.5,220.833 54.5,219.5 Z"/></g>
<g><path style="opacity:1" fill="#07dbee" d="M 305.5,220.5 C 305.833,220.5 306.167,220.5 306.5,220.5C 315.5,220.5 324.5,220.5 333.5,220.5C 333.5,225.167 333.5,229.833 333.5,234.5C 315.5,234.5 297.5,234.5 279.5,234.5C 279.5,229.833 279.5,225.167 279.5,220.5C 288.167,220.5 296.833,220.5 305.5,220.5 Z"/></g>
<g><path style="opacity:1" fill="#0a7f8b" d="M 285.5,225.5 C 291.334,225.731 297,225.731 302.5,225.5C 302.5,226.833 302.5,228.167 302.5,229.5C 296.674,229.196 291.007,229.196 285.5,229.5C 285.5,228.167 285.5,226.833 285.5,225.5 Z"/></g>
<g><path style="opacity:1" fill="#0e5e6b" d="M 320.5,225.5 C 322.312,225.771 323.978,226.438 325.5,227.5C 325.376,228.107 325.043,228.44 324.5,228.5C 323.687,227.347 322.687,227.347 321.5,228.5C 320.614,227.675 320.281,226.675 320.5,225.5 Z"/></g>
<g><path style="opacity:1" fill="#048995" d="M 320.5,225.5 C 320.281,226.675 320.614,227.675 321.5,228.5C 322.687,227.347 323.687,227.347 324.5,228.5C 318.07,229.028 311.403,229.362 304.5,229.5C 304.238,228.022 304.571,226.689 305.5,225.5C 310.533,225.7 315.533,225.7 320.5,225.5 Z"/></g>
<g><path style="opacity:1" fill="#cff9fc" d="M 279.5,234.5 C 297.5,234.5 315.5,234.5 333.5,234.5C 333.5,229.833 333.5,225.167 333.5,220.5C 324.5,220.5 315.5,220.5 306.5,220.5C 306.5,220.167 306.5,219.833 306.5,219.5C 316.028,220.103 325.362,219.436 334.5,217.5C 335.496,223.463 335.829,229.463 335.5,235.5C 316.659,235.83 297.993,235.497 279.5,234.5 Z"/></g>
<g><path style="opacity:1" fill="#6cf03a" d="M 50.5,238.5 C 50.5,239.5 50.5,240.5 50.5,241.5C 55.3054,242.487 60.3054,242.821 65.5,242.5C 67.1436,242.19 68.1436,241.19 68.5,239.5C 66.369,238.686 64.0356,238.186 61.5,238C 62.056,237.617 62.3893,237.117 62.5,236.5C 63.791,236.737 64.791,236.404 65.5,235.5C 65.5,234.833 65.5,234.167 65.5,233.5C 62.6946,232.681 59.6946,232.181 56.5,232C 66.1609,231.5 75.8276,231.334 85.5,231.5C 85.5,235.5 85.5,239.5 85.5,243.5C 68.1667,243.5 50.8333,243.5 33.5,243.5C 33.5,239.5 33.5,235.5 33.5,231.5C 39.5092,231.334 45.5092,231.501 51.5,232C 51.6611,234.072 51.3278,236.239 50.5,238.5 Z"/></g>
<g><path style="opacity:1" fill="#c3f4ad" d="M 32.5,230.5 C 50.3256,229.503 68.3256,229.17 86.5,229.5C 86.8205,234.695 86.4872,239.695 85.5,244.5C 85.5,244.167 85.5,243.833 85.5,243.5C 85.5,239.5 85.5,235.5 85.5,231.5C 68.0079,230.503 50.3412,230.17 32.5,230.5 Z"/></g>
<g><path style="opacity:1" fill="#92ec6d" d="M 206.5,220.5 C 206.5,224.833 206.5,229.167 206.5,233.5C 210.167,233.5 213.833,233.5 217.5,233.5C 221.167,233.5 224.833,233.5 228.5,233.5C 238.5,233.5 248.5,233.5 258.5,233.5C 258.5,229.167 258.5,224.833 258.5,220.5C 258.833,220.5 259.167,220.5 259.5,220.5C 259.5,225.167 259.5,229.833 259.5,234.5C 241.5,234.5 223.5,234.5 205.5,234.5C 205.181,229.637 205.514,224.97 206.5,220.5 Z"/></g>
<g><path style="opacity:1" fill="#6eed3e" d="M 206.5,220.5 C 223.833,220.5 241.167,220.5 258.5,220.5C 258.5,224.833 258.5,229.167 258.5,233.5C 248.5,233.5 238.5,233.5 228.5,233.5C 232.298,232.517 236.298,232.183 240.5,232.5C 241.167,232.5 241.833,232.5 242.5,232.5C 244.95,232.702 247.283,232.369 249.5,231.5C 251.201,231.034 252.701,231.034 254,231.5C 254.483,230.552 254.649,229.552 254.5,228.5C 252.833,228.5 251.167,228.5 249.5,228.5C 243.833,228.5 238.167,228.5 232.5,228.5C 231.167,228.5 229.833,228.5 228.5,228.5C 223.5,228.5 218.5,228.5 213.5,228.5C 212.5,228.5 211.5,228.5 210.5,228.5C 210.5,229.5 210.5,230.5 210.5,231.5C 212.833,232.167 215.167,232.833 217.5,233.5C 213.833,233.5 210.167,233.5 206.5,233.5C 206.5,229.167 206.5,224.833 206.5,220.5 Z"/></g>
<g><path style="opacity:1" fill="#68d93f" d="M 213.5,228.5 C 218.5,228.5 223.5,228.5 228.5,228.5C 228.5,229.5 228.5,230.5 228.5,231.5C 232.702,231.183 236.702,231.517 240.5,232.5C 236.298,232.183 232.298,232.517 228.5,233.5C 224.833,233.5 221.167,233.5 217.5,233.5C 215.167,232.833 212.833,232.167 210.5,231.5C 215.875,231.828 221.208,231.495 226.5,230.5C 222.018,229.833 217.684,229.166 213.5,228.5 Z"/></g>
<g><path style="opacity:1" fill="#306c24" d="M 228.5,228.5 C 229.833,228.5 231.167,228.5 232.5,228.5C 237.316,229.326 242.316,229.826 247.5,230C 245.825,230.985 244.158,231.819 242.5,232.5C 241.833,232.5 241.167,232.5 240.5,232.5C 236.702,231.517 232.702,231.183 228.5,231.5C 228.5,230.5 228.5,229.5 228.5,228.5 Z"/></g>
<g><path style="opacity:1" fill="#2f6c23" d="M 213.5,228.5 C 217.684,229.166 222.018,229.833 226.5,230.5C 221.208,231.495 215.875,231.828 210.5,231.5C 210.5,230.5 210.5,229.5 210.5,228.5C 211.5,228.5 212.5,228.5 213.5,228.5 Z"/></g>
<g><path style="opacity:1" fill="#2e6c21" d="M 249.5,228.5 C 251.167,228.5 252.833,228.5 254.5,228.5C 254.649,229.552 254.483,230.552 254,231.5C 252.701,231.034 251.201,231.034 249.5,231.5C 249.5,230.5 249.5,229.5 249.5,228.5 Z"/></g>
<g><path style="opacity:1" fill="#6ad241" d="M 232.5,228.5 C 238.167,228.5 243.833,228.5 249.5,228.5C 249.5,229.5 249.5,230.5 249.5,231.5C 247.283,232.369 244.95,232.702 242.5,232.5C 244.158,231.819 245.825,230.985 247.5,230C 242.316,229.826 237.316,229.326 232.5,228.5 Z"/></g>
<g><path style="opacity:1" fill="#55b43a" d="M 253.5,223.5 C 254.404,224.209 254.737,225.209 254.5,226.5C 248.642,226.822 242.975,226.489 237.5,225.5C 243.271,226.113 248.604,225.446 253.5,223.5 Z"/></g>
<g><path style="opacity:1" fill="#5ebe3e" d="M 231.5,223.5 C 232.167,223.5 232.833,223.5 233.5,223.5C 233.721,226.097 234.221,226.097 235,223.5C 235.278,224.416 235.778,225.082 236.5,225.5C 229.5,226.833 222.5,226.833 215.5,225.5C 221.176,225.666 226.843,225.499 232.5,225C 231.944,224.617 231.611,224.117 231.5,223.5 Z"/></g>
<g><path style="opacity:1" fill="#357928" d="M 253.5,223.5 C 248.604,225.446 243.271,226.113 237.5,225.5C 237.167,225.5 236.833,225.5 236.5,225.5C 235.778,225.082 235.278,224.416 235,223.5C 234.221,226.097 233.721,226.097 233.5,223.5C 239.943,223.356 246.61,223.356 253.5,223.5 Z"/></g>
<g><path style="opacity:1" fill="#367829" d="M 231.5,223.5 C 231.611,224.117 231.944,224.617 232.5,225C 226.843,225.499 221.176,225.666 215.5,225.5C 213.833,225.5 212.167,225.5 210.5,225.5C 210.5,224.5 210.5,223.5 210.5,222.5C 217.457,223.386 224.457,223.72 231.5,223.5 Z"/></g>
<g><path style="opacity:1" fill="#307324" d="M 54.5,232.5 C 58.0641,233.423 61.7307,233.756 65.5,233.5C 65.5,234.167 65.5,234.833 65.5,235.5C 61.4454,235.824 57.4454,235.491 53.5,234.5C 53.8627,233.817 54.1961,233.15 54.5,232.5 Z"/></g>
<g><path style="opacity:1" fill="#9cf6fa" d="M 131.5,220.5 C 131.5,225.167 131.5,229.833 131.5,234.5C 149.167,234.5 166.833,234.5 184.5,234.5C 184.5,229.833 184.5,225.167 184.5,220.5C 185.487,225.305 185.821,230.305 185.5,235.5C 167.167,235.5 148.833,235.5 130.5,235.5C 130.179,230.305 130.513,225.305 131.5,220.5 Z"/></g>
<g><path style="opacity:1" fill="#01daef" d="M 131.5,220.5 C 140.167,220.5 148.833,220.5 157.5,220.5C 158.167,220.5 158.833,220.5 159.5,220.5C 167.833,220.5 176.167,220.5 184.5,220.5C 184.5,225.167 184.5,229.833 184.5,234.5C 166.833,234.5 149.167,234.5 131.5,234.5C 131.5,229.833 131.5,225.167 131.5,220.5 Z"/></g>
<g><path style="opacity:1" fill="#086e79" d="M 155.5,225.5 C 157.167,225.5 158.833,225.5 160.5,225.5C 160.329,228.797 160.995,229.131 162.5,226.5C 164.326,226.92 166.326,226.92 168.5,226.5C 168.5,227.5 168.5,228.5 168.5,229.5C 164.649,230.029 161.149,229.362 158,227.5C 157.667,228.167 157.333,228.833 157,229.5C 156.209,228.255 155.709,226.922 155.5,225.5 Z"/></g>
<g><path style="opacity:1" fill="#03747d" d="M 149.5,226.5 C 151.716,226.275 153.383,227.108 154.5,229C 152.5,229.667 150.5,229.667 148.5,229C 149.252,228.329 149.586,227.496 149.5,226.5 Z"/></g>
<g><path style="opacity:1" fill="#f2fcdd" d="M 259.5,220.5 C 260.166,225.489 260.499,230.656 260.5,236C 260.495,241.546 259.828,246.712 258.5,251.5C 259.441,246.93 259.774,242.263 259.5,237.5C 241.5,237.5 223.5,237.5 205.5,237.5C 218.994,236.669 232.661,236.169 246.5,236C 232.661,235.831 218.994,235.331 205.5,234.5C 223.5,234.5 241.5,234.5 259.5,234.5C 259.5,229.833 259.5,225.167 259.5,220.5 Z"/></g>
<g><path style="opacity:1" fill="#4ead36" d="M 54.5,232.5 C 54.1961,233.15 53.8627,233.817 53.5,234.5C 57.4454,235.491 61.4454,235.824 65.5,235.5C 64.791,236.404 63.791,236.737 62.5,236.5C 59.1667,236.5 55.8333,236.5 52.5,236.5C 52.1568,234.517 52.8235,233.183 54.5,232.5 Z"/></g>
<g><path style="opacity:1" fill="#73e942" d="M 32.5,230.5 C 50.3412,230.17 68.0079,230.503 85.5,231.5C 75.8276,231.334 66.1609,231.5 56.5,232C 59.6946,232.181 62.6946,232.681 65.5,233.5C 61.7307,233.756 58.0641,233.423 54.5,232.5C 52.8235,233.183 52.1568,234.517 52.5,236.5C 55.8333,236.5 59.1667,236.5 62.5,236.5C 62.3893,237.117 62.056,237.617 61.5,238C 64.0356,238.186 66.369,238.686 68.5,239.5C 62.3426,239.278 56.3426,238.944 50.5,238.5C 51.3278,236.239 51.6611,234.072 51.5,232C 45.5092,231.501 39.5092,231.334 33.5,231.5C 33.5,235.5 33.5,239.5 33.5,243.5C 32.5151,239.366 32.1818,235.032 32.5,230.5 Z"/></g>
<g><path style="opacity:1" fill="#b8f59f" d="M 131.5,238.5 C 149.326,237.503 167.326,237.17 185.5,237.5C 185.5,242.167 185.5,246.833 185.5,251.5C 185.167,251.5 184.833,251.5 184.5,251.5C 184.5,247.167 184.5,242.833 184.5,238.5C 166.833,238.5 149.167,238.5 131.5,238.5 Z"/></g>
<g><path style="opacity:1" fill="#7fe657" d="M 279.5,237.5 C 297.5,237.5 315.5,237.5 333.5,237.5C 333.5,242.167 333.5,246.833 333.5,251.5C 315.5,251.5 297.5,251.5 279.5,251.5C 279.5,246.833 279.5,242.167 279.5,237.5 Z"/></g>
<g><path style="opacity:1" fill="#edf172" d="M 205.5,237.5 C 223.5,237.5 241.5,237.5 259.5,237.5C 259.774,242.263 259.441,246.93 258.5,251.5C 240.992,251.83 223.659,251.497 206.5,250.5C 205.515,246.366 205.182,242.032 205.5,237.5 Z"/></g>
<g><path style="opacity:1" fill="#317624" d="M 50.5,238.5 C 56.3426,238.944 62.3426,239.278 68.5,239.5C 68.1436,241.19 67.1436,242.19 65.5,242.5C 62.2536,241.069 58.9203,240.735 55.5,241.5C 54.0055,241.291 52.8388,240.624 52,239.5C 51.7216,240.416 51.2216,241.082 50.5,241.5C 50.5,240.5 50.5,239.5 50.5,238.5 Z"/></g>
<g><path style="opacity:1" fill="#6ced3b" d="M 292.5,240.5 C 292.5,241.167 292.5,241.833 292.5,242.5C 298.979,243.491 305.646,243.824 312.5,243.5C 312.737,242.209 312.404,241.209 311.5,240.5C 305.642,240.822 299.975,240.489 294.5,239.5C 306.989,238.505 319.656,238.171 332.5,238.5C 332.5,242.5 332.5,246.5 332.5,250.5C 326.974,250.821 321.64,250.488 316.5,249.5C 318.698,248.835 321.031,248.168 323.5,247.5C 319.555,246.509 315.555,246.176 311.5,246.5C 311.5,245.833 311.167,245.5 310.5,245.5C 309.833,245.5 309.167,245.5 308.5,245.5C 302.074,244.88 296.074,245.547 290.5,247.5C 289.957,247.56 289.624,247.893 289.5,248.5C 294.467,249.329 299.467,249.829 304.5,250C 296.507,250.5 288.507,250.666 280.5,250.5C 280.5,246.5 280.5,242.5 280.5,238.5C 284.971,237.911 288.971,238.577 292.5,240.5 Z"/></g>
<g><path style="opacity:1" fill="#347226" d="M 294.5,239.5 C 299.975,240.489 305.642,240.822 311.5,240.5C 305.588,242.456 299.255,243.123 292.5,242.5C 292.5,241.833 292.5,241.167 292.5,240.5C 293.167,240.167 293.833,239.833 294.5,239.5 Z"/></g>
<g><path style="opacity:1" fill="#65ca3e" d="M 65.5,242.5 C 60.3054,242.821 55.3054,242.487 50.5,241.5C 51.2216,241.082 51.7216,240.416 52,239.5C 52.8388,240.624 54.0055,241.291 55.5,241.5C 58.9203,240.735 62.2536,241.069 65.5,242.5 Z"/></g>
<g><path style="opacity:1" fill="#72ef44" d="M 131.5,238.5 C 149.167,238.5 166.833,238.5 184.5,238.5C 184.5,242.833 184.5,247.167 184.5,251.5C 167.008,252.497 149.341,252.83 131.5,252.5C 131.5,247.833 131.5,243.167 131.5,238.5 Z"/></g>
<g><path style="opacity:1" fill="#64c540" d="M 145.5,240.5 C 145.5,241.5 145.5,242.5 145.5,243.5C 149.226,243.823 152.893,243.489 156.5,242.5C 154.955,241.548 153.288,241.215 151.5,241.5C 156.305,240.513 161.305,240.179 166.5,240.5C 163.642,241.166 160.642,241.833 157.5,242.5C 161.886,243.198 166.553,243.532 171.5,243.5C 162.682,244.493 153.682,244.827 144.5,244.5C 144.232,242.901 144.566,241.568 145.5,240.5 Z"/></g>
<g><path style="opacity:1" fill="#316c23" d="M 145.5,240.5 C 147.386,240.347 149.386,240.68 151.5,241.5C 153.288,241.215 154.955,241.548 156.5,242.5C 152.893,243.489 149.226,243.823 145.5,243.5C 145.5,242.5 145.5,241.5 145.5,240.5 Z"/></g>
<g><path style="opacity:1" fill="#337726" d="M 166.5,240.5 C 168.728,240.777 170.395,241.777 171.5,243.5C 166.553,243.532 161.886,243.198 157.5,242.5C 160.642,241.833 163.642,241.166 166.5,240.5 Z"/></g>
<g><path style="opacity:1" fill="#3b862a" d="M 313.5,239.5 C 316.393,240.523 319.226,240.523 322,239.5C 322.49,240.793 322.657,242.127 322.5,243.5C 319.455,243.492 316.455,243.159 313.5,242.5C 313.5,241.5 313.5,240.5 313.5,239.5 Z"/></g>
<g><path style="opacity:1" fill="#4ba732" d="M 311.5,240.5 C 312.404,241.209 312.737,242.209 312.5,243.5C 305.646,243.824 298.979,243.491 292.5,242.5C 299.255,243.123 305.588,242.456 311.5,240.5 Z"/></g>
<g><path style="opacity:1" fill="#9fed7d" d="M 32.5,230.5 C 32.1818,235.032 32.5151,239.366 33.5,243.5C 50.8333,243.5 68.1667,243.5 85.5,243.5C 85.5,243.833 85.5,244.167 85.5,244.5C 67.5,244.5 49.5,244.5 31.5,244.5C 31.1805,239.637 31.5139,234.97 32.5,230.5 Z"/></g>
<g><path style="opacity:1" fill="#387a27" d="M 148.5,246.5 C 152.231,247.196 156.065,247.862 160,248.5C 161.569,247.878 163.236,247.544 165,247.5C 166.986,247.569 168.486,248.235 169.5,249.5C 161.259,249.825 152.926,249.825 144.5,249.5C 144.5,248.5 144.5,247.5 144.5,246.5C 145.833,246.5 147.167,246.5 148.5,246.5 Z"/></g>
<g><path style="opacity:1" fill="#46a32e" d="M 148.5,246.5 C 155.841,246.334 163.174,246.5 170.5,247C 171.883,248.461 171.549,249.294 169.5,249.5C 168.486,248.235 166.986,247.569 165,247.5C 163.236,247.544 161.569,247.878 160,248.5C 156.065,247.862 152.231,247.196 148.5,246.5 Z"/></g>
<g><path style="opacity:1" fill="#2e7323" d="M 311.5,246.5 C 315.555,246.176 319.555,246.509 323.5,247.5C 321.031,248.168 318.698,248.835 316.5,249.5C 314.152,249.408 312.486,248.408 311.5,246.5 Z"/></g>
<g><path style="opacity:1" fill="#367a29" d="M 290.5,247.5 C 296.113,246.215 301.78,246.215 307.5,247.5C 307.192,248.308 306.692,248.975 306,249.5C 300.733,248.855 295.567,248.188 290.5,247.5 Z"/></g>
<g><path style="opacity:1" fill="#2a6523" d="M 308.5,245.5 C 309.167,245.5 309.833,245.5 310.5,245.5C 309.833,249.5 309.167,249.5 308.5,245.5 Z"/></g>
<g><path style="opacity:1" fill="#f3f965" d="M 216.5,245.5 C 214.244,246.438 211.91,246.438 209.5,245.5C 209.5,246.5 209.5,247.5 209.5,248.5C 215.167,248.5 220.833,248.5 226.5,248.5C 227.167,248.5 227.833,248.5 228.5,248.5C 233.23,248.283 237.897,248.617 242.5,249.5C 246.702,249.817 250.702,249.483 254.5,248.5C 254.5,247.5 254.5,246.5 254.5,245.5C 252.833,244.167 251.167,244.167 249.5,245.5C 248.778,245.918 248.278,246.584 248,247.5C 247.617,246.944 247.117,246.611 246.5,246.5C 244.631,245.835 242.631,245.169 240.5,244.5C 242.291,243.83 243.958,243.163 245.5,242.5C 245.5,241.833 245.5,241.167 245.5,240.5C 245.389,239.883 245.056,239.383 244.5,239C 248.807,238.701 252.974,238.534 257,238.5C 257.499,242.486 257.666,246.486 257.5,250.5C 240.5,250.5 223.5,250.5 206.5,250.5C 206.5,246.5 206.5,242.5 206.5,238.5C 210.5,238.5 214.5,238.5 218.5,238.5C 218.5,240.167 218.5,241.833 218.5,243.5C 221.073,243.148 223.406,243.648 225.5,245C 222.518,245.498 219.518,245.665 216.5,245.5 Z"/></g>
<g><path style="opacity:1" fill="#cfd463" d="M 254.5,245.5 C 253.761,245.369 253.094,245.536 252.5,246C 253.833,246.667 253.833,247.333 252.5,248C 253.094,248.464 253.761,248.631 254.5,248.5C 250.702,249.483 246.702,249.817 242.5,249.5C 244.219,248.978 245.552,247.978 246.5,246.5C 247.117,246.611 247.617,246.944 248,247.5C 248.278,246.584 248.778,245.918 249.5,245.5C 251.167,244.167 252.833,244.167 254.5,245.5 Z"/></g>
<g><path style="opacity:1" fill="#5a6023" d="M 254.5,245.5 C 254.5,246.5 254.5,247.5 254.5,248.5C 253.761,248.631 253.094,248.464 252.5,248C 253.833,247.333 253.833,246.667 252.5,246C 253.094,245.536 253.761,245.369 254.5,245.5 Z"/></g>
<g><path style="opacity:1" fill="#66692a" d="M 246.5,246.5 C 245.552,247.978 244.219,248.978 242.5,249.5C 237.897,248.617 233.23,248.283 228.5,248.5C 228.351,247.448 228.517,246.448 229,245.5C 234.469,246.362 240.302,246.695 246.5,246.5 Z"/></g>
<g><path style="opacity:1" fill="#6c6e2e" d="M 216.5,245.5 C 220.119,245.881 223.452,246.881 226.5,248.5C 220.833,248.5 215.167,248.5 209.5,248.5C 209.5,247.5 209.5,246.5 209.5,245.5C 211.91,246.438 214.244,246.438 216.5,245.5 Z"/></g>
<g><path style="opacity:1" fill="#52511f" d="M 249.5,245.5 C 251.465,245.948 251.798,246.948 250.5,248.5C 249.614,247.675 249.281,246.675 249.5,245.5 Z"/></g>
<g><path style="opacity:1" fill="#757636" d="M 245.5,240.5 C 245.5,241.167 245.5,241.833 245.5,242.5C 241.116,242.826 236.783,242.492 232.5,241.5C 232.833,240.5 233.5,239.833 234.5,239.5C 238.094,240.426 241.76,240.759 245.5,240.5 Z"/></g>
<g><path style="opacity:1" fill="#6c6e32" d="M 219.5,239.5 C 222.072,240.4 224.906,240.4 228,239.5C 229.205,240.071 230.372,240.738 231.5,241.5C 227.555,242.491 223.555,242.824 219.5,242.5C 219.5,241.5 219.5,240.5 219.5,239.5 Z"/></g>
<g><path style="opacity:1" fill="#fcfbdc" d="M 205.5,237.5 C 205.182,242.032 205.515,246.366 206.5,250.5C 223.659,251.497 240.992,251.83 258.5,251.5C 241.005,252.662 223.338,252.829 205.5,252C 204.176,247.067 204.176,242.234 205.5,237.5 Z"/></g>
<g><path style="opacity:1" fill="#f3fbd9" d="M 131.5,238.5 C 131.5,243.167 131.5,247.833 131.5,252.5C 149.341,252.83 167.008,252.497 184.5,251.5C 184.833,251.5 185.167,251.5 185.5,251.5C 185.5,252.5 185.5,253.5 185.5,254.5C 185.167,254.5 184.833,254.5 184.5,254.5C 166.833,254.5 149.167,254.5 131.5,254.5C 130.198,249.067 130.198,243.734 131.5,238.5 Z"/></g>
<g><path style="opacity:1" fill="#f5fb6c" d="M 131.5,254.5 C 149.167,254.5 166.833,254.5 184.5,254.5C 184.5,258.833 184.5,263.167 184.5,267.5C 178.491,267.666 172.491,267.499 166.5,267C 167.416,266.722 168.082,266.222 168.5,265.5C 167.105,263.621 165.105,262.621 162.5,262.5C 159.143,262.371 155.477,262.371 151.5,262.5C 149.33,263.768 147.163,263.768 145,262.5C 143.583,263.078 142.75,264.078 142.5,265.5C 145.305,266.319 148.305,266.819 151.5,267C 144.842,267.5 138.175,267.666 131.5,267.5C 131.5,263.167 131.5,258.833 131.5,254.5 Z"/></g>
<g><path style="opacity:1" fill="#8f9240" d="M 134.5,256.5 C 140.035,257.096 145.535,257.763 151,258.5C 152.441,257.74 153.941,257.074 155.5,256.5C 159.111,257.262 162.778,257.762 166.5,258C 167,258.5 167.5,259 168,259.5C 172.178,257.601 176.678,256.935 181.5,257.5C 181.5,258.5 181.5,259.5 181.5,260.5C 165.833,260.5 150.167,260.5 134.5,260.5C 134.5,259.167 134.5,257.833 134.5,256.5 Z"/></g>
<g><path style="opacity:1" fill="#80823b" d="M 162.5,262.5 C 165.105,262.621 167.105,263.621 168.5,265.5C 166.5,265.5 164.5,265.5 162.5,265.5C 162.5,264.5 162.5,263.5 162.5,262.5 Z"/></g>
<g><path style="opacity:1" fill="#737433" d="M 180.5,263.5 C 179.306,264.777 177.64,265.444 175.5,265.5C 173.833,265.167 172.167,264.833 170.5,264.5C 170.624,263.893 170.957,263.56 171.5,263.5C 174.381,263.135 177.381,263.135 180.5,263.5 Z"/></g>
<g><path style="opacity:1" fill="#b4b84e" d="M 171.5,263.5 C 170.957,263.56 170.624,263.893 170.5,264.5C 172.167,264.833 173.833,265.167 175.5,265.5C 177.64,265.444 179.306,264.777 180.5,263.5C 181.404,264.209 181.737,265.209 181.5,266.5C 177.5,266.5 173.5,266.5 169.5,266.5C 169.238,265.022 169.571,263.689 170.5,262.5C 171.107,262.624 171.44,262.957 171.5,263.5 Z"/></g>
<g><path style="opacity:1" fill="#edf378" d="M 131.5,254.5 C 131.5,258.833 131.5,263.167 131.5,267.5C 138.175,267.666 144.842,267.5 151.5,267C 148.305,266.819 145.305,266.319 142.5,265.5C 148.614,266.223 154.614,266.056 160.5,265C 160.833,264.667 161.167,264.333 161.5,264C 157.975,263.821 154.641,263.321 151.5,262.5C 155.477,262.371 159.143,262.371 162.5,262.5C 162.5,263.5 162.5,264.5 162.5,265.5C 164.5,265.5 166.5,265.5 168.5,265.5C 168.082,266.222 167.416,266.722 166.5,267C 172.491,267.499 178.491,267.666 184.5,267.5C 167.008,268.497 149.341,268.83 131.5,268.5C 130.167,263.833 130.167,259.167 131.5,254.5 Z"/></g>
<g><path style="opacity:1" fill="#747635" d="M 151.5,262.5 C 154.641,263.321 157.975,263.821 161.5,264C 161.167,264.333 160.833,264.667 160.5,265C 154.614,266.056 148.614,266.223 142.5,265.5C 142.75,264.078 143.583,263.078 145,262.5C 147.163,263.768 149.33,263.768 151.5,262.5 Z"/></g>
<g><path style="opacity:1" fill="#a0a245" d="M 134.5,262.5 C 136.833,262.5 139.167,262.5 141.5,262.5C 141.5,263.833 141.5,265.167 141.5,266.5C 139.473,266.662 137.473,266.495 135.5,266C 134.663,264.989 134.33,263.822 134.5,262.5 Z"/></g>
<g><path style="opacity:1" fill="#f6fc81" d="M 279.5,254.5 C 297.5,254.5 315.5,254.5 333.5,254.5C 333.5,259.167 333.5,263.833 333.5,268.5C 315.5,268.5 297.5,268.5 279.5,268.5C 279.5,263.833 279.5,259.167 279.5,254.5 Z"/></g>
<g><path style="opacity:1" fill="#7f813a" d="M 316.5,262.5 C 316.5,262.833 316.5,263.167 316.5,263.5C 313.739,265.167 310.572,266.167 307,266.5C 305.422,265.289 305.255,263.955 306.5,262.5C 309.83,263.739 313.163,263.739 316.5,262.5 Z"/></g>
<g><path style="opacity:1" fill="#e8ed64" d="M 290.5,255.5 C 299.167,255.5 307.833,255.5 316.5,255.5C 318.833,256.167 321.167,256.833 323.5,257.5C 317.575,257.808 311.741,257.475 306,256.5C 305.517,257.448 305.351,258.448 305.5,259.5C 311.5,259.5 317.5,259.5 323.5,259.5C 320.841,259.917 318.508,260.917 316.5,262.5C 313.163,263.739 309.83,263.739 306.5,262.5C 305.255,263.955 305.422,265.289 307,266.5C 310.572,266.167 313.739,265.167 316.5,263.5C 317.376,263.369 318.043,263.702 318.5,264.5C 317.807,265.518 317.141,266.518 316.5,267.5C 309.5,267.5 302.5,267.5 295.5,267.5C 296.315,263.167 294.648,260.834 290.5,260.5C 290.5,258.833 290.5,257.167 290.5,255.5 Z"/></g>
<g><path style="opacity:1" fill="#6d6e2d" d="M 296.5,262.5 C 306.85,264.467 306.85,265.467 296.5,265.5C 296.5,264.5 296.5,263.5 296.5,262.5 Z"/></g>
<g><path style="opacity:1" fill="#84863b" d="M 291.5,256.5 C 292.75,256.577 293.583,257.244 294,258.5C 297.125,257.213 300.291,257.213 303.5,258.5C 301.954,258.804 300.121,259.47 298,260.5C 295.901,259.713 293.734,259.38 291.5,259.5C 291.5,258.5 291.5,257.5 291.5,256.5 Z"/></g>
<g><path style="opacity:1" fill="#f9fe64" d="M 290.5,255.5 C 290.5,257.167 290.5,258.833 290.5,260.5C 294.648,260.834 296.315,263.167 295.5,267.5C 290.5,267.5 285.5,267.5 280.5,267.5C 280.5,263.5 280.5,259.5 280.5,255.5C 283.833,255.5 287.167,255.5 290.5,255.5 Z"/></g>
<g><path style="opacity:1" fill="#727235" d="M 323.5,257.5 C 323.5,258.167 323.5,258.833 323.5,259.5C 317.5,259.5 311.5,259.5 305.5,259.5C 305.351,258.448 305.517,257.448 306,256.5C 311.741,257.475 317.575,257.808 323.5,257.5 Z"/></g>
<g><path style="opacity:1" fill="#f9fe63" d="M 316.5,255.5 C 321.833,255.5 327.167,255.5 332.5,255.5C 332.5,259.5 332.5,263.5 332.5,267.5C 327.167,267.5 321.833,267.5 316.5,267.5C 317.141,266.518 317.807,265.518 318.5,264.5C 318.043,263.702 317.376,263.369 316.5,263.5C 316.5,263.167 316.5,262.833 316.5,262.5C 318.508,260.917 320.841,259.917 323.5,259.5C 323.5,258.833 323.5,258.167 323.5,257.5C 321.167,256.833 318.833,256.167 316.5,255.5 Z"/></g>
<g><path style="opacity:1" fill="#fbfbce" d="M 184.5,254.5 C 184.833,254.5 185.167,254.5 185.5,254.5C 185.5,259.5 185.5,264.5 185.5,269.5C 167.326,269.83 149.326,269.497 131.5,268.5C 149.341,268.83 167.008,268.497 184.5,267.5C 184.5,263.167 184.5,258.833 184.5,254.5 Z"/></g>
</svg>
