<?xml version="1.0" encoding="UTF-8"?>
<!DOCTYPE svg PUBLIC "-//W3C//DTD SVG 1.1//EN" "http://www.w3.org/Graphics/SVG/1.1/DTD/svg11.dtd">
<svg xmlns="http://www.w3.org/2000/svg" version="1.1" width="262px" height="566px" style="shape-rendering:geometricPrecision; text-rendering:geometricPrecision; image-rendering:optimizeQuality; fill-rule:evenodd; clip-rule:evenodd" xmlns:xlink="http://www.w3.org/1999/xlink">
<g><path style="opacity:1" fill="#030303" d="M -0.5,-0.5 C 86.8333,-0.5 174.167,-0.5 261.5,-0.5C 261.5,12.1667 261.5,24.8333 261.5,37.5C 260.078,36.075 258.411,35.075 256.5,34.5C 254.735,33.5386 252.735,33.2053 250.5,33.5C 250.607,31.0968 249.607,29.2635 247.5,28C 169.5,27.3333 91.5,27.3333 13.5,28C 11.393,29.2635 10.393,31.0968 10.5,33.5C 8.26465,33.2053 6.26465,33.5386 4.5,34.5C 2.5887,35.075 0.922032,36.075 -0.5,37.5C -0.5,24.8333 -0.5,12.1667 -0.5,-0.5 Z"/></g>
<g><path style="opacity:1" fill="#eaeaea" d="M 48.5,11.5 C 49.5,11.5 50.5,11.5 51.5,11.5C 51.6641,14.1873 51.4974,16.854 51,19.5C 50.6667,17.1667 50.3333,14.8333 50,12.5C 48.8932,13.7119 48.3932,13.3786 48.5,11.5 Z"/></g>
<g><path style="opacity:1" fill="#ebebeb" d="M 205.5,10.5 C 206.748,11.3339 207.415,12.6672 207.5,14.5C 207.167,15.8333 206.833,17.1667 206.5,18.5C 205.52,15.9135 205.187,13.2469 205.5,10.5 Z"/></g>
<g><path style="opacity:1" fill="#d5d5d5" d="M 214.5,13.5 C 213.624,13.6309 212.957,13.2975 212.5,12.5C 215.931,9.81443 219.264,9.98109 222.5,13C 219.71,12.3525 217.044,12.5192 214.5,13.5 Z"/></g>
<g><path style="opacity:1" fill="#3b3b3b" d="M 227.5,17.5 C 226.848,16.5514 226.514,15.3847 226.5,14C 226.675,12.3419 227.342,11.0086 228.5,10C 232.833,9.33333 237.167,9.33333 241.5,10C 245.785,12.4854 246.118,15.1521 242.5,18C 237.316,18.8163 232.316,18.6497 227.5,17.5 Z"/></g>
<g><path style="opacity:1" fill="#f7f7f7" d="M 227.5,17.5 C 227.5,15.5 227.5,13.5 227.5,11.5C 232.167,11.5 236.833,11.5 241.5,11.5C 241.5,13.5 241.5,15.5 241.5,17.5C 236.833,17.5 232.167,17.5 227.5,17.5 Z"/></g>
<g><path style="opacity:1" fill="#bfbfbf" d="M 201.5,11.5 C 202.725,12.1522 203.392,13.3189 203.5,15C 203.167,16.1667 202.833,17.3333 202.5,18.5C 201.526,16.2573 201.192,13.924 201.5,11.5 Z"/></g>
<g><path style="opacity:1" fill="#d2d2d2" d="M 198.5,13.5 C 199.649,13.7911 200.316,14.6244 200.5,16C 200.167,16.8333 199.833,17.6667 199.5,18.5C 198.548,16.9547 198.215,15.288 198.5,13.5 Z"/></g>
<g><path style="opacity:1" fill="#c7c7c7" d="M 214.5,13.5 C 220.588,13.0118 221.421,14.3452 217,17.5C 214.742,16.5291 213.909,15.1957 214.5,13.5 Z"/></g>
<g><path style="opacity:1" fill="#f1f1f1" d="M 194.5,15.5 C 196.465,15.9483 196.798,16.9483 195.5,18.5C 194.614,17.675 194.281,16.675 194.5,15.5 Z"/></g>
<g><path style="opacity:1" fill="#6c6c6c" d="M 31.5,15.5 C 31.8333,15.5 32.1667,15.5 32.5,15.5C 33.1667,15.5 33.8333,15.5 34.5,15.5C 35.0431,15.56 35.3764,15.8933 35.5,16.5C 34.6602,17.735 33.6602,18.735 32.5,19.5C 30.3796,18.5967 30.0462,17.2633 31.5,15.5 Z"/></g>
<g><path style="opacity:1" fill="#c3c3c3" d="M 43.5,13.5 C 43.8212,11.9519 44.8212,11.2852 46.5,11.5C 46.2606,13.4672 46.5939,15.3005 47.5,17C 47,17.5 46.5,18 46,18.5C 43.0916,17.7145 40.2582,17.3812 37.5,17.5C 36.1502,18.9501 34.4835,19.6168 32.5,19.5C 33.6602,18.735 34.6602,17.735 35.5,16.5C 35.3764,15.8933 35.0431,15.56 34.5,15.5C 35.9143,13.4017 35.2476,12.4017 32.5,12.5C 32.5,13.5 32.5,14.5 32.5,15.5C 32.1667,15.5 31.8333,15.5 31.5,15.5C 30.0823,13.0124 30.9156,11.3458 34,10.5C 36.4307,11.6864 37.5973,13.6864 37.5,16.5C 40.0772,16.5449 42.0772,15.5449 43.5,13.5 Z"/></g>
<g><path style="opacity:1" fill="#565656" d="M 43.5,13.5 C 44.1174,13.3893 44.6174,13.056 45,12.5C 45.49,13.7932 45.6567,15.1266 45.5,16.5C 44.448,16.6495 43.448,16.4828 42.5,16C 43.2524,15.3292 43.5858,14.4959 43.5,13.5 Z"/></g>
<g><path style="opacity:1" fill="#1d1d1d" d="M 34.5,15.5 C 33.8333,15.5 33.1667,15.5 32.5,15.5C 32.5,14.5 32.5,13.5 32.5,12.5C 35.2476,12.4017 35.9143,13.4017 34.5,15.5 Z"/></g>
<g><path style="opacity:1" fill="#e6e6e6" d="M 256.5,34.5 C 172.5,34.5 88.5,34.5 4.5,34.5C 6.26465,33.5386 8.26465,33.2053 10.5,33.5C 10.393,31.0968 11.393,29.2635 13.5,28C 91.5,27.3333 169.5,27.3333 247.5,28C 249.607,29.2635 250.607,31.0968 250.5,33.5C 252.735,33.2053 254.735,33.5386 256.5,34.5 Z"/></g>
<g><path style="opacity:1" fill="#ea6669" d="M -0.5,120.5 C 28.5019,120.333 57.5019,120.5 86.5,121C 57.6476,122.491 28.6476,122.991 -0.5,122.5C -0.5,121.833 -0.5,121.167 -0.5,120.5 Z"/></g>
<g><path style="opacity:1" fill="#fefefe" d="M 4.5,34.5 C 88.5,34.5 172.5,34.5 256.5,34.5C 258.411,35.075 260.078,36.075 261.5,37.5C 261.5,213.5 261.5,389.5 261.5,565.5C 174.167,565.5 86.8333,565.5 -0.5,565.5C -0.5,417.833 -0.5,270.167 -0.5,122.5C 28.6476,122.991 57.6476,122.491 86.5,121C 57.5019,120.5 28.5019,120.333 -0.5,120.5C -0.5,92.8333 -0.5,65.1667 -0.5,37.5C 0.922032,36.075 2.5887,35.075 4.5,34.5 Z"/></g>
<g><path style="opacity:1" fill="#8b8b8b" d="M 136.5,106.5 C 137.209,105.596 138.209,105.263 139.5,105.5C 139.5,107.5 139.5,109.5 139.5,111.5C 138.167,111.5 136.833,111.5 135.5,111.5C 135.137,109.089 136.137,107.589 138.5,107C 137.906,106.536 137.239,106.369 136.5,106.5 Z"/></g>
<g><path style="opacity:1" fill="#787878" d="M 132.5,104.5 C 133.289,104.783 133.956,105.283 134.5,106C 133.721,107.994 133.387,109.828 133.5,111.5C 132.203,109.082 131.87,106.749 132.5,104.5 Z"/></g>
<g><path style="opacity:1" fill="#717171" d="M 198.5,106.5 C 198.66,108.199 198.494,109.866 198,111.5C 196.667,104.833 195.333,104.833 194,111.5C 193.505,109.527 193.338,107.527 193.5,105.5C 195.292,105.366 196.958,105.699 198.5,106.5 Z"/></g>
<g><path style="opacity:1" fill="#999999" d="M 29.5,105.5 C 33.0149,105.743 36.5149,105.743 40,105.5C 41.0588,105.63 41.8921,106.13 42.5,107C 41.3595,107.741 41.3595,108.575 42.5,109.5C 42.1131,110.72 41.2798,111.387 40,111.5C 38.2345,110.768 37.0678,109.435 36.5,107.5C 35.8333,108.833 35.1667,110.167 34.5,111.5C 32.674,111.08 30.674,111.08 28.5,111.5C 28.3253,109.379 28.6586,107.379 29.5,105.5 Z"/></g>
<g><path style="opacity:1" fill="#8a8a8a" d="M 240.5,105.5 C 245.241,105.161 246.574,107.161 244.5,111.5C 243.052,104.922 241.885,104.922 241,111.5C 240.505,109.527 240.338,107.527 240.5,105.5 Z"/></g>
<g><path style="opacity:1" fill="#898989" d="M 234.5,105.5 C 235.833,105.5 237.167,105.5 238.5,105.5C 238.671,108.797 238.005,109.131 236.5,106.5C 235.167,107.833 235.167,109.167 236.5,110.5C 237.396,109.494 238.062,109.494 238.5,110.5C 234.154,111.512 232.82,109.846 234.5,105.5 Z"/></g>
<g><path style="opacity:1" fill="#6b6b6b" d="M 229.5,106.5 C 230.209,105.596 231.209,105.263 232.5,105.5C 232.662,107.527 232.495,109.527 232,111.5C 231.95,109.256 231.117,107.589 229.5,106.5 Z"/></g>
<g><path style="opacity:1" fill="#626262" d="M 207.5,106.5 C 203.5,107.833 203.5,109.167 207.5,110.5C 206.152,111.186 204.985,112.186 204,113.5C 203.503,110.854 203.336,108.187 203.5,105.5C 205.099,105.232 206.432,105.566 207.5,106.5 Z"/></g>
<g><path style="opacity:1" fill="#838383" d="M 198.5,106.5 C 199.209,105.596 200.209,105.263 201.5,105.5C 201.662,107.527 201.495,109.527 201,111.5C 200.95,109.256 200.117,107.589 198.5,106.5 Z"/></g>
<g><path style="opacity:1" fill="#8f8f8f" d="M 119.5,105.5 C 123.521,105.244 124.854,106.91 123.5,110.5C 119.154,111.512 117.82,109.846 119.5,105.5 Z"/></g>
<g><path style="opacity:1" fill="#5d5d5d" d="M 50.5,105.5 C 55.0685,105.083 56.5685,107.083 55,111.5C 53.6667,104.833 52.3333,104.833 51,111.5C 50.5045,109.527 50.3379,107.527 50.5,105.5 Z"/></g>
<g><path style="opacity:1" fill="#909090" d="M 246.5,104.5 C 247.693,104.97 248.36,105.97 248.5,107.5C 249.038,109.111 249.038,110.444 248.5,111.5C 247.914,111.291 247.414,110.957 247,110.5C 246.505,108.527 246.338,106.527 246.5,104.5 Z"/></g>
<g><path style="opacity:1" fill="#a9a9a9" d="M 213.5,105.5 C 218.028,104.721 220.694,106.554 221.5,111C 221.37,112.059 220.87,112.892 220,113.5C 219.71,111.048 219.044,108.715 218,106.5C 218.218,110.638 216.552,111.972 213,110.5C 212.36,108.735 212.527,107.068 213.5,105.5 Z"/></g>
<g><path style="opacity:1" fill="#cacaca" d="M 207.5,106.5 C 208.833,107.833 208.833,109.167 207.5,110.5C 203.5,109.167 203.5,107.833 207.5,106.5 Z"/></g>
<g><path style="opacity:1" fill="#565656" d="M 147.5,104.5 C 148.289,104.783 148.956,105.283 149.5,106C 148.721,107.994 148.387,109.828 148.5,111.5C 147.203,109.082 146.87,106.749 147.5,104.5 Z"/></g>
<g><path style="opacity:1" fill="#fcfcfc" d="M 120.5,106.5 C 121.586,106.62 122.253,107.287 122.5,108.5C 122.167,109.167 121.833,109.833 121.5,110.5C 120.571,109.311 120.238,107.978 120.5,106.5 Z"/></g>
<g><path style="opacity:1" fill="#848484" d="M 57.5,105.5 C 61.0681,105.759 62.4015,107.759 61.5,111.5C 59.8561,111.714 58.3561,111.38 57,110.5C 57.3088,108.749 57.4754,107.082 57.5,105.5 Z"/></g>
<g><path style="opacity:1" fill="#707070" d="M 47.5,110.5 C 46.4583,111.791 45.2917,111.791 44,110.5C 42.8938,106.103 44.3938,104.77 48.5,106.5C 49.9321,108.297 49.5988,109.63 47.5,110.5 Z"/></g>
<g><path style="opacity:1" fill="#f2f2f2" d="M 47.5,110.5 C 46.4138,110.38 45.7472,109.713 45.5,108.5C 45.8333,107.833 46.1667,107.167 46.5,106.5C 47.4287,107.689 47.762,109.022 47.5,110.5 Z"/></g>
<g><path style="opacity:1" fill="#474747" d="M 22.5,103.5 C 24.1667,103.5 25.8333,103.5 27.5,103.5C 27.762,104.978 27.4287,106.311 26.5,107.5C 25.4937,107.062 25.4937,106.396 26.5,105.5C 25.675,104.614 24.675,104.281 23.5,104.5C 23.6633,106.857 23.4966,109.19 23,111.5C 22.5026,108.854 22.3359,106.187 22.5,103.5 Z"/></g>
<g><path style="opacity:1" fill="#818181" d="M 229.5,106.5 C 228.978,113.136 228.145,113.136 227,106.5C 225.883,107.949 225.216,109.616 225,111.5C 224.505,109.527 224.338,107.527 224.5,105.5C 226.292,105.366 227.958,105.699 229.5,106.5 Z"/></g>
<g><path style="opacity:1" fill="#878787" d="M 125.5,105.5 C 130.241,105.161 131.574,107.161 129.5,111.5C 128.517,104.972 127.35,104.972 126,111.5C 125.505,109.527 125.338,107.527 125.5,105.5 Z"/></g>
<g><path style="opacity:1" fill="#a0a0a0" d="M 209.5,103.5 C 210.748,104.334 211.415,105.667 211.5,107.5C 211.167,108.833 210.833,110.167 210.5,111.5C 209.52,108.914 209.187,106.247 209.5,103.5 Z"/></g>
<g><path style="opacity:1" fill="#696969" d="M 187.5,103.5 C 193.324,103.347 193.657,104.013 188.5,105.5C 192.311,106.738 192.311,107.404 188.5,107.5C 188.5,108.5 188.5,109.5 188.5,110.5C 193.5,111.003 193.167,111.336 187.5,111.5C 187.5,108.833 187.5,106.167 187.5,103.5 Z"/></g>
<g><path style="opacity:1" fill="#6c6c6c" d="M 112.5,103.5 C 114.288,103.215 115.955,103.548 117.5,104.5C 116.418,104.749 115.085,104.915 113.5,105C 112.773,106.399 112.273,107.899 112,109.5C 111.322,107.402 111.489,105.402 112.5,103.5 Z"/></g>
<g><path style="opacity:1" fill="#898989" d="M 62.5,103.5 C 63.7479,104.334 64.4146,105.667 64.5,107.5C 64.1667,108.833 63.8333,110.167 63.5,111.5C 62.52,108.914 62.1866,106.247 62.5,103.5 Z"/></g>
<g><path style="opacity:1" fill="#5b5b5b" d="M 114.5,58.5 C 115.779,59.968 117.446,60.6347 119.5,60.5C 119.5,62.1667 119.5,63.8333 119.5,65.5C 117.833,65.5 116.167,65.5 114.5,65.5C 114.5,63.1667 114.5,60.8333 114.5,58.5 Z"/></g>
<g><path style="opacity:1" fill="#838383" d="M 108.5,58.5 C 109.496,58.4142 110.329,58.7476 111,59.5C 111.837,61.3506 112.671,63.1839 113.5,65C 111.3,64.4156 109.133,64.5823 107,65.5C 106.865,63.0784 107.365,60.7451 108.5,58.5 Z"/></g>
<g><path style="opacity:1" fill="#545454" d="M 151.5,60.5 C 155.893,60.4568 156.226,60.9568 152.5,62C 153.5,62.3333 154.5,62.6667 155.5,63C 153.939,63.3176 152.772,64.1509 152,65.5C 151.506,63.8659 151.34,62.1992 151.5,60.5 Z"/></g>
<g><path style="opacity:1" fill="#e3e3e3" d="M 115.5,61.5 C 116.5,61.5 117.5,61.5 118.5,61.5C 118.5,62.5 118.5,63.5 118.5,64.5C 117.5,64.5 116.5,64.5 115.5,64.5C 115.5,63.5 115.5,62.5 115.5,61.5 Z"/></g>
<g><path style="opacity:1" fill="#6b6b6b" d="M 121.5,60.5 C 126.197,60.007 127.363,61.6737 125,65.5C 124,60.1667 123,60.1667 122,65.5C 120.212,63.9769 120.045,62.3102 121.5,60.5 Z"/></g>
<g><path style="opacity:1" fill="#5f5f5f" d="M 141.5,60.5 C 144.167,60.5 146.833,60.5 149.5,60.5C 149.653,66.3239 148.987,66.6572 147.5,61.5C 146.167,66.8333 144.833,66.8333 143.5,61.5C 142.013,66.6572 141.347,66.3239 141.5,60.5 Z"/></g>
<g><path style="opacity:1" fill="#4c4c4c" d="M 127.5,60.5 C 128.434,61.5676 128.768,62.901 128.5,64.5C 129.5,64.5 130.5,64.5 131.5,64.5C 132.003,59.5 132.336,59.8333 132.5,65.5C 130.833,65.5 129.167,65.5 127.5,65.5C 127.5,63.8333 127.5,62.1667 127.5,60.5 Z"/></g>
<g><path style="opacity:1" fill="#898989" d="M 14.5,55.5 C 16.8418,55.7748 16.8418,56.6081 14.5,58C 16.1667,59.6667 17.8333,61.3333 19.5,63C 15.1827,62.1938 13.5161,59.6938 14.5,55.5 Z"/></g>
<g><path style="opacity:1" fill="#444444" d="M 134.5,59.5 C 135.289,59.7828 135.956,60.2828 136.5,61C 135.783,62.6524 135.45,64.1524 135.5,65.5C 134.135,63.4464 133.801,61.4464 134.5,59.5 Z"/></g>
<g><path style="opacity:1" fill="#ab1014" d="M 129.5,231.5 C 131.017,231.511 132.184,232.177 133,233.5C 136.414,239.997 140.081,246.33 144,252.5C 145.411,254.65 146.245,256.984 146.5,259.5C 135.833,259.5 125.167,259.5 114.5,259.5C 118.959,249.918 123.959,240.585 129.5,231.5 Z"/></g>
<g><path style="opacity:1" fill="#e0a6aa" d="M 131.5,248.5 C 130.833,235.167 130.167,235.167 129.5,248.5C 128.518,245.038 128.185,241.371 128.5,237.5C 129.833,237.5 131.167,237.5 132.5,237.5C 132.815,241.371 132.482,245.038 131.5,248.5 Z"/></g>
<g><path style="opacity:1" fill="#fefffe" d="M 131.5,248.5 C 130.833,248.5 130.167,248.5 129.5,248.5C 130.167,235.167 130.833,235.167 131.5,248.5 Z"/></g>
<g><path style="opacity:1" fill="#f7e5e6" d="M 129.5,250.5 C 132.956,251.536 133.29,253.203 130.5,255.5C 128.296,254.218 127.962,252.551 129.5,250.5 Z"/></g>
<g><path style="opacity:1" fill="#363636" d="M 57.5,289.5 C 66.4896,287.325 69.9896,290.658 68,299.5C 65.1034,302.231 61.6034,303.231 57.5,302.5C 57.5,298.167 57.5,293.833 57.5,289.5 Z"/></g>
<g><path style="opacity:1" fill="#393939" d="M 104.5,289.5 C 105.8,291.223 106.467,293.39 106.5,296C 106.167,298.167 105.833,300.333 105.5,302.5C 104.508,298.217 104.174,293.884 104.5,289.5 Z"/></g>
<g><path style="opacity:1" fill="#797979" d="M 158.5,288.5 C 159.5,288.5 160.5,288.5 161.5,288.5C 161.5,293.167 161.5,297.833 161.5,302.5C 160.5,302.5 159.5,302.5 158.5,302.5C 158.5,297.833 158.5,293.167 158.5,288.5 Z"/></g>
<g><path style="opacity:1" fill="#3c3c3c" d="M 185.5,289.5 C 186.8,291.223 187.467,293.39 187.5,296C 187.167,298.167 186.833,300.333 186.5,302.5C 185.508,298.217 185.174,293.884 185.5,289.5 Z"/></g>
<g><path style="opacity:1" fill="#ededed" d="M 59.5,290.5 C 66.2646,290.464 68.2646,293.631 65.5,300C 63.6547,301.128 61.6547,301.628 59.5,301.5C 59.5,297.833 59.5,294.167 59.5,290.5 Z"/></g>
<g><path style="opacity:1" fill="#3f3f3f" d="M 82.5,291.5 C 83.9311,292.082 85.2644,292.915 86.5,294C 83.9299,296.615 83.9299,299.282 86.5,302C 85.2161,302.684 84.0495,302.517 83,301.5C 82.971,298.633 82.1376,296.133 80.5,294C 81.756,293.583 82.4226,292.75 82.5,291.5 Z"/></g>
<g><path style="opacity:1" fill="#393939" d="M 99.5,293.5 C 100.765,294.514 101.431,296.014 101.5,298C 101.167,299.5 100.833,301 100.5,302.5C 99.5159,299.572 99.1826,296.572 99.5,293.5 Z"/></g>
<g><path style="opacity:1" fill="#454545" d="M 135.5,293.5 C 137.39,294.18 139.39,294.347 141.5,294C 140.069,294.465 138.903,295.299 138,296.5C 137.808,298.577 137.308,300.577 136.5,302.5C 135.516,299.572 135.183,296.572 135.5,293.5 Z"/></g>
<g><path style="opacity:1" fill="#565656" d="M 198.5,292.5 C 202.167,292.833 204.167,294.833 204.5,298.5C 202.076,298.192 199.743,298.526 197.5,299.5C 199.084,302.127 200.751,302.127 202.5,299.5C 203.711,300.274 203.711,301.107 202.5,302C 196.324,303.188 194.158,300.688 196,294.5C 196.995,293.934 197.828,293.267 198.5,292.5 Z"/></g>
<g><path style="opacity:1" fill="#414141" d="M 90.5,292.5 C 92.7224,292.178 94.5557,292.845 96,294.5C 96.4974,297.146 96.6641,299.813 96.5,302.5C 94.1432,302.663 91.8098,302.497 89.5,302C 88.0705,300.12 88.4038,298.62 90.5,297.5C 90.9059,298.557 90.9059,299.891 90.5,301.5C 91.8221,301.67 92.9887,301.337 94,300.5C 94.4955,298.527 94.6621,296.527 94.5,294.5C 93.0695,294.421 91.7362,294.754 90.5,295.5C 89.4376,294.575 89.4376,293.575 90.5,292.5 Z"/></g>
<g><path style="opacity:1" fill="#4c4c4c" d="M 143.5,293.5 C 145.527,293.338 147.527,293.505 149.5,294C 150.38,295.356 150.714,296.856 150.5,298.5C 148.5,298.5 146.5,298.5 144.5,298.5C 144.5,299.5 144.5,300.5 144.5,301.5C 146.492,301.672 148.158,301.005 149.5,299.5C 150.711,300.274 150.711,301.107 149.5,302C 142.215,302.934 140.215,300.101 143.5,293.5 Z"/></g>
<g><path style="opacity:1" fill="#4e4e4e" d="M 177.5,292.5 C 180.278,292.022 182.278,293.022 183.5,295.5C 183.167,295.833 182.833,296.167 182.5,296.5C 181.158,294.995 179.492,294.328 177.5,294.5C 177.5,296.833 177.5,299.167 177.5,301.5C 179.484,301.617 181.15,300.95 182.5,299.5C 183.476,301.87 182.476,302.87 179.5,302.5C 175.011,302.167 173.511,299.833 175,295.5C 176.045,294.627 176.878,293.627 177.5,292.5 Z"/></g>
<g><path style="opacity:1" fill="#575757" d="M 212.5,288.5 C 213.5,288.5 214.5,288.5 215.5,288.5C 215.5,293.167 215.5,297.833 215.5,302.5C 212.813,302.664 210.146,302.497 207.5,302C 204.595,298.626 204.928,295.626 208.5,293C 209.784,292.316 210.951,292.483 212,293.5C 212.494,291.866 212.66,290.199 212.5,288.5 Z"/></g>
<g><path style="opacity:1" fill="#f3f3f3" d="M 208.5,294.5 C 209.833,294.5 211.167,294.5 212.5,294.5C 212.662,296.527 212.495,298.527 212,300.5C 211,301.833 210,301.833 209,300.5C 208.505,298.527 208.338,296.527 208.5,294.5 Z"/></g>
<g><path style="opacity:1" fill="#b6b6b6" d="M 145.5,294.5 C 146.5,294.5 147.5,294.5 148.5,294.5C 148.5,295.5 148.5,296.5 148.5,297.5C 145.433,297.879 144.433,296.879 145.5,294.5 Z"/></g>
<g><path style="opacity:1" fill="#414141" d="M 166.5,292.5 C 168.722,292.178 170.556,292.845 172,294.5C 173.741,302.531 171.074,304.531 164,300.5C 163.023,297.183 163.856,294.516 166.5,292.5 Z"/></g>
<g><path style="opacity:1" fill="#f2f2f2" d="M 166.5,294.5 C 170.473,295.075 171.473,297.242 169.5,301C 168.216,301.684 167.049,301.517 166,300.5C 165.322,298.402 165.489,296.402 166.5,294.5 Z"/></g>
<g><path style="opacity:1" fill="#575757" d="M 73.5,292.5 C 77.8333,292.167 79.8333,294.167 79.5,298.5C 77.5,298.5 75.5,298.5 73.5,298.5C 73.5,299.5 73.5,300.5 73.5,301.5C 75.4918,301.672 77.1585,301.005 78.5,299.5C 79.4761,301.87 78.4761,302.87 75.5,302.5C 71.0106,302.167 69.5106,299.833 71,295.5C 72.045,294.627 72.8783,293.627 73.5,292.5 Z"/></g>
<g><path style="opacity:1" fill="#eeeeee" d="M 73.5,294.5 C 74.9778,294.238 76.3112,294.571 77.5,295.5C 76.8333,295.833 76.1667,296.167 75.5,296.5C 74.2867,296.253 73.62,295.586 73.5,294.5 Z"/></g>
<g><path style="opacity:1" fill="#4f4f4f" d="M 111.5,292.5 C 113.484,292.383 115.15,293.05 116.5,294.5C 114.883,294.669 113.216,295.003 111.5,295.5C 113.766,296.716 115.766,298.216 117.5,300C 117.355,300.772 117.022,301.439 116.5,302C 114.19,302.497 111.857,302.663 109.5,302.5C 109.649,298.877 110.816,298.543 113,301.5C 113.5,301.167 114,300.833 114.5,300.5C 113.345,299.05 111.845,298.05 110,297.5C 109.387,295.505 109.887,293.838 111.5,292.5 Z"/></g>
<g><path style="opacity:1" fill="#4c4c4c" d="M 126.5,292.5 C 128.722,292.178 130.556,292.845 132,294.5C 132.497,297.146 132.664,299.813 132.5,302.5C 129.881,302.768 127.381,302.435 125,301.5C 124.785,297.872 126.619,295.872 130.5,295.5C 129.224,294.355 127.891,294.355 126.5,295.5C 125.438,294.575 125.438,293.575 126.5,292.5 Z"/></g>
<g><path style="opacity:1" fill="#424242" d="M 191.5,293.5 C 192.239,293.369 192.906,293.536 193.5,294C 190.099,296.705 190.433,299.372 194.5,302C 194,302.167 193.5,302.333 193,302.5C 188.081,300.054 187.581,297.054 191.5,293.5 Z"/></g>
<g><path style="opacity:1" fill="#e7e7e7" d="M 126.5,298.5 C 127.978,298.238 129.311,298.571 130.5,299.5C 129.68,301.111 128.346,301.778 126.5,301.5C 126.5,300.5 126.5,299.5 126.5,298.5 Z"/></g>
<g><path style="opacity:1" fill="#a6a6a6" d="M 54.5,322.5 C 55.7479,323.334 56.4146,324.667 56.5,326.5C 56.1667,327.833 55.8333,329.167 55.5,330.5C 54.52,327.914 54.1866,325.247 54.5,322.5 Z"/></g>
<g><path style="opacity:1" fill="#9c9c9c" d="M 155.5,322.5 C 156.748,323.334 157.415,324.667 157.5,326.5C 157.167,327.833 156.833,329.167 156.5,330.5C 155.52,327.914 155.187,325.247 155.5,322.5 Z"/></g>
<g><path style="opacity:1" fill="#8f8f8f" d="M 84.5,322.5 C 86.369,324.635 87.0356,327.302 86.5,330.5C 83.4334,330.984 81.4334,329.818 80.5,327C 81.8002,325.42 83.1336,323.92 84.5,322.5 Z"/></g>
<g><path style="opacity:1" fill="#7e7e7e" d="M 204.5,325.5 C 200.5,326.833 200.5,328.167 204.5,329.5C 202.316,330.983 200.983,330.316 200.5,327.5C 200.983,324.684 202.316,324.017 204.5,325.5 Z"/></g>
<g><path style="opacity:1" fill="#aaaaaa" d="M 58.5,324.5 C 62.35,324.701 63.35,326.534 61.5,330C 57.5369,330.118 56.5369,328.284 58.5,324.5 Z"/></g>
<g><path style="opacity:1" fill="#838383" d="M 64.5,324.5 C 68.2434,324.459 68.4101,325.126 65,326.5C 64.3333,327.167 64.3333,327.833 65,328.5C 66.3033,329.112 67.4699,329.446 68.5,329.5C 63.7329,330.899 62.3996,329.232 64.5,324.5 Z"/></g>
<g><path style="opacity:1" fill="#979797" d="M 69.5,322.5 C 70.9311,322.881 71.7645,323.881 72,325.5C 72.7175,324.549 73.5509,324.383 74.5,325C 73.2986,325.903 72.4652,327.069 72,328.5C 71.6667,328.167 71.3333,327.833 71,327.5C 70.6667,328.5 70.3333,329.5 70,330.5C 69.5026,327.854 69.3359,325.187 69.5,322.5 Z"/></g>
<g><path style="opacity:1" fill="#f8f8f8" d="M 82.5,325.5 C 83.5862,325.62 84.2528,326.287 84.5,327.5C 84.1667,328.167 83.8333,328.833 83.5,329.5C 82.5713,328.311 82.238,326.978 82.5,325.5 Z"/></g>
<g><path style="opacity:1" fill="#979797" d="M 108.5,324.5 C 109.552,324.351 110.552,324.517 111.5,325C 109.771,332.363 108.771,332.196 108.5,324.5 Z"/></g>
<g><path style="opacity:1" fill="#747474" d="M 143.5,324.5 C 147.554,324.21 148.054,324.877 145,326.5C 144.667,327.833 144.333,329.167 144,330.5C 143.505,328.527 143.338,326.527 143.5,324.5 Z"/></g>
<g><path style="opacity:1" fill="#5a5a5a" d="M 174.5,323.5 C 175.289,323.783 175.956,324.283 176.5,325C 175.721,326.994 175.387,328.828 175.5,330.5C 174.203,328.082 173.87,325.749 174.5,323.5 Z"/></g>
<g><path style="opacity:1" fill="#939393" d="M 197.5,322.5 C 198.552,322.351 199.552,322.517 200.5,323C 198.776,333.009 197.776,332.842 197.5,322.5 Z"/></g>
<g><path style="opacity:1" fill="#b7b7b7" d="M 204.5,329.5 C 200.5,328.167 200.5,326.833 204.5,325.5C 206.455,324.677 208.455,324.51 210.5,325C 209.134,326.6 208.134,328.433 207.5,330.5C 206.583,329.873 205.583,329.539 204.5,329.5 Z"/></g>
<g><path style="opacity:1" fill="#a1a1a1" d="M 214.5,324.5 C 216.39,324.297 217.89,324.963 219,326.5C 221,323.833 223,323.833 225,326.5C 225.333,326.167 225.667,325.833 226,325.5C 226.667,326.833 226.667,328.167 226,329.5C 223.333,330.833 220.667,330.833 218,329.5C 215.828,328.491 214.662,326.824 214.5,324.5 Z"/></g>
<g><path style="opacity:1" fill="#8f8f8f" d="M 231.5,324.5 C 232.163,326.042 232.83,327.709 233.5,329.5C 235.387,323.005 236.387,323.338 236.5,330.5C 234.833,330.5 233.167,330.5 231.5,330.5C 231.5,328.5 231.5,326.5 231.5,324.5 Z"/></g>
<g><path style="opacity:1" fill="#6f6f6f" d="M 237.5,324.5 C 238.552,324.351 239.552,324.517 240.5,325C 238.996,326.491 238.163,328.324 238,330.5C 237.505,328.527 237.338,326.527 237.5,324.5 Z"/></g>
<g><path style="opacity:1" fill="#666666" d="M 244.5,323.5 C 245.289,323.783 245.956,324.283 246.5,325C 245.721,326.994 245.387,328.828 245.5,330.5C 244.203,328.082 243.87,325.749 244.5,323.5 Z"/></g>
<g><path style="opacity:1" fill="#909090" d="M 96.5,324.5 C 101.159,324.015 102.492,325.848 100.5,330C 96.135,330.446 94.8016,328.613 96.5,324.5 Z"/></g>
<g><path style="opacity:1" fill="#fcfcfc" d="M 97.5,325.5 C 98.5862,325.62 99.2528,326.287 99.5,327.5C 99.1667,328.167 98.8333,328.833 98.5,329.5C 97.5713,328.311 97.238,326.978 97.5,325.5 Z"/></g>
<g><path style="opacity:1" fill="#a2a2a2" d="M 178.5,325.5 C 179.542,324.209 180.708,324.209 182,325.5C 182.494,327.134 182.66,328.801 182.5,330.5C 180.833,330.5 179.167,330.5 177.5,330.5C 177.137,328.089 178.137,326.589 180.5,326C 179.906,325.536 179.239,325.369 178.5,325.5 Z"/></g>
<g><path style="opacity:1" fill="#828282" d="M 19.5,322.5 C 20.9432,323.335 21.9432,324.668 22.5,326.5C 24.899,321.073 26.7324,321.406 28,327.5C 28.2163,325.616 28.883,323.949 30,322.5C 30.1699,324.845 29.8365,327.179 29,329.5C 28.3333,330.833 27.6667,330.833 27,329.5C 26.5291,327.754 25.8624,326.087 25,324.5C 24.4569,326.631 23.6236,328.631 22.5,330.5C 20.8933,328.083 19.8933,325.416 19.5,322.5 Z"/></g>
<g><path style="opacity:1" fill="#8c8c8c" d="M 43.5,324.5 C 45.3901,325.18 47.3901,325.347 49.5,325C 49.9574,325.414 50.2907,325.914 50.5,326.5C 45.9378,327.14 45.6045,328.306 49.5,330C 46.6168,330.795 45.1168,329.629 45,326.5C 42.5375,331.724 41.2042,331.391 41,325.5C 42.5158,328.051 43.3491,327.718 43.5,324.5 Z"/></g>
<g><path style="opacity:1" fill="#8c8c8c" d="M 75.5,324.5 C 76.8333,324.5 78.1667,324.5 79.5,324.5C 79.5,325.5 79.5,326.5 79.5,327.5C 78.325,327.281 77.325,327.614 76.5,328.5C 77.6034,328.998 78.6034,329.331 79.5,329.5C 75.1538,330.512 73.8205,328.846 75.5,324.5 Z"/></g>
<g><path style="opacity:1" fill="#8d8d8d" d="M 123.5,325.5 C 123.238,326.978 123.571,328.311 124.5,329.5C 125.429,328.45 126.095,328.45 126.5,329.5C 124.713,330.817 123.046,330.484 121.5,328.5C 116.386,333.974 114.386,332.64 115.5,324.5C 117.821,324.229 119.821,324.896 121.5,326.5C 122.183,326.137 122.85,325.804 123.5,325.5 Z"/></g>
<g><path style="opacity:1" fill="#fafafa" d="M 117.5,325.5 C 118.586,325.62 119.253,326.287 119.5,327.5C 119.167,328.167 118.833,328.833 118.5,329.5C 117.571,328.311 117.238,326.978 117.5,325.5 Z"/></g>
<g><path style="opacity:1" fill="#bababa" d="M 131.5,325.5 C 130.065,326.79 129.065,328.456 128.5,330.5C 127.817,330.137 127.15,329.804 126.5,329.5C 126.095,328.45 125.429,328.45 124.5,329.5C 123.571,328.311 123.238,326.978 123.5,325.5C 126.059,325.047 128.726,325.047 131.5,325.5 Z"/></g>
<g><path style="opacity:1" fill="#a1a1a1" d="M 131.5,325.5 C 132.265,325.077 133.098,324.743 134,324.5C 135.098,325.384 135.598,326.384 135.5,327.5C 136.646,326.855 137.646,326.022 138.5,325C 142.088,324.389 143.254,325.889 142,329.5C 140.062,330.86 138.396,330.527 137,328.5C 135.867,330.211 134.367,330.711 132.5,330C 133.167,329.667 133.833,329.333 134.5,329C 132.937,328.241 131.937,327.074 131.5,325.5 Z"/></g>
<g><path style="opacity:1" fill="#8e8e8e" d="M 168.5,324.5 C 173.103,325.018 173.437,326.351 169.5,328.5C 170.603,328.998 171.603,329.331 172.5,329.5C 167.724,330.931 166.391,329.264 168.5,324.5 Z"/></g>
<g><path style="opacity:1" fill="#8b8b8b" d="M 31.5,324.5 C 32.8333,324.5 34.1667,324.5 35.5,324.5C 35.6713,327.797 35.0046,328.131 33.5,325.5C 32.1667,326.833 32.1667,328.167 33.5,329.5C 34.3957,328.494 35.0623,328.494 35.5,329.5C 30.724,330.931 29.3907,329.264 31.5,324.5 Z"/></g>
<g><path style="opacity:1" fill="#818181" d="M 106.5,324.5 C 107.461,326.265 107.795,328.265 107.5,330.5C 103.446,330.79 102.946,330.123 106,328.5C 106.49,327.207 106.657,325.873 106.5,324.5 Z"/></g>
<g><path style="opacity:1" fill="#989898" d="M 150.5,324.5 C 154.068,324.759 155.401,326.759 154.5,330.5C 149.669,330.838 148.335,328.838 150.5,324.5 Z"/></g>
<g><path style="opacity:1" fill="#6f6f6f" d="M 165.5,322.5 C 166.473,324.948 166.806,327.615 166.5,330.5C 162.446,330.79 161.946,330.123 165,328.5C 165.495,326.527 165.662,324.527 165.5,322.5 Z"/></g>
<g><path style="opacity:1" fill="#919191" d="M 189.5,324.5 C 191.103,324.312 192.437,324.812 193.5,326C 193.384,327.268 193.051,328.602 192.5,330C 190.926,330.699 189.593,330.365 188.5,329C 192.376,329.349 192.376,328.516 188.5,326.5C 188.863,325.817 189.196,325.15 189.5,324.5 Z"/></g>
<g><path style="opacity:1" fill="#979797" d="M 247.5,324.5 C 248.966,325.347 249.8,326.68 250,328.5C 250.556,326.405 251.056,326.238 251.5,328C 251.122,329.635 250.456,331.135 249.5,332.5C 248.619,329.87 247.952,327.203 247.5,324.5 Z"/></g>
<g><path style="opacity:1" fill="#8c8c8c" d="M 90.5,325.5 C 93.4135,327.39 93.9135,329.723 92,332.5C 91.5604,330.134 91.0604,327.801 90.5,325.5 Z"/></g>
<g><path style="opacity:1" fill="#a3a3a3" d="M 76.5,338.5 C 77.7479,339.334 78.4146,340.667 78.5,342.5C 78.1667,343.833 77.8333,345.167 77.5,346.5C 76.52,343.914 76.1866,341.247 76.5,338.5 Z"/></g>
<g><path style="opacity:1" fill="#6d6d6d" d="M 223.5,338.5 C 224.749,339.778 226.249,340.778 228,341.5C 228.667,343.167 228.667,344.833 228,346.5C 226.667,339.833 225.333,339.833 224,346.5C 223.503,343.854 223.336,341.187 223.5,338.5 Z"/></g>
<g><path style="opacity:1" fill="#808080" d="M 106.5,340.5 C 108.103,340.312 109.437,340.812 110.5,342C 107.755,341.04 106.255,342.207 106,345.5C 105.36,343.735 105.527,342.068 106.5,340.5 Z"/></g>
<g><path style="opacity:1" fill="#767676" d="M 124.5,339.5 C 125.289,339.783 125.956,340.283 126.5,341C 125.721,342.994 125.387,344.828 125.5,346.5C 124.203,344.082 123.87,341.749 124.5,339.5 Z"/></g>
<g><path style="opacity:1" fill="#9e9e9e" d="M 28.5,341.5 C 27.0652,342.79 26.0652,344.456 25.5,346.5C 24.5344,344.604 24.2011,342.604 24.5,340.5C 26.099,340.232 27.4324,340.566 28.5,341.5 Z"/></g>
<g><path style="opacity:1" fill="#838383" d="M 49.5,341.5 C 51.5988,342.37 51.9321,343.703 50.5,345.5C 46.3938,347.23 44.8938,345.897 46,341.5C 47.2917,340.209 48.4583,340.209 49.5,341.5 Z"/></g>
<g><path style="opacity:1" fill="#4c4c4c" d="M 70.5,338.5 C 72.1667,338.5 73.8333,338.5 75.5,338.5C 75.3781,342.838 75.0447,343.172 74.5,339.5C 73.5,339.5 72.5,339.5 71.5,339.5C 71.6633,341.857 71.4966,344.19 71,346.5C 70.5026,343.854 70.3359,341.187 70.5,338.5 Z"/></g>
<g><path style="opacity:1" fill="#8f8f8f" d="M 189.5,340.5 C 191.167,340.5 192.833,340.5 194.5,340.5C 194.637,347.626 193.97,347.959 192.5,341.5C 190.613,347.995 189.613,347.662 189.5,340.5 Z"/></g>
<g><path style="opacity:1" fill="#5c5c5c" d="M 220.5,339.5 C 221.289,339.783 221.956,340.283 222.5,341C 221.721,342.994 221.387,344.828 221.5,346.5C 220.203,344.082 219.87,341.749 220.5,339.5 Z"/></g>
<g><path style="opacity:1" fill="#8f8f8f" d="M 235.5,340.5 C 238.187,340.336 240.854,340.503 243.5,341C 244.576,342.726 244.743,344.559 244,346.5C 242.667,339.833 241.333,339.833 240,346.5C 239.115,339.922 237.948,339.922 236.5,346.5C 235.534,344.604 235.201,342.604 235.5,340.5 Z"/></g>
<g><path style="opacity:1" fill="#878787" d="M 35.5,341.5 C 36.5417,340.209 37.7083,340.209 39,341.5C 39.4935,343.134 39.6602,344.801 39.5,346.5C 37.8333,346.5 36.1667,346.5 34.5,346.5C 34.3287,343.203 34.9954,342.869 36.5,345.5C 36.8333,344.833 37.1667,344.167 37.5,343.5C 37.2528,342.287 36.5862,341.62 35.5,341.5 Z"/></g>
<g><path style="opacity:1" fill="#f2f2f2" d="M 49.5,341.5 C 49.762,342.978 49.4287,344.311 48.5,345.5C 45.8061,343.537 46.1394,342.203 49.5,341.5 Z"/></g>
<g><path style="opacity:1" fill="#919191" d="M 52.5,340.5 C 57.2411,340.161 58.5744,342.161 56.5,346.5C 55.5165,339.972 54.3498,339.972 53,346.5C 52.5045,344.527 52.3379,342.527 52.5,340.5 Z"/></g>
<g><path style="opacity:1" fill="#989898" d="M 80.5,340.5 C 81.552,340.351 82.552,340.517 83.5,341C 84.6477,342.649 85.981,344.149 87.5,345.5C 88.9867,340.343 89.6534,340.676 89.5,346.5C 86.4536,345.606 83.4536,345.439 80.5,346C 79.2475,344.172 79.2475,342.339 80.5,340.5 Z"/></g>
<g><path style="opacity:1" fill="#737373" d="M 111.5,338.5 C 112.749,339.778 114.249,340.778 116,341.5C 116.667,343.167 116.667,344.833 116,346.5C 114.667,339.833 113.333,339.833 112,346.5C 111.503,343.854 111.336,341.187 111.5,338.5 Z"/></g>
<g><path style="opacity:1" fill="#999999" d="M 118.5,340.5 C 122.068,340.759 123.401,342.759 122.5,346.5C 120.833,346.5 119.167,346.5 117.5,346.5C 118.243,344.304 118.576,342.304 118.5,340.5 Z"/></g>
<g><path style="opacity:1" fill="#c3c3c3" d="M 209.5,345.5 C 209.095,344.45 208.429,344.45 207.5,345.5C 206.571,344.311 206.238,342.978 206.5,341.5C 207.542,340.209 208.708,340.209 210,341.5C 210.249,340.376 210.749,339.376 211.5,338.5C 213.641,341.327 213.641,343.993 211.5,346.5C 210.817,346.137 210.15,345.804 209.5,345.5 Z"/></g>
<g><path style="opacity:1" fill="#a1a1a1" d="M 230.5,340.5 C 234.068,340.759 235.401,342.759 234.5,346.5C 229.74,346.799 228.406,344.799 230.5,340.5 Z"/></g>
<g><path style="opacity:1" fill="#a0a0a0" d="M 28.5,341.5 C 32.5814,339.744 34.0814,341.077 33,345.5C 29.3307,347.009 27.8307,345.676 28.5,341.5 Z"/></g>
<g><path style="opacity:1" fill="#999999" d="M 91.5,340.5 C 93.1033,340.312 94.4366,340.812 95.5,342C 95.3842,343.268 95.0509,344.602 94.5,346C 93.365,346.749 92.365,346.583 91.5,345.5C 92.0522,343.997 92.0522,342.331 91.5,340.5 Z"/></g>
<g><path style="opacity:1" fill="#9f9f9f" d="M 97.5,340.5 C 101.35,340.701 102.35,342.534 100.5,346C 96.5369,346.118 95.5369,344.284 97.5,340.5 Z"/></g>
<g><path style="opacity:1" fill="#909090" d="M 139.5,338.5 C 141.084,339.382 142.751,340.215 144.5,341C 143.167,342.667 143.167,344.333 144.5,346C 144.167,346.167 143.833,346.333 143.5,346.5C 142.702,344.922 142.202,343.256 142,341.5C 141,348.167 140,348.167 139,341.5C 138.261,343.221 137.427,344.887 136.5,346.5C 135.667,345.5 134.833,344.5 134,343.5C 133.751,344.624 133.251,345.624 132.5,346.5C 130.876,345.131 130.376,343.464 131,341.5C 131.333,342.167 131.667,342.833 132,343.5C 133.512,341.043 134.846,341.043 136,343.5C 137.412,341.935 138.579,340.269 139.5,338.5 Z"/></g>
<g><path style="opacity:1" fill="#909090" d="M 146.5,338.5 C 147.749,339.778 149.249,340.778 151,341.5C 150.987,348.167 150.321,348.167 149,341.5C 147.883,342.949 147.216,344.616 147,346.5C 146.503,343.854 146.336,341.187 146.5,338.5 Z"/></g>
<g><path style="opacity:1" fill="#999999" d="M 170.5,340.5 C 173.114,340.932 175.78,341.265 178.5,341.5C 179.428,342.768 179.595,344.101 179,345.5C 176.397,346.182 173.897,346.349 171.5,346C 170.594,344.301 170.261,342.467 170.5,340.5 Z"/></g>
<g><path style="opacity:1" fill="#f9f9f9" d="M 175.5,341.5 C 176.586,341.62 177.253,342.287 177.5,343.5C 177.167,344.167 176.833,344.833 176.5,345.5C 175.571,344.311 175.238,342.978 175.5,341.5 Z"/></g>
<g><path style="opacity:1" fill="#878787" d="M 202.5,341.5 C 203.833,342.833 205.167,342.833 206.5,341.5C 206.238,342.978 206.571,344.311 207.5,345.5C 208.429,344.45 209.095,344.45 209.5,345.5C 207.713,346.817 206.046,346.484 204.5,344.5C 200.265,347.658 198.432,346.658 199,341.5C 200.292,340.209 201.458,340.209 202.5,341.5 Z"/></g>
<g><path style="opacity:1" fill="#f0f0f0" d="M 202.5,341.5 C 202.762,342.978 202.429,344.311 201.5,345.5C 198.806,343.537 199.139,342.203 202.5,341.5 Z"/></g>
<g><path style="opacity:1" fill="#ababab" d="M 162.5,340.5 C 163.675,340.281 164.675,340.614 165.5,341.5C 165.64,342.903 165.64,344.403 165.5,346C 164.056,346.781 162.723,346.614 161.5,345.5C 161.579,343.872 161.912,342.205 162.5,340.5 Z"/></g>
<g><path style="opacity:1" fill="#868686" d="M 40.5,340.5 C 42.1033,340.312 43.4366,340.812 44.5,342C 44.0338,343.299 44.0338,344.799 44.5,346.5C 43.0222,346.762 41.6888,346.429 40.5,345.5C 41.2624,345.089 42.2624,344.923 43.5,345C 41.5614,344.092 40.5614,342.592 40.5,340.5 Z"/></g>
<g><path style="opacity:1" fill="#848484" d="M 59.5,340.5 C 60.7562,340.461 61.7562,340.961 62.5,342C 62.0338,343.299 62.0338,344.799 62.5,346.5C 61.0222,346.762 59.6888,346.429 58.5,345.5C 59.2624,345.089 60.2624,344.923 61.5,345C 58.9849,344.061 58.3183,342.561 59.5,340.5 Z"/></g>
<g><path style="opacity:1" fill="#8d8d8d" d="M 155.5,340.5 C 157.117,341.589 157.95,343.256 158,345.5C 159.117,344.051 159.784,342.384 160,340.5C 160.495,342.473 160.662,344.473 160.5,346.5C 156.092,346.938 154.425,344.938 155.5,340.5 Z"/></g>
<g><path style="opacity:1" fill="#818181" d="M 187.5,340.5 C 188.461,342.265 188.795,344.265 188.5,346.5C 184.446,346.79 183.946,346.123 187,344.5C 187.49,343.207 187.657,341.873 187.5,340.5 Z"/></g>
<g><path style="opacity:1" fill="#959595" d="M 250.5,513.5 C 250.5,514.167 250.167,514.5 249.5,514.5C 170.167,514.5 90.8333,514.5 11.5,514.5C 11.5,523.833 11.5,533.167 11.5,542.5C 90.8333,542.5 170.167,542.5 249.5,542.5C 250.167,542.5 250.5,542.833 250.5,543.5C 170.499,543.667 90.4993,543.5 10.5,543C 9.51438,533.25 9.18105,523.416 9.5,513.5C 89.8333,513.5 170.167,513.5 250.5,513.5 Z"/></g>
<g><path style="opacity:1" fill="#fefefe" d="M 249.5,514.5 C 249.5,523.833 249.5,533.167 249.5,542.5C 170.167,542.5 90.8333,542.5 11.5,542.5C 11.5,533.167 11.5,523.833 11.5,514.5C 90.8333,514.5 170.167,514.5 249.5,514.5 Z"/></g>
<g><path style="opacity:1" fill="#c4c4c4" d="M 250.5,513.5 C 251.833,523.5 251.833,533.5 250.5,543.5C 250.5,542.833 250.167,542.5 249.5,542.5C 249.5,533.167 249.5,523.833 249.5,514.5C 250.167,514.5 250.5,514.167 250.5,513.5 Z"/></g>
<g><path style="opacity:1" fill="#3f3f3f" d="M 138.5,526.5 C 139.289,526.783 139.956,527.283 140.5,528C 139.773,529.399 139.273,530.899 139,532.5C 138.091,530.342 137.925,528.342 138.5,526.5 Z"/></g>
<g><path style="opacity:1" fill="#707070" d="M 118.5,526.5 C 119.756,526.461 120.756,526.961 121.5,528C 120.721,529.994 120.387,531.828 120.5,533.5C 119.914,533.291 119.414,532.957 119,532.5C 118.505,530.527 118.338,528.527 118.5,526.5 Z"/></g>
<g><path style="opacity:1" fill="#8a8a8a" d="M 105.5,525.5 C 108.174,526.549 110.341,528.216 112,530.5C 112.483,529.552 112.649,528.552 112.5,527.5C 116.908,527.062 118.575,529.062 117.5,533.5C 114.989,533.162 112.655,533.162 110.5,533.5C 109.167,526.833 107.833,526.833 106.5,533.5C 105.52,530.914 105.187,528.247 105.5,525.5 Z"/></g>
<g><path style="opacity:1" fill="#747474" d="M 142.5,525.5 C 143.749,526.778 145.249,527.778 147,528.5C 147.103,535.08 146.27,535.08 144.5,528.5C 143.719,529.729 143.219,531.062 143,532.5C 142.503,530.19 142.337,527.857 142.5,525.5 Z"/></g>
<g><path style="opacity:1" fill="#727272" d="M 125.5,527.5 C 126.79,528.058 127.623,529.058 128,530.5C 129.114,526.701 130.447,526.701 132,530.5C 132.333,529.833 132.667,529.167 133,528.5C 133.774,530.403 133.44,532.07 132,533.5C 131.085,532.672 130.419,531.672 130,530.5C 126.72,534.143 125.22,533.143 125.5,527.5 Z"/></g>
<g><path style="opacity:1" fill="#828282" d="M 151.5,527.5 C 152.943,528.335 153.943,529.668 154.5,531.5C 155.281,530.271 155.781,528.938 156,527.5C 156.495,529.473 156.662,531.473 156.5,533.5C 152.092,533.938 150.425,531.938 151.5,527.5 Z"/></g>
<g><path style="opacity:1" fill="#707070" d="M 99.5,525.5 C 101.429,525.231 103.095,525.731 104.5,527C 100.619,525.705 98.9522,527.205 99.5,531.5C 101.446,531.193 103.113,531.193 104.5,531.5C 103.034,533.657 101.2,533.99 99,532.5C 98.2967,530.071 98.4634,527.738 99.5,525.5 Z"/></g>
<g><path style="opacity:1" fill="#797979" d="M 158.5,527.5 C 159.978,527.238 161.311,527.571 162.5,528.5C 161.948,530.003 161.948,531.669 162.5,533.5C 161.022,533.762 159.689,533.429 158.5,532.5C 159.262,532.089 160.262,531.923 161.5,532C 159.561,531.092 158.561,529.592 158.5,527.5 Z"/></g>
<g><path style="opacity:1" fill="#020202" d="M 85.5,557.5 C 115.5,557.5 145.5,557.5 175.5,557.5C 175.5,558.5 175.5,559.5 175.5,560.5C 145.5,560.5 115.5,560.5 85.5,560.5C 85.5,559.5 85.5,558.5 85.5,557.5 Z"/></g>
</svg>
