<?xml version="1.0" encoding="UTF-8"?>
<!DOCTYPE svg PUBLIC "-//W3C//DTD SVG 1.1//EN" "http://www.w3.org/Graphics/SVG/1.1/DTD/svg11.dtd">
<svg xmlns="http://www.w3.org/2000/svg" version="1.1" width="38px" height="38px" style="shape-rendering:geometricPrecision; text-rendering:geometricPrecision; image-rendering:optimizeQuality; fill-rule:evenodd; clip-rule:evenodd" xmlns:xlink="http://www.w3.org/1999/xlink">
<g><path style="opacity:1" fill="#050608" d="M 12.5,0.5 C 17.9911,0.14969 23.3245,0.816357 28.5,2.5C 30.1667,4.83333 32.1667,6.83333 34.5,8.5C 34.6596,10.153 35.3263,11.4863 36.5,12.5C 36.8503,17.9911 36.1836,23.3245 34.5,28.5C 32.1667,30.1667 30.1667,32.1667 28.5,34.5C 18.331,38.6253 9.66433,36.6253 2.5,28.5C -1.637,18.3164 0.362996,9.64972 8.5,2.5C 10.153,2.3404 11.4863,1.67373 12.5,0.5 Z"/></g>
<g><path style="opacity:0.043" fill="#1c69a7" d="M 12.5,0.5 C 12.5,0.166667 12.5,-0.166667 12.5,-0.5C 16.5,-0.5 20.5,-0.5 24.5,-0.5C 26.0764,0.142944 27.4097,1.14294 28.5,2.5C 23.3245,0.816357 17.9911,0.14969 12.5,0.5 Z"/></g>
<g><path style="opacity:0.937" fill="#1d6caa" d="M 12.5,0.5 C 11.4863,1.67373 10.153,2.3404 8.5,2.5C 9.28696,0.895779 10.6203,0.229113 12.5,0.5 Z"/></g>
<g><path style="opacity:0.125" fill="#1e69a7" d="M 28.5,2.5 C 31.5,3.5 33.5,5.5 34.5,8.5C 32.1667,6.83333 30.1667,4.83333 28.5,2.5 Z"/></g>
<g><path style="opacity:1" fill="#ededed" d="M 5.5,10.5 C 10.544,10.1725 15.544,10.5059 20.5,11.5C 23.9567,16.2463 27.2901,21.0797 30.5,26C 28.7412,26.7975 27.0745,26.6309 25.5,25.5C 24.5,24.1667 23.5,22.8333 22.5,21.5C 21.3067,23.5267 19.64,25.0267 17.5,26C 13.5138,26.4988 9.51383,26.6655 5.5,26.5C 5.5,21.1667 5.5,15.8333 5.5,10.5 Z"/></g>
<g><path style="opacity:1" fill="#1e6dad" d="M 25.5,11.5 C 26.9464,10.3871 28.6131,10.2204 30.5,11C 29.1781,14.0201 27.5114,14.1868 25.5,11.5 Z"/></g>
<g><path style="opacity:0.439" fill="#1f6eae" d="M 34.5,8.5 C 36.1042,9.28696 36.7709,10.6203 36.5,12.5C 35.3263,11.4863 34.6596,10.153 34.5,8.5 Z"/></g>
<g><path style="opacity:1" fill="#060606" d="M 10.5,14.5 C 17.1584,13.3445 19.1584,15.8445 16.5,22C 14.5273,22.4955 12.5273,22.6621 10.5,22.5C 10.5,19.8333 10.5,17.1667 10.5,14.5 Z"/></g>
<g><path style="opacity:0.976" fill="#1c649d" d="M 8.5,2.5 C 0.362996,9.64972 -1.637,18.3164 2.5,28.5C 1.14294,27.4097 0.142944,26.0764 -0.5,24.5C -0.5,20.5 -0.5,16.5 -0.5,12.5C 1.07171,7.92599 4.07171,4.59265 8.5,2.5 Z"/></g>
<g><path style="opacity:0.043" fill="#1c6baa" d="M 36.5,12.5 C 36.8333,12.5 37.1667,12.5 37.5,12.5C 37.5,16.5 37.5,20.5 37.5,24.5C 36.8571,26.0764 35.8571,27.4097 34.5,28.5C 36.1836,23.3245 36.8503,17.9911 36.5,12.5 Z"/></g>
<g><path style="opacity:0.314" fill="#1d6ba8" d="M 34.5,28.5 C 33.5,31.5 31.5,33.5 28.5,34.5C 30.1667,32.1667 32.1667,30.1667 34.5,28.5 Z"/></g>
<g><path style="opacity:0.224" fill="#1d69a8" d="M 2.5,28.5 C 9.66433,36.6253 18.331,38.6253 28.5,34.5C 27.4097,35.8571 26.0764,36.8571 24.5,37.5C 20.5,37.5 16.5,37.5 12.5,37.5C 7.92599,35.9283 4.59265,32.9283 2.5,28.5 Z"/></g>
</svg>
