<?xml version="1.0" encoding="UTF-8"?>
<!DOCTYPE svg PUBLIC "-//W3C//DTD SVG 1.1//EN" "http://www.w3.org/Graphics/SVG/1.1/DTD/svg11.dtd">
<svg xmlns="http://www.w3.org/2000/svg" version="1.1" width="1736px" height="1736px" style="shape-rendering:geometricPrecision; text-rendering:geometricPrecision; image-rendering:optimizeQuality; fill-rule:evenodd; clip-rule:evenodd" xmlns:xlink="http://www.w3.org/1999/xlink">
<g><path style="opacity:0.918" fill="#18a6b5" d="M 826.5,-0.5 C 853.833,-0.5 881.167,-0.5 908.5,-0.5C 1125.11,12.8161 1312.11,93.3161 1469.5,241C 1632.42,401.727 1721.09,596.894 1735.5,826.5C 1735.5,853.833 1735.5,881.167 1735.5,908.5C 1722.18,1125.11 1641.68,1312.11 1494,1469.5C 1333.27,1632.42 1138.11,1721.09 908.5,1735.5C 881.167,1735.5 853.833,1735.5 826.5,1735.5C 609.893,1722.18 422.893,1641.68 265.5,1494C 102.578,1333.27 13.911,1138.11 -0.5,908.5C -0.5,881.167 -0.5,853.833 -0.5,826.5C 12.8161,609.893 93.3161,422.893 241,265.5C 401.727,102.578 596.894,13.911 826.5,-0.5 Z"/></g>
<g><path style="opacity:0.6" fill="#9df1f9" d="M 832.5,3.5 C 1073.11,-1.7164 1281.78,76.1169 1458.5,237C 1626.98,399.185 1717.82,597.685 1731,832.5C 1736.7,1066.89 1662.7,1271.55 1509,1446.5C 1348,1620.57 1148.5,1715.07 910.5,1730C 673.013,1738.87 465.679,1665.2 288.5,1509C 114.434,1348 19.9339,1148.5 5,910.5C -3.86587,673.006 69.8008,465.673 226,288.5C 389.509,112.65 591.676,17.6502 832.5,3.5 Z"/></g>
<g><path style="opacity:1" fill="#4fe7f7" d="M 867.5,156.5 C 881.647,155.453 886.48,161.453 882,174.5C 879.926,176.452 877.759,178.285 875.5,180C 878.06,182.971 880.727,185.804 883.5,188.5C 884.635,186.293 885.301,183.96 885.5,181.5C 887.833,181.5 890.167,181.5 892.5,181.5C 892.839,186.297 891.839,190.797 889.5,195C 890.716,198.221 892.716,200.888 895.5,203C 890.967,204.128 886.967,203.295 883.5,200.5C 875.893,205.515 868.226,205.682 860.5,201C 854.172,192.105 855.505,184.605 864.5,178.5C 858.283,169.938 859.283,162.604 867.5,156.5 Z"/></g>
<g><path style="opacity:1" fill="#50e7f7" d="M 913.5,156.5 C 924.345,154.182 932.845,157.515 939,166.5C 939.813,168.436 940.313,170.436 940.5,172.5C 937.428,172.817 934.428,172.484 931.5,171.5C 928.123,164.899 922.789,162.732 915.5,165C 912.527,166.765 910.36,169.265 909,172.5C 908.149,178.253 908.483,183.92 910,189.5C 916.284,197.891 923.284,198.558 931,191.5C 931.346,189.782 931.846,188.115 932.5,186.5C 928.893,185.511 925.226,185.177 921.5,185.5C 921.5,183.167 921.5,180.833 921.5,178.5C 927.833,178.5 934.167,178.5 940.5,178.5C 942.911,194.399 936.245,203.066 920.5,204.5C 909.593,203.761 902.76,198.094 900,187.5C 896.955,173.611 901.455,163.278 913.5,156.5 Z"/></g>
<g><path style="opacity:1" fill="#52e7f7" d="M 799.5,156.5 C 803.226,156.177 806.893,156.511 810.5,157.5C 814.975,168.259 819.641,178.926 824.5,189.5C 829.271,178.957 833.771,168.291 838,157.5C 841.73,156.54 845.563,156.207 849.5,156.5C 849.5,172.167 849.5,187.833 849.5,203.5C 846.5,203.5 843.5,203.5 840.5,203.5C 840.666,193.494 840.5,183.494 840,173.5C 835.742,183.022 831.742,192.689 828,202.5C 825.667,203.833 823.333,203.833 821,202.5C 817.195,192.752 813.195,183.086 809,173.5C 808.5,183.494 808.334,193.494 808.5,203.5C 805.5,203.5 802.5,203.5 799.5,203.5C 799.5,187.833 799.5,172.167 799.5,156.5 Z"/></g>
<g><path style="opacity:0.6" fill="#9bf1f9" d="M 869.5,163.5 C 875.674,162.173 877.841,164.506 876,170.5C 871.608,176.175 868.775,175.342 867.5,168C 868.044,166.415 868.711,164.915 869.5,163.5 Z"/></g>
<g><path style="opacity:0.6" fill="#9bf1f9" d="M 868.5,184.5 C 871.724,187.218 874.891,190.218 878,193.5C 878.617,194.449 878.451,195.282 877.5,196C 872.644,198.496 868.478,197.662 865,193.5C 864.333,191.833 864.333,190.167 865,188.5C 866.376,187.295 867.542,185.962 868.5,184.5 Z"/></g>
<g><path style="opacity:1" fill="#37c5d3" d="M 1093.5,407.5 C 1165.95,404.136 1221.45,432.803 1260,493.5C 1289.87,549.16 1291.2,605.493 1264,662.5C 1233.49,716.368 1187.32,747.201 1125.5,755C 1053.04,758.856 997.538,730.356 959,669.5C 934.211,625.064 928.877,578.398 943,529.5C 962.474,472.693 1000.64,434.526 1057.5,415C 1069.46,411.642 1081.46,409.142 1093.5,407.5 Z"/></g>
<g><path style="opacity:1" fill="#108d9a" d="M 1093.5,411.5 C 1165.61,408.629 1220.44,437.629 1258,498.5C 1286.62,553.802 1286.62,609.136 1258,664.5C 1220.22,725.814 1165.05,754.647 1092.5,751C 1023.97,741.118 976.467,704.285 950,640.5C 927.174,568.593 942.674,506.427 996.5,454C 1024.54,429.979 1056.87,415.812 1093.5,411.5 Z"/></g>
<g><path style="opacity:1" fill="#37c5d3" d="M 461.5,519.5 C 533.948,516.136 589.448,544.803 628,605.5C 657.866,661.16 659.2,717.493 632,774.5C 601.486,828.368 555.319,859.201 493.5,867C 421.038,870.856 365.538,842.356 327,781.5C 302.211,737.064 296.877,690.398 311,641.5C 330.474,584.693 368.641,546.526 425.5,527C 437.463,523.642 449.463,521.142 461.5,519.5 Z"/></g>
<g><path style="opacity:1" fill="#108d9a" d="M 461.5,523.5 C 533.608,520.629 588.441,549.629 626,610.5C 654.624,665.802 654.624,721.136 626,776.5C 588.219,837.814 533.052,866.647 460.5,863C 391.967,853.118 344.467,816.285 318,752.5C 295.174,680.593 310.674,618.427 364.5,566C 392.54,541.979 424.874,527.812 461.5,523.5 Z"/></g>
<g><path style="opacity:1" fill="#071314" d="M 1057.5,560.5 C 1066.5,560.5 1075.5,560.5 1084.5,560.5C 1084.5,561.833 1084.5,563.167 1084.5,564.5C 1080.83,564.5 1077.17,564.5 1073.5,564.5C 1073.5,574.833 1073.5,585.167 1073.5,595.5C 1071.83,595.5 1070.17,595.5 1068.5,595.5C 1068.5,585.167 1068.5,574.833 1068.5,564.5C 1064.83,564.5 1061.17,564.5 1057.5,564.5C 1057.5,563.167 1057.5,561.833 1057.5,560.5 Z"/></g>
<g><path style="opacity:1" fill="#08474d" d="M 1144.5,560.5 C 1145.17,564.167 1145.83,567.833 1146.5,571.5C 1146.22,572.289 1145.72,572.956 1145,573.5C 1144.5,569.179 1144.33,564.846 1144.5,560.5 Z"/></g>
<g><path style="opacity:1" fill="#020708" d="M 1092.5,569.5 C 1103.34,568.006 1108.34,572.672 1107.5,583.5C 1101.5,583.5 1095.5,583.5 1089.5,583.5C 1089.8,590.632 1093.47,593.465 1100.5,592C 1102.22,588.622 1104.55,587.956 1107.5,590C 1106.5,592.333 1104.83,594 1102.5,595C 1088.24,597.06 1082.74,590.894 1086,576.5C 1087.69,573.642 1089.86,571.309 1092.5,569.5 Z"/></g>
<g><path style="opacity:1" fill="#050f10" d="M 1119.5,569.5 C 1126.8,567.726 1132.13,570.06 1135.5,576.5C 1134.67,576.833 1133.83,577.167 1133,577.5C 1130.86,576.413 1129.03,574.913 1127.5,573C 1122.44,571.709 1118.94,573.542 1117,578.5C 1115.22,585.874 1117.88,590.54 1125,592.5C 1128.52,592.516 1130.35,590.85 1130.5,587.5C 1132.29,587.215 1133.95,587.548 1135.5,588.5C 1132.12,595.101 1126.79,597.268 1119.5,595C 1110.2,586.548 1110.2,578.048 1119.5,569.5 Z"/></g>
<g><path style="opacity:1" fill="#071314" d="M 1144.5,560.5 C 1144.33,564.846 1144.5,569.179 1145,573.5C 1145.72,572.956 1146.22,572.289 1146.5,571.5C 1151.87,568.337 1156.7,569.004 1161,573.5C 1161.5,580.826 1161.67,588.159 1161.5,595.5C 1160.17,595.5 1158.83,595.5 1157.5,595.5C 1157.67,588.825 1157.5,582.158 1157,575.5C 1153.38,571.513 1149.71,571.513 1146,575.5C 1145.5,582.158 1145.33,588.825 1145.5,595.5C 1143.83,595.5 1142.17,595.5 1140.5,595.5C 1140.5,583.833 1140.5,572.167 1140.5,560.5C 1141.83,560.5 1143.17,560.5 1144.5,560.5 Z"/></g>
<g><path style="opacity:1" fill="#0f8490" d="M 1093.5,572.5 C 1100.01,571.404 1103.35,574.071 1103.5,580.5C 1098.83,580.5 1094.17,580.5 1089.5,580.5C 1089.34,579.127 1089.51,577.793 1090,576.5C 1091.38,575.295 1092.54,573.962 1093.5,572.5 Z"/></g>
<g><path style="opacity:1" fill="#030c0d" d="M 566.5,671.5 C 569.524,671.364 571.024,672.698 571,675.5C 566.415,677.413 564.915,676.079 566.5,671.5 Z"/></g>
<g><path style="opacity:1" fill="#010809" d="M 360.5,703.5 C 365.305,704.487 370.305,704.821 375.5,704.5C 375.5,705.5 375.5,706.5 375.5,707.5C 368.833,707.5 362.167,707.5 355.5,707.5C 355.5,695.833 355.5,684.167 355.5,672.5C 356.833,672.5 358.167,672.5 359.5,672.5C 359.172,683.014 359.506,693.347 360.5,703.5 Z"/></g>
<g><path style="opacity:1" fill="#020707" d="M 455.5,672.5 C 456.5,672.5 457.5,672.5 458.5,672.5C 458.5,684.167 458.5,695.833 458.5,707.5C 457.5,707.5 456.5,707.5 455.5,707.5C 455.633,702.728 454.3,702.562 451.5,707C 441.205,709.206 436.205,705.039 436.5,694.5C 436.205,683.961 441.205,679.794 451.5,682C 452.667,683.167 453.833,684.333 455,685.5C 455.499,681.179 455.666,676.846 455.5,672.5 Z"/></g>
<g><path style="opacity:1" fill="#050e0f" d="M 541.5,672.5 C 541.334,676.846 541.501,681.179 542,685.5C 542.717,684.956 543.217,684.289 543.5,683.5C 548.87,680.337 553.703,681.004 558,685.5C 558.5,692.826 558.666,700.159 558.5,707.5C 557.167,707.5 555.833,707.5 554.5,707.5C 554.666,700.825 554.5,694.158 554,687.5C 549.229,683.073 545.229,683.739 542,689.5C 541.501,695.491 541.334,701.491 541.5,707.5C 540.167,707.5 538.833,707.5 537.5,707.5C 537.5,695.833 537.5,684.167 537.5,672.5C 538.833,672.5 540.167,672.5 541.5,672.5 Z"/></g>
<g><path style="opacity:1" fill="#09575e" d="M 541.5,672.5 C 542.167,676.167 542.833,679.833 543.5,683.5C 543.217,684.289 542.717,684.956 542,685.5C 541.501,681.179 541.334,676.846 541.5,672.5 Z"/></g>
<g><path style="opacity:1" fill="#020708" d="M 388.5,681.5 C 399.337,680.006 404.337,684.672 403.5,695.5C 397.5,695.5 391.5,695.5 385.5,695.5C 385.802,702.632 389.469,705.465 396.5,704C 398.216,700.622 400.549,699.956 403.5,702C 402.5,704.333 400.833,706 398.5,707C 384.236,709.06 378.736,702.894 382,688.5C 383.694,685.642 385.861,683.309 388.5,681.5 Z"/></g>
<g><path style="opacity:1" fill="#040c0d" d="M 414.5,681.5 C 418.182,681.335 421.848,681.501 425.5,682C 426.667,683.167 427.833,684.333 429,685.5C 429.5,692.826 429.666,700.159 429.5,707.5C 427.508,707.672 425.842,707.005 424.5,705.5C 418.277,709.955 413.11,708.955 409,702.5C 407.824,698.74 408.99,695.907 412.5,694C 416.663,692.334 420.997,691.501 425.5,691.5C 425.543,685.499 422.543,683.332 416.5,685C 415.333,686.167 414.167,687.333 413,688.5C 411.795,687.929 410.628,687.262 409.5,686.5C 410.882,684.451 412.548,682.785 414.5,681.5 Z"/></g>
<g><path style="opacity:1" fill="#02090a" d="M 488.5,695.5 C 482.167,695.5 475.833,695.5 469.5,695.5C 469.263,696.791 469.596,697.791 470.5,698.5C 472.443,703.472 476.11,705.306 481.5,704C 483.216,700.622 485.549,699.956 488.5,702C 487.403,704.765 485.403,706.431 482.5,707C 469.841,708.92 464.341,703.42 466,690.5C 469.396,681.55 475.562,679.05 484.5,683C 488.039,686.387 489.372,690.553 488.5,695.5 Z"/></g>
<g><path style="opacity:1" fill="#0a1617" d="M 507.5,681.5 C 507.5,682.5 507.5,683.5 507.5,684.5C 505.901,684.232 504.568,684.566 503.5,685.5C 501.983,685.511 500.816,686.177 500,687.5C 499.5,694.158 499.334,700.825 499.5,707.5C 497.833,707.5 496.167,707.5 494.5,707.5C 494.5,698.833 494.5,690.167 494.5,681.5C 495.833,681.5 497.167,681.5 498.5,681.5C 498.351,682.552 498.517,683.552 499,684.5C 501.3,681.238 504.133,680.238 507.5,681.5 Z"/></g>
<g><path style="opacity:1" fill="#010606" d="M 517.5,681.5 C 520.518,681.335 523.518,681.502 526.5,682C 529.215,682.875 530.548,684.708 530.5,687.5C 527.645,686.248 524.645,685.248 521.5,684.5C 517.009,684.812 515.676,686.978 517.5,691C 521.5,692.333 525.5,693.667 529.5,695C 532.866,700.156 531.866,704.156 526.5,707C 523.167,707.667 519.833,707.667 516.5,707C 513.293,705.865 511.959,703.865 512.5,701C 514.906,700.221 516.573,701.054 517.5,703.5C 520.577,704.877 523.577,704.71 526.5,703C 527.833,701.333 527.833,699.667 526.5,698C 522.051,696.688 517.884,694.854 514,692.5C 511.35,687.562 512.517,683.895 517.5,681.5 Z"/></g>
<g><path style="opacity:1" fill="#020a0b" d="M 566.5,681.5 C 567.833,681.5 569.167,681.5 570.5,681.5C 570.5,690.167 570.5,698.833 570.5,707.5C 569.167,707.5 567.833,707.5 566.5,707.5C 566.5,698.833 566.5,690.167 566.5,681.5 Z"/></g>
<g><path style="opacity:1" fill="#010607" d="M 577.5,681.5 C 578.833,681.5 580.167,681.5 581.5,681.5C 581.343,682.873 581.51,684.207 582,685.5C 587.921,679.932 593.588,680.266 599,686.5C 602.076,694.433 600.576,701.266 594.5,707C 589.431,708.495 585.264,707.328 582,703.5C 581.501,708.155 581.334,712.821 581.5,717.5C 580.167,717.5 578.833,717.5 577.5,717.5C 577.5,705.5 577.5,693.5 577.5,681.5 Z"/></g>
<g><path style="opacity:1" fill="#09575f" d="M 507.5,681.5 C 508.434,682.568 508.768,683.901 508.5,685.5C 506.833,685.5 505.167,685.5 503.5,685.5C 504.568,684.566 505.901,684.232 507.5,684.5C 507.5,683.5 507.5,682.5 507.5,681.5 Z"/></g>
<g><path style="opacity:1" fill="#0f8490" d="M 389.5,684.5 C 396.013,683.404 399.346,686.071 399.5,692.5C 394.833,692.5 390.167,692.5 385.5,692.5C 385.343,691.127 385.51,689.793 386,688.5C 387.376,687.295 388.542,685.962 389.5,684.5 Z"/></g>
<g><path style="opacity:1" fill="#0f8894" d="M 444.5,684.5 C 453.361,684.884 456.861,689.551 455,698.5C 451.175,705.583 446.508,706.25 441,700.5C 439.432,694.375 440.599,689.042 444.5,684.5 Z"/></g>
<g><path style="opacity:1" fill="#0e838f" d="M 474.5,684.5 C 480.857,683.532 484.19,686.198 484.5,692.5C 479.456,692.827 474.456,692.494 469.5,691.5C 470.453,688.57 472.12,686.237 474.5,684.5 Z"/></g>
<g><path style="opacity:1" fill="#0f8996" d="M 586.5,684.5 C 590.888,683.943 594.055,685.61 596,689.5C 596.767,693.594 596.434,697.594 595,701.5C 589.348,706.103 585.014,705.103 582,698.5C 580.309,692.61 581.809,687.944 586.5,684.5 Z"/></g>
<g><path style="opacity:1" fill="#0f8491" d="M 423.5,694.5 C 427.174,700.125 425.507,703.458 418.5,704.5C 412.971,703.94 411.638,701.44 414.5,697C 417.579,696.027 420.579,695.194 423.5,694.5 Z"/></g>
<g><path style="opacity:1" fill="#0b666f" d="M 488.5,695.5 C 482.265,695.853 476.265,696.853 470.5,698.5C 469.596,697.791 469.263,696.791 469.5,695.5C 475.833,695.5 482.167,695.5 488.5,695.5 Z"/></g>
<g><path style="opacity:1" fill="#04272a" d="M 360.5,703.5 C 365.833,703.5 371.167,703.5 376.5,703.5C 376.768,705.099 376.434,706.432 375.5,707.5C 375.5,706.5 375.5,705.5 375.5,704.5C 370.305,704.821 365.305,704.487 360.5,703.5 Z"/></g>
<g><path style="opacity:1" fill="#37c5d3" d="M 825.5,867.5 C 897.948,864.136 953.448,892.803 992,953.5C 1021.87,1009.16 1023.2,1065.49 996,1122.5C 965.486,1176.37 919.319,1207.2 857.5,1215C 785.038,1218.86 729.538,1190.36 691,1129.5C 666.211,1085.06 660.877,1038.4 675,989.5C 694.474,932.693 732.641,894.526 789.5,875C 801.463,871.642 813.463,869.142 825.5,867.5 Z"/></g>
<g><path style="opacity:1" fill="#108d9a" d="M 825.5,871.5 C 897.608,868.629 952.441,897.629 990,958.5C 1018.62,1013.8 1018.62,1069.14 990,1124.5C 952.219,1185.81 897.052,1214.65 824.5,1211C 755.967,1201.12 708.467,1164.28 682,1100.5C 659.174,1028.59 674.674,966.427 728.5,914C 756.54,889.979 788.874,875.812 825.5,871.5 Z"/></g>
<g><path style="opacity:1" fill="#061112" d="M 783.5,1019.5 C 787.138,1018.74 788.638,1020.07 788,1023.5C 783.415,1025.41 781.915,1024.08 783.5,1019.5 Z"/></g>
<g><path style="opacity:1" fill="#010909" d="M 760.5,1024.5 C 759.517,1028.3 759.183,1032.3 759.5,1036.5C 764.5,1036.5 769.5,1036.5 774.5,1036.5C 774.5,1037.5 774.5,1038.5 774.5,1039.5C 769.5,1039.5 764.5,1039.5 759.5,1039.5C 759.5,1044.83 759.5,1050.17 759.5,1055.5C 758.167,1055.5 756.833,1055.5 755.5,1055.5C 755.5,1043.83 755.5,1032.17 755.5,1020.5C 762.5,1020.5 769.5,1020.5 776.5,1020.5C 776.5,1021.83 776.5,1023.17 776.5,1024.5C 771.167,1024.5 765.833,1024.5 760.5,1024.5 Z"/></g>
<g><path style="opacity:1" fill="#000304" d="M 783.5,1029.5 C 784.833,1029.5 786.167,1029.5 787.5,1029.5C 787.5,1038.17 787.5,1046.83 787.5,1055.5C 786.167,1055.5 784.833,1055.5 783.5,1055.5C 783.5,1046.83 783.5,1038.17 783.5,1029.5 Z"/></g>
<g><path style="opacity:1" fill="#010808" d="M 794.5,1029.5 C 795.833,1029.5 797.167,1029.5 798.5,1029.5C 798.21,1033.55 798.877,1034.05 800.5,1031C 805.436,1028.59 809.936,1029.09 814,1032.5C 815.432,1040.05 815.932,1047.72 815.5,1055.5C 814.167,1055.5 812.833,1055.5 811.5,1055.5C 811.666,1048.83 811.5,1042.16 811,1035.5C 806.615,1031.24 802.615,1031.58 799,1036.5C 798.5,1042.82 798.334,1049.16 798.5,1055.5C 797.167,1055.5 795.833,1055.5 794.5,1055.5C 794.5,1046.83 794.5,1038.17 794.5,1029.5 Z"/></g>
<g><path style="opacity:1" fill="#03090a" d="M 827.5,1029.5 C 830.85,1029.33 834.183,1029.5 837.5,1030C 838.931,1030.47 840.097,1031.3 841,1032.5C 842.432,1040.05 842.932,1047.72 842.5,1055.5C 841.167,1055.5 839.833,1055.5 838.5,1055.5C 838.649,1054.45 838.483,1053.45 838,1052.5C 833,1057.83 828,1057.83 823,1052.5C 820.377,1048.03 821.21,1044.53 825.5,1042C 829.688,1040.37 834.021,1039.54 838.5,1039.5C 838.543,1033.5 835.543,1031.33 829.5,1033C 828.054,1035.69 826.054,1036.53 823.5,1035.5C 822.479,1035 822.312,1034.33 823,1033.5C 824.397,1031.93 825.897,1030.6 827.5,1029.5 Z"/></g>
<g><path style="opacity:1" fill="#030b0c" d="M 849.5,1029.5 C 850.833,1029.5 852.167,1029.5 853.5,1029.5C 853.135,1034.42 854.135,1034.75 856.5,1030.5C 861.178,1028.66 865.344,1029.33 869,1032.5C 870.432,1040.05 870.932,1047.72 870.5,1055.5C 869.167,1055.5 867.833,1055.5 866.5,1055.5C 866.666,1048.83 866.5,1042.16 866,1035.5C 861.694,1031.33 857.694,1031.66 854,1036.5C 853.5,1042.82 853.334,1049.16 853.5,1055.5C 852.167,1055.5 850.833,1055.5 849.5,1055.5C 849.5,1046.83 849.5,1038.17 849.5,1029.5 Z"/></g>
<g><path style="opacity:1" fill="#040d0e" d="M 883.5,1029.5 C 887.637,1029.15 891.637,1029.65 895.5,1031C 897.451,1032.73 898.451,1034.9 898.5,1037.5C 897.022,1037.76 895.689,1037.43 894.5,1036.5C 890.423,1031.2 886.256,1031.2 882,1036.5C 879.237,1042.58 880.404,1047.75 885.5,1052C 889.526,1053.34 892.526,1052.17 894.5,1048.5C 895.689,1047.57 897.022,1047.24 898.5,1047.5C 898.456,1051.09 896.789,1053.59 893.5,1055C 882.911,1057.58 877.244,1053.41 876.5,1042.5C 876.759,1036.94 879.093,1032.61 883.5,1029.5 Z"/></g>
<g><path style="opacity:1" fill="#010606" d="M 910.5,1029.5 C 921.461,1027.8 926.794,1032.46 926.5,1043.5C 920.167,1043.5 913.833,1043.5 907.5,1043.5C 907.802,1050.63 911.469,1053.47 918.5,1052C 920.286,1051.22 921.786,1050.05 923,1048.5C 926.071,1050.3 925.904,1052.14 922.5,1054C 908.296,1057.8 902.13,1052.3 904,1037.5C 905.305,1034.04 907.471,1031.37 910.5,1029.5 Z"/></g>
<g><path style="opacity:1" fill="#0e838f" d="M 912.5,1032.5 C 918.582,1031.93 921.916,1034.59 922.5,1040.5C 917.5,1040.5 912.5,1040.5 907.5,1040.5C 907.667,1036.82 909.334,1034.15 912.5,1032.5 Z"/></g>
<g><path style="opacity:1" fill="#095057" d="M 760.5,1024.5 C 760.5,1028.17 760.5,1031.83 760.5,1035.5C 765.5,1035.5 770.5,1035.5 775.5,1035.5C 775.5,1037.17 775.5,1038.83 775.5,1040.5C 770.5,1040.5 765.5,1040.5 760.5,1040.5C 760.821,1045.69 760.487,1050.69 759.5,1055.5C 759.5,1050.17 759.5,1044.83 759.5,1039.5C 764.5,1039.5 769.5,1039.5 774.5,1039.5C 774.5,1038.5 774.5,1037.5 774.5,1036.5C 769.5,1036.5 764.5,1036.5 759.5,1036.5C 759.183,1032.3 759.517,1028.3 760.5,1024.5 Z"/></g>
<g><path style="opacity:1" fill="#0f8592" d="M 837.5,1042.5 C 839.66,1048.5 837.494,1051.83 831,1052.5C 825.417,1051.98 824.25,1049.48 827.5,1045C 830.909,1044 834.242,1043.17 837.5,1042.5 Z"/></g>
<g><path style="opacity:1" fill="#37c5d3" d="M 1301.5,1091.5 C 1373.95,1088.14 1429.45,1116.8 1468,1177.5C 1497.87,1233.16 1499.2,1289.49 1472,1346.5C 1441.49,1400.37 1395.32,1431.2 1333.5,1439C 1261.04,1442.86 1205.54,1414.36 1167,1353.5C 1142.21,1309.06 1136.88,1262.4 1151,1213.5C 1170.47,1156.69 1208.64,1118.53 1265.5,1099C 1277.46,1095.64 1289.46,1093.14 1301.5,1091.5 Z"/></g>
<g><path style="opacity:1" fill="#108d9a" d="M 1301.5,1095.5 C 1373.61,1092.63 1428.44,1121.63 1466,1182.5C 1494.62,1237.8 1494.62,1293.14 1466,1348.5C 1428.22,1409.81 1373.05,1438.65 1300.5,1435C 1231.97,1425.12 1184.47,1388.28 1158,1324.5C 1135.17,1252.59 1150.67,1190.43 1204.5,1138C 1232.54,1113.98 1264.87,1099.81 1301.5,1095.5 Z"/></g>
<g><path style="opacity:1" fill="#010809" d="M 1264.5,1275.5 C 1269.31,1276.49 1274.31,1276.82 1279.5,1276.5C 1279.5,1277.5 1279.5,1278.5 1279.5,1279.5C 1272.83,1279.5 1266.17,1279.5 1259.5,1279.5C 1259.5,1267.83 1259.5,1256.17 1259.5,1244.5C 1260.83,1244.5 1262.17,1244.5 1263.5,1244.5C 1263.17,1255.01 1263.51,1265.35 1264.5,1275.5 Z"/></g>
<g><path style="opacity:1" fill="#000000" d="M 1370.5,1244.5 C 1371.83,1244.5 1373.17,1244.5 1374.5,1244.5C 1374.5,1256.17 1374.5,1267.83 1374.5,1279.5C 1373.17,1279.5 1371.83,1279.5 1370.5,1279.5C 1370.5,1267.83 1370.5,1256.17 1370.5,1244.5 Z"/></g>
<g><path style="opacity:1" fill="#020708" d="M 1292.5,1253.5 C 1303.34,1252.01 1308.34,1256.67 1307.5,1267.5C 1301.5,1267.5 1295.5,1267.5 1289.5,1267.5C 1289.8,1274.63 1293.47,1277.47 1300.5,1276C 1302.22,1272.62 1304.55,1271.96 1307.5,1274C 1306.5,1276.33 1304.83,1278 1302.5,1279C 1288.24,1281.06 1282.74,1274.89 1286,1260.5C 1287.69,1257.64 1289.86,1255.31 1292.5,1253.5 Z"/></g>
<g><path style="opacity:1" fill="#040b0c" d="M 1319.5,1253.5 C 1324.54,1252.5 1328.7,1253.84 1332,1257.5C 1332.49,1256.21 1332.66,1254.87 1332.5,1253.5C 1333.5,1253.5 1334.5,1253.5 1335.5,1253.5C 1335.67,1263.84 1335.5,1274.17 1335,1284.5C 1332.66,1288.35 1329.16,1290.01 1324.5,1289.5C 1320.08,1289.95 1316.74,1288.29 1314.5,1284.5C 1316.35,1281.81 1318.01,1281.98 1319.5,1285C 1328.76,1288.29 1332.59,1285.13 1331,1275.5C 1324.21,1281.42 1318.54,1280.42 1314,1272.5C 1311.35,1264.74 1313.19,1258.41 1319.5,1253.5 Z"/></g>
<g><path style="opacity:1" fill="#050f10" d="M 1347.5,1253.5 C 1351.18,1253.33 1354.85,1253.5 1358.5,1254C 1360.55,1254.93 1362.05,1256.43 1363,1258.5C 1363.5,1265.49 1363.67,1272.49 1363.5,1279.5C 1361.23,1279.86 1359.4,1279.19 1358,1277.5C 1353.26,1281.41 1348.59,1281.41 1344,1277.5C 1341.14,1272.08 1342.31,1267.91 1347.5,1265C 1350.5,1264.67 1353.5,1264.33 1356.5,1264C 1359.65,1259.92 1358.65,1257.42 1353.5,1256.5C 1350.37,1256.65 1347.87,1257.98 1346,1260.5C 1345.08,1259.95 1344.24,1259.29 1343.5,1258.5C 1344.86,1256.81 1346.19,1255.15 1347.5,1253.5 Z"/></g>
<g><path style="opacity:1" fill="#0f8490" d="M 1293.5,1256.5 C 1300.01,1255.4 1303.35,1258.07 1303.5,1264.5C 1298.83,1264.5 1294.17,1264.5 1289.5,1264.5C 1289.34,1263.13 1289.51,1261.79 1290,1260.5C 1291.38,1259.29 1292.54,1257.96 1293.5,1256.5 Z"/></g>
<g><path style="opacity:1" fill="#0f8894" d="M 1321.5,1256.5 C 1325.64,1255.7 1328.81,1257.04 1331,1260.5C 1331.67,1264.17 1331.67,1267.83 1331,1271.5C 1328.02,1275.7 1324.19,1276.53 1319.5,1274C 1315.07,1267.54 1315.73,1261.71 1321.5,1256.5 Z"/></g>
<g><path style="opacity:1" fill="#0f8a96" d="M 1356.5,1267.5 C 1358.26,1268.55 1358.92,1270.22 1358.5,1272.5C 1355.28,1276.79 1351.44,1277.45 1347,1274.5C 1346.2,1272.74 1346.37,1271.07 1347.5,1269.5C 1350.33,1268.07 1353.33,1267.4 1356.5,1267.5 Z"/></g>
<g><path style="opacity:1" fill="#074248" d="M 1356.5,1267.5 C 1357.21,1266.6 1358.21,1266.26 1359.5,1266.5C 1359.79,1268.74 1359.46,1270.74 1358.5,1272.5C 1358.92,1270.22 1358.26,1268.55 1356.5,1267.5 Z"/></g>
<g><path style="opacity:1" fill="#04272a" d="M 1264.5,1275.5 C 1269.83,1275.5 1275.17,1275.5 1280.5,1275.5C 1280.77,1277.1 1280.43,1278.43 1279.5,1279.5C 1279.5,1278.5 1279.5,1277.5 1279.5,1276.5C 1274.31,1276.82 1269.31,1276.49 1264.5,1275.5 Z"/></g>
</svg>
