<?xml version="1.0" encoding="UTF-8"?>
<!DOCTYPE svg PUBLIC "-//W3C//DTD SVG 1.1//EN" "http://www.w3.org/Graphics/SVG/1.1/DTD/svg11.dtd">
<svg xmlns="http://www.w3.org/2000/svg" version="1.1" width="1497px" height="842px" style="shape-rendering:geometricPrecision; text-rendering:geometricPrecision; image-rendering:optimizeQuality; fill-rule:evenodd; clip-rule:evenodd" xmlns:xlink="http://www.w3.org/1999/xlink">
<g><path style="opacity:0.995" fill="#d8d8d8" d="M 0.5,-0.5 C 499.167,-0.5 997.833,-0.5 1496.5,-0.5C 1496.5,18.1667 1496.5,36.8333 1496.5,55.5C 997.833,55.5 499.167,55.5 0.5,55.5C 0.5,36.8333 0.5,18.1667 0.5,-0.5 Z"/></g>
<g><path style="opacity:1" fill="#565656" d="M 1448.5,15.5 C 1443.32,13.2586 1437.98,12.9253 1432.5,14.5C 1434.63,12.9666 1437.13,12.2999 1440,12.5C 1441.83,12.6667 1443.67,12.8333 1445.5,13C 1446.94,13.3768 1447.94,14.2101 1448.5,15.5 Z"/></g>
<g><path style="opacity:1" fill="#555555" d="M 1432.5,14.5 C 1427.62,18.6038 1425.12,23.9372 1425,30.5C 1423.59,23.1843 1426.09,17.851 1432.5,14.5 Z"/></g>
<g><path style="opacity:1" fill="#7f7f7f" d="M 1448.5,15.5 C 1450.69,15.5106 1451.52,16.5106 1451,18.5C 1448.23,21.7768 1445.07,24.4434 1441.5,26.5C 1443.8,23.7029 1446.3,21.0362 1449,18.5C 1449.47,17.4232 1449.3,16.4232 1448.5,15.5 Z"/></g>
<g><path style="opacity:1" fill="#494949" d="M 100.5,24.5 C 101.434,25.5676 101.768,26.901 101.5,28.5C 102.833,28.5 104.167,28.5 105.5,28.5C 106.258,23.2483 106.925,23.415 107.5,29C 106.925,34.585 106.258,34.7517 105.5,29.5C 104.167,29.5 102.833,29.5 101.5,29.5C 101.657,30.8734 101.49,32.2068 101,33.5C 100.502,30.5184 100.335,27.5184 100.5,24.5 Z"/></g>
<g><path style="opacity:1" fill="#3c3c3c" d="M 1274.5,26.5 C 1272.92,25.9976 1272.42,24.9976 1273,23.5C 1274.04,24.2438 1274.54,25.2438 1274.5,26.5 Z"/></g>
<g><path style="opacity:1" fill="#3c3c3c" d="M 1282.5,26.5 C 1280.92,25.9976 1280.42,24.9976 1281,23.5C 1282.04,24.2438 1282.54,25.2438 1282.5,26.5 Z"/></g>
<g><path style="opacity:1" fill="#3c3c3c" d="M 1290.5,26.5 C 1288.92,25.9976 1288.42,24.9976 1289,23.5C 1290.04,24.2438 1290.54,25.2438 1290.5,26.5 Z"/></g>
<g><path style="opacity:1" fill="#3c3c3c" d="M 1298.5,26.5 C 1296.92,25.9976 1296.42,24.9976 1297,23.5C 1298.04,24.2438 1298.54,25.2438 1298.5,26.5 Z"/></g>
<g><path style="opacity:1" fill="#3c3c3c" d="M 1306.5,26.5 C 1304.92,25.9976 1304.42,24.9976 1305,23.5C 1306.04,24.2438 1306.54,25.2438 1306.5,26.5 Z"/></g>
<g><path style="opacity:1" fill="#3c3c3c" d="M 1314.5,26.5 C 1312.92,25.9976 1312.42,24.9976 1313,23.5C 1314.04,24.2438 1314.54,25.2438 1314.5,26.5 Z"/></g>
<g><path style="opacity:1" fill="#3c3c3c" d="M 1322.5,26.5 C 1320.92,25.9976 1320.42,24.9976 1321,23.5C 1322.04,24.2438 1322.54,25.2438 1322.5,26.5 Z"/></g>
<g><path style="opacity:1" fill="#3c3c3c" d="M 1330.5,26.5 C 1328.92,25.9976 1328.42,24.9976 1329,23.5C 1330.04,24.2438 1330.54,25.2438 1330.5,26.5 Z"/></g>
<g><path style="opacity:1" fill="#3c3c3c" d="M 1338.5,26.5 C 1336.92,25.9976 1336.42,24.9976 1337,23.5C 1338.04,24.2438 1338.54,25.2438 1338.5,26.5 Z"/></g>
<g><path style="opacity:1" fill="#3b3b3b" d="M 1395.5,26.5 C 1396.6,25.4017 1397.93,25.235 1399.5,26C 1400.8,27.6155 1400.8,29.1155 1399.5,30.5C 1399.83,27.5 1398.5,26.1667 1395.5,26.5 Z"/></g>
<g><path style="opacity:1" fill="#6a6a6a" d="M 1453.5,21.5 C 1455.2,23.8512 1455.7,26.5178 1455,29.5C 1454.18,26.8832 1453.68,24.2165 1453.5,21.5 Z"/></g>
<g><path style="opacity:1" fill="#363636" d="M 1274.5,26.5 C 1275.88,25.4264 1277.05,24.0931 1278,22.5C 1278.14,24.2555 1277.64,25.9222 1276.5,27.5C 1279.38,32.4549 1279.04,33.1216 1275.5,29.5C 1274.52,29.9767 1273.69,30.6433 1273,31.5C 1273.13,29.8107 1273.63,28.144 1274.5,26.5 Z"/></g>
<g><path style="opacity:1" fill="#363636" d="M 1282.5,26.5 C 1283.88,25.4264 1285.05,24.0931 1286,22.5C 1286.14,24.2555 1285.64,25.9222 1284.5,27.5C 1287.38,32.4549 1287.04,33.1216 1283.5,29.5C 1282.52,29.9767 1281.69,30.6433 1281,31.5C 1281.13,29.8107 1281.63,28.144 1282.5,26.5 Z"/></g>
<g><path style="opacity:1" fill="#363636" d="M 1290.5,26.5 C 1291.88,25.4264 1293.05,24.0931 1294,22.5C 1294.14,24.2555 1293.64,25.9222 1292.5,27.5C 1295.38,32.4549 1295.04,33.1216 1291.5,29.5C 1290.52,29.9767 1289.69,30.6433 1289,31.5C 1289.13,29.8107 1289.63,28.144 1290.5,26.5 Z"/></g>
<g><path style="opacity:1" fill="#363636" d="M 1298.5,26.5 C 1299.88,25.4264 1301.05,24.0931 1302,22.5C 1302.14,24.2555 1301.64,25.9222 1300.5,27.5C 1303.38,32.4549 1303.04,33.1216 1299.5,29.5C 1298.52,29.9767 1297.69,30.6433 1297,31.5C 1297.13,29.8107 1297.63,28.144 1298.5,26.5 Z"/></g>
<g><path style="opacity:1" fill="#363636" d="M 1306.5,26.5 C 1307.88,25.4264 1309.05,24.0931 1310,22.5C 1310.14,24.2555 1309.64,25.9222 1308.5,27.5C 1311.38,32.4549 1311.04,33.1216 1307.5,29.5C 1306.52,29.9767 1305.69,30.6433 1305,31.5C 1305.13,29.8107 1305.63,28.144 1306.5,26.5 Z"/></g>
<g><path style="opacity:1" fill="#363636" d="M 1314.5,26.5 C 1315.88,25.4264 1317.05,24.0931 1318,22.5C 1318.14,24.2555 1317.64,25.9222 1316.5,27.5C 1319.38,32.4549 1319.04,33.1216 1315.5,29.5C 1314.52,29.9767 1313.69,30.6433 1313,31.5C 1313.13,29.8107 1313.63,28.144 1314.5,26.5 Z"/></g>
<g><path style="opacity:1" fill="#363636" d="M 1322.5,26.5 C 1323.88,25.4264 1325.05,24.0931 1326,22.5C 1326.14,24.2555 1325.64,25.9222 1324.5,27.5C 1327.38,32.4549 1327.04,33.1216 1323.5,29.5C 1322.52,29.9767 1321.69,30.6433 1321,31.5C 1321.13,29.8107 1321.63,28.144 1322.5,26.5 Z"/></g>
<g><path style="opacity:1" fill="#363636" d="M 1330.5,26.5 C 1331.88,25.4264 1333.05,24.0931 1334,22.5C 1334.14,24.2555 1333.64,25.9222 1332.5,27.5C 1335.38,32.4549 1335.04,33.1216 1331.5,29.5C 1330.52,29.9767 1329.69,30.6433 1329,31.5C 1329.13,29.8107 1329.63,28.144 1330.5,26.5 Z"/></g>
<g><path style="opacity:1" fill="#363636" d="M 1338.5,26.5 C 1339.88,25.4264 1341.05,24.0931 1342,22.5C 1342.14,24.2555 1341.64,25.9222 1340.5,27.5C 1343.38,32.4549 1343.04,33.1216 1339.5,29.5C 1338.52,29.9767 1337.69,30.6433 1337,31.5C 1337.13,29.8107 1337.63,28.144 1338.5,26.5 Z"/></g>
<g><path style="opacity:1" fill="#cdcdcd" d="M 1395.5,26.5 C 1398.5,26.1667 1399.83,27.5 1399.5,30.5C 1398.17,30.5 1396.83,30.5 1395.5,30.5C 1395.5,29.1667 1395.5,27.8333 1395.5,26.5 Z"/></g>
<g><path style="opacity:1" fill="#4f4f4f" d="M 1412.5,25.5 C 1415.04,25.1505 1417.04,25.9838 1418.5,28C 1417.05,29.117 1415.38,29.7837 1413.5,30C 1414.83,30.3333 1416.17,30.6667 1417.5,31C 1416.14,32.6819 1414.64,32.8486 1413,31.5C 1412.5,29.5273 1412.34,27.5273 1412.5,25.5 Z"/></g>
<g><path style="opacity:1" fill="#232323" d="M 118.5,27.5 C 117.815,29.4144 117.315,31.4144 117,33.5C 116.333,31.1667 116.333,28.8333 117,26.5C 117.383,27.056 117.883,27.3893 118.5,27.5 Z"/></g>
<g><path style="opacity:1" fill="#363636" d="M 1382.5,22.5 C 1387.31,21.8551 1388.98,23.6885 1387.5,28C 1386.21,28.49 1384.87,28.6567 1383.5,28.5C 1382.22,29.3167 1381.89,27.3167 1382.5,22.5 Z"/></g>
<g><path style="opacity:1" fill="#d3d3d3" d="M 1383.5,24.5 C 1384.98,24.238 1386.31,24.5713 1387.5,25.5C 1386.68,27.1112 1385.35,27.7778 1383.5,27.5C 1383.5,26.5 1383.5,25.5 1383.5,24.5 Z"/></g>
<g><path style="opacity:1" fill="#444444" d="M 1390.5,25.5 C 1391.55,25.3505 1392.55,25.5172 1393.5,26C 1391.95,27.4396 1391.12,29.2729 1391,31.5C 1390.5,29.5273 1390.34,27.5273 1390.5,25.5 Z"/></g>
<g><path style="opacity:1" fill="#171717" d="M 122.5,27.5 C 123.189,26.2264 124.023,26.2264 125,27.5C 125.667,29.5 125.667,31.5 125,33.5C 124.963,31.0261 124.13,29.0261 122.5,27.5 Z"/></g>
<g><path style="opacity:1" fill="#767676" d="M 131.5,27.5 C 133.382,28.221 133.715,29.221 132.5,30.5C 131.391,29.71 130.058,29.21 128.5,29C 129.244,27.9614 130.244,27.4614 131.5,27.5 Z"/></g>
<g><path style="opacity:1" fill="#1e1e1e" d="M 118.5,27.5 C 119.189,26.2264 120.023,26.2264 121,27.5C 121.667,29.5 121.667,31.5 121,33.5C 120.963,31.0261 120.13,29.0261 118.5,27.5 Z"/></g>
<g><path style="opacity:1" fill="#515151" d="M 110.5,26.5 C 114.707,26.6938 116.04,28.6938 114.5,32.5C 108.701,33.5764 107.368,31.5764 110.5,26.5 Z"/></g>
<g><path style="opacity:1" fill="#d3d3d3" d="M 111.5,27.5 C 113.213,28.6354 113.88,30.302 113.5,32.5C 112.5,32.5 111.5,32.5 110.5,32.5C 110.366,30.7085 110.699,29.0418 111.5,27.5 Z"/></g>
<g><path style="opacity:1" fill="#252525" d="M 131.5,27.5 C 130.244,27.4614 129.244,27.9614 128.5,29C 130.058,29.21 131.391,29.71 132.5,30.5C 130.549,30.2267 129.049,30.8934 128,32.5C 127.333,30.8333 127.333,29.1667 128,27.5C 129.292,26.2089 130.458,26.2089 131.5,27.5 Z"/></g>
<g><path style="opacity:1" fill="#4e4e4e" d="M 1395.5,26.5 C 1395.5,27.8333 1395.5,29.1667 1395.5,30.5C 1396.83,30.5 1398.17,30.5 1399.5,30.5C 1398.69,32.2726 1397.35,32.7726 1395.5,32C 1394.19,30.0565 1394.19,28.2232 1395.5,26.5 Z"/></g>
<g><path style="opacity:1" fill="#808080" d="M 1441.5,26.5 C 1439.15,30.8503 1435.49,34.517 1430.5,37.5C 1434.27,33.0561 1437.94,29.3895 1441.5,26.5 Z"/></g>
<g><path style="opacity:1" fill="#575757" d="M 1453.5,30.5 C 1454.63,32.6661 1454.13,34.6661 1452,36.5C 1452.15,34.4944 1452.65,32.4944 1453.5,30.5 Z"/></g>
<g><path style="opacity:1" fill="#4b4b4b" d="M 1430.5,37.5 C 1431.75,39.1361 1433.42,40.3028 1435.5,41C 1438.5,41.3333 1441.5,41.6667 1444.5,42C 1438.07,43.65 1432.57,42.15 1428,37.5C 1427.33,36.8333 1427.33,36.1667 1428,35.5C 1428.71,36.3805 1429.54,37.0472 1430.5,37.5 Z"/></g>
<g><path style="opacity:1" fill="#fefefe" d="M 0.5,55.5 C 499.167,55.5 997.833,55.5 1496.5,55.5C 1496.5,317.5 1496.5,579.5 1496.5,841.5C 997.833,841.5 499.167,841.5 0.5,841.5C 0.5,579.5 0.5,317.5 0.5,55.5 Z"/></g>
<g><path style="opacity:1" fill="#7f807f" d="M 133.5,130.5 C 134.765,131.514 135.431,133.014 135.5,135C 135.167,136.5 134.833,138 134.5,139.5C 133.516,136.572 133.183,133.572 133.5,130.5 Z"/></g>
<g><path style="opacity:1" fill="#7f807f" d="M 136.5,130.5 C 137.765,131.514 138.431,133.014 138.5,135C 138.167,136.5 137.833,138 137.5,139.5C 136.516,136.572 136.183,133.572 136.5,130.5 Z"/></g>
<g><path style="opacity:1" fill="#383838" d="M 100.5,130.5 C 107.444,130.272 109.11,133.106 105.5,139C 103.866,139.494 102.199,139.66 100.5,139.5C 100.5,136.5 100.5,133.5 100.5,130.5 Z"/></g>
<g><path style="opacity:1" fill="#fdfdfd" d="M 101.5,131.5 C 105.473,132.075 106.473,134.242 104.5,138C 103.552,138.483 102.552,138.649 101.5,138.5C 101.5,136.167 101.5,133.833 101.5,131.5 Z"/></g>
<g><path style="opacity:1" fill="#4e4e4e" d="M 115.5,133.5 C 114.391,133.557 113.391,133.89 112.5,134.5C 113.053,132.448 114.053,132.115 115.5,133.5 Z"/></g>
<g><path style="opacity:1" fill="#848484" d="M 108.5,130.5 C 109.765,131.514 110.431,133.014 110.5,135C 110.167,136.5 109.833,138 109.5,139.5C 108.516,136.572 108.183,133.572 108.5,130.5 Z"/></g>
<g><path style="opacity:1" fill="#2f2f2f" d="M 112.5,134.5 C 112.854,138.859 114.188,139.359 116.5,136C 116.257,135.098 115.923,134.265 115.5,133.5C 116.117,133.389 116.617,133.056 117,132.5C 117.784,135.76 117.617,138.927 116.5,142C 115.056,142.781 113.723,142.614 112.5,141.5C 113.826,141.795 115.159,141.295 116.5,140C 112.013,140.049 110.679,138.216 112.5,134.5 Z"/></g>
<g><path style="opacity:1" fill="#a0a0a0" d="M 199.5,132.5 C 200.873,132.343 202.207,132.51 203.5,133C 202.036,134.864 201.036,137.031 200.5,139.5C 199.526,137.257 199.192,134.924 199.5,132.5 Z"/></g>
<g><path style="opacity:1" fill="#ebebeb" d="M 115.5,133.5 C 115.923,134.265 116.257,135.098 116.5,136C 114.188,139.359 112.854,138.859 112.5,134.5C 113.391,133.89 114.391,133.557 115.5,133.5 Z"/></g>
<g><path style="opacity:1" fill="#575757" d="M 122.5,131.5 C 123.756,131.461 124.756,131.961 125.5,133C 124.68,135.333 124.347,137.5 124.5,139.5C 123.914,139.291 123.414,138.957 123,138.5C 122.503,136.19 122.337,133.857 122.5,131.5 Z"/></g>
<g><path style="opacity:1" fill="#575757" d="M 127.5,132.5 C 129.144,132.286 130.644,132.62 132,133.5C 132.495,135.473 132.662,137.473 132.5,139.5C 125.693,139.578 125.026,137.911 130.5,134.5C 129.284,133.904 127.951,133.737 126.5,134C 127.056,133.617 127.389,133.117 127.5,132.5 Z"/></g>
<g><path style="opacity:1" fill="#a5a5a5" d="M 178.5,132.5 C 180.144,132.286 181.644,132.62 183,133.5C 183.495,135.473 183.662,137.473 183.5,139.5C 181.5,139.5 179.5,139.5 177.5,139.5C 177.325,136.671 178.658,135.004 181.5,134.5C 180.726,133.289 179.893,133.289 179,134.5C 178.536,133.906 178.369,133.239 178.5,132.5 Z"/></g>
<g><path style="opacity:1" fill="#848484" d="M 170.5,130.5 C 175.667,129.492 177.334,131.325 175.5,136C 174.207,136.49 172.873,136.657 171.5,136.5C 170.223,137.317 169.89,135.317 170.5,130.5 Z"/></g>
<g><path style="opacity:1" fill="#f0f0f0" d="M 171.5,131.5 C 173.346,131.222 174.68,131.889 175.5,133.5C 174.68,135.111 173.346,135.778 171.5,135.5C 171.5,134.167 171.5,132.833 171.5,131.5 Z"/></g>
<g><path style="opacity:1" fill="#9e9e9e" d="M 193.5,132.5 C 195.912,132.244 197.579,133.244 198.5,135.5C 196.363,136.08 194.53,137.08 193,138.5C 192.322,136.402 192.489,134.402 193.5,132.5 Z"/></g>
<g><path style="opacity:1" fill="#f8f8f8" d="M 128.5,136.5 C 130.337,136.639 130.67,137.306 129.5,138.5C 128.702,138.043 128.369,137.376 128.5,136.5 Z"/></g>
<g><path style="opacity:1" fill="#525252" d="M 139.5,132.5 C 140.85,133.483 141.85,134.816 142.5,136.5C 143.251,135.624 143.751,134.624 144,133.5C 144.654,132.304 145.154,132.304 145.5,133.5C 144.592,136.987 142.926,139.987 140.5,142.5C 140.167,142.333 139.833,142.167 139.5,142C 140.574,141.261 141.241,140.261 141.5,139C 140.726,136.846 140.059,134.679 139.5,132.5 Z"/></g>
<g><path style="opacity:1" fill="#8f8f8f" d="M 187.5,133.5 C 189.485,132.567 190.818,133.4 191.5,136C 190.567,138.818 188.567,139.984 185.5,139.5C 185.338,137.473 185.505,135.473 186,133.5C 186.494,135.134 186.66,136.801 186.5,138.5C 187.5,138.5 188.5,138.5 189.5,138.5C 189.88,136.302 189.213,134.635 187.5,133.5 Z"/></g>
<g><path style="opacity:1" fill="#363636" d="M 600.5,145.5 C 605.386,144.405 607.052,146.072 605.5,150.5C 604.264,151.246 602.93,151.579 601.5,151.5C 600.223,152.317 599.89,150.317 600.5,145.5 Z"/></g>
<g><path style="opacity:1" fill="#323232" d="M 1095.5,146.5 C 1099.03,152.08 1097.37,154.747 1090.5,154.5C 1090.5,151.5 1090.5,148.5 1090.5,145.5C 1092.41,145.216 1094.08,145.549 1095.5,146.5 Z"/></g>
<g><path style="opacity:1" fill="#676767" d="M 1114.5,153.5 C 1115.5,153.5 1116.5,153.5 1117.5,153.5C 1117.5,151.833 1117.5,150.167 1117.5,148.5C 1116.5,148.5 1115.5,148.5 1114.5,148.5C 1115.87,147.694 1117.2,146.694 1118.5,145.5C 1119.48,148.428 1119.82,151.428 1119.5,154.5C 1117.59,154.784 1115.92,154.451 1114.5,153.5 Z"/></g>
<g><path style="opacity:1" fill="#fcfcfc" d="M 601.5,146.5 C 603.346,146.222 604.68,146.889 605.5,148.5C 604.311,149.429 602.978,149.762 601.5,149.5C 601.5,148.5 601.5,147.5 601.5,146.5 Z"/></g>
<g><path style="opacity:1" fill="#0a0a0a" d="M 642.5,146.5 C 643.289,146.783 643.956,147.283 644.5,148C 643.751,149.734 643.251,151.567 643,153.5C 642.749,151.567 642.249,149.734 641.5,148C 642.056,147.617 642.389,147.117 642.5,146.5 Z"/></g>
<g><path style="opacity:1" fill="#797979" d="M 887.5,147.5 C 889.199,147.34 890.866,147.506 892.5,148C 891.584,148.374 890.75,148.874 890,149.5C 889.798,151.256 889.298,152.922 888.5,154.5C 887.526,152.257 887.192,149.924 887.5,147.5 Z"/></g>
<g><path style="opacity:1" fill="#353535" d="M 636.5,148.5 C 637.849,147.203 639.182,147.37 640.5,149C 639.181,149.195 637.847,149.028 636.5,148.5 Z"/></g>
<g><path style="opacity:1" fill="#454545" d="M 860.5,147.5 C 862.429,147.231 864.095,147.731 865.5,149C 864.451,149.492 863.451,149.326 862.5,148.5C 859.833,150.167 859.833,151.833 862.5,153.5C 863.451,152.674 864.451,152.508 865.5,153C 859.756,155.387 858.09,153.554 860.5,147.5 Z"/></g>
<g><path style="opacity:1" fill="#5b5b5b" d="M 884.5,153.5 C 883.614,154.776 882.614,154.776 881.5,153.5C 880.294,151.484 880.294,149.484 881.5,147.5C 881.964,149.975 882.964,151.975 884.5,153.5 Z"/></g>
<g><path style="opacity:1" fill="#2b2b2b" d="M 884.5,153.5 C 885.185,151.586 885.685,149.586 886,147.5C 886.667,149.833 886.667,152.167 886,154.5C 885.617,153.944 885.117,153.611 884.5,153.5 Z"/></g>
<g><path style="opacity:1" fill="#525252" d="M 895.5,146.5 C 896.756,146.461 897.756,146.961 898.5,148C 897.68,150.333 897.347,152.5 897.5,154.5C 896.914,154.291 896.414,153.957 896,153.5C 895.503,151.19 895.337,148.857 895.5,146.5 Z"/></g>
<g><path style="opacity:1" fill="#d1d1d1" d="M 1095.5,146.5 C 1095.31,148.912 1093.97,149.912 1091.5,149.5C 1091.5,148.5 1091.5,147.5 1091.5,146.5C 1092.83,146.5 1094.17,146.5 1095.5,146.5 Z"/></g>
<g><path style="opacity:1" fill="#f2f2f2" d="M 1114.5,148.5 C 1115.5,148.5 1116.5,148.5 1117.5,148.5C 1117.5,150.167 1117.5,151.833 1117.5,153.5C 1116.5,153.5 1115.5,153.5 1114.5,153.5C 1114.5,151.833 1114.5,150.167 1114.5,148.5 Z"/></g>
<g><path style="opacity:1" fill="#3e3e3e" d="M 1311.5,147.5 C 1316.33,147.385 1317.66,149.552 1315.5,154C 1310.57,154.427 1309.24,152.26 1311.5,147.5 Z"/></g>
<g><path style="opacity:1" fill="#f7f7f7" d="M 1312.5,148.5 C 1315.96,149.536 1316.29,151.203 1313.5,153.5C 1311.3,152.218 1310.96,150.551 1312.5,148.5 Z"/></g>
<g><path style="opacity:1" fill="#292929" d="M 1318.5,147.5 C 1319.81,155.434 1321.31,155.434 1323,147.5C 1323.5,149.81 1323.66,152.143 1323.5,154.5C 1321.83,154.5 1320.17,154.5 1318.5,154.5C 1318.5,152.167 1318.5,149.833 1318.5,147.5 Z"/></g>
<g><path style="opacity:1" fill="#343434" d="M 1325.5,147.5 C 1327.17,147.5 1328.83,147.5 1330.5,147.5C 1330.66,149.857 1330.5,152.19 1330,154.5C 1328.89,146.715 1327.56,146.715 1326,154.5C 1325.5,152.19 1325.34,149.857 1325.5,147.5 Z"/></g>
<g><path style="opacity:1" fill="#202020" d="M 1333.5,146.5 C 1334.29,146.783 1334.96,147.283 1335.5,148C 1334.68,150.333 1334.35,152.5 1334.5,154.5C 1333.25,151.728 1332.92,149.061 1333.5,146.5 Z"/></g>
<g><path style="opacity:1" fill="#3c3c3c" d="M 608.5,147.5 C 609.552,147.351 610.552,147.517 611.5,148C 609.901,149.786 609.067,151.953 609,154.5C 608.503,152.19 608.337,149.857 608.5,147.5 Z"/></g>
<g><path style="opacity:1" fill="#494949" d="M 853.5,145.5 C 854.376,145.369 855.043,145.702 855.5,146.5C 856.305,148.915 857.305,151.249 858.5,153.5C 858.167,153.833 857.833,154.167 857.5,154.5C 856.614,153.675 856.281,152.675 856.5,151.5C 855.167,151.5 853.833,151.5 852.5,151.5C 852.719,152.675 852.386,153.675 851.5,154.5C 851.167,154.167 850.833,153.833 850.5,153.5C 851.9,150.965 852.9,148.298 853.5,145.5 Z"/></g>
<g><path style="opacity:1" fill="#ebebeb" d="M 853.5,148.5 C 855.337,148.639 855.67,149.306 854.5,150.5C 853.702,150.043 853.369,149.376 853.5,148.5 Z"/></g>
<g><path style="opacity:1" fill="#464646" d="M 1105.5,147.5 C 1111.07,146.753 1112.9,149.087 1111,154.5C 1109.52,146.679 1108.02,146.679 1106.5,154.5C 1105.53,152.257 1105.19,149.924 1105.5,147.5 Z"/></g>
<g><path style="opacity:1" fill="#686868" d="M 1305.5,148.5 C 1305.11,156.398 1304.11,156.398 1302.5,148.5C 1300.63,156.299 1299.63,155.965 1299.5,147.5C 1301.62,147.325 1303.62,147.659 1305.5,148.5 Z"/></g>
<g><path style="opacity:1" fill="#525252" d="M 1305.5,148.5 C 1306.21,147.596 1307.21,147.263 1308.5,147.5C 1308.66,149.857 1308.5,152.19 1308,154.5C 1308,151.949 1307.16,149.949 1305.5,148.5 Z"/></g>
<g><path style="opacity:1" fill="#353535" d="M 613.5,147.5 C 618.328,147.385 619.661,149.552 617.5,154C 612.57,154.427 611.237,152.26 613.5,147.5 Z"/></g>
<g><path style="opacity:1" fill="#f4f4f4" d="M 614.5,148.5 C 617.956,149.536 618.29,151.203 615.5,153.5C 613.296,152.218 612.962,150.551 614.5,148.5 Z"/></g>
<g><path style="opacity:1" fill="#353535" d="M 867.5,147.5 C 868.978,147.238 870.311,147.571 871.5,148.5C 870.47,148.554 869.303,148.888 868,149.5C 867.333,150.5 867.333,151.5 868,152.5C 869.303,153.112 870.47,153.446 871.5,153.5C 869.994,154.747 868.494,154.747 867,153.5C 866.322,151.402 866.489,149.402 867.5,147.5 Z"/></g>
<g><path style="opacity:1" fill="#363636" d="M 874.5,147.5 C 879.328,147.385 880.661,149.552 878.5,154C 873.57,154.427 872.237,152.26 874.5,147.5 Z"/></g>
<g><path style="opacity:1" fill="#f4f4f4" d="M 875.5,148.5 C 878.956,149.536 879.29,151.203 876.5,153.5C 874.296,152.218 873.962,150.551 875.5,148.5 Z"/></g>
<g><path style="opacity:1" fill="#353535" d="M 1099.5,147.5 C 1104.33,147.385 1105.66,149.552 1103.5,154C 1098.57,154.427 1097.24,152.26 1099.5,147.5 Z"/></g>
<g><path style="opacity:1" fill="#f3f3f3" d="M 1100.5,148.5 C 1103.96,149.536 1104.29,151.203 1101.5,153.5C 1099.3,152.218 1098.96,150.551 1100.5,148.5 Z"/></g>
<g><path style="opacity:1" fill="#525252" d="M 1114.5,148.5 C 1114.5,150.167 1114.5,151.833 1114.5,153.5C 1111.83,151.833 1111.83,150.167 1114.5,148.5 Z"/></g>
<g><path style="opacity:1" fill="#5a5a5a" d="M 1294.5,145.5 C 1296.74,148.057 1297.91,151.057 1298,154.5C 1295.92,151.967 1293.92,151.967 1292,154.5C 1291.64,151.206 1292.47,148.206 1294.5,145.5 Z"/></g>
<g><path style="opacity:1" fill="#ebebeb" d="M 1294.5,147.5 C 1295.78,148.386 1295.78,149.386 1294.5,150.5C 1293.91,149.767 1293.91,148.767 1294.5,147.5 Z"/></g>
<g><path style="opacity:1" fill="#dbdbdb" d="M 1091.5,150.5 C 1092.83,150.5 1094.17,150.5 1095.5,150.5C 1095.5,151.5 1095.5,152.5 1095.5,153.5C 1094.17,153.5 1092.83,153.5 1091.5,153.5C 1091.5,152.5 1091.5,151.5 1091.5,150.5 Z"/></g>
<g><path style="opacity:1" fill="#505050" d="M 621.5,148.5 C 622.848,147.814 624.015,146.814 625,145.5C 625.498,148.482 625.665,151.482 625.5,154.5C 622.135,155.036 620.135,153.703 619.5,150.5C 619.747,149.287 620.414,148.62 621.5,148.5 Z"/></g>
<g><path style="opacity:1" fill="#fafafa" d="M 621.5,148.5 C 624.956,149.536 625.29,151.203 622.5,153.5C 621.548,151.955 621.215,150.288 621.5,148.5 Z"/></g>
<g><path style="opacity:1" fill="#545454" d="M 627.5,147.5 C 629.177,155.172 630.843,155.172 632.5,147.5C 633.474,149.743 633.808,152.076 633.5,154.5C 628.094,155.265 626.094,152.931 627.5,147.5 Z"/></g>
<g><path style="opacity:1" fill="#5d5d5d" d="M 636.5,148.5 C 636.215,150.288 636.548,151.955 637.5,153.5C 638.167,153.167 638.833,152.833 639.5,152.5C 640.696,152.846 640.696,153.346 639.5,154C 636.775,154.803 635.109,153.803 634.5,151C 634.639,149.699 635.305,148.866 636.5,148.5 Z"/></g>
<g><path style="opacity:1" fill="#161616" d="M 708.5,164.5 C 711.518,164.335 714.518,164.502 717.5,165C 720.167,167.667 720.167,170.333 717.5,173C 720.379,174.666 721.212,177.166 720,180.5C 716.417,182.29 712.584,182.957 708.5,182.5C 708.5,176.5 708.5,170.5 708.5,164.5 Z"/></g>
<g><path style="opacity:1" fill="#202020" d="M 762.5,164.5 C 763.816,167.087 764.483,170.087 764.5,173.5C 764.167,176.5 763.833,179.5 763.5,182.5C 760.998,182.379 758.332,182.212 755.5,182C 752.544,177.335 752.878,173.002 756.5,169C 758.235,168.349 759.902,168.515 761.5,169.5C 762.452,167.955 762.785,166.288 762.5,164.5 Z"/></g>
<g><path style="opacity:1" fill="#090909" d="M 977.5,182.5 C 977.828,177.125 977.495,171.792 976.5,166.5C 975.893,166.624 975.56,166.957 975.5,167.5C 974.425,168.562 973.425,168.562 972.5,167.5C 974.071,165.585 976.071,164.585 978.5,164.5C 978.823,170.69 978.49,176.69 977.5,182.5 Z"/></g>
<g><path style="opacity:1" fill="#1e1e1e" d="M 1091.5,164.5 C 1094.85,164.335 1098.18,164.502 1101.5,165C 1104.17,167.667 1104.17,170.333 1101.5,173C 1105.5,176 1105.5,179 1101.5,182C 1098.18,182.498 1094.85,182.665 1091.5,182.5C 1091.5,176.5 1091.5,170.5 1091.5,164.5 Z"/></g>
<g><path style="opacity:1" fill="#090909" d="M 1178.5,164.5 C 1179.5,164.5 1180.5,164.5 1181.5,164.5C 1181.83,170.537 1181.5,176.537 1180.5,182.5C 1179.67,177.198 1179.17,171.864 1179,166.5C 1178.03,168.26 1176.87,168.594 1175.5,167.5C 1176.34,166.265 1177.34,165.265 1178.5,164.5 Z"/></g>
<g><path style="opacity:1" fill="#1d1d1d" d="M 941.5,165.5 C 943.048,165.821 943.715,166.821 943.5,168.5C 947.5,169.167 947.5,169.833 943.5,170.5C 943.335,173.518 943.502,176.518 944,179.5C 944.925,180.047 945.758,180.713 946.5,181.5C 944.741,182.754 943.241,182.421 942,180.5C 941.985,176.585 941.152,172.918 939.5,169.5C 940.853,168.476 941.52,167.143 941.5,165.5 Z"/></g>
<g><path style="opacity:1" fill="#212121" d="M 959.5,164.5 C 961.256,165.552 961.923,167.219 961.5,169.5C 963.167,169.5 964.833,169.5 966.5,169.5C 966.215,167.712 966.548,166.045 967.5,164.5C 968.052,166.003 968.052,167.669 967.5,169.5C 968.552,169.351 969.552,169.517 970.5,170C 967.124,170.307 965.79,172.14 966.5,175.5C 967.675,175.281 968.675,175.614 969.5,176.5C 968.311,177.429 966.978,177.762 965.5,177.5C 965.785,179.288 965.452,180.955 964.5,182.5C 963.253,180.994 963.253,179.494 964.5,178C 962.866,177.506 961.199,177.34 959.5,177.5C 959.785,179.288 959.452,180.955 958.5,182.5C 957.827,180.311 956.827,178.311 955.5,176.5C 956.325,175.614 957.325,175.281 958.5,175.5C 958.672,173.508 958.005,171.842 956.5,170.5C 957.325,169.614 958.325,169.281 959.5,169.5C 959.5,167.833 959.5,166.167 959.5,164.5 Z"/></g>
<g><path style="opacity:1" fill="#181818" d="M 1296.5,164.5 C 1298.53,164.338 1300.53,164.505 1302.5,165C 1304.42,166.241 1304.75,167.741 1303.5,169.5C 1302.41,166.289 1300.41,165.289 1297.5,166.5C 1296.53,168.743 1296.19,171.076 1296.5,173.5C 1301.83,174.167 1301.83,174.833 1296.5,175.5C 1296.71,177.144 1296.38,178.644 1295.5,180C 1298.55,180.179 1301.55,180.679 1304.5,181.5C 1300.5,182.833 1296.5,182.833 1292.5,181.5C 1295.01,179.132 1295.01,176.799 1292.5,174.5C 1293.92,171.15 1295.25,167.817 1296.5,164.5 Z"/></g>
<g><path style="opacity:1" fill="#f0f0f0" d="M 710.5,166.5 C 712.833,166.5 715.167,166.5 717.5,166.5C 718.265,171.906 715.931,173.906 710.5,172.5C 710.5,170.5 710.5,168.5 710.5,166.5 Z"/></g>
<g><path style="opacity:1" fill="#e9e9e9" d="M 1093.5,166.5 C 1095.86,166.337 1098.19,166.503 1100.5,167C 1101.86,168.938 1101.53,170.604 1099.5,172C 1097.53,172.495 1095.53,172.662 1093.5,172.5C 1093.5,170.5 1093.5,168.5 1093.5,166.5 Z"/></g>
<g><path style="opacity:1" fill="#1b1b1b" d="M 857.5,164.5 C 859.888,165.219 861.388,166.885 862,169.5C 863.222,173.61 864.722,177.61 866.5,181.5C 866.167,181.833 865.833,182.167 865.5,182.5C 864.05,181.345 863.05,179.845 862.5,178C 857.639,176.525 854.306,178.025 852.5,182.5C 852.167,181.833 851.833,181.167 851.5,180.5C 853.513,175.146 855.513,169.813 857.5,164.5 Z"/></g>
<g><path style="opacity:1" fill="#606060" d="M 975.5,167.5 C 975.56,166.957 975.893,166.624 976.5,166.5C 977.495,171.792 977.828,177.125 977.5,182.5C 976.833,177.5 976.167,172.5 975.5,167.5 Z"/></g>
<g><path style="opacity:1" fill="#171717" d="M 1342.5,164.5 C 1345.97,163.875 1348.8,164.875 1351,167.5C 1351.67,171.167 1351.67,174.833 1351,178.5C 1348.45,182.925 1345.12,183.592 1341,180.5C 1338.54,174.727 1339.04,169.394 1342.5,164.5 Z"/></g>
<g><path style="opacity:1" fill="#f3f3f3" d="M 1344.5,165.5 C 1345.82,165.33 1346.99,165.663 1348,166.5C 1349.52,170.375 1349.85,174.375 1349,178.5C 1347.27,180.602 1345.27,180.935 1343,179.5C 1340.62,174.406 1341.12,169.739 1344.5,165.5 Z"/></g>
<g><path style="opacity:1" fill="#1a1a1a" d="M 1326.5,164.5 C 1334.57,164.23 1337.74,168.23 1336,176.5C 1334.96,181.223 1332.12,183.056 1327.5,182C 1322.5,176.467 1322.17,170.633 1326.5,164.5 Z"/></g>
<g><path style="opacity:1" fill="#e8e8e8" d="M 1328.5,165.5 C 1332.72,166.071 1334.72,168.571 1334.5,173C 1334.37,175.253 1333.87,177.419 1333,179.5C 1331.19,180.76 1329.35,180.76 1327.5,179.5C 1324.64,174.551 1324.97,169.885 1328.5,165.5 Z"/></g>
<g><path style="opacity:1" fill="#1e1e1e" d="M 605.5,164.5 C 614.649,164.156 618.149,168.489 616,177.5C 610.579,184.433 605.579,184.1 601,176.5C 600.02,171.476 601.52,167.476 605.5,164.5 Z"/></g>
<g><path style="opacity:1" fill="#f7f7f7" d="M 605.5,166.5 C 613.515,165.8 616.348,169.466 614,177.5C 610.619,181.485 607.286,181.485 604,177.5C 603.013,173.525 603.513,169.859 605.5,166.5 Z"/></g>
<g><path style="opacity:1" fill="#2c2c2c" d="M 620.5,168.5 C 623.085,169.072 625.751,169.239 628.5,169C 629.333,169.833 630.167,170.667 631,171.5C 631.499,175.152 631.665,178.818 631.5,182.5C 630.5,182.5 629.5,182.5 628.5,182.5C 628.665,178.818 628.499,175.152 628,171.5C 626.333,170.167 624.667,170.167 623,171.5C 622.825,175.211 622.325,178.878 621.5,182.5C 620.507,177.88 620.173,173.214 620.5,168.5 Z"/></g>
<g><path style="opacity:1" fill="#151515" d="M 677.5,168.5 C 678.75,168.577 679.583,169.244 680,170.5C 681.241,168.579 682.741,168.246 684.5,169.5C 682.807,170.228 681.307,171.228 680,172.5C 679.824,175.882 679.324,179.215 678.5,182.5C 677.507,177.88 677.173,173.214 677.5,168.5 Z"/></g>
<g><path style="opacity:1" fill="#2f2f2f" d="M 738.5,168.5 C 740.71,169.583 742.877,169.583 745,168.5C 746.711,168.439 748.044,169.106 749,170.5C 749.827,174.541 749.66,178.541 748.5,182.5C 747.675,178.878 747.175,175.211 747,171.5C 745.333,170.167 743.667,170.167 742,171.5C 741.501,175.152 741.335,178.818 741.5,182.5C 740.5,182.5 739.5,182.5 738.5,182.5C 738.5,177.833 738.5,173.167 738.5,168.5 Z"/></g>
<g><path style="opacity:1" fill="#dbdbdb" d="M 858.5,167.5 C 860.02,169.89 861.02,172.557 861.5,175.5C 859.396,175.799 857.396,175.466 855.5,174.5C 856.702,172.22 857.702,169.886 858.5,167.5 Z"/></g>
<g><path style="opacity:1" fill="#161616" d="M 899.5,168.5 C 906.771,168.036 909.604,171.369 908,178.5C 906.309,182.213 903.475,183.379 899.5,182C 895.555,177.503 895.555,173.003 899.5,168.5 Z"/></g>
<g><path style="opacity:1" fill="#191919" d="M 911.5,168.5 C 913.25,171.355 914.083,174.689 914,178.5C 915.916,181.033 917.916,181.033 920,178.5C 920.176,175.118 920.676,171.785 921.5,168.5C 922.833,173.167 922.833,177.833 921.5,182.5C 920.808,181.975 920.308,181.308 920,180.5C 917.925,182.648 915.592,182.982 913,181.5C 911.633,177.3 911.133,172.967 911.5,168.5 Z"/></g>
<g><path style="opacity:1" fill="#232323" d="M 926.5,168.5 C 928.482,169.817 930.482,169.817 932.5,168.5C 934.029,168.529 935.196,169.196 936,170.5C 936.827,174.541 936.66,178.541 935.5,182.5C 934.675,178.878 934.175,175.211 934,171.5C 932.333,170.167 930.667,170.167 929,171.5C 928.825,175.211 928.325,178.878 927.5,182.5C 926.507,177.88 926.173,173.214 926.5,168.5 Z"/></g>
<g><path style="opacity:1" fill="#090909" d="M 1125.5,170.5 C 1124.89,174.459 1124.23,178.459 1123.5,182.5C 1122.17,177.833 1122.17,173.167 1123.5,168.5C 1124.18,169.243 1124.85,169.909 1125.5,170.5 Z"/></g>
<g><path style="opacity:1" fill="#181818" d="M 1125.5,170.5 C 1127.67,167.932 1130,167.932 1132.5,170.5C 1133.77,174.484 1133.77,178.484 1132.5,182.5C 1131.77,178.826 1131.1,175.159 1130.5,171.5C 1128.95,170.548 1127.29,170.215 1125.5,170.5 Z"/></g>
<g><path style="opacity:1" fill="#2b2b2b" d="M 647.5,164.5 C 648.5,164.5 649.5,164.5 650.5,164.5C 650.34,166.199 650.506,167.866 651,169.5C 657.02,167.679 659.52,170.012 658.5,176.5C 658.167,178.5 657.833,180.5 657.5,182.5C 656.675,178.878 656.175,175.211 656,171.5C 654.612,170.446 653.112,170.28 651.5,171C 650.54,174.73 650.207,178.563 650.5,182.5C 649.5,182.5 648.5,182.5 647.5,182.5C 647.5,176.5 647.5,170.5 647.5,164.5 Z"/></g>
<g><path style="opacity:1" fill="#191919" d="M 665.5,168.5 C 672.141,168.639 674.974,171.972 674,178.5C 670.74,183.285 667.073,183.619 663,179.5C 661.812,175.259 662.645,171.592 665.5,168.5 Z"/></g>
<g><path style="opacity:1" fill="#ececec" d="M 665.5,170.5 C 670.039,169.539 672.372,171.373 672.5,176C 671.556,180.332 669.056,181.499 665,179.5C 664.264,176.408 664.431,173.408 665.5,170.5 Z"/></g>
<g><path style="opacity:1" fill="#f3f3f3" d="M 756.5,170.5 C 758.288,170.215 759.955,170.548 761.5,171.5C 762.795,174.366 762.795,177.199 761.5,180C 759.559,180.743 757.726,180.576 756,179.5C 755.264,176.408 755.431,173.408 756.5,170.5 Z"/></g>
<g><path style="opacity:1" fill="#f4f4f4" d="M 900.5,170.5 C 905.989,170.504 907.822,173.171 906,178.5C 903.602,181.054 901.269,181.054 899,178.5C 898.109,175.502 898.609,172.836 900.5,170.5 Z"/></g>
<g><path style="opacity:1" fill="#1e1e1e" d="M 689.5,168.5 C 695.167,168.167 697.833,170.833 697.5,176.5C 694.5,176.5 691.5,176.5 688.5,176.5C 688.78,180.225 690.78,181.392 694.5,180C 695.424,178.511 696.424,178.344 697.5,179.5C 694.285,182.953 690.785,183.287 687,180.5C 684.455,175.723 685.288,171.723 689.5,168.5 Z"/></g>
<g><path style="opacity:1" fill="#ececec" d="M 689.5,170.5 C 692.278,170.022 694.278,171.022 695.5,173.5C 692.833,174.833 690.167,174.833 687.5,173.5C 688.193,172.482 688.859,171.482 689.5,170.5 Z"/></g>
<g><path style="opacity:1" fill="#171717" d="M 727.5,168.5 C 734.409,168.953 736.909,172.62 735,179.5C 730.837,183.747 727.171,183.414 724,178.5C 722.756,174.191 723.923,170.858 727.5,168.5 Z"/></g>
<g><path style="opacity:1" fill="#f4f4f4" d="M 727.5,170.5 C 732.989,170.504 734.822,173.171 733,178.5C 730.731,181.054 728.398,181.054 726,178.5C 725.109,175.502 725.609,172.836 727.5,170.5 Z"/></g>
<g><path style="opacity:1" fill="#1b1b1b" d="M 871.5,168.5 C 874.798,168.016 877.464,169.016 879.5,171.5C 879.167,171.833 878.833,172.167 878.5,172.5C 874.49,169.333 871.823,170.166 870.5,175C 871.236,180.681 873.903,181.848 878.5,178.5C 879.594,179.868 879.26,181.035 877.5,182C 870.167,182.997 867.334,179.83 869,172.5C 869.662,171.016 870.496,169.683 871.5,168.5 Z"/></g>
<g><path style="opacity:1" fill="#171717" d="M 885.5,168.5 C 888.798,168.016 891.464,169.016 893.5,171.5C 893.167,171.833 892.833,172.167 892.5,172.5C 886.196,169.288 883.696,171.288 885,178.5C 887.459,181.1 889.959,181.1 892.5,178.5C 893.594,179.868 893.26,181.035 891.5,182C 884.24,183.033 881.407,179.867 883,172.5C 883.662,171.016 884.496,169.683 885.5,168.5 Z"/></g>
<g><path style="opacity:1" fill="#dadada" d="M 961.5,170.5 C 962.833,170.5 964.167,170.5 965.5,170.5C 965.5,172.167 965.5,173.833 965.5,175.5C 963.833,175.5 962.167,175.5 960.5,175.5C 960.366,173.708 960.699,172.042 961.5,170.5 Z"/></g>
<g><path style="opacity:1" fill="#1d1d1d" d="M 1110.5,168.5 C 1117.31,168.451 1120.14,171.784 1119,178.5C 1115.74,183.285 1112.07,183.619 1108,179.5C 1106.81,175.259 1107.65,171.592 1110.5,168.5 Z"/></g>
<g><path style="opacity:1" fill="#f2f2f2" d="M 1111.5,170.5 C 1117.55,171.46 1118.88,174.627 1115.5,180C 1113.56,180.743 1111.73,180.576 1110,179.5C 1109.07,176.177 1109.57,173.177 1111.5,170.5 Z"/></g>
<g><path style="opacity:1" fill="#151515" d="M 1146.5,164.5 C 1147.82,167.087 1148.48,170.087 1148.5,173.5C 1148.17,176.5 1147.83,179.5 1147.5,182.5C 1146.68,180.252 1145.68,180.086 1144.5,182C 1137.92,182.401 1135.42,179.235 1137,172.5C 1139.19,168.128 1142.19,167.461 1146,170.5C 1146.5,168.527 1146.66,166.527 1146.5,164.5 Z"/></g>
<g><path style="opacity:1" fill="#f3f3f3" d="M 1140.5,170.5 C 1145.99,170.504 1147.82,173.171 1146,178.5C 1143.67,181.167 1141.33,181.167 1139,178.5C 1138.28,175.593 1138.78,172.926 1140.5,170.5 Z"/></g>
<g><path style="opacity:1" fill="#171717" d="M 1310.5,164.5 C 1316.99,162.835 1319.82,165.168 1319,171.5C 1318.5,172 1318,172.5 1317.5,173C 1321.5,176 1321.5,179 1317.5,182C 1314.41,182.847 1311.58,182.347 1309,180.5C 1308.25,179.365 1308.42,178.365 1309.5,177.5C 1312.55,181.485 1315.55,181.485 1318.5,177.5C 1318.39,176.558 1318.06,175.725 1317.5,175C 1311.64,174.43 1311.31,173.263 1316.5,171.5C 1317.01,164.992 1314.68,163.992 1309.5,168.5C 1309.17,168.167 1308.83,167.833 1308.5,167.5C 1309.19,166.482 1309.86,165.482 1310.5,164.5 Z"/></g>
<g><path style="opacity:1" fill="#f8f8f8" d="M 710.5,174.5 C 712.857,174.337 715.19,174.503 717.5,175C 718.833,176.667 718.833,178.333 717.5,180C 715.19,180.497 712.857,180.663 710.5,180.5C 710.5,178.5 710.5,176.5 710.5,174.5 Z"/></g>
<g><path style="opacity:1" fill="#e4e4e4" d="M 1093.5,174.5 C 1096.19,174.336 1098.85,174.503 1101.5,175C 1102.99,177.022 1102.66,178.688 1100.5,180C 1098.19,180.497 1095.86,180.663 1093.5,180.5C 1093.5,178.5 1093.5,176.5 1093.5,174.5 Z"/></g>
<g><path style="opacity:1" fill="#1b1b1b" d="M 637.5,168.5 C 639.827,168.247 641.827,168.914 643.5,170.5C 641.657,170.755 639.657,170.922 637.5,171C 637.043,171.414 636.709,171.914 636.5,172.5C 638.682,174.294 641.182,175.627 644,176.5C 644.486,181.992 641.986,183.825 636.5,182C 634.74,181.035 634.406,179.868 635.5,178.5C 637.942,181.132 640.275,181.132 642.5,178.5C 640.093,177.103 637.593,175.77 635,174.5C 634.034,171.66 634.867,169.66 637.5,168.5 Z"/></g>
<g><path style="opacity:1" fill="#1e1e1e" d="M 771.5,168.5 C 774.596,167.907 776.929,168.907 778.5,171.5C 778.167,171.833 777.833,172.167 777.5,172.5C 775.827,170.914 773.827,170.247 771.5,170.5C 771.351,171.552 771.517,172.552 772,173.5C 773.816,174.329 775.649,175.163 777.5,176C 778.799,181.689 776.466,183.689 770.5,182C 768.74,181.035 768.406,179.868 769.5,178.5C 771.51,180.171 773.843,180.838 776.5,180.5C 776.649,179.448 776.483,178.448 776,177.5C 772.561,177.191 770.061,175.524 768.5,172.5C 769.524,171.148 770.524,169.815 771.5,168.5 Z"/></g>
<g><path style="opacity:1" fill="#202020" d="M 1162.5,164.5 C 1164.26,165.552 1164.92,167.219 1164.5,169.5C 1168.04,169.785 1169.87,168.118 1170,164.5C 1170.21,166.78 1171.05,168.78 1172.5,170.5C 1169.18,172.105 1168.85,174.105 1171.5,176.5C 1170.68,177.386 1169.68,177.719 1168.5,177.5C 1167.83,184.167 1167.17,184.167 1166.5,177.5C 1165.17,177.5 1163.83,177.5 1162.5,177.5C 1162.77,179.429 1162.27,181.095 1161,182.5C 1160.79,180.22 1159.95,178.22 1158.5,176.5C 1159.32,175.614 1160.32,175.281 1161.5,175.5C 1161.67,173.508 1161,171.842 1159.5,170.5C 1160.32,169.614 1161.32,169.281 1162.5,169.5C 1162.5,167.833 1162.5,166.167 1162.5,164.5 Z"/></g>
<g><path style="opacity:1" fill="#fefffe" d="M 1163.5,171.5 C 1164.83,171.5 1166.17,171.5 1167.5,171.5C 1167.5,172.833 1167.5,174.167 1167.5,175.5C 1166.17,175.5 1164.83,175.5 1163.5,175.5C 1163.5,174.167 1163.5,172.833 1163.5,171.5 Z"/></g>
<g><path style="opacity:1" fill="#929292" d="M 118.5,345.5 C 114.167,345.5 109.833,345.5 105.5,345.5C 105.5,356.5 105.5,367.5 105.5,378.5C 104.505,367.346 104.172,356.012 104.5,344.5C 109.363,344.181 114.03,344.514 118.5,345.5 Z"/></g>
<g><path style="opacity:1" fill="#151515" d="M 118.5,345.5 C 122.09,345.544 124.59,347.211 126,350.5C 127.942,356.89 126.109,361.723 120.5,365C 123.213,368.924 125.547,373.091 127.5,377.5C 126.349,378.731 125.183,378.731 124,377.5C 122.213,373.423 120.046,369.59 117.5,366C 114.518,365.502 111.518,365.335 108.5,365.5C 108.5,369.833 108.5,374.167 108.5,378.5C 107.5,378.5 106.5,378.5 105.5,378.5C 105.5,367.5 105.5,356.5 105.5,345.5C 109.833,345.5 114.167,345.5 118.5,345.5 Z"/></g>
<g><path style="opacity:1" fill="#1f1f1f" d="M 185.5,344.5 C 188.5,344.167 189.833,345.5 189.5,348.5C 188.167,348.5 186.833,348.5 185.5,348.5C 185.5,347.167 185.5,345.833 185.5,344.5 Z"/></g>
<g><path style="opacity:1" fill="#666666" d="M 335.5,345.5 C 336.209,344.596 337.209,344.263 338.5,344.5C 338.5,356.167 338.5,367.833 338.5,379.5C 337.209,379.737 336.209,379.404 335.5,378.5C 336.829,373.376 337.495,367.876 337.5,362C 337.495,356.124 336.829,350.624 335.5,345.5 Z"/></g>
<g><path style="opacity:1" fill="#f6f6f6" d="M 108.5,347.5 C 112.182,347.335 115.848,347.501 119.5,348C 122.859,349.135 124.192,351.468 123.5,355C 123.695,357.352 123.028,359.352 121.5,361C 117.3,362.367 112.967,362.867 108.5,362.5C 108.5,357.5 108.5,352.5 108.5,347.5 Z"/></g>
<g><path style="opacity:1" fill="#121212" d="M 139.5,353.5 C 149.146,352.48 154.146,356.813 154.5,366.5C 148.167,366.5 141.833,366.5 135.5,366.5C 135.529,374.696 139.529,377.863 147.5,376C 149.303,375.363 150.636,374.197 151.5,372.5C 153.645,373.682 153.645,375.182 151.5,377C 137.344,381.863 131.178,376.696 133,361.5C 134.277,358.062 136.443,355.395 139.5,353.5 Z"/></g>
<g><path style="opacity:1" fill="#151515" d="M 158.5,353.5 C 159.675,353.281 160.675,353.614 161.5,354.5C 164.001,361.172 166.501,367.839 169,374.5C 171.398,367.806 173.898,361.139 176.5,354.5C 177.5,353.167 178.5,353.167 179.5,354.5C 176.593,362.389 173.593,370.223 170.5,378C 169.216,378.684 168.049,378.517 167,377.5C 164.061,369.514 161.227,361.514 158.5,353.5 Z"/></g>
<g><path style="opacity:1" fill="#0b0b0b" d="M 185.5,353.5 C 186.5,353.5 187.5,353.5 188.5,353.5C 188.5,361.833 188.5,370.167 188.5,378.5C 187.5,378.5 186.5,378.5 185.5,378.5C 185.5,370.167 185.5,361.833 185.5,353.5 Z"/></g>
<g><path style="opacity:1" fill="#111111" d="M 216.5,361.5 C 216.5,363.167 216.5,364.833 216.5,366.5C 210.31,366.177 204.31,366.51 198.5,367.5C 199.082,374.969 203.082,377.802 210.5,376C 212.043,373 214.043,372.334 216.5,374C 210.775,380.655 204.608,381.155 198,375.5C 193.736,367.341 194.902,360.174 201.5,354C 209.042,351.77 214.042,354.27 216.5,361.5 Z"/></g>
<g><path style="opacity:1" fill="#181818" d="M 221.5,354.5 C 222.568,353.566 223.901,353.232 225.5,353.5C 226.86,360.604 228.693,367.604 231,374.5C 232.994,367.524 234.827,360.524 236.5,353.5C 238.451,353.227 239.951,353.893 241,355.5C 242.667,361.5 244.333,367.5 246,373.5C 248.198,367.239 250.198,360.905 252,354.5C 253.049,353.483 254.216,353.316 255.5,354C 252.458,361.959 250.125,370.126 248.5,378.5C 247.167,378.5 245.833,378.5 244.5,378.5C 243.104,371.647 241.104,364.98 238.5,358.5C 236.165,364.338 234.332,370.338 233,376.5C 232.047,378.592 230.714,378.925 229,377.5C 226.764,369.626 224.264,361.96 221.5,354.5 Z"/></g>
<g><path style="opacity:1" fill="#151515" d="M 279.5,353.5 C 293.299,353.388 298.133,360.055 294,373.5C 290.153,379.388 284.987,380.888 278.5,378C 273.798,373.078 272.298,367.245 274,360.5C 275.371,357.734 277.204,355.401 279.5,353.5 Z"/></g>
<g><path style="opacity:1" fill="#020202" d="M 302.5,353.5 C 304.045,354.23 304.878,355.563 305,357.5C 306.926,353.818 309.759,352.818 313.5,354.5C 309.665,355.161 306.831,357.161 305,360.5C 304.83,366.528 304.33,372.528 303.5,378.5C 302.502,370.193 302.169,361.86 302.5,353.5 Z"/></g>
<g><path style="opacity:1" fill="#121212" d="M 335.5,345.5 C 336.829,350.624 337.495,356.124 337.5,362C 337.495,367.876 336.829,373.376 335.5,378.5C 335.657,377.127 335.49,375.793 335,374.5C 327.819,381.637 321.819,380.637 317,371.5C 315.428,364.551 317.261,358.718 322.5,354C 325.5,353.333 328.5,353.333 331.5,354C 333.049,355.214 334.215,356.714 335,358.5C 335.499,354.179 335.666,349.846 335.5,345.5 Z"/></g>
<g><path style="opacity:1" fill="#111111" d="M 366.5,361.5 C 366.5,363.167 366.5,364.833 366.5,366.5C 360.31,366.177 354.31,366.51 348.5,367.5C 349.033,375.197 353.033,378.03 360.5,376C 362.207,374.68 363.874,373.68 365.5,373C 365.833,373.333 366.167,373.667 366.5,374C 361.691,379.857 356.025,380.857 349.5,377C 343.874,369.326 344.208,361.993 350.5,355C 358.366,351.451 363.699,353.617 366.5,361.5 Z"/></g>
<g><path style="opacity:1" fill="#141414" d="M 373.5,353.5 C 374.5,353.5 375.5,353.5 376.5,353.5C 376.351,354.552 376.517,355.552 377,356.5C 379.38,353.725 382.213,353.058 385.5,354.5C 381.859,354.795 379.025,356.461 377,359.5C 376.5,365.825 376.334,372.158 376.5,378.5C 375.5,378.5 374.5,378.5 373.5,378.5C 373.5,370.167 373.5,361.833 373.5,353.5 Z"/></g>
<g><path style="opacity:1" fill="#efefef" d="M 140.5,355.5 C 147.069,354.951 150.735,357.951 151.5,364.5C 146.167,364.5 140.833,364.5 135.5,364.5C 135.343,363.127 135.51,361.793 136,360.5C 137.707,358.963 139.207,357.296 140.5,355.5 Z"/></g>
<g><path style="opacity:1" fill="#efefef" d="M 203.5,355.5 C 209.888,355.224 213.555,358.224 214.5,364.5C 209.167,364.5 203.833,364.5 198.5,364.5C 198.372,360.415 200.039,357.415 203.5,355.5 Z"/></g>
<g><path style="opacity:1" fill="#f7f7f7" d="M 281.5,355.5 C 290.863,356.193 294.363,361.193 292,370.5C 289.983,375.924 286.15,377.758 280.5,376C 278.951,374.786 277.785,373.286 277,371.5C 276.333,367.833 276.333,364.167 277,360.5C 278.193,358.503 279.693,356.836 281.5,355.5 Z"/></g>
<g><path style="opacity:1" fill="#f3f3f3" d="M 324.5,355.5 C 333.836,356.125 337.336,361.125 335,370.5C 332.523,376.45 328.357,377.95 322.5,375C 317.956,367.864 318.623,361.364 324.5,355.5 Z"/></g>
<g><path style="opacity:1" fill="#f1f1f1" d="M 353.5,355.5 C 359.844,355.174 363.511,358.174 364.5,364.5C 359.167,364.5 353.833,364.5 348.5,364.5C 348.884,360.728 350.55,357.728 353.5,355.5 Z"/></g>
<g><path style="opacity:1" fill="#7f7f7f" d="M 216.5,361.5 C 217.461,363.265 217.795,365.265 217.5,367.5C 211.167,367.5 204.833,367.5 198.5,367.5C 204.31,366.51 210.31,366.177 216.5,366.5C 216.5,364.833 216.5,363.167 216.5,361.5 Z"/></g>
<g><path style="opacity:1" fill="#797979" d="M 366.5,361.5 C 367.461,363.265 367.795,365.265 367.5,367.5C 361.167,367.5 354.833,367.5 348.5,367.5C 354.31,366.51 360.31,366.177 366.5,366.5C 366.5,364.833 366.5,363.167 366.5,361.5 Z"/></g>
<g><path style="opacity:1" fill="#0f0f0f" d="M 100.5,405.5 C 266.833,405.5 433.167,405.5 599.5,405.5C 599.5,407.167 599.5,408.833 599.5,410.5C 433.167,410.5 266.833,410.5 100.5,410.5C 100.5,408.833 100.5,407.167 100.5,405.5 Z"/></g>
<g><path style="opacity:1" fill="#606060" d="M 721.5,487.5 C 621.167,487.5 520.833,487.5 420.5,487.5C 420.5,550.833 420.5,614.167 420.5,677.5C 419.501,614.002 419.168,550.336 419.5,486.5C 520.335,486.167 621.001,486.501 721.5,487.5 Z"/></g>
<g><path style="opacity:1" fill="#606060" d="M 1086.5,487.5 C 972.833,487.5 859.167,487.5 745.5,487.5C 745.5,550.833 745.5,614.167 745.5,677.5C 744.501,614.002 744.168,550.336 744.5,486.5C 858.668,486.167 972.668,486.5 1086.5,487.5 Z"/></g>
<g><path style="opacity:1" fill="#737373" d="M 396.5,487.5 C 297.5,487.5 198.5,487.5 99.5,487.5C 99.5,550.833 99.5,614.167 99.5,677.5C 98.5009,614.002 98.1675,550.336 98.5,486.5C 198.001,486.167 297.335,486.501 396.5,487.5 Z"/></g>
<g><path style="opacity:1" fill="#0f0f0f" d="M 396.5,487.5 C 396.5,550.833 396.5,614.167 396.5,677.5C 297.5,677.5 198.5,677.5 99.5,677.5C 99.5,614.167 99.5,550.833 99.5,487.5C 198.5,487.5 297.5,487.5 396.5,487.5 Z"/></g>
<g><path style="opacity:1" fill="#131313" d="M 721.5,487.5 C 721.5,550.833 721.5,614.167 721.5,677.5C 621.167,677.5 520.833,677.5 420.5,677.5C 420.5,614.167 420.5,550.833 420.5,487.5C 520.833,487.5 621.167,487.5 721.5,487.5 Z"/></g>
<g><path style="opacity:1" fill="#171717" d="M 1086.5,487.5 C 1086.5,550.833 1086.5,614.167 1086.5,677.5C 972.833,677.5 859.167,677.5 745.5,677.5C 745.5,614.167 745.5,550.833 745.5,487.5C 859.167,487.5 972.833,487.5 1086.5,487.5 Z"/></g>
<g><path style="opacity:1" fill="#494949" d="M 1406.5,677.5 C 1406.5,614.167 1406.5,550.833 1406.5,487.5C 1307.83,487.5 1209.17,487.5 1110.5,487.5C 1110.5,550.833 1110.5,614.167 1110.5,677.5C 1109.5,614.002 1109.17,550.336 1109.5,486.5C 1208.83,486.5 1308.17,486.5 1407.5,486.5C 1407.83,550.336 1407.5,614.002 1406.5,677.5 Z"/></g>
<g><path style="opacity:1" fill="#171717" d="M 1406.5,677.5 C 1307.83,677.5 1209.17,677.5 1110.5,677.5C 1110.5,614.167 1110.5,550.833 1110.5,487.5C 1209.17,487.5 1307.83,487.5 1406.5,487.5C 1406.5,550.833 1406.5,614.167 1406.5,677.5 Z"/></g>
<g><path style="opacity:1" fill="#fefefe" d="M 393.5,489.5 C 393.5,551.167 393.5,612.833 393.5,674.5C 296.167,674.5 198.833,674.5 101.5,674.5C 101.5,612.833 101.5,551.167 101.5,489.5C 198.833,489.5 296.167,489.5 393.5,489.5 Z"/></g>
<g><path style="opacity:1" fill="#fefefe" d="M 718.5,489.5 C 718.5,551.167 718.5,612.833 718.5,674.5C 619.833,674.5 521.167,674.5 422.5,674.5C 422.5,612.833 422.5,551.167 422.5,489.5C 521.167,489.5 619.833,489.5 718.5,489.5 Z"/></g>
<g><path style="opacity:1" fill="#fefefe" d="M 1083.5,489.5 C 1083.5,551.167 1083.5,612.833 1083.5,674.5C 971.5,674.5 859.5,674.5 747.5,674.5C 747.5,612.833 747.5,551.167 747.5,489.5C 859.5,489.5 971.5,489.5 1083.5,489.5 Z"/></g>
<g><path style="opacity:1" fill="#fefefe" d="M 1404.5,489.5 C 1404.5,551.167 1404.5,612.833 1404.5,674.5C 1307.17,674.5 1209.83,674.5 1112.5,674.5C 1112.5,612.833 1112.5,551.167 1112.5,489.5C 1209.83,489.5 1307.17,489.5 1404.5,489.5 Z"/></g>
<g><path style="opacity:1" fill="#323232" d="M 130.5,521.5 C 129.081,522.451 127.415,522.784 125.5,522.5C 125.657,523.873 125.49,525.207 125,526.5C 124.501,522.848 124.335,519.182 124.5,515.5C 128.445,514.573 131.112,515.906 132.5,519.5C 132.145,520.522 131.478,521.189 130.5,521.5 Z"/></g>
<g><path style="opacity:1" fill="#0c0c0c" d="M 154.5,526.5 C 154.5,525.833 154.5,525.167 154.5,524.5C 154.634,522.708 154.301,521.042 153.5,519.5C 154.29,518.391 154.79,517.058 155,515.5C 155.81,519.358 155.643,523.024 154.5,526.5 Z"/></g>
<g><path style="opacity:1" fill="#1f1f1f" d="M 176.5,516.5 C 177.309,517.469 178.309,518.302 179.5,519C 176.93,521.615 176.93,524.282 179.5,527C 178.551,527.617 177.718,527.451 177,526.5C 176.774,523.905 176.274,521.405 175.5,519C 176.252,518.329 176.586,517.496 176.5,516.5 Z"/></g>
<g><path style="opacity:1" fill="#9a9a9a" d="M 349.5,516.5 C 351.364,515.207 353.364,515.207 355.5,516.5C 353.955,517.452 352.288,517.785 350.5,517.5C 350.5,516.833 350.167,516.5 349.5,516.5 Z"/></g>
<g><path style="opacity:1" fill="#939393" d="M 674.5,516.5 C 676.035,515.212 677.701,515.212 679.5,516.5C 678.311,517.429 676.978,517.762 675.5,517.5C 675.5,516.833 675.167,516.5 674.5,516.5 Z"/></g>
<g><path style="opacity:1" fill="#3b3b3b" d="M 682.5,523.5 C 681.402,522.399 681.235,521.066 682,519.5C 683.996,519.004 685.663,518.004 687,516.5C 687.818,519.227 687.652,521.894 686.5,524.5C 684.512,526.147 683.179,525.814 682.5,523.5 Z"/></g>
<g><path style="opacity:1" fill="#474747" d="M 868.5,526.5 C 870.604,524.417 870.938,522.083 869.5,519.5C 870.29,518.391 870.79,517.058 871,515.5C 871.499,519.152 871.665,522.818 871.5,526.5C 870.5,526.5 869.5,526.5 868.5,526.5 Z"/></g>
<g><path style="opacity:1" fill="#939393" d="M 1039.5,516.5 C 1041.03,515.212 1042.7,515.212 1044.5,516.5C 1043.31,517.429 1041.98,517.762 1040.5,517.5C 1040.5,516.833 1040.17,516.5 1039.5,516.5 Z"/></g>
<g><path style="opacity:1" fill="#3e3e3e" d="M 1047.5,523.5 C 1048.83,523.5 1050.17,523.5 1051.5,523.5C 1051.83,520.5 1050.5,519.167 1047.5,519.5C 1049.19,518.897 1050.69,517.897 1052,516.5C 1052.82,519.227 1052.65,521.894 1051.5,524.5C 1049.51,526.147 1048.18,525.814 1047.5,523.5 Z"/></g>
<g><path style="opacity:1" fill="#9b9b9b" d="M 1361.5,517.5 C 1360.17,519.5 1360.17,521.5 1361.5,523.5C 1362.98,523.238 1364.31,523.571 1365.5,524.5C 1363.6,525.466 1361.6,525.799 1359.5,525.5C 1359.5,522.167 1359.5,518.833 1359.5,515.5C 1361.6,515.201 1363.6,515.534 1365.5,516.5C 1364.31,517.429 1362.98,517.762 1361.5,517.5 Z"/></g>
<g><path style="opacity:1" fill="#ededed" d="M 130.5,521.5 C 128.833,521.5 127.167,521.5 125.5,521.5C 125.5,519.833 125.5,518.167 125.5,516.5C 129.5,515.833 131.167,517.5 130.5,521.5 Z"/></g>
<g><path style="opacity:1" fill="#5a5a5a" d="M 772.5,515.5 C 775.044,515.104 777.211,515.771 779,517.5C 779.667,520.167 779.667,522.833 779,525.5C 772.623,528.804 769.623,526.804 770,519.5C 770.662,518.016 771.496,516.683 772.5,515.5 Z"/></g>
<g><path style="opacity:1" fill="#fbfbfb" d="M 773.5,516.5 C 778.383,517.466 779.717,520.299 777.5,525C 771.92,526.261 770.087,524.094 772,518.5C 772.717,517.956 773.217,517.289 773.5,516.5 Z"/></g>
<g><path style="opacity:1" fill="#2f2f2f" d="M 158.5,518.5 C 159.468,520.607 159.802,522.941 159.5,525.5C 160.833,525.5 162.167,525.5 163.5,525.5C 163.337,523.143 163.503,520.81 164,518.5C 164.818,521.227 164.652,523.894 163.5,526.5C 161.958,527.747 160.458,527.747 159,526.5C 158.503,523.854 158.336,521.187 158.5,518.5 Z"/></g>
<g><path style="opacity:1" fill="#3f3f3f" d="M 456.5,525.5 C 455.378,523.712 455.211,521.712 456,519.5C 457.814,518.24 459.647,518.24 461.5,519.5C 460.152,519.45 458.652,519.783 457,520.5C 456.506,522.134 456.34,523.801 456.5,525.5 Z"/></g>
<g><path style="opacity:1" fill="#6d6d6d" d="M 486.5,525.5 C 486.5,525.833 486.5,526.167 486.5,526.5C 485.458,527.791 484.292,527.791 483,526.5C 481.399,523.906 481.233,521.239 482.5,518.5C 483.474,520.743 483.808,523.076 483.5,525.5C 484.5,525.5 485.5,525.5 486.5,525.5 Z"/></g>
<g><path style="opacity:1" fill="#1d1d1d" d="M 486.5,526.5 C 486.5,526.167 486.5,525.833 486.5,525.5C 487.314,523.369 487.814,521.036 488,518.5C 488.167,519.833 488.333,521.167 488.5,522.5C 488.415,524.333 487.748,525.666 486.5,526.5 Z"/></g>
<g><path style="opacity:1" fill="#888888" d="M 493.5,518.5 C 493.5,518.833 493.5,519.167 493.5,519.5C 492.927,522.147 492.26,524.813 491.5,527.5C 490.516,524.572 490.183,521.572 490.5,518.5C 491.5,518.5 492.5,518.5 493.5,518.5 Z"/></g>
<g><path style="opacity:1" fill="#898989" d="M 784.5,518.5 C 784.5,518.833 784.5,519.167 784.5,519.5C 783.834,522.028 783.168,524.694 782.5,527.5C 781.516,524.572 781.183,521.572 781.5,518.5C 782.5,518.5 783.5,518.5 784.5,518.5 Z"/></g>
<g><path style="opacity:1" fill="#777777" d="M 1179.5,518.5 C 1179.5,518.833 1179.5,519.167 1179.5,519.5C 1178.83,521.698 1178.17,524.031 1177.5,526.5C 1176.52,523.914 1176.19,521.247 1176.5,518.5C 1177.5,518.5 1178.5,518.5 1179.5,518.5 Z"/></g>
<g><path style="opacity:1" fill="#f3f3f3" d="M 153.5,519.5 C 154.301,521.042 154.634,522.708 154.5,524.5C 153.542,524.953 152.708,525.619 152,526.5C 151.329,525.748 150.496,525.414 149.5,525.5C 148.599,521.759 149.932,519.759 153.5,519.5 Z"/></g>
<g><path style="opacity:1" fill="#515151" d="M 349.5,516.5 C 350.167,516.5 350.5,516.833 350.5,517.5C 351.335,518.943 352.668,519.943 354.5,520.5C 352.668,521.057 351.335,522.057 350.5,523.5C 350.5,524.167 350.167,524.5 349.5,524.5C 349.5,521.833 349.5,519.167 349.5,516.5 Z"/></g>
<g><path style="opacity:1" fill="#767676" d="M 367.5,516.5 C 368.922,516.75 369.922,517.583 370.5,519C 369.813,521.232 369.479,523.398 369.5,525.5C 368.914,525.291 368.414,524.957 368,524.5C 367.503,521.854 367.336,519.187 367.5,516.5 Z"/></g>
<g><path style="opacity:1" fill="#f6f6f6" d="M 474.5,519.5 C 478.548,520.262 479.548,522.596 477.5,526.5C 473.6,525.477 472.6,523.143 474.5,519.5 Z"/></g>
<g><path style="opacity:1" fill="#434343" d="M 500.5,516.5 C 501.309,517.469 502.309,518.302 503.5,519C 500.895,521.411 500.895,523.911 503.5,526.5C 502.726,527.711 501.893,527.711 501,526.5C 500.774,523.905 500.274,521.405 499.5,519C 500.252,518.329 500.586,517.496 500.5,516.5 Z"/></g>
<g><path style="opacity:1" fill="#535353" d="M 674.5,516.5 C 675.167,516.5 675.5,516.833 675.5,517.5C 676.335,518.943 677.668,519.943 679.5,520.5C 677.668,521.057 676.335,522.057 675.5,523.5C 675.5,524.167 675.167,524.5 674.5,524.5C 674.5,521.833 674.5,519.167 674.5,516.5 Z"/></g>
<g><path style="opacity:1" fill="#f0f0f0" d="M 682.5,523.5 C 682.222,521.654 682.889,520.32 684.5,519.5C 686.111,520.32 686.778,521.654 686.5,523.5C 685.167,523.5 683.833,523.5 682.5,523.5 Z"/></g>
<g><path style="opacity:1" fill="#6d6d6d" d="M 692.5,516.5 C 693.995,516.415 694.995,517.081 695.5,518.5C 694.75,520.93 694.417,523.264 694.5,525.5C 693.914,525.291 693.414,524.957 693,524.5C 692.503,521.854 692.336,519.187 692.5,516.5 Z"/></g>
<g><path style="opacity:1" fill="#4b4b4b" d="M 823.5,525.5 C 821.08,520.18 822.746,518.013 828.5,519C 829.38,520.356 829.714,521.856 829.5,523.5C 826.918,523.025 824.918,523.692 823.5,525.5 Z"/></g>
<g><path style="opacity:1" fill="#e4e4e4" d="M 824.5,519.5 C 826.346,519.222 827.68,519.889 828.5,521.5C 826.833,522.833 825.167,522.833 823.5,521.5C 823.863,520.817 824.196,520.15 824.5,519.5 Z"/></g>
<g><path style="opacity:1" fill="#ececec" d="M 869.5,519.5 C 870.938,522.083 870.604,524.417 868.5,526.5C 866.278,526.441 865.278,525.275 865.5,523C 865.424,520.244 866.757,519.077 869.5,519.5 Z"/></g>
<g><path style="opacity:1" fill="#5a5a5a" d="M 1039.5,516.5 C 1040.17,516.5 1040.5,516.833 1040.5,517.5C 1041.34,518.943 1042.67,519.943 1044.5,520.5C 1042.67,521.057 1041.34,522.057 1040.5,523.5C 1040.5,524.167 1040.17,524.5 1039.5,524.5C 1039.5,521.833 1039.5,519.167 1039.5,516.5 Z"/></g>
<g><path style="opacity:1" fill="#c1c1c1" d="M 1047.5,519.5 C 1050.5,519.167 1051.83,520.5 1051.5,523.5C 1050.17,523.5 1048.83,523.5 1047.5,523.5C 1046.17,522.167 1046.17,520.833 1047.5,519.5 Z"/></g>
<g><path style="opacity:1" fill="#616161" d="M 1057.5,516.5 C 1058.92,516.75 1059.92,517.583 1060.5,519C 1059.81,521.232 1059.48,523.398 1059.5,525.5C 1058.91,525.291 1058.41,524.957 1058,524.5C 1057.5,521.854 1057.34,519.187 1057.5,516.5 Z"/></g>
<g><path style="opacity:1" fill="#313131" d="M 1186.5,516.5 C 1187.31,517.469 1188.31,518.302 1189.5,519C 1186.9,521.411 1186.9,523.911 1189.5,526.5C 1188.73,527.711 1187.89,527.711 1187,526.5C 1186.77,523.905 1186.27,521.405 1185.5,519C 1186.25,518.329 1186.59,517.496 1186.5,516.5 Z"/></g>
<g><path style="opacity:1" fill="#5c5c5c" d="M 1361.5,517.5 C 1362.34,518.943 1363.67,519.943 1365.5,520.5C 1363.67,521.057 1362.34,522.057 1361.5,523.5C 1360.17,521.5 1360.17,519.5 1361.5,517.5 Z"/></g>
<g><path style="opacity:1" fill="#474747" d="M 1378.5,516.5 C 1379.27,517.172 1379.93,518.005 1380.5,519C 1379.57,521.5 1379.57,523.667 1380.5,525.5C 1378.95,523.667 1377.95,521.501 1377.5,519C 1378.25,518.329 1378.59,517.496 1378.5,516.5 Z"/></g>
<g><path style="opacity:1" fill="#464646" d="M 134.5,518.5 C 138.554,518.21 139.054,518.877 136,520.5C 135.667,522.5 135.333,524.5 135,526.5C 134.503,523.854 134.336,521.187 134.5,518.5 Z"/></g>
<g><path style="opacity:1" fill="#232323" d="M 361.5,516.5 C 362.8,519.024 362.8,521.691 361.5,524.5C 361.251,523.418 361.085,522.085 361,520.5C 358.443,519.354 357.11,520.354 357,523.5C 356.333,522.167 356.333,520.833 357,519.5C 359.026,519.085 360.526,518.085 361.5,516.5 Z"/></g>
<g><path style="opacity:1" fill="#181818" d="M 784.5,519.5 C 784.5,519.167 784.5,518.833 784.5,518.5C 787.734,518.237 789.068,519.737 788.5,523C 788.333,524.167 788.167,525.333 788,526.5C 787.667,524.5 787.333,522.5 787,520.5C 786.329,519.748 785.496,519.414 784.5,519.5 Z"/></g>
<g><path style="opacity:1" fill="#333333" d="M 842.5,521.5 C 842.167,521.5 841.833,521.5 841.5,521.5C 840.167,521.5 838.833,521.5 837.5,521.5C 837.5,522.833 837.5,524.167 837.5,525.5C 837.5,526.167 837.167,526.5 836.5,526.5C 836.5,522.833 836.5,519.167 836.5,515.5C 842.167,515.664 842.5,515.997 837.5,516.5C 837.5,517.833 837.5,519.167 837.5,520.5C 840.238,521.035 842.072,520.035 843,517.5C 843.579,518.928 843.412,520.262 842.5,521.5 Z"/></g>
<g><path style="opacity:1" fill="#202020" d="M 860.5,519.5 C 859.178,519.33 858.011,519.663 857,520.5C 856.667,522.5 856.333,524.5 856,526.5C 855.503,523.854 855.336,521.187 855.5,518.5C 857.415,518.216 859.081,518.549 860.5,519.5 Z"/></g>
<g><path style="opacity:1" fill="#8c8c8c" d="M 860.5,519.5 C 862.026,520.492 862.693,521.992 862.5,524C 862.167,525.167 861.833,526.333 861.5,527.5C 860.52,524.914 860.187,522.247 860.5,519.5 Z"/></g>
<g><path style="opacity:1" fill="#363636" d="M 153.5,519.5 C 149.932,519.759 148.599,521.759 149.5,525.5C 148.378,523.712 148.211,521.712 149,519.5C 150.616,518.199 152.116,518.199 153.5,519.5 Z"/></g>
<g><path style="opacity:1" fill="#636363" d="M 168.5,518.5 C 172.893,518.457 173.226,518.957 169.5,520C 167.972,522.518 168.306,524.685 170.5,526.5C 171.478,526.023 172.311,525.357 173,524.5C 173.617,525.449 173.451,526.282 172.5,527C 169.783,528.033 167.949,527.2 167,524.5C 166.252,522.16 166.752,520.16 168.5,518.5 Z"/></g>
<g><path style="opacity:1" fill="#616161" d="M 465.5,518.5 C 469.893,518.457 470.226,518.957 466.5,520C 464.972,522.518 465.306,524.685 467.5,526.5C 468.478,526.023 469.311,525.357 470,524.5C 470.617,525.449 470.451,526.282 469.5,527C 466.783,528.033 464.949,527.2 464,524.5C 463.252,522.16 463.752,520.16 465.5,518.5 Z"/></g>
<g><path style="opacity:1" fill="#272727" d="M 493.5,519.5 C 493.5,519.167 493.5,518.833 493.5,518.5C 496.734,518.237 498.068,519.737 497.5,523C 497.333,524.167 497.167,525.333 497,526.5C 496.667,524.5 496.333,522.5 496,520.5C 495.329,519.748 494.496,519.414 493.5,519.5 Z"/></g>
<g><path style="opacity:1" fill="#656565" d="M 791.5,518.5 C 793.288,518.215 794.955,518.548 796.5,519.5C 795.313,519.554 793.98,519.887 792.5,520.5C 794.167,521.833 795.833,523.167 797.5,524.5C 795.481,527.929 793.148,528.262 790.5,525.5C 792.117,525.331 793.784,524.997 795.5,524.5C 791.911,523.638 790.578,521.638 791.5,518.5 Z"/></g>
<g><path style="opacity:1" fill="#484848" d="M 799.5,515.5 C 800.404,516.209 800.737,517.209 800.5,518.5C 804.24,517.741 805.907,519.241 805.5,523C 805.333,524.167 805.167,525.333 805,526.5C 804.667,524.5 804.333,522.5 804,520.5C 802.989,519.663 801.822,519.33 800.5,519.5C 800.663,521.857 800.497,524.19 800,526.5C 799.501,522.848 799.335,519.182 799.5,515.5 Z"/></g>
<g><path style="opacity:1" fill="#2f2f2f" d="M 817.5,518.5 C 821.554,518.21 822.054,518.877 819,520.5C 818.667,522.5 818.333,524.5 818,526.5C 817.503,523.854 817.336,521.187 817.5,518.5 Z"/></g>
<g><path style="opacity:1" fill="#656565" d="M 851.5,519.5 C 854.14,521.879 854.14,524.379 851.5,527C 846.811,527.511 844.977,525.344 846,520.5C 847.678,518.447 849.511,518.113 851.5,519.5 Z"/></g>
<g><path style="opacity:1" fill="#f0f0f0" d="M 851.5,519.5 C 853.265,522.537 852.598,524.87 849.5,526.5C 847.554,524.956 847.054,522.956 848,520.5C 849.011,519.663 850.178,519.33 851.5,519.5 Z"/></g>
<g><path style="opacity:1" fill="#2f2f2f" d="M 1145.5,518.5 C 1148.94,519.224 1152.27,519.39 1155.5,519C 1156.6,521.401 1156.77,523.901 1156,526.5C 1154.33,517.167 1152.67,517.167 1151,526.5C 1149.33,517.167 1147.67,517.167 1146,526.5C 1145.5,523.854 1145.34,521.187 1145.5,518.5 Z"/></g>
<g><path style="opacity:1" fill="#181818" d="M 1179.5,519.5 C 1179.5,519.167 1179.5,518.833 1179.5,518.5C 1182.73,518.237 1184.07,519.737 1183.5,523C 1183.33,524.167 1183.17,525.333 1183,526.5C 1182.67,524.5 1182.33,522.5 1182,520.5C 1181.33,519.748 1180.5,519.414 1179.5,519.5 Z"/></g>
<g><path style="opacity:1" fill="#404040" d="M 448.5,515.5 C 451.006,518.474 452.673,521.974 453.5,526C 453.333,526.5 453.167,527 453,527.5C 452,524.36 449.833,523.027 446.5,523.5C 446.649,524.552 446.483,525.552 446,526.5C 445.346,527.696 444.846,527.696 444.5,526.5C 445.842,522.805 447.175,519.138 448.5,515.5 Z"/></g>
<g><path style="opacity:1" fill="#f1f1f1" d="M 448.5,518.5 C 450.104,519.287 450.771,520.62 450.5,522.5C 449.325,522.719 448.325,522.386 447.5,521.5C 448.127,520.583 448.461,519.583 448.5,518.5 Z"/></g>
<g><path style="opacity:1" fill="#696969" d="M 474.5,519.5 C 478.85,518.006 480.683,519.672 480,524.5C 479.583,525.756 478.75,526.423 477.5,526.5C 479.548,522.596 478.548,520.262 474.5,519.5 Z"/></g>
<g><path style="opacity:1" fill="#575757" d="M 808.5,524.5 C 807.006,520.15 808.672,518.317 813.5,519C 816.167,521.667 816.167,524.333 813.5,527C 810.738,528.077 809.072,527.244 808.5,524.5 Z"/></g>
<g><path style="opacity:1" fill="#ebebeb" d="M 808.5,524.5 C 808.815,519.959 810.649,518.959 814,521.5C 814.073,526.278 812.24,527.278 808.5,524.5 Z"/></g>
<g><path style="opacity:1" fill="#f3f3f3" d="M 841.5,521.5 C 842.234,522.708 842.567,524.041 842.5,525.5C 840.833,525.5 839.167,525.5 837.5,525.5C 837.5,524.167 837.5,522.833 837.5,521.5C 838.833,521.5 840.167,521.5 841.5,521.5 Z"/></g>
<g><path style="opacity:1" fill="#636363" d="M 869.5,519.5 C 866.757,519.077 865.424,520.244 865.5,523C 865.278,525.275 866.278,526.441 868.5,526.5C 865.351,527.732 863.685,526.399 863.5,522.5C 864.361,518.806 866.361,517.806 869.5,519.5 Z"/></g>
<g><path style="opacity:1" fill="#3d3d3d" d="M 1140.5,519.5 C 1142.43,521.794 1143.26,524.461 1143,527.5C 1140.33,522.167 1137.67,522.167 1135,527.5C 1135.56,523.817 1136.56,520.15 1138,516.5C 1138.67,515.167 1139.33,515.167 1140,516.5C 1140.48,517.448 1140.65,518.448 1140.5,519.5 Z"/></g>
<g><path style="opacity:1" fill="#f0f0f0" d="M 1140.5,519.5 C 1140.5,520.5 1140.5,521.5 1140.5,522.5C 1139.32,522.719 1138.32,522.386 1137.5,521.5C 1138.1,520.205 1138.6,518.872 1139,517.5C 1139.28,518.416 1139.78,519.082 1140.5,519.5 Z"/></g>
<g><path style="opacity:1" fill="#4a4a4a" d="M 140.5,525.5 C 139.378,523.712 139.211,521.712 140,519.5C 141.388,518.446 142.888,518.28 144.5,519C 140.97,519.672 139.637,521.838 140.5,525.5 Z"/></g>
<g><path style="opacity:1" fill="#7e7e7e" d="M 350.5,523.5 C 351.978,523.238 353.311,523.571 354.5,524.5C 352.701,525.788 351.035,525.788 349.5,524.5C 350.167,524.5 350.5,524.167 350.5,523.5 Z"/></g>
<g><path style="opacity:1" fill="#7f807f" d="M 675.5,523.5 C 676.978,523.238 678.311,523.571 679.5,524.5C 677.701,525.788 676.035,525.788 674.5,524.5C 675.167,524.5 675.5,524.167 675.5,523.5 Z"/></g>
<g><path style="opacity:1" fill="#7f807f" d="M 1040.5,523.5 C 1041.98,523.238 1043.31,523.571 1044.5,524.5C 1042.7,525.788 1041.03,525.788 1039.5,524.5C 1040.17,524.5 1040.5,524.167 1040.5,523.5 Z"/></g>
<g><path style="opacity:1" fill="#525252" d="M 1368.5,519.5 C 1370.19,518.897 1371.69,517.897 1373,516.5C 1373.82,519.227 1373.65,521.894 1372.5,524.5C 1370.96,525.747 1369.46,525.747 1368,524.5C 1367.22,522.613 1367.39,520.946 1368.5,519.5 Z"/></g>
<g><path style="opacity:1" fill="#ededed" d="M 1368.5,519.5 C 1373.05,519.932 1373.55,521.599 1370,524.5C 1368.73,523.095 1368.23,521.429 1368.5,519.5 Z"/></g>
<g><path style="opacity:1" fill="#575757" d="M 140.5,525.5 C 144.119,526.406 145.952,524.74 146,520.5C 147.477,524.998 145.977,527.165 141.5,527C 140.944,526.617 140.611,526.117 140.5,525.5 Z"/></g>
<g><path style="opacity:1" fill="#767676" d="M 154.5,524.5 C 154.5,525.167 154.5,525.833 154.5,526.5C 152.414,528.023 150.748,527.69 149.5,525.5C 150.496,525.414 151.329,525.748 152,526.5C 152.708,525.619 153.542,524.953 154.5,524.5 Z"/></g>
<g><path style="opacity:1" fill="#525252" d="M 474.5,519.5 C 472.6,523.143 473.6,525.477 477.5,526.5C 473.171,527.303 471.671,525.303 473,520.5C 473.383,519.944 473.883,519.611 474.5,519.5 Z"/></g>
<g><path style="opacity:1" fill="#5a5a5a" d="M 1160.5,519.5 C 1164,517.656 1165.66,518.823 1165.5,523C 1164.7,527.6 1162.53,528.433 1159,525.5C 1158.33,523.833 1158.33,522.167 1159,520.5C 1158.79,524.459 1160.62,526.126 1164.5,525.5C 1165.4,521.759 1164.07,519.759 1160.5,519.5 Z"/></g>
<g><path style="opacity:1" fill="#6b6b6b" d="M 456.5,525.5 C 457.496,525.414 458.329,525.748 459,526.5C 459.837,524.993 461.004,524.493 462.5,525C 460.519,527.967 458.519,528.134 456.5,525.5 Z"/></g>
<g><path style="opacity:1" fill="#636363" d="M 823.5,525.5 C 824.922,525.709 826.255,526.209 827.5,527C 825.648,527.773 824.314,527.273 823.5,525.5 Z"/></g>
<g><path style="opacity:1" fill="#7b7b7b" d="M 841.5,521.5 C 841.833,521.5 842.167,521.5 842.5,521.5C 844.582,522.585 844.916,524.085 843.5,526C 841.105,527.598 838.772,527.764 836.5,526.5C 837.167,526.5 837.5,526.167 837.5,525.5C 839.167,525.5 840.833,525.5 842.5,525.5C 842.567,524.041 842.234,522.708 841.5,521.5 Z"/></g>
<g><path style="opacity:1" fill="#5f5f5f" d="M 1167.5,518.5 C 1169.34,520.279 1170.01,522.612 1169.5,525.5C 1170.82,525.67 1171.99,525.337 1173,524.5C 1173.33,522.5 1173.67,520.5 1174,518.5C 1174.82,521.227 1174.65,523.894 1173.5,526.5C 1171.36,527.953 1169.52,527.62 1168,525.5C 1167.5,523.19 1167.34,520.857 1167.5,518.5 Z"/></g>
<g><path style="opacity:1" fill="#252525" d="M 231.5,627.5 C 234.85,627.335 238.183,627.502 241.5,628C 244.167,630.667 244.167,633.333 241.5,636C 245.482,639.048 245.482,642.048 241.5,645C 238.183,645.498 234.85,645.665 231.5,645.5C 231.5,639.5 231.5,633.5 231.5,627.5 Z"/></g>
<g><path style="opacity:1" fill="#1b1b1b" d="M 553.5,627.5 C 555.256,628.552 555.923,630.219 555.5,632.5C 559.038,632.785 560.871,631.118 561,627.5C 561.121,629.727 561.954,631.56 563.5,633C 560.049,634.644 559.716,636.811 562.5,639.5C 561.675,640.386 560.675,640.719 559.5,640.5C 558.833,647.167 558.167,647.167 557.5,640.5C 556.167,640.5 554.833,640.5 553.5,640.5C 553.785,642.288 553.452,643.955 552.5,645.5C 551.827,643.311 550.827,641.311 549.5,639.5C 550.325,638.614 551.325,638.281 552.5,638.5C 552.672,636.508 552.005,634.842 550.5,633.5C 551.325,632.614 552.325,632.281 553.5,632.5C 553.5,630.833 553.5,629.167 553.5,627.5 Z"/></g>
<g><path style="opacity:1" fill="#a6a6a6" d="M 570.5,627.5 C 571.209,626.596 572.209,626.263 573.5,626.5C 573.823,633.022 573.49,639.355 572.5,645.5C 573.12,639.074 572.453,633.074 570.5,627.5 Z"/></g>
<g><path style="opacity:1" fill="#161616" d="M 771.5,627.5 C 774.518,627.335 777.518,627.502 780.5,628C 783.167,630.667 783.167,633.333 780.5,636C 783.379,637.666 784.212,640.166 783,643.5C 779.417,645.29 775.584,645.957 771.5,645.5C 771.5,639.5 771.5,633.5 771.5,627.5 Z"/></g>
<g><path style="opacity:1" fill="#2c2c2c" d="M 825.5,627.5 C 826.5,627.5 827.5,627.5 828.5,627.5C 828.5,633.5 828.5,639.5 828.5,645.5C 825.316,645.167 821.982,645 818.5,645C 815.544,640.335 815.878,636.002 819.5,632C 821.235,631.349 822.902,631.515 824.5,632.5C 825.452,630.955 825.785,629.288 825.5,627.5 Z"/></g>
<g><path style="opacity:1" fill="#242424" d="M 842.5,627.5 C 843.451,628.919 843.784,630.585 843.5,632.5C 845.167,632.5 846.833,632.5 848.5,632.5C 848.215,630.712 848.548,629.045 849.5,627.5C 850.052,629.003 850.052,630.669 849.5,632.5C 850.675,632.281 851.675,632.614 852.5,633.5C 848.187,635.334 847.854,637.334 851.5,639.5C 850.675,640.386 849.675,640.719 848.5,640.5C 847.258,647.008 846.592,647.008 846.5,640.5C 844.833,640.5 843.167,640.5 841.5,640.5C 841.785,642.288 841.452,643.955 840.5,645.5C 839.827,643.311 838.827,641.311 837.5,639.5C 838.325,638.614 839.325,638.281 840.5,638.5C 840.672,636.508 840.005,634.842 838.5,633.5C 839.325,632.614 840.325,632.281 841.5,632.5C 841.629,630.784 841.962,629.117 842.5,627.5 Z"/></g>
<g><path style="opacity:1" fill="#242424" d="M 859.5,645.5 C 859.828,640.125 859.495,634.792 858.5,629.5C 857.893,629.624 857.56,629.957 857.5,630.5C 856.542,630.953 855.708,631.619 855,632.5C 855.418,628.941 857.585,627.274 861.5,627.5C 862.12,633.926 861.453,639.926 859.5,645.5 Z"/></g>
<g><path style="opacity:1" fill="#202020" d="M 1159.5,637.5 C 1158.74,636.732 1157.74,636.232 1156.5,636C 1157.42,635.722 1158.08,635.222 1158.5,634.5C 1160.26,633.448 1160.92,631.781 1160.5,629.5C 1157.86,629.16 1155.52,629.827 1153.5,631.5C 1152.41,630.132 1152.74,628.965 1154.5,628C 1158.87,626.541 1161.87,627.874 1163.5,632C 1162.9,633.605 1161.9,634.938 1160.5,636C 1165.19,641.066 1164.19,644.232 1157.5,645.5C 1155.52,645.563 1153.85,644.896 1152.5,643.5C 1151.17,642.5 1151.17,641.5 1152.5,640.5C 1154.59,643.031 1157.26,643.864 1160.5,643C 1161.98,640.765 1161.65,638.932 1159.5,637.5 Z"/></g>
<g><path style="opacity:1" fill="#171717" d="M 535.5,628.5 C 537.048,628.821 537.715,629.821 537.5,631.5C 541.5,632.167 541.5,632.833 537.5,633.5C 537.5,636.833 537.5,640.167 537.5,643.5C 538.675,643.281 539.675,643.614 540.5,644.5C 538.741,645.754 537.241,645.421 536,643.5C 535.985,639.585 535.152,635.918 533.5,632.5C 534.853,631.476 535.52,630.143 535.5,628.5 Z"/></g>
<g><path style="opacity:1" fill="#fbfbfb" d="M 234.5,629.5 C 236.527,629.338 238.527,629.505 240.5,630C 241.801,631.616 241.801,633.116 240.5,634.5C 238.5,634.5 236.5,634.5 234.5,634.5C 234.5,632.833 234.5,631.167 234.5,629.5 Z"/></g>
<g><path style="opacity:1" fill="#191919" d="M 570.5,627.5 C 572.453,633.074 573.12,639.074 572.5,645.5C 570.711,640.593 569.878,635.26 570,629.5C 569.035,631.26 567.868,631.594 566.5,630.5C 567.852,629.476 569.185,628.476 570.5,627.5 Z"/></g>
<g><path style="opacity:1" fill="#f1f1f1" d="M 773.5,629.5 C 775.833,629.5 778.167,629.5 780.5,629.5C 781.265,634.906 778.931,636.906 773.5,635.5C 773.5,633.5 773.5,631.5 773.5,629.5 Z"/></g>
<g><path style="opacity:1" fill="#121212" d="M 1139.5,627.5 C 1141.53,627.338 1143.53,627.505 1145.5,628C 1147.21,629.133 1147.71,630.633 1147,632.5C 1141.46,627.722 1138.96,629.055 1139.5,636.5C 1144.83,637.167 1144.83,637.833 1139.5,638.5C 1139.5,640.167 1139.5,641.833 1139.5,643.5C 1142.25,643.187 1144.91,643.52 1147.5,644.5C 1143.5,645.833 1139.5,645.833 1135.5,644.5C 1138.17,642.167 1138.17,639.833 1135.5,637.5C 1136.92,634.15 1138.25,630.817 1139.5,627.5 Z"/></g>
<g><path style="opacity:1" fill="#7e7e7e" d="M 857.5,630.5 C 857.56,629.957 857.893,629.624 858.5,629.5C 859.495,634.792 859.828,640.125 859.5,645.5C 858.833,640.5 858.167,635.5 857.5,630.5 Z"/></g>
<g><path style="opacity:1" fill="#1f1f1f" d="M 1185.5,627.5 C 1193.57,627.23 1196.74,631.23 1195,639.5C 1193.96,644.223 1191.12,646.056 1186.5,645C 1181.57,639.435 1181.23,633.602 1185.5,627.5 Z"/></g>
<g><path style="opacity:1" fill="#ebebeb" d="M 1186.5,629.5 C 1189.55,628.855 1191.71,629.855 1193,632.5C 1193.67,634.833 1193.67,637.167 1193,639.5C 1190.67,644.261 1188,644.595 1185,640.5C 1184.11,636.598 1184.61,632.931 1186.5,629.5 Z"/></g>
<g><path style="opacity:1" fill="#9a9a9a" d="M 147.5,632.5 C 147.5,632.833 147.5,633.167 147.5,633.5C 146.504,633.586 145.671,633.252 145,632.5C 144.501,636.821 144.334,641.154 144.5,645.5C 143.514,641.03 143.181,636.363 143.5,631.5C 144.959,631.433 146.292,631.766 147.5,632.5 Z"/></g>
<g><path style="opacity:1" fill="#1f1f1f" d="M 147.5,633.5 C 147.223,637.885 146.223,641.885 144.5,645.5C 144.334,641.154 144.501,636.821 145,632.5C 145.671,633.252 146.504,633.586 147.5,633.5 Z"/></g>
<g><path style="opacity:1" fill="#1e1e1e" d="M 160.5,631.5 C 163.38,631.033 165.713,631.866 167.5,634C 167.333,634.5 167.167,635 167,635.5C 164.743,632.881 162.577,632.881 160.5,635.5C 162.793,637.052 165.293,638.385 168,639.5C 168.486,644.992 165.986,646.825 160.5,645C 158.74,644.035 158.406,642.868 159.5,641.5C 161.942,644.132 164.275,644.132 166.5,641.5C 164.063,640.074 161.563,638.741 159,637.5C 158.252,635.16 158.752,633.16 160.5,631.5 Z"/></g>
<g><path style="opacity:1" fill="#171717" d="M 250.5,631.5 C 257.771,631.036 260.604,634.369 259,641.5C 257.309,645.213 254.475,646.379 250.5,645C 246.555,640.503 246.555,636.003 250.5,631.5 Z"/></g>
<g><path style="opacity:1" fill="#161616" d="M 262.5,631.5 C 263.75,631.577 264.583,632.244 265,633.5C 267.587,630.966 270.253,630.966 273,633.5C 273.827,637.541 273.66,641.541 272.5,645.5C 271.675,641.878 271.175,638.211 271,634.5C 268.733,633.065 266.733,633.398 265,635.5C 264.824,638.882 264.324,642.215 263.5,645.5C 262.507,640.88 262.173,636.214 262.5,631.5 Z"/></g>
<g><path style="opacity:1" fill="#1a1a1a" d="M 286.5,627.5 C 287.816,630.087 288.483,633.087 288.5,636.5C 288.167,639.5 287.833,642.5 287.5,645.5C 284.933,645.222 282.267,645.056 279.5,645C 274.712,639.098 275.712,634.598 282.5,631.5C 284.029,631.529 285.196,632.196 286,633.5C 286.495,631.527 286.662,629.527 286.5,627.5 Z"/></g>
<g><path style="opacity:1" fill="#1b1b1b" d="M 465.5,631.5 C 469.005,630.891 471.672,632.058 473.5,635C 466.033,631.961 463.366,634.461 465.5,642.5C 468.067,643.854 470.401,643.52 472.5,641.5C 473.594,642.868 473.26,644.035 471.5,645C 463.668,645.821 460.835,642.321 463,634.5C 464.045,633.627 464.878,632.627 465.5,631.5 Z"/></g>
<g><path style="opacity:1" fill="#1c1c1c" d="M 513.5,641.5 C 513.89,638.203 514.89,635.203 516.5,632.5C 516.826,636.884 516.492,641.217 515.5,645.5C 514.808,644.975 514.308,644.308 514,643.5C 511.333,646.167 508.667,646.167 506,643.5C 505.173,639.459 505.34,635.459 506.5,631.5C 507.325,635.122 507.825,638.789 508,642.5C 510.235,643.98 512.068,643.647 513.5,641.5 Z"/></g>
<g><path style="opacity:1" fill="#9b9b9b" d="M 516.5,632.5 C 514.89,635.203 513.89,638.203 513.5,641.5C 513.5,638.167 513.5,634.833 513.5,631.5C 514.791,631.263 515.791,631.596 516.5,632.5 Z"/></g>
<g><path style="opacity:1" fill="#9b9b9b" d="M 523.5,632.5 C 523.5,632.833 523.5,633.167 523.5,633.5C 522.504,633.586 521.671,633.252 521,632.5C 520.501,636.821 520.334,641.154 520.5,645.5C 519.514,641.03 519.181,636.363 519.5,631.5C 520.959,631.433 522.292,631.766 523.5,632.5 Z"/></g>
<g><path style="opacity:1" fill="#1f1f1f" d="M 523.5,633.5 C 523.223,637.885 522.223,641.885 520.5,645.5C 520.334,641.154 520.501,636.821 521,632.5C 521.671,633.252 522.504,633.586 523.5,633.5 Z"/></g>
<g><path style="opacity:1" fill="#838383" d="M 805.5,632.5 C 805.5,632.833 805.5,633.167 805.5,633.5C 804.504,633.586 803.671,633.252 803,632.5C 802.501,636.821 802.334,641.154 802.5,645.5C 801.514,641.03 801.181,636.363 801.5,631.5C 802.959,631.433 804.292,631.766 805.5,632.5 Z"/></g>
<g><path style="opacity:1" fill="#202020" d="M 805.5,633.5 C 805.223,637.885 804.223,641.885 802.5,645.5C 802.334,641.154 802.501,636.821 803,632.5C 803.671,633.252 804.504,633.586 805.5,633.5 Z"/></g>
<g><path style="opacity:1" fill="#181818" d="M 1170.5,627.5 C 1174.49,626.616 1177.32,627.949 1179,631.5C 1179.67,634.833 1179.67,638.167 1179,641.5C 1177.18,644.991 1174.35,646.157 1170.5,645C 1169.3,644.097 1168.47,642.931 1168,641.5C 1166.72,636.295 1167.55,631.628 1170.5,627.5 Z"/></g>
<g><path style="opacity:1" fill="#f3f3f3" d="M 1172.5,628.5 C 1176.08,629.422 1177.75,631.756 1177.5,635.5C 1177.41,637.923 1176.91,640.256 1176,642.5C 1170.73,643.902 1168.56,641.736 1169.5,636C 1169.67,634.167 1169.83,632.333 1170,630.5C 1170.99,629.934 1171.83,629.267 1172.5,628.5 Z"/></g>
<g><path style="opacity:1" fill="#1b1b1b" d="M 147.5,633.5 C 147.5,633.167 147.5,632.833 147.5,632.5C 153.18,630.839 155.513,633.173 154.5,639.5C 154.167,641.5 153.833,643.5 153.5,645.5C 152.675,641.878 152.175,638.211 152,634.5C 150.644,633.62 149.144,633.286 147.5,633.5 Z"/></g>
<g><path style="opacity:1" fill="#171717" d="M 171.5,627.5 C 173.164,628.949 173.998,630.949 174,633.5C 176.459,630.9 178.959,630.9 181.5,633.5C 182.77,637.484 182.77,641.484 181.5,645.5C 180.675,641.878 180.175,638.211 180,634.5C 177.733,633.065 175.733,633.398 174,635.5C 173.824,638.882 173.324,642.215 172.5,645.5C 171.504,639.537 171.171,633.537 171.5,627.5 Z"/></g>
<g><path style="opacity:1" fill="#f0f0f0" d="M 280.5,633.5 C 285.989,633.504 287.822,636.171 286,641.5C 283.23,644.28 280.896,643.946 279,640.5C 278.391,637.935 278.891,635.601 280.5,633.5 Z"/></g>
<g><path style="opacity:1" fill="#1b1b1b" d="M 493.5,631.5 C 500.771,631.036 503.604,634.369 502,641.5C 498.74,646.285 495.073,646.619 491,642.5C 489.812,638.259 490.645,634.592 493.5,631.5 Z"/></g>
<g><path style="opacity:1" fill="#f2f2f2" d="M 494.5,633.5 C 500.548,634.46 501.881,637.627 498.5,643C 496.559,643.743 494.726,643.576 493,642.5C 492.068,639.177 492.568,636.177 494.5,633.5 Z"/></g>
<g><path style="opacity:1" fill="#1b1b1b" d="M 523.5,633.5 C 523.5,633.167 523.5,632.833 523.5,632.5C 529.18,630.839 531.513,633.173 530.5,639.5C 530.167,641.5 529.833,643.5 529.5,645.5C 528.675,641.878 528.175,638.211 528,634.5C 526.644,633.62 525.144,633.286 523.5,633.5 Z"/></g>
<g><path style="opacity:1" fill="#696969" d="M 554.5,634.5 C 555.919,633.549 557.585,633.216 559.5,633.5C 559.768,635.099 559.434,636.432 558.5,637.5C 558.5,636.5 558.5,635.5 558.5,634.5C 557.167,634.5 555.833,634.5 554.5,634.5 Z"/></g>
<g><path style="opacity:1" fill="#1a1a1a" d="M 790.5,631.5 C 797.409,631.953 799.909,635.62 798,642.5C 793.837,646.747 790.171,646.414 787,641.5C 785.756,637.191 786.923,633.858 790.5,631.5 Z"/></g>
<g><path style="opacity:1" fill="#f2f2f2" d="M 790.5,633.5 C 795.989,633.504 797.822,636.171 796,641.5C 793.731,644.054 791.398,644.054 789,641.5C 788.109,638.502 788.609,635.836 790.5,633.5 Z"/></g>
<g><path style="opacity:1" fill="#1a1a1a" d="M 805.5,633.5 C 805.5,633.167 805.5,632.833 805.5,632.5C 811.266,630.929 813.599,633.262 812.5,639.5C 812.167,641.5 811.833,643.5 811.5,645.5C 810.675,641.878 810.175,638.211 810,634.5C 808.644,633.62 807.144,633.286 805.5,633.5 Z"/></g>
<g><path style="opacity:1" fill="#f4f4f4" d="M 819.5,633.5 C 821.722,633.178 823.556,633.845 825,635.5C 825.769,638.099 825.602,640.599 824.5,643C 822.559,643.743 820.726,643.576 819,642.5C 818.264,639.408 818.431,636.408 819.5,633.5 Z"/></g>
<g><path style="opacity:1" fill="#181818" d="M 213.5,631.5 C 219.215,631.215 221.882,633.882 221.5,639.5C 218.102,639.18 214.768,639.513 211.5,640.5C 211.977,641.478 212.643,642.311 213.5,643C 215.995,643.157 218.328,643.324 220.5,643.5C 214,647.412 210.333,645.579 209.5,638C 209.722,635.038 211.056,632.871 213.5,631.5 Z"/></g>
<g><path style="opacity:1" fill="#ececec" d="M 213.5,633.5 C 216.278,633.022 218.278,634.022 219.5,636.5C 216.833,637.833 214.167,637.833 211.5,636.5C 212.193,635.482 212.859,634.482 213.5,633.5 Z"/></g>
<g><path style="opacity:1" fill="#939393" d="M 234.5,629.5 C 234.5,631.167 234.5,632.833 234.5,634.5C 236.5,634.5 238.5,634.5 240.5,634.5C 238.393,635.468 236.059,635.802 233.5,635.5C 233.205,633.265 233.539,631.265 234.5,629.5 Z"/></g>
<g><path style="opacity:1" fill="#f3f3f3" d="M 251.5,633.5 C 256.989,633.504 258.822,636.171 257,641.5C 254.602,644.054 252.269,644.054 250,641.5C 249.109,638.502 249.609,635.836 251.5,633.5 Z"/></g>
<g><path style="opacity:1" fill="#fcfcfc" d="M 554.5,634.5 C 555.833,634.5 557.167,634.5 558.5,634.5C 558.5,635.5 558.5,636.5 558.5,637.5C 557.432,638.434 556.099,638.768 554.5,638.5C 554.5,637.167 554.5,635.833 554.5,634.5 Z"/></g>
<g><path style="opacity:1" fill="#e9e9e9" d="M 842.5,634.5 C 844.167,634.5 845.833,634.5 847.5,634.5C 847.5,635.833 847.5,637.167 847.5,638.5C 845.833,638.5 844.167,638.5 842.5,638.5C 842.5,637.167 842.5,635.833 842.5,634.5 Z"/></g>
<g><path style="opacity:1" fill="#202020" d="M 189.5,631.5 C 195.653,631.484 198.486,634.484 198,640.5C 196.336,645.038 193.169,646.538 188.5,645C 184.285,640.134 184.618,635.634 189.5,631.5 Z"/></g>
<g><path style="opacity:1" fill="#e7e7e7" d="M 189.5,633.5 C 196.309,633.951 197.976,637.118 194.5,643C 187.574,642.994 185.908,639.827 189.5,633.5 Z"/></g>
<g><path style="opacity:1" fill="#1c1c1c" d="M 451.5,627.5 C 452.5,627.5 453.5,627.5 454.5,627.5C 455.798,633.559 457.798,639.392 460.5,645C 459.552,645.483 458.552,645.649 457.5,645.5C 457.843,641.866 456.177,640.199 452.5,640.5C 448.823,640.199 447.157,641.866 447.5,645.5C 446.448,645.649 445.448,645.483 444.5,645C 446.934,639.195 449.268,633.361 451.5,627.5 Z"/></g>
<g><path style="opacity:1" fill="#dbdbdb" d="M 451.5,630.5 C 453.555,632.234 454.888,634.567 455.5,637.5C 453.5,638.833 451.5,638.833 449.5,637.5C 450.577,635.271 451.244,632.937 451.5,630.5 Z"/></g>
<g><path style="opacity:1" fill="#202020" d="M 201.5,631.5 C 203.858,632.114 206.192,632.447 208.5,632.5C 206.704,633.141 205.204,634.141 204,635.5C 203.824,638.882 203.324,642.215 202.5,645.5C 201.507,640.88 201.173,636.214 201.5,631.5 Z"/></g>
<g><path style="opacity:1" fill="#1b1b1b" d="M 479.5,631.5 C 483.005,630.891 485.672,632.058 487.5,635C 480.033,631.961 477.366,634.461 479.5,642.5C 482.067,643.854 484.401,643.52 486.5,641.5C 487.594,642.868 487.26,644.035 485.5,645C 477.668,645.821 474.835,642.321 477,634.5C 478.045,633.627 478.878,632.627 479.5,631.5 Z"/></g>
<g><path style="opacity:1" fill="#838383" d="M 1158.5,634.5 C 1158.08,635.222 1157.42,635.722 1156.5,636C 1157.74,636.232 1158.74,636.732 1159.5,637.5C 1158.17,637.5 1156.83,637.5 1155.5,637.5C 1155.5,636.5 1155.5,635.5 1155.5,634.5C 1156.5,634.5 1157.5,634.5 1158.5,634.5 Z"/></g>
<g><path style="opacity:1" fill="#f4f4f4" d="M 234.5,637.5 C 236.857,637.337 239.19,637.503 241.5,638C 242.833,639.667 242.833,641.333 241.5,643C 239.19,643.497 236.857,643.663 234.5,643.5C 234.5,641.5 234.5,639.5 234.5,637.5 Z"/></g>
<g><path style="opacity:1" fill="#f9f9f9" d="M 773.5,637.5 C 775.857,637.337 778.19,637.503 780.5,638C 781.833,639.667 781.833,641.333 780.5,643C 778.19,643.497 775.857,643.663 773.5,643.5C 773.5,641.5 773.5,639.5 773.5,637.5 Z"/></g>
<g><path style="opacity:1" fill="#171717" d="M 128.5,627.5 C 139.541,627.056 143.041,632.056 139,642.5C 133.035,647.175 128.368,646.175 125,639.5C 123.745,634.738 124.912,630.738 128.5,627.5 Z"/></g>
<g><path style="opacity:1" fill="#f4f4f4" d="M 129.5,629.5 C 136.825,628.992 139.658,632.326 138,639.5C 136.309,643.213 133.475,644.379 129.5,643C 125.555,638.503 125.555,634.003 129.5,629.5 Z"/></g>
<g><path style="opacity:1" fill="#191919" d="M 295.5,631.5 C 297.936,631.317 300.103,631.984 302,633.5C 302.688,634.332 302.521,634.998 301.5,635.5C 299.038,632.947 296.705,632.947 294.5,635.5C 296.682,637.294 299.182,638.627 302,639.5C 302.486,644.992 299.986,646.825 294.5,645C 292.74,644.035 292.406,642.868 293.5,641.5C 295.523,643.173 297.856,643.84 300.5,643.5C 300.67,642.178 300.337,641.011 299.5,640C 292.174,639.479 290.841,636.646 295.5,631.5 Z"/></g>
<g><path style="opacity:1" fill="#bfbfbf" d="M 393.5,489.5 C 394.499,551.331 394.832,613.331 394.5,675.5C 296.665,675.833 198.999,675.499 101.5,674.5C 198.833,674.5 296.167,674.5 393.5,674.5C 393.5,612.833 393.5,551.167 393.5,489.5 Z"/></g>
<g><path style="opacity:1" fill="#b6b6b6" d="M 718.5,489.5 C 719.499,551.331 719.832,613.331 719.5,675.5C 620.332,675.833 521.332,675.499 422.5,674.5C 521.167,674.5 619.833,674.5 718.5,674.5C 718.5,612.833 718.5,551.167 718.5,489.5 Z"/></g>
<g><path style="opacity:1" fill="#aeaeae" d="M 1083.5,489.5 C 1084.5,551.331 1084.83,613.331 1084.5,675.5C 971.999,675.833 859.665,675.5 747.5,674.5C 859.5,674.5 971.5,674.5 1083.5,674.5C 1083.5,612.833 1083.5,551.167 1083.5,489.5 Z"/></g>
<g><path style="opacity:1" fill="#adadad" d="M 1404.5,489.5 C 1405.5,551.331 1405.83,613.331 1405.5,675.5C 1307.67,675.833 1210,675.499 1112.5,674.5C 1209.83,674.5 1307.17,674.5 1404.5,674.5C 1404.5,612.833 1404.5,551.167 1404.5,489.5 Z"/></g>
<g><path style="opacity:1" fill="#7f7f7f" d="M 1378.5,747.5 C 1377.83,747.5 1377.5,747.167 1377.5,746.5C 1377.5,730.833 1377.5,715.167 1377.5,699.5C 1299.17,699.5 1220.83,699.5 1142.5,699.5C 1142.5,715.167 1142.5,730.833 1142.5,746.5C 1142.5,747.167 1142.17,747.5 1141.5,747.5C 1141.5,730.833 1141.5,714.167 1141.5,697.5C 1220.5,697.5 1299.5,697.5 1378.5,697.5C 1378.5,714.167 1378.5,730.833 1378.5,747.5 Z"/></g>
<g><path style="opacity:1" fill="#fcfcfc" d="M 1377.5,746.5 C 1299.17,746.5 1220.83,746.5 1142.5,746.5C 1142.5,730.833 1142.5,715.167 1142.5,699.5C 1220.83,699.5 1299.17,699.5 1377.5,699.5C 1377.5,715.167 1377.5,730.833 1377.5,746.5 Z"/></g>
<g><path style="opacity:1" fill="#2d2d2d" d="M 1215.5,718.5 C 1216.08,717.227 1216.74,717.227 1217.5,718.5C 1217.03,719.463 1216.36,719.463 1215.5,718.5 Z"/></g>
<g><path style="opacity:1" fill="#2e2e2e" d="M 1275.5,717.5 C 1277.05,718.23 1277.88,719.563 1278,721.5C 1279.46,720.253 1280.96,720.253 1282.5,721.5C 1283.65,724.446 1283.82,727.446 1283,730.5C 1282.67,728.167 1282.33,725.833 1282,723.5C 1280.67,722.167 1279.33,722.167 1278,723.5C 1277.81,725.9 1277.31,728.234 1276.5,730.5C 1275.51,726.217 1275.17,721.884 1275.5,717.5 Z"/></g>
<g><path style="opacity:1" fill="#333333" d="M 1293.5,717.5 C 1295.43,721.373 1296.1,725.706 1295.5,730.5C 1290.01,733.061 1287.01,731.394 1286.5,725.5C 1286.81,721.009 1288.98,719.676 1293,721.5C 1293.49,720.207 1293.66,718.873 1293.5,717.5 Z"/></g>
<g><path style="opacity:1" fill="#4f4f4f" d="M 1341.5,717.5 C 1342.8,719.397 1343.47,721.731 1343.5,724.5C 1343.17,726.833 1342.83,729.167 1342.5,731.5C 1341.51,726.88 1341.17,722.214 1341.5,717.5 Z"/></g>
<g><path style="opacity:1" fill="#373737" d="M 1211.5,716.5 C 1215.34,717.004 1215.34,718.004 1211.5,719.5C 1212.17,720.167 1212.83,720.833 1213.5,721.5C 1212.05,724.298 1211.05,727.298 1210.5,730.5C 1209.75,727.503 1209.09,724.503 1208.5,721.5C 1209.26,719.64 1210.26,717.973 1211.5,716.5 Z"/></g>
<g><path style="opacity:1" fill="#181818" d="M 1270.5,720.5 C 1270.19,723.713 1270.52,726.713 1271.5,729.5C 1272.07,730.42 1271.4,730.754 1269.5,730.5C 1269.93,727.212 1269.26,724.212 1267.5,721.5C 1268.52,720.646 1269.36,719.646 1270,718.5C 1270.46,719.094 1270.63,719.761 1270.5,720.5 Z"/></g>
<g><path style="opacity:1" fill="#333333" d="M 1222.5,722.5 C 1223.14,720.668 1224.14,720.335 1225.5,721.5C 1224.68,722.386 1223.68,722.719 1222.5,722.5 Z"/></g>
<g><path style="opacity:1" fill="#080808" d="M 1222.5,722.5 C 1222.5,722.833 1222.5,723.167 1222.5,723.5C 1221.83,725.833 1221.17,728.167 1220.5,730.5C 1220.33,727.15 1220.5,723.817 1221,720.5C 1221.28,721.416 1221.78,722.082 1222.5,722.5 Z"/></g>
<g><path style="opacity:1" fill="#080808" d="M 1229.5,722.5 C 1229.5,722.833 1229.5,723.167 1229.5,723.5C 1228.83,725.833 1228.17,728.167 1227.5,730.5C 1227.33,727.15 1227.5,723.817 1228,720.5C 1228.28,721.416 1228.78,722.082 1229.5,722.5 Z"/></g>
<g><path style="opacity:1" fill="#202020" d="M 1298.5,720.5 C 1303.95,720.455 1304.45,721.455 1300,723.5C 1299.67,725.833 1299.33,728.167 1299,730.5C 1298.5,727.183 1298.33,723.85 1298.5,720.5 Z"/></g>
<g><path style="opacity:1" fill="#1a1a1a" d="M 1206.5,730.5 C 1205.83,728.167 1205.17,725.833 1204.5,723.5C 1203.17,722.167 1201.83,722.167 1200.5,723.5C 1199.83,725.833 1199.17,728.167 1198.5,730.5C 1198.33,727.15 1198.5,723.817 1199,720.5C 1200.25,721.573 1201.58,721.573 1203,720.5C 1204.26,720.759 1205.26,721.426 1206,722.5C 1206.5,725.146 1206.66,727.813 1206.5,730.5 Z"/></g>
<g><path style="opacity:1" fill="#1f1f1f" d="M 1235.5,723.5 C 1234.83,725.833 1234.17,728.167 1233.5,730.5C 1233.5,727.833 1233.5,725.167 1233.5,722.5C 1232.17,722.5 1230.83,722.5 1229.5,722.5C 1229.87,721.305 1230.7,720.639 1232,720.5C 1234.42,720.954 1236.92,721.121 1239.5,721C 1240.62,724.073 1240.78,727.24 1240,730.5C 1239.5,727.854 1239.34,725.187 1239.5,722.5C 1237.9,722.232 1236.57,722.566 1235.5,723.5 Z"/></g>
<g><path style="opacity:1" fill="#262626" d="M 1248.5,720.5 C 1250.31,722.385 1251.48,724.719 1252,727.5C 1254,718.167 1256,718.167 1258,727.5C 1259,725.167 1260,722.833 1261,720.5C 1261.31,723.595 1260.81,726.595 1259.5,729.5C 1258.83,730.833 1258.17,730.833 1257.5,729.5C 1256.39,727.615 1255.56,725.615 1255,723.5C 1254.34,725.813 1253.84,728.146 1253.5,730.5C 1252.5,730.5 1251.5,730.5 1250.5,730.5C 1250.15,727.097 1249.48,723.763 1248.5,720.5 Z"/></g>
<g><path style="opacity:1" fill="#828282" d="M 1270.5,720.5 C 1271.68,720.281 1272.68,720.614 1273.5,721.5C 1271.78,723.868 1271.11,726.534 1271.5,729.5C 1270.52,726.713 1270.19,723.713 1270.5,720.5 Z"/></g>
<g><path style="opacity:1" fill="#eeeeee" d="M 1288.5,722.5 C 1293.33,722.385 1294.66,724.552 1292.5,729C 1287.81,729.141 1286.48,726.975 1288.5,722.5 Z"/></g>
<g><path style="opacity:1" fill="#272727" d="M 1189.5,720.5 C 1195.16,720.867 1196.99,723.867 1195,729.5C 1192.03,732.265 1189.37,731.932 1187,728.5C 1186.02,725.225 1186.85,722.559 1189.5,720.5 Z"/></g>
<g><path style="opacity:1" fill="#f2f2f2" d="M 1189.5,722.5 C 1194.33,722.385 1195.66,724.552 1193.5,729C 1188.57,729.427 1187.24,727.26 1189.5,722.5 Z"/></g>
<g><path style="opacity:1" fill="#686868" d="M 1204.5,723.5 C 1205.17,725.833 1205.83,728.167 1206.5,730.5C 1206.44,731.043 1206.11,731.376 1205.5,731.5C 1204.52,728.914 1204.19,726.247 1204.5,723.5 Z"/></g>
<g><path style="opacity:1" fill="#878787" d="M 1235.5,723.5 C 1235.81,726.247 1235.48,728.914 1234.5,731.5C 1233.89,731.376 1233.56,731.043 1233.5,730.5C 1234.17,728.167 1234.83,725.833 1235.5,723.5 Z"/></g>
<g><path style="opacity:1" fill="#898989" d="M 1312.5,722.5 C 1313.8,725.355 1313.8,728.355 1312.5,731.5C 1311.89,731.376 1311.56,731.043 1311.5,730.5C 1312.47,728.052 1312.81,725.385 1312.5,722.5 Z"/></g>
<g><path style="opacity:1" fill="#848484" d="M 1200.5,723.5 C 1200.81,726.247 1200.48,728.914 1199.5,731.5C 1198.89,731.376 1198.56,731.043 1198.5,730.5C 1199.17,728.167 1199.83,725.833 1200.5,723.5 Z"/></g>
<g><path style="opacity:1" fill="#696969" d="M 1222.5,723.5 C 1222.81,726.247 1222.48,728.914 1221.5,731.5C 1220.89,731.376 1220.56,731.043 1220.5,730.5C 1221.17,728.167 1221.83,725.833 1222.5,723.5 Z"/></g>
<g><path style="opacity:1" fill="#696969" d="M 1229.5,723.5 C 1229.81,726.247 1229.48,728.914 1228.5,731.5C 1227.89,731.376 1227.56,731.043 1227.5,730.5C 1228.17,728.167 1228.83,725.833 1229.5,723.5 Z"/></g>
<g><path style="opacity:1" fill="#2f2f2f" d="M 1332.5,720.5 C 1334.26,720.357 1335.93,720.691 1337.5,721.5C 1338.48,724.428 1338.82,727.428 1338.5,730.5C 1335.67,731.974 1333.17,731.64 1331,729.5C 1330.33,728.5 1330.33,727.5 1331,726.5C 1332.78,725.406 1334.61,724.406 1336.5,723.5C 1334.99,722.253 1333.49,722.253 1332,723.5C 1331.53,722.423 1331.7,721.423 1332.5,720.5 Z"/></g>
<g><path style="opacity:1" fill="#f6f6f6" d="M 1332.5,726.5 C 1333.83,726.5 1335.17,726.5 1336.5,726.5C 1336.5,727.5 1336.5,728.5 1336.5,729.5C 1335.17,729.5 1333.83,729.5 1332.5,729.5C 1332.5,728.5 1332.5,727.5 1332.5,726.5 Z"/></g>
<g><path style="opacity:1" fill="#303030" d="M 1312.5,722.5 C 1312.81,725.385 1312.47,728.052 1311.5,730.5C 1306.59,732.401 1304.59,730.901 1305.5,726C 1307.5,725.167 1309.5,724.333 1311.5,723.5C 1309.86,722.319 1308.2,722.319 1306.5,723.5C 1305.29,722.726 1305.29,721.893 1306.5,721C 1308.99,720.059 1310.99,720.559 1312.5,722.5 Z"/></g>
<g><path style="opacity:1" fill="#f4f4f4" d="M 1307.5,726.5 C 1312.28,726.671 1312.61,727.671 1308.5,729.5C 1306.2,729.124 1305.86,728.124 1307.5,726.5 Z"/></g>
<g><path style="opacity:1" fill="#282828" d="M 1315.5,720.5 C 1317.31,722.385 1318.48,724.719 1319,727.5C 1321.23,718.372 1323.23,718.372 1325,727.5C 1325.62,724.968 1326.62,722.635 1328,720.5C 1327.91,723.949 1327.08,727.283 1325.5,730.5C 1323.68,728.584 1322.52,726.251 1322,723.5C 1321.48,726.251 1320.32,728.584 1318.5,730.5C 1316.91,727.325 1315.91,723.991 1315.5,720.5 Z"/></g>
<g><path style="opacity:1" fill="#282828" d="M 1176.5,717.5 C 1179.91,716.828 1182.57,717.828 1184.5,720.5C 1184.33,720.833 1184.17,721.167 1184,721.5C 1181.63,718.068 1178.97,717.735 1176,720.5C 1175.27,723.23 1175.44,725.897 1176.5,728.5C 1179.57,730.052 1182.07,729.385 1184,726.5C 1183.55,730.267 1181.38,731.767 1177.5,731C 1173.79,728.487 1172.62,724.987 1174,720.5C 1175.04,719.627 1175.88,718.627 1176.5,717.5 Z"/></g>
<g><path style="opacity:1" fill="#9f9f9f" d="M 1142.5,746.5 C 1220.83,746.5 1299.17,746.5 1377.5,746.5C 1377.5,747.167 1377.83,747.5 1378.5,747.5C 1299.5,748.833 1220.5,748.833 1141.5,747.5C 1142.17,747.5 1142.5,747.167 1142.5,746.5 Z"/></g>
<g><path style="opacity:1" fill="#9c9c9c" d="M 163.5,770.5 C 163.194,773.385 163.527,776.052 164.5,778.5C 164.44,779.043 164.107,779.376 163.5,779.5C 162.197,776.355 162.197,773.355 163.5,770.5 Z"/></g>
<g><path style="opacity:1" fill="#353535" d="M 163.5,770.5 C 164.779,771.968 166.446,772.635 168.5,772.5C 168.663,774.857 168.497,777.19 168,779.5C 167.505,777.527 167.338,775.527 167.5,773.5C 166.5,773.5 165.5,773.5 164.5,773.5C 164.5,775.167 164.5,776.833 164.5,778.5C 163.527,776.052 163.194,773.385 163.5,770.5 Z"/></g>
<g><path style="opacity:1" fill="#5c5c5c" d="M 189.5,769.5 C 194.672,771.239 194.839,773.573 190,776.5C 189.667,774.953 190.167,773.62 191.5,772.5C 190.284,771.904 188.951,771.737 187.5,772C 188.381,771.292 189.047,770.458 189.5,769.5 Z"/></g>
<g><path style="opacity:1" fill="#3c3c3c" d="M 128.5,770.5 C 130.836,772.004 132.669,774.004 134,776.5C 134.333,774.5 134.667,772.5 135,770.5C 136.362,780.431 134.696,781.431 130,773.5C 129.667,775.5 129.333,777.5 129,779.5C 128.502,776.518 128.335,773.518 128.5,770.5 Z"/></g>
<g><path style="opacity:1" fill="#303030" d="M 152.5,777.5 C 151.402,776.399 151.235,775.066 152,773.5C 153.996,773.004 155.663,772.004 157,770.5C 157.498,773.482 157.665,776.482 157.5,779.5C 155.219,779.923 153.552,779.256 152.5,777.5 Z"/></g>
<g><path style="opacity:1" fill="#efefef" d="M 152.5,777.5 C 152.066,774.834 153.066,773.667 155.5,774C 157.066,777.597 156.066,778.763 152.5,777.5 Z"/></g>
<g><path style="opacity:1" fill="#e7e7e7" d="M 185.5,773.5 C 186.084,776.285 185.084,777.952 182.5,778.5C 180.716,775.192 181.716,773.525 185.5,773.5 Z"/></g>
<g><path style="opacity:1" fill="#4c4c4c" d="M 138.5,773.5 C 139.708,772.218 141.042,772.218 142.5,773.5C 143.641,774.425 143.641,775.259 142.5,776C 141.167,776.333 139.833,776.667 138.5,777C 139.649,778.744 140.983,778.911 142.5,777.5C 143.696,777.846 143.696,778.346 142.5,779C 137.733,779.664 136.399,777.831 138.5,773.5 Z"/></g>
<g><path style="opacity:1" fill="#d1d1d1" d="M 138.5,773.5 C 139.675,773.281 140.675,773.614 141.5,774.5C 139.948,775.798 138.948,775.465 138.5,773.5 Z"/></g>
<g><path style="opacity:1" fill="#656565" d="M 145.5,772.5 C 148.95,771.756 150.616,773.09 150.5,776.5C 148.801,776.34 147.134,776.506 145.5,777C 146.025,777.692 146.692,778.192 147.5,778.5C 148.451,777.674 149.451,777.508 150.5,778C 144.756,780.387 143.09,778.554 145.5,772.5 Z"/></g>
<g><path style="opacity:1" fill="#595959" d="M 171.5,772.5 C 174.95,771.756 176.616,773.09 176.5,776.5C 174.801,776.34 173.134,776.506 171.5,777C 172.025,777.692 172.692,778.192 173.5,778.5C 174.451,777.674 175.451,777.508 176.5,778C 170.756,780.387 169.09,778.554 171.5,772.5 Z"/></g>
<g><path style="opacity:1" fill="#393939" d="M 185.5,773.5 C 186.613,774.946 186.78,776.613 186,778.5C 184.708,779.791 183.542,779.791 182.5,778.5C 185.084,777.952 186.084,776.285 185.5,773.5 Z"/></g>
<g><path style="opacity:1" fill="#474747" d="M 107.5,766.5 C 116.841,767.004 120.007,771.671 117,780.5C 114.005,783.265 110.505,784.098 106.5,783C 101.931,780.459 100.431,776.625 102,771.5C 103.73,769.598 105.563,767.931 107.5,766.5 Z"/></g>
<g><path style="opacity:1" fill="#f0f0f0" d="M 106.5,768.5 C 116.309,768.138 118.976,772.305 114.5,781C 108.382,783.774 104.382,781.941 102.5,775.5C 103.071,772.687 104.404,770.354 106.5,768.5 Z"/></g>
<g><path style="opacity:1" fill="#393939" d="M 107.5,770.5 C 113.124,770.864 113.958,773.197 110,777.5C 109.289,775.633 109.789,774.133 111.5,773C 110.464,771.383 109.297,771.216 108,772.5C 107.536,771.906 107.369,771.239 107.5,770.5 Z"/></g>
<g><path style="opacity:1" fill="#3f3f3f" d="M 185.5,773.5 C 181.716,773.525 180.716,775.192 182.5,778.5C 181.596,779.209 181.263,780.209 181.5,781.5C 126.516,782.419 126.183,782.419 180.5,781.5C 180.5,778.5 180.5,775.5 180.5,772.5C 182.415,772.216 184.081,772.549 185.5,773.5 Z"/></g>
</svg>
