<?xml version="1.0" encoding="UTF-8"?>
<!DOCTYPE svg PUBLIC "-//W3C//DTD SVG 1.1//EN" "http://www.w3.org/Graphics/SVG/1.1/DTD/svg11.dtd">
<svg xmlns="http://www.w3.org/2000/svg" version="1.1" width="1478px" height="832px" style="shape-rendering:geometricPrecision; text-rendering:geometricPrecision; image-rendering:optimizeQuality; fill-rule:evenodd; clip-rule:evenodd" xmlns:xlink="http://www.w3.org/1999/xlink">
<g><path style="opacity:0.999" fill="#d8d8d8" d="M -0.5,2.5 C 492.167,2.5 984.833,2.5 1477.5,2.5C 1477.5,20.8333 1477.5,39.1667 1477.5,57.5C 984.833,57.5 492.167,57.5 -0.5,57.5C -0.5,39.1667 -0.5,20.8333 -0.5,2.5 Z"/></g>
<g><path style="opacity:1" fill="#d7d7d7" d="M 1426.5,16.5 C 1426.97,17.9063 1427.97,18.573 1429.5,18.5C 1427.26,22.4154 1424.26,25.7488 1420.5,28.5C 1417.52,26.0164 1414.68,23.3497 1412,20.5C 1411.53,19.4232 1411.7,18.4232 1412.5,17.5C 1414.82,16.8401 1417.15,16.1734 1419.5,15.5C 1421.78,16.2234 1424.12,16.5567 1426.5,16.5 Z"/></g>
<g><path style="opacity:1" fill="#606060" d="M 1426.5,16.5 C 1424.12,16.5567 1421.78,16.2234 1419.5,15.5C 1417.15,16.1734 1414.82,16.8401 1412.5,17.5C 1414.61,15.3485 1417.27,14.3485 1420.5,14.5C 1422.88,14.361 1424.88,15.0277 1426.5,16.5 Z"/></g>
<g><path style="opacity:1" fill="#555555" d="M 1426.5,16.5 C 1428.03,16.427 1429.03,17.0937 1429.5,18.5C 1427.97,18.573 1426.97,17.9063 1426.5,16.5 Z"/></g>
<g><path style="opacity:1" fill="#595959" d="M 1412.5,17.5 C 1411.7,18.4232 1411.53,19.4232 1412,20.5C 1414.68,23.3497 1417.52,26.0164 1420.5,28.5C 1424.26,25.7488 1427.26,22.4154 1429.5,18.5C 1430.29,18.7828 1430.96,19.2828 1431.5,20C 1427.56,23.4294 1424.23,27.2628 1421.5,31.5C 1417.17,33.8333 1413.83,37.1667 1411.5,41.5C 1410.71,41.2172 1410.04,40.7172 1409.5,40C 1412.83,36.6667 1416.17,33.3333 1419.5,30C 1416.33,26.8333 1413.17,23.6667 1410,20.5C 1409.29,21.3805 1408.46,22.0472 1407.5,22.5C 1408.17,19.8333 1409.83,18.1667 1412.5,17.5 Z"/></g>
<g><path style="opacity:1" fill="#000000" d="M 97.5,25.5 C 98.4345,26.5676 98.7678,27.901 98.5,29.5C 100.167,29.5 101.833,29.5 103.5,29.5C 104.833,29.8333 104.833,30.1667 103.5,30.5C 101.833,30.5 100.167,30.5 98.5,30.5C 98.6567,31.8734 98.49,33.2068 98,34.5C 97.502,31.5184 97.3354,28.5184 97.5,25.5 Z"/></g>
<g><path style="opacity:1" fill="#565656" d="M 1368.5,26.5 C 1370.08,27.0024 1370.58,28.0024 1370,29.5C 1368.89,31.0368 1367.39,31.7035 1365.5,31.5C 1365.72,32.675 1365.39,33.675 1364.5,34.5C 1363.52,31.5719 1363.18,28.5719 1363.5,25.5C 1365.41,25.2155 1367.08,25.5489 1368.5,26.5 Z"/></g>
<g><path style="opacity:1" fill="#3a3a3a" d="M 1261.5,28.5 C 1259.92,27.9976 1259.42,26.9976 1260,25.5C 1261.04,26.2438 1261.54,27.2438 1261.5,28.5 Z"/></g>
<g><path style="opacity:1" fill="#3c3c3c" d="M 1279.5,28.5 C 1279.46,27.2438 1279.96,26.2438 1281,25.5C 1281.58,26.9976 1281.08,27.9976 1279.5,28.5 Z"/></g>
<g><path style="opacity:1" fill="#383838" d="M 1287.5,28.5 C 1287.46,27.2438 1287.96,26.2438 1289,25.5C 1289.58,26.9976 1289.08,27.9976 1287.5,28.5 Z"/></g>
<g><path style="opacity:1" fill="#cecece" d="M 1368.5,26.5 C 1368.78,28.3464 1368.11,29.6798 1366.5,30.5C 1365.57,29.3112 1365.24,27.9778 1365.5,26.5C 1366.5,26.5 1367.5,26.5 1368.5,26.5 Z"/></g>
<g><path style="opacity:1" fill="#363636" d="M 1253.5,28.5 C 1251.92,27.9976 1251.42,26.9976 1252,25.5C 1253.04,26.2438 1253.54,27.2438 1253.5,28.5 Z"/></g>
<g><path style="opacity:1" fill="#3a3a3a" d="M 1298.5,26.5 C 1298.56,25.9569 1298.89,25.6236 1299.5,25.5C 1300.33,26.5 1301.17,27.5 1302,28.5C 1305.81,24.6056 1306.31,25.1056 1303.5,30C 1306.36,34.9785 1305.86,35.4785 1302,31.5C 1300.33,32.3402 1300.17,31.8402 1301.5,30C 1300.36,28.8549 1299.36,27.6883 1298.5,26.5 Z"/></g>
<g><path style="opacity:1" fill="#505050" d="M 1383.5,25.5 C 1384.55,25.3505 1385.55,25.5172 1386.5,26C 1386.13,28.5701 1385.47,31.4035 1384.5,34.5C 1383.14,31.4292 1382.81,28.4292 1383.5,25.5 Z"/></g>
<g><path style="opacity:1" fill="#5a5a5a" d="M 117.5,28.5 C 115.964,30.0251 114.964,32.0251 114.5,34.5C 113.526,32.2573 113.192,29.924 113.5,27.5C 115.099,27.2322 116.432,27.5655 117.5,28.5 Z"/></g>
<g><path style="opacity:1" fill="#373737" d="M 1296.5,25.5 C 1297.04,25.56 1297.38,25.8933 1297.5,26.5C 1296.62,27.548 1295.95,28.7147 1295.5,30C 1298.31,34.8944 1297.81,35.3944 1294,31.5C 1293.58,33.6145 1292.41,34.4479 1290.5,34C 1292.72,32.1109 1293.55,29.9442 1293,27.5C 1294.58,28.172 1295.75,27.5053 1296.5,25.5 Z"/></g>
<g><path style="opacity:1" fill="#232323" d="M 1371.5,27.5 C 1372.29,27.7828 1372.96,28.2828 1373.5,29C 1372.75,30.7337 1372.25,32.567 1372,34.5C 1371.5,32.1902 1371.34,29.8568 1371.5,27.5 Z"/></g>
<g><path style="opacity:1" fill="#6d6d6d" d="M 1387.5,27.5 C 1388.73,28.1522 1389.39,29.3189 1389.5,31C 1389.17,32.1667 1388.83,33.3333 1388.5,34.5C 1387.53,32.2573 1387.19,29.924 1387.5,27.5 Z"/></g>
<g><path style="opacity:1" fill="#595959" d="M 1407.5,22.5 C 1406.89,26.4724 1406.39,30.4724 1406,34.5C 1405.33,31.1667 1405.33,27.8333 1406,24.5C 1406.28,23.5842 1406.78,22.9175 1407.5,22.5 Z"/></g>
<g><path style="opacity:1" fill="#c7c7c7" d="M 110.5,28.5 C 112.33,31.8375 111.33,33.5042 107.5,33.5C 106.916,30.715 107.916,29.0483 110.5,28.5 Z"/></g>
<g><path style="opacity:1" fill="#777777" d="M 117.5,28.5 C 118.693,28.9704 119.36,29.9704 119.5,31.5C 119.167,32.5 118.833,33.5 118.5,34.5C 117.534,32.604 117.201,30.604 117.5,28.5 Z"/></g>
<g><path style="opacity:1" fill="#353535" d="M 1253.5,31.5 C 1253.5,30.5 1253.5,29.5 1253.5,28.5C 1254.5,28.5858 1255.33,28.2524 1256,27.5C 1255.45,29.9442 1256.28,32.1109 1258.5,34C 1256.6,33.7867 1254.93,32.9534 1253.5,31.5 Z"/></g>
<g><path style="opacity:1" fill="#c5c5c5" d="M 1377.5,28.5 C 1380.08,29.0483 1381.08,30.715 1380.5,33.5C 1379.04,33.5674 1377.71,33.2341 1376.5,32.5C 1376.83,31.1667 1377.17,29.8333 1377.5,28.5 Z"/></g>
<g><path style="opacity:1" fill="#353535" d="M 110.5,28.5 C 107.916,29.0483 106.916,30.715 107.5,33.5C 106.387,32.0536 106.22,30.3869 107,28.5C 108.292,27.2089 109.458,27.2089 110.5,28.5 Z"/></g>
<g><path style="opacity:1" fill="#252525" d="M 128.5,28.5 C 127.244,28.4614 126.244,28.9614 125.5,30C 127.058,30.21 128.391,30.71 129.5,31.5C 127.549,31.2267 126.049,31.8934 125,33.5C 124.333,31.8333 124.333,30.1667 125,28.5C 126.292,27.2089 127.458,27.2089 128.5,28.5 Z"/></g>
<g><path style="opacity:1" fill="#7b7b7b" d="M 128.5,28.5 C 130.382,29.221 130.715,30.221 129.5,31.5C 128.391,30.71 127.058,30.21 125.5,30C 126.244,28.9614 127.244,28.4614 128.5,28.5 Z"/></g>
<g><path style="opacity:1" fill="#2e2e2e" d="M 1261.5,31.5 C 1261.5,30.5 1261.5,29.5 1261.5,28.5C 1263.07,28.0629 1264.24,27.0629 1265,25.5C 1265.26,27.1626 1264.76,28.6626 1263.5,30C 1264.76,31.3374 1265.26,32.8374 1265,34.5C 1264.24,32.9371 1263.07,31.9371 1261.5,31.5 Z"/></g>
<g><path style="opacity:1" fill="#313131" d="M 1279.5,28.5 C 1279.5,29.5 1279.5,30.5 1279.5,31.5C 1277.93,31.9371 1276.76,32.9371 1276,34.5C 1275.74,32.8374 1276.24,31.3374 1277.5,30C 1274.57,25.2726 1272.57,25.7726 1271.5,31.5C 1270.83,31.5 1270.17,31.5 1269.5,31.5C 1268.65,29.5056 1268.15,27.5056 1268,25.5C 1268.83,26.5 1269.67,27.5 1270.5,28.5C 1271.27,26.7282 1272.6,25.7282 1274.5,25.5C 1276.36,26.2665 1278.02,27.2665 1279.5,28.5 Z"/></g>
<g><path style="opacity:1" fill="#3d3d3d" d="M 1287.5,28.5 C 1287.5,29.5 1287.5,30.5 1287.5,31.5C 1282.36,35.7684 1281.69,35.2684 1285.5,30C 1284.55,29.2825 1284.38,28.4491 1285,27.5C 1285.67,28.2524 1286.5,28.5858 1287.5,28.5 Z"/></g>
<g><path style="opacity:1" fill="#3c3c3c" d="M 1306.5,26.5 C 1306.56,25.9569 1306.89,25.6236 1307.5,25.5C 1308.33,26.5 1309.17,27.5 1310,28.5C 1313.86,24.5215 1314.36,25.0215 1311.5,30C 1314.36,34.9785 1313.86,35.4785 1310,31.5C 1309.28,33.2552 1308.11,34.0885 1306.5,34C 1307.26,32.4878 1308.26,31.1545 1309.5,30C 1308.36,28.8549 1307.36,27.6883 1306.5,26.5 Z"/></g>
<g><path style="opacity:1" fill="#3d3d3d" d="M 1314.5,26.5 C 1314.56,25.9569 1314.89,25.6236 1315.5,25.5C 1316.33,26.5 1317.17,27.5 1318,28.5C 1318.72,26.7448 1319.89,25.9115 1321.5,26C 1319.41,27.9574 1318.58,30.1241 1319,32.5C 1318.67,32.1667 1318.33,31.8333 1318,31.5C 1314.14,35.4785 1313.64,34.9785 1316.5,30C 1316.19,28.5405 1315.53,27.3739 1314.5,26.5 Z"/></g>
<g><path style="opacity:1" fill="#464646" d="M 1377.5,28.5 C 1377.17,29.8333 1376.83,31.1667 1376.5,32.5C 1375.15,30.8716 1375.48,29.5383 1377.5,28.5 Z"/></g>
<g><path style="opacity:1" fill="#303030" d="M 1377.5,28.5 C 1378.54,27.2089 1379.71,27.2089 1381,28.5C 1381.78,30.3869 1381.61,32.0536 1380.5,33.5C 1381.08,30.715 1380.08,29.0483 1377.5,28.5 Z"/></g>
<g><path style="opacity:1" fill="#2b2b2b" d="M 1397.5,28.5 C 1398.48,28.811 1399.14,29.4777 1399.5,30.5C 1393.62,31.159 1393.29,32.3257 1398.5,34C 1393.92,34.9337 1392.42,33.1004 1394,28.5C 1395.29,27.2089 1396.46,27.2089 1397.5,28.5 Z"/></g>
<g><path style="opacity:1" fill="#cecece" d="M 1397.5,28.5 C 1397.16,30.2252 1396.16,30.7252 1394.5,30C 1395.24,28.9614 1396.24,28.4614 1397.5,28.5 Z"/></g>
<g><path style="opacity:1" fill="#252525" d="M 1253.5,31.5 C 1253.54,32.7562 1253.04,33.7562 1252,34.5C 1251.42,33.0024 1251.92,32.0024 1253.5,31.5 Z"/></g>
<g><path style="opacity:1" fill="#3c3c3c" d="M 1261.5,31.5 C 1261.54,32.7562 1261.04,33.7562 1260,34.5C 1259.42,33.0024 1259.92,32.0024 1261.5,31.5 Z"/></g>
<g><path style="opacity:1" fill="#3f3f3f" d="M 1269.5,31.5 C 1269.54,32.7562 1269.04,33.7562 1268,34.5C 1267.42,33.0024 1267.92,32.0024 1269.5,31.5 Z"/></g>
<g><path style="opacity:1" fill="#343434" d="M 1271.5,31.5 C 1273.08,32.0024 1273.58,33.0024 1273,34.5C 1271.96,33.7562 1271.46,32.7562 1271.5,31.5 Z"/></g>
<g><path style="opacity:1" fill="#2f2f2f" d="M 1279.5,31.5 C 1281.08,32.0024 1281.58,33.0024 1281,34.5C 1279.96,33.7562 1279.46,32.7562 1279.5,31.5 Z"/></g>
<g><path style="opacity:1" fill="#323232" d="M 1287.5,31.5 C 1289.08,32.0024 1289.58,33.0024 1289,34.5C 1287.96,33.7562 1287.46,32.7562 1287.5,31.5 Z"/></g>
<g><path style="opacity:1" fill="#434343" d="M 110.5,28.5 C 112.377,29.6591 112.877,31.3258 112,33.5C 110.384,34.8009 108.884,34.8009 107.5,33.5C 111.33,33.5042 112.33,31.8375 110.5,28.5 Z"/></g>
<g><path style="opacity:1" fill="#282828" d="M 1376.5,32.5 C 1377.71,33.2341 1379.04,33.5674 1380.5,33.5C 1380.08,34.1239 1379.42,34.4573 1378.5,34.5C 1377.29,34.2528 1376.62,33.5862 1376.5,32.5 Z"/></g>
<g><path style="opacity:1" fill="#5d5d5d" d="M 1421.5,31.5 C 1424.75,33.4033 1427.75,35.7366 1430.5,38.5C 1433.46,35.1424 1434.96,31.1424 1435,26.5C 1436.25,33.2554 1434.08,38.5888 1428.5,42.5C 1427.71,41.6446 1428.04,40.8113 1429.5,40C 1426.63,37.2972 1423.96,34.4639 1421.5,31.5 Z"/></g>
<g><path style="opacity:1" fill="#585858" d="M 1411.5,41.5 C 1415.99,43.0527 1420.66,43.886 1425.5,44C 1421.83,44.6667 1418.17,44.6667 1414.5,44C 1413.06,43.6232 1412.06,42.7899 1411.5,41.5 Z"/></g>
<g><path style="opacity:0.999" fill="#fefefe" d="M -0.5,57.5 C 492.167,57.5 984.833,57.5 1477.5,57.5C 1477.5,315.5 1477.5,573.5 1477.5,831.5C 984.833,831.5 492.167,831.5 -0.5,831.5C -0.5,573.5 -0.5,315.5 -0.5,57.5 Z"/></g>
<g><path style="opacity:1" fill="#b3b3b3" d="M 130.5,131.5 C 131.765,132.514 132.431,134.014 132.5,136C 132.167,137.5 131.833,139 131.5,140.5C 130.516,137.572 130.183,134.572 130.5,131.5 Z"/></g>
<g><path style="opacity:1" fill="#aeaeae" d="M 133.5,131.5 C 134.765,132.514 135.431,134.014 135.5,136C 135.167,137.5 134.833,139 134.5,140.5C 133.516,137.572 133.183,134.572 133.5,131.5 Z"/></g>
<g><path style="opacity:1" fill="#3c3c3c" d="M 171.5,136.5 C 170.432,137.434 169.099,137.768 167.5,137.5C 166.223,138.317 165.89,136.317 166.5,131.5C 171.509,130.5 173.176,132.167 171.5,136.5 Z"/></g>
<g><path style="opacity:1" fill="#dadada" d="M 171.5,136.5 C 170.167,136.5 168.833,136.5 167.5,136.5C 167.5,135.167 167.5,133.833 167.5,132.5C 170.5,132.167 171.833,133.5 171.5,136.5 Z"/></g>
<g><path style="opacity:1" fill="#8c8c8c" d="M 194.5,135.5 C 192.716,136.72 191.05,136.72 189.5,135.5C 191.167,132.833 192.833,132.833 194.5,135.5 Z"/></g>
<g><path style="opacity:1" fill="#aaaaaa" d="M 116.5,131.5 C 117.75,131.577 118.583,132.244 119,133.5C 120,132.167 121,132.167 122,133.5C 121.416,135.7 121.582,137.867 122.5,140C 121.551,140.617 120.718,140.451 120,139.5C 119.667,138.167 119.333,136.833 119,135.5C 118.798,137.256 118.298,138.922 117.5,140.5C 116.516,137.572 116.183,134.572 116.5,131.5 Z"/></g>
<g><path style="opacity:1" fill="#808080" d="M 195.5,133.5 C 196.978,133.238 198.311,133.571 199.5,134.5C 198.173,136.311 197.173,138.311 196.5,140.5C 195.526,138.257 195.192,135.924 195.5,133.5 Z"/></g>
<g><path style="opacity:1" fill="#333333" d="M 175.5,137.5 C 179.158,135.63 178.825,134.797 174.5,135C 175.593,133.635 176.926,133.301 178.5,134C 179.423,136.041 179.756,138.208 179.5,140.5C 177.833,140.5 176.167,140.5 174.5,140.5C 174.263,139.209 174.596,138.209 175.5,137.5 Z"/></g>
<g><path style="opacity:1" fill="#363636" d="M 189.5,135.5 C 191.05,136.72 192.716,136.72 194.5,135.5C 193.411,137.117 191.744,137.95 189.5,138C 190.623,139.044 191.956,139.71 193.5,140C 188.985,140.994 187.651,139.494 189.5,135.5 Z"/></g>
<g><path style="opacity:1" fill="#a8a8a8" d="M 125.5,133.5 C 126.822,133.33 127.989,133.663 129,134.5C 129.495,136.473 129.662,138.473 129.5,140.5C 122.693,140.578 122.026,138.911 127.5,135.5C 126.738,135.089 125.738,134.923 124.5,135C 125.056,134.617 125.389,134.117 125.5,133.5 Z"/></g>
<g><path style="opacity:1" fill="#dddddd" d="M 175.5,137.5 C 176.675,137.281 177.675,137.614 178.5,138.5C 176.948,139.798 175.948,139.465 175.5,137.5 Z"/></g>
<g><path style="opacity:1" fill="#949494" d="M 136.5,133.5 C 137.558,134.6 138.392,135.934 139,137.5C 140,136.167 141,134.833 142,133.5C 141.882,137.407 140.382,140.74 137.5,143.5C 137.167,143.333 136.833,143.167 136.5,143C 137.574,142.261 138.241,141.261 138.5,140C 137.391,137.953 136.724,135.787 136.5,133.5 Z"/></g>
<g><path style="opacity:1" fill="#808080" d="M 97.5,131.5 C 103.989,131.156 105.989,133.99 103.5,140C 101.527,140.495 99.5273,140.662 97.5,140.5C 97.5,137.5 97.5,134.5 97.5,131.5 Z"/></g>
<g><path style="opacity:1" fill="#f5f5f5" d="M 98.5,132.5 C 102.976,132.8 104.31,134.967 102.5,139C 101.207,139.49 99.8734,139.657 98.5,139.5C 98.5,137.167 98.5,134.833 98.5,132.5 Z"/></g>
<g><path style="opacity:1" fill="#929292" d="M 110.5,133.5 C 111.833,133.5 113.167,133.5 114.5,133.5C 114.665,136.518 114.498,139.518 114,142.5C 113.275,143.059 112.442,143.392 111.5,143.5C 110.068,143.267 109.568,142.6 110,141.5C 111.297,142.784 112.464,142.617 113.5,141C 108.443,139.986 107.443,137.486 110.5,133.5 Z"/></g>
<g><path style="opacity:1" fill="#f6f6f6" d="M 111.5,134.5 C 113.213,135.635 113.88,137.302 113.5,139.5C 112.5,139.5 111.5,139.5 110.5,139.5C 110.366,137.708 110.699,136.042 111.5,134.5 Z"/></g>
<g><path style="opacity:1" fill="#373737" d="M 183.5,133.5 C 187.264,134.385 188.264,136.552 186.5,140C 185.207,140.49 183.873,140.657 182.5,140.5C 182.649,141.552 182.483,142.552 182,143.5C 181.063,139.833 181.563,136.499 183.5,133.5 Z"/></g>
<g><path style="opacity:1" fill="#f0f0f0" d="M 182.5,135.5 C 184.346,135.222 185.68,135.889 186.5,137.5C 185.68,139.111 184.346,139.778 182.5,139.5C 182.5,138.167 182.5,136.833 182.5,135.5 Z"/></g>
<g><path style="opacity:1" fill="#292929" d="M 164.5,190.5 C 166.045,191.23 166.878,192.563 167,194.5C 168.494,193.253 169.994,193.253 171.5,194.5C 172.575,197.438 172.741,200.438 172,203.5C 171.667,201.167 171.333,198.833 171,196.5C 169.667,195.167 168.333,195.167 167,196.5C 166.814,198.9 166.314,201.234 165.5,203.5C 164.508,199.217 164.174,194.884 164.5,190.5 Z"/></g>
<g><path style="opacity:1" fill="#3f3f3f" d="M 389.5,190.5 C 391.337,190.639 391.67,191.306 390.5,192.5C 389.702,192.043 389.369,191.376 389.5,190.5 Z"/></g>
<g><path style="opacity:1" fill="#050505" d="M 403.5,195.5 C 402.772,198.079 402.272,200.746 402,203.5C 401.333,199.167 401.333,194.833 402,190.5C 402.198,192.382 402.698,194.048 403.5,195.5 Z"/></g>
<g><path style="opacity:1" fill="#303030" d="M 146.5,191.5 C 148.078,192.066 149.412,193.066 150.5,194.5C 147.833,197.5 147.833,200.5 150.5,203.5C 149.349,204.731 148.183,204.731 147,203.5C 146.135,199.36 145.968,195.36 146.5,191.5 Z"/></g>
<g><path style="opacity:1" fill="#111111" d="M 159.5,191.5 C 159.185,195.371 159.518,199.038 160.5,202.5C 161.067,203.42 160.401,203.754 158.5,203.5C 158.777,200.552 158.444,197.719 157.5,195C 158.085,193.698 158.751,192.531 159.5,191.5 Z"/></g>
<g><path style="opacity:1" fill="#323232" d="M 255.5,191.5 C 257.078,192.066 258.412,193.066 259.5,194.5C 256.833,197.5 256.833,200.5 259.5,203.5C 257.993,204.739 256.826,204.405 256,202.5C 255.095,198.745 254.928,195.079 255.5,191.5 Z"/></g>
<g><path style="opacity:1" fill="#363636" d="M 352.5,191.5 C 354.078,192.066 355.412,193.066 356.5,194.5C 353.833,197.5 353.833,200.5 356.5,203.5C 355.349,204.731 354.183,204.731 353,203.5C 352.135,199.36 351.968,195.36 352.5,191.5 Z"/></g>
<g><path style="opacity:1" fill="#717171" d="M 423.5,194.5 C 425.035,193.212 426.701,193.212 428.5,194.5C 427.675,195.386 426.675,195.719 425.5,195.5C 424.833,195.167 424.167,194.833 423.5,194.5 Z"/></g>
<g><path style="opacity:1" fill="#666666" d="M 159.5,191.5 C 160.452,192.452 161.452,193.452 162.5,194.5C 160.777,196.868 160.11,199.534 160.5,202.5C 159.518,199.038 159.185,195.371 159.5,191.5 Z"/></g>
<g><path style="opacity:1" fill="#646464" d="M 241.5,194.5 C 240.833,196.833 240.167,199.167 239.5,201.5C 239.187,198.753 239.52,196.086 240.5,193.5C 241.107,193.624 241.44,193.957 241.5,194.5 Z"/></g>
<g><path style="opacity:1" fill="#b1b1b1" d="M 250.5,194.5 C 248.901,194.232 247.568,194.566 246.5,195.5C 245.883,195.389 245.383,195.056 245,194.5C 244.502,197.482 244.335,200.482 244.5,203.5C 243.521,200.375 243.187,197.042 243.5,193.5C 246.059,193.198 248.393,193.532 250.5,194.5 Z"/></g>
<g><path style="opacity:1" fill="#040404" d="M 246.5,195.5 C 245.922,198.28 245.255,200.947 244.5,203.5C 244.335,200.482 244.502,197.482 245,194.5C 245.383,195.056 245.883,195.389 246.5,195.5 Z"/></g>
<g><path style="opacity:1" fill="#121212" d="M 293.5,202.5 C 292.432,203.434 291.099,203.768 289.5,203.5C 288.362,200.696 288.195,197.696 289,194.5C 289.333,196.833 289.667,199.167 290,201.5C 291.011,202.337 292.178,202.67 293.5,202.5 Z"/></g>
<g><path style="opacity:1" fill="#040404" d="M 293.5,202.5 C 293.5,202.167 293.5,201.833 293.5,201.5C 294.314,199.369 294.814,197.036 295,194.5C 295.667,197.5 295.667,200.5 295,203.5C 294.617,202.944 294.117,202.611 293.5,202.5 Z"/></g>
<g><path style="opacity:1" fill="#a7a7a7" d="M 289.5,203.5 C 291.099,203.768 292.432,203.434 293.5,202.5C 294.117,202.611 294.617,202.944 295,203.5C 295.667,200.5 295.667,197.5 295,194.5C 294.814,197.036 294.314,199.369 293.5,201.5C 293.5,198.833 293.5,196.167 293.5,193.5C 294.5,193.5 295.5,193.5 296.5,193.5C 296.5,197.167 296.5,200.833 296.5,204.5C 293.941,204.802 291.607,204.468 289.5,203.5 Z"/></g>
<g><path style="opacity:1" fill="#afafaf" d="M 335.5,194.5 C 333.901,194.232 332.568,194.566 331.5,195.5C 330.883,195.389 330.383,195.056 330,194.5C 329.502,197.482 329.335,200.482 329.5,203.5C 328.521,200.375 328.187,197.042 328.5,193.5C 331.059,193.198 333.393,193.532 335.5,194.5 Z"/></g>
<g><path style="opacity:1" fill="#040404" d="M 331.5,195.5 C 330.922,198.28 330.255,200.947 329.5,203.5C 329.335,200.482 329.502,197.482 330,194.5C 330.383,195.056 330.883,195.389 331.5,195.5 Z"/></g>
<g><path style="opacity:1" fill="#262626" d="M 374.5,194.5 C 376.397,196.269 377.564,198.602 378,201.5C 379.758,192.368 381.758,192.368 384,201.5C 384.376,198.99 385.21,196.657 386.5,194.5C 386.833,194.833 387.167,195.167 387.5,195.5C 386.722,198.539 385.388,201.206 383.5,203.5C 382.21,201.343 381.376,199.01 381,196.5C 380.484,199.251 379.317,201.584 377.5,203.5C 376.038,200.653 375.038,197.653 374.5,194.5 Z"/></g>
<g><path style="opacity:1" fill="#323232" d="M 389.5,193.5 C 390.787,194.871 391.453,196.705 391.5,199C 391.167,200.833 390.833,202.667 390.5,204.5C 389.511,200.893 389.177,197.226 389.5,193.5 Z"/></g>
<g><path style="opacity:1" fill="#000000" d="M 423.5,194.5 C 424.167,194.833 424.833,195.167 425.5,195.5C 425.5,195.833 425.5,196.167 425.5,196.5C 424.833,198.833 424.167,201.167 423.5,203.5C 423.5,200.5 423.5,197.5 423.5,194.5 Z"/></g>
<g><path style="opacity:1" fill="#212121" d="M 444.5,201.5 C 445.793,192.376 447.627,192.376 450,201.5C 450.376,198.99 451.21,196.657 452.5,194.5C 452.842,197.364 452.176,200.198 450.5,203C 449.517,203.591 448.85,203.257 448.5,202C 447.922,200.189 447.422,198.355 447,196.5C 446.626,198.491 445.793,200.158 444.5,201.5 Z"/></g>
<g><path style="opacity:1" fill="#343434" d="M 470.5,193.5 C 472.934,194.354 472.767,195.354 470,196.5C 469.818,199.226 469.318,201.893 468.5,204.5C 467.513,201.232 467.18,197.898 467.5,194.5C 468.791,194.737 469.791,194.404 470.5,193.5 Z"/></g>
<g><path style="opacity:1" fill="#242424" d="M 198.5,195.5 C 198.806,198.385 198.473,201.052 197.5,203.5C 192.429,205.594 190.763,204.094 192.5,199C 194.619,198.902 196.286,198.069 197.5,196.5C 195.527,195.669 193.527,195.502 191.5,196C 193.807,192.987 196.141,192.82 198.5,195.5 Z"/></g>
<g><path style="opacity:1" fill="#303030" d="M 214.5,193.5 C 216.665,193.116 218.332,193.783 219.5,195.5C 218.091,195.654 216.424,195.821 214.5,196C 213.167,198 213.167,200 214.5,202C 216.557,202.305 218.557,202.305 220.5,202C 217.512,205.384 214.679,205.217 212,201.5C 211.018,198.225 211.851,195.559 214.5,193.5 Z"/></g>
<g><path style="opacity:1" fill="#393939" d="M 340.5,191.5 C 342.078,192.066 343.412,193.066 344.5,194.5C 341.833,197.5 341.833,200.5 344.5,203.5C 342.993,204.739 341.826,204.405 341,202.5C 340.095,198.745 339.928,195.079 340.5,191.5 Z"/></g>
<g><path style="opacity:1" fill="#2f2f2f" d="M 394.5,191.5 C 396.078,192.066 397.412,193.066 398.5,194.5C 395.833,197.5 395.833,200.5 398.5,203.5C 397.132,204.594 395.965,204.26 395,202.5C 394.095,198.745 393.928,195.079 394.5,191.5 Z"/></g>
<g><path style="opacity:1" fill="#323232" d="M 462.5,190.5 C 465.797,190.329 466.131,190.995 463.5,192.5C 464.167,193.167 464.833,193.833 465.5,194.5C 464.022,197.632 463.022,200.965 462.5,204.5C 461.796,201.296 461.13,198.129 460.5,195C 461.267,193.53 461.933,192.03 462.5,190.5 Z"/></g>
<g><path style="opacity:1" fill="#1c1c1c" d="M 112.5,193.5 C 116.314,193.651 117.981,195.651 117.5,199.5C 115.076,199.192 112.743,199.526 110.5,200.5C 112.315,202.694 114.482,203.028 117,201.5C 115.567,205.055 113.233,205.389 110,202.5C 108.779,198.718 109.613,195.718 112.5,193.5 Z"/></g>
<g><path style="opacity:1" fill="#1c1c1c" d="M 178.5,193.5 C 182.357,193.69 184.024,195.69 183.5,199.5C 181.076,199.192 178.743,199.526 176.5,200.5C 178.099,202.729 180.099,203.062 182.5,201.5C 183.604,202.631 183.271,203.465 181.5,204C 179.433,204.536 177.599,204.036 176,202.5C 174.779,198.718 175.613,195.718 178.5,193.5 Z"/></g>
<g><path style="opacity:1" fill="#6e6e6e" d="M 198.5,195.5 C 199.803,198.355 199.803,201.355 198.5,204.5C 197.893,204.376 197.56,204.043 197.5,203.5C 198.473,201.052 198.806,198.385 198.5,195.5 Z"/></g>
<g><path style="opacity:1" fill="#363636" d="M 418.5,190.5 C 419.805,192.397 420.471,194.731 420.5,197.5C 420.167,199.833 419.833,202.167 419.5,204.5C 417.657,204.245 415.657,204.078 413.5,204C 410.575,200.304 410.908,196.971 414.5,194C 415.784,193.316 416.951,193.483 418,194.5C 418.49,193.207 418.657,191.873 418.5,190.5 Z"/></g>
<g><path style="opacity:1" fill="#fdfdfd" d="M 414.5,195.5 C 418.473,196.075 419.473,198.242 417.5,202C 416.216,202.684 415.049,202.517 414,201.5C 413.322,199.402 413.489,197.402 414.5,195.5 Z"/></g>
<g><path style="opacity:1" fill="#2e2e2e" d="M 488.5,193.5 C 490.722,194.386 492.888,194.386 495,193.5C 496.261,193.759 497.261,194.426 498,195.5C 498.821,198.554 498.655,201.554 497.5,204.5C 496.516,201.572 496.183,198.572 496.5,195.5C 495.178,195.33 494.011,195.663 493,196.5C 492.333,205.833 491.667,205.833 491,196.5C 489.951,195.483 488.784,195.316 487.5,196C 486.726,198.405 486.226,200.905 486,203.5C 485.502,200.518 485.335,197.518 485.5,194.5C 486.791,194.737 487.791,194.404 488.5,193.5 Z"/></g>
<g><path style="opacity:1" fill="#c6c6c6" d="M 111.5,195.5 C 113.665,195.116 115.332,195.783 116.5,197.5C 114.5,198.833 112.5,198.833 110.5,197.5C 110.863,196.817 111.196,196.15 111.5,195.5 Z"/></g>
<g><path style="opacity:1" fill="#2a2a2a" d="M 127.5,193.5 C 131.167,193.833 133.167,195.833 133.5,199.5C 131.167,199.5 128.833,199.5 126.5,199.5C 126.5,200.5 126.5,201.5 126.5,202.5C 128.78,202.254 130.78,202.254 132.5,202.5C 127.903,205.848 125.236,204.681 124.5,199C 124.613,196.601 125.613,194.768 127.5,193.5 Z"/></g>
<g><path style="opacity:1" fill="#e8e8e8" d="M 127.5,195.5 C 129.346,195.222 130.68,195.889 131.5,197.5C 129.833,198.833 128.167,198.833 126.5,197.5C 126.863,196.817 127.196,196.15 127.5,195.5 Z"/></g>
<g><path style="opacity:1" fill="#c8c8c8" d="M 177.5,195.5 C 179.665,195.116 181.332,195.783 182.5,197.5C 180.5,198.833 178.5,198.833 176.5,197.5C 176.863,196.817 177.196,196.15 177.5,195.5 Z"/></g>
<g><path style="opacity:1" fill="#393939" d="M 246.5,195.5 C 247.568,194.566 248.901,194.232 250.5,194.5C 251.117,194.611 251.617,194.944 252,195.5C 252.818,198.227 252.652,200.894 251.5,203.5C 250.52,200.914 250.187,198.247 250.5,195.5C 249.167,195.5 247.833,195.5 246.5,195.5 Z"/></g>
<g><path style="opacity:1" fill="#2a2a2a" d="M 303.5,194.5 C 305.694,196.221 306.861,198.555 307,201.5C 308.69,192.331 310.69,192.331 313,201.5C 313.376,198.99 314.21,196.657 315.5,194.5C 315.833,194.833 316.167,195.167 316.5,195.5C 315.499,198.172 314.499,200.839 313.5,203.5C 311.3,201.747 310.133,199.414 310,196.5C 309.484,199.251 308.317,201.584 306.5,203.5C 305.296,200.556 304.296,197.556 303.5,194.5 Z"/></g>
<g><path style="opacity:1" fill="#232323" d="M 320.5,193.5 C 322.722,193.178 324.556,193.845 326,195.5C 326.497,198.146 326.664,200.813 326.5,203.5C 323.673,204.974 321.173,204.64 319,202.5C 318.316,201.216 318.483,200.049 319.5,199C 321.134,198.506 322.801,198.34 324.5,198.5C 324.5,197.5 324.5,196.5 324.5,195.5C 322.738,195.357 321.071,195.691 319.5,196.5C 319.167,196.333 318.833,196.167 318.5,196C 319.381,195.292 320.047,194.458 320.5,193.5 Z"/></g>
<g><path style="opacity:1" fill="#393939" d="M 331.5,195.5 C 332.568,194.566 333.901,194.232 335.5,194.5C 336.117,194.611 336.617,194.944 337,195.5C 337.818,198.227 337.652,200.894 336.5,203.5C 335.52,200.914 335.187,198.247 335.5,195.5C 334.167,195.5 332.833,195.5 331.5,195.5 Z"/></g>
<g><path style="opacity:1" fill="#373737" d="M 403.5,195.5 C 405.083,193.137 406.916,193.137 409,195.5C 409.821,198.554 409.655,201.554 408.5,204.5C 407.682,201.893 407.182,199.226 407,196.5C 405.989,195.663 404.822,195.33 403.5,195.5 Z"/></g>
<g><path style="opacity:1" fill="#848484" d="M 425.5,196.5 C 425.813,199.247 425.48,201.914 424.5,204.5C 423.893,204.376 423.56,204.043 423.5,203.5C 424.167,201.167 424.833,198.833 425.5,196.5 Z"/></g>
<g><path style="opacity:1" fill="#3c3c3c" d="M 476.5,193.5 C 482.156,193.867 483.989,196.867 482,202.5C 479.034,205.265 476.367,204.932 474,201.5C 473.018,198.225 473.851,195.559 476.5,193.5 Z"/></g>
<g><path style="opacity:1" fill="#f0f0f0" d="M 476.5,195.5 C 481.014,195.693 482.347,197.86 480.5,202C 475.57,202.427 474.237,200.26 476.5,195.5 Z"/></g>
<g><path style="opacity:1" fill="#f0f0f0" d="M 193.5,199.5 C 198.276,199.671 198.609,200.671 194.5,202.5C 192.197,202.124 191.863,201.124 193.5,199.5 Z"/></g>
<g><path style="opacity:1" fill="#262626" d="M 225.5,193.5 C 231.267,194.423 232.767,197.423 230,202.5C 227.756,204.994 225.423,204.994 223,202.5C 221.779,198.718 222.613,195.718 225.5,193.5 Z"/></g>
<g><path style="opacity:1" fill="#f2f2f2" d="M 224.5,195.5 C 229.328,195.385 230.661,197.552 228.5,202C 226.888,202.72 225.388,202.554 224,201.5C 223.51,199.455 223.677,197.455 224.5,195.5 Z"/></g>
<g><path style="opacity:1" fill="#f1f1f1" d="M 320.5,199.5 C 321.833,199.5 323.167,199.5 324.5,199.5C 324.5,200.5 324.5,201.5 324.5,202.5C 323.167,202.5 321.833,202.5 320.5,202.5C 320.5,201.5 320.5,200.5 320.5,199.5 Z"/></g>
<g><path style="opacity:1" fill="#282828" d="M 361.5,193.5 C 366.288,194.123 368.121,196.79 367,201.5C 362.65,205.716 359.816,204.883 358.5,199C 358.12,196.297 359.12,194.463 361.5,193.5 Z"/></g>
<g><path style="opacity:1" fill="#f2f2f2" d="M 360.5,195.5 C 365.328,195.385 366.661,197.552 364.5,202C 362.888,202.72 361.388,202.554 360,201.5C 359.51,199.455 359.677,197.455 360.5,195.5 Z"/></g>
<g><path style="opacity:1" fill="#3e3e3e" d="M 444.5,201.5 C 443.905,204.113 443.071,204.113 442,201.5C 441.689,199.444 441.189,197.444 440.5,195.5C 440.833,195.167 441.167,194.833 441.5,194.5C 442.359,197 443.359,199.333 444.5,201.5 Z"/></g>
<g><path style="opacity:1" fill="#363636" d="M 99.5,190.5 C 102.157,190.162 104.49,190.829 106.5,192.5C 104.345,192.838 102.011,192.838 99.5,192.5C 99.3505,193.552 99.5172,194.552 100,195.5C 102.071,196.525 104.238,197.358 106.5,198C 108.14,200.776 107.473,202.776 104.5,204C 101.975,204.896 99.8083,204.396 98,202.5C 97.3123,201.668 97.479,201.002 98.5,200.5C 100.942,203.132 103.275,203.132 105.5,200.5C 103.012,198.931 100.512,197.264 98,195.5C 97.3872,193.505 97.8872,191.838 99.5,190.5 Z"/></g>
<g><path style="opacity:1" fill="#292929" d="M 137.5,193.5 C 140.022,193.128 142.022,193.961 143.5,196C 142.197,196.21 140.864,196.043 139.5,195.5C 136.592,196.963 135.925,199.13 137.5,202C 139.557,202.305 141.557,202.305 143.5,202C 141.15,205.051 138.65,205.217 136,202.5C 135.068,199.177 135.568,196.177 137.5,193.5 Z"/></g>
<g><path style="opacity:1" fill="#2b2b2b" d="M 266.5,195.5 C 267.077,194.227 267.743,194.227 268.5,195.5C 270.177,202.027 271.677,202.027 273,195.5C 273.889,194.112 274.389,194.278 274.5,196C 273.302,200.227 271.468,204.06 269,207.5C 268.5,207.333 268,207.167 267.5,207C 268.578,206.326 269.245,205.326 269.5,204C 268.583,201.028 267.583,198.194 266.5,195.5 Z"/></g>
<g><path style="opacity:1" fill="#3c3c3c" d="M 204.5,193.5 C 206.484,193.383 208.15,194.05 209.5,195.5C 207.722,195.569 205.889,195.903 204,196.5C 203.333,198.167 203.333,199.833 204,201.5C 205.994,202.279 207.828,202.613 209.5,202.5C 204.903,205.848 202.236,204.681 201.5,199C 201.863,196.808 202.863,194.974 204.5,193.5 Z"/></g>
<g><path style="opacity:1" fill="#333333" d="M 239.5,201.5 C 240.167,199.167 240.833,196.833 241.5,194.5C 241.82,197.898 241.487,201.232 240.5,204.5C 239.402,203.385 238.235,203.385 237,204.5C 235.739,204.241 234.739,203.574 234,202.5C 233.179,199.446 233.345,196.446 234.5,193.5C 235.484,196.428 235.817,199.428 235.5,202.5C 236.959,202.567 238.292,202.234 239.5,201.5 Z"/></g>
<g><path style="opacity:1" fill="#3e3e3e" d="M 279.5,193.5 C 285.039,194.239 286.705,197.239 284.5,202.5C 279.903,205.848 277.236,204.681 276.5,199C 276.863,196.808 277.863,194.974 279.5,193.5 Z"/></g>
<g><path style="opacity:1" fill="#fafafa" d="M 279.5,195.5 C 280.822,195.33 281.989,195.663 283,196.5C 283.495,198.473 283.662,200.473 283.5,202.5C 278.59,202.424 277.257,200.09 279.5,195.5 Z"/></g>
<g><path style="opacity:1" fill="#363636" d="M 431.5,199.5 C 438.127,196.937 437.794,195.771 430.5,196C 431.997,193.793 433.997,193.126 436.5,194C 437.787,197.125 437.787,200.291 436.5,203.5C 433.19,205.259 430.856,204.426 429.5,201C 429.836,199.97 430.503,199.47 431.5,199.5 Z"/></g>
<g><path style="opacity:1" fill="#e9e9e9" d="M 431.5,199.5 C 433.288,199.215 434.955,199.548 436.5,200.5C 435.332,202.217 433.665,202.884 431.5,202.5C 431.5,201.5 431.5,200.5 431.5,199.5 Z"/></g>
<g><path style="opacity:1" fill="#131313" d="M 96.5,244.5 C 232.833,244.5 369.167,244.5 505.5,244.5C 505.5,299.833 505.5,355.167 505.5,410.5C 369.167,410.5 232.833,410.5 96.5,410.5C 96.5,355.167 96.5,299.833 96.5,244.5 Z"/></g>
<g><path style="opacity:1" fill="#121212" d="M 530.5,244.5 C 667.167,244.5 803.833,244.5 940.5,244.5C 940.5,299.833 940.5,355.167 940.5,410.5C 803.833,410.5 667.167,410.5 530.5,410.5C 530.5,355.167 530.5,299.833 530.5,244.5 Z"/></g>
<g><path style="opacity:1" fill="#131313" d="M 965.5,244.5 C 1101.83,244.5 1238.17,244.5 1374.5,244.5C 1374.5,299.833 1374.5,355.167 1374.5,410.5C 1238.17,410.5 1101.83,410.5 965.5,410.5C 965.5,355.167 965.5,299.833 965.5,244.5 Z"/></g>
<g><path style="opacity:1" fill="#fdfdfd" d="M 98.5,246.5 C 233.5,246.5 368.5,246.5 503.5,246.5C 503.5,300.5 503.5,354.5 503.5,408.5C 368.5,408.5 233.5,408.5 98.5,408.5C 98.5,354.5 98.5,300.5 98.5,246.5 Z"/></g>
<g><path style="opacity:1" fill="#d7d7d7" d="M 532.5,246.5 C 667.833,246.5 803.167,246.5 938.5,246.5C 938.5,300.5 938.5,354.5 938.5,408.5C 803.167,408.5 667.833,408.5 532.5,408.5C 532.5,354.5 532.5,300.5 532.5,246.5 Z"/></g>
<g><path style="opacity:1" fill="#fefefe" d="M 1371.5,246.5 C 1371.5,300.167 1371.5,353.833 1371.5,407.5C 1236.83,407.5 1102.17,407.5 967.5,407.5C 967.5,353.833 967.5,300.167 967.5,246.5C 1102.17,246.5 1236.83,246.5 1371.5,246.5 Z"/></g>
<g><path style="opacity:1" fill="#707070" d="M 122.5,274.5 C 122.5,278.833 122.5,283.167 122.5,287.5C 124.5,287.5 126.5,287.5 128.5,287.5C 126.393,288.468 124.059,288.802 121.5,288.5C 121.181,283.637 121.514,278.97 122.5,274.5 Z"/></g>
<g><path style="opacity:1" fill="#050505" d="M 122.5,274.5 C 124.167,274.5 125.833,274.5 127.5,274.5C 126.167,275.167 124.833,275.833 123.5,276.5C 123.5,277.833 123.5,279.167 123.5,280.5C 125.167,280.5 126.833,280.5 128.5,280.5C 128.5,280.833 128.5,281.167 128.5,281.5C 126.833,281.5 125.167,281.5 123.5,281.5C 123.5,283.167 123.5,284.833 123.5,286.5C 125.621,286.675 127.621,286.341 129.5,285.5C 130.167,285.5 130.5,285.833 130.5,286.5C 129.833,286.833 129.167,287.167 128.5,287.5C 126.5,287.5 124.5,287.5 122.5,287.5C 122.5,283.167 122.5,278.833 122.5,274.5 Z"/></g>
<g><path style="opacity:1" fill="#232323" d="M 559.5,274.5 C 560.8,276.223 561.467,278.39 561.5,281C 561.167,283.167 560.833,285.333 560.5,287.5C 559.508,283.217 559.174,278.884 559.5,274.5 Z"/></g>
<g><path style="opacity:1" fill="#202020" d="M 1021.5,275.5 C 1022.45,276.452 1023.45,277.452 1024.5,278.5C 1021.89,281.418 1021.89,284.251 1024.5,287C 1023.55,287.483 1022.55,287.649 1021.5,287.5C 1021.93,284.212 1021.26,281.212 1019.5,278.5C 1020.61,277.735 1021.28,276.735 1021.5,275.5 Z"/></g>
<g><path style="opacity:1" fill="#202020" d="M 1087.5,275.5 C 1088.45,276.452 1089.45,277.452 1090.5,278.5C 1087.89,281.418 1087.89,284.251 1090.5,287C 1089.55,287.483 1088.55,287.649 1087.5,287.5C 1087.93,284.212 1087.26,281.212 1085.5,278.5C 1086.61,277.735 1087.28,276.735 1087.5,275.5 Z"/></g>
<g><path style="opacity:1" fill="#f5f5f5" d="M 123.5,276.5 C 125.167,276.5 126.833,276.5 128.5,276.5C 128.5,277.833 128.5,279.167 128.5,280.5C 126.833,280.5 125.167,280.5 123.5,280.5C 123.5,279.167 123.5,277.833 123.5,276.5 Z"/></g>
<g><path style="opacity:1" fill="#383838" d="M 144.5,277.5 C 146.754,277.723 149.088,278.056 151.5,278.5C 152.575,281.438 152.741,284.438 152,287.5C 151.667,285.167 151.333,282.833 151,280.5C 149.667,279.167 148.333,279.167 147,280.5C 146.814,282.9 146.314,285.234 145.5,287.5C 144.513,284.232 144.18,280.898 144.5,277.5 Z"/></g>
<g><path style="opacity:1" fill="#2b2b2b" d="M 1034.5,277.5 C 1035.38,277.369 1036.04,277.702 1036.5,278.5C 1035.68,279.386 1034.68,279.719 1033.5,279.5C 1033.81,282.247 1033.48,284.914 1032.5,287.5C 1031.52,284.572 1031.18,281.572 1031.5,278.5C 1032.79,278.737 1033.79,278.404 1034.5,277.5 Z"/></g>
<g><path style="opacity:1" fill="#818181" d="M 1050.5,278.5 C 1049.52,281.287 1049.19,284.287 1049.5,287.5C 1048.19,284.313 1048.19,280.98 1049.5,277.5C 1050.11,277.624 1050.44,277.957 1050.5,278.5 Z"/></g>
<g><path style="opacity:1" fill="#232323" d="M 1056.5,279.5 C 1055.83,290.167 1055.17,290.167 1054.5,279.5C 1053.18,279.33 1052.01,279.663 1051,280.5C 1050.81,283.036 1050.31,285.369 1049.5,287.5C 1049.19,284.287 1049.52,281.287 1050.5,278.5C 1052.75,277.135 1054.75,277.469 1056.5,279.5 Z"/></g>
<g><path style="opacity:1" fill="#383838" d="M 1075.5,277.5 C 1077.93,277.636 1080.43,277.969 1083,278.5C 1083.67,281.5 1083.67,284.5 1083,287.5C 1082.67,285.167 1082.33,282.833 1082,280.5C 1080.67,279.167 1079.33,279.167 1078,280.5C 1077.81,282.9 1077.31,285.234 1076.5,287.5C 1075.51,284.232 1075.18,280.898 1075.5,277.5 Z"/></g>
<g><path style="opacity:1" fill="#303030" d="M 161.5,286.5 C 159.802,289.124 157.969,289.124 156,286.5C 155.333,284.167 155.333,281.833 156,279.5C 157.523,277.38 159.356,277.047 161.5,278.5C 162.167,277.167 162.833,275.833 163.5,274.5C 164.833,278.833 164.833,283.167 163.5,287.5C 162.817,287.137 162.15,286.804 161.5,286.5 Z"/></g>
<g><path style="opacity:1" fill="#ebebeb" d="M 161.5,286.5 C 156.672,286.615 155.339,284.448 157.5,280C 162.43,279.573 163.763,281.74 161.5,286.5 Z"/></g>
<g><path style="opacity:1" fill="#202020" d="M 579.5,274.5 C 580.496,274.414 581.329,274.748 582,275.5C 584.363,279.392 585.529,283.392 585.5,287.5C 584.614,286.675 584.281,285.675 584.5,284.5C 582.167,284.5 579.833,284.5 577.5,284.5C 577.719,285.675 577.386,286.675 576.5,287.5C 576.167,287.167 575.833,286.833 575.5,286.5C 577.438,282.686 578.771,278.686 579.5,274.5 Z"/></g>
<g><path style="opacity:1" fill="#c7c7c7" d="M 580.5,277.5 C 584.161,280.85 583.828,282.517 579.5,282.5C 579.629,280.784 579.962,279.117 580.5,277.5 Z"/></g>
<g><path style="opacity:1" fill="#353535" d="M 1056.5,279.5 C 1058.2,276.876 1060.03,276.876 1062,279.5C 1062.82,282.227 1062.65,284.894 1061.5,287.5C 1060.52,284.914 1060.19,282.247 1060.5,279.5C 1059.17,279.5 1057.83,279.5 1056.5,279.5 Z"/></g>
<g><path style="opacity:1" fill="#343434" d="M 135.5,277.5 C 140.813,277.644 142.979,280.31 142,285.5C 139.284,289.476 136.617,289.476 134,285.5C 133.109,282.502 133.609,279.836 135.5,277.5 Z"/></g>
<g><path style="opacity:1" fill="#ececec" d="M 135.5,279.5 C 140.328,279.385 141.661,281.552 139.5,286C 134.81,286.141 133.477,283.975 135.5,279.5 Z"/></g>
<g><path style="opacity:1" fill="#efefef" d="M 128.5,281.5 C 129.234,282.708 129.567,284.041 129.5,285.5C 127.621,286.341 125.621,286.675 123.5,286.5C 123.5,284.833 123.5,283.167 123.5,281.5C 125.167,281.5 126.833,281.5 128.5,281.5 Z"/></g>
<g><path style="opacity:1" fill="#323232" d="M 1011.5,277.5 C 1015.69,277.362 1018.03,279.362 1018.5,283.5C 1016.08,283.192 1013.74,283.526 1011.5,284.5C 1011.71,285.086 1012.04,285.586 1012.5,286C 1014.42,286.179 1016.09,286.346 1017.5,286.5C 1012.84,289.505 1010.18,288.172 1009.5,282.5C 1009.44,280.486 1010.1,278.819 1011.5,277.5 Z"/></g>
<g><path style="opacity:1" fill="#dcdcdc" d="M 1011.5,279.5 C 1013.66,279.116 1015.33,279.783 1016.5,281.5C 1014.95,282.452 1013.29,282.785 1011.5,282.5C 1011.5,281.5 1011.5,280.5 1011.5,279.5 Z"/></g>
<g><path style="opacity:1" fill="#2e2e2e" d="M 1040.5,277.5 C 1044.7,277.194 1046.7,279.194 1046.5,283.5C 1044.08,283.192 1041.74,283.526 1039.5,284.5C 1040,285.881 1041,286.547 1042.5,286.5C 1046.22,284.825 1046.89,285.325 1044.5,288C 1040.54,288.718 1038.21,287.051 1037.5,283C 1037.86,280.808 1038.86,278.974 1040.5,277.5 Z"/></g>
<g><path style="opacity:1" fill="#dfdfdf" d="M 1040.5,279.5 C 1041.83,279.5 1043.17,279.5 1044.5,279.5C 1044.5,280.5 1044.5,281.5 1044.5,282.5C 1042.71,282.785 1041.05,282.452 1039.5,281.5C 1039.86,280.817 1040.2,280.15 1040.5,279.5 Z"/></g>
<g><path style="opacity:1" fill="#353535" d="M 1067.5,277.5 C 1071.83,277.167 1073.83,279.167 1073.5,283.5C 1071.08,283.192 1068.74,283.526 1066.5,284.5C 1067,285.881 1068,286.547 1069.5,286.5C 1074.56,285.683 1074.39,286.35 1069,288.5C 1063.65,285.574 1063.15,281.907 1067.5,277.5 Z"/></g>
<g><path style="opacity:1" fill="#e3e3e3" d="M 1067.5,279.5 C 1069.35,279.222 1070.68,279.889 1071.5,281.5C 1069.83,282.833 1068.17,282.833 1066.5,281.5C 1066.86,280.817 1067.2,280.15 1067.5,279.5 Z"/></g>
<g><path style="opacity:1" fill="#424242" d="M 127.5,274.5 C 128.496,274.414 129.329,274.748 130,275.5C 130.743,277.441 130.576,279.274 129.5,281C 131.553,282.678 131.887,284.511 130.5,286.5C 130.5,285.833 130.167,285.5 129.5,285.5C 129.567,284.041 129.234,282.708 128.5,281.5C 128.5,281.167 128.5,280.833 128.5,280.5C 128.5,279.167 128.5,277.833 128.5,276.5C 126.833,276.5 125.167,276.5 123.5,276.5C 124.833,275.833 126.167,275.167 127.5,274.5 Z"/></g>
<g><path style="opacity:1" fill="#171717" d="M 998.5,274.5 C 1006.45,273.254 1008.78,276.088 1005.5,283C 1005.9,284.473 1006.57,285.806 1007.5,287C 1007.17,287.167 1006.83,287.333 1006.5,287.5C 1005.38,286.086 1004.38,284.586 1003.5,283C 1002.21,282.51 1000.87,282.343 999.5,282.5C 999.66,284.199 999.494,285.866 999,287.5C 998.501,283.179 998.334,278.846 998.5,274.5 Z"/></g>
<g><path style="opacity:1" fill="#fbfbfb" d="M 1003.5,276.5 C 1004.59,276.62 1005.25,277.287 1005.5,278.5C 1005.46,279.416 1005.12,280.083 1004.5,280.5C 1003.17,280.5 1001.83,280.5 1000.5,280.5C 1000.5,279.167 1000.5,277.833 1000.5,276.5C 1001.5,276.5 1002.5,276.5 1003.5,276.5 Z"/></g>
<g><path style="opacity:1" fill="#8a8a8a" d="M 1003.5,276.5 C 1002.5,276.5 1001.5,276.5 1000.5,276.5C 1000.5,277.833 1000.5,279.167 1000.5,280.5C 1001.83,280.5 1003.17,280.5 1004.5,280.5C 1003.08,281.451 1001.41,281.784 999.5,281.5C 999.5,279.5 999.5,277.5 999.5,275.5C 1001.1,275.232 1002.43,275.566 1003.5,276.5 Z"/></g>
<g><path style="opacity:1" fill="#202020" d="M 566.5,274.5 C 569.346,274.03 571.679,274.863 573.5,277C 571.893,277.115 570.393,276.615 569,275.5C 566.5,276.333 566,277.833 567.5,280C 573.462,280.589 574.796,283.256 571.5,288C 567.635,289.349 565.468,288.182 565,284.5C 567.585,287.128 570.085,287.128 572.5,284.5C 570.012,282.931 567.512,281.264 565,279.5C 564.387,277.505 564.887,275.838 566.5,274.5 Z"/></g>
<g><path style="opacity:1" fill="#5a5a5a" d="M 582.5,316.5 C 583.765,317.514 584.431,319.014 584.5,321C 584.167,322.5 583.833,324 583.5,325.5C 582.516,322.572 582.183,319.572 582.5,316.5 Z"/></g>
<g><path style="opacity:1" fill="#565656" d="M 597.5,319.5 C 596.5,319.5 595.5,319.5 594.5,319.5C 594.5,321.167 594.5,322.833 594.5,324.5C 595.5,324.5 596.5,324.5 597.5,324.5C 596.081,325.451 594.415,325.784 592.5,325.5C 592.183,322.428 592.516,319.428 593.5,316.5C 594.799,317.694 596.132,318.694 597.5,319.5 Z"/></g>
<g><path style="opacity:1" fill="#2a2a2a" d="M 1033.5,319.5 C 1032.17,321.167 1032.17,322.833 1033.5,324.5C 1032.88,324.611 1032.38,324.944 1032,325.5C 1031.33,322.5 1031.33,319.5 1032,316.5C 1032.23,317.737 1032.73,318.737 1033.5,319.5 Z"/></g>
<g><path style="opacity:1" fill="#757575" d="M 1038.5,316.5 C 1039.76,317.514 1040.43,319.014 1040.5,321C 1040.17,322.5 1039.83,324 1039.5,325.5C 1038.52,322.572 1038.18,319.572 1038.5,316.5 Z"/></g>
<g><path style="opacity:1" fill="#555555" d="M 1075.5,316.5 C 1077.39,318.988 1078.05,321.988 1077.5,325.5C 1072.32,326.493 1070.49,324.493 1072,319.5C 1073.73,319.026 1074.9,318.026 1075.5,316.5 Z"/></g>
<g><path style="opacity:1" fill="#141414" d="M 614.5,316.5 C 615.309,317.469 616.309,318.302 617.5,319C 615.901,320.786 615.067,322.953 615,325.5C 614.122,322.356 613.955,319.356 614.5,316.5 Z"/></g>
<g><path style="opacity:1" fill="#3d3d3d" d="M 177.5,315.5 C 180.113,316.095 180.113,316.929 177.5,318C 178.167,318.333 178.833,318.667 179.5,319C 177.901,320.786 177.067,322.953 177,325.5C 175.622,321.852 175.789,318.519 177.5,315.5 Z"/></g>
<g><path style="opacity:1" fill="#414141" d="M 139.5,319.5 C 137.891,319.906 136.557,319.906 135.5,319.5C 136.958,318.218 138.292,318.218 139.5,319.5 Z"/></g>
<g><path style="opacity:1" fill="#696969" d="M 187.5,318.5 C 193.235,317.821 194.902,320.155 192.5,325.5C 191.167,317.5 189.833,317.5 188.5,325.5C 187.526,323.257 187.192,320.924 187.5,318.5 Z"/></g>
<g><path style="opacity:1" fill="#656565" d="M 579.5,318.5 C 580.725,319.152 581.392,320.319 581.5,322C 581.167,323.167 580.833,324.333 580.5,325.5C 579.526,323.257 579.192,320.924 579.5,318.5 Z"/></g>
<g><path style="opacity:1" fill="#c9c9c9" d="M 597.5,319.5 C 597.5,321.167 597.5,322.833 597.5,324.5C 596.5,324.5 595.5,324.5 594.5,324.5C 594.5,322.833 594.5,321.167 594.5,319.5C 595.5,319.5 596.5,319.5 597.5,319.5 Z"/></g>
<g><path style="opacity:1" fill="#262626" d="M 627.5,319.5 C 626.815,321.414 626.315,323.414 626,325.5C 625.333,323.167 625.333,320.833 626,318.5C 626.383,319.056 626.883,319.389 627.5,319.5 Z"/></g>
<g><path style="opacity:1" fill="#474747" d="M 641.5,319.5 C 642.849,318.203 644.182,318.37 645.5,320C 644.181,320.195 642.847,320.028 641.5,319.5 Z"/></g>
<g><path style="opacity:1" fill="#959595" d="M 1018.5,318.5 C 1019.73,319.152 1020.39,320.319 1020.5,322C 1020.17,323.167 1019.83,324.333 1019.5,325.5C 1018.53,323.257 1018.19,320.924 1018.5,318.5 Z"/></g>
<g><path style="opacity:1" fill="#f1f1f1" d="M 1033.5,319.5 C 1035.25,319.418 1036.25,320.251 1036.5,322C 1036.25,323.749 1035.25,324.582 1033.5,324.5C 1032.17,322.833 1032.17,321.167 1033.5,319.5 Z"/></g>
<g><path style="opacity:1" fill="#3c3c3c" d="M 1033.5,319.5 C 1036,317.969 1037.34,318.803 1037.5,322C 1037.34,325.197 1036,326.031 1033.5,324.5C 1035.25,324.582 1036.25,323.749 1036.5,322C 1036.25,320.251 1035.25,319.418 1033.5,319.5 Z"/></g>
<g><path style="opacity:1" fill="#4c4c4c" d="M 1053.5,316.5 C 1054.27,317.172 1054.93,318.005 1055.5,319C 1054.74,321.069 1054.24,323.236 1054,325.5C 1053.12,322.356 1052.96,319.356 1053.5,316.5 Z"/></g>
<g><path style="opacity:1" fill="#545454" d="M 1060.5,324.5 C 1059.79,325.404 1058.79,325.737 1057.5,325.5C 1057.34,323.143 1057.5,320.81 1058,318.5C 1058,321.051 1058.84,323.051 1060.5,324.5 Z"/></g>
<g><path style="opacity:1" fill="#2a2a2a" d="M 1060.5,324.5 C 1061.18,322.586 1061.68,320.586 1062,318.5C 1062.67,320.833 1062.67,323.167 1062,325.5C 1061.62,324.944 1061.12,324.611 1060.5,324.5 Z"/></g>
<g><path style="opacity:1" fill="#f8f8f8" d="M 1073.5,319.5 C 1074.65,319.791 1075.32,320.624 1075.5,322C 1074.71,325.122 1073.71,325.122 1072.5,322C 1072.74,321.098 1073.08,320.265 1073.5,319.5 Z"/></g>
<g><path style="opacity:1" fill="#525252" d="M 130.5,323.5 C 128.901,322.201 128.401,320.535 129,318.5C 130.009,320.025 130.509,321.692 130.5,323.5 Z"/></g>
<g><path style="opacity:1" fill="#474747" d="M 148.5,318.5 C 150.144,318.286 151.644,318.62 153,319.5C 153.495,321.473 153.662,323.473 153.5,325.5C 146.693,325.578 146.026,323.911 151.5,320.5C 150.726,319.289 149.893,319.289 149,320.5C 148.536,319.906 148.369,319.239 148.5,318.5 Z"/></g>
<g><path style="opacity:1" fill="#999999" d="M 170.5,319.5 C 171.833,320.5 171.833,321.5 170.5,322.5C 169.391,321.71 168.058,321.21 166.5,321C 167.875,319.738 169.208,319.238 170.5,319.5 Z"/></g>
<g><path style="opacity:1" fill="#4d4d4d" d="M 203.5,318.5 C 206.797,318.329 207.131,318.995 204.5,320.5C 206.762,322.508 206.262,322.841 203,321.5C 202.53,320.423 202.697,319.423 203.5,318.5 Z"/></g>
<g><path style="opacity:1" fill="#3f3f3f" d="M 561.5,318.5 C 561.369,317.624 561.702,316.957 562.5,316.5C 563.973,319.28 565.307,322.113 566.5,325C 564.939,325.188 564.272,324.355 564.5,322.5C 562.019,322.323 560.186,323.323 559,325.5C 558.939,322.849 559.773,320.516 561.5,318.5 Z"/></g>
<g><path style="opacity:1" fill="#c8c8c8" d="M 561.5,318.5 C 562.267,319.172 562.934,320.005 563.5,321C 561.939,321.188 561.272,320.355 561.5,318.5 Z"/></g>
<g><path style="opacity:1" fill="#2f2f2f" d="M 603.5,319.5 C 605.039,321.982 606.539,321.982 608,319.5C 608.483,320.448 608.649,321.448 608.5,322.5C 607.127,322.343 605.793,322.51 604.5,323C 605.841,324.295 607.174,324.795 608.5,324.5C 604.072,326.052 602.405,324.386 603.5,319.5 Z"/></g>
<g><path style="opacity:1" fill="#606060" d="M 627.5,319.5 C 628.542,318.209 629.708,318.209 631,319.5C 631.808,321.579 631.641,323.579 630.5,325.5C 630.036,323.025 629.036,321.025 627.5,319.5 Z"/></g>
<g><path style="opacity:1" fill="#4f4f4f" d="M 1006.5,322.5 C 1004.91,321.365 1004.58,320.031 1005.5,318.5C 1006.43,319.689 1006.76,321.022 1006.5,322.5 Z"/></g>
<g><path style="opacity:1" fill="#404040" d="M 1006.5,322.5 C 1008.09,321.652 1009.26,320.319 1010,318.5C 1010.08,321.084 1009.25,323.417 1007.5,325.5C 1006.61,324.675 1006.28,323.675 1006.5,322.5 Z"/></g>
<g><path style="opacity:1" fill="#323232" d="M 1012.5,324.5 C 1016.5,323.833 1016.5,323.167 1012.5,322.5C 1013.4,321.842 1014.4,321.176 1015.5,320.5C 1014.28,319.904 1012.95,319.737 1011.5,320C 1012.9,318.731 1014.57,318.231 1016.5,318.5C 1016.5,320.833 1016.5,323.167 1016.5,325.5C 1014.9,325.768 1013.57,325.434 1012.5,324.5 Z"/></g>
<g><path style="opacity:1" fill="#161616" d="M 1025.5,322.5 C 1026.85,321.814 1028.02,320.814 1029,319.5C 1029.62,324.263 1029.46,325.263 1028.5,322.5C 1027.5,322.5 1026.5,322.5 1025.5,322.5 Z"/></g>
<g><path style="opacity:1" fill="#3b3b3b" d="M 1064.5,318.5 C 1068.84,318.622 1069.17,318.955 1065.5,319.5C 1065.66,321.527 1065.5,323.527 1065,325.5C 1064.5,323.19 1064.34,320.857 1064.5,318.5 Z"/></g>
<g><path style="opacity:1" fill="#4a4a4a" d="M 123.5,316.5 C 124.376,316.369 125.043,316.702 125.5,317.5C 126.909,320.312 127.576,322.978 127.5,325.5C 126.614,324.675 126.281,323.675 126.5,322.5C 125.167,322.5 123.833,322.5 122.5,322.5C 122.719,323.675 122.386,324.675 121.5,325.5C 121.167,325.167 120.833,324.833 120.5,324.5C 121.9,321.965 122.9,319.298 123.5,316.5 Z"/></g>
<g><path style="opacity:1" fill="#ebebeb" d="M 123.5,319.5 C 125.337,319.639 125.67,320.306 124.5,321.5C 123.702,321.043 123.369,320.376 123.5,319.5 Z"/></g>
<g><path style="opacity:1" fill="#414141" d="M 170.5,319.5 C 169.208,319.238 167.875,319.738 166.5,321C 168.058,321.21 169.391,321.71 170.5,322.5C 169.127,322.343 167.793,322.51 166.5,323C 167.025,323.692 167.692,324.192 168.5,324.5C 172.445,323.573 172.445,323.906 168.5,325.5C 166.261,325.426 165.261,324.259 165.5,322C 166.009,318.633 167.676,317.799 170.5,319.5 Z"/></g>
<g><path style="opacity:1" fill="#404040" d="M 573.5,318.5 C 575.144,318.286 576.644,318.62 578,319.5C 578.495,321.473 578.662,323.473 578.5,325.5C 571.693,325.578 571.026,323.911 576.5,320.5C 575.726,319.289 574.893,319.289 574,320.5C 573.536,319.906 573.369,319.239 573.5,318.5 Z"/></g>
<g><path style="opacity:1" fill="#373737" d="M 641.5,319.5 C 642.315,320.837 643.482,321.837 645,322.5C 645.617,323.449 645.451,324.282 644.5,325C 643.056,325.781 641.723,325.614 640.5,324.5C 641.397,324.331 642.397,323.998 643.5,323.5C 642.758,322.713 641.925,322.047 641,321.5C 640.308,320.563 640.475,319.897 641.5,319.5 Z"/></g>
<g><path style="opacity:1" fill="#444444" d="M 1042.5,323.5 C 1041.88,323.083 1041.54,322.416 1041.5,321.5C 1041.75,320.287 1042.41,319.62 1043.5,319.5C 1046.33,317.965 1047.66,318.965 1047.5,322.5C 1045.59,322.216 1043.92,322.549 1042.5,323.5 Z"/></g>
<g><path style="opacity:1" fill="#e4e4e4" d="M 1043.5,319.5 C 1045.98,319.73 1046.48,320.397 1045,321.5C 1043.97,321.164 1043.47,320.497 1043.5,319.5 Z"/></g>
<g><path style="opacity:1" fill="#484848" d="M 139.5,319.5 C 140.461,321.265 140.795,323.265 140.5,325.5C 138.023,325.949 136.023,325.283 134.5,323.5C 136.363,322.311 138.03,320.978 139.5,319.5 Z"/></g>
<g><path style="opacity:1" fill="#ebebeb" d="M 149.5,322.5 C 152.797,322.329 153.131,322.995 150.5,324.5C 149.702,324.043 149.369,323.376 149.5,322.5 Z"/></g>
<g><path style="opacity:1" fill="#444444" d="M 159.5,319.5 C 161.676,320.713 162.009,322.38 160.5,324.5C 158.955,325.452 157.288,325.785 155.5,325.5C 155.335,322.482 155.502,319.482 156,316.5C 156.985,317.814 158.152,318.814 159.5,319.5 Z"/></g>
<g><path style="opacity:1" fill="#f9f9f9" d="M 159.5,319.5 C 159.785,321.288 159.452,322.955 158.5,324.5C 155.71,322.203 156.044,320.536 159.5,319.5 Z"/></g>
<g><path style="opacity:1" fill="#cdcdcd" d="M 574.5,322.5 C 577.797,322.329 578.131,322.995 575.5,324.5C 574.702,324.043 574.369,323.376 574.5,322.5 Z"/></g>
<g><path style="opacity:1" fill="#484848" d="M 597.5,319.5 C 600.167,321.167 600.167,322.833 597.5,324.5C 597.5,322.833 597.5,321.167 597.5,319.5 Z"/></g>
<g><path style="opacity:1" fill="#bababa" d="M 1012.5,322.5 C 1016.5,323.167 1016.5,323.833 1012.5,324.5C 1011.17,323.833 1011.17,323.167 1012.5,322.5 Z"/></g>
<g><path style="opacity:1" fill="#f2f2f2" d="M 136.5,322.5 C 139.797,322.329 140.131,322.995 137.5,324.5C 136.702,324.043 136.369,323.376 136.5,322.5 Z"/></g>
<g><path style="opacity:1" fill="#5a5a5a" d="M 180.5,318.5 C 182.177,326.172 183.843,326.172 185.5,318.5C 186.474,320.743 186.808,323.076 186.5,325.5C 181.094,326.265 179.094,323.931 180.5,318.5 Z"/></g>
<g><path style="opacity:1" fill="#343434" d="M 566.5,318.5 C 567.793,319.842 568.626,321.509 569,323.5C 569.471,321.754 570.138,320.087 571,318.5C 569.854,327.795 568.354,327.795 566.5,318.5 Z"/></g>
<g><path style="opacity:1" fill="#414141" d="M 586.5,318.5 C 588.144,318.286 589.644,318.62 591,319.5C 591.495,321.473 591.662,323.473 591.5,325.5C 584.693,325.578 584.026,323.911 589.5,320.5C 588.284,319.904 586.951,319.737 585.5,320C 586.056,319.617 586.389,319.117 586.5,318.5 Z"/></g>
<g><path style="opacity:1" fill="#d3d3d3" d="M 587.5,322.5 C 589.337,322.639 589.67,323.306 588.5,324.5C 587.702,324.043 587.369,323.376 587.5,322.5 Z"/></g>
<g><path style="opacity:1" fill="#303030" d="M 637.5,316.5 C 638.477,319.287 638.81,322.287 638.5,325.5C 633.325,326.493 631.491,324.493 633,319.5C 635.026,319.085 636.526,318.085 637.5,316.5 Z"/></g>
<g><path style="opacity:1" fill="#cbcbcb" d="M 634.5,319.5 C 637.956,320.536 638.29,322.203 635.5,324.5C 633.296,323.218 632.962,321.551 634.5,319.5 Z"/></g>
<g><path style="opacity:1" fill="#474747" d="M 1000.5,316.5 C 1002.74,319.057 1003.91,322.057 1004,325.5C 1001.91,321.54 999.911,321.54 998,325.5C 997.903,322.284 998.736,319.284 1000.5,316.5 Z"/></g>
<g><path style="opacity:1" fill="#ebebeb" d="M 1000.5,318.5 C 1001.78,319.386 1001.78,320.386 1000.5,321.5C 999.913,320.767 999.913,319.767 1000.5,318.5 Z"/></g>
<g><path style="opacity:1" fill="#373737" d="M 130.5,323.5 C 134.666,316.834 135.166,317.167 132,324.5C 130.893,325.712 130.393,325.379 130.5,323.5 Z"/></g>
<g><path style="opacity:1" fill="#4d4d4d" d="M 196.5,319.5 C 197.848,318.814 199.015,317.814 200,316.5C 200.498,319.482 200.665,322.482 200.5,325.5C 197.135,326.036 195.135,324.703 194.5,321.5C 194.747,320.287 195.414,319.62 196.5,319.5 Z"/></g>
<g><path style="opacity:1" fill="#fafafa" d="M 196.5,319.5 C 199.956,320.536 200.29,322.203 197.5,324.5C 196.548,322.955 196.215,321.288 196.5,319.5 Z"/></g>
<g><path style="opacity:1" fill="#373737" d="M 202.5,323.5 C 203.766,324.09 205.099,324.59 206.5,325C 204.537,325.844 203.204,325.344 202.5,323.5 Z"/></g>
<g><path style="opacity:1" fill="#2b2b2b" d="M 618.5,318.5 C 620.091,326.264 621.591,326.264 623,318.5C 623.497,320.81 623.663,323.143 623.5,325.5C 621.856,325.714 620.356,325.38 619,324.5C 618.505,322.527 618.338,320.527 618.5,318.5 Z"/></g>
<g><path style="opacity:1" fill="#1b1b1b" d="M 1025.5,322.5 C 1025.58,323.75 1026.24,324.583 1027.5,325C 1026.55,325.483 1025.55,325.649 1024.5,325.5C 1024.26,324.209 1024.6,323.209 1025.5,322.5 Z"/></g>
<g><path style="opacity:1" fill="#383838" d="M 1042.5,323.5 C 1043.77,324.09 1045.1,324.59 1046.5,325C 1044.54,325.844 1043.2,325.344 1042.5,323.5 Z"/></g>
<g><path style="opacity:1" fill="#414141" d="M 1079.5,318.5 C 1080.98,318.238 1082.31,318.571 1083.5,319.5C 1082.6,319.669 1081.6,320.002 1080.5,320.5C 1081.32,321.386 1082.32,321.719 1083.5,321.5C 1083.5,322.833 1083.5,324.167 1083.5,325.5C 1081.57,325.769 1079.9,325.269 1078.5,324C 1083.35,324.466 1083.52,323.633 1079,321.5C 1078.53,320.423 1078.7,319.423 1079.5,318.5 Z"/></g>
<g><path style="opacity:1" fill="#191919" d="M 132.5,335.5 C 133.5,335.5 134.5,335.5 135.5,335.5C 135.5,336.833 135.5,338.167 135.5,339.5C 140.866,339.661 143.866,342.327 144.5,347.5C 141.886,347.723 140.219,346.556 139.5,344C 138.234,343.691 137.067,343.191 136,342.5C 135.333,346.167 135.333,349.833 136,353.5C 143.95,355.399 146.617,360.065 144,367.5C 141.866,369.484 139.366,370.818 136.5,371.5C 135.614,372.325 135.281,373.325 135.5,374.5C 134.5,374.5 133.5,374.5 132.5,374.5C 132.5,373.5 132.5,372.5 132.5,371.5C 127.134,371.339 124.134,368.673 123.5,363.5C 126.244,365.201 129.244,366.534 132.5,367.5C 132.823,363.774 132.489,360.107 131.5,356.5C 122.738,353.048 121.405,347.881 127.5,341C 129.025,339.991 130.692,339.491 132.5,339.5C 132.5,338.167 132.5,336.833 132.5,335.5 Z"/></g>
<g><path style="opacity:1" fill="#151515" d="M 570.5,335.5 C 571.5,335.5 572.5,335.5 573.5,335.5C 573.5,336.833 573.5,338.167 573.5,339.5C 578.416,340.086 581.416,342.753 582.5,347.5C 581.167,347.5 579.833,347.5 578.5,347.5C 578.594,344.459 577.094,342.793 574,342.5C 573.333,346.167 573.333,349.833 574,353.5C 583.022,356.025 585.188,361.191 580.5,369C 577.978,370.341 575.311,371.174 572.5,371.5C 571.833,375.5 571.167,375.5 570.5,371.5C 565.31,371.477 561.977,368.977 560.5,364C 563.531,362.925 565.531,363.925 566.5,367C 567.766,367.309 568.933,367.809 570,368.5C 570.827,364.459 570.66,360.459 569.5,356.5C 560.738,353.048 559.405,347.881 565.5,341C 567.025,339.991 568.692,339.491 570.5,339.5C 570.5,338.167 570.5,336.833 570.5,335.5 Z"/></g>
<g><path style="opacity:1" fill="#101010" d="M 1007.5,367.5 C 1007.56,368.043 1007.89,368.376 1008.5,368.5C 1009.81,364.351 1009.81,360.351 1008.5,356.5C 1000.44,354.114 998.439,349.281 1002.5,342C 1004.44,340.097 1006.77,339.264 1009.5,339.5C 1010.17,334.167 1010.83,334.167 1011.5,339.5C 1016.46,339.458 1019.8,341.791 1021.5,346.5C 1020.83,346.833 1020.17,347.167 1019.5,347.5C 1017.71,346.214 1016.04,344.714 1014.5,343C 1013.55,342.517 1012.55,342.351 1011.5,342.5C 1011.33,346.182 1011.5,349.848 1012,353.5C 1022.21,356.261 1024.04,361.761 1017.5,370C 1015.65,371.128 1013.65,371.628 1011.5,371.5C 1010.83,375.5 1010.17,375.5 1009.5,371.5C 1004.54,371.542 1001.2,369.209 999.5,364.5C 1000.17,364.167 1000.83,363.833 1001.5,363.5C 1003.24,365.244 1005.24,366.577 1007.5,367.5 Z"/></g>
<g><path style="opacity:1" fill="#111111" d="M 149.5,339.5 C 151.144,339.286 152.644,339.62 154,340.5C 156.25,344.668 158.75,348.668 161.5,352.5C 164.167,348.5 166.833,344.5 169.5,340.5C 170.833,339.167 172.167,339.167 173.5,340.5C 170.248,345.334 167.248,350.334 164.5,355.5C 167.625,360.249 170.625,365.083 173.5,370C 172.167,370.667 170.833,370.667 169.5,370C 167.028,366.029 164.362,362.195 161.5,358.5C 158.957,362.421 156.29,366.254 153.5,370C 152.167,370.667 150.833,370.667 149.5,370C 152.891,365.38 155.891,360.547 158.5,355.5C 155.492,350.149 152.492,344.816 149.5,339.5 Z"/></g>
<g><path style="opacity:1" fill="#131313" d="M 176.5,340.5 C 178.035,339.212 179.701,339.212 181.5,340.5C 183.802,344.633 186.302,348.633 189,352.5C 191.833,348.333 194.667,344.167 197.5,340C 198.944,339.219 200.277,339.386 201.5,340.5C 198.368,345.266 195.368,350.099 192.5,355C 194.99,360.315 197.99,365.315 201.5,370C 199.741,370.798 198.074,370.631 196.5,369.5C 194.494,365.487 191.994,361.82 189,358.5C 186.5,362.333 184,366.167 181.5,370C 180.056,370.781 178.723,370.614 177.5,369.5C 180.5,364.833 183.5,360.167 186.5,355.5C 183.391,350.262 180.058,345.262 176.5,340.5 Z"/></g>
<g><path style="opacity:1" fill="#151515" d="M 204.5,340.5 C 205.601,339.402 206.934,339.235 208.5,340C 211.333,344.167 214.167,348.333 217,352.5C 219.75,348.668 222.25,344.668 224.5,340.5C 226.074,339.369 227.741,339.202 229.5,340C 225.853,344.795 222.853,349.961 220.5,355.5C 222.729,360.401 225.395,365.067 228.5,369.5C 227.277,370.614 225.944,370.781 224.5,370C 222.124,366.081 219.624,362.248 217,358.5C 214.167,362.667 211.333,366.833 208.5,371C 207.056,371.781 205.723,371.614 204.5,370.5C 207.935,365.738 210.935,360.738 213.5,355.5C 210.873,350.222 207.873,345.222 204.5,340.5 Z"/></g>
<g><path style="opacity:1" fill="#0f0f0f" d="M 587.5,339.5 C 588.978,339.238 590.311,339.571 591.5,340.5C 594.167,344.5 596.833,348.5 599.5,352.5C 602.25,348.668 604.75,344.668 607,340.5C 608.494,339.253 609.994,339.253 611.5,340.5C 608.368,345.266 605.368,350.099 602.5,355C 605.484,359.99 608.484,364.99 611.5,370C 610.167,370.667 608.833,370.667 607.5,370C 604.71,366.254 602.043,362.421 599.5,358.5C 596.638,362.195 593.972,366.029 591.5,370C 590.167,370.667 588.833,370.667 587.5,370C 590.516,364.99 593.516,359.99 596.5,355C 593.261,349.939 590.261,344.772 587.5,339.5 Z"/></g>
<g><path style="opacity:1" fill="#111111" d="M 614.5,340.5 C 616.035,339.212 617.701,339.212 619.5,340.5C 621.75,344.668 624.25,348.668 627,352.5C 629.833,348.333 632.667,344.167 635.5,340C 636.833,339.333 638.167,339.333 639.5,340C 636.263,345.061 633.263,350.227 630.5,355.5C 633.233,360.628 636.233,365.628 639.5,370.5C 638.277,371.614 636.944,371.781 635.5,371C 632.667,366.833 629.833,362.667 627,358.5C 624.376,362.248 621.876,366.081 619.5,370C 618.056,370.781 616.723,370.614 615.5,369.5C 618.5,364.833 621.5,360.167 624.5,355.5C 621.391,350.262 618.058,345.262 614.5,340.5 Z"/></g>
<g><path style="opacity:1" fill="#101010" d="M 642.5,339.5 C 644.144,339.286 645.644,339.62 647,340.5C 649.667,344.5 652.333,348.5 655,352.5C 657.698,348.633 660.198,344.633 662.5,340.5C 663.833,339.167 665.167,339.167 666.5,340.5C 663.752,345.666 660.752,350.666 657.5,355.5C 660.5,360.167 663.5,364.833 666.5,369.5C 665.277,370.614 663.944,370.781 662.5,370C 660,366.167 657.5,362.333 655,358.5C 652.006,361.82 649.506,365.487 647.5,369.5C 645.926,370.631 644.259,370.798 642.5,370C 645.891,365.38 648.891,360.547 651.5,355.5C 648.492,350.149 645.492,344.816 642.5,339.5 Z"/></g>
<g><path style="opacity:1" fill="#131313" d="M 1025.5,340.5 C 1026.6,339.402 1027.93,339.235 1029.5,340C 1032.46,344.08 1035.29,348.247 1038,352.5C 1040.75,348.668 1043.25,344.668 1045.5,340.5C 1047.07,339.369 1048.74,339.202 1050.5,340C 1047.26,345.061 1044.26,350.227 1041.5,355.5C 1043.73,360.401 1046.4,365.067 1049.5,369.5C 1048.28,370.614 1046.94,370.781 1045.5,370C 1043.12,366.081 1040.62,362.248 1038,358.5C 1035.38,362.248 1032.88,366.081 1030.5,370C 1029.06,370.781 1027.72,370.614 1026.5,369.5C 1029.5,364.833 1032.5,360.167 1035.5,355.5C 1032.39,350.262 1029.06,345.262 1025.5,340.5 Z"/></g>
<g><path style="opacity:1" fill="#111111" d="M 1053.5,339.5 C 1055.14,339.286 1056.64,339.62 1058,340.5C 1060.25,344.668 1062.75,348.668 1065.5,352.5C 1068.17,348.5 1070.83,344.5 1073.5,340.5C 1074.83,339.167 1076.17,339.167 1077.5,340.5C 1074.25,345.334 1071.25,350.334 1068.5,355.5C 1071.5,360.167 1074.5,364.833 1077.5,369.5C 1076.28,370.614 1074.94,370.781 1073.5,370C 1071.03,366.029 1068.36,362.195 1065.5,358.5C 1062.96,362.421 1060.29,366.254 1057.5,370C 1056.17,370.667 1054.83,370.667 1053.5,370C 1056.89,365.38 1059.89,360.547 1062.5,355.5C 1059.49,350.149 1056.49,344.816 1053.5,339.5 Z"/></g>
<g><path style="opacity:1" fill="#121212" d="M 1080.5,340.5 C 1082.03,339.212 1083.7,339.212 1085.5,340.5C 1087.8,344.633 1090.3,348.633 1093,352.5C 1096.2,348.593 1099.04,344.426 1101.5,340C 1102.94,339.219 1104.28,339.386 1105.5,340.5C 1102.37,345.266 1099.37,350.099 1096.5,355C 1098.99,360.315 1101.99,365.315 1105.5,370C 1103.74,370.798 1102.07,370.631 1100.5,369.5C 1098.49,365.487 1095.99,361.82 1093,358.5C 1090.5,362.333 1088,366.167 1085.5,370C 1084.06,370.781 1082.72,370.614 1081.5,369.5C 1084.5,364.833 1087.5,360.167 1090.5,355.5C 1087.89,349.918 1084.55,344.918 1080.5,340.5 Z"/></g>
<g><path style="opacity:1" fill="#f2f2f2" d="M 129.5,343.5 C 130.5,343.5 131.5,343.5 132.5,343.5C 132.5,346.5 132.5,349.5 132.5,352.5C 128.024,352.178 126.524,349.844 128,345.5C 128.717,344.956 129.217,344.289 129.5,343.5 Z"/></g>
<g><path style="opacity:1" fill="#cfcfcf" d="M 568.5,342.5 C 569.777,343.694 570.444,345.36 570.5,347.5C 570.926,352.414 569.426,353.414 566,350.5C 565.833,349.5 565.667,348.5 565.5,347.5C 565.771,345.307 566.771,343.641 568.5,342.5 Z"/></g>
<g><path style="opacity:1" fill="#e0e0e0" d="M 1007.5,342.5 C 1009.4,345.337 1010.07,348.671 1009.5,352.5C 1002.46,350.339 1001.79,347.006 1007.5,342.5 Z"/></g>
<g><path style="opacity:1" fill="#949494" d="M 1008.5,356.5 C 1009.81,360.351 1009.81,364.351 1008.5,368.5C 1007.89,368.376 1007.56,368.043 1007.5,367.5C 1008.48,364.038 1008.81,360.371 1008.5,356.5 Z"/></g>
<g><path style="opacity:1" fill="#f7f7f7" d="M 135.5,357.5 C 140.823,358.302 142.489,361.135 140.5,366C 138.975,367.009 137.308,367.509 135.5,367.5C 135.5,364.167 135.5,360.833 135.5,357.5 Z"/></g>
<g><path style="opacity:1" fill="#d0d0d0" d="M 573.5,357.5 C 579.506,358.563 580.839,361.563 577.5,366.5C 576.264,367.246 574.93,367.579 573.5,367.5C 573.5,364.167 573.5,360.833 573.5,357.5 Z"/></g>
<g><path style="opacity:1" fill="#f0f0f0" d="M 1011.5,357.5 C 1017.76,358.477 1019.09,361.644 1015.5,367C 1014.21,367.49 1012.87,367.657 1011.5,367.5C 1011.5,364.167 1011.5,360.833 1011.5,357.5 Z"/></g>
<g><path style="opacity:1" fill="#868686" d="M 1371.5,246.5 C 1372.5,300.331 1372.83,354.331 1372.5,408.5C 1237.33,408.833 1102.33,408.5 967.5,407.5C 1102.17,407.5 1236.83,407.5 1371.5,407.5C 1371.5,353.833 1371.5,300.167 1371.5,246.5 Z"/></g>
<g><path style="opacity:1" fill="#373737" d="M 128.5,488.5 C 130.43,492.373 131.097,496.706 130.5,501.5C 122.897,503.582 120.064,500.915 122,493.5C 123.733,491.398 125.733,491.065 128,492.5C 128.49,491.207 128.657,489.873 128.5,488.5 Z"/></g>
<g><path style="opacity:1" fill="#fafafa" d="M 123.5,493.5 C 128.328,493.385 129.661,495.552 127.5,500C 126.216,500.684 125.049,500.517 124,499.5C 123.505,497.527 123.338,495.527 123.5,493.5 Z"/></g>
<g><path style="opacity:1" fill="#272727" d="M 133.5,491.5 C 135.086,491.693 136.753,492.027 138.5,492.5C 137.372,493.262 136.205,493.929 135,494.5C 134.667,496.833 134.333,499.167 134,501.5C 133.502,498.183 133.335,494.85 133.5,491.5 Z"/></g>
<g><path style="opacity:1" fill="#2a2a2a" d="M 152.5,491.5 C 153.873,491.343 155.207,491.51 156.5,492C 157.711,492.893 157.711,493.726 156.5,494.5C 155.109,493.355 153.776,493.355 152.5,494.5C 153.668,496.217 155.335,496.884 157.5,496.5C 157.5,498.167 157.5,499.833 157.5,501.5C 155.076,501.808 152.743,501.474 150.5,500.5C 152.565,500.738 154.565,500.238 156.5,499C 154.232,498.028 152.232,496.695 150.5,495C 150.978,493.697 151.645,492.531 152.5,491.5 Z"/></g>
<g><path style="opacity:1" fill="#2a2a2a" d="M 101.5,488.5 C 102.496,488.414 103.329,488.748 104,489.5C 105.505,493.35 107.005,497.183 108.5,501C 106.928,499.705 104.928,498.872 102.5,498.5C 100.42,498.686 98.9205,499.686 98,501.5C 98.6825,497.108 99.8491,492.775 101.5,488.5 Z"/></g>
<g><path style="opacity:1" fill="#e6e6e6" d="M 102.5,491.5 C 103.931,492.78 104.598,494.447 104.5,496.5C 100.247,496.88 99.5801,495.213 102.5,491.5 Z"/></g>
<g><path style="opacity:1" fill="#323232" d="M 141.5,491.5 C 146.017,491.02 148.35,493.02 148.5,497.5C 146.076,497.192 143.743,497.526 141.5,498.5C 141.709,499.086 142.043,499.586 142.5,500C 144.313,499.954 145.979,500.12 147.5,500.5C 139.416,501.892 137.416,498.892 141.5,491.5 Z"/></g>
<g><path style="opacity:1" fill="#f6f6f6" d="M 141.5,493.5 C 143.429,493.231 145.095,493.731 146.5,495C 145.667,495.167 144.833,495.333 144,495.5C 142.624,495.316 141.791,494.649 141.5,493.5 Z"/></g>
<g><path style="opacity:1" fill="#1e1e1e" d="M 161.5,491.5 C 163.827,491.247 165.827,491.914 167.5,493.5C 165.576,493.567 163.576,493.9 161.5,494.5C 163.942,495.562 165.942,497.062 167.5,499C 167.355,499.772 167.022,500.439 166.5,501C 164.421,501.808 162.421,501.641 160.5,500.5C 161.887,500.193 163.554,500.193 165.5,500.5C 165.5,499.5 165.5,498.5 165.5,497.5C 160.74,497.799 159.406,495.799 161.5,491.5 Z"/></g>
<g><path style="opacity:1" fill="#1e1e1e" d="M 117.5,488.5 C 118.647,492.646 118.814,496.98 118,501.5C 116.026,501.374 113.859,501.208 111.5,501C 108.349,496.769 109.183,493.602 114,491.5C 116.724,492.838 117.891,491.838 117.5,488.5 Z"/></g>
<g><path style="opacity:1" fill="#ededed" d="M 112.5,493.5 C 117.241,493.161 118.574,495.161 116.5,499.5C 114.958,500.747 113.458,500.747 112,499.5C 111.322,497.402 111.489,495.402 112.5,493.5 Z"/></g>
<g><path style="opacity:1" fill="#0c0c0c" d="M 102.5,546.5 C 102.125,542.558 101.125,538.891 99.5,535.5C 99.811,534.522 100.478,533.855 101.5,533.5C 102.492,537.783 102.826,542.116 102.5,546.5 Z"/></g>
<g><path style="opacity:1" fill="#353535" d="M 120.5,533.5 C 126.016,533.473 127.349,535.64 124.5,540C 127.666,545.519 125.999,547.852 119.5,547C 117.74,546.035 117.406,544.868 118.5,543.5C 120.942,546.132 123.275,546.132 125.5,543.5C 124.176,542.065 122.51,541.065 120.5,540.5C 123.342,539.996 124.675,538.329 124.5,535.5C 122.179,535.229 120.179,535.896 118.5,537.5C 118.167,537.167 117.833,536.833 117.5,536.5C 118.34,535.265 119.34,534.265 120.5,533.5 Z"/></g>
<g><path style="opacity:1" fill="#585858" d="M 99.5,535.5 C 101.125,538.891 102.125,542.558 102.5,546.5C 102.44,547.043 102.107,547.376 101.5,547.5C 100.833,543.833 100.167,540.167 99.5,536.5C 98.6043,537.506 97.9377,537.506 97.5,536.5C 97.9569,535.702 98.6236,535.369 99.5,535.5 Z"/></g>
<g><path style="opacity:1" fill="#333333" d="M 183.5,533.5 C 186.596,532.907 188.929,533.907 190.5,536.5C 190.167,536.833 189.833,537.167 189.5,537.5C 187.821,535.896 185.821,535.229 183.5,535.5C 183.351,536.552 183.517,537.552 184,538.5C 185.816,539.329 187.649,540.163 189.5,541C 190.755,546.895 188.422,548.728 182.5,546.5C 181.417,545.635 181.251,544.635 182,543.5C 184.585,546.128 187.085,546.128 189.5,543.5C 187.207,541.948 184.707,540.615 182,539.5C 181.252,537.16 181.752,535.16 183.5,533.5 Z"/></g>
<g><path style="opacity:1" fill="#2d2d2d" d="M 193.5,534.5 C 194.931,535.446 196.264,536.612 197.5,538C 194.887,540.749 194.887,543.582 197.5,546.5C 196.609,547.59 195.609,547.59 194.5,546.5C 193.149,542.416 192.816,538.416 193.5,534.5 Z"/></g>
<g><path style="opacity:1" fill="#313131" d="M 228.5,534.5 C 229.931,535.446 231.264,536.612 232.5,538C 229.887,540.749 229.887,543.582 232.5,546.5C 231.349,547.731 230.183,547.731 229,546.5C 228.135,542.36 227.968,538.36 228.5,534.5 Z"/></g>
<g><path style="opacity:1" fill="#1a1a1a" d="M 166.5,537.5 C 168.527,537.338 170.527,537.505 172.5,538C 173.38,539.356 173.714,540.856 173.5,542.5C 171.076,542.192 168.743,542.526 166.5,543.5C 166.709,544.086 167.043,544.586 167.5,545C 169.657,545.078 171.657,545.245 173.5,545.5C 168.826,548.834 166.159,547.667 165.5,542C 165.605,540.408 165.939,538.908 166.5,537.5 Z"/></g>
<g><path style="opacity:1" fill="#1b1b1b" d="M 207.5,537.5 C 209.527,537.338 211.527,537.505 213.5,538C 214.38,539.356 214.714,540.856 214.5,542.5C 212.076,542.192 209.743,542.526 207.5,543.5C 207.709,544.086 208.043,544.586 208.5,545C 210.657,545.078 212.657,545.245 214.5,545.5C 209.826,548.834 207.159,547.667 206.5,542C 206.605,540.408 206.939,538.908 207.5,537.5 Z"/></g>
<g><path style="opacity:1" fill="#d5d5d5" d="M 167.5,538.5 C 169.665,538.116 171.332,538.783 172.5,540.5C 170.5,541.833 168.5,541.833 166.5,540.5C 166.863,539.817 167.196,539.15 167.5,538.5 Z"/></g>
<g><path style="opacity:1" fill="#333333" d="M 199.5,537.5 C 201.199,537.34 202.866,537.506 204.5,538C 203.584,538.374 202.75,538.874 202,539.5C 201.818,542.226 201.318,544.893 200.5,547.5C 199.513,544.232 199.18,540.898 199.5,537.5 Z"/></g>
<g><path style="opacity:1" fill="#d4d4d4" d="M 208.5,538.5 C 210.665,538.116 212.332,538.783 213.5,540.5C 211.5,541.833 209.5,541.833 207.5,540.5C 207.863,539.817 208.196,539.15 208.5,538.5 Z"/></g>
<g><path style="opacity:1" fill="#333333" d="M 134.5,533.5 C 137.247,533.187 139.914,533.52 142.5,534.5C 140.604,535.466 138.604,535.799 136.5,535.5C 136.5,536.833 136.5,538.167 136.5,539.5C 144.5,540.167 144.5,540.833 136.5,541.5C 136.799,543.604 136.466,545.604 135.5,547.5C 134.507,542.88 134.173,538.214 134.5,533.5 Z"/></g>
<g><path style="opacity:1" fill="#1f1f1f" d="M 146.5,537.5 C 148.467,537.261 150.301,537.594 152,538.5C 152.667,541.5 152.667,544.5 152,547.5C 150.093,547.579 148.093,547.246 146,546.5C 145.333,545.167 145.333,543.833 146,542.5C 147.947,541.89 149.781,541.057 151.5,540C 150.01,538.228 148.343,538.061 146.5,539.5C 145.537,539.03 145.537,538.363 146.5,537.5 Z"/></g>
<g><path style="opacity:1" fill="#f2f2f2" d="M 147.5,542.5 C 152.276,542.671 152.609,543.671 148.5,545.5C 146.197,545.124 145.863,544.124 147.5,542.5 Z"/></g>
<g><path style="opacity:1" fill="#2c2c2c" d="M 223.5,538.5 C 225.104,539.287 225.771,540.62 225.5,542.5C 223.076,542.192 220.743,542.526 218.5,543.5C 219.966,545.657 221.8,545.99 224,544.5C 224.617,545.449 224.451,546.282 223.5,547C 217.839,547.667 215.672,545.167 217,539.5C 219.016,537.392 221.183,537.058 223.5,538.5 Z"/></g>
<g><path style="opacity:1" fill="#e6e6e6" d="M 223.5,538.5 C 223.5,539.5 223.5,540.5 223.5,541.5C 221.712,541.785 220.045,541.452 218.5,540.5C 219.668,538.783 221.335,538.116 223.5,538.5 Z"/></g>
<g><path style="opacity:1" fill="#3a3a3a" d="M 155.5,533.5 C 157.22,535.658 158.053,538.325 158,541.5C 163.192,536.017 164.025,536.184 160.5,542C 161.289,543.626 162.289,545.126 163.5,546.5C 163.167,546.833 162.833,547.167 162.5,547.5C 161.5,545.833 160.167,544.5 158.5,543.5C 157.833,544.833 157.167,546.167 156.5,547.5C 155.507,542.88 155.173,538.214 155.5,533.5 Z"/></g>
<g><path style="opacity:1" fill="#343434" d="M 108.5,533.5 C 113,533.164 114.833,535.164 114,539.5C 112.878,541.624 111.378,543.457 109.5,545C 111.256,545.202 112.922,545.702 114.5,546.5C 111.833,547.833 109.167,547.833 106.5,546.5C 109.215,543.786 111.549,540.786 113.5,537.5C 111.6,534.871 109.6,534.871 107.5,537.5C 107.167,537.167 106.833,536.833 106.5,536.5C 107.193,535.482 107.859,534.482 108.5,533.5 Z"/></g>
<g><path style="opacity:1" fill="#090909" d="M 121.5,562.5 C 120.759,565.413 120.259,568.413 120,571.5C 119.333,568.167 119.333,564.833 120,561.5C 120.383,562.056 120.883,562.389 121.5,562.5 Z"/></g>
<g><path style="opacity:1" fill="#242424" d="M 154.5,562.5 C 154.817,565.572 154.484,568.572 153.5,571.5C 152.343,568.216 152.176,564.882 153,561.5C 153.383,562.056 153.883,562.389 154.5,562.5 Z"/></g>
<g><path style="opacity:1" fill="#131313" d="M 154.5,562.5 C 156.223,561.193 158.057,561.193 160,562.5C 160.497,565.146 160.664,567.813 160.5,570.5C 159.833,568.167 159.167,565.833 158.5,563.5C 157.432,562.566 156.099,562.232 154.5,562.5 Z"/></g>
<g><path style="opacity:1" fill="#3c3c3c" d="M 121.5,562.5 C 123.223,561.193 125.057,561.193 127,562.5C 127.821,565.554 127.655,568.554 126.5,571.5C 125.682,568.893 125.182,566.226 125,563.5C 123.989,562.663 122.822,562.33 121.5,562.5 Z"/></g>
<g><path style="opacity:1" fill="#797979" d="M 158.5,563.5 C 159.167,565.833 159.833,568.167 160.5,570.5C 160.44,571.043 160.107,571.376 159.5,571.5C 158.52,568.914 158.187,566.247 158.5,563.5 Z"/></g>
<g><path style="opacity:1" fill="#2a2a2a" d="M 137.5,557.5 C 138.648,561.981 138.815,566.648 138,571.5C 135.958,571.182 133.791,571.015 131.5,571C 128.941,567.925 128.941,564.925 131.5,562C 136.499,561.448 136.666,561.948 132,563.5C 131.505,565.473 131.338,567.473 131.5,569.5C 133.167,569.5 134.833,569.5 136.5,569.5C 136.646,565.481 136.979,561.481 137.5,557.5 Z"/></g>
<g><path style="opacity:1" fill="#232323" d="M 142.5,561.5 C 147.083,560.343 149.75,562.01 150.5,566.5C 149.024,571.574 146.191,572.574 142,569.5C 141.278,566.739 141.445,564.073 142.5,561.5 Z"/></g>
<g><path style="opacity:1" fill="#f1f1f1" d="M 143.5,562.5 C 148.328,562.385 149.661,564.552 147.5,569C 145.888,569.72 144.388,569.554 143,568.5C 142.51,566.455 142.677,564.455 143.5,562.5 Z"/></g>
<g><path style="opacity:1" fill="#2c2c2c" d="M 111.5,560.5 C 116.254,561.618 117.754,564.618 116,569.5C 111.54,572.667 108.707,571.5 107.5,566C 107.901,563.44 109.234,561.607 111.5,560.5 Z"/></g>
<g><path style="opacity:1" fill="#f3f3f3" d="M 110.5,562.5 C 114.976,562.8 116.31,564.967 114.5,569C 109.57,569.427 108.237,567.26 110.5,562.5 Z"/></g>
<g><path style="opacity:1" fill="#2c2c2c" d="M 98.5,557.5 C 99.4834,561.298 99.8168,565.298 99.5,569.5C 101.604,569.201 103.604,569.534 105.5,570.5C 103.257,571.474 100.924,571.808 98.5,571.5C 98.5,566.833 98.5,562.167 98.5,557.5 Z"/></g>
<g><path style="opacity:1" fill="#242424" d="M 109.5,581.5 C 111.388,582.94 113.055,584.606 114.5,586.5C 115.833,584.833 117.167,583.167 118.5,581.5C 118.833,581.833 119.167,582.167 119.5,582.5C 117.774,584.228 116.441,586.228 115.5,588.5C 116.441,590.772 117.774,592.772 119.5,594.5C 119.167,594.833 118.833,595.167 118.5,595.5C 117.167,593.833 115.833,592.167 114.5,590.5C 108.824,597.179 108.157,596.513 112.5,588.5C 111.233,586.297 110.233,583.963 109.5,581.5 Z"/></g>
<g><path style="opacity:1" fill="#262626" d="M 120.5,582.5 C 120.897,581.475 121.563,581.308 122.5,582C 123.667,583.833 124.833,585.667 126,587.5C 132.166,579.5 132.666,579.833 127.5,588.5C 128.635,590.799 129.968,592.966 131.5,595C 130.833,595.667 130.167,595.667 129.5,595C 128.696,593.229 127.529,591.729 126,590.5C 124.471,591.729 123.304,593.229 122.5,595C 121.833,595.667 121.167,595.667 120.5,595C 125.704,590.798 125.704,586.631 120.5,582.5 Z"/></g>
<g><path style="opacity:1" fill="#282828" d="M 149.5,582.5 C 149.897,581.475 150.563,581.308 151.5,582C 152.667,583.833 153.833,585.667 155,587.5C 156,585.833 157,584.167 158,582.5C 158.718,581.549 159.551,581.383 160.5,582C 155.167,586.333 155.167,590.667 160.5,595C 159.833,595.667 159.167,595.667 158.5,595C 157.696,593.229 156.529,591.729 155,590.5C 153.471,591.729 152.304,593.229 151.5,595C 150.833,595.667 150.167,595.667 149.5,595C 151.209,593.084 152.543,590.918 153.5,588.5C 152.5,586.187 151.166,584.187 149.5,582.5 Z"/></g>
<g><path style="opacity:1" fill="#242424" d="M 161.5,582.5 C 161.897,581.475 162.563,581.308 163.5,582C 164.542,583.918 165.708,585.751 167,587.5C 172.032,579.556 172.532,579.889 168.5,588.5C 169.94,590.694 170.773,593.027 171,595.5C 169.426,594.016 168.093,592.349 167,590.5C 165.471,591.729 164.304,593.229 163.5,595C 162.668,595.688 162.002,595.521 161.5,594.5C 163.226,592.772 164.559,590.772 165.5,588.5C 164.5,586.187 163.166,584.187 161.5,582.5 Z"/></g>
<g><path style="opacity:1" fill="#262626" d="M 97.5,581.5 C 99.3725,582.863 101.039,584.53 102.5,586.5C 103.833,584.833 105.167,583.167 106.5,581.5C 106.833,581.833 107.167,582.167 107.5,582.5C 106.167,584.5 104.833,586.5 103.5,588.5C 104.833,590.5 106.167,592.5 107.5,594.5C 107.167,594.833 106.833,595.167 106.5,595.5C 105.167,593.833 103.833,592.167 102.5,590.5C 100.937,591.945 99.604,593.611 98.5,595.5C 98.1667,595.167 97.8333,594.833 97.5,594.5C 99.0298,592.774 100.03,590.774 100.5,588.5C 99.2326,586.297 98.2326,583.963 97.5,581.5 Z"/></g>
<g><path style="opacity:1" fill="#242424" d="M 138.5,581.5 C 140.708,582.894 142.208,584.894 143,587.5C 144.292,585.751 145.458,583.918 146.5,582C 147.332,581.312 147.998,581.479 148.5,582.5C 146.774,584.228 145.441,586.228 144.5,588.5C 145.635,590.799 146.968,592.966 148.5,595C 147.833,595.667 147.167,595.667 146.5,595C 145.696,593.229 144.529,591.729 143,590.5C 141.471,591.729 140.304,593.229 139.5,595C 138.833,595.667 138.167,595.667 137.5,595C 139.225,593.046 140.558,590.879 141.5,588.5C 140.233,586.297 139.233,583.963 138.5,581.5 Z"/></g>
<g><path style="opacity:1" fill="#737373" d="M 98.5,638.5 C 97.2089,637.458 97.2089,636.292 98.5,635C 100.112,634.28 101.612,634.446 103,635.5C 103.667,636.167 103.667,636.833 103,637.5C 100.76,634.707 99.2604,635.04 98.5,638.5 Z"/></g>
<g><path style="opacity:1" fill="#6e6e6e" d="M 120.5,642.5 C 122.346,642.778 123.68,642.111 124.5,640.5C 123.68,638.889 122.346,638.222 120.5,638.5C 122.19,637.897 123.69,636.897 125,635.5C 125.497,638.146 125.664,640.813 125.5,643.5C 124.178,643.33 123.011,643.663 122,644.5C 121.283,643.956 120.783,643.289 120.5,642.5 Z"/></g>
<g><path style="opacity:1" fill="#838383" d="M 217.5,634.5 C 219.388,636.988 220.055,639.988 219.5,643.5C 213.918,645.382 212.084,643.382 214,637.5C 215.729,637.026 216.895,636.026 217.5,634.5 Z"/></g>
<g><path style="opacity:1" fill="#626262" d="M 206.5,642.5 C 204.639,638.672 205.973,637.005 210.5,637.5C 211.908,636.773 211.908,638.773 210.5,643.5C 208.703,644.932 207.37,644.599 206.5,642.5 Z"/></g>
<g><path style="opacity:1" fill="#7f7f7f" d="M 233.5,636.5 C 238.658,637.484 238.658,638.317 233.5,639C 235.223,639.523 236.556,640.523 237.5,642C 236.369,644.819 234.702,645.153 232.5,643C 233.833,642.667 235.167,642.333 236.5,642C 233.095,641.247 232.095,639.414 233.5,636.5 Z"/></g>
<g><path style="opacity:1" fill="#393939" d="M 112.5,637.5 C 113.239,637.369 113.906,637.536 114.5,638C 113.123,645.342 112.456,645.176 112.5,637.5 Z"/></g>
<g><path style="opacity:1" fill="#f3f3f3" d="M 120.5,638.5 C 122.346,638.222 123.68,638.889 124.5,640.5C 123.68,642.111 122.346,642.778 120.5,642.5C 120.5,641.167 120.5,639.833 120.5,638.5 Z"/></g>
<g><path style="opacity:1" fill="#797979" d="M 130.5,635.5 C 131.995,635.415 132.995,636.081 133.5,637.5C 132.518,639.834 132.351,642.168 133,644.5C 130.749,641.983 129.916,638.983 130.5,635.5 Z"/></g>
<g><path style="opacity:1" fill="#898989" d="M 136.5,636.5 C 137.822,636.33 138.989,636.663 140,637.5C 140.667,639.5 140.667,641.5 140,643.5C 136.958,644.986 135.125,643.986 134.5,640.5C 134.752,638.927 135.418,637.594 136.5,636.5 Z"/></g>
<g><path style="opacity:1" fill="#fcfcfc" d="M 136.5,638.5 C 137.5,638.5 138.5,638.5 139.5,638.5C 139.5,639.833 139.5,641.167 139.5,642.5C 138.5,642.5 137.5,642.5 136.5,642.5C 136.5,641.167 136.5,639.833 136.5,638.5 Z"/></g>
<g><path style="opacity:1" fill="#8c8c8c" d="M 157.5,634.5 C 158.239,634.369 158.906,634.536 159.5,635C 159.324,637.672 158.657,640.505 157.5,643.5C 156.259,640.463 156.259,637.463 157.5,634.5 Z"/></g>
<g><path style="opacity:1" fill="#494949" d="M 161.5,634.5 C 162.552,634.351 163.552,634.517 164.5,635C 162.834,637.48 162.001,640.313 162,643.5C 161.502,640.518 161.335,637.518 161.5,634.5 Z"/></g>
<g><path style="opacity:1" fill="#828282" d="M 166.5,636.5 C 169.342,636.528 170.509,637.862 170,640.5C 169.29,639.027 168.124,638.36 166.5,638.5C 166.5,639.833 166.5,641.167 166.5,642.5C 170.588,642.218 171.088,642.885 168,644.5C 164.005,642.518 163.505,639.851 166.5,636.5 Z"/></g>
<g><path style="opacity:1" fill="#efefef" d="M 206.5,642.5 C 206.167,639.5 207.5,638.167 210.5,638.5C 210.5,639.833 210.5,641.167 210.5,642.5C 209.167,642.5 207.833,642.5 206.5,642.5 Z"/></g>
<g><path style="opacity:1" fill="#fbfbfb" d="M 214.5,638.5 C 215.5,638.5 216.5,638.5 217.5,638.5C 217.5,639.833 217.5,641.167 217.5,642.5C 216.5,642.5 215.5,642.5 214.5,642.5C 214.5,641.167 214.5,639.833 214.5,638.5 Z"/></g>
<g><path style="opacity:1" fill="#717171" d="M 241.5,640.5 C 238.959,639.377 238.959,638.044 241.5,636.5C 244.076,637.883 243.742,638.717 240.5,639C 241.056,639.383 241.389,639.883 241.5,640.5 Z"/></g>
<g><path style="opacity:1" fill="#9b9b9b" d="M 120.5,638.5 C 120.5,639.833 120.5,641.167 120.5,642.5C 119.883,642.389 119.383,642.056 119,641.5C 118.751,642.624 118.251,643.624 117.5,644.5C 116.779,642.314 116.113,640.147 115.5,638C 116.996,637.493 118.163,637.993 119,639.5C 119.383,638.944 119.883,638.611 120.5,638.5 Z"/></g>
<g><path style="opacity:1" fill="#666666" d="M 174.5,636.5 C 175.043,636.56 175.376,636.893 175.5,637.5C 174.045,639.22 173.212,641.22 173,643.5C 172.185,640.802 172.685,638.468 174.5,636.5 Z"/></g>
<g><path style="opacity:1" fill="#858585" d="M 183.5,637.5 C 188.895,636.555 190.561,638.555 188.5,643.5C 187.167,636.833 185.833,636.833 184.5,643.5C 183.534,641.604 183.201,639.604 183.5,637.5 Z"/></g>
<g><path style="opacity:1" fill="#737373" d="M 221.5,636.5 C 222.675,636.281 223.675,636.614 224.5,637.5C 223.045,639.22 222.212,641.22 222,643.5C 221.503,641.19 221.337,638.857 221.5,636.5 Z"/></g>
<g><path style="opacity:1" fill="#9f9f9f" d="M 106.5,636.5 C 107.822,636.33 108.989,636.663 110,637.5C 110.667,639.5 110.667,641.5 110,643.5C 106.958,644.986 105.125,643.986 104.5,640.5C 104.752,638.927 105.418,637.594 106.5,636.5 Z"/></g>
<g><path style="opacity:1" fill="#676767" d="M 150.5,634.5 C 151.803,637.355 151.803,640.355 150.5,643.5C 147.695,644.729 146.028,643.729 145.5,640.5C 145.963,637.493 147.463,636.493 150,637.5C 150.483,636.552 150.649,635.552 150.5,634.5 Z"/></g>
<g><path style="opacity:1" fill="#f4f4f4" d="M 147.5,638.5 C 148.5,638.5 149.5,638.5 150.5,638.5C 150.5,639.833 150.5,641.167 150.5,642.5C 147.046,642.733 146.046,641.4 147.5,638.5 Z"/></g>
<g><path style="opacity:1" fill="#989898" d="M 177.5,637.5 C 180.95,636.756 182.616,638.09 182.5,641.5C 180.533,641.261 178.699,641.594 177,642.5C 176.36,640.735 176.527,639.068 177.5,637.5 Z"/></g>
<g><path style="opacity:1" fill="#8f8f8f" d="M 226.5,637.5 C 227.873,637.343 229.207,637.51 230.5,638C 231.451,638.718 231.617,639.551 231,640.5C 225.981,644.104 224.481,643.104 226.5,637.5 Z"/></g>
<g><path style="opacity:1" fill="#787878" d="M 98.5,638.5 C 102.527,638.26 103.861,639.926 102.5,643.5C 99.6282,645.171 98.1282,644.505 98,641.5C 99.4936,642.747 100.994,642.747 102.5,641.5C 101.099,640.479 99.7653,639.479 98.5,638.5 Z"/></g>
<g><path style="opacity:1" fill="#999999" d="M 200.5,636.5 C 203.987,637.445 205.32,639.778 204.5,643.5C 202.54,644.138 200.707,644.138 199,643.5C 199.046,641.687 198.88,640.021 198.5,638.5C 199.243,637.818 199.909,637.151 200.5,636.5 Z"/></g>
<g><path style="opacity:1" fill="#8a8a8a" d="M 241.5,640.5 C 245.308,641.439 245.308,642.772 241.5,644.5C 238.924,643.117 239.258,642.283 242.5,642C 241.944,641.617 241.611,641.117 241.5,640.5 Z"/></g>
<g><path style="opacity:1" fill="#b0b1b0" d="M 96.5,650.5 C 145.838,650.167 195.171,650.5 244.5,651.5C 219.833,651.833 195.167,652.167 170.5,652.5C 145.491,652.5 120.824,651.833 96.5,650.5 Z"/></g>
<g><path style="opacity:1" fill="#0c0c0c" d="M 105.5,709.5 C 165.501,709.333 225.501,709.5 285.5,710C 289.186,711.089 292.019,713.255 294,716.5C 294.667,726.167 294.667,735.833 294,745.5C 292.437,748.728 289.937,750.895 286.5,752C 225.833,752.667 165.167,752.667 104.5,752C 102.04,750.542 99.8734,748.709 98,746.5C 96,736.167 96,725.833 98,715.5C 100.114,712.879 102.614,710.879 105.5,709.5 Z"/></g>
<g><path style="opacity:1" fill="#f7f7f7" d="M 105.5,711.5 C 165.168,711.333 224.834,711.5 284.5,712C 287.539,713.031 290.039,714.865 292,717.5C 292.667,726.167 292.667,734.833 292,743.5C 291.167,747 289,749.167 285.5,750C 225.5,750.667 165.5,750.667 105.5,750C 102.667,748.5 100.5,746.333 99,743.5C 98.3333,735.167 98.3333,726.833 99,718.5C 100.694,715.642 102.861,713.309 105.5,711.5 Z"/></g>
<g><path style="opacity:1" fill="#0e0e0e" d="M 211.5,730.5 C 209.89,733.189 209.057,736.189 209,739.5C 208.333,735.167 208.333,730.833 209,726.5C 209.122,728.437 209.955,729.77 211.5,730.5 Z"/></g>
<g><path style="opacity:1" fill="#0e0e0e" d="M 202.5,738.5 C 203.036,735.302 202.369,732.635 200.5,730.5C 201.469,729.691 202.302,728.691 203,727.5C 203.5,728.667 204.333,729.5 205.5,730C 202.918,732.958 202.918,735.958 205.5,739C 204.251,739.74 203.251,739.573 202.5,738.5 Z"/></g>
<g><path style="opacity:1" fill="#151515" d="M 252.5,729.5 C 254.199,729.34 255.866,729.506 257.5,730C 256.069,730.465 254.903,731.299 254,732.5C 253.667,734.833 253.333,737.167 253,739.5C 252.502,736.183 252.335,732.85 252.5,729.5 Z"/></g>
<g><path style="opacity:1" fill="#060606" d="M 259.5,729.5 C 260.289,729.783 260.956,730.283 261.5,731C 260.718,733.74 260.218,736.574 260,739.5C 259.502,736.183 259.335,732.85 259.5,729.5 Z"/></g>
<g><path style="opacity:1" fill="#242424" d="M 144.5,730.5 C 143.916,733.473 143.249,736.473 142.5,739.5C 141.167,736.167 141.167,732.833 142.5,729.5C 143.183,729.863 143.85,730.196 144.5,730.5 Z"/></g>
<g><path style="opacity:1" fill="#070707" d="M 144.5,730.5 C 145.884,729.199 147.384,729.199 149,730.5C 149.667,733.5 149.667,736.5 149,739.5C 148.667,736.833 148.333,734.167 148,731.5C 146.989,730.663 145.822,730.33 144.5,730.5 Z"/></g>
<g><path style="opacity:1" fill="#2a2a2a" d="M 158.5,738.5 C 154.732,740.173 152.732,738.84 152.5,734.5C 152.812,730.009 154.978,728.676 159,730.5C 159.219,729.062 159.719,727.729 160.5,726.5C 161.833,730.833 161.833,735.167 160.5,739.5C 159.817,739.137 159.15,738.804 158.5,738.5 Z"/></g>
<g><path style="opacity:1" fill="#e7e7e7" d="M 158.5,738.5 C 154.513,738.348 153.013,736.348 154,732.5C 155.667,729.833 157.333,729.833 159,732.5C 159.678,734.598 159.511,736.598 158.5,738.5 Z"/></g>
<g><path style="opacity:1" fill="#111111" d="M 172.5,730.5 C 172.5,730.167 172.5,729.833 172.5,729.5C 175.458,730.356 178.458,730.523 181.5,730C 182.617,733.073 182.784,736.24 182,739.5C 180,727.5 178,727.5 176,739.5C 175.667,736.833 175.333,734.167 175,731.5C 174.329,730.748 173.496,730.414 172.5,730.5 Z"/></g>
<g><path style="opacity:1" fill="#9a9a9a" d="M 200.5,730.5 C 202.369,732.635 203.036,735.302 202.5,738.5C 201.745,735.947 201.078,733.28 200.5,730.5 Z"/></g>
<g><path style="opacity:1" fill="#2d2d2d" d="M 237.5,725.5 C 239.977,726.12 239.977,727.12 237.5,728.5C 238.025,729.192 238.692,729.692 239.5,730C 237.961,732.878 236.961,736.045 236.5,739.5C 235.796,736.296 235.13,733.129 234.5,730C 235.222,728.249 236.222,726.749 237.5,725.5 Z"/></g>
<g><path style="opacity:1" fill="#090909" d="M 267.5,730.5 C 266.759,733.413 266.259,736.413 266,739.5C 265.667,736.833 265.333,734.167 265,731.5C 264.25,730.874 263.416,730.374 262.5,730C 264.197,729.616 265.863,729.782 267.5,730.5 Z"/></g>
<g><path style="opacity:1" fill="#282828" d="M 120.5,726.5 C 122.857,726.337 125.19,726.503 127.5,727C 128.711,727.893 128.711,728.726 127.5,729.5C 125.827,727.914 123.827,727.247 121.5,727.5C 121.5,728.833 121.5,730.167 121.5,731.5C 127.131,731.42 129.131,733.92 127.5,739C 124.901,739.769 122.401,739.602 120,738.5C 119.312,737.668 119.479,737.002 120.5,736.5C 122.927,739.29 124.927,739.124 126.5,736C 126.355,735.228 126.022,734.561 125.5,734C 120.259,733.624 118.592,731.124 120.5,726.5 Z"/></g>
<g><path style="opacity:1" fill="#4c4c4c" d="M 172.5,729.5 C 172.5,729.833 172.5,730.167 172.5,730.5C 171.916,733.473 171.249,736.473 170.5,739.5C 169.513,736.232 169.18,732.898 169.5,729.5C 170.5,729.5 171.5,729.5 172.5,729.5 Z"/></g>
<g><path style="opacity:1" fill="#303030" d="M 211.5,730.5 C 212.672,729.295 214.005,729.295 215.5,730.5C 216.833,733.5 216.833,736.5 215.5,739.5C 214.682,736.893 214.182,734.226 214,731.5C 213.329,730.748 212.496,730.414 211.5,730.5 Z"/></g>
<g><path style="opacity:1" fill="#2b2b2b" d="M 221.5,730.5 C 225.695,729.003 227.695,730.669 227.5,735.5C 225.076,735.192 222.743,735.526 220.5,736.5C 222.359,739.019 224.359,739.019 226.5,736.5C 227.711,737.274 227.711,738.107 226.5,739C 221.932,740.65 219.266,739.15 218.5,734.5C 218.561,732.347 219.561,731.014 221.5,730.5 Z"/></g>
<g><path style="opacity:1" fill="#e1e1e1" d="M 221.5,730.5 C 223.346,730.222 224.68,730.889 225.5,732.5C 223.833,733.833 222.167,733.833 220.5,732.5C 220.863,731.817 221.196,731.15 221.5,730.5 Z"/></g>
<g><path style="opacity:1" fill="#262626" d="M 247.5,730.5 C 248.748,731.334 249.415,732.667 249.5,734.5C 249.333,735.833 249.167,737.167 249,738.5C 242.881,741.045 240.214,739.045 241,732.5C 242.731,729.698 244.898,729.031 247.5,730.5 Z"/></g>
<g><path style="opacity:1" fill="#ededed" d="M 247.5,730.5 C 249.43,734.132 248.596,736.798 245,738.5C 242.799,737.038 242.133,735.038 243,732.5C 244.11,730.963 245.61,730.297 247.5,730.5 Z"/></g>
<g><path style="opacity:1" fill="#0c0c0c" d="M 267.5,730.5 C 268.884,729.199 270.384,729.199 272,730.5C 272.667,733.5 272.667,736.5 272,739.5C 271.667,736.833 271.333,734.167 271,731.5C 269.989,730.663 268.822,730.33 267.5,730.5 Z"/></g>
<g><path style="opacity:1" fill="#313131" d="M 191.5,730.5 C 193.213,731.635 193.88,733.302 193.5,735.5C 191.143,735.337 188.81,735.503 186.5,736C 187.977,738.571 189.977,739.071 192.5,737.5C 193.696,737.846 193.696,738.346 192.5,739C 185.923,740.591 183.756,738.091 186,731.5C 187.678,729.447 189.511,729.113 191.5,730.5 Z"/></g>
<g><path style="opacity:1" fill="#e1e1e1" d="M 191.5,730.5 C 191.414,731.496 191.748,732.329 192.5,733C 184.957,733.882 184.623,733.048 191.5,730.5 Z"/></g>
<g><path style="opacity:1" fill="#303030" d="M 133.5,730.5 C 137.695,729.003 139.695,730.669 139.5,735.5C 137.076,735.192 134.743,735.526 132.5,736.5C 134.359,739.019 136.359,739.019 138.5,736.5C 139.711,737.274 139.711,738.107 138.5,739C 131.794,740.462 129.46,737.962 131.5,731.5C 131.957,730.702 132.624,730.369 133.5,730.5 Z"/></g>
<g><path style="opacity:1" fill="#e2e2e2" d="M 133.5,730.5 C 135.346,730.222 136.68,730.889 137.5,732.5C 135.833,733.833 134.167,733.833 132.5,732.5C 132.863,731.817 133.196,731.15 133.5,730.5 Z"/></g>
</svg>
