<?xml version="1.0" encoding="UTF-8"?>
<!DOCTYPE svg PUBLIC "-//W3C//DTD SVG 1.1//EN" "http://www.w3.org/Graphics/SVG/1.1/DTD/svg11.dtd">
<svg xmlns="http://www.w3.org/2000/svg" version="1.1" width="1502px" height="845px" style="shape-rendering:geometricPrecision; text-rendering:geometricPrecision; image-rendering:optimizeQuality; fill-rule:evenodd; clip-rule:evenodd" xmlns:xlink="http://www.w3.org/1999/xlink">
<g><path style="opacity:1" fill="#d8d8d8" d="M 2.5,-0.5 C 502.167,-0.5 1001.83,-0.5 1501.5,-0.5C 1501.5,17.8333 1501.5,36.1667 1501.5,54.5C 1001.83,54.5 502.167,54.5 2.5,54.5C 2.5,36.1667 2.5,17.8333 2.5,-0.5 Z"/></g>
<g><path style="opacity:1" fill="#727272" d="M 1437.5,15.5 C 1443.25,10.3856 1449.25,10.219 1455.5,15C 1452.68,14.1106 1449.68,13.6106 1446.5,13.5C 1443.31,13.4488 1440.31,14.1155 1437.5,15.5 Z"/></g>
<g><path style="opacity:1" fill="#444444" d="M 1437.5,15.5 C 1436.83,16.8333 1435.83,17.8333 1434.5,18.5C 1434.5,16.5 1435.5,15.5 1437.5,15.5 Z"/></g>
<g><path style="opacity:1" fill="#656565" d="M 1434.5,18.5 C 1432.95,22.9906 1432.11,27.6573 1432,32.5C 1429.7,27.1877 1430.53,22.521 1434.5,18.5 Z"/></g>
<g><path style="opacity:1" fill="#7d7d7d" d="M 1447.5,26.5 C 1450.13,23.3694 1452.96,20.3694 1456,17.5C 1456.67,18.1667 1456.67,18.8333 1456,19.5C 1453.56,22.4468 1450.73,24.7801 1447.5,26.5 Z"/></g>
<g><path style="opacity:1" fill="#0e0e0e" d="M 102.5,22.5 C 103.434,23.5676 103.768,24.901 103.5,26.5C 105.167,26.5 106.833,26.5 108.5,26.5C 109.833,26.8333 109.833,27.1667 108.5,27.5C 106.833,27.5 105.167,27.5 103.5,27.5C 103.657,28.8734 103.49,30.2068 103,31.5C 102.502,28.5184 102.335,25.5184 102.5,22.5 Z"/></g>
<g><path style="opacity:1" fill="#434343" d="M 1306.5,25.5 C 1306.46,24.2438 1306.96,23.2438 1308,22.5C 1308.58,23.9976 1308.08,24.9976 1306.5,25.5 Z"/></g>
<g><path style="opacity:1" fill="#434343" d="M 1314.5,25.5 C 1314.46,24.2438 1314.96,23.2438 1316,22.5C 1316.58,23.9976 1316.08,24.9976 1314.5,25.5 Z"/></g>
<g><path style="opacity:1" fill="#161616" d="M 1388.5,22.5 C 1393.67,21.4919 1395.33,23.3252 1393.5,28C 1392.21,28.49 1390.87,28.6567 1389.5,28.5C 1388.22,29.3167 1387.89,27.3167 1388.5,22.5 Z"/></g>
<g><path style="opacity:1" fill="#484848" d="M 1312.5,26.5 C 1311.16,25.6851 1310.16,24.5185 1309.5,23C 1311.48,23.033 1312.48,24.1996 1312.5,26.5 Z"/></g>
<g><path style="opacity:1" fill="#313131" d="M 1322.5,25.5 C 1322.46,24.2438 1322.96,23.2438 1324,22.5C 1324.58,23.9976 1324.08,24.9976 1322.5,25.5 Z"/></g>
<g><path style="opacity:1" fill="#343434" d="M 1330.5,25.5 C 1330.46,24.2438 1330.96,23.2438 1332,22.5C 1332.58,23.9976 1332.08,24.9976 1330.5,25.5 Z"/></g>
<g><path style="opacity:1" fill="#414141" d="M 1344.5,28.5 C 1343.76,26.5742 1342.76,24.7409 1341.5,23C 1343.08,23.1519 1344.41,23.9852 1345.5,25.5C 1346.33,24.5 1347.17,23.5 1348,22.5C 1347.01,25.1262 1346.67,27.7929 1347,30.5C 1346.29,29.6195 1345.46,28.9528 1344.5,28.5 Z"/></g>
<g><path style="opacity:1" fill="#cccccc" d="M 1389.5,23.5 C 1391.35,23.2222 1392.68,23.8888 1393.5,25.5C 1392.68,27.1112 1391.35,27.7778 1389.5,27.5C 1389.5,26.1667 1389.5,24.8333 1389.5,23.5 Z"/></g>
<g><path style="opacity:1" fill="#464646" d="M 113.5,24.5 C 116.955,25.1284 118.122,27.1284 117,30.5C 116.888,27.5529 115.388,26.2196 112.5,26.5C 112.657,27.8734 112.49,29.2068 112,30.5C 111.257,28.1261 111.757,26.1261 113.5,24.5 Z"/></g>
<g><path style="opacity:1" fill="#464646" d="M 1401.5,30.5 C 1399.98,27.9551 1400.64,25.9551 1403.5,24.5C 1407.5,27.1667 1407.5,29.8333 1403.5,32.5C 1402.48,32.1445 1401.81,31.4778 1401.5,30.5 Z"/></g>
<g><path style="opacity:1" fill="#484848" d="M 1412.5,22.5 C 1413.24,22.369 1413.91,22.5357 1414.5,23C 1413.72,25.7405 1413.22,28.5738 1413,31.5C 1412.5,28.5184 1412.34,25.5184 1412.5,22.5 Z"/></g>
<g><path style="opacity:1" fill="#676767" d="M 118.5,24.5 C 121.756,24.773 124.756,25.1063 127.5,25.5C 128.706,27.5159 128.706,29.5159 127.5,31.5C 126.167,24.8333 124.833,24.8333 123.5,31.5C 122.167,24.8333 120.833,24.8333 119.5,31.5C 118.526,29.2573 118.192,26.924 118.5,24.5 Z"/></g>
<g><path style="opacity:1" fill="#cbcbcb" d="M 1401.5,30.5 C 1401.17,27.5 1402.5,26.1667 1405.5,26.5C 1405.5,27.8333 1405.5,29.1667 1405.5,30.5C 1404.17,30.5 1402.83,30.5 1401.5,30.5 Z"/></g>
<g><path style="opacity:1" fill="#333333" d="M 1408.5,22.5 C 1409.55,22.3505 1410.55,22.5172 1411.5,23C 1409.83,25.4797 1409,28.313 1409,31.5C 1408.5,28.5184 1408.34,25.5184 1408.5,22.5 Z"/></g>
<g><path style="opacity:1" fill="#4f4f4f" d="M 131.5,24.5 C 134.5,24.1667 135.833,25.5 135.5,28.5C 132.52,28.6071 130.854,29.4404 130.5,31C 129.144,28.5859 129.478,26.4193 131.5,24.5 Z"/></g>
<g><path style="opacity:1" fill="#404040" d="M 1283.5,22.5 C 1284.04,22.56 1284.38,22.8933 1284.5,23.5C 1283.62,24.548 1282.95,25.7147 1282.5,27C 1285.32,33.221 1284.82,33.721 1281,28.5C 1280.58,30.6145 1279.41,31.4479 1277.5,31C 1278.8,30.196 1279.47,29.0293 1279.5,27.5C 1278.12,22.8983 1278.62,22.565 1281,26.5C 1281.66,25.0161 1282.5,23.6828 1283.5,22.5 Z"/></g>
<g><path style="opacity:1" fill="#393939" d="M 1286.5,23.5 C 1287.79,24.0577 1288.62,25.0577 1289,26.5C 1291.21,22.4303 1291.71,22.597 1290.5,27C 1293.36,31.9785 1292.86,32.4785 1289,28.5C 1288.58,30.6145 1287.41,31.4479 1285.5,31C 1287.84,28.8063 1288.17,26.3063 1286.5,23.5 Z"/></g>
<g><path style="opacity:1" fill="#3a3a3a" d="M 1299.5,22.5 C 1300.04,22.56 1300.38,22.8933 1300.5,23.5C 1297.92,25.9556 1297.92,28.4556 1300.5,31C 1298.89,31.0885 1297.72,30.2552 1297,28.5C 1296.58,30.6145 1295.41,31.4479 1293.5,31C 1294.8,30.196 1295.47,29.0293 1295.5,27.5C 1294.12,22.8983 1294.62,22.565 1297,26.5C 1297.66,25.0161 1298.5,23.6828 1299.5,22.5 Z"/></g>
<g><path style="opacity:1" fill="#383838" d="M 1306.5,25.5 C 1306.47,27.5824 1307.14,29.4157 1308.5,31C 1306.89,31.0885 1305.72,30.2552 1305,28.5C 1304.58,30.6145 1303.41,31.4479 1301.5,31C 1304.03,28.4133 1304.03,25.7467 1301.5,23C 1301.83,22.8333 1302.17,22.6667 1302.5,22.5C 1303.58,23.6651 1304.42,24.9984 1305,26.5C 1305.38,25.944 1305.88,25.6107 1306.5,25.5 Z"/></g>
<g><path style="opacity:1" fill="#2d2d2d" d="M 1314.5,25.5 C 1314.47,27.5824 1315.14,29.4157 1316.5,31C 1314.89,31.0885 1313.72,30.2552 1313,28.5C 1312.67,28.8333 1312.33,29.1667 1312,29.5C 1311.53,28.4232 1311.7,27.4232 1312.5,26.5C 1313.17,26.1667 1313.83,25.8333 1314.5,25.5 Z"/></g>
<g><path style="opacity:1" fill="#3a3a3a" d="M 1322.5,25.5 C 1322.47,27.5824 1323.14,29.4157 1324.5,31C 1322.89,31.0885 1321.72,30.2552 1321,28.5C 1317.3,33.7766 1316.8,33.4433 1319.5,27.5C 1319.24,25.8129 1318.57,24.3129 1317.5,23C 1317.83,22.8333 1318.17,22.6667 1318.5,22.5C 1319.58,23.6651 1320.42,24.9984 1321,26.5C 1321.38,25.944 1321.88,25.6107 1322.5,25.5 Z"/></g>
<g><path style="opacity:1" fill="#424242" d="M 1344.5,28.5 C 1344.24,30.595 1343.07,31.9283 1341,32.5C 1339.28,31.3955 1337.78,30.0622 1336.5,28.5C 1335.76,26.5742 1334.76,24.7409 1333.5,23C 1333.83,22.8333 1334.17,22.6667 1334.5,22.5C 1336.4,26.3776 1338.23,26.3776 1340,22.5C 1340.14,24.2555 1339.64,25.9222 1338.5,27.5C 1339.08,29.0016 1339.92,30.3349 1341,31.5C 1342.04,30.2899 1343.21,29.2899 1344.5,28.5 Z"/></g>
<g><path style="opacity:1" fill="#1a1a1a" d="M 1396.5,25.5 C 1397.24,25.369 1397.91,25.5357 1398.5,26C 1397.12,33.3422 1396.46,33.1755 1396.5,25.5 Z"/></g>
<g><path style="opacity:1" fill="#484848" d="M 1424.5,28.5 C 1422.22,28.0773 1420.55,28.744 1419.5,30.5C 1417.98,27.9551 1418.64,25.9551 1421.5,24.5C 1423.29,25.2826 1424.29,26.6159 1424.5,28.5 Z"/></g>
<g><path style="opacity:1" fill="#474747" d="M 1330.5,25.5 C 1330.47,27.5824 1331.14,29.4157 1332.5,31C 1330.89,31.0885 1329.72,30.2552 1329,28.5C 1325.3,33.7766 1324.8,33.4433 1327.5,27.5C 1327.28,25.9446 1326.61,24.6113 1325.5,23.5C 1325.83,23.1667 1326.17,22.8333 1326.5,22.5C 1327.58,23.6651 1328.42,24.9984 1329,26.5C 1329.38,25.944 1329.88,25.6107 1330.5,25.5 Z"/></g>
<g><path style="opacity:1" fill="#4a4a4a" d="M 1336.5,28.5 C 1336.31,30.1958 1335.48,31.5291 1334,32.5C 1333.72,30.5878 1334.55,29.2544 1336.5,28.5 Z"/></g>
<g><path style="opacity:1" fill="#939393" d="M 1424.5,28.5 C 1424.82,31.6802 1423.49,32.8469 1420.5,32C 1419.94,31.6174 1419.61,31.1174 1419.5,30.5C 1420.55,28.744 1422.22,28.0773 1424.5,28.5 Z"/></g>
<g><path style="opacity:1" fill="#757575" d="M 1447.5,26.5 C 1447.41,27.4959 1447.75,28.3292 1448.5,29C 1444.68,31.3257 1441.01,33.8257 1437.5,36.5C 1440.55,32.7852 1443.88,29.4518 1447.5,26.5 Z"/></g>
<g><path style="opacity:1" fill="#535353" d="M 1439.5,40.5 C 1444.74,42.2198 1449.74,41.7198 1454.5,39C 1454.98,37.9916 1455.15,36.825 1455,35.5C 1455.72,36.4506 1456.55,36.6172 1457.5,36C 1459.96,31.8865 1461.13,27.3865 1461,22.5C 1463.23,34.4049 1458.39,41.0716 1446.5,42.5C 1443.8,42.6839 1441.46,42.0173 1439.5,40.5 Z"/></g>
<g><path style="opacity:1" fill="#4c4c4c" d="M 1437.5,36.5 C 1437.73,38.0618 1438.4,39.3951 1439.5,40.5C 1437.8,40.3146 1436.47,39.4813 1435.5,38C 1436.04,37.2828 1436.71,36.7828 1437.5,36.5 Z"/></g>
<g><path style="opacity:0.998" fill="#fefefe" d="M 2.5,54.5 C 502.167,54.5 1001.83,54.5 1501.5,54.5C 1501.5,317.833 1501.5,581.167 1501.5,844.5C 1001.83,844.5 502.167,844.5 2.5,844.5C 2.5,581.167 2.5,317.833 2.5,54.5 Z"/></g>
<g><path style="opacity:1" fill="#969696" d="M 172.5,130.5 C 174.199,130.34 175.866,130.506 177.5,131C 176.552,131.483 175.552,131.649 174.5,131.5C 174.5,132.833 174.5,134.167 174.5,135.5C 178.5,135.833 178.5,136.167 174.5,136.5C 174.719,137.675 174.386,138.675 173.5,139.5C 172.516,136.572 172.183,133.572 172.5,130.5 Z"/></g>
<g><path style="opacity:1" fill="#838383" d="M 121.5,130.5 C 122.765,131.514 123.431,133.014 123.5,135C 123.167,136.5 122.833,138 122.5,139.5C 121.516,136.572 121.183,133.572 121.5,130.5 Z"/></g>
<g><path style="opacity:1" fill="#909090" d="M 192.5,138.5 C 191.432,139.434 190.099,139.768 188.5,139.5C 187.157,139.621 186.99,137.288 188,132.5C 189.583,132.493 191.249,132.826 193,133.5C 193.78,135.387 193.613,137.054 192.5,138.5 Z"/></g>
<g><path style="opacity:1" fill="#878787" d="M 202.5,132.5 C 203.707,133.189 205.041,133.355 206.5,133C 204.306,134.553 203.14,136.719 203,139.5C 202.503,137.19 202.337,134.857 202.5,132.5 Z"/></g>
<g><path style="opacity:1" fill="#272727" d="M 102.5,130.5 C 108.989,130.156 110.989,132.99 108.5,139C 106.527,139.495 104.527,139.662 102.5,139.5C 102.5,136.5 102.5,133.5 102.5,130.5 Z"/></g>
<g><path style="opacity:1" fill="#f3f3f3" d="M 103.5,131.5 C 107.976,131.8 109.31,133.967 107.5,138C 106.207,138.49 104.873,138.657 103.5,138.5C 103.5,136.167 103.5,133.833 103.5,131.5 Z"/></g>
<g><path style="opacity:1" fill="#303030" d="M 130.5,136.5 C 134.158,134.63 133.825,133.797 129.5,134C 130.593,132.635 131.926,132.301 133.5,133C 134.423,135.041 134.756,137.208 134.5,139.5C 132.833,139.5 131.167,139.5 129.5,139.5C 129.263,138.209 129.596,137.209 130.5,136.5 Z"/></g>
<g><path style="opacity:1" fill="#f3f3f3" d="M 192.5,138.5 C 189.5,138.833 188.167,137.5 188.5,134.5C 189.833,134.5 191.167,134.5 192.5,134.5C 192.5,135.833 192.5,137.167 192.5,138.5 Z"/></g>
<g><path style="opacity:1" fill="#a1a1a1" d="M 196.5,132.5 C 202.888,134.264 202.888,135.931 196.5,137.5C 197.729,138.281 199.062,138.781 200.5,139C 194.339,139.878 193.006,137.711 196.5,132.5 Z"/></g>
<g><path style="opacity:1" fill="#616161" d="M 115.5,132.5 C 117.167,132.5 118.833,132.5 120.5,132.5C 120.665,135.518 120.498,138.518 120,141.5C 118.186,142.76 116.353,142.76 114.5,141.5C 114.667,141.167 114.833,140.833 115,140.5C 116.183,141.731 117.349,141.731 118.5,140.5C 113.225,139.392 112.225,136.725 115.5,132.5 Z"/></g>
<g><path style="opacity:1" fill="#f5f5f5" d="M 116.5,133.5 C 118.213,134.635 118.88,136.302 118.5,138.5C 117.5,138.5 116.5,138.5 115.5,138.5C 115.366,136.708 115.699,135.042 116.5,133.5 Z"/></g>
<g><path style="opacity:1" fill="#e8e8e8" d="M 130.5,136.5 C 131.675,136.281 132.675,136.614 133.5,137.5C 131.948,138.798 130.948,138.465 130.5,136.5 Z"/></g>
<g><path style="opacity:1" fill="#4e4e4e" d="M 142.5,133.5 C 143.558,134.6 144.392,135.934 145,137.5C 145.29,135.956 145.956,134.623 147,133.5C 147.167,134 147.333,134.5 147.5,135C 146.624,137.836 145.291,140.336 143.5,142.5C 143.167,142.333 142.833,142.167 142.5,142C 143.357,141.311 144.023,140.478 144.5,139.5C 143.253,137.677 142.586,135.677 142.5,133.5 Z"/></g>
<g><path style="opacity:1" fill="#242424" d="M 125.5,131.5 C 126.289,131.783 126.956,132.283 127.5,133C 126.68,135.333 126.347,137.5 126.5,139.5C 125.25,136.728 124.917,134.061 125.5,131.5 Z"/></g>
<g><path style="opacity:1" fill="#9b9b9b" d="M 181.5,132.5 C 182.822,132.33 183.989,132.663 185,133.5C 185.495,135.473 185.662,137.473 185.5,139.5C 183.833,139.5 182.167,139.5 180.5,139.5C 180.22,136.612 181.553,135.112 184.5,135C 183.167,134.667 181.833,134.333 180.5,134C 181.056,133.617 181.389,133.117 181.5,132.5 Z"/></g>
<g><path style="opacity:1" fill="#000000" d="M 112.5,203.5 C 112.5,201.5 112.5,199.5 112.5,197.5C 109.833,197.5 107.167,197.5 104.5,197.5C 104.795,199.735 104.461,201.735 103.5,203.5C 103.334,199.154 103.501,194.821 104,190.5C 104.495,192.473 104.662,194.473 104.5,196.5C 107.167,196.5 109.833,196.5 112.5,196.5C 113.675,191.939 113.675,194.272 112.5,203.5 Z"/></g>
<g><path style="opacity:1" fill="#2d2d2d" d="M 370.5,191.5 C 371.452,192.452 372.452,193.452 373.5,194.5C 370.887,197.418 370.887,200.251 373.5,203C 372.216,203.684 371.049,203.517 370,202.5C 369.73,199.776 369.23,197.109 368.5,194.5C 369.612,193.735 370.279,192.735 370.5,191.5 Z"/></g>
<g><path style="opacity:1" fill="#171717" d="M 382.5,202.5 C 382.736,199.391 382.403,196.391 381.5,193.5C 382.222,193.082 382.722,192.416 383,191.5C 383.645,192.646 384.478,193.646 385.5,194.5C 382.887,197.418 382.887,200.251 385.5,203C 384.251,203.74 383.251,203.573 382.5,202.5 Z"/></g>
<g><path style="opacity:1" fill="#1d1d1d" d="M 405.5,191.5 C 406.452,192.452 407.452,193.452 408.5,194.5C 405.887,197.418 405.887,200.251 408.5,203C 407.552,203.483 406.552,203.649 405.5,203.5C 405.927,200.212 405.26,197.212 403.5,194.5C 404.612,193.735 405.279,192.735 405.5,191.5 Z"/></g>
<g><path style="opacity:1" fill="#181818" d="M 477.5,190.5 C 482.675,189.507 484.509,191.507 483,196.5C 481.667,197.167 480.667,198.167 480,199.5C 479.403,197.076 480.237,195.243 482.5,194C 481.055,190.863 479.222,190.697 477,193.5C 476.53,192.423 476.697,191.423 477.5,190.5 Z"/></g>
<g><path style="opacity:1" fill="#353535" d="M 148.5,193.5 C 152.433,193.805 156.433,194.138 160.5,194.5C 161.748,197.494 161.748,200.494 160.5,203.5C 159.52,200.914 159.187,198.247 159.5,195.5C 158.167,195.5 156.833,195.5 155.5,195.5C 154.833,206.167 154.167,206.167 153.5,195.5C 152.178,195.33 151.011,195.663 150,196.5C 149.667,198.833 149.333,201.167 149,203.5C 148.502,200.183 148.335,196.85 148.5,193.5 Z"/></g>
<g><path style="opacity:1" fill="#3a3a3a" d="M 202.5,193.5 C 206.369,193.943 210.369,194.109 214.5,194C 215.787,197.125 215.787,200.291 214.5,203.5C 213.52,200.914 213.187,198.247 213.5,195.5C 212.178,195.33 211.011,195.663 210,196.5C 208.63,205.542 207.797,205.209 207.5,195.5C 206.178,195.33 205.011,195.663 204,196.5C 203.667,198.833 203.333,201.167 203,203.5C 202.502,200.183 202.335,196.85 202.5,193.5 Z"/></g>
<g><path style="opacity:1" fill="#363636" d="M 164.5,193.5 C 166.388,195.988 167.055,198.988 166.5,202.5C 167.822,202.67 168.989,202.337 170,201.5C 170.182,198.774 170.682,196.107 171.5,193.5C 172.487,196.768 172.82,200.102 172.5,203.5C 169.673,204.974 167.173,204.64 165,202.5C 164.502,199.518 164.335,196.518 164.5,193.5 Z"/></g>
<g><path style="opacity:1" fill="#272727" d="M 229.5,193.5 C 231.746,193.691 234.079,194.024 236.5,194.5C 237.655,197.446 237.821,200.446 237,203.5C 236.667,201.167 236.333,198.833 236,196.5C 234.644,195.62 233.144,195.286 231.5,195.5C 231.813,198.247 231.48,200.914 230.5,203.5C 229.513,200.232 229.18,196.898 229.5,193.5 Z"/></g>
<g><path style="opacity:1" fill="#2c2c2c" d="M 316.5,193.5 C 317.317,195.969 317.817,198.635 318,201.5C 319.333,202.833 320.667,202.833 322,201.5C 322.182,198.774 322.682,196.107 323.5,193.5C 324.833,197.167 324.833,200.833 323.5,204.5C 322.402,203.385 321.235,203.385 320,204.5C 318.739,204.241 317.739,203.574 317,202.5C 316.502,199.518 316.335,196.518 316.5,193.5 Z"/></g>
<g><path style="opacity:1" fill="#0c0c0c" d="M 464.5,202.5 C 464.5,202.833 464.5,203.167 464.5,203.5C 460.259,204.091 458.593,202.258 459.5,198C 459.667,196.5 459.833,195 460,193.5C 460.333,196.167 460.667,198.833 461,201.5C 462.011,202.337 463.178,202.67 464.5,202.5 Z"/></g>
<g><path style="opacity:1" fill="#313131" d="M 177.5,193.5 C 180.022,193.128 182.022,193.961 183.5,196C 181.3,195.416 179.133,195.582 177,196.5C 175.747,202.426 177.58,203.759 182.5,200.5C 183.594,201.868 183.26,203.035 181.5,204C 176.178,204.34 174.011,201.84 175,196.5C 176.045,195.627 176.878,194.627 177.5,193.5 Z"/></g>
<g><path style="opacity:1" fill="#8b8b8b" d="M 381.5,193.5 C 382.403,196.391 382.736,199.391 382.5,202.5C 381.746,199.977 381.08,197.311 380.5,194.5C 380.624,193.893 380.957,193.56 381.5,193.5 Z"/></g>
<g><path style="opacity:1" fill="#373737" d="M 470.5,191.5 C 472.078,192.066 473.412,193.066 474.5,194.5C 471.833,197.5 471.833,200.5 474.5,203.5C 473.132,204.594 471.965,204.26 471,202.5C 470.095,198.745 469.928,195.079 470.5,191.5 Z"/></g>
<g><path style="opacity:1" fill="#262626" d="M 127.5,193.5 C 128.935,195.598 130.102,197.931 131,200.5C 133.387,191.322 135.387,191.655 137,201.5C 137.417,198.578 138.417,195.911 140,193.5C 140.121,197.304 138.954,200.638 136.5,203.5C 135.21,201.343 134.376,199.01 134,196.5C 133.273,199.155 132.106,201.488 130.5,203.5C 128.691,200.407 127.691,197.074 127.5,193.5 Z"/></g>
<g><path style="opacity:1" fill="#878787" d="M 193.5,196.5 C 194.8,199.024 194.8,201.691 193.5,204.5C 192.893,204.376 192.56,204.043 192.5,203.5C 193.468,201.393 193.802,199.059 193.5,196.5 Z"/></g>
<g><path style="opacity:1" fill="#2c2c2c" d="M 358.5,193.5 C 359.937,194.722 361.437,194.722 363,193.5C 364.261,193.759 365.261,194.426 366,195.5C 366.821,198.554 366.655,201.554 365.5,204.5C 364.516,201.572 364.183,198.572 364.5,195.5C 362.856,195.286 361.356,195.62 360,196.5C 359.667,198.833 359.333,201.167 359,203.5C 358.502,200.183 358.335,196.85 358.5,193.5 Z"/></g>
<g><path style="opacity:1" fill="#6e6e6e" d="M 418.5,195.5 C 419.803,198.355 419.803,201.355 418.5,204.5C 417.893,204.376 417.56,204.043 417.5,203.5C 418.473,201.052 418.806,198.385 418.5,195.5 Z"/></g>
<g><path style="opacity:1" fill="#2a2a2a" d="M 193.5,196.5 C 193.802,199.059 193.468,201.393 192.5,203.5C 192.768,200.881 192.435,198.381 191.5,196C 190.216,195.316 189.049,195.483 188,196.5C 187.069,206.121 186.235,206.454 185.5,197.5C 185.833,195.167 186.167,192.833 186.5,190.5C 187.281,191.729 187.781,193.062 188,194.5C 190.811,192.82 192.644,193.487 193.5,196.5 Z"/></g>
<g><path style="opacity:1" fill="#292929" d="M 220.5,193.5 C 227.985,194.593 229.318,198.093 224.5,204C 222.299,204.825 220.466,204.325 219,202.5C 218.068,199.177 218.568,196.177 220.5,193.5 Z"/></g>
<g><path style="opacity:1" fill="#f2f2f2" d="M 220.5,195.5 C 225.328,195.385 226.661,197.552 224.5,202C 219.57,202.427 218.237,200.26 220.5,195.5 Z"/></g>
<g><path style="opacity:1" fill="#303030" d="M 280.5,193.5 C 286.157,193.324 288.324,195.991 287,201.5C 284.633,204.932 281.966,205.265 279,202.5C 278.068,199.177 278.568,196.177 280.5,193.5 Z"/></g>
<g><path style="opacity:1" fill="#f1f1f1" d="M 280.5,195.5 C 285.328,195.385 286.661,197.552 284.5,202C 282.888,202.72 281.388,202.554 280,201.5C 279.51,199.455 279.677,197.455 280.5,195.5 Z"/></g>
<g><path style="opacity:1" fill="#343434" d="M 433.5,193.5 C 438.017,193.02 440.35,195.02 440.5,199.5C 437.813,199.336 435.146,199.503 432.5,200C 433.226,201.397 434.393,202.231 436,202.5C 437.446,201.921 438.613,201.921 439.5,202.5C 434.566,205.925 431.899,204.591 431.5,198.5C 431.437,196.486 432.103,194.819 433.5,193.5 Z"/></g>
<g><path style="opacity:1" fill="#f8f8f8" d="M 433.5,195.5 C 435.429,195.231 437.095,195.731 438.5,197C 437.667,197.167 436.833,197.333 436,197.5C 434.624,197.316 433.791,196.649 433.5,195.5 Z"/></g>
<g><path style="opacity:1" fill="#939393" d="M 112.5,203.5 C 111.549,202.081 111.216,200.415 111.5,198.5C 109.5,198.5 107.5,198.5 105.5,198.5C 105.799,200.604 105.466,202.604 104.5,204.5C 103.893,204.376 103.56,204.043 103.5,203.5C 104.461,201.735 104.795,199.735 104.5,197.5C 107.167,197.5 109.833,197.5 112.5,197.5C 112.5,199.5 112.5,201.5 112.5,203.5 Z"/></g>
<g><path style="opacity:1" fill="#393939" d="M 242.5,193.5 C 247.017,193.02 249.35,195.02 249.5,199.5C 246.753,199.187 244.086,199.52 241.5,200.5C 241.709,201.086 242.043,201.586 242.5,202C 244.761,202.239 246.761,202.406 248.5,202.5C 243.826,205.834 241.159,204.667 240.5,199C 240.395,196.822 241.061,194.988 242.5,193.5 Z"/></g>
<g><path style="opacity:1" fill="#fafafa" d="M 242.5,195.5 C 244.429,195.231 246.095,195.731 247.5,197C 246.667,197.167 245.833,197.333 245,197.5C 243.624,197.316 242.791,196.649 242.5,195.5 Z"/></g>
<g><path style="opacity:1" fill="#313131" d="M 307.5,193.5 C 313.156,193.867 314.989,196.867 313,202.5C 310.034,205.265 307.367,204.932 305,201.5C 304.018,198.225 304.851,195.559 307.5,193.5 Z"/></g>
<g><path style="opacity:1" fill="#f3f3f3" d="M 307.5,195.5 C 311.677,194.842 313.177,196.508 312,200.5C 310.688,202.658 309.022,202.991 307,201.5C 306.322,199.402 306.489,197.402 307.5,195.5 Z"/></g>
<g><path style="opacity:1" fill="#2d2d2d" d="M 348.5,202.5 C 347.427,201.749 347.26,200.749 348,199.5C 349.78,198.406 351.614,197.406 353.5,196.5C 351.424,195.9 349.424,195.567 347.5,195.5C 352.86,192.016 355.527,193.516 355.5,200C 355.167,201.5 354.833,203 354.5,204.5C 353.289,203.61 351.955,203.61 350.5,204.5C 349.287,204.253 348.62,203.586 348.5,202.5 Z"/></g>
<g><path style="opacity:1" fill="#373737" d="M 421.5,190.5 C 423.22,192.658 424.053,195.325 424,198.5C 425.685,196.983 427.185,195.316 428.5,193.5C 428.833,193.833 429.167,194.167 429.5,194.5C 428.5,195.833 427.5,197.167 426.5,198.5C 430.232,204.637 429.565,204.97 424.5,199.5C 423.833,200.833 423.167,202.167 422.5,203.5C 421.508,199.217 421.174,194.884 421.5,190.5 Z"/></g>
<g><path style="opacity:1" fill="#e3e3e3" d="M 348.5,202.5 C 349.048,199.916 350.715,198.916 353.5,199.5C 353.5,200.5 353.5,201.5 353.5,202.5C 351.833,202.5 350.167,202.5 348.5,202.5 Z"/></g>
<g><path style="opacity:1" fill="#2f2f2f" d="M 390.5,193.5 C 396.156,193.867 397.989,196.867 396,202.5C 393.034,205.265 390.367,204.932 388,201.5C 387.018,198.225 387.851,195.559 390.5,193.5 Z"/></g>
<g><path style="opacity:1" fill="#f0f0f0" d="M 390.5,195.5 C 395.328,195.385 396.661,197.552 394.5,202C 389.57,202.427 388.237,200.26 390.5,195.5 Z"/></g>
<g><path style="opacity:1" fill="#2d2d2d" d="M 418.5,195.5 C 418.806,198.385 418.473,201.052 417.5,203.5C 412.199,205.532 410.532,203.866 412.5,198.5C 414.225,197.985 415.892,197.318 417.5,196.5C 415.424,195.9 413.424,195.567 411.5,195.5C 412.171,194.054 413.338,193.388 415,193.5C 416.699,193.387 417.866,194.053 418.5,195.5 Z"/></g>
<g><path style="opacity:1" fill="#f5f5f5" d="M 413.5,199.5 C 418.276,199.671 418.609,200.671 414.5,202.5C 412.197,202.124 411.863,201.124 413.5,199.5 Z"/></g>
<g><path style="opacity:1" fill="#2b2b2b" d="M 332.5,193.5 C 333.792,195.255 334.792,197.255 335.5,199.5C 338.26,191.599 340.426,191.932 342,200.5C 342.376,197.99 343.21,195.657 344.5,193.5C 344.833,193.833 345.167,194.167 345.5,194.5C 344.366,197.07 343.532,199.736 343,202.5C 342.586,202.957 342.086,203.291 341.5,203.5C 340.21,201.343 339.376,199.01 339,196.5C 338.115,199 336.948,201.333 335.5,203.5C 333.338,200.511 332.338,197.177 332.5,193.5 Z"/></g>
<g><path style="opacity:1" fill="#323232" d="M 118.5,193.5 C 124.157,193.324 126.324,195.991 125,201.5C 122.192,205.386 119.526,205.386 117,201.5C 116.109,198.502 116.609,195.836 118.5,193.5 Z"/></g>
<g><path style="opacity:1" fill="#efefef" d="M 118.5,195.5 C 123.328,195.385 124.661,197.552 122.5,202C 117.81,202.141 116.477,199.975 118.5,195.5 Z"/></g>
<g><path style="opacity:1" fill="#242424" d="M 250.5,193.5 C 251.376,193.369 252.043,193.702 252.5,194.5C 253.432,196.795 254.265,199.129 255,201.5C 256.072,198.782 257.238,196.115 258.5,193.5C 258.833,193.833 259.167,194.167 259.5,194.5C 257.782,199.269 255.616,203.603 253,207.5C 252.5,207.333 252,207.167 251.5,207C 252.833,206.333 253.833,205.333 254.5,204C 252.938,200.587 251.605,197.087 250.5,193.5 Z"/></g>
<g><path style="opacity:1" fill="#2a2a2a" d="M 294.5,193.5 C 295.497,193.47 296.164,193.97 296.5,195C 297.137,197.245 297.97,199.412 299,201.5C 299.735,199.129 300.568,196.795 301.5,194.5C 302.167,193.167 302.833,193.167 303.5,194.5C 301.986,199.242 299.819,203.575 297,207.5C 296.5,207.333 296,207.167 295.5,207C 296.624,206.161 297.291,204.994 297.5,203.5C 296.492,200.155 295.492,196.822 294.5,193.5 Z"/></g>
<g><path style="opacity:1" fill="#343434" d="M 464.5,203.5 C 464.5,203.167 464.5,202.833 464.5,202.5C 465.084,199.527 465.751,196.527 466.5,193.5C 467.833,197.167 467.833,200.833 466.5,204.5C 465.817,204.137 465.15,203.804 464.5,203.5 Z"/></g>
<g><path style="opacity:1" fill="#303030" d="M 273.5,190.5 C 275.43,194.373 276.097,198.706 275.5,203.5C 270.343,205.979 267.343,204.479 266.5,199C 266.612,194.197 268.779,192.697 273,194.5C 273.49,193.207 273.657,191.873 273.5,190.5 Z"/></g>
<g><path style="opacity:1" fill="#f7f7f7" d="M 268.5,195.5 C 270.167,195.5 271.833,195.5 273.5,195.5C 273.662,197.527 273.495,199.527 273,201.5C 271.667,202.833 270.333,202.833 269,201.5C 268.505,199.527 268.338,197.527 268.5,195.5 Z"/></g>
<g><path style="opacity:1" fill="#313131" d="M 450.5,193.5 C 455.85,194.184 457.684,197.184 456,202.5C 451.43,205.633 448.597,204.466 447.5,199C 447.613,196.601 448.613,194.768 450.5,193.5 Z"/></g>
<g><path style="opacity:1" fill="#f1f1f1" d="M 450.5,195.5 C 453.233,195.196 454.899,196.363 455.5,199C 454.658,202.173 452.825,203.006 450,201.5C 449.322,199.402 449.489,197.402 450.5,195.5 Z"/></g>
<g><path style="opacity:1" fill="#262626" d="M 478.5,201.5 C 480.337,201.639 480.67,202.306 479.5,203.5C 478.702,203.043 478.369,202.376 478.5,201.5 Z"/></g>
<g><path style="opacity:1" fill="#090909" d="M 118.5,270.5 C 118.56,271.043 118.893,271.376 119.5,271.5C 120.812,266.682 120.812,262.015 119.5,257.5C 108.135,255.67 103.968,249.337 107,238.5C 110.494,234.161 114.994,231.828 120.5,231.5C 120.5,229.833 120.5,228.167 120.5,226.5C 121.5,226.5 122.5,226.5 123.5,226.5C 123.5,228.167 123.5,229.833 123.5,231.5C 131.966,231.973 136.966,236.306 138.5,244.5C 134.17,245.268 130.837,243.935 128.5,240.5C 127.167,239.833 125.833,239.167 124.5,238.5C 123.508,242.783 123.174,247.116 123.5,251.5C 131.883,252.227 137.216,256.56 139.5,264.5C 138.259,273.736 132.926,278.403 123.5,278.5C 123.5,280.167 123.5,281.833 123.5,283.5C 122.5,283.5 121.5,283.5 120.5,283.5C 120.5,281.833 120.5,280.167 120.5,278.5C 111.064,278.391 105.73,273.724 104.5,264.5C 109.087,263.622 112.42,265.122 114.5,269C 115.745,269.791 117.078,270.291 118.5,270.5 Z"/></g>
<g><path style="opacity:1" fill="#989898" d="M 239.5,232.5 C 236.615,232.194 233.948,232.527 231.5,233.5C 230.957,233.44 230.624,233.107 230.5,232.5C 233.645,231.197 236.645,231.197 239.5,232.5 Z"/></g>
<g><path style="opacity:1" fill="#9c9c9c" d="M 260.5,232.5 C 263.355,231.197 266.355,231.197 269.5,232.5C 269.376,233.107 269.043,233.44 268.5,233.5C 266.052,232.527 263.385,232.194 260.5,232.5 Z"/></g>
<g><path style="opacity:1" fill="#080808" d="M 144.5,233.5 C 147.304,232.362 150.304,232.195 153.5,233C 156.958,238.082 160.291,243.248 163.5,248.5C 167.03,243.468 170.364,238.301 173.5,233C 176.5,232.333 179.5,232.333 182.5,233C 177.908,240.185 173.575,247.518 169.5,255C 173.952,262.067 178.286,269.234 182.5,276.5C 179.554,277.655 176.554,277.821 173.5,277C 170.541,271.578 167.207,266.412 163.5,261.5C 159.97,266.532 156.636,271.699 153.5,277C 150.446,277.821 147.446,277.655 144.5,276.5C 149.353,269.459 153.686,262.125 157.5,254.5C 153.538,247.219 149.205,240.219 144.5,233.5 Z"/></g>
<g><path style="opacity:1" fill="#080808" d="M 187.5,233.5 C 190.687,232.194 194.02,232.194 197.5,233.5C 200.248,238.666 203.248,243.666 206.5,248.5C 210.194,243.625 213.527,238.458 216.5,233C 219.554,232.179 222.554,232.345 225.5,233.5C 220.783,240.434 216.45,247.6 212.5,255C 216.911,262.486 221.577,269.819 226.5,277C 223.118,277.824 219.784,277.657 216.5,276.5C 213.402,271.291 210.068,266.291 206.5,261.5C 203.291,266.752 199.958,271.918 196.5,277C 193.5,277.667 190.5,277.667 187.5,277C 191.917,269.497 196.584,262.164 201.5,255C 196.97,247.658 192.304,240.491 187.5,233.5 Z"/></g>
<g><path style="opacity:1" fill="#080808" d="M 239.5,232.5 C 243.137,237.658 246.637,242.991 250,248.5C 253.363,242.991 256.863,237.658 260.5,232.5C 263.385,232.194 266.052,232.527 268.5,233.5C 264.428,240.64 260.095,247.64 255.5,254.5C 259.969,262.133 264.635,269.633 269.5,277C 266.118,277.824 262.784,277.657 259.5,276.5C 256.833,271.162 253.666,266.162 250,261.5C 246.376,266.58 242.876,271.747 239.5,277C 236.5,277.667 233.5,277.667 230.5,277C 235.365,269.633 240.031,262.133 244.5,254.5C 239.905,247.64 235.572,240.64 231.5,233.5C 233.948,232.527 236.615,232.194 239.5,232.5 Z"/></g>
<g><path style="opacity:1" fill="#dedede" d="M 117.5,238.5 C 118.5,238.5 119.5,238.5 120.5,238.5C 120.824,242.555 120.491,246.555 119.5,250.5C 112.391,247.422 111.725,243.422 117.5,238.5 Z"/></g>
<g><path style="opacity:1" fill="#969696" d="M 119.5,257.5 C 120.812,262.015 120.812,266.682 119.5,271.5C 118.893,271.376 118.56,271.043 118.5,270.5C 119.485,266.366 119.818,262.032 119.5,257.5 Z"/></g>
<g><path style="opacity:1" fill="#e9e9e9" d="M 123.5,258.5 C 129.621,259.413 131.621,262.746 129.5,268.5C 127.999,269.752 126.332,270.752 124.5,271.5C 123.508,267.217 123.174,262.884 123.5,258.5 Z"/></g>
<g><path style="opacity:1" fill="#3f403f" d="M 125.5,348.5 C 126.8,350.223 127.467,352.39 127.5,355C 127.167,357.167 126.833,359.333 126.5,361.5C 125.508,357.217 125.174,352.884 125.5,348.5 Z"/></g>
<g><path style="opacity:1" fill="#535353" d="M 316.5,348.5 C 317.8,350.223 318.467,352.39 318.5,355C 318.167,357.167 317.833,359.333 317.5,361.5C 316.508,357.217 316.174,352.884 316.5,348.5 Z"/></g>
<g><path style="opacity:1" fill="#101010" d="M 155.5,351.5 C 153.366,354.346 153.033,357.346 154.5,360.5C 155.067,361.42 154.401,361.754 152.5,361.5C 153.011,357.97 152.344,354.804 150.5,352C 151.667,351.5 152.5,350.667 153,349.5C 153.417,350.756 154.25,351.423 155.5,351.5 Z"/></g>
<g><path style="opacity:1" fill="#191919" d="M 167.5,351.5 C 166.011,354.704 165.011,358.037 164.5,361.5C 165.011,357.97 164.344,354.804 162.5,352C 163.833,350.267 165.333,348.767 167,347.5C 167.5,347.833 168,348.167 168.5,348.5C 167.833,349.167 167.167,349.833 166.5,350.5C 166.624,351.107 166.957,351.44 167.5,351.5 Z"/></g>
<g><path style="opacity:1" fill="#101010" d="M 273.5,360.5 C 274.036,357.302 273.369,354.635 271.5,352.5C 272.646,348.759 274.313,348.592 276.5,352C 275.316,353.18 274.649,354.68 274.5,356.5C 274.649,358.32 275.316,359.82 276.5,361C 275.251,361.74 274.251,361.573 273.5,360.5 Z"/></g>
<g><path style="opacity:1" fill="#222222" d="M 104.5,348.5 C 106.527,348.338 108.527,348.505 110.5,349C 111.451,349.718 111.617,350.551 111,351.5C 108.464,348.687 106.297,348.854 104.5,352C 106.723,353.864 109.223,355.364 112,356.5C 112.017,360.812 109.85,362.645 105.5,362C 103.096,361.492 102.429,360.325 103.5,358.5C 106.237,361.303 108.571,361.136 110.5,358C 108.277,356.136 105.777,354.636 103,353.5C 102.387,351.505 102.887,349.838 104.5,348.5 Z"/></g>
<g><path style="opacity:1" fill="#2c2c2c" d="M 170.5,351.5 C 171.802,352.807 173.135,352.807 174.5,351.5C 174.833,351.833 175.167,352.167 175.5,352.5C 174.675,353.386 173.675,353.719 172.5,353.5C 172.813,356.247 172.48,358.914 171.5,361.5C 170.513,358.232 170.18,354.898 170.5,351.5 Z"/></g>
<g><path style="opacity:1" fill="#5e5e5e" d="M 211.5,352.5 C 210.515,356.634 210.182,360.968 210.5,365.5C 209.188,360.985 209.188,356.318 210.5,351.5C 211.107,351.624 211.44,351.957 211.5,352.5 Z"/></g>
<g><path style="opacity:1" fill="#1b1b1b" d="M 221.5,351.5 C 223.205,352.088 224.872,352.421 226.5,352.5C 225.372,353.262 224.205,353.929 223,354.5C 222.667,356.833 222.333,359.167 222,361.5C 221.502,358.183 221.335,354.85 221.5,351.5 Z"/></g>
<g><path style="opacity:1" fill="#303030" d="M 245.5,348.5 C 246.8,350.223 247.467,352.39 247.5,355C 247.333,357.167 247.167,359.333 247,361.5C 246.667,361.167 246.333,360.833 246,360.5C 241.999,363.234 239.499,362.067 238.5,357C 238.912,352.788 241.246,350.954 245.5,351.5C 245.5,350.5 245.5,349.5 245.5,348.5 Z"/></g>
<g><path style="opacity:1" fill="#030303" d="M 258.5,351.5 C 258.665,354.85 258.498,358.183 258,361.5C 257.617,360.944 257.117,360.611 256.5,360.5C 257.088,357.39 257.755,354.39 258.5,351.5 Z"/></g>
<g><path style="opacity:1" fill="#252525" d="M 331.5,351.5 C 333.311,353.385 334.478,355.719 335,358.5C 337,349.167 339,349.167 341,358.5C 341.853,356.065 342.853,353.731 344,351.5C 344.12,355.022 343.286,358.355 341.5,361.5C 339.683,359.584 338.516,357.251 338,354.5C 337.484,357.251 336.317,359.584 334.5,361.5C 332.909,358.325 331.909,354.991 331.5,351.5 Z"/></g>
<g><path style="opacity:1" fill="#969696" d="M 155.5,351.5 C 156.043,351.56 156.376,351.893 156.5,352.5C 154.777,354.868 154.11,357.534 154.5,360.5C 153.033,357.346 153.366,354.346 155.5,351.5 Z"/></g>
<g><path style="opacity:1" fill="#9e9e9e" d="M 167.5,351.5 C 168.043,351.56 168.376,351.893 168.5,352.5C 167.022,355.632 166.022,358.965 165.5,362.5C 164.893,362.376 164.56,362.043 164.5,361.5C 165.011,358.037 166.011,354.704 167.5,351.5 Z"/></g>
<g><path style="opacity:1" fill="#1e1e1e" d="M 188.5,351.5 C 192.369,351.943 196.369,352.109 200.5,352C 201.617,355.073 201.784,358.24 201,361.5C 200.503,358.854 200.336,356.187 200.5,353.5C 198.856,353.286 197.356,353.62 196,354.5C 195.667,356.833 195.333,359.167 195,361.5C 194.503,358.854 194.336,356.187 194.5,353.5C 192.856,353.286 191.356,353.62 190,354.5C 189.667,356.833 189.333,359.167 189,361.5C 188.502,358.183 188.335,354.85 188.5,351.5 Z"/></g>
<g><path style="opacity:1" fill="#efefef" d="M 241.5,353.5 C 246.747,353.64 247.747,355.806 244.5,360C 243.216,360.684 242.049,360.517 241,359.5C 240.322,357.402 240.489,355.402 241.5,353.5 Z"/></g>
<g><path style="opacity:1" fill="#5d5d5d" d="M 271.5,352.5 C 273.369,354.635 274.036,357.302 273.5,360.5C 272.745,357.947 272.078,355.28 271.5,352.5 Z"/></g>
<g><path style="opacity:1" fill="#2e2e2e" d="M 280.5,351.5 C 282.665,351.116 284.332,351.783 285.5,353.5C 285.333,353.833 285.167,354.167 285,354.5C 283.388,351.921 281.888,351.921 280.5,354.5C 281.991,356.012 283.824,357.012 286,357.5C 286.339,361.487 284.506,362.987 280.5,362C 279.833,361.333 279.167,360.667 278.5,360C 280.527,360.498 282.527,360.331 284.5,359.5C 282.78,358.08 280.946,356.747 279,355.5C 278.7,353.934 279.2,352.601 280.5,351.5 Z"/></g>
<g><path style="opacity:1" fill="#272727" d="M 229.5,351.5 C 235.997,351.18 238.164,354.18 236,360.5C 232.949,363.374 230.282,363.041 228,359.5C 227.282,356.593 227.782,353.926 229.5,351.5 Z"/></g>
<g><path style="opacity:1" fill="#ececec" d="M 229.5,353.5 C 234.894,352.554 236.561,354.554 234.5,359.5C 232.994,360.747 231.494,360.747 230,359.5C 229.505,357.527 229.338,355.527 229.5,353.5 Z"/></g>
<g><path style="opacity:1" fill="#2c2c2c" d="M 116.5,351.5 C 121.017,351.02 123.35,353.02 123.5,357.5C 121.076,357.192 118.743,357.526 116.5,358.5C 116.709,359.086 117.043,359.586 117.5,360C 119.424,360.179 121.091,360.346 122.5,360.5C 117.843,363.505 115.176,362.172 114.5,356.5C 114.437,354.486 115.103,352.819 116.5,351.5 Z"/></g>
<g><path style="opacity:1" fill="#efefef" d="M 116.5,353.5 C 118.288,353.215 119.955,353.548 121.5,354.5C 120.667,354.833 119.833,355.167 119,355.5C 117.624,355.316 116.791,354.649 116.5,353.5 Z"/></g>
<g><path style="opacity:1" fill="#2f2f2f" d="M 132.5,351.5 C 136.833,351.167 138.833,353.167 138.5,357.5C 136.076,357.192 133.743,357.526 131.5,358.5C 132,359.881 133,360.547 134.5,360.5C 138.22,358.825 138.886,359.325 136.5,362C 132.541,362.718 130.208,361.051 129.5,357C 129.863,354.808 130.863,352.974 132.5,351.5 Z"/></g>
<g><path style="opacity:1" fill="#fbfbfb" d="M 132.5,353.5 C 133.978,353.238 135.311,353.571 136.5,354.5C 134.926,355.631 133.259,355.798 131.5,355C 132.056,354.617 132.389,354.117 132.5,353.5 Z"/></g>
<g><path style="opacity:1" fill="#353535" d="M 306.5,359.5 C 304.199,353.468 306.199,351.135 312.5,352.5C 313.95,353.85 314.617,355.516 314.5,357.5C 311.302,356.964 308.635,357.631 306.5,359.5 Z"/></g>
<g><path style="opacity:1" fill="#f8f8f8" d="M 307.5,353.5 C 309.429,353.231 311.095,353.731 312.5,355C 311.667,355.167 310.833,355.333 310,355.5C 308.624,355.316 307.791,354.649 307.5,353.5 Z"/></g>
<g><path style="opacity:1" fill="#313131" d="M 178.5,351.5 C 184.997,351.18 187.164,354.18 185,360.5C 181.949,363.374 179.282,363.041 177,359.5C 176.282,356.593 176.782,353.926 178.5,351.5 Z"/></g>
<g><path style="opacity:1" fill="#efefef" d="M 179.5,353.5 C 184.328,353.385 185.661,355.552 183.5,360C 178.57,360.427 177.237,358.26 179.5,353.5 Z"/></g>
<g><path style="opacity:1" fill="#2e2e2e" d="M 256.5,360.5 C 255.432,361.434 254.099,361.768 252.5,361.5C 251.883,361.389 251.383,361.056 251,360.5C 250.179,357.446 250.345,354.446 251.5,351.5C 252.318,354.107 252.818,356.774 253,359.5C 254.011,360.337 255.178,360.67 256.5,360.5 Z"/></g>
<g><path style="opacity:1" fill="#343434" d="M 142.5,351.5 C 145.346,351.03 147.679,351.863 149.5,354C 147.3,353.416 145.133,353.582 143,354.5C 141.747,360.426 143.58,361.759 148.5,358.5C 148.833,358.833 149.167,359.167 149.5,359.5C 144.923,363.976 141.923,362.976 140.5,356.5C 141.187,354.823 141.854,353.156 142.5,351.5 Z"/></g>
<g><path style="opacity:1" fill="#242424" d="M 212.5,360.5 C 211.833,362.167 211.167,363.833 210.5,365.5C 210.182,360.968 210.515,356.634 211.5,352.5C 216.011,350.502 218.344,352.002 218.5,357C 218.876,360.119 217.542,361.952 214.5,362.5C 213.287,362.253 212.62,361.586 212.5,360.5 Z"/></g>
<g><path style="opacity:1" fill="#ededed" d="M 212.5,360.5 C 210.237,355.74 211.57,353.573 216.5,354C 218.661,358.448 217.328,360.615 212.5,360.5 Z"/></g>
<g><path style="opacity:1" fill="#2e2e2e" d="M 263.5,351.5 C 265.827,351.247 267.827,351.914 269.5,353.5C 267.674,353.92 265.674,353.92 263.5,353.5C 263.5,355.833 263.5,358.167 263.5,360.5C 265.722,360.822 267.556,360.155 269,358.5C 268.223,362.814 266.056,363.481 262.5,360.5C 260.992,357.231 261.325,354.231 263.5,351.5 Z"/></g>
<g><path style="opacity:1" fill="#212121" d="M 296.5,360.5 C 295.883,360.611 295.383,360.944 295,361.5C 294.333,357.167 294.333,352.833 295,348.5C 295.219,349.938 295.719,351.271 296.5,352.5C 300.429,351.233 302.762,352.733 303.5,357C 302.607,361.265 300.274,362.432 296.5,360.5 Z"/></g>
<g><path style="opacity:1" fill="#eeeeee" d="M 296.5,360.5 C 295.677,358.545 295.51,356.545 296,354.5C 300.846,352.677 302.512,354.344 301,359.5C 299.644,360.38 298.144,360.714 296.5,360.5 Z"/></g>
<g><path style="opacity:1" fill="#353535" d="M 306.5,359.5 C 309.001,360.387 311.334,360.72 313.5,360.5C 310.435,363.473 308.102,363.14 306.5,359.5 Z"/></g>
<g><path style="opacity:1" fill="#2e2e2e" d="M 322.5,351.5 C 328.499,351.002 330.666,353.669 329,359.5C 326.333,363.5 323.667,363.5 321,359.5C 320.282,356.593 320.782,353.926 322.5,351.5 Z"/></g>
<g><path style="opacity:1" fill="#eeeeee" d="M 322.5,353.5 C 327.52,352.905 329.186,354.905 327.5,359.5C 325.994,360.747 324.494,360.747 323,359.5C 322.505,357.527 322.338,355.527 322.5,353.5 Z"/></g>
<g><path style="opacity:1" fill="#b3b3b3" d="M 258.5,351.5 C 259.482,354.962 259.815,358.629 259.5,362.5C 256.941,362.802 254.607,362.468 252.5,361.5C 254.099,361.768 255.432,361.434 256.5,360.5C 257.117,360.611 257.617,360.944 258,361.5C 258.498,358.183 258.665,354.85 258.5,351.5 Z"/></g>
<g><path style="opacity:1" fill="#1c1c1c" d="M 101.5,385.5 C 239.833,385.5 378.167,385.5 516.5,385.5C 516.5,473.167 516.5,560.833 516.5,648.5C 378.167,648.5 239.833,648.5 101.5,648.5C 101.5,560.833 101.5,473.167 101.5,385.5 Z"/></g>
<g><path style="opacity:1" fill="#515151" d="M 101.5,385.5 C 239.999,384.5 378.666,384.167 517.5,384.5C 517.5,472.833 517.5,561.167 517.5,649.5C 378.666,649.833 239.999,649.5 101.5,648.5C 239.833,648.5 378.167,648.5 516.5,648.5C 516.5,560.833 516.5,473.167 516.5,385.5C 378.167,385.5 239.833,385.5 101.5,385.5 Z"/></g>
<g><path style="opacity:1" fill="#171717" d="M 542.5,385.5 C 681.167,385.5 819.833,385.5 958.5,385.5C 958.5,473.167 958.5,560.833 958.5,648.5C 819.833,648.5 681.167,648.5 542.5,648.5C 542.5,560.833 542.5,473.167 542.5,385.5 Z"/></g>
<g><path style="opacity:1" fill="#6e6e6e" d="M 542.5,385.5 C 681.332,384.5 820.332,384.167 959.5,384.5C 959.5,472.833 959.5,561.167 959.5,649.5C 820.332,649.833 681.332,649.5 542.5,648.5C 681.167,648.5 819.833,648.5 958.5,648.5C 958.5,560.833 958.5,473.167 958.5,385.5C 819.833,385.5 681.167,385.5 542.5,385.5 Z"/></g>
<g><path style="opacity:1" fill="#767676" d="M 983.5,384.5 C 1122.5,384.5 1261.5,384.5 1400.5,384.5C 1400.5,472.833 1400.5,561.167 1400.5,649.5C 1261.5,649.5 1122.5,649.5 983.5,649.5C 983.5,561.167 983.5,472.833 983.5,384.5 Z"/></g>
<g><path style="opacity:1" fill="#171717" d="M 984.5,385.5 C 1122.83,385.5 1261.17,385.5 1399.5,385.5C 1399.5,473.167 1399.5,560.833 1399.5,648.5C 1261.17,648.5 1122.83,648.5 984.5,648.5C 984.5,560.833 984.5,473.167 984.5,385.5 Z"/></g>
<g><path style="opacity:1" fill="#fefefe" d="M 103.5,387.5 C 240.5,387.5 377.5,387.5 514.5,387.5C 514.5,473.833 514.5,560.167 514.5,646.5C 377.5,646.5 240.5,646.5 103.5,646.5C 103.5,560.167 103.5,473.833 103.5,387.5 Z"/></g>
<g><path style="opacity:1" fill="#fefefe" d="M 544.5,387.5 C 681.833,387.5 819.167,387.5 956.5,387.5C 956.5,473.833 956.5,560.167 956.5,646.5C 819.167,646.5 681.833,646.5 544.5,646.5C 544.5,560.167 544.5,473.833 544.5,387.5 Z"/></g>
<g><path style="opacity:1" fill="#fefefe" d="M 986.5,387.5 C 1123.5,387.5 1260.5,387.5 1397.5,387.5C 1397.5,473.833 1397.5,560.167 1397.5,646.5C 1260.5,646.5 1123.5,646.5 986.5,646.5C 986.5,560.167 986.5,473.833 986.5,387.5 Z"/></g>
<g><path style="opacity:1" fill="#828282" d="M 169.5,415.5 C 170.812,420.015 170.812,424.682 169.5,429.5C 168.893,429.376 168.56,429.043 168.5,428.5C 169.485,424.366 169.818,420.032 169.5,415.5 Z"/></g>
<g><path style="opacity:1" fill="#868686" d="M 571.5,415.5 C 572.5,415.5 573.5,415.5 574.5,415.5C 574.5,420.167 574.5,424.833 574.5,429.5C 573.5,429.5 572.5,429.5 571.5,429.5C 571.5,424.833 571.5,420.167 571.5,415.5 Z"/></g>
<g><path style="opacity:1" fill="#222222" d="M 1017.5,415.5 C 1019.86,415.337 1022.19,415.503 1024.5,416C 1027.07,418.615 1027.07,421.282 1024.5,424C 1025.76,425.337 1026.26,426.837 1026,428.5C 1024.47,427.271 1023.3,425.771 1022.5,424C 1021.55,423.517 1020.55,423.351 1019.5,423.5C 1019.8,425.604 1019.47,427.604 1018.5,429.5C 1017.51,424.88 1017.17,420.214 1017.5,415.5 Z"/></g>
<g><path style="opacity:1" fill="#303030" d="M 1040.5,416.5 C 1042.08,417.066 1043.41,418.066 1044.5,419.5C 1041.83,422.5 1041.83,425.5 1044.5,428.5C 1043.13,429.594 1041.97,429.26 1041,427.5C 1040.09,423.745 1039.93,420.079 1040.5,416.5 Z"/></g>
<g><path style="opacity:1" fill="#303030" d="M 1107.5,416.5 C 1109.08,417.066 1110.41,418.066 1111.5,419.5C 1108.83,422.5 1108.83,425.5 1111.5,428.5C 1110.13,429.594 1108.97,429.26 1108,427.5C 1107.09,423.745 1106.93,420.079 1107.5,416.5 Z"/></g>
<g><path style="opacity:1" fill="#2a2a2a" d="M 578.5,415.5 C 580.792,415.244 582.959,415.577 585,416.5C 585.667,417.167 585.667,417.833 585,418.5C 582.464,415.687 580.297,415.854 578.5,419C 578.645,419.772 578.978,420.439 579.5,421C 582.934,421.036 585.267,422.536 586.5,425.5C 584.252,429.851 581.086,430.518 577,427.5C 576.312,426.668 576.479,426.002 577.5,425.5C 579.523,427.173 581.856,427.84 584.5,427.5C 584.67,426.178 584.337,425.011 583.5,424C 577.432,423.19 575.765,420.357 578.5,415.5 Z"/></g>
<g><path style="opacity:1" fill="#eaeaea" d="M 1019.5,417.5 C 1021.2,417.34 1022.87,417.506 1024.5,418C 1025.83,419.333 1025.83,420.667 1024.5,422C 1022.87,422.494 1021.2,422.66 1019.5,422.5C 1019.5,420.833 1019.5,419.167 1019.5,417.5 Z"/></g>
<g><path style="opacity:1" fill="#282828" d="M 158.5,428.5 C 157.833,426.167 157.167,423.833 156.5,421.5C 155.167,420.167 153.833,420.167 152.5,421.5C 151.833,423.833 151.167,426.167 150.5,428.5C 150.18,425.102 150.513,421.768 151.5,418.5C 152.598,419.615 153.765,419.615 155,418.5C 156.261,418.759 157.261,419.426 158,420.5C 158.497,423.146 158.664,425.813 158.5,428.5 Z"/></g>
<g><path style="opacity:1" fill="#101010" d="M 1053.5,421.5 C 1052.83,423.833 1052.17,426.167 1051.5,428.5C 1051.5,425.5 1051.5,422.5 1051.5,419.5C 1052.93,419.579 1054.26,419.246 1055.5,418.5C 1055.83,418.833 1056.17,419.167 1056.5,419.5C 1055.4,420.176 1054.4,420.842 1053.5,421.5 Z"/></g>
<g><path style="opacity:1" fill="#242424" d="M 169.5,415.5 C 169.818,420.032 169.485,424.366 168.5,428.5C 162.063,429.875 159.896,427.209 162,420.5C 163.523,418.38 165.356,418.047 167.5,419.5C 168.172,418.051 168.839,416.718 169.5,415.5 Z"/></g>
<g><path style="opacity:1" fill="#ededed" d="M 163.5,420.5 C 168.328,420.385 169.661,422.552 167.5,427C 162.57,427.427 161.237,425.26 163.5,420.5 Z"/></g>
<g><path style="opacity:1" fill="#1c1c1c" d="M 1082.5,428.5 C 1081.83,426.167 1081.17,423.833 1080.5,421.5C 1079.46,420.209 1078.29,420.209 1077,421.5C 1076.5,423.81 1076.34,426.143 1076.5,428.5C 1075.83,426.167 1075.17,423.833 1074.5,421.5C 1073.5,420.167 1072.5,420.167 1071.5,421.5C 1070.69,423.631 1070.19,425.964 1070,428.5C 1069.2,425.304 1069.36,422.304 1070.5,419.5C 1074.19,419.192 1077.86,419.192 1081.5,419.5C 1082.41,422.421 1082.74,425.421 1082.5,428.5 Z"/></g>
<g><path style="opacity:1" fill="#1e1e1e" d="M 127.5,415.5 C 129.857,415.337 132.19,415.503 134.5,416C 137.167,418 137.167,420 134.5,422C 137.167,424.333 137.167,426.667 134.5,429C 132.19,429.497 129.857,429.663 127.5,429.5C 127.5,424.833 127.5,420.167 127.5,415.5 Z"/></g>
<g><path style="opacity:1" fill="#f8f8f8" d="M 133.5,417.5 C 134.851,420.828 133.517,422.161 129.5,421.5C 129.5,420.167 129.5,418.833 129.5,417.5C 130.833,417.5 132.167,417.5 133.5,417.5 Z"/></g>
<g><path style="opacity:1" fill="#909090" d="M 133.5,417.5 C 132.167,417.5 130.833,417.5 129.5,417.5C 129.5,418.833 129.5,420.167 129.5,421.5C 128.549,420.081 128.216,418.415 128.5,416.5C 130.415,416.216 132.081,416.549 133.5,417.5 Z"/></g>
<g><path style="opacity:1" fill="#1d1d1d" d="M 1031.5,418.5 C 1035.81,418.303 1037.81,420.303 1037.5,424.5C 1035.08,424.192 1032.74,424.526 1030.5,425.5C 1030.71,426.086 1031.04,426.586 1031.5,427C 1033.66,427.078 1035.66,427.245 1037.5,427.5C 1032.83,430.834 1030.16,429.667 1029.5,424C 1029.39,421.822 1030.06,419.988 1031.5,418.5 Z"/></g>
<g><path style="opacity:1" fill="#252525" d="M 1060.5,418.5 C 1064.83,418.167 1066.83,420.167 1066.5,424.5C 1064.08,424.192 1061.74,424.526 1059.5,425.5C 1060,426.881 1061,427.547 1062.5,427.5C 1066.22,425.825 1066.89,426.325 1064.5,429C 1060.54,429.718 1058.21,428.051 1057.5,424C 1057.86,421.808 1058.86,419.974 1060.5,418.5 Z"/></g>
<g><path style="opacity:1" fill="#d6d6d6" d="M 1060.5,420.5 C 1062.66,420.116 1064.33,420.783 1065.5,422.5C 1063.5,423.833 1061.5,423.833 1059.5,422.5C 1059.86,421.817 1060.2,421.15 1060.5,420.5 Z"/></g>
<g><path style="opacity:1" fill="#b1b1b1" d="M 1070.5,419.5 C 1069.36,422.304 1069.2,425.304 1070,428.5C 1070.19,425.964 1070.69,423.631 1071.5,421.5C 1071.5,424.167 1071.5,426.833 1071.5,429.5C 1070.5,429.5 1069.5,429.5 1068.5,429.5C 1068.18,425.774 1068.51,422.107 1069.5,418.5C 1070.11,418.624 1070.44,418.957 1070.5,419.5 Z"/></g>
<g><path style="opacity:1" fill="#818181" d="M 1074.5,421.5 C 1075.17,423.833 1075.83,426.167 1076.5,428.5C 1076.44,429.043 1076.11,429.376 1075.5,429.5C 1074.52,426.914 1074.19,424.247 1074.5,421.5 Z"/></g>
<g><path style="opacity:1" fill="#818181" d="M 1080.5,421.5 C 1081.17,423.833 1081.83,426.167 1082.5,428.5C 1082.44,429.043 1082.11,429.376 1081.5,429.5C 1080.52,426.914 1080.19,424.247 1080.5,421.5 Z"/></g>
<g><path style="opacity:1" fill="#1e1e1e" d="M 1087.5,418.5 C 1091.83,418.167 1093.83,420.167 1093.5,424.5C 1091.08,424.192 1088.74,424.526 1086.5,425.5C 1086.71,426.086 1087.04,426.586 1087.5,427C 1089.66,427.078 1091.66,427.245 1093.5,427.5C 1088.83,430.834 1086.16,429.667 1085.5,424C 1085.39,421.822 1086.06,419.988 1087.5,418.5 Z"/></g>
<g><path style="opacity:1" fill="#7e7e7e" d="M 152.5,421.5 C 152.813,424.247 152.48,426.914 151.5,429.5C 150.893,429.376 150.56,429.043 150.5,428.5C 151.167,426.167 151.833,423.833 152.5,421.5 Z"/></g>
<g><path style="opacity:1" fill="#7f7f7f" d="M 156.5,421.5 C 157.167,423.833 157.833,426.167 158.5,428.5C 158.44,429.043 158.107,429.376 157.5,429.5C 156.52,426.914 156.187,424.247 156.5,421.5 Z"/></g>
<g><path style="opacity:1" fill="#bbbbbb" d="M 1031.5,420.5 C 1033.66,420.116 1035.33,420.783 1036.5,422.5C 1034.5,423.833 1032.5,423.833 1030.5,422.5C 1030.86,421.817 1031.2,421.15 1031.5,420.5 Z"/></g>
<g><path style="opacity:1" fill="#656565" d="M 1053.5,421.5 C 1053.81,424.247 1053.48,426.914 1052.5,429.5C 1051.89,429.376 1051.56,429.043 1051.5,428.5C 1052.17,426.167 1052.83,423.833 1053.5,421.5 Z"/></g>
<g><path style="opacity:1" fill="#bababa" d="M 1087.5,420.5 C 1089.66,420.116 1091.33,420.783 1092.5,422.5C 1090.5,423.833 1088.5,423.833 1086.5,422.5C 1086.86,421.817 1087.2,421.15 1087.5,420.5 Z"/></g>
<g><path style="opacity:1" fill="#272727" d="M 1098.5,421.5 C 1097.83,423.833 1097.17,426.167 1096.5,428.5C 1096.18,425.102 1096.51,421.768 1097.5,418.5C 1098.6,419.615 1099.77,419.615 1101,418.5C 1102.26,418.759 1103.26,419.426 1104,420.5C 1104.82,423.554 1104.65,426.554 1103.5,429.5C 1102.52,426.572 1102.18,423.572 1102.5,420.5C 1100.9,420.232 1099.57,420.566 1098.5,421.5 Z"/></g>
<g><path style="opacity:1" fill="#dfdfdf" d="M 128.5,422.5 C 131.596,421.907 133.929,422.907 135.5,425.5C 135.291,426.086 134.957,426.586 134.5,427C 132.527,427.495 130.527,427.662 128.5,427.5C 128.5,425.833 128.5,424.167 128.5,422.5 Z"/></g>
<g><path style="opacity:1" fill="#2a2a2a" d="M 592.5,415.5 C 593.496,415.414 594.329,415.748 595,416.5C 596.598,420.461 598.098,424.461 599.5,428.5C 599.167,428.833 598.833,429.167 598.5,429.5C 597.047,425.577 594.38,424.577 590.5,426.5C 590,427.5 589.5,428.5 589,429.5C 589.624,424.776 590.791,420.109 592.5,415.5 Z"/></g>
<g><path style="opacity:1" fill="#e3e3e3" d="M 593.5,418.5 C 594.931,419.78 595.598,421.447 595.5,423.5C 591.247,423.88 590.58,422.213 593.5,418.5 Z"/></g>
<g><path style="opacity:1" fill="#999999" d="M 1098.5,421.5 C 1098.81,424.247 1098.48,426.914 1097.5,429.5C 1096.89,429.376 1096.56,429.043 1096.5,428.5C 1097.17,426.167 1097.83,423.833 1098.5,421.5 Z"/></g>
<g><path style="opacity:1" fill="#272727" d="M 141.5,418.5 C 147.153,418.944 148.986,421.944 147,427.5C 144.034,430.265 141.367,429.932 139,426.5C 138.018,423.225 138.851,420.559 141.5,418.5 Z"/></g>
<g><path style="opacity:1" fill="#f2f2f2" d="M 141.5,420.5 C 146.328,420.385 147.661,422.552 145.5,427C 140.57,427.427 139.237,425.26 141.5,420.5 Z"/></g>
<g><path style="opacity:1" fill="#838383" d="M 150.5,477.5 C 151.765,478.514 152.431,480.014 152.5,482C 152.167,483.5 151.833,485 151.5,486.5C 150.516,483.572 150.183,480.572 150.5,477.5 Z"/></g>
<g><path style="opacity:1" fill="#969696" d="M 162.5,480.5 C 161.539,482.265 161.205,484.265 161.5,486.5C 160.197,483.645 160.197,480.645 161.5,477.5C 162.386,478.325 162.719,479.325 162.5,480.5 Z"/></g>
<g><path style="opacity:1" fill="#656565" d="M 605.5,477.5 C 611.201,478.527 612.868,481.694 610.5,487C 608.893,486.981 607.226,486.815 605.5,486.5C 605.5,483.5 605.5,480.5 605.5,477.5 Z"/></g>
<g><path style="opacity:1" fill="#101010" d="M 1053.5,480.5 C 1052.66,482.379 1052.33,484.379 1052.5,486.5C 1051.36,483.696 1051.2,480.696 1052,477.5C 1052.23,478.737 1052.73,479.737 1053.5,480.5 Z"/></g>
<g><path style="opacity:1" fill="#777777" d="M 1058.5,477.5 C 1059.76,478.514 1060.43,480.014 1060.5,482C 1060.17,483.5 1059.83,485 1059.5,486.5C 1058.52,483.572 1058.18,480.572 1058.5,477.5 Z"/></g>
<g><path style="opacity:1" fill="#656565" d="M 650.5,477.5 C 652.388,479.988 653.055,482.988 652.5,486.5C 651.448,486.649 650.448,486.483 649.5,486C 650.38,484.644 650.714,483.144 650.5,481.5C 649.5,481.5 648.5,481.5 647.5,481.5C 647.286,483.144 647.62,484.644 648.5,486C 648.167,486.167 647.833,486.333 647.5,486.5C 646.359,484.579 646.192,482.579 647,480.5C 648.729,480.026 649.895,479.026 650.5,477.5 Z"/></g>
<g><path style="opacity:1" fill="#8a8a8a" d="M 147.5,477.5 C 148.765,478.514 149.431,480.014 149.5,482C 149.167,483.5 148.833,485 148.5,486.5C 147.516,483.572 147.183,480.572 147.5,477.5 Z"/></g>
<g><path style="opacity:1" fill="#646464" d="M 202.5,485.5 C 201.387,484.054 201.22,482.387 202,480.5C 203.693,479.816 205.193,478.816 206.5,477.5C 207.484,480.428 207.817,483.428 207.5,486.5C 205.585,486.784 203.919,486.451 202.5,485.5 Z"/></g>
<g><path style="opacity:1" fill="#8d8d8d" d="M 592.5,477.5 C 593.765,478.514 594.431,480.014 594.5,482C 594.167,483.5 593.833,485 593.5,486.5C 592.516,483.572 592.183,480.572 592.5,477.5 Z"/></g>
<g><path style="opacity:1" fill="#747474" d="M 631.5,479.5 C 633.036,481.025 634.036,483.025 634.5,485.5C 636.37,477.701 637.37,478.035 637.5,486.5C 632.094,487.265 630.094,484.931 631.5,479.5 Z"/></g>
<g><path style="opacity:1" fill="#8b8b8b" d="M 643.5,480.5 C 642.833,480.5 642.5,480.833 642.5,481.5C 641.001,482.678 640.001,484.345 639.5,486.5C 638.526,484.257 638.192,481.924 638.5,479.5C 640.415,479.216 642.081,479.549 643.5,480.5 Z"/></g>
<g><path style="opacity:1" fill="#6b6b6b" d="M 1036.5,481.5 C 1036.17,481.5 1035.83,481.5 1035.5,481.5C 1031.41,481.782 1030.91,481.115 1034,479.5C 1035.3,479.639 1036.13,480.305 1036.5,481.5 Z"/></g>
<g><path style="opacity:1" fill="#696969" d="M 1049.5,481.5 C 1049.17,481.5 1048.83,481.5 1048.5,481.5C 1044.41,481.782 1043.91,481.115 1047,479.5C 1048.3,479.639 1049.13,480.305 1049.5,481.5 Z"/></g>
<g><path style="opacity:1" fill="#232323" d="M 1084.5,480.5 C 1085.49,480.328 1086.16,480.662 1086.5,481.5C 1085.7,482.952 1085.2,484.618 1085,486.5C 1084.5,484.527 1084.34,482.527 1084.5,480.5 Z"/></g>
<g><path style="opacity:1" fill="#5d5d5d" d="M 1102.5,483.5 C 1101.5,483.5 1100.5,483.5 1099.5,483.5C 1099.65,479.509 1101.31,478.676 1104.5,481C 1103.17,481.333 1101.83,481.667 1100.5,482C 1101.42,482.278 1102.08,482.778 1102.5,483.5 Z"/></g>
<g><path style="opacity:1" fill="#7a7a7a" d="M 155.5,479.5 C 156.675,479.281 157.675,479.614 158.5,480.5C 159.348,482.409 159.682,484.409 159.5,486.5C 157.54,487.138 155.707,487.138 154,486.5C 153.205,483.617 154.371,482.117 157.5,482C 155.065,481.925 154.398,481.092 155.5,479.5 Z"/></g>
<g><path style="opacity:1" fill="#737373" d="M 183.5,477.5 C 184.239,477.369 184.906,477.536 185.5,478C 185.324,480.672 184.657,483.505 183.5,486.5C 182.259,483.463 182.259,480.463 183.5,477.5 Z"/></g>
<g><path style="opacity:1" fill="#ebebeb" d="M 202.5,485.5 C 202.5,484.167 202.5,482.833 202.5,481.5C 203.833,481.5 205.167,481.5 206.5,481.5C 206.833,484.5 205.5,485.833 202.5,485.5 Z"/></g>
<g><path style="opacity:1" fill="#fcfcfc" d="M 607.5,481.5 C 608.5,481.5 609.5,481.5 610.5,481.5C 610.5,482.833 610.5,484.167 610.5,485.5C 609.5,485.5 608.5,485.5 607.5,485.5C 607.5,484.167 607.5,482.833 607.5,481.5 Z"/></g>
<g><path style="opacity:1" fill="#474747" d="M 628.5,477.5 C 629.239,477.369 629.906,477.536 630.5,478C 629.359,478.741 629.359,479.575 630.5,480.5C 629.045,482.22 628.212,484.22 628,486.5C 627.264,483.408 627.431,480.408 628.5,477.5 Z"/></g>
<g><path style="opacity:1" fill="#202020" d="M 1073.5,477.5 C 1074.55,477.351 1075.55,477.517 1076.5,478C 1074.83,480.48 1074,483.313 1074,486.5C 1073.5,483.518 1073.34,480.518 1073.5,477.5 Z"/></g>
<g><path style="opacity:1" fill="#4b4b4b" d="M 135.5,483.5 C 134.152,482.473 133.652,481.14 134,479.5C 135.188,480.563 135.688,481.897 135.5,483.5 Z"/></g>
<g><path style="opacity:1" fill="#6d6d6d" d="M 142.5,479.5 C 143.675,479.281 144.675,479.614 145.5,480.5C 146.348,482.409 146.682,484.409 146.5,486.5C 144.54,487.138 142.707,487.138 141,486.5C 140.205,483.617 141.371,482.117 144.5,482C 142.065,481.925 141.398,481.092 142.5,479.5 Z"/></g>
<g><path style="opacity:1" fill="#606060" d="M 161.5,486.5 C 161.205,484.265 161.539,482.265 162.5,480.5C 165.28,479.239 166.947,480.239 167.5,483.5C 166.767,487.2 164.767,488.2 161.5,486.5 Z"/></g>
<g><path style="opacity:1" fill="#fdfdfd" d="M 162.5,481.5 C 163.5,481.5 164.5,481.5 165.5,481.5C 165.5,482.833 165.5,484.167 165.5,485.5C 164.5,485.5 163.5,485.5 162.5,485.5C 162.5,484.167 162.5,482.833 162.5,481.5 Z"/></g>
<g><path style="opacity:1" fill="#3d3d3d" d="M 171.5,481.5 C 173.663,482.362 175.663,482.696 177.5,482.5C 175.363,483.08 173.53,484.08 172,485.5C 171.51,484.207 171.343,482.873 171.5,481.5 Z"/></g>
<g><path style="opacity:1" fill="#494949" d="M 590.5,481.5 C 588.24,482.852 586.907,484.519 586.5,486.5C 585.016,483.766 586.016,482.266 589.5,482C 588.167,481.667 586.833,481.333 585.5,481C 587.451,478.935 589.118,479.102 590.5,481.5 Z"/></g>
<g><path style="opacity:1" fill="#5c5c5c" d="M 622.5,483.5 C 620.219,483.077 618.552,483.744 617.5,485.5C 615.992,482.92 616.659,480.92 619.5,479.5C 621.288,480.283 622.288,481.616 622.5,483.5 Z"/></g>
<g><path style="opacity:1" fill="#131313" d="M 642.5,481.5 C 642.5,480.833 642.833,480.5 643.5,480.5C 644.622,482.288 644.789,484.288 644,486.5C 643.802,484.618 643.302,482.952 642.5,481.5 Z"/></g>
<g><path style="opacity:1" fill="#404040" d="M 1024.5,480.5 C 1025.97,481.347 1026.8,482.68 1027,484.5C 1027.67,483.167 1028.33,481.833 1029,480.5C 1027.86,488.445 1026.36,488.445 1024.5,480.5 Z"/></g>
<g><path style="opacity:1" fill="#161616" d="M 1035.5,481.5 C 1035.83,481.5 1036.17,481.5 1036.5,481.5C 1036.92,483.781 1036.26,485.448 1034.5,486.5C 1034.5,486.167 1034.5,485.833 1034.5,485.5C 1035.69,484.434 1035.36,483.601 1033.5,483C 1034.42,482.722 1035.08,482.222 1035.5,481.5 Z"/></g>
<g><path style="opacity:1" fill="#161616" d="M 1048.5,481.5 C 1048.83,481.5 1049.17,481.5 1049.5,481.5C 1049.92,483.781 1049.26,485.448 1047.5,486.5C 1048.83,484.805 1048.49,483.472 1046.5,482.5C 1047.49,482.672 1048.16,482.338 1048.5,481.5 Z"/></g>
<g><path style="opacity:1" fill="#a1a1a1" d="M 1052.5,486.5 C 1052.33,484.379 1052.66,482.379 1053.5,480.5C 1054.31,479.347 1055.31,479.347 1056.5,480.5C 1058.44,485.185 1057.11,487.185 1052.5,486.5 Z"/></g>
<g><path style="opacity:1" fill="#606060" d="M 1063.5,479.5 C 1066.5,479.167 1067.83,480.5 1067.5,483.5C 1064.52,483.607 1062.85,484.44 1062.5,486C 1061.14,483.586 1061.48,481.419 1063.5,479.5 Z"/></g>
<g><path style="opacity:1" fill="#737373" d="M 1084.5,480.5 C 1089.78,478.973 1091.44,480.973 1089.5,486.5C 1089,484.345 1088,482.678 1086.5,481.5C 1086.16,480.662 1085.49,480.328 1084.5,480.5 Z"/></g>
<g><path style="opacity:1" fill="#454545" d="M 1096.5,477.5 C 1097.8,480.355 1097.8,483.355 1096.5,486.5C 1093.7,487.729 1092.03,486.729 1091.5,483.5C 1091.96,480.493 1093.46,479.493 1096,480.5C 1096.48,479.552 1096.65,478.552 1096.5,477.5 Z"/></g>
<g><path style="opacity:1" fill="#f2f2f2" d="M 1093.5,481.5 C 1094.5,481.5 1095.5,481.5 1096.5,481.5C 1096.5,482.833 1096.5,484.167 1096.5,485.5C 1093.05,485.733 1092.05,484.4 1093.5,481.5 Z"/></g>
<g><path style="opacity:1" fill="#424242" d="M 129.5,477.5 C 131.742,480.057 132.909,483.057 133,486.5C 130.916,483.967 128.916,483.967 127,486.5C 126.903,483.284 127.736,480.284 129.5,477.5 Z"/></g>
<g><path style="opacity:1" fill="#cbcbcb" d="M 129.5,479.5 C 130.782,480.708 130.782,482.042 129.5,483.5C 128.708,482.3 128.708,480.967 129.5,479.5 Z"/></g>
<g><path style="opacity:1" fill="#414141" d="M 137.5,484.5 C 137.312,482.897 137.812,481.563 139,480.5C 139.348,482.14 138.848,483.473 137.5,484.5 Z"/></g>
<g><path style="opacity:1" fill="#595959" d="M 210.5,479.5 C 212.103,479.312 213.437,479.812 214.5,481C 209.897,480.937 209.73,481.771 214,483.5C 214.483,484.448 214.649,485.448 214.5,486.5C 208.792,486.508 208.459,486.008 213.5,485C 210.095,484.247 209.095,482.414 210.5,479.5 Z"/></g>
<g><path style="opacity:1" fill="#414141" d="M 573.5,477.5 C 574.75,477.577 575.583,478.244 576,479.5C 576.557,481.615 577.391,483.615 578.5,485.5C 578.167,485.833 577.833,486.167 577.5,486.5C 575.562,483.921 573.729,483.921 572,486.5C 572.158,483.498 572.658,480.498 573.5,477.5 Z"/></g>
<g><path style="opacity:1" fill="#d1d1d1" d="M 574.5,480.5 C 575.776,481.386 575.776,482.386 574.5,483.5C 573.438,482.575 573.438,481.575 574.5,480.5 Z"/></g>
<g><path style="opacity:1" fill="#606060" d="M 578.5,479.5 C 579.85,480.483 580.85,481.816 581.5,483.5C 582.243,482.092 583.077,480.759 584,479.5C 582.529,488.778 580.696,488.778 578.5,479.5 Z"/></g>
<g><path style="opacity:1" fill="#aeaeae" d="M 622.5,483.5 C 622.55,485.59 621.55,486.923 619.5,487.5C 618.478,487.145 617.811,486.478 617.5,485.5C 618.552,483.744 620.219,483.077 622.5,483.5 Z"/></g>
<g><path style="opacity:1" fill="#3b3b3b" d="M 1019.5,477.5 C 1022.08,478.824 1022.08,480.324 1019.5,482C 1020.42,483.811 1021.26,483.645 1022,481.5C 1024.37,485.726 1023.87,486.726 1020.5,484.5C 1018.97,484.529 1017.8,485.196 1017,486.5C 1017.7,483.562 1018.53,480.562 1019.5,477.5 Z"/></g>
<g><path style="opacity:1" fill="#343434" d="M 135.5,483.5 C 136.167,483.833 136.833,484.167 137.5,484.5C 137.631,485.376 137.298,486.043 136.5,486.5C 135.614,485.675 135.281,484.675 135.5,483.5 Z"/></g>
<g><path style="opacity:1" fill="#646464" d="M 1034.5,485.5 C 1034.5,485.833 1034.5,486.167 1034.5,486.5C 1032.73,487.507 1031.4,486.841 1030.5,484.5C 1030.83,484.167 1031.17,483.833 1031.5,483.5C 1032.27,484.612 1033.27,485.279 1034.5,485.5 Z"/></g>
<g><path style="opacity:1" fill="#898989" d="M 1046.5,482.5 C 1048.49,483.472 1048.83,484.805 1047.5,486.5C 1045.73,487.507 1044.4,486.841 1043.5,484.5C 1044.36,483.575 1045.36,482.908 1046.5,482.5 Z"/></g>
<g><path style="opacity:1" fill="#4c4c4c" d="M 186.5,480.5 C 187.999,481.678 188.999,483.345 189.5,485.5C 191.069,484.286 191.902,482.619 192,480.5C 192.495,482.473 192.662,484.473 192.5,486.5C 187.5,487.5 185.5,485.5 186.5,480.5 Z"/></g>
<g><path style="opacity:1" fill="#5d5d5d" d="M 655.5,479.5 C 659.456,480.053 659.456,480.886 655.5,482C 660.297,483.25 660.63,485.083 656.5,487.5C 653.924,486.117 654.258,485.283 657.5,485C 654.767,483.772 654.1,481.939 655.5,479.5 Z"/></g>
<g><path style="opacity:1" fill="#282828" d="M 1077.5,480.5 C 1078.45,481.919 1078.78,483.585 1078.5,485.5C 1079.5,485.5 1080.5,485.5 1081.5,485.5C 1081.34,483.801 1081.51,482.134 1082,480.5C 1082.5,482.473 1082.66,484.473 1082.5,486.5C 1080.83,486.5 1079.17,486.5 1077.5,486.5C 1077.5,484.5 1077.5,482.5 1077.5,480.5 Z"/></g>
<g><path style="opacity:1" fill="#979797" d="M 590.5,481.5 C 591.451,482.919 591.784,484.585 591.5,486.5C 589.602,487.096 587.935,487.096 586.5,486.5C 586.907,484.519 588.24,482.852 590.5,481.5 Z"/></g>
<g><path style="opacity:1" fill="#636363" d="M 599.5,479.5 C 603.8,479.815 605.467,482.149 604.5,486.5C 602.54,487.138 600.707,487.138 599,486.5C 598.269,482.992 598.936,482.659 601,485.5C 601.5,485.167 602,484.833 602.5,484.5C 601.359,483.575 601.359,482.741 602.5,482C 601.167,481.667 599.833,481.333 598.5,481C 599.056,480.617 599.389,480.117 599.5,479.5 Z"/></g>
<g><path style="opacity:1" fill="#6f6f6f" d="M 1102.5,483.5 C 1105.1,484.922 1104.93,486.256 1102,487.5C 1100.72,487.387 1099.89,486.72 1099.5,485.5C 1100.58,485.251 1101.92,485.085 1103.5,485C 1102.94,484.617 1102.61,484.117 1102.5,483.5 Z"/></g>
<g><path style="opacity:1" fill="#1b1b1b" d="M 1021.5,502.5 C 1024.59,503.209 1025.92,504.876 1025.5,507.5C 1024.19,505.109 1023.19,505.109 1022.5,507.5C 1024.09,509.656 1025.76,511.822 1027.5,514C 1025.83,515.935 1023.99,517.768 1022,519.5C 1020.54,518.08 1019.04,516.747 1017.5,515.5C 1018.39,514.41 1019.39,514.41 1020.5,515.5C 1020.83,514.833 1021.17,514.167 1021.5,513.5C 1016.27,509.655 1016.27,505.988 1021.5,502.5 Z"/></g>
<g><path style="opacity:1" fill="#1c1c1c" d="M 132.5,505.5 C 131.5,505.5 130.5,505.5 129.5,505.5C 129.5,506.833 129.5,508.167 129.5,509.5C 130.5,509.5 131.5,509.5 132.5,509.5C 137.883,512.424 137.716,515.424 132,518.5C 129.571,517.971 127.738,516.637 126.5,514.5C 126.833,514.167 127.167,513.833 127.5,513.5C 128.5,514.167 129.5,514.833 130.5,515.5C 130.833,514.833 131.167,514.167 131.5,513.5C 126.064,509.479 126.231,505.812 132,502.5C 133.635,503.726 135.135,505.059 136.5,506.5C 136.167,506.833 135.833,507.167 135.5,507.5C 134.482,506.807 133.482,506.141 132.5,505.5 Z"/></g>
<g><path style="opacity:1" fill="#6e6e6e" d="M 132.5,505.5 C 132.5,506.833 132.5,508.167 132.5,509.5C 131.5,509.5 130.5,509.5 129.5,509.5C 129.5,508.167 129.5,506.833 129.5,505.5C 130.5,505.5 131.5,505.5 132.5,505.5 Z"/></g>
<g><path style="opacity:1" fill="#1c1c1c" d="M 577.5,505.5 C 575.654,505.222 574.32,505.889 573.5,507.5C 574.32,509.111 575.654,509.778 577.5,509.5C 580.91,510.094 582.076,512.094 581,515.5C 578,518.167 575,518.167 572,515.5C 571.312,514.668 571.479,514.002 572.5,513.5C 573.518,514.193 574.518,514.859 575.5,515.5C 576.833,515.5 578.167,515.5 579.5,515.5C 579.833,512.5 578.5,511.167 575.5,511.5C 570.315,508.282 570.648,505.282 576.5,502.5C 578.389,503.604 580.055,504.937 581.5,506.5C 581.167,506.833 580.833,507.167 580.5,507.5C 579.482,506.807 578.482,506.141 577.5,505.5 Z"/></g>
<g><path style="opacity:1" fill="#898989" d="M 577.5,505.5 C 577.5,506.833 577.5,508.167 577.5,509.5C 575.654,509.778 574.32,509.111 573.5,507.5C 574.32,505.889 575.654,505.222 577.5,505.5 Z"/></g>
<g><path style="opacity:1" fill="#f1f1f1" d="M 1020.5,505.5 C 1021.6,506.601 1021.76,507.934 1021,509.5C 1019.23,508.318 1019.07,506.985 1020.5,505.5 Z"/></g>
<g><path style="opacity:1" fill="#1c1c1c" d="M 604.5,503.5 C 605.376,503.369 606.043,503.702 606.5,504.5C 602.5,508.5 602.5,512.5 606.5,516.5C 605.998,517.521 605.332,517.688 604.5,517C 602.423,511.645 600.423,511.478 598.5,516.5C 597.635,517.583 596.635,517.749 595.5,517C 600.375,513.376 600.708,509.376 596.5,505C 597.167,504.333 597.833,504.333 598.5,505C 601.201,509.57 603.201,509.07 604.5,503.5 Z"/></g>
<g><path style="opacity:1" fill="#1b1b1b" d="M 138.5,503.5 C 140.74,504.568 142.574,506.234 144,508.5C 145.046,506.91 146.213,505.41 147.5,504C 148.332,503.312 148.998,503.479 149.5,504.5C 147.774,506.228 146.441,508.228 145.5,510.5C 146.635,512.799 147.968,514.966 149.5,517C 148.365,517.749 147.365,517.583 146.5,516.5C 145.917,514.998 145.084,513.665 144,512.5C 142.954,514.09 141.787,515.59 140.5,517C 139.833,517.667 139.167,517.667 138.5,517C 140.032,514.966 141.365,512.799 142.5,510.5C 140.89,508.275 139.557,505.941 138.5,503.5 Z"/></g>
<g><path style="opacity:1" fill="#191919" d="M 163.5,503.5 C 165.74,504.568 167.574,506.234 169,508.5C 169.956,507.421 170.789,506.255 171.5,505C 172.332,504.312 172.998,504.479 173.5,505.5C 169.719,509.526 170.052,513.359 174.5,517C 173.365,517.749 172.365,517.583 171.5,516.5C 170.917,514.998 170.084,513.665 169,512.5C 167.954,514.09 166.787,515.59 165.5,517C 164.833,517.667 164.167,517.667 163.5,517C 165.032,514.966 166.365,512.799 167.5,510.5C 165.89,508.275 164.557,505.941 163.5,503.5 Z"/></g>
<g><path style="opacity:1" fill="#181818" d="M 583.5,503.5 C 584.239,503.369 584.906,503.536 585.5,504C 587.305,509.69 589.305,509.857 591.5,504.5C 592.365,503.417 593.365,503.251 594.5,504C 589.34,508.426 589.34,512.759 594.5,517C 593.365,517.749 592.365,517.583 591.5,516.5C 589.577,511.478 587.577,511.645 585.5,517C 584.833,517.667 584.167,517.667 583.5,517C 584.708,514.75 586.041,512.583 587.5,510.5C 585.89,508.275 584.557,505.941 583.5,503.5 Z"/></g>
<g><path style="opacity:1" fill="#181818" d="M 608.5,503.5 C 609.239,503.369 609.906,503.536 610.5,504C 612.305,509.69 614.305,509.857 616.5,504.5C 617.365,503.417 618.365,503.251 619.5,504C 614.34,508.426 614.34,512.759 619.5,517C 618.365,517.749 617.365,517.583 616.5,516.5C 614.577,511.478 612.577,511.645 610.5,517C 609.833,517.667 609.167,517.667 608.5,517C 609.708,514.75 611.041,512.583 612.5,510.5C 610.89,508.275 609.557,505.941 608.5,503.5 Z"/></g>
<g><path style="opacity:1" fill="#1b1b1b" d="M 1041.5,503.5 C 1043.74,504.568 1045.57,506.234 1047,508.5C 1048.08,507.335 1048.92,506.002 1049.5,504.5C 1050.5,503.167 1051.5,503.167 1052.5,504.5C 1050.77,506.228 1049.44,508.228 1048.5,510.5C 1049.46,512.918 1050.79,515.084 1052.5,517C 1049.79,516.903 1047.96,515.403 1047,512.5C 1045.47,513.729 1044.3,515.229 1043.5,517C 1042.83,517.667 1042.17,517.667 1041.5,517C 1043.03,514.966 1044.36,512.799 1045.5,510.5C 1043.89,508.275 1042.56,505.941 1041.5,503.5 Z"/></g>
<g><path style="opacity:1" fill="#1c1c1c" d="M 1053.5,504.5 C 1053.74,503.903 1054.24,503.57 1055,503.5C 1056.5,505.175 1058,506.841 1059.5,508.5C 1060.62,507.086 1061.62,505.586 1062.5,504C 1063.33,503.312 1064,503.479 1064.5,504.5C 1060.5,508.5 1060.5,512.5 1064.5,516.5C 1064.17,516.833 1063.83,517.167 1063.5,517.5C 1061.94,516.055 1060.6,514.389 1059.5,512.5C 1058.5,513.833 1057.5,515.167 1056.5,516.5C 1055.64,517.583 1054.64,517.749 1053.5,517C 1058.7,512.798 1058.7,508.631 1053.5,504.5 Z"/></g>
<g><path style="opacity:1" fill="#9c9c9c" d="M 575.5,511.5 C 578.5,511.167 579.833,512.5 579.5,515.5C 578.167,515.5 576.833,515.5 575.5,515.5C 575.5,514.167 575.5,512.833 575.5,511.5 Z"/></g>
<g><path style="opacity:1" fill="#e2e2e2" d="M 132.5,511.5 C 134.476,512.427 134.809,513.76 133.5,515.5C 132.571,514.311 132.238,512.978 132.5,511.5 Z"/></g>
<g><path style="opacity:1" fill="#cdcdcd" d="M 1022.5,511.5 C 1025.77,512.379 1026.11,513.712 1023.5,515.5C 1022.57,514.311 1022.24,512.978 1022.5,511.5 Z"/></g>
<g><path style="opacity:1" fill="#1b1b1b" d="M 159.5,503.5 C 160.376,503.369 161.043,503.702 161.5,504.5C 157.5,508.5 157.5,512.5 161.5,516.5C 160.998,517.521 160.332,517.688 159.5,517C 158.624,515.414 157.624,513.914 156.5,512.5C 155.396,514.389 154.063,516.055 152.5,517.5C 152.167,517.167 151.833,516.833 151.5,516.5C 152.38,514.571 153.38,512.737 154.5,511C 153.764,508.861 152.764,506.861 151.5,505C 153.752,505.05 155.418,506.216 156.5,508.5C 157.952,507.06 158.952,505.394 159.5,503.5 Z"/></g>
<g><path style="opacity:1" fill="#1d1d1d" d="M 1028.5,504.5 C 1028.74,503.903 1029.24,503.57 1030,503.5C 1031.5,505.175 1033,506.841 1034.5,508.5C 1035.62,507.086 1036.62,505.586 1037.5,504C 1038.33,503.312 1039,503.479 1039.5,504.5C 1035.5,508.5 1035.5,512.5 1039.5,516.5C 1039.17,516.833 1038.83,517.167 1038.5,517.5C 1036.94,516.055 1035.6,514.389 1034.5,512.5C 1033.5,513.833 1032.5,515.167 1031.5,516.5C 1030.64,517.583 1029.64,517.749 1028.5,517C 1033.7,512.798 1033.7,508.631 1028.5,504.5 Z"/></g>
<g><path style="opacity:1" fill="#111111" d="M 138.5,575.5 C 140.748,578.303 143.748,580.137 147.5,581C 149.451,582.734 150.451,584.901 150.5,587.5C 149.167,587.5 147.833,587.5 146.5,587.5C 146.192,583.991 144.192,582.324 140.5,582.5C 140.5,586.167 140.5,589.833 140.5,593.5C 148.511,594.339 151.677,598.672 150,606.5C 147.715,609.892 144.548,611.559 140.5,611.5C 139.833,615.5 139.167,615.5 138.5,611.5C 132.634,611.3 129.301,608.3 128.5,602.5C 129.833,602.5 131.167,602.5 132.5,602.5C 132.651,606.314 134.651,607.981 138.5,607.5C 138.665,603.818 138.499,600.152 138,596.5C 130.758,594.934 128.091,590.6 130,583.5C 132.07,581.213 134.57,579.547 137.5,578.5C 138.386,577.675 138.719,576.675 138.5,575.5 Z"/></g>
<g><path style="opacity:1" fill="#121212" d="M 583.5,575.5 C 585.748,578.303 588.748,580.137 592.5,581C 594.451,582.734 595.451,584.901 595.5,587.5C 594.167,587.5 592.833,587.5 591.5,587.5C 591.192,583.991 589.192,582.324 585.5,582.5C 585.177,586.226 585.511,589.893 586.5,593.5C 595.934,595.952 597.934,601.119 592.5,609C 588.966,609.664 586.299,611.497 584.5,614.5C 583.614,613.675 583.281,612.675 583.5,611.5C 578.184,611.194 574.517,608.528 572.5,603.5C 574.045,602.548 575.712,602.215 577.5,602.5C 577.651,606.314 579.651,607.981 583.5,607.5C 583.665,603.818 583.499,600.152 583,596.5C 572.661,593.059 571.161,587.559 578.5,580C 581.901,580.266 583.567,578.766 583.5,575.5 Z"/></g>
<g><path style="opacity:1" fill="#191919" d="M 1028.5,575.5 C 1029.5,575.5 1030.5,575.5 1031.5,575.5C 1031.28,576.675 1031.61,577.675 1032.5,578.5C 1036.89,579.555 1039.56,582.222 1040.5,586.5C 1037.5,585.167 1034.5,583.833 1031.5,582.5C 1031.18,586.226 1031.51,589.893 1032.5,593.5C 1041.67,595.995 1043.67,601.161 1038.5,609C 1036.35,610.411 1034.02,611.245 1031.5,611.5C 1031.5,612.5 1031.5,613.5 1031.5,614.5C 1030.5,614.5 1029.5,614.5 1028.5,614.5C 1028.5,613.5 1028.5,612.5 1028.5,611.5C 1022.61,611.236 1019.27,608.236 1018.5,602.5C 1021.65,604.357 1024.98,606.024 1028.5,607.5C 1028.5,603.5 1028.5,599.5 1028.5,595.5C 1019.18,593.699 1017.18,588.865 1022.5,581C 1024.35,579.872 1026.35,579.372 1028.5,579.5C 1028.5,578.167 1028.5,576.833 1028.5,575.5 Z"/></g>
<g><path style="opacity:1" fill="#dadada" d="M 260.5,577.5 C 261.376,577.369 262.043,577.702 262.5,578.5C 265.041,583.082 267.707,587.582 270.5,592C 264.804,592.83 259.137,592.663 253.5,591.5C 256.372,587.09 258.705,582.423 260.5,577.5 Z"/></g>
<g><path style="opacity:1" fill="#dadada" d="M 705.5,578.5 C 706.496,578.414 707.329,578.748 708,579.5C 710.374,583.75 712.874,587.916 715.5,592C 709.5,592.667 703.5,592.667 697.5,592C 700.304,587.555 702.971,583.055 705.5,578.5 Z"/></g>
<g><path style="opacity:1" fill="#dadada" d="M 1151.5,577.5 C 1154.97,581.762 1157.97,586.429 1160.5,591.5C 1154.86,592.663 1149.2,592.83 1143.5,592C 1146.42,587.26 1149.09,582.426 1151.5,577.5 Z"/></g>
<g><path style="opacity:1" fill="#111111" d="M 155.5,580.5 C 156.601,579.402 157.934,579.235 159.5,580C 162.004,583.995 164.671,587.828 167.5,591.5C 170.524,587.966 173.19,584.133 175.5,580C 176.944,579.219 178.277,579.386 179.5,580.5C 176.375,585.249 173.375,590.083 170.5,595C 173.375,599.917 176.375,604.751 179.5,609.5C 178.277,610.614 176.944,610.781 175.5,610C 172.996,606.005 170.329,602.172 167.5,598.5C 164.638,602.195 161.972,606.029 159.5,610C 158.167,610.667 156.833,610.667 155.5,610C 158.516,604.99 161.516,599.99 164.5,595C 161.653,590.004 158.653,585.171 155.5,580.5 Z"/></g>
<g><path style="opacity:1" fill="#121212" d="M 183.5,580.5 C 184.601,579.402 185.934,579.235 187.5,580C 190.333,584.167 193.167,588.333 196,592.5C 198.333,588.5 200.667,584.5 203,580.5C 204.494,579.253 205.994,579.253 207.5,580.5C 204.375,585.249 201.375,590.083 198.5,595C 201.375,599.917 204.375,604.751 207.5,609.5C 206.277,610.614 204.944,610.781 203.5,610C 201.19,605.867 198.524,602.034 195.5,598.5C 192.957,602.421 190.29,606.254 187.5,610C 186.167,610.667 184.833,610.667 183.5,610C 186.516,604.99 189.516,599.99 192.5,595C 189.653,590.004 186.653,585.171 183.5,580.5 Z"/></g>
<g><path style="opacity:1" fill="#111111" d="M 211.5,580.5 C 212.601,579.402 213.934,579.235 215.5,580C 218.457,584.08 221.29,588.247 224,592.5C 226.333,588.5 228.667,584.5 231,580.5C 232.494,579.253 233.994,579.253 235.5,580.5C 232.876,585.585 229.876,590.418 226.5,595C 229.375,599.917 232.375,604.751 235.5,609.5C 234.277,610.614 232.944,610.781 231.5,610C 229.19,605.867 226.524,602.034 223.5,598.5C 220.957,602.421 218.29,606.254 215.5,610C 214.167,610.667 212.833,610.667 211.5,610C 215.01,605.315 218.01,600.315 220.5,595C 218.107,589.699 215.107,584.866 211.5,580.5 Z"/></g>
<g><path style="opacity:1" fill="#111111" d="M 600.5,579.5 C 601.873,579.343 603.207,579.51 604.5,580C 606.81,584.133 609.476,587.966 612.5,591.5C 615.329,587.828 617.996,583.995 620.5,580C 621.833,579.333 623.167,579.333 624.5,580C 621.493,585.016 618.493,590.016 615.5,595C 618.286,599.956 621.286,604.789 624.5,609.5C 623.277,610.614 621.944,610.781 620.5,610C 618.028,606.029 615.362,602.195 612.5,598.5C 609.671,602.172 607.004,606.005 604.5,610C 603.056,610.781 601.723,610.614 600.5,609.5C 603.714,604.789 606.714,599.956 609.5,595C 606.357,589.876 603.357,584.71 600.5,579.5 Z"/></g>
<g><path style="opacity:1" fill="#111111" d="M 628.5,579.5 C 629.873,579.343 631.207,579.51 632.5,580C 635.004,583.995 637.671,587.828 640.5,591.5C 643.329,587.828 645.996,583.995 648.5,580C 649.944,579.219 651.277,579.386 652.5,580.5C 649.368,585.266 646.368,590.099 643.5,595C 646.368,599.901 649.368,604.734 652.5,609.5C 651.277,610.614 649.944,610.781 648.5,610C 646.028,606.029 643.362,602.195 640.5,598.5C 637.638,602.195 634.972,606.029 632.5,610C 631.056,610.781 629.723,610.614 628.5,609.5C 631.714,604.789 634.714,599.956 637.5,595C 634.357,589.876 631.357,584.71 628.5,579.5 Z"/></g>
<g><path style="opacity:1" fill="#101010" d="M 656.5,580.5 C 657.601,579.402 658.934,579.235 660.5,580C 663.004,583.995 665.671,587.828 668.5,591.5C 671.524,587.966 674.19,584.133 676.5,580C 677.944,579.219 679.277,579.386 680.5,580.5C 677.368,585.266 674.368,590.099 671.5,595C 674.368,599.901 677.368,604.734 680.5,609.5C 679.277,610.614 677.944,610.781 676.5,610C 673.996,606.005 671.329,602.172 668.5,598.5C 665.638,602.195 662.972,606.029 660.5,610C 659.167,610.667 657.833,610.667 656.5,610C 659.516,604.99 662.516,599.99 665.5,595C 662.653,590.004 659.653,585.171 656.5,580.5 Z"/></g>
<g><path style="opacity:1" fill="#111111" d="M 1045.5,580.5 C 1047.03,579.212 1048.7,579.212 1050.5,580.5C 1052.8,584.633 1055.3,588.633 1058,592.5C 1060.7,588.633 1063.2,584.633 1065.5,580.5C 1067.07,579.369 1068.74,579.202 1070.5,580C 1067.17,585 1063.83,590 1060.5,595C 1063.83,600 1067.17,605 1070.5,610C 1068.74,610.798 1067.07,610.631 1065.5,609.5C 1063,605.833 1060.5,602.167 1058,598.5C 1055.01,601.82 1052.51,605.487 1050.5,609.5C 1048.93,610.631 1047.26,610.798 1045.5,610C 1048.83,605 1052.17,600 1055.5,595C 1052.27,590.013 1048.93,585.18 1045.5,580.5 Z"/></g>
<g><path style="opacity:1" fill="#141414" d="M 1073.5,580.5 C 1075.03,579.212 1076.7,579.212 1078.5,580.5C 1080.8,584.633 1083.3,588.633 1086,592.5C 1088.7,588.633 1091.2,584.633 1093.5,580.5C 1095.07,579.369 1096.74,579.202 1098.5,580C 1094.99,584.685 1091.99,589.685 1089.5,595C 1091.99,600.315 1094.99,605.315 1098.5,610C 1096.74,610.798 1095.07,610.631 1093.5,609.5C 1091.49,605.487 1088.99,601.82 1086,598.5C 1083.17,602.667 1080.33,606.833 1077.5,611C 1076.06,611.781 1074.72,611.614 1073.5,610.5C 1077.03,605.468 1080.36,600.301 1083.5,595C 1080.27,590.013 1076.93,585.18 1073.5,580.5 Z"/></g>
<g><path style="opacity:1" fill="#101010" d="M 1102.5,579.5 C 1103.98,579.238 1105.31,579.571 1106.5,580.5C 1109.25,584.332 1111.75,588.332 1114,592.5C 1116.71,588.247 1119.54,584.08 1122.5,580C 1123.83,579.333 1125.17,579.333 1126.5,580C 1122.99,584.685 1119.99,589.685 1117.5,595C 1120.48,599.99 1123.48,604.99 1126.5,610C 1124.74,610.798 1123.07,610.631 1121.5,609.5C 1119.49,605.487 1116.99,601.82 1114,598.5C 1111.38,602.248 1108.88,606.081 1106.5,610C 1105.06,610.781 1103.72,610.614 1102.5,609.5C 1105.63,604.734 1108.63,599.901 1111.5,595C 1108.26,589.939 1105.26,584.772 1102.5,579.5 Z"/></g>
<g><path style="opacity:1" fill="#ebebeb" d="M 135.5,582.5 C 136.5,582.5 137.5,582.5 138.5,582.5C 138.82,585.898 138.487,589.232 137.5,592.5C 131.738,590.125 131.071,586.792 135.5,582.5 Z"/></g>
<g><path style="opacity:1" fill="#e0e0e0" d="M 580.5,582.5 C 581.5,582.5 582.5,582.5 583.5,582.5C 583.82,585.898 583.487,589.232 582.5,592.5C 576.786,589.937 576.119,586.604 580.5,582.5 Z"/></g>
<g><path style="opacity:1" fill="#f3f3f3" d="M 1025.5,582.5 C 1026.5,582.5 1027.5,582.5 1028.5,582.5C 1028.82,585.898 1028.49,589.232 1027.5,592.5C 1023.11,589.86 1022.44,586.526 1025.5,582.5 Z"/></g>
<g><path style="opacity:1" fill="#e6e6e6" d="M 140.5,597.5 C 147.836,598.396 149.17,601.563 144.5,607C 143.207,607.49 141.873,607.657 140.5,607.5C 140.5,604.167 140.5,600.833 140.5,597.5 Z"/></g>
<g><path style="opacity:1" fill="#ececec" d="M 585.5,597.5 C 592.836,598.396 594.17,601.563 589.5,607C 588.207,607.49 586.873,607.657 585.5,607.5C 585.5,604.167 585.5,600.833 585.5,597.5 Z"/></g>
<g><path style="opacity:1" fill="#f4f4f4" d="M 1031.5,597.5 C 1037.72,598.246 1039.06,601.246 1035.5,606.5C 1034.26,607.246 1032.93,607.579 1031.5,607.5C 1031.5,604.167 1031.5,600.833 1031.5,597.5 Z"/></g>
<g><path style="opacity:1" fill="#dbdbdb" d="M 253.5,597.5 C 259.206,597.171 264.872,597.505 270.5,598.5C 267.5,603.167 264.5,607.833 261.5,612.5C 258.044,607.922 255.378,602.922 253.5,597.5 Z"/></g>
<g><path style="opacity:1" fill="#dbdbdb" d="M 697.5,598.5 C 703.319,597.347 709.319,597.181 715.5,598C 712.625,602.917 709.625,607.751 706.5,612.5C 703.476,607.769 700.476,603.102 697.5,598.5 Z"/></g>
<g><path style="opacity:1" fill="#dbdbdb" d="M 1143.5,597.5 C 1149.21,597.171 1154.87,597.505 1160.5,598.5C 1157.92,603.333 1155.08,608 1152,612.5C 1148.64,607.77 1145.8,602.77 1143.5,597.5 Z"/></g>
<g><path style="opacity:1" fill="#1d1d1d" d="M 371.5,716.5 C 439.834,716.333 508.167,716.5 576.5,717C 581.099,718.598 583.932,721.765 585,726.5C 585.667,734.5 585.667,742.5 585,750.5C 583.098,755.4 579.598,758.567 574.5,760C 507.167,760.667 439.833,760.667 372.5,760C 368.333,758.5 365.5,755.667 364,751.5C 363.333,742.5 363.333,733.5 364,724.5C 366.028,721.308 368.528,718.641 371.5,716.5 Z"/></g>
<g><path style="opacity:1" fill="#f9f9f9" d="M 372.5,718.5 C 440.167,718.333 507.834,718.5 575.5,719C 579.333,720.167 581.833,722.667 583,726.5C 583.667,733.833 583.667,741.167 583,748.5C 582.332,752.499 580.165,755.332 576.5,757C 508.167,757.667 439.833,757.667 371.5,757C 368.619,755.749 366.786,753.583 366,750.5C 365.333,742.167 365.333,733.833 366,725.5C 367.694,722.642 369.861,720.309 372.5,718.5 Z"/></g>
<g><path style="opacity:1" fill="#060606" d="M 424.5,732.5 C 425.552,732.351 426.552,732.517 427.5,733C 424.311,733.981 423.978,735.314 426.5,737C 424.812,739.825 423.979,742.991 424,746.5C 424.021,742.991 423.188,739.825 421.5,737C 423.117,735.908 424.117,734.408 424.5,732.5 Z"/></g>
<g><path style="opacity:1" fill="#646464" d="M 429.5,732.5 C 431.337,732.639 431.67,733.306 430.5,734.5C 429.702,734.043 429.369,733.376 429.5,732.5 Z"/></g>
<g><path style="opacity:1" fill="#3a3a3a" d="M 477.5,732.5 C 479.337,732.639 479.67,733.306 478.5,734.5C 477.702,734.043 477.369,733.376 477.5,732.5 Z"/></g>
<g><path style="opacity:1" fill="#636363" d="M 490.5,733.5 C 489.515,737.634 489.182,741.968 489.5,746.5C 488.188,741.985 488.188,737.318 489.5,732.5C 490.107,732.624 490.44,732.957 490.5,733.5 Z"/></g>
<g><path style="opacity:1" fill="#060606" d="M 490.5,733.5 C 490.232,735.099 490.566,736.432 491.5,737.5C 490.912,740.61 490.245,743.61 489.5,746.5C 489.182,741.968 489.515,737.634 490.5,733.5 Z"/></g>
<g><path style="opacity:1" fill="#1a1a1a" d="M 505.5,745.5 C 506.833,742.833 506.833,740.167 505.5,737.5C 507.045,736.77 507.878,735.437 508,733.5C 508.667,737.833 508.667,742.167 508,746.5C 507.329,745.748 506.496,745.414 505.5,745.5 Z"/></g>
<g><path style="opacity:1" fill="#565656" d="M 554.5,732.5 C 555.805,734.397 556.471,736.731 556.5,739.5C 556.167,741.833 555.833,744.167 555.5,746.5C 554.507,741.88 554.173,737.214 554.5,732.5 Z"/></g>
<g><path style="opacity:1" fill="#2e2e2e" d="M 411.5,736.5 C 414.119,736.232 416.619,736.565 419,737.5C 419.821,740.554 419.655,743.554 418.5,746.5C 417.516,743.572 417.183,740.572 417.5,737.5C 416.178,737.33 415.011,737.663 414,738.5C 413.818,741.226 413.318,743.893 412.5,746.5C 411.513,743.232 411.18,739.898 411.5,736.5 Z"/></g>
<g><path style="opacity:1" fill="#292929" d="M 433.5,736.5 C 435.199,736.34 436.866,736.506 438.5,737C 437.584,737.374 436.75,737.874 436,738.5C 435.818,741.226 435.318,743.893 434.5,746.5C 433.513,743.232 433.18,739.898 433.5,736.5 Z"/></g>
<g><path style="opacity:1" fill="#535353" d="M 477.5,736.5 C 478.777,737.694 479.444,739.36 479.5,741.5C 479.167,743.167 478.833,744.833 478.5,746.5C 477.513,743.232 477.18,739.898 477.5,736.5 Z"/></g>
<g><path style="opacity:1" fill="#2c2c2c" d="M 482.5,733.5 C 483.931,734.446 485.264,735.612 486.5,737C 485.316,738.18 484.649,739.68 484.5,741.5C 484.649,743.32 485.316,744.82 486.5,746C 485.216,746.684 484.049,746.517 483,745.5C 482.135,741.36 481.968,737.36 482.5,733.5 Z"/></g>
<g><path style="opacity:1" fill="#262626" d="M 491.5,737.5 C 493.489,736.113 495.322,736.447 497,738.5C 496.995,749.167 496.328,749.167 495,738.5C 493.989,737.663 492.822,737.33 491.5,737.5 Z"/></g>
<g><path style="opacity:1" fill="#282828" d="M 511.5,736.5 C 513.199,736.34 514.866,736.506 516.5,737C 515.584,737.374 514.75,737.874 514,738.5C 513.818,741.226 513.318,743.893 512.5,746.5C 511.513,743.232 511.18,739.898 511.5,736.5 Z"/></g>
<g><path style="opacity:1" fill="#212121" d="M 389.5,732.5 C 393.883,731.755 396.383,733.422 397,737.5C 392.6,733.012 389.433,733.679 387.5,739.5C 388.94,744.805 391.94,745.805 396.5,742.5C 397.594,743.868 397.26,745.035 395.5,746C 388.24,747.033 385.407,743.867 387,736.5C 387.662,735.016 388.496,733.683 389.5,732.5 Z"/></g>
<g><path style="opacity:1" fill="#2b2b2b" d="M 440.5,736.5 C 444.913,737.253 449.246,737.587 453.5,737.5C 454.748,740.494 454.748,743.494 453.5,746.5C 451.5,734.5 449.5,734.5 447.5,746.5C 445.5,734.5 443.5,734.5 441.5,746.5C 440.513,743.232 440.18,739.898 440.5,736.5 Z"/></g>
<g><path style="opacity:1" fill="#1b1b1b" d="M 463.5,740.5 C 461.912,739.365 461.579,738.031 462.5,736.5C 463.429,737.689 463.762,739.022 463.5,740.5 Z"/></g>
<g><path style="opacity:1" fill="#f2f2f2" d="M 505.5,737.5 C 506.833,740.167 506.833,742.833 505.5,745.5C 502.512,745.845 501.179,744.512 501.5,741.5C 501.179,738.488 502.512,737.155 505.5,737.5 Z"/></g>
<g><path style="opacity:1" fill="#1e1e1e" d="M 519.5,736.5 C 521.792,736.244 523.959,736.577 526,737.5C 526.498,740.482 526.665,743.482 526.5,746.5C 523.881,746.768 521.381,746.435 519,745.5C 518.219,744.056 518.386,742.723 519.5,741.5C 519.911,742.262 520.077,743.262 520,744.5C 523.15,746.161 524.65,745.161 524.5,741.5C 520.5,741.167 520.5,740.833 524.5,740.5C 524.5,739.5 524.5,738.5 524.5,737.5C 522.738,737.357 521.071,737.691 519.5,738.5C 518.537,738.03 518.537,737.363 519.5,736.5 Z"/></g>
<g><path style="opacity:1" fill="#393939" d="M 528.5,736.5 C 530.825,737.655 531.992,739.655 532,742.5C 534.181,734.659 536.347,734.659 538.5,742.5C 539.205,740.328 540.205,738.328 541.5,736.5C 541.833,736.833 542.167,737.167 542.5,737.5C 541.164,740.51 539.831,743.51 538.5,746.5C 537.239,744.547 536.073,742.547 535,740.5C 534.457,742.631 533.624,744.631 532.5,746.5C 530.259,743.539 528.925,740.206 528.5,736.5 Z"/></g>
<g><path style="opacity:1" fill="#303030" d="M 505.5,737.5 C 502.512,737.155 501.179,738.488 501.5,741.5C 501.179,744.512 502.512,745.845 505.5,745.5C 501.805,747.177 499.805,745.844 499.5,741.5C 499.805,737.156 501.805,735.823 505.5,737.5 Z"/></g>
<g><path style="opacity:1" fill="#272727" d="M 406.5,745.5 C 402.136,747.619 399.803,746.119 399.5,741C 399.439,739.289 400.106,737.956 401.5,737C 408.077,735.409 410.244,737.909 408,744.5C 407.617,745.056 407.117,745.389 406.5,745.5 Z"/></g>
<g><path style="opacity:1" fill="#e8e8e8" d="M 406.5,745.5 C 401.742,744.978 400.408,742.478 402.5,738C 403.944,737.219 405.277,737.386 406.5,738.5C 407.672,740.823 407.672,743.156 406.5,745.5 Z"/></g>
<g><path style="opacity:1" fill="#383838" d="M 463.5,740.5 C 464.222,740.918 464.722,741.584 465,742.5C 465.876,740.275 467.043,738.275 468.5,736.5C 469.684,738.046 470.684,739.713 471.5,741.5C 472.357,740.264 473.023,738.931 473.5,737.5C 474.167,736.167 474.833,736.167 475.5,737.5C 474.314,740.603 472.98,743.603 471.5,746.5C 470.185,744.231 469.018,741.898 468,739.5C 467.624,742.01 466.79,744.343 465.5,746.5C 463.914,744.827 463.247,742.827 463.5,740.5 Z"/></g>
<g><path style="opacity:1" fill="#222222" d="M 549.5,745.5 C 548.081,746.451 546.415,746.784 544.5,746.5C 543.5,741.5 545.5,739.5 550.5,740.5C 550.5,739.5 550.5,738.5 550.5,737.5C 548.425,737.698 546.425,737.865 544.5,738C 546.683,736.306 549.016,736.139 551.5,737.5C 552.748,740.494 552.748,743.494 551.5,746.5C 550.817,746.137 550.15,745.804 549.5,745.5 Z"/></g>
<g><path style="opacity:1" fill="#e1e1e1" d="M 549.5,745.5 C 547.654,745.778 546.32,745.111 545.5,743.5C 546.85,742.05 548.516,741.383 550.5,741.5C 550.567,742.959 550.234,744.292 549.5,745.5 Z"/></g>
<g><path style="opacity:1" fill="#b3b3b3" d="M 101.5,747.5 C 165.503,747.167 229.503,747.5 293.5,748.5C 261.5,748.833 229.5,749.167 197.5,749.5C 165.16,749.5 133.16,748.833 101.5,747.5 Z"/></g>
<g><path style="opacity:1" fill="#5a5a5a" d="M 103.5,766.5 C 102.224,765.614 102.224,764.614 103.5,763.5C 106.372,761.829 107.872,762.495 108,765.5C 105.955,763.957 104.455,764.29 103.5,766.5 Z"/></g>
<g><path style="opacity:1" fill="#676767" d="M 113.5,765.5 C 115.5,765.5 117.5,765.5 119.5,765.5C 119.664,768.187 119.497,770.854 119,773.5C 117.274,774.576 115.441,774.743 113.5,774C 114.833,773.667 116.167,773.333 117.5,773C 112.851,772.198 111.517,769.698 113.5,765.5 Z"/></g>
<g><path style="opacity:1" fill="#585858" d="M 120.5,765.5 C 125.675,764.507 127.509,766.507 126,771.5C 125.902,769.381 125.069,767.714 123.5,766.5C 121.63,774.299 120.63,773.965 120.5,765.5 Z"/></g>
<g><path style="opacity:1" fill="#757575" d="M 139.5,765.5 C 140.999,766.678 141.999,768.345 142.5,770.5C 143.167,768.833 143.833,767.167 144.5,765.5C 145.474,767.743 145.808,770.076 145.5,772.5C 140.094,773.265 138.094,770.931 139.5,765.5 Z"/></g>
<g><path style="opacity:1" fill="#fbfbfb" d="M 114.5,766.5 C 115.5,766.5 116.5,766.5 117.5,766.5C 117.5,767.833 117.5,769.167 117.5,770.5C 116.5,770.5 115.5,770.5 114.5,770.5C 114.5,769.167 114.5,767.833 114.5,766.5 Z"/></g>
<g><path style="opacity:1" fill="#424242" d="M 135.5,763.5 C 136.267,764.172 136.934,765.005 137.5,766C 136.571,768.5 136.571,770.667 137.5,772.5C 135.95,770.667 134.95,768.501 134.5,766C 135.252,765.329 135.586,764.496 135.5,763.5 Z"/></g>
<g><path style="opacity:1" fill="#616161" d="M 152.5,765.5 C 155.95,764.756 157.616,766.09 157.5,769.5C 155.801,769.34 154.134,769.506 152.5,770C 153.025,770.692 153.692,771.192 154.5,771.5C 155.451,770.674 156.451,770.508 157.5,771C 151.756,773.387 150.09,771.554 152.5,765.5 Z"/></g>
<g><path style="opacity:1" fill="#686868" d="M 146.5,765.5 C 147.873,765.343 149.207,765.51 150.5,766C 149.036,767.864 148.036,770.031 147.5,772.5C 146.526,770.257 146.192,767.924 146.5,765.5 Z"/></g>
<g><path style="opacity:1" fill="#666666" d="M 128.5,765.5 C 130.167,765.5 131.833,765.5 133.5,765.5C 133.663,767.857 133.497,770.19 133,772.5C 126.062,772.056 125.895,770.223 132.5,767C 131.216,766.316 130.049,766.483 129,767.5C 128.536,766.906 128.369,766.239 128.5,765.5 Z"/></g>
<g><path style="opacity:1" fill="#404040" d="M 103.5,766.5 C 105.117,767.038 106.784,767.371 108.5,767.5C 108.985,772.159 107.152,773.492 103,771.5C 102.333,770.833 102.333,770.167 103,769.5C 104.612,772.079 106.112,772.079 107.5,769.5C 105.816,768.85 104.483,767.85 103.5,766.5 Z"/></g>
</svg>
