<?xml version="1.0" encoding="UTF-8"?>
<!DOCTYPE svg PUBLIC "-//W3C//DTD SVG 1.1//EN" "http://www.w3.org/Graphics/SVG/1.1/DTD/svg11.dtd">
<svg xmlns="http://www.w3.org/2000/svg" version="1.1" width="527px" height="381px" style="shape-rendering:geometricPrecision; text-rendering:geometricPrecision; image-rendering:optimizeQuality; fill-rule:evenodd; clip-rule:evenodd" xmlns:xlink="http://www.w3.org/1999/xlink">
<g><path style="opacity:1" fill="#d5daea" d="M 11.5,-0.5 C 180.833,-0.5 350.167,-0.5 519.5,-0.5C 522.167,1.5 524.5,3.83333 526.5,6.5C 526.5,126.5 526.5,246.5 526.5,366.5C 525.194,368.473 523.527,370.139 521.5,371.5C 520.527,371.987 519.527,372.487 518.5,373C 434.167,373.167 349.833,373.333 265.5,373.5C 180.419,373.664 95.4194,373.164 10.5,372C 8.08333,370.337 6.24999,368.171 5,365.5C 4.5,246.5 4.33333,127.5 4.5,8.5C 5.72521,4.61155 8.05854,1.61155 11.5,-0.5 Z"/></g>
<g><path style="opacity:0.996" fill="#000000" d="M 4.5,8.5 C 4.33333,127.5 4.5,246.5 5,365.5C 6.24999,368.171 8.08333,370.337 10.5,372C 95.4194,373.164 180.419,373.664 265.5,373.5C 349.833,373.333 434.167,373.167 518.5,373C 519.527,372.487 520.527,371.987 521.5,371.5C 520.275,375.388 517.941,378.388 514.5,380.5C 345.167,380.5 175.833,380.5 6.5,380.5C 3.83333,378.5 1.5,376.167 -0.5,373.5C -0.5,253.5 -0.5,133.5 -0.5,13.5C 0.805998,11.5273 2.47266,9.86063 4.5,8.5 Z"/></g>
<g><path style="opacity:1" fill="#121314" d="M 451.5,249.5 C 404.5,249.5 357.5,249.5 310.5,249.5C 233.5,249.5 156.5,249.5 79.5,249.5C 78.8826,249.389 78.3826,249.056 78,248.5C 77.3333,177.5 77.3333,106.5 78,35.5C 140.43,34.8342 202.93,34.5009 265.5,34.5C 328.07,34.5009 390.57,34.8342 453,35.5C 453.167,71.1667 453.333,106.833 453.5,142.5C 453.5,178.506 452.833,214.173 451.5,249.5 Z"/></g>
<g><path style="opacity:1" fill="#2c3764" d="M 111.5,39.5 C 111.5,45.1667 111.5,50.8333 111.5,56.5C 101.833,56.5 92.1667,56.5 82.5,56.5C 82.5,50.8333 82.5,45.1667 82.5,39.5C 92.1667,39.5 101.833,39.5 111.5,39.5 Z"/></g>
<g><path style="opacity:1" fill="#2a3562" d="M 420.5,39.5 C 429.833,39.5 439.167,39.5 448.5,39.5C 448.5,45.1667 448.5,50.8333 448.5,56.5C 439.167,56.5 429.833,56.5 420.5,56.5C 420.5,50.8333 420.5,45.1667 420.5,39.5 Z"/></g>
<g><path style="opacity:1" fill="#646c8d" d="M 93.5,43.5 C 95.8333,43.5 98.1667,43.5 100.5,43.5C 100.5,44.5 100.5,45.5 100.5,46.5C 98.1667,46.5 95.8333,46.5 93.5,46.5C 93.5,45.5 93.5,44.5 93.5,43.5 Z"/></g>
<g><path style="opacity:1" fill="#878da7" d="M 432.5,41.5 C 433.822,41.33 434.989,41.6634 436,42.5C 437.202,44.6775 437.702,47.0108 437.5,49.5C 435.5,49.5 433.5,49.5 431.5,49.5C 431.401,46.7628 431.735,44.0961 432.5,41.5 Z"/></g>
<g><path style="opacity:1" fill="#313b67" d="M 432.5,45.5 C 433.151,46.0906 433.818,46.7573 434.5,47.5C 434.833,46.8333 435.167,46.1667 435.5,45.5C 436.386,46.325 436.719,47.325 436.5,48.5C 435.167,48.5 433.833,48.5 432.5,48.5C 432.5,47.5 432.5,46.5 432.5,45.5 Z"/></g>
<g><path style="opacity:1" fill="#7c839f" d="M 92.5,51.5 C 95.5719,51.1826 98.5719,51.5159 101.5,52.5C 100,52.8333 98.5,53.1667 97,53.5C 95.0145,53.4313 93.5145,52.7647 92.5,51.5 Z"/></g>
<g><path style="opacity:1" fill="#7c829e" d="M 430.5,50.5 C 431.222,50.9175 431.722,51.5842 432,52.5C 434.139,51.2309 436.305,51.2309 438.5,52.5C 435.914,53.48 433.247,53.8134 430.5,53.5C 430.5,52.5 430.5,51.5 430.5,50.5 Z"/></g>
<g><path style="opacity:1" fill="#747b99" d="M 111.5,39.5 C 111.833,39.5 112.167,39.5 112.5,39.5C 112.5,45.1667 112.5,50.8333 112.5,56.5C 185.167,56.5 257.833,56.5 330.5,56.5C 331.167,56.5 331.833,56.5 332.5,56.5C 341.833,56.5 351.167,56.5 360.5,56.5C 360.5,50.8333 360.5,45.1667 360.5,39.5C 360.833,39.5 361.167,39.5 361.5,39.5C 361.5,45.1667 361.5,50.8333 361.5,56.5C 370.833,56.5 380.167,56.5 389.5,56.5C 389.5,50.8333 389.5,45.1667 389.5,39.5C 389.833,39.5 390.167,39.5 390.5,39.5C 390.5,45.1667 390.5,50.8333 390.5,56.5C 400.167,56.5 409.833,56.5 419.5,56.5C 419.5,50.8333 419.5,45.1667 419.5,39.5C 419.833,39.5 420.167,39.5 420.5,39.5C 420.5,45.1667 420.5,50.8333 420.5,56.5C 429.833,56.5 439.167,56.5 448.5,56.5C 448.5,56.8333 448.5,57.1667 448.5,57.5C 409.5,57.5 370.5,57.5 331.5,57.5C 248.5,57.5 165.5,57.5 82.5,57.5C 82.5,57.1667 82.5,56.8333 82.5,56.5C 92.1667,56.5 101.833,56.5 111.5,56.5C 111.5,50.8333 111.5,45.1667 111.5,39.5 Z"/></g>
<g><path style="opacity:1" fill="#2b3563" d="M 390.5,39.5 C 400.167,39.5 409.833,39.5 419.5,39.5C 419.5,45.1667 419.5,50.8333 419.5,56.5C 409.833,56.5 400.167,56.5 390.5,56.5C 390.5,50.8333 390.5,45.1667 390.5,39.5 Z"/></g>
<g><path style="opacity:1" fill="#7d849f" d="M 405.5,50.5 C 406.643,50.9081 407.643,51.5748 408.5,52.5C 406.167,53.8333 403.833,53.8333 401.5,52.5C 402.949,51.8281 404.282,51.1614 405.5,50.5 Z"/></g>
<g><path style="opacity:1" fill="#656c8e" d="M 403.5,41.5 C 409.02,42.0435 410.354,44.5435 407.5,49C 400.193,49.5405 398.86,47.0405 403.5,41.5 Z"/></g>
<g><path style="opacity:1" fill="#293462" d="M 361.5,39.5 C 370.833,39.5 380.167,39.5 389.5,39.5C 389.5,45.1667 389.5,50.8333 389.5,56.5C 380.167,56.5 370.833,56.5 361.5,56.5C 361.5,50.8333 361.5,45.1667 361.5,39.5 Z"/></g>
<g><path style="opacity:1" fill="#7a819d" d="M 366.5,50.5 C 371.123,51.0782 375.623,51.0782 380,50.5C 381.635,50.8777 383.135,51.5444 384.5,52.5C 378.423,52.6844 372.423,53.0177 366.5,53.5C 366.5,52.5 366.5,51.5 366.5,50.5 Z"/></g>
<g><path style="opacity:1" fill="#9fa4b9" d="M 371.5,42.5 C 372.451,43.9187 372.784,45.5853 372.5,47.5C 374.5,47.5 376.5,47.5 378.5,47.5C 378.216,45.5853 378.549,43.9187 379.5,42.5C 380.427,48.5211 378.094,50.5211 372.5,48.5C 371.534,46.604 371.201,44.604 371.5,42.5 Z"/></g>
<g><path style="opacity:1" fill="#5b6386" d="M 371.5,42.5 C 374.167,41.1667 376.833,41.1667 379.5,42.5C 378.549,43.9187 378.216,45.5853 378.5,47.5C 376.5,47.5 374.5,47.5 372.5,47.5C 372.784,45.5853 372.451,43.9187 371.5,42.5 Z"/></g>
<g><path style="opacity:1" fill="#2a3462" d="M 332.5,39.5 C 341.833,39.5 351.167,39.5 360.5,39.5C 360.5,45.1667 360.5,50.8333 360.5,56.5C 351.167,56.5 341.833,56.5 332.5,56.5C 332.5,50.8333 332.5,45.1667 332.5,39.5 Z"/></g>
<g><path style="opacity:1" fill="#848aa4" d="M 340.5,51.5 C 344.341,51.3518 348.341,51.6851 352.5,52.5C 349.973,53.2136 347.473,53.8803 345,54.5C 342.974,54.0853 341.474,53.0853 340.5,51.5 Z"/></g>
<g><path style="opacity:1" fill="#9da2b7" d="M 341.5,42.5 C 344.5,42.5 347.5,42.5 350.5,42.5C 350.5,44.8333 350.5,47.1667 350.5,49.5C 347.5,49.5 344.5,49.5 341.5,49.5C 341.5,47.1667 341.5,44.8333 341.5,42.5 Z"/></g>
<g><path style="opacity:1" fill="#545c81" d="M 342.5,43.5 C 344.833,43.5 347.167,43.5 349.5,43.5C 349.785,45.288 349.452,46.9547 348.5,48.5C 346.833,47.1667 345.167,47.1667 343.5,48.5C 342.548,46.9547 342.215,45.288 342.5,43.5 Z"/></g>
<g><path style="opacity:1" fill="#4e577d" d="M 330.5,39.5 C 331.167,39.5 331.833,39.5 332.5,39.5C 332.5,45.1667 332.5,50.8333 332.5,56.5C 331.833,56.5 331.167,56.5 330.5,56.5C 330.5,50.8333 330.5,45.1667 330.5,39.5 Z"/></g>
<g><path style="opacity:1" fill="#293462" d="M 112.5,39.5 C 185.167,39.5 257.833,39.5 330.5,39.5C 330.5,45.1667 330.5,50.8333 330.5,56.5C 257.833,56.5 185.167,56.5 112.5,56.5C 112.5,50.8333 112.5,45.1667 112.5,39.5 Z"/></g>
<g><path style="opacity:1" fill="#848aa4" d="M 169.5,45.5 C 171.862,46.8103 174.195,47.3103 176.5,47C 177.93,48.8803 177.596,50.3803 175.5,51.5C 174.177,49.3176 172.51,48.6509 170.5,49.5C 169.571,48.3112 169.238,46.9778 169.5,45.5 Z"/></g>
<g><path style="opacity:1" fill="#838aa4" d="M 155.5,45.5 C 159.186,46.6483 162.853,46.6483 166.5,45.5C 167.415,46.3279 168.081,47.3279 168.5,48.5C 164.339,48.8555 160.005,49.5222 155.5,50.5C 155.5,48.8333 155.5,47.1667 155.5,45.5 Z"/></g>
<g><path style="opacity:1" fill="#4a537a" d="M 115.5,41.5 C 125.167,41.5 134.833,41.5 144.5,41.5C 144.5,45.8333 144.5,50.1667 144.5,54.5C 134.833,54.5 125.167,54.5 115.5,54.5C 115.5,50.1667 115.5,45.8333 115.5,41.5 Z"/></g>
<g><path style="opacity:1" fill="#8489a5" d="M 124.5,45.5 C 125.75,45.5774 126.583,46.244 127,47.5C 130.245,46.6852 133.412,46.3518 136.5,46.5C 137.833,47.8333 137.833,49.1667 136.5,50.5C 132.302,51.0172 128.136,50.3505 124,48.5C 123.667,48.8333 123.333,49.1667 123,49.5C 122.333,48.5 122.333,47.5 123,46.5C 124.107,47.7119 124.607,47.3786 124.5,45.5 Z"/></g>
<g><path style="opacity:1" fill="#d2d4de" d="M 82.5,57.5 C 165.5,57.5 248.5,57.5 331.5,57.5C 331.5,120.167 331.5,182.833 331.5,245.5C 248.5,245.5 165.5,245.5 82.5,245.5C 82.5,182.833 82.5,120.167 82.5,57.5 Z"/></g>
<g><path style="opacity:1" fill="#fafafb" d="M 331.5,57.5 C 370.5,57.5 409.5,57.5 448.5,57.5C 448.5,120.167 448.5,182.833 448.5,245.5C 409.5,245.5 370.5,245.5 331.5,245.5C 331.5,182.833 331.5,120.167 331.5,57.5 Z"/></g>
<g><path style="opacity:1" fill="#dbdde4" d="M 336.5,74.5 C 335.517,70.7016 335.183,66.7016 335.5,62.5C 371.833,62.5 408.167,62.5 444.5,62.5C 444.5,66.8333 444.5,71.1667 444.5,75.5C 408.329,75.8318 372.329,75.4984 336.5,74.5 Z"/></g>
<g><path style="opacity:1" fill="#b5b8c9" d="M 336.5,74.5 C 336.5,70.8333 336.5,67.1667 336.5,63.5C 372.167,63.5 407.833,63.5 443.5,63.5C 443.5,67.1667 443.5,70.8333 443.5,74.5C 407.833,74.5 372.167,74.5 336.5,74.5 Z"/></g>
<g><path style="opacity:1" fill="#8d8e94" d="M 87.5,62.5 C 92.5207,63.4823 97.354,64.149 102,64.5C 102.689,63.6433 103.522,62.9767 104.5,62.5C 106.071,63.3094 107.738,63.6427 109.5,63.5C 109.5,64.5 109.5,65.5 109.5,66.5C 102.189,66.1779 94.8558,66.1779 87.5,66.5C 87.5,65.1667 87.5,63.8333 87.5,62.5 Z"/></g>
<g><path style="opacity:1" fill="#fdfdfe" d="M 87.5,71.5 C 99.5,71.5 111.5,71.5 123.5,71.5C 123.5,83.5 123.5,95.5 123.5,107.5C 111.5,107.5 99.5,107.5 87.5,107.5C 87.5,95.5 87.5,83.5 87.5,71.5 Z"/></g>
<g><path style="opacity:1" fill="#fcfcfd" d="M 127.5,71.5 C 139.833,71.5 152.167,71.5 164.5,71.5C 164.5,83.5 164.5,95.5 164.5,107.5C 152.167,107.5 139.833,107.5 127.5,107.5C 127.5,95.5 127.5,83.5 127.5,71.5 Z"/></g>
<g><path style="opacity:1" fill="#fcfdfd" d="M 168.5,71.5 C 180.5,71.5 192.5,71.5 204.5,71.5C 204.5,83.5 204.5,95.5 204.5,107.5C 192.5,107.5 180.5,107.5 168.5,107.5C 168.5,95.5 168.5,83.5 168.5,71.5 Z"/></g>
<g><path style="opacity:1" fill="#fdfdfd" d="M 208.5,71.5 C 220.5,71.5 232.5,71.5 244.5,71.5C 244.5,83.5 244.5,95.5 244.5,107.5C 232.5,107.5 220.5,107.5 208.5,107.5C 208.5,95.5 208.5,83.5 208.5,71.5 Z"/></g>
<g><path style="opacity:1" fill="#fdfefe" d="M 249.5,71.5 C 261.5,71.5 273.5,71.5 285.5,71.5C 285.5,83.5 285.5,95.5 285.5,107.5C 273.5,107.5 261.5,107.5 249.5,107.5C 249.5,95.5 249.5,83.5 249.5,71.5 Z"/></g>
<g><path style="opacity:1" fill="#fefefe" d="M 289.5,71.5 C 301.833,71.5 314.167,71.5 326.5,71.5C 326.5,83.5 326.5,95.5 326.5,107.5C 314.167,107.5 301.833,107.5 289.5,107.5C 289.5,95.5 289.5,83.5 289.5,71.5 Z"/></g>
<g><path style="opacity:1" fill="#a8acbf" d="M 143.5,78.5 C 149.235,77.8213 150.902,80.1546 148.5,85.5C 148.346,84.0909 148.179,82.4242 148,80.5C 146.365,79.1514 144.865,79.3181 143.5,81C 144.449,81.6172 145.282,81.4506 146,80.5C 146.976,84.2517 146.31,84.9183 144,82.5C 144.324,86.389 143.491,86.389 141.5,82.5C 142.18,81.1401 142.847,79.8068 143.5,78.5 Z"/></g>
<g><path style="opacity:1" fill="#babdcc" d="M 109.5,79.5 C 108.839,80.7175 108.172,82.0508 107.5,83.5C 106.749,82.624 106.249,81.624 106,80.5C 104.43,82.2118 102.93,83.8785 101.5,85.5C 100.114,83.3874 100.448,81.3874 102.5,79.5C 104.973,78.2031 107.307,78.2031 109.5,79.5 Z"/></g>
<g><path style="opacity:1" fill="#8a90a9" d="M 182.5,79.5 C 184.928,80.3895 187.262,80.7229 189.5,80.5C 190.631,82.0745 190.798,83.7412 190,85.5C 189.667,84.5 189.333,83.5 189,82.5C 187.667,83.8333 186.333,83.8333 185,82.5C 184.667,83.5 184.333,84.5 184,85.5C 182.681,83.7505 182.181,81.7505 182.5,79.5 Z"/></g>
<g><path style="opacity:1" fill="#cfd1db" d="M 305.5,78.5 C 311.445,78.5575 312.779,81.0575 309.5,86C 306.285,86.502 304.619,85.002 304.5,81.5C 304.685,80.4163 305.018,79.4163 305.5,78.5 Z"/></g>
<g><path style="opacity:1" fill="#6a7191" d="M 307.5,80.5 C 309.76,81.2376 309.927,82.2376 308,83.5C 306.272,82.6477 306.105,81.6477 307.5,80.5 Z"/></g>
<g><path style="opacity:1" fill="#9a9fb5" d="M 269.5,78.5 C 270.289,78.7828 270.956,79.2828 271.5,80C 269.343,82.3222 267.01,84.4889 264.5,86.5C 263.479,85.9984 263.312,85.3317 264,84.5C 266.04,82.6298 267.873,80.6298 269.5,78.5 Z"/></g>
<g><path style="opacity:1" fill="#c5c5c5" d="M 391.5,79.5 C 392.847,80.1712 394.014,80.1712 395,79.5C 396.347,83.375 397.514,83.375 398.5,79.5C 399.5,80.8333 400.5,80.8333 401.5,79.5C 402.833,80.8333 402.833,82.1667 401.5,83.5C 398.348,83.2879 395.015,83.2879 391.5,83.5C 391.5,82.1667 391.5,80.8333 391.5,79.5 Z"/></g>
<g><path style="opacity:1" fill="#7a809d" d="M 109.5,79.5 C 109.739,81.4672 109.406,83.3005 108.5,85C 106.19,85.4966 103.857,85.6633 101.5,85.5C 102.93,83.8785 104.43,82.2118 106,80.5C 106.249,81.624 106.749,82.624 107.5,83.5C 108.172,82.0508 108.839,80.7175 109.5,79.5 Z"/></g>
<g><path style="opacity:1" fill="#9ca1b6" d="M 223.5,78.5 C 229.927,76.7618 232.594,79.0951 231.5,85.5C 228.5,85.5 225.5,85.5 222.5,85.5C 222.298,83.0504 222.631,80.717 223.5,78.5 Z"/></g>
<g><path style="opacity:1" fill="#fafafb" d="M 223.5,82.5 C 225.604,82.2011 227.604,82.5344 229.5,83.5C 228.5,83.8333 227.5,84.1667 226.5,84.5C 224.97,84.3601 223.97,83.6935 223.5,82.5 Z"/></g>
<g><path style="opacity:1" fill="#a7acbf" d="M 139.5,89.5 C 156.551,91.2245 156.551,92.2245 139.5,92.5C 139.5,91.5 139.5,90.5 139.5,89.5 Z"/></g>
<g><path style="opacity:1" fill="#a7abbe" d="M 217.5,89.5 C 220.321,89.5387 222.988,90.2054 225.5,91.5C 223.235,92.6474 220.902,92.8141 218.5,92C 217.748,91.3292 217.414,90.4959 217.5,89.5 Z"/></g>
<g><path style="opacity:1" fill="#a6aabd" d="M 274.5,89.5 C 277.403,91.245 277.07,92.245 273.5,92.5C 271.933,92.523 270.6,92.023 269.5,91C 271.382,90.8019 273.048,90.3019 274.5,89.5 Z"/></g>
<g><path style="opacity:1" fill="#abb0c2" d="M 98.5,89.5 C 102.725,90.556 106.891,90.556 111,89.5C 111.374,90.4162 111.874,91.2496 112.5,92C 109.167,92.6667 105.833,92.6667 102.5,92C 100.563,91.8784 99.2297,91.045 98.5,89.5 Z"/></g>
<g><path style="opacity:1" fill="#a9adbf" d="M 179.5,89.5 C 196.551,91.2245 196.551,92.2245 179.5,92.5C 179.5,91.5 179.5,90.5 179.5,89.5 Z"/></g>
<g><path style="opacity:1" fill="#bcbfcd" d="M 231.5,89.5 C 233.665,89.1159 235.332,89.7826 236.5,91.5C 234.5,92.8333 232.5,92.8333 230.5,91.5C 230.863,90.8165 231.196,90.1499 231.5,89.5 Z"/></g>
<g><path style="opacity:1" fill="#aaafc1" d="M 255.5,89.5 C 259.714,90.6586 263.881,90.6586 268,89.5C 268.483,90.448 268.649,91.448 268.5,92.5C 265.482,92.6646 262.482,92.498 259.5,92C 257.563,91.8784 256.23,91.045 255.5,89.5 Z"/></g>
<g><path style="opacity:1" fill="#bbbfcd" d="M 298.5,89.5 C 304.494,89.1246 310.494,89.6246 316.5,91C 310.683,92.4526 304.683,92.9526 298.5,92.5C 298.5,91.5 298.5,90.5 298.5,89.5 Z"/></g>
<g><path style="opacity:1" fill="#a8acbf" d="M 103.5,94.5 C 107.884,94.1744 112.217,94.5078 116.5,95.5C 113.634,96.208 110.8,96.8747 108,97.5C 105.974,97.0853 104.474,96.0853 103.5,94.5 Z"/></g>
<g><path style="opacity:1" fill="#a9adbf" d="M 94.5,94.5 C 97.487,94.652 100.154,94.9853 102.5,95.5C 101.167,95.8333 99.8333,96.1667 98.5,96.5C 96.6672,96.4146 95.3339,95.7479 94.5,94.5 Z"/></g>
<g><path style="opacity:1" fill="#a6aabd" d="M 137.5,94.5 C 141.018,95.1049 144.685,95.1049 148.5,94.5C 148.719,95.675 148.386,96.675 147.5,97.5C 144.634,96.2054 141.801,96.2054 139,97.5C 137.961,96.7562 137.461,95.7562 137.5,94.5 Z"/></g>
<g><path style="opacity:1" fill="#a8acbf" d="M 149.5,94.5 C 151.394,94.5858 153.394,94.9191 155.5,95.5C 154.5,95.8333 153.5,96.1667 152.5,96.5C 150.97,96.3601 149.97,95.6935 149.5,94.5 Z"/></g>
<g><path style="opacity:1" fill="#a9adc0" d="M 190.5,93.5 C 191.478,93.811 192.145,94.4777 192.5,95.5C 187.997,97.4517 183.664,97.4517 179.5,95.5C 183.313,94.8329 186.979,94.1663 190.5,93.5 Z"/></g>
<g><path style="opacity:1" fill="#a6aabd" d="M 303.5,95.5 C 306.217,94.8102 309.217,94.8102 312.5,95.5C 309.463,96.7412 306.463,96.7412 303.5,95.5 Z"/></g>
<g><path style="opacity:1" fill="#a0a5b9" d="M 186.5,98.5 C 189.147,99.0729 191.813,99.7396 194.5,100.5C 189.717,101.284 185.051,101.617 180.5,101.5C 179.833,101.167 179.167,100.833 178.5,100.5C 181.306,99.8324 183.972,99.1657 186.5,98.5 Z"/></g>
<g><path style="opacity:1" fill="#cbcbcb" d="M 339.5,105.5 C 341.17,105.751 342.67,106.418 344,107.5C 346.453,106.289 348.953,106.289 351.5,107.5C 351.291,108.086 350.957,108.586 350.5,109C 346.789,109.825 343.122,109.659 339.5,108.5C 338.209,107.473 338.209,106.473 339.5,105.5 Z"/></g>
<g><path style="opacity:1" fill="#d1d1d1" d="M 353.5,105.5 C 358.567,106.005 363.567,106.839 368.5,108C 368,108.5 367.5,109 367,109.5C 362.864,109.47 358.697,109.47 354.5,109.5C 353.571,108.311 353.238,106.978 353.5,105.5 Z"/></g>
<g><path style="opacity:1" fill="#fcfcfc" d="M 127.5,111.5 C 139.833,111.5 152.167,111.5 164.5,111.5C 164.5,123.833 164.5,136.167 164.5,148.5C 152.167,148.5 139.833,148.5 127.5,148.5C 127.5,136.167 127.5,123.833 127.5,111.5 Z"/></g>
<g><path style="opacity:1" fill="#fdfdfd" d="M 168.5,111.5 C 180.5,111.5 192.5,111.5 204.5,111.5C 204.5,123.833 204.5,136.167 204.5,148.5C 192.5,148.5 180.5,148.5 168.5,148.5C 168.5,136.167 168.5,123.833 168.5,111.5 Z"/></g>
<g><path style="opacity:1" fill="#fcfcfd" d="M 208.5,111.5 C 220.5,111.5 232.5,111.5 244.5,111.5C 244.5,123.833 244.5,136.167 244.5,148.5C 232.5,148.5 220.5,148.5 208.5,148.5C 208.5,136.167 208.5,123.833 208.5,111.5 Z"/></g>
<g><path style="opacity:1" fill="#8c92ab" d="M 225.5,118.5 C 230.326,118.904 232.326,121.571 231.5,126.5C 228.5,126.5 225.5,126.5 222.5,126.5C 222.144,123.224 223.144,120.557 225.5,118.5 Z"/></g>
<g><path style="opacity:1" fill="#f3f4f7" d="M 223.5,121.5 C 225.924,121.192 228.257,121.526 230.5,122.5C 229.333,122.833 228.167,123.167 227,123.5C 225.319,123.392 224.152,122.725 223.5,121.5 Z"/></g>
<g><path style="opacity:1" fill="#a5aabd" d="M 141.5,119.5 C 144.167,119.5 146.833,119.5 149.5,119.5C 149.5,121.833 149.5,124.167 149.5,126.5C 146.833,126.5 144.167,126.5 141.5,126.5C 141.5,124.167 141.5,121.833 141.5,119.5 Z"/></g>
<g><path style="opacity:1" fill="#9ba0b6" d="M 185.5,118.5 C 192.311,120.899 191.977,121.899 184.5,121.5C 184.457,125.893 184.957,126.226 186,122.5C 187,126.5 188,126.5 189,122.5C 189.309,123.766 189.809,124.933 190.5,126C 187.833,126.667 185.167,126.667 182.5,126C 183.833,124.333 183.833,122.667 182.5,121C 183.571,120.148 184.571,119.315 185.5,118.5 Z"/></g>
<g><path style="opacity:1" fill="#a9adc0" d="M 179.5,129.5 C 182.702,130.7 185.869,130.7 189,129.5C 190.205,130.071 191.372,130.738 192.5,131.5C 188.217,132.492 183.884,132.826 179.5,132.5C 179.5,131.5 179.5,130.5 179.5,129.5 Z"/></g>
<g><path style="opacity:1" fill="#a7abbe" d="M 152.5,129.5 C 154.823,130.058 157.157,130.725 159.5,131.5C 153.167,132.833 146.833,132.833 140.5,131.5C 144.647,130.833 148.647,130.166 152.5,129.5 Z"/></g>
<g><path style="opacity:1" fill="#a4a9bc" d="M 218.5,129.5 C 239.366,131.047 239.366,132.047 218.5,132.5C 218.5,131.5 218.5,130.5 218.5,129.5 Z"/></g>
<g><path style="opacity:1" fill="#9fa4b8" d="M 221.5,134.5 C 225.172,135.021 228.838,135.687 232.5,136.5C 228.5,137.833 224.5,137.833 220.5,136.5C 220.863,135.817 221.196,135.15 221.5,134.5 Z"/></g>
<g><path style="opacity:1" fill="#9ea3b8" d="M 140.5,134.5 C 144.172,135.021 147.838,135.687 151.5,136.5C 147.708,137.305 144.042,137.638 140.5,137.5C 139.438,136.575 139.438,135.575 140.5,134.5 Z"/></g>
<g><path style="opacity:1" fill="#a1a6ba" d="M 180.5,134.5 C 184.172,135.021 187.838,135.687 191.5,136.5C 187.5,137.833 183.5,137.833 179.5,136.5C 179.863,135.817 180.196,135.15 180.5,134.5 Z"/></g>
<g><path style="opacity:1" fill="#bdc1cf" d="M 135.5,139.5 C 142.532,139.17 149.532,139.503 156.5,140.5C 156.709,141.086 157.043,141.586 157.5,142C 150.174,142.5 142.841,142.666 135.5,142.5C 135.5,141.5 135.5,140.5 135.5,139.5 Z"/></g>
<g><path style="opacity:1" fill="#acb0c1" d="M 180.5,139.5 C 184.555,139.176 188.555,139.509 192.5,140.5C 189.384,141.398 186.218,142.064 183,142.5C 180.23,142.596 179.396,141.596 180.5,139.5 Z"/></g>
<g><path style="opacity:1" fill="#a7acbf" d="M 216.5,139.5 C 223.729,139.453 230.729,139.786 237.5,140.5C 236.009,141.244 234.509,141.91 233,142.5C 229.333,141.833 225.667,141.167 222,140.5C 219.661,142.078 217.828,141.745 216.5,139.5 Z"/></g>
<g><path style="opacity:1" fill="#d1d3dd" d="M 336.5,142.5 C 372.5,142.5 408.5,142.5 444.5,142.5C 444.5,146.167 444.5,149.833 444.5,153.5C 408.5,153.5 372.5,153.5 336.5,153.5C 336.5,149.833 336.5,146.167 336.5,142.5 Z"/></g>
<g><path style="opacity:1" fill="#9ea0a7" d="M 425.5,145.5 C 428.756,145.773 431.756,146.106 434.5,146.5C 433.96,147.748 433.293,148.915 432.5,150C 429.854,150.497 427.187,150.664 424.5,150.5C 424.366,148.708 424.699,147.042 425.5,145.5 Z"/></g>
<g><path style="opacity:1" fill="#7e7f85" d="M 372.5,145.5 C 375.785,145.736 378.785,146.736 381.5,148.5C 380.502,151.028 379.669,151.028 379,148.5C 376.974,149.019 374.974,149.353 373,149.5C 372.51,148.207 372.343,146.873 372.5,145.5 Z"/></g>
<g><path style="opacity:1" fill="#bdbec4" d="M 123.5,111.5 C 124.495,123.989 124.829,136.656 124.5,149.5C 111.833,149.5 99.1667,149.5 86.5,149.5C 86.5,136.5 86.5,123.5 86.5,110.5C 99.0113,110.171 111.345,110.505 123.5,111.5 Z"/></g>
<g><path style="opacity:1" fill="#fdfdfd" d="M 123.5,111.5 C 123.5,123.833 123.5,136.167 123.5,148.5C 111.5,148.5 99.5,148.5 87.5,148.5C 87.5,136.167 87.5,123.833 87.5,111.5C 99.5,111.5 111.5,111.5 123.5,111.5 Z"/></g>
<g><path style="opacity:1" fill="#b5b9c8" d="M 96.5,138.5 C 102.586,139.717 108.586,140.217 114.5,140C 113.874,140.75 113.374,141.584 113,142.5C 106.861,141.888 101.194,141.888 96,142.5C 94.4132,141.154 94.5798,139.821 96.5,138.5 Z"/></g>
<g><path style="opacity:1" fill="#9ea3b8" d="M 108.5,134.5 C 109.478,134.811 110.145,135.478 110.5,136.5C 107.167,137.833 103.833,137.833 100.5,136.5C 103.306,135.832 105.972,135.166 108.5,134.5 Z"/></g>
<g><path style="opacity:1" fill="#a3a8bb" d="M 105.5,130.5 C 108.344,131.248 111.344,131.582 114.5,131.5C 113,131.833 111.5,132.167 110,132.5C 108.014,132.431 106.514,131.765 105.5,130.5 Z"/></g>
<g><path style="opacity:1" fill="#a8adbf" d="M 95.5,129.5 C 98.5691,130.108 101.236,130.775 103.5,131.5C 100.914,132.48 98.2469,132.813 95.5,132.5C 95.5,131.5 95.5,130.5 95.5,129.5 Z"/></g>
<g><path style="opacity:1" fill="#999eb4" d="M 101.5,119.5 C 104.167,119.5 106.833,119.5 109.5,119.5C 109.5,121.833 109.5,124.167 109.5,126.5C 106.833,126.5 104.167,126.5 101.5,126.5C 101.5,124.167 101.5,121.833 101.5,119.5 Z"/></g>
<g><path style="opacity:1" fill="#fcfcfd" d="M 102.5,120.5 C 104.5,120.833 106.5,121.167 108.5,121.5C 108.5,122.833 108.5,124.167 108.5,125.5C 106.5,125.5 104.5,125.5 102.5,125.5C 102.5,123.833 102.5,122.167 102.5,120.5 Z"/></g>
<g><path style="opacity:1" fill="#88898f" d="M 338.5,145.5 C 340.842,145.775 340.842,146.608 338.5,148C 339,148.167 339.5,148.333 340,148.5C 342.381,148.483 344.881,147.817 347.5,146.5C 351.388,147.389 355.388,147.389 359.5,146.5C 363.5,147.833 363.5,149.167 359.5,150.5C 354.494,149.736 349.994,149.736 346,150.5C 345.374,148.009 344.541,148.009 343.5,150.5C 342.167,149.167 340.833,149.167 339.5,150.5C 337.296,149.218 336.962,147.551 338.5,145.5 Z"/></g>
<g><path style="opacity:1" fill="#88898f" d="M 436.5,145.5 C 437.239,145.369 437.906,145.536 438.5,146C 437.304,146.654 437.304,147.154 438.5,147.5C 439.5,146.833 440.5,146.167 441.5,145.5C 443.077,150.588 441.744,151.588 437.5,148.5C 436.614,147.675 436.281,146.675 436.5,145.5 Z"/></g>
<g><path style="opacity:1" fill="#a0a5b9" d="M 426.5,163.5 C 431.179,163.987 435.846,164.653 440.5,165.5C 436.069,166.281 431.569,166.615 427,166.5C 426.517,165.552 426.351,164.552 426.5,163.5 Z"/></g>
<g><path style="opacity:1" fill="#878787" d="M 366.5,165.5 C 368.465,165.948 368.798,166.948 367.5,168.5C 366.614,167.675 366.281,166.675 366.5,165.5 Z"/></g>
<g><path style="opacity:1" fill="#9d9d9d" d="M 389.5,165.5 C 391.97,166.36 392.137,167.694 390,169.5C 388.666,168.122 388.499,166.789 389.5,165.5 Z"/></g>
<g><path style="opacity:1" fill="#a4a9bc" d="M 430.5,168.5 C 433.247,168.187 435.914,168.52 438.5,169.5C 437.167,169.833 435.833,170.167 434.5,170.5C 432.667,170.415 431.334,169.748 430.5,168.5 Z"/></g>
<g><path style="opacity:1" fill="#d5d7e0" d="M 380.5,197.5 C 379.51,191.355 379.177,185.022 379.5,178.5C 386.5,178.5 393.5,178.5 400.5,178.5C 400.5,185.167 400.5,191.833 400.5,198.5C 393.646,198.824 386.979,198.491 380.5,197.5 Z"/></g>
<g><path style="opacity:1" fill="#fefefe" d="M 380.5,197.5 C 380.5,191.5 380.5,185.5 380.5,179.5C 386.833,179.5 393.167,179.5 399.5,179.5C 399.5,185.5 399.5,191.5 399.5,197.5C 393.167,197.5 386.833,197.5 380.5,197.5 Z"/></g>
<g><path style="opacity:1" fill="#9b9b9b" d="M 388.5,186.5 C 391.388,187.54 391.721,188.873 389.5,190.5C 388.571,189.311 388.238,187.978 388.5,186.5 Z"/></g>
<g><path style="opacity:1" fill="#d6d8e1" d="M 424.5,178.5 C 431.167,178.5 437.833,178.5 444.5,178.5C 444.5,185.167 444.5,191.833 444.5,198.5C 437.833,198.5 431.167,198.5 424.5,198.5C 424.5,191.833 424.5,185.167 424.5,178.5 Z"/></g>
<g><path style="opacity:1" fill="#fdfdfd" d="M 425.5,179.5 C 431.5,179.5 437.5,179.5 443.5,179.5C 443.5,185.5 443.5,191.5 443.5,197.5C 437.5,197.5 431.5,197.5 425.5,197.5C 425.5,191.5 425.5,185.5 425.5,179.5 Z"/></g>
<g><path style="opacity:1" fill="#afb3c4" d="M 428.5,189.5 C 432.367,190.729 436.2,190.729 440,189.5C 440.483,190.448 440.649,191.448 440.5,192.5C 436.818,192.665 433.152,192.499 429.5,192C 428.748,191.329 428.414,190.496 428.5,189.5 Z"/></g>
<g><path style="opacity:1" fill="#a0a4b9" d="M 428.5,184.5 C 432.452,185.196 436.452,185.696 440.5,186C 439.638,188.734 438.805,188.901 438,186.5C 437,187.167 436,187.833 435,188.5C 432.959,187.577 430.792,187.244 428.5,187.5C 428.5,186.5 428.5,185.5 428.5,184.5 Z"/></g>
<g><path style="opacity:1" fill="#b2b6c6" d="M 421.5,206.5 C 427.158,205.679 428.825,207.846 426.5,213C 420.244,213.934 418.577,211.767 421.5,206.5 Z"/></g>
<g><path style="opacity:1" fill="#a2a2a2" d="M 389.5,207.5 C 391.104,208.287 391.771,209.62 391.5,211.5C 390.448,211.649 389.448,211.483 388.5,211C 389.337,209.989 389.67,208.822 389.5,207.5 Z"/></g>
<g><path style="opacity:1" fill="#737998" d="M 402.5,222.5 C 416.323,221.504 430.323,221.171 444.5,221.5C 444.823,228.022 444.49,234.355 443.5,240.5C 443.5,234.5 443.5,228.5 443.5,222.5C 429.833,222.5 416.167,222.5 402.5,222.5 Z"/></g>
<g><path style="opacity:1" fill="#293462" d="M 402.5,222.5 C 416.167,222.5 429.833,222.5 443.5,222.5C 443.5,228.5 443.5,234.5 443.5,240.5C 429.833,240.5 416.167,240.5 402.5,240.5C 402.5,234.5 402.5,228.5 402.5,222.5 Z"/></g>
<g><path style="opacity:1" fill="#2c3764" d="M 86.5,222.5 C 99.1667,222.5 111.833,222.5 124.5,222.5C 124.5,228.5 124.5,234.5 124.5,240.5C 111.833,240.5 99.1667,240.5 86.5,240.5C 86.5,234.5 86.5,228.5 86.5,222.5 Z"/></g>
<g><path style="opacity:1" fill="#2a3563" d="M 127.5,222.5 C 139.833,222.5 152.167,222.5 164.5,222.5C 164.5,228.5 164.5,234.5 164.5,240.5C 152.167,240.5 139.833,240.5 127.5,240.5C 127.5,234.5 127.5,228.5 127.5,222.5 Z"/></g>
<g><path style="opacity:1" fill="#fcfdfd" d="M 249.5,222.5 C 261.5,222.5 273.5,222.5 285.5,222.5C 285.5,228.5 285.5,234.5 285.5,240.5C 273.5,240.5 261.5,240.5 249.5,240.5C 249.5,234.5 249.5,228.5 249.5,222.5 Z"/></g>
<g><path style="opacity:1" fill="#293462" d="M 289.5,222.5 C 301.833,222.5 314.167,222.5 326.5,222.5C 326.5,228.5 326.5,234.5 326.5,240.5C 314.167,240.5 301.833,240.5 289.5,240.5C 289.5,234.5 289.5,228.5 289.5,222.5 Z"/></g>
<g><path style="opacity:1" fill="#9398b0" d="M 96.5,228.5 C 97.9953,228.415 98.9953,229.081 99.5,230.5C 99.0234,231.931 98.3567,233.264 97.5,234.5C 96.7702,233.066 95.7702,231.9 94.5,231C 95.3805,230.292 96.0472,229.458 96.5,228.5 Z"/></g>
<g><path style="opacity:1" fill="#787f9c" d="M 103.5,229.5 C 105.17,229.751 106.67,230.418 108,231.5C 109.356,230.62 110.856,230.286 112.5,230.5C 112.5,231.5 112.5,232.5 112.5,233.5C 109.518,233.037 106.518,232.704 103.5,232.5C 103.5,231.5 103.5,230.5 103.5,229.5 Z"/></g>
<g><path style="opacity:1" fill="#737a98" d="M 113.5,230.5 C 115.429,230.231 117.095,230.731 118.5,232C 116.202,233.858 114.535,233.358 113.5,230.5 Z"/></g>
<g><path style="opacity:1" fill="#717896" d="M 141.5,229.5 C 143.17,229.751 144.67,230.418 146,231.5C 149.218,231.621 152.551,231.288 156,230.5C 158.051,230.423 159.884,230.923 161.5,232C 155.041,233.26 148.708,233.427 142.5,232.5C 141.614,231.675 141.281,230.675 141.5,229.5 Z"/></g>
<g><path style="opacity:1" fill="#a5aabd" d="M 385.5,229.5 C 398.71,230.622 398.71,231.622 385.5,232.5C 385.5,231.5 385.5,230.5 385.5,229.5 Z"/></g>
<g><path style="opacity:1" fill="#838aa4" d="M 418.5,229.5 C 422.012,229.313 425.345,229.979 428.5,231.5C 425.185,232.312 422.019,232.646 419,232.5C 418.517,231.552 418.351,230.552 418.5,229.5 Z"/></g>
<g><path style="opacity:1" fill="#b3b7c7" d="M 134.5,228.5 C 135.29,229.609 135.79,230.942 136,232.5C 136.811,231.04 137.645,230.707 138.5,231.5C 136.522,234.745 134.522,234.912 132.5,232C 133.973,231.29 134.64,230.124 134.5,228.5 Z"/></g>
<g><path style="opacity:1" fill="#b7baca" d="M 263.5,230.5 C 265.824,230.995 267.991,230.995 270,230.5C 271.169,231.009 272.002,231.842 272.5,233C 269.668,233.212 267.002,233.379 264.5,233.5C 263.614,232.675 263.281,231.675 263.5,230.5 Z"/></g>
<g><path style="opacity:1" fill="#6c7393" d="M 303.5,230.5 C 306.5,230.5 309.5,230.5 312.5,230.5C 312.5,231.5 312.5,232.5 312.5,233.5C 310.143,233.663 307.81,233.497 305.5,233C 304.244,232.583 303.577,231.75 303.5,230.5 Z"/></g>
<g><path style="opacity:1" fill="#2c2d2d" d="M 79.5,249.5 C 156.5,249.5 233.5,249.5 310.5,249.5C 310.5,271.5 310.5,293.5 310.5,315.5C 309.883,315.611 309.383,315.944 309,316.5C 308.439,314.275 307.439,312.275 306,310.5C 305.085,311.328 304.419,312.328 304,313.5C 302.018,309.854 299.351,306.854 296,304.5C 295.667,305.167 295.333,305.833 295,306.5C 294.07,304.448 292.57,302.948 290.5,302C 291.019,299.974 291.353,297.974 291.5,296C 290.4,295.568 289.733,296.068 289.5,297.5C 290.137,298.782 290.137,299.782 289.5,300.5C 288.23,299.438 287.063,298.438 286,297.5C 285,297.833 284,298.167 283,298.5C 282.667,297.5 282.333,296.5 282,295.5C 281.282,296.451 280.449,296.617 279.5,296C 279.868,294.527 279.368,293.027 278,291.5C 277,292.833 276,292.833 275,291.5C 273.333,294.167 271.667,294.167 270,291.5C 269.193,295.449 268.693,295.449 268.5,291.5C 265.354,291.344 262.854,290.011 261,287.5C 258.697,288.751 257.364,290.751 257,293.5C 255.991,291.975 255.491,290.308 255.5,288.5C 252.203,288.329 251.869,288.995 254.5,290.5C 253.726,291.711 252.893,291.711 252,290.5C 251.323,292.689 250.156,293.022 248.5,291.5C 247.18,293.27 245.68,293.603 244,292.5C 243.676,294.569 242.842,294.902 241.5,293.5C 240.396,294.631 240.729,295.465 242.5,296C 240.989,297.615 239.656,297.615 238.5,296C 238.833,295.667 239.167,295.333 239.5,295C 236.959,293.051 235.626,293.885 235.5,297.5C 236.523,300.598 235.356,301.265 232,299.5C 229.264,301.029 229.098,302.529 231.5,304C 229.056,304.804 227.222,306.304 226,308.5C 225.586,308.043 225.086,307.709 224.5,307.5C 223.143,309.565 221.81,311.565 220.5,313.5C 220.831,292.327 220.497,271.327 219.5,250.5C 172.664,250.832 125.997,250.499 79.5,249.5 Z"/></g>
<g><path style="opacity:1" fill="#2f2f30" d="M 310.5,315.5 C 310.5,320.167 310.5,324.833 310.5,329.5C 308.508,329.672 306.842,329.005 305.5,327.5C 302.997,328.55 301.497,327.55 301,324.5C 299.417,324.493 297.751,324.826 296,325.5C 294.418,324.04 293.085,322.373 292,320.5C 291.667,321.5 291.333,322.5 291,323.5C 289.329,321.724 287.496,321.39 285.5,322.5C 284.808,321.975 284.308,321.308 284,320.5C 283.667,320.833 283.333,321.167 283,321.5C 280.89,319.875 278.557,318.542 276,317.5C 273.598,320.258 271.598,319.925 270,316.5C 269.632,317.91 268.799,318.91 267.5,319.5C 266.167,318.167 264.833,318.167 263.5,319.5C 261.742,318.872 260.242,317.872 259,316.5C 256.865,319.456 254.532,319.789 252,317.5C 250.605,318.815 249.605,318.481 249,316.5C 248.16,319.464 247.16,319.797 246,317.5C 245,320.167 244,320.167 243,317.5C 242.667,318.5 242.333,319.5 242,320.5C 240.853,319.542 239.853,319.875 239,321.5C 238.333,317.5 237.667,317.5 237,321.5C 235,322.833 233,322.833 231,321.5C 228.531,325.464 225.031,328.13 220.5,329.5C 220.5,324.167 220.5,318.833 220.5,313.5C 221.81,311.565 223.143,309.565 224.5,307.5C 225.086,307.709 225.586,308.043 226,308.5C 227.222,306.304 229.056,304.804 231.5,304C 229.098,302.529 229.264,301.029 232,299.5C 235.356,301.265 236.523,300.598 235.5,297.5C 235.626,293.885 236.959,293.051 239.5,295C 239.167,295.333 238.833,295.667 238.5,296C 239.656,297.615 240.989,297.615 242.5,296C 240.729,295.465 240.396,294.631 241.5,293.5C 242.842,294.902 243.676,294.569 244,292.5C 245.68,293.603 247.18,293.27 248.5,291.5C 250.156,293.022 251.323,292.689 252,290.5C 252.893,291.711 253.726,291.711 254.5,290.5C 251.869,288.995 252.203,288.329 255.5,288.5C 255.491,290.308 255.991,291.975 257,293.5C 257.364,290.751 258.697,288.751 261,287.5C 262.854,290.011 265.354,291.344 268.5,291.5C 268.693,295.449 269.193,295.449 270,291.5C 271.667,294.167 273.333,294.167 275,291.5C 276,292.833 277,292.833 278,291.5C 279.368,293.027 279.868,294.527 279.5,296C 280.449,296.617 281.282,296.451 282,295.5C 282.333,296.5 282.667,297.5 283,298.5C 284,298.167 285,297.833 286,297.5C 287.063,298.438 288.23,299.438 289.5,300.5C 290.137,299.782 290.137,298.782 289.5,297.5C 289.733,296.068 290.4,295.568 291.5,296C 291.353,297.974 291.019,299.974 290.5,302C 292.57,302.948 294.07,304.448 295,306.5C 295.333,305.833 295.667,305.167 296,304.5C 299.351,306.854 302.018,309.854 304,313.5C 304.419,312.328 305.085,311.328 306,310.5C 307.439,312.275 308.439,314.275 309,316.5C 309.383,315.944 309.883,315.611 310.5,315.5 Z"/></g>
<g><path style="opacity:1" fill="#999ca7" d="M 310.5,249.5 C 357.5,249.5 404.5,249.5 451.5,249.5C 405.003,250.499 358.336,250.832 311.5,250.5C 311.5,278.833 311.5,307.167 311.5,335.5C 310.662,335.158 310.328,334.492 310.5,333.5C 310.5,332.833 310.5,332.167 310.5,331.5C 310.5,330.833 310.5,330.167 310.5,329.5C 310.5,324.833 310.5,320.167 310.5,315.5C 310.5,293.5 310.5,271.5 310.5,249.5 Z"/></g>
<g><path style="opacity:1" fill="#3b3b3c" d="M 310.5,329.5 C 310.5,330.167 310.5,330.833 310.5,331.5C 280.814,331.093 250.814,331.093 220.5,331.5C 220.5,330.833 220.5,330.167 220.5,329.5C 225.031,328.13 228.531,325.464 231,321.5C 233,322.833 235,322.833 237,321.5C 237.667,317.5 238.333,317.5 239,321.5C 239.853,319.875 240.853,319.542 242,320.5C 242.333,319.5 242.667,318.5 243,317.5C 244,320.167 245,320.167 246,317.5C 247.16,319.797 248.16,319.464 249,316.5C 249.605,318.481 250.605,318.815 252,317.5C 254.532,319.789 256.865,319.456 259,316.5C 260.242,317.872 261.742,318.872 263.5,319.5C 264.833,318.167 266.167,318.167 267.5,319.5C 268.799,318.91 269.632,317.91 270,316.5C 271.598,319.925 273.598,320.258 276,317.5C 278.557,318.542 280.89,319.875 283,321.5C 283.333,321.167 283.667,320.833 284,320.5C 284.308,321.308 284.808,321.975 285.5,322.5C 287.496,321.39 289.329,321.724 291,323.5C 291.333,322.5 291.667,321.5 292,320.5C 293.085,322.373 294.418,324.04 296,325.5C 297.751,324.826 299.417,324.493 301,324.5C 301.497,327.55 302.997,328.55 305.5,327.5C 306.842,329.005 308.508,329.672 310.5,329.5 Z"/></g>
<g><path style="opacity:1" fill="#4d4d4d" d="M 310.5,331.5 C 310.5,332.167 310.5,332.833 310.5,333.5C 280.948,336.769 251.281,337.269 221.5,335C 220.663,333.989 220.33,332.822 220.5,331.5C 250.814,331.093 280.814,331.093 310.5,331.5 Z"/></g>
<g><path style="opacity:1" fill="#7c7d7e" d="M 219.5,250.5 C 220.497,271.327 220.831,292.327 220.5,313.5C 220.5,318.833 220.5,324.167 220.5,329.5C 220.5,330.167 220.5,330.833 220.5,331.5C 220.33,332.822 220.663,333.989 221.5,335C 251.281,337.269 280.948,336.769 310.5,333.5C 310.328,334.492 310.662,335.158 311.5,335.5C 312.262,337.956 312.929,340.456 313.5,343C 313.472,344.07 313.139,344.903 312.5,345.5C 312.5,344.167 312.5,342.833 312.5,341.5C 281.167,341.5 249.833,341.5 218.5,341.5C 218.5,342.833 218.5,344.167 218.5,345.5C 217.357,342.932 217.524,340.265 219,337.5C 219.5,308.502 219.667,279.502 219.5,250.5 Z"/></g>
<g><path style="opacity:1" fill="#3f3f3f" d="M 312.5,345.5 C 311.791,346.404 310.791,346.737 309.5,346.5C 309.5,345.167 309.5,343.833 309.5,342.5C 281.159,342.167 252.825,342.5 224.5,343.5C 223.807,344.518 223.141,345.518 222.5,346.5C 220.901,346.768 219.568,346.434 218.5,345.5C 218.5,344.167 218.5,342.833 218.5,341.5C 249.833,341.5 281.167,341.5 312.5,341.5C 312.5,342.833 312.5,344.167 312.5,345.5 Z"/></g>
<g><path style="opacity:1" fill="#272727" d="M 309.5,346.5 C 280.5,346.5 251.5,346.5 222.5,346.5C 223.141,345.518 223.807,344.518 224.5,343.5C 252.825,342.5 281.159,342.167 309.5,342.5C 309.5,343.833 309.5,345.167 309.5,346.5 Z"/></g>
</svg>
