<?xml version="1.0" encoding="UTF-8"?>
<!DOCTYPE svg PUBLIC "-//W3C//DTD SVG 1.1//EN" "http://www.w3.org/Graphics/SVG/1.1/DTD/svg11.dtd">
<svg xmlns="http://www.w3.org/2000/svg" version="1.1" width="1092px" height="2184px" style="shape-rendering:geometricPrecision; text-rendering:geometricPrecision; image-rendering:optimizeQuality; fill-rule:evenodd; clip-rule:evenodd" xmlns:xlink="http://www.w3.org/1999/xlink">
<g><path style="opacity:1" fill="#020202" d="M 1058.5,157.5 C 1055.15,145.992 1047.48,139.159 1035.5,137C 1029.18,136.5 1022.84,136.334 1016.5,136.5C 1016.48,122.961 1009.81,114.461 996.5,111C 702.167,110.333 407.833,110.333 113.5,111C 99.9342,114.069 92.6008,122.569 91.5,136.5C 84.4921,136.334 77.4921,136.5 70.5,137C 60.3092,140.026 53.6425,146.526 50.5,156.5C 50.5,104.833 50.5,53.1667 50.5,1.5C 386.5,1.5 722.5,1.5 1058.5,1.5C 1058.5,53.5 1058.5,105.5 1058.5,157.5 Z"/></g>
<g><path style="opacity:1" fill="#f4f4f4" d="M 842.5,46.5 C 845.167,46.5 847.833,46.5 850.5,46.5C 850.666,56.5056 850.5,66.5056 850,76.5C 847.667,77.8333 845.333,77.8333 843,76.5C 842.5,66.5056 842.334,56.5056 842.5,46.5 Z"/></g>
<g><path style="opacity:1" fill="#e7e7e7" d="M 178.5,47.5 C 185.906,46.7823 191.073,49.7823 194,56.5C 194.667,61.1667 194.667,65.8333 194,70.5C 190.79,79.7003 184.624,82.5336 175.5,79C 172.976,77.117 171.642,74.617 171.5,71.5C 174.864,70.7893 177.197,71.956 178.5,75C 186.504,76.2173 190.004,72.7173 189,64.5C 182.225,71.5957 176.225,70.9291 171,62.5C 169.808,55.5509 172.308,50.5509 178.5,47.5 Z"/></g>
<g><path style="opacity:1" fill="#ededed" d="M 880.5,47.5 C 891.121,45.9323 900.454,48.599 908.5,55.5C 907.46,57.3749 905.96,58.7082 904,59.5C 893.305,51.5513 882.638,51.5513 872,59.5C 869.435,58.6225 868.101,56.9558 868,54.5C 872.019,51.7447 876.185,49.4113 880.5,47.5 Z"/></g>
<g><path style="opacity:1" fill="#f0f0f0" d="M 222.5,49.5 C 225.167,49.5 227.833,49.5 230.5,49.5C 230.5,56.1667 230.5,62.8333 230.5,69.5C 231.833,69.5 233.167,69.5 234.5,69.5C 234.5,70.8333 234.5,72.1667 234.5,73.5C 233.5,73.5 232.5,73.5 231.5,73.5C 231.5,75.5 231.5,77.5 231.5,79.5C 229.5,79.5 227.5,79.5 225.5,79.5C 225.5,77.5 225.5,75.5 225.5,73.5C 220.5,73.5 215.5,73.5 210.5,73.5C 210.34,71.8008 210.506,70.1341 211,68.5C 214.342,61.8063 218.175,55.473 222.5,49.5 Z"/></g>
<g><path style="opacity:1" fill="#929292" d="M 222.5,49.5 C 225.287,48.5233 228.287,48.19 231.5,48.5C 231.5,55.1667 231.5,61.8333 231.5,68.5C 232.833,68.5 234.167,68.5 235.5,68.5C 235.784,70.4147 235.451,72.0813 234.5,73.5C 234.5,72.1667 234.5,70.8333 234.5,69.5C 233.167,69.5 231.833,69.5 230.5,69.5C 230.5,62.8333 230.5,56.1667 230.5,49.5C 227.833,49.5 225.167,49.5 222.5,49.5 Z"/></g>
<g><path style="opacity:1" fill="#f2f2f2" d="M 246.5,79.5 C 246.831,71.1401 246.498,62.8068 245.5,54.5C 244.893,54.6236 244.56,54.9569 244.5,55.5C 242.695,56.2371 241.029,57.2371 239.5,58.5C 238.369,56.9255 238.202,55.2588 239,53.5C 242.531,50.1105 246.697,48.4438 251.5,48.5C 251.5,58.8333 251.5,69.1667 251.5,79.5C 249.833,79.5 248.167,79.5 246.5,79.5 Z"/></g>
<g><path style="opacity:1" fill="#111111" d="M 179.5,52.5 C 188.823,52.7408 190.823,56.5742 185.5,64C 176.099,64.1871 174.099,60.3537 179.5,52.5 Z"/></g>
<g><path style="opacity:1" fill="#dadada" d="M 200.5,52.5 C 206.016,52.4734 207.349,54.64 204.5,59C 202.888,59.7203 201.388,59.5536 200,58.5C 199.51,56.4546 199.677,54.4546 200.5,52.5 Z"/></g>
<g><path style="opacity:1" fill="#e8e8e8" d="M 829.5,52.5 C 832.119,52.2317 834.619,52.565 837,53.5C 837.667,60.8333 837.667,68.1667 837,75.5C 834.282,78.0701 831.615,78.0701 829,75.5C 828.202,67.754 828.369,60.0873 829.5,52.5 Z"/></g>
<g><path style="opacity:1" fill="#111111" d="M 224.5,54.5 C 225.487,59.3054 225.821,64.3054 225.5,69.5C 222.15,69.665 218.817,69.4983 215.5,69C 218.386,64.0548 221.386,59.2215 224.5,54.5 Z"/></g>
<g><path style="opacity:1" fill="#545454" d="M 244.5,55.5 C 244.56,54.9569 244.893,54.6236 245.5,54.5C 246.498,62.8068 246.831,71.1401 246.5,79.5C 245.833,71.5 245.167,63.5 244.5,55.5 Z"/></g>
<g><path style="opacity:1" fill="#eaeaea" d="M 882.5,57.5 C 888.901,56.7138 894.735,58.0471 900,61.5C 900.723,64.1249 899.723,65.7916 897,66.5C 890.384,62.7585 883.884,62.5919 877.5,66C 876.313,64.9805 875.313,63.8139 874.5,62.5C 876.725,59.9062 879.391,58.2395 882.5,57.5 Z"/></g>
<g><path style="opacity:1" fill="#5c5c5c" d="M 991.5,56.5 C 996.587,59.5349 996.754,62.8683 992,66.5C 991.502,63.1832 991.335,59.8499 991.5,56.5 Z"/></g>
<g><path style="opacity:1" fill="#e8e8e8" d="M 815.5,59.5 C 818.119,59.2317 820.619,59.565 823,60.5C 823.667,65.5 823.667,70.5 823,75.5C 820.385,78.0701 817.718,78.0701 815,75.5C 814.219,70.0833 814.385,64.7499 815.5,59.5 Z"/></g>
<g><path style="opacity:1" fill="#f3f3f3" d="M 801.5,65.5 C 804.167,65.5 806.833,65.5 809.5,65.5C 809.665,68.8499 809.498,72.1832 809,75.5C 806.975,77.7253 804.642,78.0586 802,76.5C 801.501,72.8484 801.335,69.1817 801.5,65.5 Z"/></g>
<g><path style="opacity:1" fill="#e9e9e9" d="M 883.5,67.5 C 886.518,67.3354 889.518,67.502 892.5,68C 893.317,71.585 891.817,74.085 888,75.5C 885.719,74.2237 883.719,72.5571 882,70.5C 881.761,69.212 882.261,68.212 883.5,67.5 Z"/></g>
<g><path style="opacity:1" fill="#e2e2e2" d="M 201.5,68.5 C 206.493,68.997 207.493,71.1637 204.5,75C 199.148,75.1754 198.148,73.0087 201.5,68.5 Z"/></g>
<g><path style="opacity:1" fill="#575757" d="M 929.5,44.5 C 946.837,44.3334 964.17,44.5001 981.5,45C 984.102,45.8834 986.269,47.3834 988,49.5C 988.667,57.1667 988.667,64.8333 988,72.5C 986.878,74.6238 985.378,76.4571 983.5,78C 965.5,78.6667 947.5,78.6667 929.5,78C 927.274,76.7727 925.774,74.9393 925,72.5C 924.333,64.8333 924.333,57.1667 925,49.5C 926.707,47.9625 928.207,46.2959 929.5,44.5 Z"/></g>
<g><path style="opacity:1" fill="#111111" d="M 930.5,47.5 C 947.837,47.3334 965.17,47.5001 982.5,48C 983.667,49.1667 984.833,50.3333 986,51.5C 986.667,58.1667 986.667,64.8333 986,71.5C 985.167,73 984,74.1667 982.5,75C 964.833,75.6667 947.167,75.6667 929.5,75C 928.299,74.0975 927.465,72.9308 927,71.5C 926.333,64.8333 926.333,58.1667 927,51.5C 928.032,49.9733 929.199,48.64 930.5,47.5 Z"/></g>
<g><path style="opacity:1" fill="#f6f6f6" d="M 931.5,49.5 C 948.17,49.3334 964.837,49.5001 981.5,50C 982,50.5 982.5,51 983,51.5C 983.667,58.1667 983.667,64.8333 983,71.5C 982.5,72 982,72.5 981.5,73C 964.833,73.6667 948.167,73.6667 931.5,73C 931,72.5 930.5,72 930,71.5C 929.333,64.8333 929.333,58.1667 930,51.5C 930.717,50.9558 931.217,50.2891 931.5,49.5 Z"/></g>
<g><path style="opacity:1" fill="#e2e2e2" d="M 1016.5,136.5 C 708.167,136.5 399.833,136.5 91.5,136.5C 92.6008,122.569 99.9342,114.069 113.5,111C 407.833,110.333 702.167,110.333 996.5,111C 1009.81,114.461 1016.48,122.961 1016.5,136.5 Z"/></g>
<g><path style="opacity:1" fill="#fefefe" d="M 91.5,136.5 C 399.833,136.5 708.167,136.5 1016.5,136.5C 1022.84,136.334 1029.18,136.5 1035.5,137C 1047.48,139.159 1055.15,145.992 1058.5,157.5C 1058.5,235.167 1058.5,312.833 1058.5,390.5C 722.718,390.209 386.718,390.209 50.5,390.5C 50.5,312.5 50.5,234.5 50.5,156.5C 53.6425,146.526 60.3092,140.026 70.5,137C 77.4921,136.5 84.4921,136.334 91.5,136.5 Z"/></g>
<g><path style="opacity:1" fill="#454545" d="M 122.5,208.5 C 124.288,208.215 125.955,208.548 127.5,209.5C 120.5,215.833 113.833,222.5 107.5,229.5C 113.985,236.486 120.652,243.319 127.5,250C 125.741,250.798 124.074,250.631 122.5,249.5C 116.167,242.833 109.833,236.167 103.5,229.5C 110.247,222.759 116.581,215.759 122.5,208.5 Z"/></g>
<g><path style="opacity:1" fill="#c6c6c6" d="M 499.5,229.5 C 499.5,239.167 499.5,248.833 499.5,258.5C 500.833,258.5 502.167,258.5 503.5,258.5C 502.081,259.451 500.415,259.784 498.5,259.5C 498.173,249.319 498.506,239.319 499.5,229.5 Z"/></g>
<g><path style="opacity:1" fill="#404040" d="M 477.5,229.5 C 479.792,229.244 481.959,229.577 484,230.5C 487.52,238.936 491.186,247.27 495,255.5C 495.49,256.793 495.657,258.127 495.5,259.5C 493.712,259.785 492.045,259.452 490.5,258.5C 489.786,256.189 488.786,254.022 487.5,252C 482.833,251.333 478.167,251.333 473.5,252C 472.5,254.333 471.5,256.667 470.5,259C 468.741,259.798 467.074,259.631 465.5,258.5C 469.774,248.952 473.774,239.285 477.5,229.5 Z"/></g>
<g><path style="opacity:1" fill="#343434" d="M 499.5,229.5 C 500.833,229.5 502.167,229.5 503.5,229.5C 502.999,234.153 503.666,238.486 505.5,242.5C 502.933,246.797 502.933,251.13 505.5,255.5C 503.952,255.821 503.285,256.821 503.5,258.5C 502.167,258.5 500.833,258.5 499.5,258.5C 499.5,248.833 499.5,239.167 499.5,229.5 Z"/></g>
<g><path style="opacity:1" fill="#454545" d="M 579.5,232.5 C 581.308,233.918 581.975,235.918 581.5,238.5C 582.833,238.5 584.167,238.5 585.5,238.5C 585.5,239.5 585.5,240.5 585.5,241.5C 584.167,241.5 582.833,241.5 581.5,241.5C 581.5,246.167 581.5,250.833 581.5,255.5C 583.167,255.5 584.833,255.5 586.5,255.5C 586.5,256.833 586.5,258.167 586.5,259.5C 583.552,259.777 580.719,259.444 578,258.5C 576.596,252.956 576.096,247.29 576.5,241.5C 575.167,241.5 573.833,241.5 572.5,241.5C 572.5,240.5 572.5,239.5 572.5,238.5C 573.833,238.5 575.167,238.5 576.5,238.5C 576.028,235.642 577.028,233.642 579.5,232.5 Z"/></g>
<g><path style="opacity:1" fill="#e2e2e2" d="M 479.5,234.5 C 481.335,235.122 482.502,236.456 483,238.5C 484.143,241.777 484.977,245.11 485.5,248.5C 482.167,248.5 478.833,248.5 475.5,248.5C 476.227,243.654 477.56,238.987 479.5,234.5 Z"/></g>
<g><path style="opacity:1" fill="#474747" d="M 503.5,229.5 C 504.323,232.977 504.823,236.644 505,240.5C 510.13,237.475 514.796,238.142 519,242.5C 521.347,255.986 516.181,261.319 503.5,258.5C 503.285,256.821 503.952,255.821 505.5,255.5C 511.637,257.373 514.637,255.04 514.5,248.5C 514.714,241.801 511.714,239.801 505.5,242.5C 503.666,238.486 502.999,234.153 503.5,229.5 Z"/></g>
<g><path style="opacity:1" fill="#404040" d="M 528.5,238.5 C 541.177,236.012 546.344,241.012 544,253.5C 540.565,258.794 535.732,260.627 529.5,259C 527.714,258.215 526.214,257.049 525,255.5C 522.083,248.747 523.25,243.081 528.5,238.5 Z"/></g>
<g><path style="opacity:1" fill="#404040" d="M 603.5,238.5 C 605.451,238.227 606.951,238.893 608,240.5C 610.841,238.496 614.007,237.996 617.5,239C 619.5,242.333 621.5,242.333 623.5,239C 626.964,238.183 630.298,238.517 633.5,240C 634.126,240.75 634.626,241.584 635,242.5C 635.499,248.157 635.666,253.824 635.5,259.5C 633.833,259.5 632.167,259.5 630.5,259.5C 630.666,254.156 630.499,248.823 630,243.5C 627.333,240.833 624.667,240.833 622,243.5C 621.501,248.823 621.334,254.156 621.5,259.5C 619.833,259.5 618.167,259.5 616.5,259.5C 616.666,254.156 616.499,248.823 616,243.5C 614.192,241.604 612.025,241.104 609.5,242C 608.177,242.816 607.511,243.983 607.5,245.5C 606.515,249.634 606.182,253.968 606.5,258.5C 605.5,258.5 604.5,258.5 603.5,258.5C 603.5,251.833 603.5,245.167 603.5,238.5 Z"/></g>
<g><path style="opacity:1" fill="#404040" d="M 659.5,245.5 C 659.5,246.833 659.5,248.167 659.5,249.5C 654.5,249.5 649.5,249.5 644.5,249.5C 644.232,251.099 644.566,252.432 645.5,253.5C 647.407,256.332 650.073,257.166 653.5,256C 654.554,252.742 656.554,251.908 659.5,253.5C 658.872,255.258 657.872,256.758 656.5,258C 644.087,261.259 638.92,256.426 641,243.5C 642.046,241.91 643.213,240.41 644.5,239C 648.377,238.271 652.211,238.438 656,239.5C 658.235,240.896 659.402,242.896 659.5,245.5 Z"/></g>
<g><path style="opacity:1" fill="#404040" d="M 568.5,238.5 C 568.5,245.167 568.5,251.833 568.5,258.5C 566.508,258.672 564.842,258.005 563.5,256.5C 562.478,256.855 561.811,257.522 561.5,258.5C 557.453,260.355 553.953,259.688 551,256.5C 549.59,250.621 549.09,244.621 549.5,238.5C 551.167,238.5 552.833,238.5 554.5,238.5C 554.334,243.511 554.501,248.511 555,253.5C 557.152,255.816 559.652,256.15 562.5,254.5C 563.495,249.208 563.828,243.875 563.5,238.5C 565.167,238.5 566.833,238.5 568.5,238.5 Z"/></g>
<g><path style="opacity:1" fill="#c2c2c2" d="M 568.5,238.5 C 569.492,245.648 569.825,252.981 569.5,260.5C 566.583,260.635 563.916,259.968 561.5,258.5C 561.811,257.522 562.478,256.855 563.5,256.5C 564.842,258.005 566.508,258.672 568.5,258.5C 568.5,251.833 568.5,245.167 568.5,238.5 Z"/></g>
<g><path style="opacity:1" fill="#f2f2f2" d="M 531.5,240.5 C 539.121,240.946 541.621,244.946 539,252.5C 536.177,257.395 532.843,257.729 529,253.5C 527.842,248.693 528.676,244.36 531.5,240.5 Z"/></g>
<g><path style="opacity:1" fill="#efefef" d="M 648.5,240.5 C 652.693,240.362 655.027,242.362 655.5,246.5C 652.167,246.5 648.833,246.5 645.5,246.5C 645.615,244.053 646.615,242.053 648.5,240.5 Z"/></g>
<g><path style="opacity:1" fill="#f2f2f2" d="M 505.5,255.5 C 502.933,251.13 502.933,246.797 505.5,242.5C 511.714,239.801 514.714,241.801 514.5,248.5C 514.637,255.04 511.637,257.373 505.5,255.5 Z"/></g>
<g><path style="opacity:1" fill="#646464" d="M 603.5,238.5 C 603.5,245.167 603.5,251.833 603.5,258.5C 604.5,258.5 605.5,258.5 606.5,258.5C 606.182,253.968 606.515,249.634 607.5,245.5C 607.5,250.167 607.5,254.833 607.5,259.5C 605.833,259.5 604.167,259.5 602.5,259.5C 602.175,252.313 602.509,245.313 603.5,238.5 Z"/></g>
<g><path style="opacity:1" fill="#b7b7b7" d="M 659.5,245.5 C 660.451,246.919 660.784,248.585 660.5,250.5C 655.5,250.5 650.5,250.5 645.5,250.5C 645.5,251.5 645.5,252.5 645.5,253.5C 644.566,252.432 644.232,251.099 644.5,249.5C 649.5,249.5 654.5,249.5 659.5,249.5C 659.5,248.167 659.5,246.833 659.5,245.5 Z"/></g>
<g><path style="opacity:1" fill="#f2f2f2" d="M 135.5,304.5 C 190.833,304.5 246.167,304.5 301.5,304.5C 301.5,325.167 301.5,345.833 301.5,366.5C 246.167,366.5 190.833,366.5 135.5,366.5C 135.5,345.833 135.5,325.167 135.5,304.5 Z"/></g>
<g><path style="opacity:1" fill="#f2f2f2" d="M 475.5,304.5 C 528.167,304.5 580.833,304.5 633.5,304.5C 633.5,325.167 633.5,345.833 633.5,366.5C 580.833,366.5 528.167,366.5 475.5,366.5C 475.5,345.833 475.5,325.167 475.5,304.5 Z"/></g>
<g><path style="opacity:1" fill="#f2f2f2" d="M 767.5,304.5 C 849.5,304.5 931.5,304.5 1013.5,304.5C 1013.5,325.167 1013.5,345.833 1013.5,366.5C 931.5,366.5 849.5,366.5 767.5,366.5C 767.5,345.833 767.5,325.167 767.5,304.5 Z"/></g>
<g><path style="opacity:1" fill="#f5f4f4" d="M 1058.5,390.5 C 1058.5,391.5 1058.5,392.5 1058.5,393.5C 1036.88,394.823 1015.05,395.489 993,395.5C 912.988,394.255 833.322,394.255 754,395.5C 744.167,395.333 734.333,395.167 724.5,395C 723.975,394.308 723.308,393.808 722.5,393.5C 700.648,394.823 678.648,395.489 656.5,395.5C 577.623,394.278 499.456,394.278 422,395.5C 410.833,395.333 399.667,395.167 388.5,395C 387.975,394.308 387.308,393.808 386.5,393.5C 364.648,394.823 342.648,395.489 320.5,395.5C 242.391,394.294 164.391,394.294 86.5,395.5C 75.1667,395.333 63.8333,395.167 52.5,395C 51.9558,394.283 51.2891,393.783 50.5,393.5C 50.5,392.5 50.5,391.5 50.5,390.5C 386.718,390.209 722.718,390.209 1058.5,390.5 Z"/></g>
<g><path style="opacity:1" fill="#fefefe" d="M 50.5,393.5 C 51.2891,393.783 51.9558,394.283 52.5,395C 63.8333,395.167 75.1667,395.333 86.5,395.5C 164.391,394.294 242.391,394.294 320.5,395.5C 342.648,395.489 364.648,394.823 386.5,393.5C 387.308,393.808 387.975,394.308 388.5,395C 399.667,395.167 410.833,395.333 422,395.5C 499.456,394.278 577.623,394.278 656.5,395.5C 678.648,395.489 700.648,394.823 722.5,393.5C 723.308,393.808 723.975,394.308 724.5,395C 734.333,395.167 744.167,395.333 754,395.5C 833.322,394.255 912.988,394.255 993,395.5C 1015.05,395.489 1036.88,394.823 1058.5,393.5C 1058.5,990.167 1058.5,1586.83 1058.5,2183.5C 722.5,2183.5 386.5,2183.5 50.5,2183.5C 50.5,1586.83 50.5,990.167 50.5,393.5 Z"/></g>
<g><path style="opacity:1" fill="#f2f2f2" d="M 91.5,462.5 C 199.5,462.5 307.5,462.5 415.5,462.5C 415.827,483.076 415.493,503.576 414.5,524C 306.834,524.5 199.167,524.667 91.5,524.5C 91.5,503.833 91.5,483.167 91.5,462.5 Z"/></g>
<g><path style="opacity:1" fill="#f2f2f2" d="M 91.5,591.5 C 361.167,591.5 630.833,591.5 900.5,591.5C 900.5,608.833 900.5,626.167 900.5,643.5C 631.166,643.667 361.833,643.5 92.5,643C 91.5081,625.91 91.1747,608.744 91.5,591.5 Z"/></g>
<g><path style="opacity:1" fill="#f6f5f5" d="M 976.5,622.5 C 976.568,639.928 976.568,656.928 976.5,673.5C 983.167,673.5 989.833,673.5 996.5,673.5C 975.325,673.666 953.991,673.833 932.5,674C 931.508,656.91 931.175,639.744 931.5,622.5C 946.5,622.5 961.5,622.5 976.5,622.5 Z"/></g>
<g><path style="opacity:1" fill="#eeecec" d="M 976.5,622.5 C 983.167,622.5 989.833,622.5 996.5,622.5C 996.5,639.5 996.5,656.5 996.5,673.5C 989.833,673.5 983.167,673.5 976.5,673.5C 976.568,656.928 976.568,639.928 976.5,622.5 Z"/></g>
<g><path style="opacity:1" fill="#f2f2f2" d="M 91.5,653.5 C 361.167,653.5 630.833,653.5 900.5,653.5C 900.5,670.833 900.5,688.167 900.5,705.5C 631.166,705.667 361.833,705.5 92.5,705C 91.5081,687.91 91.1747,670.744 91.5,653.5 Z"/></g>
<g><path style="opacity:1" fill="#f2f2f2" d="M 169.5,787.5 C 451.834,787.333 734.167,787.5 1016.5,788C 1017.49,808.424 1017.83,828.924 1017.5,849.5C 734.833,849.5 452.167,849.5 169.5,849.5C 169.5,828.833 169.5,808.167 169.5,787.5 Z"/></g>
<g><path style="opacity:1" fill="#f2f2f2" d="M 91.5,798.5 C 107.167,798.5 122.833,798.5 138.5,798.5C 138.5,813.833 138.5,829.167 138.5,844.5C 122.833,844.5 107.167,844.5 91.5,844.5C 91.5,829.167 91.5,813.833 91.5,798.5 Z"/></g>
<g><path style="opacity:1" fill="#f2f2f2" d="M 91.5,958.5 C 128.833,958.5 166.167,958.5 203.5,958.5C 203.5,979.167 203.5,999.833 203.5,1020.5C 166.167,1020.5 128.833,1020.5 91.5,1020.5C 91.5,999.833 91.5,979.167 91.5,958.5 Z"/></g>
<g><path style="opacity:1" fill="#f2f2f2" d="M 91.5,1087.5 C 361.167,1087.5 630.833,1087.5 900.5,1087.5C 900.5,1104.83 900.5,1122.17 900.5,1139.5C 630.833,1139.5 361.167,1139.5 91.5,1139.5C 91.5,1122.17 91.5,1104.83 91.5,1087.5 Z"/></g>
<g><path style="opacity:1" fill="#f2f2f2" d="M 931.5,1118.5 C 953.167,1118.5 974.833,1118.5 996.5,1118.5C 996.5,1135.83 996.5,1153.17 996.5,1170.5C 974.833,1170.5 953.167,1170.5 931.5,1170.5C 931.5,1153.17 931.5,1135.83 931.5,1118.5 Z"/></g>
<g><path style="opacity:1" fill="#f2f2f2" d="M 91.5,1149.5 C 361.167,1149.5 630.833,1149.5 900.5,1149.5C 900.5,1166.83 900.5,1184.17 900.5,1201.5C 630.833,1201.5 361.167,1201.5 91.5,1201.5C 91.5,1184.17 91.5,1166.83 91.5,1149.5 Z"/></g>
<g><path style="opacity:1" fill="#f2f2f2" d="M 92.5,1309.5 C 146.5,1309.5 200.5,1309.5 254.5,1309.5C 254.5,1330.5 254.5,1351.5 254.5,1372.5C 200.499,1372.67 146.499,1372.5 92.5,1372C 91.1721,1351.17 91.1721,1330.33 92.5,1309.5 Z"/></g>
<g><path style="opacity:1" fill="#f2f2f2" d="M 91.5,1439.5 C 367.5,1439.5 643.5,1439.5 919.5,1439.5C 919.5,1456.5 919.5,1473.5 919.5,1490.5C 643.5,1490.5 367.5,1490.5 91.5,1490.5C 91.5,1473.5 91.5,1456.5 91.5,1439.5 Z"/></g>
<g><path style="opacity:1" fill="#f2f2f2" d="M 91.5,1501.5 C 367.5,1501.5 643.5,1501.5 919.5,1501.5C 919.5,1518.5 919.5,1535.5 919.5,1552.5C 643.5,1552.5 367.5,1552.5 91.5,1552.5C 91.5,1535.5 91.5,1518.5 91.5,1501.5 Z"/></g>
<g><path style="opacity:1" fill="#f2f2f2" d="M 981.5,1501.5 C 989.833,1501.5 998.167,1501.5 1006.5,1501.5C 1006.5,1515.17 1006.5,1528.83 1006.5,1542.5C 998.167,1542.5 989.833,1542.5 981.5,1542.5C 981.5,1528.83 981.5,1515.17 981.5,1501.5 Z"/></g>
<g><path style="opacity:1" fill="#f2f2f2" d="M 91.5,1563.5 C 215.833,1563.5 340.167,1563.5 464.5,1563.5C 464.5,1580.5 464.5,1597.5 464.5,1614.5C 340.167,1614.5 215.833,1614.5 91.5,1614.5C 91.5,1597.5 91.5,1580.5 91.5,1563.5 Z"/></g>
<g><path style="opacity:1" fill="#f2f2f2" d="M 91.5,1713.5 C 361.167,1713.5 630.833,1713.5 900.5,1713.5C 900.5,1730.5 900.5,1747.5 900.5,1764.5C 630.833,1764.5 361.167,1764.5 91.5,1764.5C 91.5,1747.5 91.5,1730.5 91.5,1713.5 Z"/></g>
<g><path style="opacity:1" fill="#f4f3f3" d="M 957.5,1744.5 C 970.5,1744.5 983.5,1744.5 996.5,1744.5C 996.5,1761.5 996.5,1778.5 996.5,1795.5C 983.5,1795.5 970.5,1795.5 957.5,1795.5C 957.5,1778.5 957.5,1761.5 957.5,1744.5 Z"/></g>
<g><path style="opacity:1" fill="#f2f2f2" d="M 91.5,1775.5 C 361.167,1775.5 630.833,1775.5 900.5,1775.5C 900.5,1792.5 900.5,1809.5 900.5,1826.5C 630.833,1826.5 361.167,1826.5 91.5,1826.5C 91.5,1809.5 91.5,1792.5 91.5,1775.5 Z"/></g>
<g><path style="opacity:1" fill="#f4f3f3" d="M 385.5,2149.5 C 498.165,2150.41 610.832,2150.57 723.5,2150C 727.292,2152.05 728.458,2155.22 727,2159.5C 726.097,2160.7 724.931,2161.53 723.5,2162C 610.5,2162.67 497.5,2162.67 384.5,2162C 380.379,2157.54 380.713,2153.37 385.5,2149.5 Z"/></g>
</svg>
