<?xml version="1.0" encoding="UTF-8"?>
<!DOCTYPE svg PUBLIC "-//W3C//DTD SVG 1.1//EN" "http://www.w3.org/Graphics/SVG/1.1/DTD/svg11.dtd">
<svg xmlns="http://www.w3.org/2000/svg" version="1.1" width="3520px" height="1918px" style="shape-rendering:geometricPrecision; text-rendering:geometricPrecision; image-rendering:optimizeQuality; fill-rule:evenodd; clip-rule:evenodd" xmlns:xlink="http://www.w3.org/1999/xlink">
<g><path style="opacity:1" fill="#f2f3f3" d="M 119.5,-0.5 C 1212.83,-0.5 2306.17,-0.5 3399.5,-0.5C 3467.17,11.8354 3507.17,51.8354 3519.5,119.5C 3519.5,678.167 3519.5,1236.83 3519.5,1795.5C 3509.69,1853.82 3476.69,1892.32 3420.5,1911C 3413.6,1912.87 3406.6,1914.2 3399.5,1915C 2852.83,1915.17 2306.17,1915.33 1759.5,1915.5C 1212.83,1915.33 666.167,1915.17 119.5,1915C 51.6524,1902.99 11.6524,1863.15 -0.5,1795.5C -0.5,1236.83 -0.5,678.167 -0.5,119.5C 11.8354,51.8313 51.8354,11.8313 119.5,-0.5 Z"/></g>
<g><path style="opacity:1" fill="#2e2e2e" d="M 3053.5,226.5 C 3060.8,226.602 3062.8,229.769 3059.5,236C 3052.72,238.232 3049.89,235.732 3051,228.5C 3051.99,227.934 3052.83,227.267 3053.5,226.5 Z"/></g>
<g><path style="opacity:1" fill="#292929" d="M 2862.5,227.5 C 2874.56,227.085 2886.56,227.585 2898.5,229C 2908.38,234.259 2911.88,242.425 2909,253.5C 2906.86,259.641 2902.69,263.807 2896.5,266C 2888.51,266.5 2880.51,266.666 2872.5,266.5C 2872.5,274.833 2872.5,283.167 2872.5,291.5C 2869.17,291.5 2865.83,291.5 2862.5,291.5C 2862.5,270.167 2862.5,248.833 2862.5,227.5 Z"/></g>
<g><path style="opacity:1" fill="#292929" d="M 3239.5,243.5 C 3239.44,242.957 3239.11,242.624 3238.5,242.5C 3237.5,258.82 3237.17,275.153 3237.5,291.5C 3234.5,291.5 3231.5,291.5 3228.5,291.5C 3228.5,270.167 3228.5,248.833 3228.5,227.5C 3231.85,227.335 3235.18,227.502 3238.5,228C 3250,243.5 3261.5,259 3273,274.5C 3273.5,258.837 3273.67,243.17 3273.5,227.5C 3276.5,227.5 3279.5,227.5 3282.5,227.5C 3282.5,248.833 3282.5,270.167 3282.5,291.5C 3279.48,291.665 3276.48,291.498 3273.5,291C 3262.03,275.226 3250.7,259.392 3239.5,243.5 Z"/></g>
<g><path style="opacity:1" fill="#edeeee" d="M 2872.5,235.5 C 2879.59,235.116 2886.59,235.616 2893.5,237C 2900.9,241.236 2902.4,247.07 2898,254.5C 2896.17,255.667 2894.33,256.833 2892.5,258C 2885.84,258.5 2879.17,258.666 2872.5,258.5C 2872.5,250.833 2872.5,243.167 2872.5,235.5 Z"/></g>
<g><path style="opacity:1" fill="#585958" d="M 3239.5,243.5 C 3238.83,259.5 3238.17,275.5 3237.5,291.5C 3237.17,275.153 3237.5,258.82 3238.5,242.5C 3239.11,242.624 3239.44,242.957 3239.5,243.5 Z"/></g>
<g><path style="opacity:1" fill="#2c2c2c" d="M 2937.5,244.5 C 2939.5,244.5 2941.5,244.5 2943.5,244.5C 2943.5,247.167 2943.5,249.833 2943.5,252.5C 2937.58,251.877 2932.75,253.877 2929,258.5C 2928.5,269.495 2928.33,280.495 2928.5,291.5C 2925.5,291.5 2922.5,291.5 2919.5,291.5C 2919.5,276.167 2919.5,260.833 2919.5,245.5C 2922.5,245.5 2925.5,245.5 2928.5,245.5C 2928.34,247.527 2928.5,249.527 2929,251.5C 2931.44,248.546 2934.27,246.213 2937.5,244.5 Z"/></g>
<g><path style="opacity:1" fill="#2a2a2a" d="M 2964.5,244.5 C 2983.08,241.435 2993.74,249.102 2996.5,267.5C 2994.87,286.63 2984.53,294.797 2965.5,292C 2952.16,285.684 2946.99,275.184 2950,260.5C 2952.63,253.046 2957.46,247.712 2964.5,244.5 Z"/></g>
<g><path style="opacity:1" fill="#272727" d="M 3074.5,291.5 C 3074.5,276.167 3074.5,260.833 3074.5,245.5C 3077.17,245.5 3079.83,245.5 3082.5,245.5C 3082.34,247.527 3082.5,249.527 3083,251.5C 3088.36,244.915 3095.19,242.749 3103.5,245C 3106.31,246.644 3108.64,248.81 3110.5,251.5C 3116.88,244.49 3124.55,242.657 3133.5,246C 3135.38,247.543 3136.88,249.376 3138,251.5C 3138.5,264.829 3138.67,278.163 3138.5,291.5C 3135.83,291.5 3133.17,291.5 3130.5,291.5C 3130.67,279.829 3130.5,268.162 3130,256.5C 3125.74,250.984 3120.57,250.151 3114.5,254C 3113.33,255.167 3112.17,256.333 3111,257.5C 3110.5,268.828 3110.33,280.162 3110.5,291.5C 3107.83,291.5 3105.17,291.5 3102.5,291.5C 3102.67,280.162 3102.5,268.828 3102,257.5C 3098.24,251.059 3093.08,249.893 3086.5,254C 3085.33,255.167 3084.17,256.333 3083,257.5C 3082.5,268.828 3082.33,280.162 3082.5,291.5C 3079.83,291.5 3077.17,291.5 3074.5,291.5 Z"/></g>
<g><path style="opacity:1" fill="#292929" d="M 3162.5,244.5 C 3167.84,244.334 3173.18,244.501 3178.5,245C 3182.47,245.964 3185.64,248.131 3188,251.5C 3189.46,264.735 3189.96,278.068 3189.5,291.5C 3186.83,291.5 3184.17,291.5 3181.5,291.5C 3181.66,289.801 3181.49,288.134 3181,286.5C 3173.58,292.826 3165.41,293.993 3156.5,290C 3149.96,283.402 3148.79,275.902 3153,267.5C 3158.62,262.718 3165.12,261.218 3172.5,263C 3175.62,263.726 3178.29,265.226 3180.5,267.5C 3181.66,264.216 3181.82,260.882 3181,257.5C 3180.17,255.333 3178.67,253.833 3176.5,253C 3168.58,249.901 3161.74,251.401 3156,257.5C 3154.63,255.63 3153.47,253.63 3152.5,251.5C 3155.55,248.652 3158.88,246.318 3162.5,244.5 Z"/></g>
<g><path style="opacity:1" fill="#2a2a2a" d="M 3309.5,244.5 C 3334.16,242.992 3343.99,254.325 3339,278.5C 3333.03,290.066 3323.53,294.566 3310.5,292C 3293.62,282.78 3289.79,269.614 3299,252.5C 3302.3,249.449 3305.8,246.782 3309.5,244.5 Z"/></g>
<g><path style="opacity:1" fill="#292929" d="M 3409.5,244.5 C 3415.18,244.334 3420.84,244.501 3426.5,245C 3429.9,246.4 3432.74,248.567 3435,251.5C 3436.46,264.735 3436.96,278.068 3436.5,291.5C 3433.83,291.5 3431.17,291.5 3428.5,291.5C 3428.66,289.801 3428.49,288.134 3428,286.5C 3420.58,292.826 3412.41,293.993 3403.5,290C 3396.48,282.908 3395.64,275.074 3401,266.5C 3406.55,262.652 3412.72,261.485 3419.5,263C 3422.62,263.726 3425.29,265.226 3427.5,267.5C 3429.98,254.541 3424.64,249.374 3411.5,252C 3408.24,253.211 3405.41,255.044 3403,257.5C 3401.63,255.63 3400.47,253.63 3399.5,251.5C 3402.55,248.652 3405.88,246.318 3409.5,244.5 Z"/></g>
<g><path style="opacity:1" fill="#2a2a2a" d="M 3000.5,245.5 C 3003.52,245.335 3006.52,245.502 3009.5,246C 3013.33,251.167 3017.17,256.333 3021,261.5C 3024.83,256.333 3028.67,251.167 3032.5,246C 3035.55,245.179 3038.55,245.345 3041.5,246.5C 3036.75,253.676 3031.75,260.676 3026.5,267.5C 3031.97,275.473 3037.64,283.306 3043.5,291C 3040.17,291.667 3036.83,291.667 3033.5,291C 3029.46,285.079 3025.29,279.245 3021,273.5C 3016.71,279.245 3012.54,285.079 3008.5,291C 3005.17,291.667 3001.83,291.667 2998.5,291C 3004.36,283.306 3010.03,275.473 3015.5,267.5C 3009.99,260.456 3004.99,253.122 3000.5,245.5 Z"/></g>
<g><path style="opacity:1" fill="#252625" d="M 3051.5,245.5 C 3054.17,245.5 3056.83,245.5 3059.5,245.5C 3059.5,260.833 3059.5,276.167 3059.5,291.5C 3056.83,291.5 3054.17,291.5 3051.5,291.5C 3051.5,276.167 3051.5,260.833 3051.5,245.5 Z"/></g>
<g><path style="opacity:1" fill="#7a7b7b" d="M 3051.5,245.5 C 3054.29,244.523 3057.29,244.19 3060.5,244.5C 3060.83,260.342 3060.5,276.009 3059.5,291.5C 3059.5,276.167 3059.5,260.833 3059.5,245.5C 3056.83,245.5 3054.17,245.5 3051.5,245.5 Z"/></g>
<g><path style="opacity:1" fill="#797a7a" d="M 3082.5,245.5 C 3079.83,245.5 3077.17,245.5 3074.5,245.5C 3074.5,260.833 3074.5,276.167 3074.5,291.5C 3073.5,276.009 3073.17,260.342 3073.5,244.5C 3076.71,244.19 3079.71,244.523 3082.5,245.5 Z"/></g>
<g><path style="opacity:1" fill="#2a2a2a" d="M 3345.5,246.5 C 3348.56,245.182 3351.73,245.182 3355,246.5C 3359.67,257.833 3364.33,269.167 3369,280.5C 3373.67,269.167 3378.33,257.833 3383,246.5C 3386.07,245.383 3389.24,245.216 3392.5,246C 3386.17,261 3379.83,276 3373.5,291C 3370.24,291.784 3367.07,291.617 3364,290.5C 3358.06,275.629 3351.89,260.962 3345.5,246.5 Z"/></g>
<g><path style="opacity:1" fill="#eeefef" d="M 2968.5,251.5 C 2983.81,252.424 2989.64,260.424 2986,275.5C 2982.15,284.062 2975.65,286.895 2966.5,284C 2958.48,277.561 2956.31,269.394 2960,259.5C 2962.07,255.923 2964.91,253.256 2968.5,251.5 Z"/></g>
<g><path style="opacity:1" fill="#eff0f0" d="M 3313.5,251.5 C 3328.43,251.969 3334.26,259.636 3331,274.5C 3327.66,283.792 3321.16,286.959 3311.5,284C 3304.25,278.244 3301.75,270.744 3304,261.5C 3306.02,256.98 3309.19,253.647 3313.5,251.5 Z"/></g>
<g><path style="opacity:1" fill="#eceded" d="M 3164.5,268.5 C 3170.31,267.774 3175.64,268.941 3180.5,272C 3183.57,279.425 3181.24,284.092 3173.5,286C 3162.12,287.951 3157.62,283.451 3160,272.5C 3161.4,270.93 3162.9,269.596 3164.5,268.5 Z"/></g>
<g><path style="opacity:1" fill="#eceded" d="M 3411.5,268.5 C 3417.31,267.774 3422.64,268.941 3427.5,272C 3430.57,279.425 3428.24,284.092 3420.5,286C 3409.12,287.951 3404.62,283.451 3407,272.5C 3408.4,270.93 3409.9,269.596 3411.5,268.5 Z"/></g>
<g><path style="opacity:1" fill="#000000" d="M 2276.5,994.5 C 2371.21,993.837 2465.71,994.504 2560,996.5C 2650.64,1242.76 2741.47,1488.93 2832.5,1735C 2751.17,1735.5 2669.83,1735.67 2588.5,1735.5C 2579.37,1703.45 2570.04,1671.45 2560.5,1639.5C 2465.5,1639.17 2370.5,1639.5 2275.5,1640.5C 2265.75,1672 2256.08,1703.5 2246.5,1735C 2165.5,1735.67 2084.5,1735.67 2003.5,1735C 2094.8,1488.28 2185.8,1241.44 2276.5,994.5 Z"/></g>
<g><path style="opacity:1" fill="#000000" d="M 3098.5,1185.5 C 3153.22,1182.84 3206.22,1191.01 3257.5,1210C 3325.33,1239.87 3364.5,1291.71 3375,1365.5C 3376,1373.47 3376.66,1381.47 3377,1389.5C 3377.5,1504.83 3377.67,1620.17 3377.5,1735.5C 3310.83,1735.5 3244.17,1735.5 3177.5,1735.5C 3177.67,1718.83 3177.5,1702.16 3177,1685.5C 3157.89,1706.82 3134.72,1722.32 3107.5,1732C 3064.95,1747.85 3021.28,1752.18 2976.5,1745C 2925.33,1734.2 2885.17,1707.36 2856,1664.5C 2836.38,1630.09 2828.38,1593.09 2832,1553.5C 2836.42,1491.46 2866.92,1447.96 2923.5,1423C 2953.72,1411.35 2985.05,1405.85 3017.5,1406.5C 3054.46,1406.71 3090.13,1413.54 3124.5,1427C 3144.95,1435.46 3162.45,1447.96 3177,1464.5C 3177.96,1439.12 3177.63,1413.78 3176,1388.5C 3170.89,1373.73 3161.72,1362.23 3148.5,1354C 3122.09,1340.71 3094.09,1335.37 3064.5,1338C 3014.49,1342.35 2969.49,1359.51 2929.5,1389.5C 2906.72,1348.78 2884.06,1307.95 2861.5,1267C 2902.64,1235.1 2948.64,1212.76 2999.5,1200C 3032.13,1191.67 3065.13,1186.84 3098.5,1185.5 Z"/></g>
<g><path style="opacity:1" fill="#f1f2f2" d="M 2501.5,1451.5 C 2445.83,1452.83 2390.17,1452.83 2334.5,1451.5C 2361.82,1365.03 2389.66,1278.69 2418,1192.5C 2446.34,1278.69 2474.17,1365.02 2501.5,1451.5 Z"/></g>
<g><path style="opacity:1" fill="#282828" d="M 159.5,1306.5 C 155.366,1305.52 151.032,1305.18 146.5,1305.5C 146.5,1314.17 146.5,1322.83 146.5,1331.5C 144.167,1331.5 141.833,1331.5 139.5,1331.5C 139.5,1310.17 139.5,1288.83 139.5,1267.5C 149.839,1267.33 160.172,1267.5 170.5,1268C 184.3,1273.71 188.134,1283.54 182,1297.5C 178.35,1301.74 173.85,1304.57 168.5,1306C 174.167,1314.33 179.833,1322.67 185.5,1331C 182.118,1331.82 178.784,1331.66 175.5,1330.5C 170.5,1322.19 165.166,1314.19 159.5,1306.5 Z"/></g>
<g><path style="opacity:1" fill="#252625" d="M 356.5,1267.5 C 358.833,1267.5 361.167,1267.5 363.5,1267.5C 363.5,1288.83 363.5,1310.17 363.5,1331.5C 361.167,1331.5 358.833,1331.5 356.5,1331.5C 356.5,1310.17 356.5,1288.83 356.5,1267.5 Z"/></g>
<g><path style="opacity:1" fill="#f0f1f1" d="M 147.5,1274.5 C 155.238,1274.14 162.905,1274.64 170.5,1276C 176.649,1280.51 178.149,1286.34 175,1293.5C 172.97,1296.56 170.136,1298.23 166.5,1298.5C 160.167,1298.5 153.833,1298.5 147.5,1298.5C 147.5,1290.5 147.5,1282.5 147.5,1274.5 Z"/></g>
<g><path style="opacity:1" fill="#2a2a2a" d="M 207.5,1284.5 C 226.652,1282.65 236.318,1291.32 236.5,1310.5C 224.167,1310.5 211.833,1310.5 199.5,1310.5C 201.211,1323.22 208.545,1328.38 221.5,1326C 224.329,1324.75 226.995,1323.25 229.5,1321.5C 231.167,1322.5 232.5,1323.83 233.5,1325.5C 225.226,1332.36 215.893,1334.2 205.5,1331C 197.173,1327.19 192.673,1320.69 192,1311.5C 190.966,1298.9 196.133,1289.9 207.5,1284.5 Z"/></g>
<g><path style="opacity:1" fill="#2c2c2c" d="M 281.5,1285.5 C 283.833,1285.5 286.167,1285.5 288.5,1285.5C 288.5,1300.5 288.5,1315.5 288.5,1330.5C 288.933,1341.12 283.933,1347.62 273.5,1350C 263.932,1352.24 255.599,1350.07 248.5,1343.5C 249.174,1341.48 250.341,1339.82 252,1338.5C 257.75,1344.11 264.583,1345.95 272.5,1344C 280.676,1340.32 283.343,1334.16 280.5,1325.5C 274.228,1331.14 266.894,1332.97 258.5,1331C 249.678,1326.2 245.344,1318.7 245.5,1308.5C 245.575,1290.92 254.242,1283.08 271.5,1285C 275.135,1285.82 278.135,1287.65 280.5,1290.5C 281.452,1288.95 281.785,1287.29 281.5,1285.5 Z"/></g>
<g><path style="opacity:1" fill="#2c2c2c" d="M 387.5,1284.5 C 392.511,1284.33 397.511,1284.5 402.5,1285C 407.631,1285.82 411.131,1288.65 413,1293.5C 413.5,1306.16 413.667,1318.83 413.5,1331.5C 411.167,1331.5 408.833,1331.5 406.5,1331.5C 406.762,1330.02 406.429,1328.69 405.5,1327.5C 397.507,1333.51 389.174,1334.01 380.5,1329C 373.236,1319.98 373.902,1311.65 382.5,1304C 387.411,1302.51 392.411,1302.17 397.5,1303C 400.787,1303.62 403.621,1305.12 406,1307.5C 408.555,1294.06 403.055,1288.56 389.5,1291C 386.274,1292.2 383.441,1294.03 381,1296.5C 379.954,1294.91 378.787,1293.41 377.5,1292C 380.365,1288.75 383.699,1286.25 387.5,1284.5 Z"/></g>
<g><path style="opacity:1" fill="#282828" d="M 445.5,1284.5 C 447.5,1284.5 449.5,1284.5 451.5,1284.5C 451.5,1286.83 451.5,1289.17 451.5,1291.5C 444.795,1290.67 439.628,1293 436,1298.5C 435.5,1309.49 435.333,1320.49 435.5,1331.5C 433.167,1331.5 430.833,1331.5 428.5,1331.5C 428.5,1316.17 428.5,1300.83 428.5,1285.5C 430.833,1285.5 433.167,1285.5 435.5,1285.5C 435.337,1287.86 435.503,1290.19 436,1292.5C 438.772,1289.22 441.939,1286.55 445.5,1284.5 Z"/></g>
<g><path style="opacity:1" fill="#909191" d="M 281.5,1285.5 C 283.948,1284.53 286.615,1284.19 289.5,1284.5C 289.83,1300.01 289.496,1315.34 288.5,1330.5C 288.5,1315.5 288.5,1300.5 288.5,1285.5C 286.167,1285.5 283.833,1285.5 281.5,1285.5 Z"/></g>
<g><path style="opacity:1" fill="#292929" d="M 303.5,1285.5 C 305.833,1285.5 308.167,1285.5 310.5,1285.5C 310.333,1297.17 310.5,1308.84 311,1320.5C 312.8,1324.65 315.967,1326.65 320.5,1326.5C 325.667,1325.95 330.167,1323.95 334,1320.5C 334.5,1308.84 334.667,1297.17 334.5,1285.5C 336.833,1285.5 339.167,1285.5 341.5,1285.5C 341.5,1300.83 341.5,1316.17 341.5,1331.5C 339.167,1331.5 336.833,1331.5 334.5,1331.5C 334.662,1329.47 334.495,1327.47 334,1325.5C 326.987,1332.28 318.82,1334.11 309.5,1331C 306.894,1329.06 305.061,1326.56 304,1323.5C 303.5,1310.84 303.333,1298.17 303.5,1285.5 Z"/></g>
<g><path style="opacity:1" fill="#eceded" d="M 210.5,1289.5 C 221.765,1289.11 228.098,1294.44 229.5,1305.5C 219.5,1305.5 209.5,1305.5 199.5,1305.5C 200.085,1297.94 203.752,1292.6 210.5,1289.5 Z"/></g>
<g><path style="opacity:1" fill="#f0f1f1" d="M 263.5,1290.5 C 270.375,1289.52 276.208,1291.52 281,1296.5C 281.667,1304.17 281.667,1311.83 281,1319.5C 272.564,1327.38 264.231,1327.38 256,1319.5C 252.711,1311.81 252.711,1304.14 256,1296.5C 258.134,1293.85 260.634,1291.85 263.5,1290.5 Z"/></g>
<g><path style="opacity:1" fill="#8a8b8b" d="M 147.5,1274.5 C 147.5,1282.5 147.5,1290.5 147.5,1298.5C 153.833,1298.5 160.167,1298.5 166.5,1298.5C 160.021,1299.49 153.354,1299.82 146.5,1299.5C 146.174,1290.98 146.507,1282.65 147.5,1274.5 Z"/></g>
<g><path style="opacity:1" fill="#8b8c8c" d="M 159.5,1306.5 C 155.5,1306.5 151.5,1306.5 147.5,1306.5C 147.826,1315.02 147.493,1323.35 146.5,1331.5C 146.5,1322.83 146.5,1314.17 146.5,1305.5C 151.032,1305.18 155.366,1305.52 159.5,1306.5 Z"/></g>
<g><path style="opacity:1" fill="#eeefef" d="M 389.5,1307.5 C 395.605,1306.65 401.105,1307.98 406,1311.5C 408.104,1324.39 402.604,1329.56 389.5,1327C 380.192,1320.36 380.192,1313.86 389.5,1307.5 Z"/></g>
<g><path style="opacity:1" fill="#b4b5b5" d="M 2334.5,1451.5 C 2390.17,1452.83 2445.83,1452.83 2501.5,1451.5C 2502.04,1451.56 2502.38,1451.89 2502.5,1452.5C 2446.17,1453.83 2389.83,1453.83 2333.5,1452.5C 2333.62,1451.89 2333.96,1451.56 2334.5,1451.5 Z"/></g>
<g><path style="opacity:1" fill="#2c2c2c" d="M 328.5,1454.5 C 335.745,1454.56 337.745,1457.72 334.5,1464C 328.229,1466.4 325.396,1464.23 326,1457.5C 326.698,1456.31 327.531,1455.31 328.5,1454.5 Z"/></g>
<g><path style="opacity:1" fill="#292929" d="M 194.5,1519.5 C 194.833,1502.82 194.499,1486.15 193.5,1469.5C 192.893,1469.62 192.56,1469.96 192.5,1470.5C 185.883,1486.73 179.549,1503.07 173.5,1519.5C 171.833,1519.5 170.167,1519.5 168.5,1519.5C 162.366,1503.1 156.033,1486.77 149.5,1470.5C 149.217,1469.71 148.717,1469.04 148,1468.5C 147.5,1485.5 147.333,1502.5 147.5,1519.5C 144.5,1519.5 141.5,1519.5 138.5,1519.5C 138.5,1498.17 138.5,1476.83 138.5,1455.5C 143.43,1455.2 148.263,1455.53 153,1456.5C 158.609,1471.33 164.609,1485.99 171,1500.5C 177.391,1485.99 183.391,1471.33 189,1456.5C 193.737,1455.53 198.57,1455.2 203.5,1455.5C 203.5,1476.83 203.5,1498.17 203.5,1519.5C 200.5,1519.5 197.5,1519.5 194.5,1519.5 Z"/></g>
<g><path style="opacity:1" fill="#282828" d="M 304.5,1455.5 C 307.167,1455.5 309.833,1455.5 312.5,1455.5C 312.5,1476.83 312.5,1498.17 312.5,1519.5C 309.833,1519.5 307.167,1519.5 304.5,1519.5C 304.799,1517.4 304.466,1515.4 303.5,1513.5C 297.809,1519.51 290.809,1521.68 282.5,1520C 272.319,1515.15 267.652,1506.99 268.5,1495.5C 269.043,1478.45 277.71,1470.95 294.5,1473C 298.24,1474.29 301.407,1476.46 304,1479.5C 304.5,1471.51 304.666,1463.51 304.5,1455.5 Z"/></g>
<g><path style="opacity:1" fill="#585858" d="M 149.5,1470.5 C 148.833,1486.83 148.167,1503.17 147.5,1519.5C 147.333,1502.5 147.5,1485.5 148,1468.5C 148.717,1469.04 149.217,1469.71 149.5,1470.5 Z"/></g>
<g><path style="opacity:1" fill="#595a5a" d="M 192.5,1470.5 C 192.56,1469.96 192.893,1469.62 193.5,1469.5C 194.499,1486.15 194.833,1502.82 194.5,1519.5C 193.833,1503.17 193.167,1486.83 192.5,1470.5 Z"/></g>
<g><path style="opacity:1" fill="#2b2b2b" d="M 259.5,1491.5 C 259.5,1493.83 259.5,1496.17 259.5,1498.5C 247.322,1498.17 235.322,1498.5 223.5,1499.5C 226.144,1510.5 233.144,1515 244.5,1513C 247.656,1512.06 250.489,1510.56 253,1508.5C 254.659,1509.82 255.826,1511.48 256.5,1513.5C 254.393,1516.06 251.726,1517.89 248.5,1519C 228.034,1523.78 216.701,1515.78 214.5,1495C 217.144,1477.69 227.144,1470.36 244.5,1473C 253.018,1476.35 258.018,1482.51 259.5,1491.5 Z"/></g>
<g><path style="opacity:1" fill="#2b2b2b" d="M 420.5,1472.5 C 425.777,1471.93 430.777,1472.76 435.5,1475C 437.041,1476.58 438.208,1478.41 439,1480.5C 445.085,1472.53 452.918,1470.37 462.5,1474C 464.81,1475.64 466.31,1477.8 467,1480.5C 467.5,1493.5 467.667,1506.5 467.5,1519.5C 464.833,1519.5 462.167,1519.5 459.5,1519.5C 459.667,1508.16 459.5,1496.83 459,1485.5C 452.924,1477.65 446.591,1477.65 440,1485.5C 439.5,1496.83 439.333,1508.16 439.5,1519.5C 436.5,1519.5 433.5,1519.5 430.5,1519.5C 430.667,1507.5 430.5,1495.5 430,1483.5C 423.398,1477.77 417.398,1478.44 412,1485.5C 411.5,1496.83 411.333,1508.16 411.5,1519.5C 408.5,1519.5 405.5,1519.5 402.5,1519.5C 402.5,1504.17 402.5,1488.83 402.5,1473.5C 405.5,1473.5 408.5,1473.5 411.5,1473.5C 411.34,1475.2 411.506,1476.87 412,1478.5C 414.637,1476.11 417.47,1474.11 420.5,1472.5 Z"/></g>
<g><path style="opacity:1" fill="#2d2d2d" d="M 326.5,1473.5 C 329.5,1473.5 332.5,1473.5 335.5,1473.5C 335.5,1488.83 335.5,1504.17 335.5,1519.5C 332.5,1519.5 329.5,1519.5 326.5,1519.5C 326.5,1504.17 326.5,1488.83 326.5,1473.5 Z"/></g>
<g><path style="opacity:1" fill="#272727" d="M 379.5,1506.5 C 380.495,1495.68 380.828,1484.68 380.5,1473.5C 383.167,1473.5 385.833,1473.5 388.5,1473.5C 388.5,1488.83 388.5,1504.17 388.5,1519.5C 385.833,1519.5 383.167,1519.5 380.5,1519.5C 380.662,1517.47 380.495,1515.47 380,1513.5C 371.262,1521.31 361.928,1522.31 352,1516.5C 351.333,1515.17 350.667,1513.83 350,1512.5C 349.5,1499.5 349.333,1486.5 349.5,1473.5C 352.167,1473.5 354.833,1473.5 357.5,1473.5C 357.041,1485.6 357.541,1497.6 359,1509.5C 359.833,1510.33 360.667,1511.17 361.5,1512C 366.257,1512.81 370.924,1512.48 375.5,1511C 377.192,1509.69 378.525,1508.19 379.5,1506.5 Z"/></g>
<g><path style="opacity:1" fill="#bcbdbd" d="M 388.5,1473.5 C 385.833,1473.5 383.167,1473.5 380.5,1473.5C 380.828,1484.68 380.495,1495.68 379.5,1506.5C 379.5,1495.17 379.5,1483.83 379.5,1472.5C 382.713,1472.19 385.713,1472.52 388.5,1473.5 Z"/></g>
<g><path style="opacity:1" fill="#eff0f0" d="M 232.5,1479.5 C 243.558,1477.25 249.891,1481.59 251.5,1492.5C 242.167,1492.5 232.833,1492.5 223.5,1492.5C 224.309,1486.52 227.309,1482.19 232.5,1479.5 Z"/></g>
<g><path style="opacity:1" fill="#eeefef" d="M 286.5,1479.5 C 293.743,1478.63 299.576,1480.96 304,1486.5C 304.667,1493.17 304.667,1499.83 304,1506.5C 299.032,1512.12 292.865,1513.95 285.5,1512C 282.667,1510.5 280.5,1508.33 279,1505.5C 274.975,1494.72 277.475,1486.05 286.5,1479.5 Z"/></g>
<g><path style="opacity:1" fill="#717272" d="M 259.5,1491.5 C 260.473,1493.95 260.806,1496.61 260.5,1499.5C 248.167,1499.5 235.833,1499.5 223.5,1499.5C 235.322,1498.5 247.322,1498.17 259.5,1498.5C 259.5,1496.17 259.5,1493.83 259.5,1491.5 Z"/></g>
<g><path style="opacity:1" fill="#f1f2f2" d="M 3080.5,1531.5 C 3106.02,1529.27 3130.69,1532.77 3154.5,1542C 3163.15,1545.91 3170.65,1551.41 3177,1558.5C 3177.67,1569.5 3177.67,1580.5 3177,1591.5C 3166.18,1602.99 3153.02,1610.49 3137.5,1614C 3111.06,1620.27 3084.72,1619.94 3058.5,1613C 3034.5,1604.17 3025.34,1587.34 3031,1562.5C 3038.11,1548.01 3049.61,1538.84 3065.5,1535C 3070.65,1533.88 3075.65,1532.71 3080.5,1531.5 Z"/></g>
<g><path style="opacity:1" fill="#292929" d="M 137.5,1643.5 C 150.504,1643.33 163.504,1643.5 176.5,1644C 189.707,1648.37 193.207,1656.87 187,1669.5C 185.104,1671.53 182.937,1673.2 180.5,1674.5C 191.007,1680.19 193.841,1688.52 189,1699.5C 186.736,1702.43 183.902,1704.6 180.5,1706C 166.226,1707.43 151.892,1707.93 137.5,1707.5C 137.5,1686.17 137.5,1664.83 137.5,1643.5 Z"/></g>
<g><path style="opacity:1" fill="#252625" d="M 256.5,1643.5 C 260.5,1643.5 264.5,1643.5 268.5,1643.5C 268.5,1664.83 268.5,1686.17 268.5,1707.5C 264.5,1707.5 260.5,1707.5 256.5,1707.5C 256.5,1686.17 256.5,1664.83 256.5,1643.5 Z"/></g>
<g><path style="opacity:1" fill="#272727" d="M 312.5,1643.5 C 316.5,1643.5 320.5,1643.5 324.5,1643.5C 324.5,1664.83 324.5,1686.17 324.5,1707.5C 320.5,1707.5 316.5,1707.5 312.5,1707.5C 312.66,1705.8 312.494,1704.13 312,1702.5C 301.388,1710.99 291.388,1710.32 282,1700.5C 276.589,1690.32 276.256,1679.99 281,1669.5C 286.816,1661.18 294.649,1658.35 304.5,1661C 307.266,1662.47 309.766,1664.3 312,1666.5C 312.5,1658.84 312.666,1651.17 312.5,1643.5 Z"/></g>
<g><path style="opacity:1" fill="#eeefef" d="M 151.5,1655.5 C 158.508,1655.33 165.508,1655.5 172.5,1656C 174.885,1657.46 175.885,1659.63 175.5,1662.5C 175.908,1666.26 174.242,1668.43 170.5,1669C 164.175,1669.5 157.842,1669.67 151.5,1669.5C 151.5,1664.83 151.5,1660.17 151.5,1655.5 Z"/></g>
<g><path style="opacity:1" fill="#282828" d="M 214.5,1660.5 C 229.066,1657.39 239.566,1662.39 246,1675.5C 249.592,1699.12 239.425,1709.95 215.5,1708C 200.789,1701.41 195.623,1690.24 200,1674.5C 203.408,1668.26 208.242,1663.59 214.5,1660.5 Z"/></g>
<g><path style="opacity:1" fill="#edeeee" d="M 219.5,1670.5 C 232.508,1671.82 237.008,1678.82 233,1691.5C 231.833,1694 230,1695.83 227.5,1697C 216.749,1699.09 211.083,1694.59 210.5,1683.5C 211.301,1677.54 214.301,1673.21 219.5,1670.5 Z"/></g>
<g><path style="opacity:1" fill="#eeefef" d="M 298.5,1670.5 C 303.801,1670.1 308.301,1671.77 312,1675.5C 312.667,1681.5 312.667,1687.5 312,1693.5C 304.98,1699.13 298.314,1698.79 292,1692.5C 289.744,1686.33 290.077,1680.33 293,1674.5C 294.812,1673.02 296.645,1671.69 298.5,1670.5 Z"/></g>
<g><path style="opacity:1" fill="#eeefef" d="M 151.5,1680.5 C 158.175,1680.33 164.842,1680.5 171.5,1681C 178.626,1684.64 179.293,1689.31 173.5,1695C 166.174,1695.5 158.841,1695.67 151.5,1695.5C 151.5,1690.5 151.5,1685.5 151.5,1680.5 Z"/></g>
</svg>
