<?xml version="1.0" encoding="UTF-8"?>
<!DOCTYPE svg PUBLIC "-//W3C//DTD SVG 1.1//EN" "http://www.w3.org/Graphics/SVG/1.1/DTD/svg11.dtd">
<svg xmlns="http://www.w3.org/2000/svg" version="1.1" width="652px" height="280px" style="shape-rendering:geometricPrecision; text-rendering:geometricPrecision; image-rendering:optimizeQuality; fill-rule:evenodd; clip-rule:evenodd" xmlns:xlink="http://www.w3.org/1999/xlink">
<g><path style="opacity:0.501" fill="#003849" d="M 100.5,-0.5 C 250.5,-0.5 400.5,-0.5 550.5,-0.5C 598.675,7.83098 630.841,35.1643 647,81.5C 648.692,87.9293 650.192,94.2627 651.5,100.5C 651.5,160.167 651.5,219.833 651.5,279.5C 650.5,279.5 649.5,279.5 648.5,279.5C 625.103,266.125 601.436,253.125 577.5,240.5C 564.909,245.118 551.909,247.618 538.5,248C 396.5,248.667 254.5,248.667 112.5,248C 58.4455,243.937 22.2788,216.437 4,165.5C 2.30755,159.071 0.807552,152.737 -0.5,146.5C -0.5,131.167 -0.5,115.833 -0.5,100.5C 7.85953,52.3004 35.1929,20.1338 81.5,4C 87.9293,2.30755 94.2627,0.807552 100.5,-0.5 Z"/></g>
</svg>
