<?xml version="1.0" encoding="UTF-8"?>
<!DOCTYPE svg PUBLIC "-//W3C//DTD SVG 1.1//EN" "http://www.w3.org/Graphics/SVG/1.1/DTD/svg11.dtd">
<svg xmlns="http://www.w3.org/2000/svg" version="1.1" width="652px" height="310px" style="shape-rendering:geometricPrecision; text-rendering:geometricPrecision; image-rendering:optimizeQuality; fill-rule:evenodd; clip-rule:evenodd" xmlns:xlink="http://www.w3.org/1999/xlink">
<g><path style="opacity:0.501" fill="#003749" d="M 100.5,-0.5 C 250.5,-0.5 400.5,-0.5 550.5,-0.5C 598.7,7.85953 630.866,35.1929 647,81.5C 648.692,87.9293 650.192,94.2627 651.5,100.5C 651.5,170.167 651.5,239.833 651.5,309.5C 650.5,309.5 649.5,309.5 648.5,309.5C 625.565,294.69 602.231,280.357 578.5,266.5C 568.511,270.414 558.178,272.914 547.5,274C 399.5,274.667 251.5,274.667 103.5,274C 45.6802,264.345 11.0135,230.845 -0.5,173.5C -0.5,149.167 -0.5,124.833 -0.5,100.5C 7.85953,52.3004 35.1929,20.1338 81.5,4C 87.9293,2.30755 94.2627,0.807552 100.5,-0.5 Z"/></g>
</svg>
