<?xml version="1.0" encoding="UTF-8"?>
<!DOCTYPE svg PUBLIC "-//W3C//DTD SVG 1.1//EN" "http://www.w3.org/Graphics/SVG/1.1/DTD/svg11.dtd">
<svg xmlns="http://www.w3.org/2000/svg" version="1.1" width="828px" height="310px" style="shape-rendering:geometricPrecision; text-rendering:geometricPrecision; image-rendering:optimizeQuality; fill-rule:evenodd; clip-rule:evenodd" xmlns:xlink="http://www.w3.org/1999/xlink">
<g><path style="opacity:0.501" fill="#003749" d="M 100.5,-0.5 C 309.167,-0.5 517.833,-0.5 726.5,-0.5C 774.675,7.83098 806.841,35.1643 823,81.5C 824.692,87.9293 826.192,94.2627 827.5,100.5C 827.5,124.833 827.5,149.167 827.5,173.5C 817.113,227.389 785.113,260.556 731.5,273C 522.188,274.658 312.855,274.991 103.5,274C 97.0604,273.412 90.7271,272.245 84.5,270.5C 56.8382,282.999 29.5048,295.999 2.5,309.5C 1.83333,309.5 1.16667,309.5 0.5,309.5C 0.832087,263.997 0.498754,218.664 -0.5,173.5C -0.5,149.167 -0.5,124.833 -0.5,100.5C 7.85953,52.3004 35.1929,20.1338 81.5,4C 87.9293,2.30755 94.2627,0.807552 100.5,-0.5 Z"/></g>
</svg>
